<svg xmlns="http://www.w3.org/2000/svg" xmlns:xlink="http://www.w3.org/1999/xlink" width="533" height="335.61" viewBox="0 0 533 335.61">
  <defs>
    <clipPath id="clip-path">
      <rect id="Rectángulo_37044" data-name="Rectángulo 37044" width="533" height="335.61" fill="none"/>
    </clipPath>
    <clipPath id="clip-path-2">
      <rect id="Rectángulo_37043" data-name="Rectángulo 37043" width="533" height="335.61" fill="#afafaf"/>
    </clipPath>
    <clipPath id="clip-path-3">
      <rect id="Rectángulo_37005" data-name="Rectángulo 37005" width="121.647" height="82.945" fill="none"/>
    </clipPath>
    <clipPath id="clip-path-4">
      <rect id="Rectángulo_37034" data-name="Rectángulo 37034" width="42.674" height="30.683" fill="none"/>
    </clipPath>
    <clipPath id="clip-path-5">
      <rect id="Rectángulo_37035" data-name="Rectángulo 37035" width="5.731" height="30.683" fill="none"/>
    </clipPath>
    <clipPath id="clip-path-6">
      <rect id="Rectángulo_37036" data-name="Rectángulo 37036" width="74.729" height="74.77" fill="none"/>
    </clipPath>
    <clipPath id="clip-path-7">
      <rect id="Rectángulo_37037" data-name="Rectángulo 37037" width="58.507" height="52.528" fill="none"/>
    </clipPath>
    <clipPath id="clip-path-8">
      <rect id="Rectángulo_37038" data-name="Rectángulo 37038" width="50.909" height="44.905" fill="none"/>
    </clipPath>
    <clipPath id="clip-path-9">
      <rect id="Rectángulo_37039" data-name="Rectángulo 37039" width="161.412" height="118.882" fill="none"/>
    </clipPath>
    <clipPath id="clip-path-10">
      <rect id="Rectángulo_37040" data-name="Rectángulo 37040" width="70.354" height="70.353" fill="none"/>
    </clipPath>
    <clipPath id="clip-path-11">
      <rect id="Rectángulo_37041" data-name="Rectángulo 37041" width="65.046" height="52.053" fill="none"/>
    </clipPath>
    <clipPath id="clip-path-12">
      <rect id="Rectángulo_37042" data-name="Rectángulo 37042" width="70.293" height="62.94" fill="none"/>
    </clipPath>
  </defs>
  <g id="Grupo_141444" data-name="Grupo 141444" clip-path="url(#clip-path)">
    <g id="Grupo_141443" data-name="Grupo 141443">
      <g id="Grupo_141442" data-name="Grupo 141442" clip-path="url(#clip-path-2)">
        <path id="Trazado_144552" data-name="Trazado 144552" d="M19.695,164.378a17.359,17.359,0,0,1,4.23-1.838l.871-4.187,7.074-.125,1.018,4.154a17.314,17.314,0,0,1,4.293,1.688l3.575-2.343,5.09,4.914L43.63,170.3a17.341,17.341,0,0,1,1.839,4.231l4.186.871.125,7.074-4.154,1.018a17.35,17.35,0,0,1-1.688,4.292l2.343,3.576-4.914,5.09-3.655-2.216a17.369,17.369,0,0,1-4.231,1.838l-.871,4.187-7.074.124-1.019-4.153a17.353,17.353,0,0,1-4.292-1.689l-3.575,2.344-5.09-4.915,2.216-3.655a17.294,17.294,0,0,1-1.839-4.231l-4.187-.871-.124-7.074,4.153-1.019a17.365,17.365,0,0,1,1.689-4.291l-2.343-3.576,4.914-5.09Zm3.771,9.424a7.59,7.59,0,1,0,10.732-.188,7.591,7.591,0,0,0-10.732.188" transform="translate(-1.763 -36.583)" fill="#ebebeb"/>
        <path id="Trazado_144553" data-name="Trazado 144553" d="M33.246,31.206a17.358,17.358,0,0,1,4.23-1.838l.871-4.188,7.074-.124,1.018,4.154A17.314,17.314,0,0,1,50.732,30.9l3.575-2.343,5.09,4.914-2.216,3.655a17.342,17.342,0,0,1,1.839,4.231l4.186.871L63.33,49.3l-4.154,1.018a17.35,17.35,0,0,1-1.688,4.292l2.343,3.576-4.914,5.09L51.262,61.06A17.368,17.368,0,0,1,47.031,62.9l-.871,4.187-7.074.124-1.018-4.153a17.382,17.382,0,0,1-4.292-1.689L30.2,63.71,25.11,58.8l2.216-3.655a17.321,17.321,0,0,1-1.838-4.231L21.3,50.039l-.124-7.074,4.153-1.019a17.365,17.365,0,0,1,1.689-4.291l-2.343-3.576,4.914-5.09Zm3.771,9.424a7.59,7.59,0,1,0,10.732-.188,7.59,7.59,0,0,0-10.732.188" transform="translate(-4.896 -5.793)" fill="#ebebeb"/>
        <path id="Trazado_144554" data-name="Trazado 144554" d="M233.28,82.467a20.9,20.9,0,0,1,5.107-2.22l1.052-5.056,8.541-.15,1.229,5.015a20.9,20.9,0,0,1,5.182,2.039l4.317-2.83,6.146,5.934-2.676,4.413a20.889,20.889,0,0,1,2.22,5.108l5.055,1.052.15,8.541-5.015,1.229a20.926,20.926,0,0,1-2.038,5.182l2.829,4.318-5.933,6.145-4.413-2.675a20.951,20.951,0,0,1-5.109,2.219l-1.052,5.056-8.541.15-1.229-5.015a20.97,20.97,0,0,1-5.182-2.039l-4.316,2.829-6.146-5.934,2.675-4.413a20.9,20.9,0,0,1-2.22-5.107l-5.055-1.052-.15-8.541,5.015-1.23a20.909,20.909,0,0,1,2.039-5.182l-2.829-4.317,5.933-6.145Zm4.553,11.377a9.164,9.164,0,1,0,12.957-.228,9.163,9.163,0,0,0-12.957.228" transform="translate(-50.566 -17.35)" fill="#ebebeb"/>
        <path id="Trazado_144555" data-name="Trazado 144555" d="M84.529,11.535a8.775,8.775,0,0,1,2.139-.93l.441-2.116,3.576-.063.514,2.1a8.74,8.74,0,0,1,2.17.854L95.176,10.2l2.573,2.484-1.12,1.847a8.742,8.742,0,0,1,.929,2.139l2.116.441.063,3.576-2.1.514a8.779,8.779,0,0,1-.853,2.17l1.185,1.807-2.484,2.573-1.847-1.121a8.743,8.743,0,0,1-2.139.929l-.441,2.117-3.576.063-.514-2.1a8.762,8.762,0,0,1-2.17-.853L82.99,27.966l-2.573-2.484,1.12-1.847a8.771,8.771,0,0,1-.929-2.139l-2.116-.441-.063-3.576,2.1-.515a8.774,8.774,0,0,1,.853-2.17L80.2,12.987l2.484-2.573ZM86.436,16.3a3.837,3.837,0,1,0,5.425-.095,3.838,3.838,0,0,0-5.425.095" transform="translate(-18.133 -1.948)" fill="#ebebeb"/>
        <path id="Trazado_144556" data-name="Trazado 144556" d="M577.433,45.268a1.337,1.337,0,1,1-1.338-1.338,1.338,1.338,0,0,1,1.338,1.338" transform="translate(-132.885 -10.157)" fill="#e0e0e0" fill-rule="evenodd"/>
        <path id="Trazado_144557" data-name="Trazado 144557" d="M622.451,16.467a1.337,1.337,0,1,1-1.338-1.338,1.338,1.338,0,0,1,1.338,1.338" transform="translate(-143.294 -3.498)" fill="#e0e0e0" fill-rule="evenodd"/>
        <path id="Trazado_144558" data-name="Trazado 144558" d="M518.434,293.75s-.013-.366-.02-1.081-.012-1.784-.019-3.175c-.008-2.8-.02-6.918-.036-12.229-.015-10.637-.036-26.041-.062-45.143-.016-38.216-.038-91.217-.062-150.39v-.048l.021-.042,5.469-10.856-.022.091v-.754c0-8.324,0-16.542,0-24.513l.2.2L348.411,45.7l.09-.09c-.019,8.121-.033,14.354-.043,18.565-.01,2.1-.018,3.689-.023,4.765s-.025,1.612-.025,1.612-.016-.544-.024-1.612-.013-2.668-.023-4.765c-.01-4.211-.024-10.444-.043-18.565v-.09h.091L523.9,45.411h.2v.2c0,7.971,0,16.189,0,24.513v.8l-.021.042c-1.873,3.719-3.735,7.414-5.468,10.855l.021-.09c-.025,59.173-.046,112.174-.062,150.39-.026,19.1-.048,34.506-.062,45.143-.015,5.311-.028,9.43-.036,12.229-.008,1.392-.015,2.454-.019,3.175s-.019,1.081-.019,1.081" transform="translate(-80.532 -10.499)" fill="#e0e0e0"/>
        <path id="Trazado_144559" data-name="Trazado 144559" d="M552.447,132.052s-.022-.39-.04-1.149-.04-1.894-.071-3.366c-.052-2.963-.129-7.308-.228-12.877-.178-11.158-.433-27.211-.744-46.831V67.8l.01-.028,6.159-16.388-.012.06c-.006-11.474-.013-24.184-.02-37.612l.191.191-49.218.008-81.459-.024H426.9l-.047-.1q-2.491-5.268-4.839-10.234l.151.1L367.123,3.7l-15.344-.046-4.034-.025c-.912-.008-1.382-.026-1.382-.026s.47-.017,1.382-.025l4.034-.025L367.123,3.5l55.046-.071h.106l.045.1,4.853,10.227-.158-.1,81.459-.025,49.218.009h.191v.191c-.007,13.428-.014,26.138-.02,37.612v.032l-.011.029q-3.234,8.565-6.185,16.378l.011-.057c.254,19.621.462,35.674.607,46.833.062,5.57.11,9.915.143,12.879.012,1.471.02,2.6.026,3.366s-.007,1.15-.007,1.15" transform="translate(-80.08 -0.794)" fill="#e0e0e0"/>
        <path id="Trazado_144560" data-name="Trazado 144560" d="M518.048,146.281s-.025-.432-.05-1.274-.057-2.1-.1-3.733c-.08-3.286-.2-8.114-.348-14.313-.282-12.414-.689-30.314-1.188-52.287v-.032l.013-.031,7.23-16.934-.013.061c.225-9.253.469-19.261.725-29.748l.181.187-85.138.018L301.12,28.142l.1-.043-11.24,11.217-.039.039h-.055L252.5,39.03l-9.994-.1-2.579-.037c-.58-.01-.875-.025-.875-.025s.3-.01.875-.012h2.58l9.994.036,37.387.2-.093.038,11.217-11.239.043-.043h.061l138.238-.053,85.138.018h.187l0,.186c-.267,10.486-.522,20.494-.758,29.747v.032l-.012.029L516.651,74.73l.012-.062c.444,21.975.8,39.875,1.055,52.291.115,6.2.205,11.028.267,14.314.025,1.635.045,2.885.058,3.734s0,1.275,0,1.275" transform="translate(-55.27 -6.426)" fill="#e0e0e0"/>
        <path id="Trazado_144561" data-name="Trazado 144561" d="M241.231,41.62a1.337,1.337,0,1,1-1.338-1.338,1.338,1.338,0,0,1,1.338,1.338" transform="translate(-55.155 -9.313)" fill="#e0e0e0" fill-rule="evenodd"/>
        <path id="Trazado_144562" data-name="Trazado 144562" d="M345.558,3.249a1.337,1.337,0,1,1-1.338-1.338,1.338,1.338,0,0,1,1.338,1.338" transform="translate(-79.275 -0.442)" fill="#e0e0e0" fill-rule="evenodd"/>
        <path id="Trazado_144563" data-name="Trazado 144563" d="M626.755,330.739H598.808c8.184-27.817,10.045-79.991,8.672-114.5h10.28c-.539,34.422,1.947,86.3,8.994,114.5" transform="translate(-138.446 -49.995)" fill="#ebebeb"/>
        <path id="Trazado_144564" data-name="Trazado 144564" d="M650.092,391.2a22.264,22.264,0,0,0-19.135-7.223c.665-6.166,1.281-12.7-1.144-18.332s-9.1-9.658-14.176-6.67c1.88-8.526-1.411-18.1-8-23.28a20.306,20.306,0,0,0-23.132-1.2c-7.028,4.478-11.164,13.665-10.06,22.346a20.519,20.519,0,0,0-18.383,9.115,23.9,23.9,0,0,0-2.244,21.567c-10.465-.558-20.44,13.13-20.233,24.352l122.522-.151a25.468,25.468,0,0,0-6.01-20.528" transform="translate(-123.364 -76.631)" fill="#ebebeb"/>
        <path id="Trazado_144565" data-name="Trazado 144565" d="M602.007,149.578l23.589,8.129c5.208,5.347,1.711,12.886-2.689,15.788a8.4,8.4,0,0,1-2.233,15.849,7.519,7.519,0,1,1-13.262,6.881c-1-2.6-.524-5.678-1.928-8.083-1.318-2.256-3.926-3.34-6.052-4.86-5.28-3.772-7.733-10.764-6.908-17.2s4.578-12.258,9.484-16.5" transform="translate(-136.957 -34.583)" fill="#f9f996"/>
        <path id="Trazado_144566" data-name="Trazado 144566" d="M620.927,155.474a18.874,18.874,0,0,1,1.279,7.312,1.694,1.694,0,0,1-3.082.917l-.025-.035a69.973,69.973,0,0,1-.3,9.155,2.087,2.087,0,0,1-3.8.983,31.942,31.942,0,0,1-5.351-21.816Z" transform="translate(-140.897 -35.14)" fill="#ee9c20"/>
        <path id="Trazado_144567" data-name="Trazado 144567" d="M590.393,119.531l-.128.1a31.422,31.422,0,0,0-11.728,24.517l0,5.975,11.863-8.249Z" transform="translate(-133.759 -27.636)" fill="#636363"/>
        <path id="Trazado_144568" data-name="Trazado 144568" d="M638.042,119.512c.019.014.062.048.126.1a30.993,30.993,0,0,1,11.59,24.173l0,5.894-11.709-8.126Z" transform="translate(-147.517 -27.631)" fill="#636363"/>
        <path id="Trazado_144569" data-name="Trazado 144569" d="M610.877,43.418c2.682,0,7.618,6.933,12.2,18.514A69.049,69.049,0,0,1,627.84,83.3l.022,49.863-13.139.006-7.614,0-13.138.006-.021-45.248a69.322,69.322,0,0,1,1.238-13.176,82.84,82.84,0,0,1,3.5-12.809c4.3-11.64,9.506-18.524,12.189-18.526" transform="translate(-137.323 -10.038)" fill="#636363"/>
        <line id="Línea_158" data-name="Línea 158" x1="33.55" y1="0.181" transform="translate(456.988 115.041)" fill="#f5f5f5"/>
        <path id="Trazado_144570" data-name="Trazado 144570" d="M594.419,149.627c0,.049,7.51.129,16.774.179s16.776.051,16.776,0-7.509-.13-16.775-.18-16.774-.051-16.774,0" transform="translate(-137.431 -34.586)" fill="#e0e0e0"/>
        <line id="Línea_159" data-name="Línea 159" x1="33.55" y1="0.181" transform="translate(457.138 116.552)" fill="#f5f5f5"/>
        <path id="Trazado_144571" data-name="Trazado 144571" d="M594.614,151.593c0,.049,7.51.129,16.774.179s16.776.051,16.776,0-7.509-.13-16.775-.18-16.774-.051-16.774,0" transform="translate(-137.476 -35.04)" fill="#e0e0e0"/>
        <line id="Línea_160" data-name="Línea 160" x1="33.55" y1="0.181" transform="translate(457.112 118.147)" fill="#f5f5f5"/>
        <path id="Trazado_144572" data-name="Trazado 144572" d="M594.581,153.667c0,.049,7.51.129,16.774.179s16.776.052,16.777,0-7.51-.129-16.776-.18-16.774-.051-16.774,0" transform="translate(-137.469 -35.52)" fill="#e0e0e0"/>
        <line id="Línea_161" data-name="Línea 161" x1="33.55" y1="0.181" transform="translate(457.087 119.742)" fill="#f5f5f5"/>
        <path id="Trazado_144573" data-name="Trazado 144573" d="M594.547,155.741c0,.049,7.51.129,16.774.179s16.776.052,16.777,0-7.51-.129-16.776-.18-16.774-.051-16.774,0" transform="translate(-137.461 -35.999)" fill="#e0e0e0"/>
        <line id="Línea_162" data-name="Línea 162" x1="33.55" y1="0.181" transform="translate(457.061 121.337)" fill="#f5f5f5"/>
        <path id="Trazado_144574" data-name="Trazado 144574" d="M594.514,157.816c0,.049,7.51.129,16.774.179s16.776.052,16.776,0-7.509-.129-16.775-.18-16.774-.051-16.774,0" transform="translate(-137.453 -36.479)" fill="#e0e0e0"/>
        <path id="Trazado_144575" data-name="Trazado 144575" d="M615.877,119.57a1.105,1.105,0,0,0-.037.232c-.025.157-.025.383-.04.677-.023.587-.036,1.436-.044,2.485-.016,2.1,0,5,.029,8.2s.079,6.1.123,8.2c.026,1.032.047,1.876.062,2.483.011.279.02.5.026.675a.118.118,0,1,0,.036,0c0-.172,0-.4.007-.676,0-.607,0-1.451-.005-2.484-.018-2.117-.044-5-.072-8.2s-.061-6.079-.081-8.2c-.005-1.032-.009-1.876-.012-2.483,0-.292-.006-.523.006-.673a1.2,1.2,0,0,0,0-.237" transform="translate(-142.363 -27.645)" fill="#e0e0e0"/>
        <path id="Trazado_144576" data-name="Trazado 144576" d="M593.959,119.506c0,.049,7.523.091,16.8.094s16.8-.035,16.8-.084-7.522-.091-16.8-.094-16.8.035-16.8.084" transform="translate(-137.325 -27.611)" fill="#e0e0e0"/>
        <path id="Trazado_144577" data-name="Trazado 144577" d="M611.881,140.89c.006-.007-.055-.078-.207-.148a1.077,1.077,0,0,0-.694-.051,1.017,1.017,0,0,0-.75.706,1.092,1.092,0,0,0,1.621,1.265,1.018,1.018,0,0,0,.5-.9,1.07,1.07,0,0,0-.218-.66c-.1-.13-.188-.172-.193-.165s.056.072.136.2a1.094,1.094,0,0,1,.15.618.9.9,0,0,1-.458.76.936.936,0,0,1-1.382-1.079.9.9,0,0,1,.626-.629,1.093,1.093,0,0,1,.636,0c.148.045.223.1.231.082" transform="translate(-141.076 -32.52)" fill="#e0e0e0"/>
        <path id="Trazado_144578" data-name="Trazado 144578" d="M611.643,128.355c.006-.007-.055-.078-.207-.148a1.076,1.076,0,0,0-.694-.051,1.018,1.018,0,0,0-.75.706,1.092,1.092,0,0,0,1.621,1.265,1.018,1.018,0,0,0,.5-.9,1.071,1.071,0,0,0-.218-.66c-.1-.13-.188-.172-.194-.165s.057.071.137.2a1.093,1.093,0,0,1,.15.618.9.9,0,0,1-.458.76.936.936,0,0,1-1.382-1.079.9.9,0,0,1,.626-.629,1.1,1.1,0,0,1,.636-.005c.148.045.223.1.231.083" transform="translate(-141.021 -29.622)" fill="#e0e0e0"/>
        <path id="Trazado_144579" data-name="Trazado 144579" d="M613.958,186.569a1.815,1.815,0,1,1-.115-.068" transform="translate(-141.309 -43.074)" fill="#e0e0e0"/>
        <path id="Trazado_144580" data-name="Trazado 144580" d="M605.529,79.665A9.15,9.15,0,1,0,618.214,77.1a9.15,9.15,0,0,0-12.684,2.561" transform="translate(-139.647 -17.473)" fill="#fff"/>
        <path id="Trazado_144581" data-name="Trazado 144581" d="M605.5,79.625a17.55,17.55,0,0,1,1.526-1.646,9.12,9.12,0,0,1,5.517-2.273,8.979,8.979,0,0,1,7.783,3.655,8.98,8.98,0,0,1,1.733,4.906,8.921,8.921,0,0,1-5.855,8.819,8.992,8.992,0,0,1-5.195.307,9.058,9.058,0,0,1-6.432-11.722,17.624,17.624,0,0,1,.924-2.045,3.165,3.165,0,0,0-.333.482,4.148,4.148,0,0,0-.348.62,6.336,6.336,0,0,0-.389.891,9.222,9.222,0,0,0,2.2,9.739,9.319,9.319,0,0,0,4.294,2.39,9.329,9.329,0,0,0,5.415-.3,9.28,9.28,0,0,0,6.11-9.2,9.32,9.32,0,0,0-1.827-5.1,9.312,9.312,0,0,0-3.868-3.03,9.221,9.221,0,0,0-9.83,1.752,6.362,6.362,0,0,0-.67.7,4.114,4.114,0,0,0-.437.562,3.173,3.173,0,0,0-.315.494" transform="translate(-139.614 -17.433)" fill="#e0e0e0"/>
        <path id="Trazado_144582" data-name="Trazado 144582" d="M612.3,43.418c2.682,0,7.618,6.933,12.2,18.514l-24.393.012c4.3-11.64,9.506-18.524,12.189-18.526" transform="translate(-138.748 -10.038)" fill="#727997"/>
        <path id="Trazado_144583" data-name="Trazado 144583" d="M610.824,43.418s-.158.012-.472.053a4.27,4.27,0,0,0-1.257.6,16.4,16.4,0,0,0-3.634,3.948,67.283,67.283,0,0,0-8.344,18.067,82.316,82.316,0,0,0-2.9,13.61,70.546,70.546,0,0,0-.48,7.791q0,4.026-.008,8.3c0,11.38,0,23.99-.006,37.391v.2h.2l16.943-.006,16.948-.01h.2v-.2c-.014-13.4-.028-26.018-.039-37.4q-.007-4.268-.013-8.3,0-2.012-.007-3.961c-.031-1.312-.161-2.584-.305-3.833a73.507,73.507,0,0,0-2.989-13.589,89.065,89.065,0,0,0-4.305-10.558,56.936,56.936,0,0,0-4.222-7.439,16.8,16.8,0,0,0-3.579-4,7.252,7.252,0,0,0-.7-.413,4.629,4.629,0,0,0-.55-.2c-.314-.041-.472-.053-.472-.053s.158.037.463.09a4.61,4.61,0,0,1,.536.215,7.735,7.735,0,0,1,.681.423,17.217,17.217,0,0,1,3.5,4.019,58.022,58.022,0,0,1,4.155,7.447A90.156,90.156,0,0,1,624.4,66.161a73.741,73.741,0,0,1,2.931,13.545c.141,1.242.266,2.517.292,3.8q0,1.949,0,3.961,0,4.026-.005,8.3c0,11.381,0,23.993-.006,37.4l.2-.2-16.947,0-16.943.01.2.2c-.014-13.4-.028-26.012-.039-37.392q-.006-4.265-.011-8.294a70.6,70.6,0,0,1,.457-7.758,82.585,82.585,0,0,1,2.844-13.569,68.253,68.253,0,0,1,8.21-18.063,16.72,16.72,0,0,1,3.561-3.968,4.413,4.413,0,0,1,1.223-.627c.305-.052.464-.089.464-.089" transform="translate(-137.27 -10.038)" fill="#e0e0e0"/>
        <path id="Trazado_144584" data-name="Trazado 144584" d="M609.4,90.791a7.621,7.621,0,0,0,1.382-1.224c.81-.8,1.885-1.95,3.045-3.239l2.954-3.311a9.681,9.681,0,0,0,1.179-1.418,7.611,7.611,0,0,0-1.382,1.225c-.81.8-1.885,1.949-3.046,3.238l-2.954,3.311a9.683,9.683,0,0,0-1.179,1.418" transform="translate(-140.894 -18.865)" fill="#e0e0e0"/>
        <path id="Trazado_144585" data-name="Trazado 144585" d="M612.9,91.822a20.543,20.543,0,0,0,2.941-2.764,20.621,20.621,0,0,0,2.655-3.041,20.693,20.693,0,0,0-2.941,2.765,20.783,20.783,0,0,0-2.655,3.04" transform="translate(-141.703 -19.887)" fill="#e0e0e0"/>
        <path id="Trazado_144586" data-name="Trazado 144586" d="M523.583,436.219c0,.111-117.217.2-261.779.2-144.612,0-261.8-.089-261.8-.2s117.192-.2,261.8-.2c144.562,0,261.779.089,261.779.2" transform="translate(0 -100.809)" fill="#263238"/>
        <path id="Trazado_144587" data-name="Trazado 144587" d="M631.461,248.147h-28.13a7.588,7.588,0,0,1-7.588-7.588v-28.13a7.587,7.587,0,0,1,7.588-7.587h28.13a7.587,7.587,0,0,1,7.588,7.587v28.13a7.588,7.588,0,0,1-7.588,7.588" transform="translate(-137.737 -47.36)" fill="#263238"/>
        <path id="Trazado_144588" data-name="Trazado 144588" d="M623.2,248.147h-28.13a7.588,7.588,0,0,1-7.588-7.588v-28.13a7.587,7.587,0,0,1,7.588-7.587H623.2a7.587,7.587,0,0,1,7.588,7.587v28.13a7.588,7.588,0,0,1-7.588,7.588" transform="translate(-135.827 -47.36)" fill="#2e958c"/>
        <path id="Trazado_144589" data-name="Trazado 144589" d="M598.412,229.553l4.119-4.119,7.945,7.061,13.267-13.317,3.825,4.119-17.68,17.143Z" transform="translate(-138.354 -50.674)" fill="#fff"/>
        <rect id="Rectángulo_36892" data-name="Rectángulo 36892" width="80.374" height="192.736" transform="translate(50.492 142.723)" fill="#e0e0e0"/>
        <rect id="Rectángulo_36893" data-name="Rectángulo 36893" width="63.539" height="192.736" transform="translate(27.139 142.723)" fill="#f5f5f5"/>
        <path id="Trazado_144590" data-name="Trazado 144590" d="M118.013,378.174c-.111,0-.2-43.165-.2-96.4,0-53.252.089-96.408.2-96.408s.2,43.156.2,96.408c0,53.234-.089,96.4-.2,96.4" transform="translate(-27.239 -42.857)" fill="#263238"/>
        <rect id="Rectángulo_36894" data-name="Rectángulo 36894" width="19.249" height="1.982" transform="translate(102.27 164.862)" fill="#263238"/>
        <rect id="Rectángulo_36895" data-name="Rectángulo 36895" width="19.249" height="1.982" transform="translate(102.27 170.54)" fill="#263238"/>
        <rect id="Rectángulo_36896" data-name="Rectángulo 36896" width="19.249" height="1.983" transform="translate(102.27 176.217)" fill="#263238"/>
        <rect id="Rectángulo_36897" data-name="Rectángulo 36897" width="50.834" height="178.419" transform="translate(33.706 150.92)" fill="#e0e0e0"/>
        <rect id="Rectángulo_36898" data-name="Rectángulo 36898" width="42.112" height="6.378" transform="translate(37.357 157.488)" fill="#ebebeb"/>
        <rect id="Rectángulo_36899" data-name="Rectángulo 36899" width="6.378" height="6.378" transform="translate(37.357 157.488)" fill="#ff725e"/>
        <rect id="Rectángulo_36900" data-name="Rectángulo 36900" width="13.866" height="6.378" transform="translate(66.911 157.488)" fill="#f5f5f5"/>
        <rect id="Rectángulo_36901" data-name="Rectángulo 36901" width="42.112" height="6.378" transform="translate(37.357 168.849)" fill="#ebebeb"/>
        <rect id="Rectángulo_36902" data-name="Rectángulo 36902" width="6.378" height="6.378" transform="translate(37.357 168.849)" fill="#fff"/>
        <rect id="Rectángulo_36903" data-name="Rectángulo 36903" width="13.866" height="6.378" transform="translate(66.911 168.849)" fill="#f5f5f5"/>
        <rect id="Rectángulo_36904" data-name="Rectángulo 36904" width="42.112" height="6.378" transform="translate(37.357 180.209)" fill="#ebebeb"/>
        <rect id="Rectángulo_36905" data-name="Rectángulo 36905" width="6.378" height="6.378" transform="translate(37.357 180.209)" fill="#ff725e"/>
        <rect id="Rectángulo_36906" data-name="Rectángulo 36906" width="13.866" height="6.378" transform="translate(66.911 180.209)" fill="#f5f5f5"/>
        <rect id="Rectángulo_36907" data-name="Rectángulo 36907" width="42.112" height="6.378" transform="translate(37.357 191.57)" fill="#ebebeb"/>
        <rect id="Rectángulo_36908" data-name="Rectángulo 36908" width="6.378" height="6.378" transform="translate(37.357 191.57)" fill="#fff"/>
        <rect id="Rectángulo_36909" data-name="Rectángulo 36909" width="13.866" height="6.378" transform="translate(66.911 191.57)" fill="#f5f5f5"/>
        <rect id="Rectángulo_36910" data-name="Rectángulo 36910" width="42.112" height="6.378" transform="translate(37.357 202.929)" fill="#ebebeb"/>
        <rect id="Rectángulo_36911" data-name="Rectángulo 36911" width="6.378" height="6.378" transform="translate(37.357 202.929)" fill="#ff725e"/>
        <rect id="Rectángulo_36912" data-name="Rectángulo 36912" width="13.866" height="6.378" transform="translate(66.911 202.929)" fill="#f5f5f5"/>
        <rect id="Rectángulo_36913" data-name="Rectángulo 36913" width="42.112" height="6.378" transform="translate(37.357 214.29)" fill="#ebebeb"/>
        <rect id="Rectángulo_36914" data-name="Rectángulo 36914" width="6.378" height="6.378" transform="translate(37.357 214.29)" fill="#ff725e"/>
        <rect id="Rectángulo_36915" data-name="Rectángulo 36915" width="13.866" height="6.378" transform="translate(66.911 214.29)" fill="#f5f5f5"/>
        <rect id="Rectángulo_36916" data-name="Rectángulo 36916" width="42.112" height="6.378" transform="translate(37.357 225.65)" fill="#ebebeb"/>
        <rect id="Rectángulo_36917" data-name="Rectángulo 36917" width="6.378" height="6.378" transform="translate(37.357 225.65)" fill="#fff"/>
        <rect id="Rectángulo_36918" data-name="Rectángulo 36918" width="13.866" height="6.378" transform="translate(66.911 225.65)" fill="#f5f5f5"/>
        <rect id="Rectángulo_36919" data-name="Rectángulo 36919" width="42.112" height="6.378" transform="translate(37.357 237.011)" fill="#ebebeb"/>
        <rect id="Rectángulo_36920" data-name="Rectángulo 36920" width="6.378" height="6.378" transform="translate(37.357 237.011)" fill="#fff"/>
        <rect id="Rectángulo_36921" data-name="Rectángulo 36921" width="13.866" height="6.378" transform="translate(66.911 237.011)" fill="#f5f5f5"/>
        <rect id="Rectángulo_36922" data-name="Rectángulo 36922" width="42.112" height="6.378" transform="translate(37.357 248.372)" fill="#ebebeb"/>
        <rect id="Rectángulo_36923" data-name="Rectángulo 36923" width="6.378" height="6.378" transform="translate(37.357 248.372)" fill="#fff"/>
        <rect id="Rectángulo_36924" data-name="Rectángulo 36924" width="13.866" height="6.378" transform="translate(66.911 248.372)" fill="#f5f5f5"/>
        <rect id="Rectángulo_36925" data-name="Rectángulo 36925" width="42.112" height="6.378" transform="translate(37.357 259.732)" fill="#ebebeb"/>
        <rect id="Rectángulo_36926" data-name="Rectángulo 36926" width="6.378" height="6.378" transform="translate(37.357 259.732)" fill="#ff725e"/>
        <rect id="Rectángulo_36927" data-name="Rectángulo 36927" width="13.866" height="6.378" transform="translate(66.911 259.732)" fill="#f5f5f5"/>
        <rect id="Rectángulo_36928" data-name="Rectángulo 36928" width="42.112" height="6.378" transform="translate(37.357 271.093)" fill="#ebebeb"/>
        <rect id="Rectángulo_36929" data-name="Rectángulo 36929" width="6.378" height="6.378" transform="translate(37.357 271.093)" fill="#fff"/>
        <rect id="Rectángulo_36930" data-name="Rectángulo 36930" width="13.866" height="6.378" transform="translate(66.911 271.093)" fill="#f5f5f5"/>
        <rect id="Rectángulo_36931" data-name="Rectángulo 36931" width="42.112" height="6.378" transform="translate(37.357 282.453)" fill="#ebebeb"/>
        <rect id="Rectángulo_36932" data-name="Rectángulo 36932" width="6.378" height="6.378" transform="translate(37.357 282.453)" fill="#ff725e"/>
        <rect id="Rectángulo_36933" data-name="Rectángulo 36933" width="13.866" height="6.378" transform="translate(66.911 282.453)" fill="#f5f5f5"/>
        <rect id="Rectángulo_36934" data-name="Rectángulo 36934" width="42.112" height="6.378" transform="translate(37.357 293.814)" fill="#ebebeb"/>
        <rect id="Rectángulo_36935" data-name="Rectángulo 36935" width="6.378" height="6.378" transform="translate(37.357 293.814)" fill="#fff"/>
        <rect id="Rectángulo_36936" data-name="Rectángulo 36936" width="13.866" height="6.378" transform="translate(66.911 293.814)" fill="#f5f5f5"/>
        <rect id="Rectángulo_36937" data-name="Rectángulo 36937" width="42.112" height="6.378" transform="translate(37.357 305.173)" fill="#ebebeb"/>
        <rect id="Rectángulo_36938" data-name="Rectángulo 36938" width="6.378" height="6.378" transform="translate(37.357 305.173)" fill="#ff725e"/>
        <rect id="Rectángulo_36939" data-name="Rectángulo 36939" width="13.866" height="6.378" transform="translate(66.911 305.173)" fill="#f5f5f5"/>
        <rect id="Rectángulo_36940" data-name="Rectángulo 36940" width="42.112" height="6.378" transform="translate(37.357 316.534)" fill="#ebebeb"/>
        <rect id="Rectángulo_36941" data-name="Rectángulo 36941" width="6.378" height="6.378" transform="translate(37.357 316.534)" fill="#fff"/>
        <rect id="Rectángulo_36942" data-name="Rectángulo 36942" width="13.866" height="6.378" transform="translate(66.911 316.534)" fill="#f5f5f5"/>
        <path id="Trazado_144591" data-name="Trazado 144591" d="M138.967,378.32c0-1.716-.078-80.033-.188-192.736l.188.188-103.712.012h-.014l.2-.2c-.018,73.991-.035,141.641-.048,192.736l-.151-.151,103.725.151-103.725.151h-.152v-.151c-.012-51.1-.029-118.745-.048-192.736v-.2h.214l103.712.013h.188v.188c-.037,56.4-.068,104.6-.091,138.714-.061,33.992-.1,53.167-.1,54.022" transform="translate(-8.102 -42.861)" fill="#263238"/>
        <path id="Trazado_144592" data-name="Trazado 144592" d="M438.648,114.983H162a8.636,8.636,0,0,0-8.636,8.635v195.4A8.636,8.636,0,0,0,162,327.656H268.177l-5.148,34.138h76.983l-4.3-34.138H438.649a8.635,8.635,0,0,0,8.635-8.635v-195.4a8.636,8.636,0,0,0-8.636-8.636" transform="translate(-35.458 -26.584)" fill="#455a64"/>
        <path id="Trazado_144593" data-name="Trazado 144593" d="M346.572,364.388c3.763,5.378-2.126,11.268-7.507,7.506a1.918,1.918,0,0,1-.462-.464c-3.753-5.377,2.13-11.259,7.506-7.505a1.891,1.891,0,0,1,.463.463" transform="translate(-78.012 -83.866)" fill="#263238"/>
        <path id="Trazado_144594" data-name="Trazado 144594" d="M441.908,294.152H163.429V132.141a7.456,7.456,0,0,1,7.455-7.455H434.453a7.456,7.456,0,0,1,7.455,7.455Z" transform="translate(-37.785 -28.828)" fill="#263238"/>
        <path id="Trazado_144595" data-name="Trazado 144595" d="M396.527,391.567c0,.095-23.191.171-51.792.171s-51.8-.076-51.8-.171,23.186-.171,51.8-.171,51.792.076,51.792.171" transform="translate(-67.728 -90.492)" fill="#263238"/>
        <rect id="Rectángulo_36943" data-name="Rectángulo 36943" width="20.299" height="4.283" transform="translate(153.615 109.245)" fill="#455a64"/>
        <rect id="Rectángulo_36944" data-name="Rectángulo 36944" width="10.149" height="4.283" transform="translate(153.615 128.429)" fill="#ff725e"/>
        <rect id="Rectángulo_36945" data-name="Rectángulo 36945" width="14.291" height="4.283" transform="translate(161.253 138.077)" fill="#455a64"/>
        <rect id="Rectángulo_36946" data-name="Rectángulo 36946" width="8.326" height="4.283" transform="translate(177.817 138.077)" fill="#455a64"/>
        <rect id="Rectángulo_36947" data-name="Rectángulo 36947" width="17.125" height="4.283" transform="translate(243.679 138.077)" fill="#455a64"/>
        <rect id="Rectángulo_36948" data-name="Rectángulo 36948" width="28.932" height="4.283" transform="translate(281.923 147.483)" fill="#455a64"/>
        <rect id="Rectángulo_36949" data-name="Rectángulo 36949" width="13.893" height="4.283" transform="translate(341.592 138.077)" fill="#455a64"/>
        <rect id="Rectángulo_36950" data-name="Rectángulo 36950" width="27.934" height="4.283" transform="translate(359.747 138.077)" fill="#455a64"/>
        <rect id="Rectángulo_36951" data-name="Rectángulo 36951" width="14.291" height="4.283" transform="translate(161.253 147.483)" fill="#455a64"/>
        <rect id="Rectángulo_36952" data-name="Rectángulo 36952" width="14.291" height="4.283" transform="translate(152.472 156.864)" fill="#ff725e"/>
        <rect id="Rectángulo_36953" data-name="Rectángulo 36953" width="6.677" height="4.283" transform="translate(160.086 166.244)" fill="#455a64"/>
        <rect id="Rectángulo_36954" data-name="Rectángulo 36954" width="6.677" height="4.283" transform="translate(184.597 186.007)" fill="#455a64"/>
        <rect id="Rectángulo_36955" data-name="Rectángulo 36955" width="13.045" height="4.283" transform="translate(276.445 221.713)" fill="#455a64"/>
        <rect id="Rectángulo_36956" data-name="Rectángulo 36956" width="31.96" height="4.283" transform="translate(330.415 221.713)" fill="#455a64"/>
        <rect id="Rectángulo_36957" data-name="Rectángulo 36957" width="13.045" height="4.283" transform="translate(227.328 212.34)" fill="#e0e0e0"/>
        <rect id="Rectángulo_36958" data-name="Rectángulo 36958" width="13.045" height="4.283" transform="translate(180.057 204.296)" fill="#455a64"/>
        <rect id="Rectángulo_36959" data-name="Rectángulo 36959" width="20.57" height="4.283" transform="translate(253.169 221.713)" fill="#455a64"/>
        <rect id="Rectángulo_36960" data-name="Rectángulo 36960" width="10.835" height="4.283" transform="translate(160.086 175.8)" fill="#455a64"/>
        <rect id="Rectángulo_36961" data-name="Rectángulo 36961" width="20.099" height="4.283" transform="translate(160.086 186.167)" fill="#455a64"/>
        <rect id="Rectángulo_36962" data-name="Rectángulo 36962" width="29.407" height="4.283" transform="translate(160.086 194.105)" fill="#455a64"/>
        <rect id="Rectángulo_36963" data-name="Rectángulo 36963" width="29.407" height="4.283" transform="translate(213.364 194.105)" fill="#455a64"/>
        <rect id="Rectángulo_36964" data-name="Rectángulo 36964" width="41.29" height="4.283" transform="translate(179.799 212.34)" fill="#455a64"/>
        <rect id="Rectángulo_36965" data-name="Rectángulo 36965" width="69.838" height="4.283" transform="translate(179.799 221.713)" fill="#455a64"/>
        <rect id="Rectángulo_36966" data-name="Rectángulo 36966" width="69.838" height="4.283" transform="translate(158.67 231.085)" fill="#455a64"/>
        <rect id="Rectángulo_36967" data-name="Rectángulo 36967" width="17.642" height="4.283" transform="translate(192.598 194.105)" fill="#455a64"/>
        <rect id="Rectángulo_36968" data-name="Rectángulo 36968" width="18.204" height="4.283" transform="translate(169.398 166.244)" fill="#455a64"/>
        <rect id="Rectángulo_36969" data-name="Rectángulo 36969" width="18.204" height="4.283" transform="translate(173.408 175.802)" fill="#455a64"/>
        <rect id="Rectángulo_36970" data-name="Rectángulo 36970" width="48.201" height="4.283" transform="translate(213.941 175.802)" fill="#455a64"/>
        <rect id="Rectángulo_36971" data-name="Rectángulo 36971" width="55.671" height="4.283" transform="translate(263.454 175.802)" fill="#455a64"/>
        <rect id="Rectángulo_36972" data-name="Rectángulo 36972" width="15.066" height="4.283" transform="translate(194.606 175.802)" fill="#455a64"/>
        <rect id="Rectángulo_36973" data-name="Rectángulo 36973" width="23.863" height="4.283" transform="translate(190.097 166.244)" fill="#455a64"/>
        <rect id="Rectángulo_36974" data-name="Rectángulo 36974" width="13.283" height="4.283" transform="translate(216.593 166.244)" fill="#e0e0e0"/>
        <rect id="Rectángulo_36975" data-name="Rectángulo 36975" width="14.899" height="4.283" transform="translate(177.817 147.483)" fill="#455a64"/>
        <rect id="Rectángulo_36976" data-name="Rectángulo 36976" width="73.565" height="4.283" transform="translate(202.837 147.483)" fill="#455a64"/>
        <rect id="Rectángulo_36977" data-name="Rectángulo 36977" width="34.784" height="4.283" transform="translate(324.2 175.802)" fill="#455a64"/>
        <rect id="Rectángulo_36978" data-name="Rectángulo 36978" width="34.784" height="4.283" transform="translate(292.878 221.713)" fill="#455a64"/>
        <rect id="Rectángulo_36979" data-name="Rectángulo 36979" width="72.467" height="4.283" transform="translate(263.715 138.077)" fill="#455a64"/>
        <rect id="Rectángulo_36980" data-name="Rectángulo 36980" width="50.428" height="4.283" transform="translate(188.746 138.077)" fill="#455a64"/>
        <rect id="Rectángulo_36981" data-name="Rectángulo 36981" width="33.952" height="4.283" transform="translate(153.615 118.326)" fill="#455a64"/>
        <rect id="Rectángulo_36982" data-name="Rectángulo 36982" width="46.491" height="4.283" transform="translate(190.956 118.326)" fill="#455a64"/>
        <rect id="Rectángulo_36983" data-name="Rectángulo 36983" width="14.946" height="4.283" transform="translate(177.085 109.245)" fill="#e0e0e0"/>
        <rect id="Rectángulo_36984" data-name="Rectángulo 36984" width="4.148" height="4.283" transform="translate(142.051 109.245)" fill="#455a64"/>
        <rect id="Rectángulo_36985" data-name="Rectángulo 36985" width="4.148" height="4.283" transform="translate(142.051 118.618)" fill="#455a64"/>
        <rect id="Rectángulo_36986" data-name="Rectángulo 36986" width="4.148" height="4.283" transform="translate(142.051 127.99)" fill="#455a64"/>
        <rect id="Rectángulo_36987" data-name="Rectángulo 36987" width="4.148" height="4.283" transform="translate(142.051 137.362)" fill="#455a64"/>
        <rect id="Rectángulo_36988" data-name="Rectángulo 36988" width="4.148" height="4.283" transform="translate(142.051 146.734)" fill="#455a64"/>
        <rect id="Rectángulo_36989" data-name="Rectángulo 36989" width="4.148" height="4.283" transform="translate(142.051 156.107)" fill="#455a64"/>
        <rect id="Rectángulo_36990" data-name="Rectángulo 36990" width="4.148" height="4.283" transform="translate(142.051 165.479)" fill="#455a64"/>
        <rect id="Rectángulo_36991" data-name="Rectángulo 36991" width="4.148" height="4.283" transform="translate(142.051 174.851)" fill="#455a64"/>
        <rect id="Rectángulo_36992" data-name="Rectángulo 36992" width="4.148" height="4.283" transform="translate(142.051 184.224)" fill="#455a64"/>
        <rect id="Rectángulo_36993" data-name="Rectángulo 36993" width="6.677" height="4.283" transform="translate(182.959 251.331)" fill="#e0e0e0"/>
        <rect id="Rectángulo_36994" data-name="Rectángulo 36994" width="20.099" height="4.283" transform="translate(158.8 251.331)" fill="#ff725e"/>
        <rect id="Rectángulo_36995" data-name="Rectángulo 36995" width="4.148" height="4.283" transform="translate(142.051 250.856)" fill="#455a64"/>
        <rect id="Rectángulo_36996" data-name="Rectángulo 36996" width="4.148" height="4.283" transform="translate(142.051 193.595)" fill="#455a64"/>
        <rect id="Rectángulo_36997" data-name="Rectángulo 36997" width="4.148" height="4.283" transform="translate(142.051 202.968)" fill="#455a64"/>
        <rect id="Rectángulo_36998" data-name="Rectángulo 36998" width="4.148" height="4.283" transform="translate(142.051 212.34)" fill="#455a64"/>
        <rect id="Rectángulo_36999" data-name="Rectángulo 36999" width="4.148" height="4.283" transform="translate(142.051 221.713)" fill="#455a64"/>
        <rect id="Rectángulo_37000" data-name="Rectángulo 37000" width="4.148" height="4.283" transform="translate(142.051 231.085)" fill="#455a64"/>
        <rect id="Rectángulo_37001" data-name="Rectángulo 37001" width="20.36" height="4.283" transform="translate(158.671 240.947)" fill="#455a64"/>
        <rect id="Rectángulo_37002" data-name="Rectángulo 37002" width="46.056" height="4.283" transform="translate(182.959 240.947)" fill="#455a64"/>
        <rect id="Rectángulo_37003" data-name="Rectángulo 37003" width="4.148" height="4.283" transform="translate(142.051 240.947)" fill="#455a64"/>
        <rect id="Rectángulo_37004" data-name="Rectángulo 37004" width="14.946" height="4.283" transform="translate(243.119 118.298)" fill="#e0e0e0"/>
        <g id="Grupo_141414" data-name="Grupo 141414" transform="translate(265.635 193.291)" opacity="0.3">
          <g id="Grupo_141413" data-name="Grupo 141413">
            <g id="Grupo_141412" data-name="Grupo 141412" clip-path="url(#clip-path-3)">
              <path id="Trazado_144596" data-name="Trazado 144596" d="M355.733,251.42H345.52v82.945H467.167L464,253.437Z" transform="translate(-345.52 -251.42)"/>
            </g>
          </g>
        </g>
        <rect id="Rectángulo_37006" data-name="Rectángulo 37006" width="121.721" height="87.364" transform="translate(273.473 181.033)" fill="#e0e0e0"/>
        <path id="Trazado_144597" data-name="Trazado 144597" d="M477.705,323.109H355.215V234.976h122.49Zm-121.722-.769H476.936v-86.6H355.983Z" transform="translate(-82.127 -54.327)" fill="#263238"/>
        <rect id="Rectángulo_37007" data-name="Rectángulo 37007" width="19.684" height="4.154" transform="translate(296.58 190.367)" fill="#455a64"/>
        <rect id="Rectángulo_37008" data-name="Rectángulo 37008" width="9.842" height="4.154" transform="translate(296.58 208.97)" fill="#ff725e"/>
        <rect id="Rectángulo_37009" data-name="Rectángulo 37009" width="13.859" height="4.154" transform="translate(303.986 218.326)" fill="#455a64"/>
        <rect id="Rectángulo_37010" data-name="Rectángulo 37010" width="8.075" height="4.154" transform="translate(320.05 218.326)" fill="#455a64"/>
        <rect id="Rectángulo_37011" data-name="Rectángulo 37011" width="13.859" height="4.154" transform="translate(303.986 227.448)" fill="#455a64"/>
        <rect id="Rectángulo_37012" data-name="Rectángulo 37012" width="13.859" height="4.154" transform="translate(295.47 236.545)" fill="#ff725e"/>
        <rect id="Rectángulo_37013" data-name="Rectángulo 37013" width="6.475" height="4.154" transform="translate(302.855 245.642)" fill="#455a64"/>
        <rect id="Rectángulo_37014" data-name="Rectángulo 37014" width="10.508" height="4.154" transform="translate(302.854 254.909)" fill="#455a64"/>
        <rect id="Rectángulo_37015" data-name="Rectángulo 37015" width="17.653" height="4.154" transform="translate(311.886 245.642)" fill="#455a64"/>
        <rect id="Rectángulo_37016" data-name="Rectángulo 37016" width="17.653" height="4.154" transform="translate(315.775 254.911)" fill="#455a64"/>
        <rect id="Rectángulo_37017" data-name="Rectángulo 37017" width="20.882" height="4.154" transform="translate(355.081 254.911)" fill="#455a64"/>
        <rect id="Rectángulo_37018" data-name="Rectángulo 37018" width="14.611" height="4.154" transform="translate(336.331 254.911)" fill="#455a64"/>
        <rect id="Rectángulo_37019" data-name="Rectángulo 37019" width="23.142" height="4.154" transform="translate(331.958 245.642)" fill="#455a64"/>
        <rect id="Rectángulo_37020" data-name="Rectángulo 37020" width="12.881" height="4.154" transform="translate(357.654 245.642)" fill="#fff"/>
        <rect id="Rectángulo_37021" data-name="Rectángulo 37021" width="14.448" height="4.154" transform="translate(320.05 227.448)" fill="#455a64"/>
        <rect id="Rectángulo_37022" data-name="Rectángulo 37022" width="48.904" height="4.154" transform="translate(330.648 218.326)" fill="#455a64"/>
        <rect id="Rectángulo_37023" data-name="Rectángulo 37023" width="32.926" height="4.154" transform="translate(296.58 199.172)" fill="#455a64"/>
        <rect id="Rectángulo_37024" data-name="Rectángulo 37024" width="45.085" height="4.154" transform="translate(332.792 199.172)" fill="#455a64"/>
        <rect id="Rectángulo_37025" data-name="Rectángulo 37025" width="14.494" height="4.154" transform="translate(319.339 190.367)" fill="#fff"/>
        <rect id="Rectángulo_37026" data-name="Rectángulo 37026" width="4.022" height="4.154" transform="translate(285.365 190.367)" fill="#455a64"/>
        <rect id="Rectángulo_37027" data-name="Rectángulo 37027" width="4.022" height="4.154" transform="translate(285.365 199.455)" fill="#455a64"/>
        <rect id="Rectángulo_37028" data-name="Rectángulo 37028" width="4.022" height="4.154" transform="translate(285.365 208.544)" fill="#455a64"/>
        <rect id="Rectángulo_37029" data-name="Rectángulo 37029" width="4.022" height="4.154" transform="translate(285.365 217.633)" fill="#455a64"/>
        <rect id="Rectángulo_37030" data-name="Rectángulo 37030" width="4.022" height="4.154" transform="translate(285.365 226.722)" fill="#455a64"/>
        <rect id="Rectángulo_37031" data-name="Rectángulo 37031" width="4.022" height="4.154" transform="translate(285.365 235.811)" fill="#455a64"/>
        <rect id="Rectángulo_37032" data-name="Rectángulo 37032" width="4.022" height="4.154" transform="translate(285.365 244.9)" fill="#455a64"/>
        <rect id="Rectángulo_37033" data-name="Rectángulo 37033" width="4.022" height="4.154" transform="translate(285.365 253.989)" fill="#455a64"/>
        <g id="Grupo_141417" data-name="Grupo 141417" transform="translate(165.488 269.92)" opacity="0.3">
          <g id="Grupo_141416" data-name="Grupo 141416">
            <g id="Grupo_141415" data-name="Grupo 141415" clip-path="url(#clip-path-4)">
              <path id="Trazado_144598" data-name="Trazado 144598" d="M257.635,381.776c1.542-7.685-3.461-30.683-3.461-30.683L216.8,355.841l-1.542,25.764Z" transform="translate(-215.256 -351.093)"/>
            </g>
          </g>
        </g>
        <path id="Trazado_144599" data-name="Trazado 144599" d="M206.916,351.093s1.639,30.577-5.213,41.09l46.546,1.145a201.129,201.129,0,0,0,2.792-42.235Z" transform="translate(-46.634 -81.174)" fill="#ffca28"/>
        <path id="Trazado_144600" data-name="Trazado 144600" d="M252.7,358.734c0,.111-9.689.2-21.639.2s-21.64-.089-21.64-.2,9.687-.2,21.64-.2,21.639.089,21.639.2" transform="translate(-48.419 -82.894)" fill="#263238"/>
        <path id="Trazado_144601" data-name="Trazado 144601" d="M248.583,372.343c0,.111-7.744.2-17.295.2s-17.3-.089-17.3-.2,7.743-.2,17.3-.2,17.295.089,17.295.2" transform="translate(-49.476 -86.04)" fill="#263238"/>
        <path id="Trazado_144602" data-name="Trazado 144602" d="M249.077,379.774c0,.111-7.744.2-17.295.2s-17.3-.089-17.3-.2,7.743-.2,17.3-.2,17.295.089,17.295.2" transform="translate(-49.59 -87.758)" fill="#263238"/>
        <path id="Trazado_144603" data-name="Trazado 144603" d="M247.664,387.2c0,.111-7.744.2-17.295.2s-17.3-.089-17.3-.2,7.743-.2,17.3-.2,17.295.089,17.295.2" transform="translate(-49.263 -89.476)" fill="#263238"/>
        <g id="Grupo_141420" data-name="Grupo 141420" transform="translate(148.849 270.492)" opacity="0.3">
          <g id="Grupo_141419" data-name="Grupo 141419">
            <g id="Grupo_141418" data-name="Grupo 141418" clip-path="url(#clip-path-5)">
              <path id="Trazado_144604" data-name="Trazado 144604" d="M197.353,351.838s1.991,22.627,1.991,30.683h-5.73Z" transform="translate(-193.613 -351.838)"/>
            </g>
          </g>
        </g>
        <path id="Trazado_144605" data-name="Trazado 144605" d="M179.066,351.838s1.64,30.577-5.213,41.09l15.324,0s4.428-16.708,3.606-41.085Z" transform="translate(-40.195 -81.346)" fill="#e0e0e0"/>
        <path id="Trazado_144606" data-name="Trazado 144606" d="M459.321,160.694l25.771-29.629L459.14,112.212l20.367-11.986s31.943,19.414,31.532,31.064c-.374,10.609-40.64,37.449-40.64,37.449Z" transform="translate(-106.154 -23.173)" fill="#ffc09d"/>
        <path id="Trazado_144607" data-name="Trazado 144607" d="M412.246,249.336a37.347,37.347,0,1,1,2.489-34.066,37.154,37.154,0,0,1-2.489,34.066m-61.652-37.577A34.833,34.833,0,1,0,366.7,197.816a34.842,34.842,0,0,0-16.111,13.943" transform="translate(-79.299 -44.509)" fill="#ff725e"/>
        <g id="Grupo_141423" data-name="Grupo 141423" transform="translate(263.688 148.003)" opacity="0.3">
          <g id="Grupo_141422" data-name="Grupo 141422">
            <g id="Grupo_141421" data-name="Grupo 141421" clip-path="url(#clip-path-6)">
              <path id="Trazado_144608" data-name="Trazado 144608" d="M412.246,249.336a37.347,37.347,0,1,1,2.489-34.066,37.154,37.154,0,0,1-2.489,34.066m-61.652-37.577A34.833,34.833,0,1,0,366.7,197.816a34.842,34.842,0,0,0-16.111,13.943" transform="translate(-342.987 -192.512)"/>
            </g>
          </g>
        </g>
        <path id="Trazado_144609" data-name="Trazado 144609" d="M410.274,247.2a37.347,37.347,0,1,1,2.489-34.066,37.154,37.154,0,0,1-2.489,34.066m-61.652-37.577a34.834,34.834,0,1,0,16.112-13.943,34.845,34.845,0,0,0-16.112,13.943" transform="translate(-78.844 -44.016)" fill="#ff725e"/>
        <path id="Trazado_144610" data-name="Trazado 144610" d="M485.229,174.2l1.467,2.28c1.309,2.033-.3,5.308-3.167,6.636L434.76,212.975l-4.548-6.656,47.537-33.286c3.069-2.329,5.8-1.451,7.48,1.166" transform="translate(-99.466 -39.694)" fill="#ff725e"/>
        <path id="Trazado_144611" data-name="Trazado 144611" d="M381.682,198.585a3.515,3.515,0,0,1-.615.018c-.4.017-.993-.05-1.754.015a26.768,26.768,0,0,0-6.343,1.034,33.617,33.617,0,0,0-4.18,1.5,36.093,36.093,0,0,0-4.491,2.412,34.447,34.447,0,0,0-4.512,3.366,33,33,0,0,0-4.187,4.352,30.726,30.726,0,0,0-3.27,5.069,33.182,33.182,0,0,0-2.064,5.232A31.661,31.661,0,0,0,349,231.011a30.367,30.367,0,0,0,.781,6.385c.143.75.347,1.309.435,1.7a3.524,3.524,0,0,1,.138.6,3.594,3.594,0,0,1-.215-.576c-.114-.386-.342-.939-.51-1.687a28.372,28.372,0,0,1-.913-6.416,31.226,31.226,0,0,1,1.192-9.534,33.072,33.072,0,0,1,2.069-5.306,30.731,30.731,0,0,1,3.307-5.143,32.994,32.994,0,0,1,4.242-4.4,34.25,34.25,0,0,1,4.574-3.383,35.752,35.752,0,0,1,4.554-2.4,32.914,32.914,0,0,1,4.238-1.471,25.2,25.2,0,0,1,6.414-.916,16.043,16.043,0,0,1,1.762.06,3.536,3.536,0,0,1,.611.062" transform="translate(-80.62 -45.883)" fill="#fff"/>
        <path id="Trazado_144612" data-name="Trazado 144612" d="M427.409,241.664c-.091-.03.6-1.714,1.084-4.577q.083-.541.172-1.126c.057-.391.071-.8.111-1.229.1-.848.081-1.76.093-2.718a29.013,29.013,0,0,0-2.831-12.041c-.438-.852-.831-1.675-1.3-2.392-.224-.362-.421-.725-.647-1.05l-.656-.93c-1.711-2.347-3.079-3.547-3.011-3.615a7.7,7.7,0,0,1,.948.846,11.056,11.056,0,0,1,1.032,1.076,18.076,18.076,0,0,1,1.259,1.525l.684.926c.235.324.441.687.674,1.05a26.861,26.861,0,0,1,1.344,2.4,28.11,28.11,0,0,1,2.868,12.2,26.531,26.531,0,0,1-.131,2.751c-.048.429-.069.846-.135,1.241s-.136.771-.2,1.134a18.264,18.264,0,0,1-.447,1.926,11.073,11.073,0,0,1-.444,1.423,7.6,7.6,0,0,1-.471,1.179" transform="translate(-97.204 -49.012)" fill="#fff"/>
        <path id="Trazado_144613" data-name="Trazado 144613" d="M392.637,216.164c.075.081-4.955,4.793-11.232,10.52s-11.429,10.308-11.5,10.226,4.954-4.791,11.234-10.521,11.427-10.307,11.5-10.225" transform="translate(-85.522 -49.977)" fill="#fff"/>
        <path id="Trazado_144614" data-name="Trazado 144614" d="M400.893,224.049a2.268,2.268,0,0,1-.358.344l-1.074.924-3.985,3.356c-3.369,2.83-8.01,6.752-13.09,11.139s-9.634,8.414-12.923,11.335l-3.9,3.457-1.07.929a2.313,2.313,0,0,1-.391.3,2.226,2.226,0,0,1,.337-.364l1.019-.984c.891-.85,2.193-2.063,3.814-3.552,3.242-2.976,7.769-7.035,12.851-11.427s9.754-8.279,13.17-11.055c1.708-1.388,3.1-2.5,4.067-3.258l1.122-.866a2.4,2.4,0,0,1,.408-.281" transform="translate(-84.182 -51.8)" fill="#fff"/>
        <g id="Grupo_141426" data-name="Grupo 141426" transform="translate(269.992 156.977)" opacity="0.3">
          <g id="Grupo_141425" data-name="Grupo 141425">
            <g id="Grupo_141424" data-name="Grupo 141424" clip-path="url(#clip-path-7)">
              <path id="Trazado_144615" data-name="Trazado 144615" d="M351.188,248.432l51.286-44.247s5.072,3.878,7.221,7.35l-52.483,45.178a26.761,26.761,0,0,1-6.024-8.281" transform="translate(-351.188 -204.185)" fill="#fff"/>
            </g>
          </g>
        </g>
        <g id="Grupo_141429" data-name="Grupo 141429" transform="translate(281.634 170.081)" opacity="0.3">
          <g id="Grupo_141428" data-name="Grupo 141428">
            <g id="Grupo_141427" data-name="Grupo 141427" clip-path="url(#clip-path-8)">
              <path id="Trazado_144616" data-name="Trazado 144616" d="M366.331,264.782l49.982-43.533s.243-.411.926,2.721l-48.487,42.165a6.2,6.2,0,0,1-2.422-1.353" transform="translate(-366.331 -221.23)" fill="#fff"/>
            </g>
          </g>
        </g>
        <path id="Trazado_144617" data-name="Trazado 144617" d="M453.683,178.879S438.64,195.444,438.3,196.065s-4.394,10.185-3.39,12.124,8.534,8.742,8.534,8.742,2.687-1.165.145-5.71l-2.542-4.545,1.366-4.589s2.031,5.818,3.205,7.093,5.834,3.459,7,2.34a4.6,4.6,0,0,0,1.345-2.488s3.188,2.542,5.445-1.494c0,0,2.834-.44,4.052-2.424s1.06-5.828,1.06-5.828a1.8,1.8,0,0,0-2.758-.622,8.27,8.27,0,0,0-2.684,3.553l-1.316-1.754a25.118,25.118,0,0,1,2.005-6.846c.914-1.756,6.822-5.581,7.52-8.619.592-2.575-4.563-4.282-7.2-4.139a4.008,4.008,0,0,0-1.162.239Z" transform="translate(-100.516 -41.357)" fill="#ffc09d"/>
        <path id="Trazado_144618" data-name="Trazado 144618" d="M457.662,206.4a1.55,1.55,0,0,0,0,.448,6.833,6.833,0,0,0,.205,1.205,7.863,7.863,0,0,0,5.387,5.582,6.787,6.787,0,0,0,1.2.248,1.542,1.542,0,0,0,.447.016c.006-.042-.633-.089-1.6-.414a8.177,8.177,0,0,1-5.283-5.475c-.29-.976-.314-1.616-.356-1.611" transform="translate(-105.81 -47.72)" fill="#ff9b6c"/>
        <path id="Trazado_144619" data-name="Trazado 144619" d="M451.092,205.743a1.853,1.853,0,0,0,.005.479,4.3,4.3,0,0,0,.057.56,7.1,7.1,0,0,0,.129.734,10.876,10.876,0,0,0,.574,1.855,11.511,11.511,0,0,0,2.66,3.917,10.948,10.948,0,0,0,1.512,1.219,7.288,7.288,0,0,0,.636.391,4.552,4.552,0,0,0,.5.26,1.973,1.973,0,0,0,.444.181c.02-.039-.6-.326-1.488-.961a12.382,12.382,0,0,1-1.458-1.235,13.445,13.445,0,0,1-1.492-1.8A15.5,15.5,0,0,1,451.9,209.2a9.436,9.436,0,0,1-.46-1.721c-.262-1.059-.3-1.741-.344-1.737" transform="translate(-104.291 -47.568)" fill="#ff9b6c"/>
        <path id="Trazado_144620" data-name="Trazado 144620" d="M443.535,204.185a1.3,1.3,0,0,0-.18.624,3.482,3.482,0,0,0,.184,1.558,2.925,2.925,0,0,0,.843,1.325c.293.278.52.391.534.369a4.432,4.432,0,0,1-1.38-3.876" transform="translate(-102.5 -47.208)" fill="#ff9b6c"/>
        <path id="Trazado_144621" data-name="Trazado 144621" d="M506.571,137.414c-.038.062-.823-.49-2.251-1.006a11.663,11.663,0,0,0-5.807-.547,9.938,9.938,0,0,0-5.157,2.647c-1.108,1.04-1.658,1.823-1.714,1.779a2.025,2.025,0,0,1,.341-.579,11.271,11.271,0,0,1,1.176-1.4,9.6,9.6,0,0,1,5.288-2.839,11.074,11.074,0,0,1,5.974.678,9.433,9.433,0,0,1,1.624.851c.359.242.54.4.526.42" transform="translate(-113.668 -31.286)" fill="#ff9b6c"/>
        <path id="Trazado_144622" data-name="Trazado 144622" d="M406.2,38.991a87.5,87.5,0,0,0-.876-15.072A30.562,30.562,0,0,0,399.59,10.1c-.474-.6-4.112-4.472-4.812-4.166-.5.218,2.209,4.052,2.093,4.585-1.109,5.092-.12,10.463,1.877,15.276a68.234,68.234,0,0,0,7.447,13.2" transform="translate(-91.26 -1.367)" fill="#263238"/>
        <path id="Trazado_144623" data-name="Trazado 144623" d="M390.2,19.725c-3.5-12.145-13.48-20.232-25.524-16.4l-1.092.419a22.593,22.593,0,0,0-13.585,27.464c3.09,10.509,6.639,22.082,8.805,27.525,4.485,11.267,16.485,8.683,16.485,8.683.026-.008,7.492,17.226,7.492,17.226L406.6,72.426Z" transform="translate(-80.707 -0.547)" fill="#ffc09d"/>
        <path id="Trazado_144624" data-name="Trazado 144624" d="M383.2,84.084a29.3,29.3,0,0,0,13.069-10.015s.337,10.585-11.35,13.9Z" transform="translate(-88.596 -17.125)" fill="#ff9b6c"/>
        <path id="Trazado_144625" data-name="Trazado 144625" d="M360.7,52.506a1.732,1.732,0,0,0,2.185,1.033,1.657,1.657,0,0,0,1.107-2.1,1.732,1.732,0,0,0-2.183-1.034,1.658,1.658,0,0,0-1.109,2.1" transform="translate(-83.375 -11.634)" fill="#263238"/>
        <path id="Trazado_144626" data-name="Trazado 144626" d="M355.743,43.814c.281.134,1.159-1.243,2.9-1.906,1.73-.687,3.35-.282,3.457-.568.057-.129-.294-.432-1-.623a4.751,4.751,0,0,0-2.868.194,4.56,4.56,0,0,0-2.207,1.781c-.377.616-.413,1.066-.278,1.123" transform="translate(-82.232 -9.382)" fill="#263238"/>
        <path id="Trazado_144627" data-name="Trazado 144627" d="M380.052,45.72a1.732,1.732,0,0,0,2.185,1.032,1.655,1.655,0,0,0,1.107-2.1,1.732,1.732,0,0,0-2.184-1.034,1.658,1.658,0,0,0-1.108,2.1" transform="translate(-87.849 -10.065)" fill="#263238"/>
        <path id="Trazado_144628" data-name="Trazado 144628" d="M378.263,36.223c.282.134,1.16-1.243,2.9-1.906,1.73-.687,3.35-.282,3.458-.568.055-.13-.292-.432-1.006-.623a4.753,4.753,0,0,0-2.868.193A4.567,4.567,0,0,0,378.54,35.1c-.376.615-.411,1.066-.278,1.123" transform="translate(-87.439 -7.627)" fill="#263238"/>
        <path id="Trazado_144629" data-name="Trazado 144629" d="M375.3,53.25a12.321,12.321,0,0,0-3.021.574c-.462.125-.916.2-1.108-.077a2.425,2.425,0,0,1-.208-1.431q.008-1.852.015-3.887c-.024-5.517-.223-9.984-.445-9.981s-.384,4.477-.359,9.994c.016,1.357.031,2.65.047,3.887a2.756,2.756,0,0,0,.439,1.832,1.2,1.2,0,0,0,.979.369,3.206,3.206,0,0,0,.795-.185,12.125,12.125,0,0,0,2.866-1.1" transform="translate(-85.584 -8.889)" fill="#263238"/>
        <path id="Trazado_144630" data-name="Trazado 144630" d="M382.965,56.708c-.29.092.431,1.982-.67,3.943s-3.192,2.524-3.105,2.794c.019.128.589.2,1.448-.108a5.039,5.039,0,0,0,2.633-2.226,4.388,4.388,0,0,0,.441-3.26c-.231-.817-.621-1.2-.746-1.144" transform="translate(-87.669 -13.11)" fill="#263238"/>
        <path id="Trazado_144631" data-name="Trazado 144631" d="M374.87,27.031c.353.407,2-.484,4.14-1.021,2.125-.58,4-.614,4.108-1.142.042-.249-.415-.584-1.256-.786a7.409,7.409,0,0,0-6.284,1.648c-.634.59-.868,1.106-.708,1.3" transform="translate(-86.66 -5.532)" fill="#263238"/>
        <path id="Trazado_144632" data-name="Trazado 144632" d="M353.772,35.919c.457.278,1.5-.593,2.932-1.165,1.413-.623,2.764-.756,2.886-1.277.045-.248-.3-.57-.974-.74a4.568,4.568,0,0,0-4.689,1.968c-.354.6-.364,1.072-.155,1.213" transform="translate(-81.761 -7.546)" fill="#263238"/>
        <path id="Trazado_144633" data-name="Trazado 144633" d="M405.546,35.772c.161-.158,6.9-5.286,9.62,2.549s-5.705,8.953-5.8,8.734-3.823-11.282-3.823-11.282" transform="translate(-93.763 -7.856)" fill="#ffc09d"/>
        <path id="Trazado_144634" data-name="Trazado 144634" d="M411.873,44c.025-.037.17.048.437.074a1.443,1.443,0,0,0,1.027-.334c.723-.591.963-2.148.51-3.573a4.769,4.769,0,0,0-1.062-1.821,1.67,1.67,0,0,0-1.39-.691.736.736,0,0,0-.676.654c-.029.255.075.4.038.423-.015.027-.214-.073-.264-.418a.922.922,0,0,1,.138-.6,1.091,1.091,0,0,1,.685-.461,2.03,2.03,0,0,1,1.848.719,4.906,4.906,0,0,1,1.232,2.02c.5,1.6.2,3.355-.816,4.075a1.545,1.545,0,0,1-1.32.227c-.31-.109-.412-.27-.39-.294" transform="translate(-94.906 -8.604)" fill="#ff9b6c"/>
        <path id="Trazado_144635" data-name="Trazado 144635" d="M351.027,15.926c-1.508-.272.917-5.68,3.564-8.154,4-3.739,10.768-7.494,15.54-7.73C375.878-.242,381.116.9,385.36,4.78a32.619,32.619,0,0,1,8.8,14.61,9.909,9.909,0,0,1,.514,5.176c-.511,2.108-2.247,3.914-1.345,6.28a3.472,3.472,0,0,1-.007,2.675c-.921,2.016-3.165,1.172-4.461,0-2.767-2.495-4.2-6.105-5.543-9.58a24.24,24.24,0,0,1-2.027-7.643c-.058-1.439.141-2.885,0-4.32a4.983,4.983,0,0,0-1.881-3.736,5.236,5.236,0,0,0-.856-.43,8.651,8.651,0,0,0-8.654,1.2c-3.9,3.061-10.664,7.951-13.146,7.115-3.569-1.2-4.724-2.381-4.724-2.381Z" transform="translate(-81.051 0)" fill="#263238"/>
        <path id="Trazado_144636" data-name="Trazado 144636" d="M335.7,107.006s-1.119-3.166,2.682-7.429,33.967-12.6,33.967-12.6,10.965,12.417,20.45,3.941c6.906-6.171,7.153-12.335,7.153-12.335h27.287l3.41,28.037-10.885.063Z" transform="translate(-77.58 -18.169)" fill="#eb7814"/>
        <path id="Trazado_144637" data-name="Trazado 144637" d="M448.369,78.478a24.95,24.95,0,0,1,13.622,1.511C472.921,84.943,491.9,100.7,491.9,100.7l-23.089,18.955-15.993-13.12Z" transform="translate(-103.664 -18.063)" fill="#eb7814"/>
        <path id="Trazado_144638" data-name="Trazado 144638" d="M458.227,112.854a1.047,1.047,0,0,1-.3-.153c-.186-.112-.461-.278-.8-.518a24.018,24.018,0,0,1-2.715-2.2,25,25,0,0,1-3.42-3.906,14.317,14.317,0,0,1-2.544-5.825c-.8-4.471-.095-8.717,1.347-11.334a8.58,8.58,0,0,1,2.244-2.689,7.622,7.622,0,0,1,.807-.509,1.075,1.075,0,0,1,.3-.146,12.617,12.617,0,0,1-1.007.777,9.037,9.037,0,0,0-2.092,2.7,18.369,18.369,0,0,0-1.2,11.127,14.266,14.266,0,0,0,2.453,5.689,26.367,26.367,0,0,0,3.314,3.911,30.127,30.127,0,0,0,2.611,2.284,10.643,10.643,0,0,1,1,.8" transform="translate(-103.607 -19.784)" fill="#263238"/>
        <path id="Trazado_144639" data-name="Trazado 144639" d="M428.917,115.053c0,.111-18.792.275-41.969.368s-41.973.078-41.974-.032,18.788-.275,41.972-.368,41.969-.078,41.97.032" transform="translate(-79.759 -26.579)" fill="#263238"/>
        <path id="Trazado_144640" data-name="Trazado 144640" d="M322.788,108.726q.078.173.143.352a6.182,6.182,0,0,1,.344,1.689,5.5,5.5,0,0,0,.038.813,2.991,2.991,0,0,0,.224.48,8.171,8.171,0,0,1,.3,3.363,6.443,6.443,0,0,0,.621,3.6,2.376,2.376,0,0,0,3.165.976,1.618,1.618,0,0,0,1.211,1.767,2.338,2.338,0,0,0,2.156-.669,4.351,4.351,0,0,0,1.082-2.066,1.786,1.786,0,0,0,1.78,1.727,2.752,2.752,0,0,0,2.261-1.386,6.326,6.326,0,0,0,.779-2.638,31.3,31.3,0,0,1,.559-3.531s1.16.186,1.69.236c.717.069.155.016.155.016a7.5,7.5,0,0,0,1.11-1.927c.74-1.522,1.3-2.488,1.87-3.869.424-1.035.7-2.069.058-2.742-1.541-1.621-4.554,1.676-4.554,1.676-.425-1.148-3.927-1.335-4.608.195-.277-.843-.171-1.331-.853-1.9a2.821,2.821,0,0,0-2.482-.624,2.019,2.019,0,0,0-1.506,1.944,3.282,3.282,0,0,0-5.522-.117,3.436,3.436,0,0,0-.506,1.11,1.373,1.373,0,0,0-.082.457.561.561,0,0,0,.072.2c.157.294.361.554.5.86" transform="translate(-74.497 -24.089)" fill="#ffc09d"/>
        <path id="Trazado_144641" data-name="Trazado 144641" d="M317.319,107.18a2.653,2.653,0,0,0-2.1.7,4.347,4.347,0,0,0-.657,2.913c1.057.2,1.6.239,2.661.438.222.042.408-.014.594.118.487.346.408,1.511.6,2.077a2.033,2.033,0,0,0,2.567,1.1,2.727,2.727,0,0,0,1.648-2.43,4.217,4.217,0,0,0-1.073-2.842,5.892,5.892,0,0,0-4.242-2.07" transform="translate(-72.723 -24.78)" fill="#ffc09d"/>
        <path id="Trazado_144642" data-name="Trazado 144642" d="M329.924,106.424c.2.01.2,3.173,0,7.063s-.52,7.038-.719,7.028-.2-3.172,0-7.064.52-7.037.718-7.027" transform="translate(-76.079 -24.605)" fill="#ff9b6c"/>
        <path id="Trazado_144643" data-name="Trazado 144643" d="M336.157,107.3c.19-.008.447,2.871.137,6.411s-1.046,6.334-1.231,6.293c-.2-.041.221-2.861.517-6.356s.371-6.343.577-6.349" transform="translate(-77.455 -24.807)" fill="#ff9b6c"/>
        <path id="Trazado_144644" data-name="Trazado 144644" d="M342.319,108.141c.2,0,.285,2.394-.087,5.3s-.815,5.208-1,5.191c-.206-.02-.077-2.395.291-5.277s.6-5.211.8-5.209" transform="translate(-78.87 -25.002)" fill="#ff9b6c"/>
        <path id="Trazado_144645" data-name="Trazado 144645" d="M320.134,107.8c-.006-.085.507-.2,1.238.135a3.969,3.969,0,0,1,1.944,2.273,7.993,7.993,0,0,1,.483,2.91c-.087.876-.723,1.13-.737,1.016-.055-.08.288-.382.23-1.032a14.332,14.332,0,0,0-.647-2.64,4.317,4.317,0,0,0-1.523-2.087c-.55-.387-1-.467-.987-.576" transform="translate(-74.016 -24.902)" fill="#ff9b6c"/>
        <path id="Trazado_144646" data-name="Trazado 144646" d="M460.143,390.012a22.224,22.224,0,0,0,9.827-21.975l8.734-5.724,1.236-.794,69.089-45.284a22.225,22.225,0,0,0,34.152-18.354l-4.012-.665-4.4,6.15-10.111-2.128-5.644-8.654,2.128-10.11,8.411-5.486-5.694-1.491c-6.024-1.774-9.371-.327-15.043,3.373a22.222,22.222,0,0,0-9.832,21.936L468.738,346.85l-2.181,1.412-6.658,4.364a22.225,22.225,0,0,0-24.039.156c-5.65,3.685-13.27,11.353-14.092,17.553l4.012.666,8.411-5.486,10.11,2.128,5.645,8.654-2.129,10.111-9.045,2.559.635,2.926a22.2,22.2,0,0,0,20.736-1.881" transform="translate(-97.514 -63.521)" fill="#e0e0e0"/>
        <g id="Grupo_141432" data-name="Grupo 141432" transform="translate(324.253 211.221)" opacity="0.3">
          <g id="Grupo_141431" data-name="Grupo 141431">
            <g id="Grupo_141430" data-name="Grupo 141430" clip-path="url(#clip-path-9)">
              <path id="Trazado_144647" data-name="Trazado 144647" d="M460.143,390.012a22.224,22.224,0,0,0,9.827-21.975l8.734-5.724,1.236-.794,69.089-45.284a22.225,22.225,0,0,0,34.152-18.354l-4.012-.665-4.4,6.15-10.111-2.128-5.644-8.654,2.128-10.11,8.411-5.486-5.694-1.491c-6.024-1.774-9.371-.327-15.043,3.373a22.222,22.222,0,0,0-9.832,21.936L468.738,346.85l-2.181,1.412-6.658,4.364a22.225,22.225,0,0,0-24.039.156c-5.65,3.685-13.27,11.353-14.092,17.553l4.012.666,8.411-5.486,10.11,2.128,5.645,8.654-2.129,10.111-9.045,2.559.635,2.926a22.2,22.2,0,0,0,20.736-1.881" transform="translate(-421.767 -274.742)"/>
            </g>
          </g>
        </g>
        <path id="Trazado_144648" data-name="Trazado 144648" d="M456.131,389.3a22.223,22.223,0,0,0,9.827-21.974l8.734-5.724,1.236-.794,69.089-45.285a22.225,22.225,0,0,0,34.151-18.354l-8.411,5.485-10.111-2.127L555,291.873l2.128-10.11,8.411-5.486A22.225,22.225,0,0,0,534.971,300.1l-70.246,46.043-2.181,1.412-6.658,4.364a22.224,22.224,0,0,0-34.119,18.374l8.411-5.486,10.11,2.128,5.645,8.654L443.805,385.7l-8.411,5.485a22.2,22.2,0,0,0,20.736-1.881" transform="translate(-97.514 -63.476)" fill="#e0e0e0"/>
        <path id="Trazado_144649" data-name="Trazado 144649" d="M456.088,389.245s-.4.261-1.2.753a23.684,23.684,0,0,1-3.79,1.722,22.253,22.253,0,0,1-15.779-.521l-.138-.057.125-.082,8.4-5.5-.041.06c.653-3.12,1.362-6.512,2.116-10.114l.015.081-5.654-8.648.075.052-10.113-2.119.1-.018-8.406,5.493-.216.141,0-.259A22.324,22.324,0,0,1,432.3,351.538a22.119,22.119,0,0,1,11.557-3.289,22.543,22.543,0,0,1,12.075,3.47l-.179,0,79.071-51.841-.084.187a22.6,22.6,0,0,1,1.621-12.319,22.411,22.411,0,0,1,29.209-11.7l.332.139-.3.2-8.411,5.485.081-.119-2.129,10.11-.027-.141,5.644,8.655-.118-.081,10.111,2.13-.139.026,8.412-5.483.291-.19-.008.346a22.372,22.372,0,0,1-12.456,19.654,22.165,22.165,0,0,1-11.327,2.289,22.812,22.812,0,0,1-10.64-3.453l.18,0-79.1,51.735.038-.084a22.3,22.3,0,0,1-5.022,17.725,23.319,23.319,0,0,1-3.533,3.331c-.895.624-1.355.93-1.355.93s.444-.332,1.328-.966a24.079,24.079,0,0,0,3.493-3.353,22.242,22.242,0,0,0,4.922-17.643l-.008-.054.045-.029,79.013-51.871.089-.058.091.057a22.48,22.48,0,0,0,10.484,3.392,22.086,22.086,0,0,0,19.893-10.073,22.234,22.234,0,0,0,3.5-11.537l.282.156-8.409,5.488-.064.042-.075-.015-10.111-2.126-.075-.015-.042-.065q-2.8-4.286-5.646-8.654l-.043-.065.016-.076,2.126-10.111.016-.077.066-.043,8.41-5.486.031.335a22.038,22.038,0,0,0-30.308,23.614l.018.121-.1.067-79.1,51.8-.089.059-.09-.058a22.234,22.234,0,0,0-11.9-3.43,22.155,22.155,0,0,0-19.222,11.357,22.161,22.161,0,0,0-2.775,10.31l-.211-.118,8.414-5.478.045-.029.052.012,10.109,2.137.048.01.027.042,5.635,8.661.025.038-.009.043-2.141,10.108-.008.038-.032.022-8.419,5.473-.012-.139a22.237,22.237,0,0,0,15.69.588,24.517,24.517,0,0,0,3.8-1.681c.8-.48,1.219-.716,1.219-.716" transform="translate(-97.471 -63.419)" fill="#263238"/>
        <path id="Trazado_144650" data-name="Trazado 144650" d="M575.915,319.962c-.016.021-.194-.1-.5-.326a12.434,12.434,0,0,1-1.233-1.064,17.893,17.893,0,0,1-5.059-9.339,12.429,12.429,0,0,1-.218-1.614,1.825,1.825,0,0,1,0-.6c.065-.006.159.836.477,2.156a20.374,20.374,0,0,0,4.989,9.208c.932.988,1.586,1.527,1.545,1.578" transform="translate(-131.528 -70.984)" fill="#263238"/>
        <path id="Trazado_144651" data-name="Trazado 144651" d="M159.9,124.823H104.718a7.587,7.587,0,0,1-7.587-7.588V62.058a7.587,7.587,0,0,1,7.587-7.588H159.9a7.588,7.588,0,0,1,7.588,7.588v55.177a7.588,7.588,0,0,1-7.588,7.588" transform="translate(-22.457 -12.594)" fill="#ff725e"/>
        <g id="Grupo_141435" data-name="Grupo 141435" transform="translate(74.674 41.876)" opacity="0.3">
          <g id="Grupo_141434" data-name="Grupo 141434">
            <g id="Grupo_141433" data-name="Grupo 141433" clip-path="url(#clip-path-10)">
              <path id="Trazado_144652" data-name="Trazado 144652" d="M159.9,124.823H104.718a7.587,7.587,0,0,1-7.587-7.588V62.058a7.587,7.587,0,0,1,7.587-7.588H159.9a7.588,7.588,0,0,1,7.588,7.588v55.177a7.588,7.588,0,0,1-7.588,7.588" transform="translate(-97.131 -54.47)"/>
            </g>
          </g>
        </g>
        <path id="Trazado_144653" data-name="Trazado 144653" d="M146.472,124.823H91.294a7.587,7.587,0,0,1-7.587-7.588V62.058a7.587,7.587,0,0,1,7.587-7.588h55.178a7.588,7.588,0,0,1,7.588,7.588v55.177a7.588,7.588,0,0,1-7.588,7.588" transform="translate(-19.353 -12.594)" fill="#ffa726"/>
        <path id="Trazado_144654" data-name="Trazado 144654" d="M112.585,77.8a19.069,19.069,0,0,1,4.652-2.022l.958-4.6,7.78-.137,1.119,4.568a19.055,19.055,0,0,1,4.721,1.857l3.932-2.577,5.6,5.4L138.908,84.3a19.062,19.062,0,0,1,2.022,4.654l4.6.958.137,7.78-4.568,1.12a19.056,19.056,0,0,1-1.857,4.72l2.576,3.932-5.4,5.6-4.02-2.437a19.045,19.045,0,0,1-4.653,2.022l-.959,4.6-7.779.137-1.12-4.568a19.089,19.089,0,0,1-4.72-1.857l-3.932,2.578-5.6-5.4,2.437-4.02a19.028,19.028,0,0,1-2.022-4.653l-4.6-.958-.137-7.78,4.568-1.12a19.086,19.086,0,0,1,1.857-4.72l-2.577-3.932,5.4-5.6Zm4.147,10.364a8.347,8.347,0,1,0,11.8-.208,8.348,8.348,0,0,0-11.8.208" transform="translate(-22.961 -16.423)" fill="#fff"/>
        <g id="Grupo_141438" data-name="Grupo 141438" transform="translate(64.353 41.876)" opacity="0.3">
          <g id="Grupo_141437" data-name="Grupo 141437">
            <g id="Grupo_141436" data-name="Grupo 141436" clip-path="url(#clip-path-11)">
              <path id="Trazado_144655" data-name="Trazado 144655" d="M138.256,54.47,83.706,98.039v8.484L148.753,54.47Z" transform="translate(-83.706 -54.47)" fill="#fff"/>
            </g>
          </g>
        </g>
        <g id="Grupo_141441" data-name="Grupo 141441" transform="translate(64.414 49.29)" opacity="0.3">
          <g id="Grupo_141440" data-name="Grupo 141440">
            <g id="Grupo_141439" data-name="Grupo 141439" clip-path="url(#clip-path-12)">
              <path id="Trazado_144656" data-name="Trazado 144656" d="M83.793,118.64l70.285-54.528V79.42L91.138,127.053a7.354,7.354,0,0,1-7.353-7.414Z" transform="translate(-83.785 -64.113)" fill="#fff"/>
            </g>
          </g>
        </g>
      </g>
    </g>
  </g>
</svg>
