<svg xmlns="http://www.w3.org/2000/svg" width="40.995" height="35.871" viewBox="0 0 40.995 35.871">
  <path id="Icon_awesome-quote-right" data-name="Icon awesome-quote-right" d="M37.152,0H26.9A3.844,3.844,0,0,0,23.06,3.843V14.092A3.844,3.844,0,0,0,26.9,17.935h6.405V23.06a5.129,5.129,0,0,1-5.124,5.124h-.641a1.917,1.917,0,0,0-1.922,1.922v3.843a1.917,1.917,0,0,0,1.922,1.922h.641A12.807,12.807,0,0,0,41,23.06V3.843A3.844,3.844,0,0,0,37.152,0ZM14.092,0H3.843A3.844,3.844,0,0,0,0,3.843V14.092a3.844,3.844,0,0,0,3.843,3.843h6.405V23.06a5.129,5.129,0,0,1-5.124,5.124H4.484a1.917,1.917,0,0,0-1.922,1.922v3.843a1.917,1.917,0,0,0,1.922,1.922h.641A12.807,12.807,0,0,0,17.935,23.06V3.843A3.844,3.844,0,0,0,14.092,0Z" transform="translate(40.995 35.871) rotate(180)" fill="#afc6fc"/>
</svg>
