<svg id="Grupo_142145" data-name="Grupo 142145" xmlns="http://www.w3.org/2000/svg" xmlns:xlink="http://www.w3.org/1999/xlink" width="400" height="361.143" viewBox="0 0 400 361.143">
  <defs>
    <clipPath id="clip-path">
      <rect id="Rectángulo_37346" data-name="Rectángulo 37346" width="400" height="361.143" fill="none"/>
    </clipPath>
    <clipPath id="clip-path-3">
      <rect id="Rectángulo_37317" data-name="Rectángulo 37317" width="11.882" height="3.907" fill="none"/>
    </clipPath>
    <clipPath id="clip-path-7">
      <rect id="Rectángulo_37321" data-name="Rectángulo 37321" width="19.26" height="12.259" fill="none"/>
    </clipPath>
    <clipPath id="clip-path-8">
      <rect id="Rectángulo_37322" data-name="Rectángulo 37322" width="12.765" height="21.287" fill="none"/>
    </clipPath>
    <clipPath id="clip-path-9">
      <path id="Trazado_145916" data-name="Trazado 145916" d="M190.423,276.793c-.128.049-.254.1-.372.147-1.347.567-2.529,1.114-3.506,1.631a1.447,1.447,0,0,1-.127.078,23.742,23.742,0,0,0-2.647,1.709v.01a19.616,19.616,0,0,0-6.935,9.124c-3.546,9.729-3.85,48.7-3.85,48.7s-.879-.938-6.8,2.413V356.58s9.739.742,14.75-.469l-.4,10.8h83.851c.938-6.535,1.758-12.552,2.48-18.11,7.093-17.759,11.175-47.591,10.434-53.589-1.3-10.52-16.538-17.8-18.4-18.6a83.417,83.417,0,0,0-32.845-6.417,98.593,98.593,0,0,0-35.631,6.593" transform="translate(-166.188 -270.2)" fill="none"/>
    </clipPath>
    <clipPath id="clip-path-10">
      <rect id="Rectángulo_37324" data-name="Rectángulo 37324" width="18.159" height="38.809" fill="none"/>
    </clipPath>
    <clipPath id="clip-path-11">
      <rect id="Rectángulo_37325" data-name="Rectángulo 37325" width="89.314" height="24.166" fill="none"/>
    </clipPath>
    <clipPath id="clip-path-12">
      <rect id="Rectángulo_37326" data-name="Rectángulo 37326" width="16.903" height="57.9" fill="none"/>
    </clipPath>
    <clipPath id="clip-path-14">
      <path id="Trazado_145934" data-name="Trazado 145934" d="M204.533,344.65a3.465,3.465,0,0,0-4,.96,3.1,3.1,0,0,0-.557,3.187c2.836,7.4.836,10.538,1.933,13.081A2.311,2.311,0,0,0,205.471,363c.938,1.577,3.994.845,5.09.055,3.8-2.738-.1-17.4-2.059-18.684a3,3,0,0,0-1.676-.51,4.141,4.141,0,0,0-2.293.785" transform="translate(-199.763 -343.865)" fill="none"/>
    </clipPath>
    <clipPath id="clip-path-15">
      <rect id="Rectángulo_37328" data-name="Rectángulo 37328" width="12.399" height="20.071" fill="none"/>
    </clipPath>
    <clipPath id="clip-path-17">
      <path id="Trazado_145943" data-name="Trazado 145943" d="M213.437,256.114l-1.085,15.806c-1.284.16-2.507.339-3.7.525l4.98,11.94,9.736,1.278,15.572-14.35c-1.263-.095-2.514-.176-3.742-.234L233.8,251.4Z" transform="translate(-208.652 -251.399)" fill="none"/>
    </clipPath>
    <clipPath id="clip-path-19">
      <path id="Trazado_145968" data-name="Trazado 145968" d="M218.815,284.992l-7.525-13.536-4.906.919,1.935,17.632a1.593,1.593,0,0,0,2.413,1.185l7.791-4.762,9.99,6.3a1.592,1.592,0,0,0,2.229-.552l11.685-20.664-5.549-.78Z" transform="translate(-206.385 -270.737)" fill="none"/>
    </clipPath>
    <clipPath id="clip-path-21">
      <path id="Trazado_145979" data-name="Trazado 145979" d="M328.63,259.733l-8.735,7.555.409,1.805a39.33,39.33,0,0,1,.724,13.174c12.014,3.569,23.535-.185,23.535-.185-8.552-14.255-7.205-30.828-7.205-30.828Z" transform="translate(-319.895 -251.255)" fill="none"/>
    </clipPath>
    <clipPath id="clip-path-23">
      <path id="Trazado_146004" data-name="Trazado 146004" d="M289.4,300.724c-2.4,9.465-5.559,42.5-5.559,42.5l-7.6,1.612s1.123,10.843-.5,15.112c0,0,13.021,3.927,20.484,1.4-.606,3.145-1.241,4.953-1.133,5.851h66.991q.734-4.293,1.378-8.274c.9-.615,17.5-48.646,14.36-62.029-3.36-14.35-25.008-13.939-25.008-13.939-5.718-.395-10.946-.578-15.725-.578-34.422,0-45.452,9.529-47.691,18.347" transform="translate(-275.747 -282.377)" fill="none"/>
    </clipPath>
    <clipPath id="clip-path-24">
      <rect id="Rectángulo_37337" data-name="Rectángulo 37337" width="20.003" height="53.592" fill="none"/>
    </clipPath>
    <clipPath id="clip-path-25">
      <rect id="Rectángulo_37338" data-name="Rectángulo 37338" width="69.693" height="67.027" fill="none"/>
    </clipPath>
    <clipPath id="clip-path-27">
      <path id="Trazado_146045" data-name="Trazado 146045" d="M340.244,346.049s4.767.211,7.574,6.926a11.348,11.348,0,0,1-.353,9.878c-.76,1.388.064,1.736,4.576,1.5s6.825-5.9,4.974-12.262-8.038-8.491-8.038-8.491a9.9,9.9,0,0,0-3.389-.661,5.862,5.862,0,0,0-5.344,3.106" transform="translate(-340.244 -342.943)" fill="none"/>
    </clipPath>
    <clipPath id="clip-path-28">
      <rect id="Rectángulo_37340" data-name="Rectángulo 37340" width="17.412" height="21.479" fill="none"/>
    </clipPath>
    <clipPath id="clip-path-30">
      <rect id="Rectángulo_37341" data-name="Rectángulo 37341" width="33.483" height="24.209" fill="none"/>
    </clipPath>
    <clipPath id="clip-path-31">
      <rect id="Rectángulo_37342" data-name="Rectángulo 37342" width="13.768" height="54.446" fill="none"/>
    </clipPath>
    <clipPath id="clip-path-32">
      <path id="Trazado_146059" data-name="Trazado 146059" d="M52.338,263.684a3.607,3.607,0,0,0-3.652,4.163l8.888,72.386a4.844,4.844,0,0,0,4.675,4.163H164.678a3.605,3.605,0,0,0,3.651-4.163l-8.888-72.386a4.843,4.843,0,0,0-4.673-4.163Z" transform="translate(-48.654 -263.684)" fill="none"/>
    </clipPath>
    <clipPath id="clip-path-33">
      <rect id="Rectángulo_37344" data-name="Rectángulo 37344" width="119.707" height="80.712" fill="none"/>
    </clipPath>
  </defs>
  <g id="Grupo_142144" data-name="Grupo 142144" clip-path="url(#clip-path)">
    <g id="Grupo_142081" data-name="Grupo 142081">
      <g id="Grupo_142080" data-name="Grupo 142080" clip-path="url(#clip-path)">
        <path id="Trazado_145856" data-name="Trazado 145856" d="M46.805,289.611c-25.023-35.6-82.245-139.758,33.106-170.875S158.328-1.292,242.588.015s166.962,71.891,156.8,138.863-102.615,61.65-128.466,130.83-180.106,82.516-224.12,19.9" transform="translate(-0.24 0)" fill="#92e3a9"/>
        <path id="Trazado_145857" data-name="Trazado 145857" d="M46.805,289.96C21.782,254.363-35.44,150.2,79.911,119.086S158.328-.943,242.588.364s166.962,71.891,156.8,138.863-102.615,61.65-128.466,130.83-180.106,82.516-224.12,19.9" transform="translate(-0.24 -0.008)" fill="#d9e3ff"/>
        <path id="Trazado_145858" data-name="Trazado 145858" d="M341.812,131.28a21.433,21.433,0,0,0,10.771-6.229l6.887,2.329,3.435-5.951-5.456-4.794a21.513,21.513,0,0,0,0-12.443l5.456-4.8-3.435-5.951-6.887,2.329a21.4,21.4,0,0,0-10.771-6.223l-1.43-7.124h-3.436" transform="translate(-7.807 -1.91)" fill="none" stroke="#263238" stroke-miterlimit="10" stroke-width="1"/>
        <path id="Trazado_145859" data-name="Trazado 145859" d="M332.9,82.422l-1.424,7.123A21.407,21.407,0,0,0,320.7,95.769l-6.886-2.329-3.436,5.951,5.456,4.8a21.517,21.517,0,0,0,0,12.444l-5.456,4.794,3.436,5.951,6.886-2.329a21.464,21.464,0,0,0,10.776,6.229L332.9,138.4h6.871l1.429-7.123" transform="translate(-7.191 -1.91)" fill="none" stroke="#263238" stroke-miterlimit="10" stroke-width="1"/>
        <path id="Trazado_145860" data-name="Trazado 145860" d="M336.255,122.288c-12.248-.857-14.551-18.692-2.306-21.824" transform="translate(-7.55 -2.328)" fill="none" stroke="#263238" stroke-miterlimit="10" stroke-width="1"/>
        <path id="Trazado_145861" data-name="Trazado 145861" d="M344.338,102.976c6.1,5.586,4.166,16.485-3.958,18.947" transform="translate(-7.887 -2.386)" fill="none" stroke="#263238" stroke-miterlimit="10" stroke-width="1"/>
        <path id="Trazado_145862" data-name="Trazado 145862" d="M338.376,100.2a10.95,10.95,0,0,1,3.084.853" transform="translate(-7.84 -2.322)" fill="none" stroke="#263238" stroke-miterlimit="10" stroke-width="1"/>
        <path id="Trazado_145863" data-name="Trazado 145863" d="M379.285,137.945l1.447-1.734a14.132,14.132,0,0,0,8.193-.207l3.249,3.511" transform="translate(-8.788 -3.151)" fill="none" stroke="#263238" stroke-miterlimit="10" stroke-width="1"/>
        <path id="Trazado_145864" data-name="Trazado 145864" d="M373.634,110.263l.627,1.709a14.1,14.1,0,0,0-3.911,7.2l-4.666,1.06.115,4.523,4.715.82a14.149,14.149,0,0,0,4.278,6.987l-1.415,4.568,3.975,2.161" transform="translate(-8.473 -2.555)" fill="none" stroke="#263238" stroke-miterlimit="10" stroke-width="1"/>
        <path id="Trazado_145865" data-name="Trazado 145865" d="M392.022,138.787l3.858-2.362-1.646-4.491a14.121,14.121,0,0,0,3.906-7.2l4.667-1.06-.117-4.523-4.711-.817a14.152,14.152,0,0,0-4.279-6.987l1.414-4.571-3.975-2.161-3.066,3.675a14.091,14.091,0,0,0-8.188.208l-3.252-3.509-3.858,2.362" transform="translate(-8.637 -2.424)" fill="none" stroke="#263238" stroke-miterlimit="10" stroke-width="1"/>
        <path id="Trazado_145866" data-name="Trazado 145866" d="M391.557,120.491c1.333,5.614-4,11.016-9.633,8.736-5.374-2.174-6.156-10.055-1.169-13.084" transform="translate(-8.745 -2.691)" fill="none" stroke="#263238" stroke-miterlimit="10" stroke-width="1"/>
        <path id="Trazado_145867" data-name="Trazado 145867" d="M387.172,115.439a7.189,7.189,0,0,1,2.962,1.9" transform="translate(-8.971 -2.675)" fill="none" stroke="#263238" stroke-miterlimit="10" stroke-width="1"/>
        <path id="Trazado_145868" data-name="Trazado 145868" d="M70.233,234.18l7.336,7.336a7.911,7.911,0,0,0,9.511,9.511l-4.609-4.609,1.248-4.661,4.661-1.248,4.609,4.609a7.91,7.91,0,0,0-9.51-9.511l-6.757-6.756" transform="translate(-1.627 -5.303)" fill="none" stroke="#263238" stroke-miterlimit="10" stroke-width="1"/>
        <path id="Trazado_145869" data-name="Trazado 145869" d="M65.357,217.469l-6.733-6.733a7.91,7.91,0,0,0-9.51-9.511l4.609,4.609-1.249,4.661-4.661,1.248L43.2,207.135a7.91,7.91,0,0,0,9.511,9.51l6.733,6.733" transform="translate(-0.996 -4.658)" fill="none" stroke="#263238" stroke-miterlimit="10" stroke-width="1"/>
        <path id="Trazado_145870" data-name="Trazado 145870" d="M73.58,224.553l9.389-9.389a6.329,6.329,0,0,1,1.571-1.149l1.89-.977,6.8-7.771-4.25-4.249-7.771,6.8-.977,1.891a6.344,6.344,0,0,1-1.148,1.57l-7.447,7.447" transform="translate(-1.66 -4.658)" fill="none" stroke="#263238" stroke-miterlimit="10" stroke-width="1"/>
        <path id="Trazado_145871" data-name="Trazado 145871" d="M47.952,249.617a3.186,3.186,0,0,0,4.082-.564l16.27-16.27a3.1,3.1,0,0,0,1-2.825l2.821-2.821.172.172a1.045,1.045,0,1,0,1.478-1.477l-5.566-5.565a1.044,1.044,0,0,0-1.477,1.477l.172.172-2.821,2.821a3.1,3.1,0,0,0-2.825,1l-16.27,16.27a3.125,3.125,0,0,0-1.032,2.673" transform="translate(-1.018 -5.097)" fill="none" stroke="#263238" stroke-miterlimit="10" stroke-width="1"/>
        <path id="Trazado_145872" data-name="Trazado 145872" d="M44.625,247.037a9.206,9.206,0,0,0,1.354,1.672,8.566,8.566,0,0,0,1.99,1.535" transform="translate(-1.034 -5.724)" fill="none" stroke="#263238" stroke-miterlimit="10" stroke-width="1"/>
        <line id="Línea_180" data-name="Línea 180" y1="2.84" x2="2.84" transform="translate(48.597 236.747)" fill="none" stroke="#263238" stroke-miterlimit="10" stroke-width="1"/>
        <line id="Línea_181" data-name="Línea 181" y1="12.266" x2="12.011" transform="translate(55.28 220.638)" fill="none" stroke="#263238" stroke-miterlimit="10" stroke-width="1"/>
        <rect id="Rectángulo_37312" data-name="Rectángulo 37312" width="260.426" height="169.191" transform="translate(57.017 25.434)" fill="#fff"/>
        <path id="Trazado_145873" data-name="Trazado 145873" d="M318.794,26.037H58.369V195.228H318.794Z" transform="translate(-1.352 -0.603)" fill="#bfbfbf"/>
        <rect id="Rectángulo_37313" data-name="Rectángulo 37313" width="260.426" height="22.134" transform="translate(57.016 25.434)" fill="#fff"/>
        <rect id="Rectángulo_37314" data-name="Rectángulo 37314" width="260.426" height="22.134" transform="translate(57.016 25.434)" fill="#757575"/>
        <path id="Trazado_145874" data-name="Trazado 145874" d="M316.5,44.729h-9.971a2.555,2.555,0,0,1-2.555-2.555V32.2a2.555,2.555,0,0,1,2.555-2.555H316.5A2.555,2.555,0,0,1,319.06,32.2v9.971a2.555,2.555,0,0,1-2.555,2.555" transform="translate(-7.043 -0.687)" fill="#fff"/>
        <path id="Trazado_145875" data-name="Trazado 145875" d="M297.558,44.729h-9.922a2.581,2.581,0,0,1-2.581-2.58V32.227a2.58,2.58,0,0,1,2.581-2.58h9.922a2.58,2.58,0,0,1,2.581,2.58v9.923a2.581,2.581,0,0,1-2.581,2.58" transform="translate(-6.605 -0.687)" fill="#fff"/>
        <path id="Trazado_145876" data-name="Trazado 145876" d="M278.66,44.729h-9.97a2.557,2.557,0,0,1-2.556-2.556V32.2a2.556,2.556,0,0,1,2.556-2.556h9.97a2.556,2.556,0,0,1,2.556,2.556v9.97a2.556,2.556,0,0,1-2.556,2.556" transform="translate(-6.166 -0.687)" fill="#fff"/>
        <path id="Trazado_145877" data-name="Trazado 145877" d="M68.368,63.791v117.33a5.1,5.1,0,0,0,5.1,5.1h230.7a5.1,5.1,0,0,0,5.094-5.1V63.791a5.1,5.1,0,0,0-5.094-5.1H73.463a5.1,5.1,0,0,0-5.1,5.1" transform="translate(-1.584 -1.36)" fill="#263238"/>
        <path id="Rectángulo_37315" data-name="Rectángulo 37315" d="M5.216,0H235.673a5.216,5.216,0,0,1,5.216,5.216V122.305a5.215,5.215,0,0,1-5.215,5.215H5.216A5.216,5.216,0,0,1,0,122.3V5.216A5.216,5.216,0,0,1,5.216,0Z" transform="translate(66.784 57.336)" fill="none" stroke="#263238" stroke-linecap="round" stroke-linejoin="round" stroke-width="1"/>
        <line id="Línea_182" data-name="Línea 182" y1="6.471" x2="6.471" transform="translate(301.24 33.265)" fill="none" stroke="#263238" stroke-linecap="round" stroke-linejoin="round" stroke-width="1"/>
        <line id="Línea_183" data-name="Línea 183" x2="6.471" y2="6.471" transform="translate(301.24 33.266)" fill="none" stroke="#263238" stroke-linecap="round" stroke-linejoin="round" stroke-width="1"/>
        <rect id="Rectángulo_37316" data-name="Rectángulo 37316" width="8.627" height="5.697" transform="translate(281.679 35.117)" fill="none" stroke="#263238" stroke-linecap="round" stroke-linejoin="round" stroke-width="1"/>
        <line id="Línea_184" data-name="Línea 184" x1="8.627" transform="translate(263.195 40.814)" fill="none" stroke="#263238" stroke-linecap="round" stroke-linejoin="round" stroke-width="1"/>
        <path id="Trazado_145878" data-name="Trazado 145878" d="M299.011,147.345H281.892a1.954,1.954,0,0,1,0-3.907h17.119a1.954,1.954,0,1,1,0,3.907" transform="translate(-6.486 -3.324)" fill="#757575"/>
        <path id="Trazado_145879" data-name="Trazado 145879" d="M298.283,161.178h-47.8a1.954,1.954,0,0,1,0-3.907h47.8a1.954,1.954,0,1,1,0,3.907" transform="translate(-5.759 -3.644)" fill="#757575"/>
        <path id="Trazado_145880" data-name="Trazado 145880" d="M296.919,175.012h-105.3a1.954,1.954,0,1,1,0-3.907h105.3a1.954,1.954,0,1,1,0,3.907" transform="translate(-4.395 -3.965)" fill="#757575"/>
        <path id="Trazado_145881" data-name="Trazado 145881" d="M86.63,133.512H78.656a1.954,1.954,0,0,1,0-3.907H86.63a1.954,1.954,0,0,1,0,3.907" transform="translate(-1.777 -3.003)" fill="#bfbfbf"/>
        <path id="Trazado_145882" data-name="Trazado 145882" d="M86.63,147.345H78.656a1.954,1.954,0,0,1,0-3.907H86.63a1.954,1.954,0,0,1,0,3.907" transform="translate(-1.777 -3.324)" fill="#bfbfbf"/>
        <path id="Trazado_145883" data-name="Trazado 145883" d="M86.63,161.178H78.656a1.954,1.954,0,0,1,0-3.907H86.63a1.954,1.954,0,0,1,0,3.907" transform="translate(-1.777 -3.644)" fill="#bfbfbf"/>
        <path id="Trazado_145884" data-name="Trazado 145884" d="M86.63,175.012H78.656a1.954,1.954,0,0,1,0-3.907H86.63a1.954,1.954,0,0,1,0,3.907" transform="translate(-1.777 -3.965)" fill="#bfbfbf"/>
        <g id="Grupo_142064" data-name="Grupo 142064" transform="translate(74.925 126.602)" opacity="0.7">
          <g id="Grupo_142063" data-name="Grupo 142063">
            <g id="Grupo_142062" data-name="Grupo 142062" clip-path="url(#clip-path-3)">
              <path id="Trazado_145885" data-name="Trazado 145885" d="M86.63,133.512H78.656a1.954,1.954,0,0,1,0-3.907H86.63a1.954,1.954,0,0,1,0,3.907" transform="translate(-76.702 -129.605)" fill="#bfbfbf"/>
            </g>
          </g>
        </g>
        <g id="Grupo_142067" data-name="Grupo 142067" transform="translate(74.925 140.115)" opacity="0.7">
          <g id="Grupo_142066" data-name="Grupo 142066">
            <g id="Grupo_142065" data-name="Grupo 142065" clip-path="url(#clip-path-3)">
              <path id="Trazado_145886" data-name="Trazado 145886" d="M86.63,147.345H78.656a1.954,1.954,0,0,1,0-3.907H86.63a1.954,1.954,0,0,1,0,3.907" transform="translate(-76.702 -143.438)" fill="#bfbfbf"/>
            </g>
          </g>
        </g>
        <g id="Grupo_142070" data-name="Grupo 142070" transform="translate(74.925 153.627)" opacity="0.7">
          <g id="Grupo_142069" data-name="Grupo 142069">
            <g id="Grupo_142068" data-name="Grupo 142068" clip-path="url(#clip-path-3)">
              <path id="Trazado_145887" data-name="Trazado 145887" d="M86.63,161.178H78.656a1.954,1.954,0,0,1,0-3.907H86.63a1.954,1.954,0,0,1,0,3.907" transform="translate(-76.702 -157.271)" fill="#bfbfbf"/>
            </g>
          </g>
        </g>
        <g id="Grupo_142073" data-name="Grupo 142073" transform="translate(74.925 167.14)" opacity="0.7">
          <g id="Grupo_142072" data-name="Grupo 142072">
            <g id="Grupo_142071" data-name="Grupo 142071" clip-path="url(#clip-path-3)">
              <path id="Trazado_145888" data-name="Trazado 145888" d="M86.63,175.012H78.656a1.954,1.954,0,0,1,0-3.907H86.63a1.954,1.954,0,0,1,0,3.907" transform="translate(-76.702 -171.105)" fill="#bfbfbf"/>
            </g>
          </g>
        </g>
        <path id="Trazado_145889" data-name="Trazado 145889" d="M246.505,119.678H78.656a1.954,1.954,0,1,1,0-3.907h167.85a1.954,1.954,0,1,1,0,3.907" transform="translate(-1.777 -2.682)" fill="#bfbfbf"/>
        <path id="Trazado_145890" data-name="Trazado 145890" d="M299.011,92.012H281.892a1.954,1.954,0,0,1,0-3.907h17.119a1.954,1.954,0,1,1,0,3.907" transform="translate(-6.486 -2.041)" fill="#bfbfbf"/>
        <path id="Trazado_145891" data-name="Trazado 145891" d="M274.169,92.012H257.82a1.954,1.954,0,0,1,0-3.907h16.349a1.954,1.954,0,1,1,0,3.907" transform="translate(-5.929 -2.041)" fill="#bfbfbf"/>
        <path id="Trazado_145892" data-name="Trazado 145892" d="M246.505,92.012H78.656a1.954,1.954,0,0,1,0-3.907h167.85a1.954,1.954,0,1,1,0,3.907" transform="translate(-1.777 -2.041)" fill="#bfbfbf"/>
        <path id="Trazado_145893" data-name="Trazado 145893" d="M299.011,133.512h-17.12a1.954,1.954,0,1,1,0-3.907h17.12a1.954,1.954,0,1,1,0,3.907" transform="translate(-6.486 -3.003)" fill="#999"/>
        <path id="Trazado_145894" data-name="Trazado 145894" d="M270.416,133.512H95.82a1.954,1.954,0,0,1,0-3.907h174.6a1.954,1.954,0,1,1,0,3.907" transform="translate(-2.175 -3.003)" fill="#999"/>
        <path id="Trazado_145895" data-name="Trazado 145895" d="M145.963,147.345H95.82a1.954,1.954,0,0,1,0-3.907h50.144a1.954,1.954,0,0,1,0,3.907" transform="translate(-2.175 -3.324)" fill="#999"/>
        <path id="Trazado_145896" data-name="Trazado 145896" d="M145.963,161.178H95.82a1.954,1.954,0,0,1,0-3.907h50.144a1.954,1.954,0,0,1,0,3.907" transform="translate(-2.175 -3.644)" fill="#999"/>
        <path id="Trazado_145897" data-name="Trazado 145897" d="M145.963,175.012H95.82a1.954,1.954,0,1,1,0-3.907h50.144a1.954,1.954,0,0,1,0,3.907" transform="translate(-2.175 -3.965)" fill="#999"/>
        <path id="Trazado_145898" data-name="Trazado 145898" d="M113.4,352.465s-5.124,8.818-3.106,9.136,6.238-7.3,6.238-7.3l11.575-3.067-8.718-.9Z" transform="translate(-2.545 -8.117)" fill="#fff"/>
        <path id="Trazado_145899" data-name="Trazado 145899" d="M113.4,352.465s-5.124,8.818-3.106,9.136,6.238-7.3,6.238-7.3l11.575-3.067-8.718-.9Z" transform="translate(-2.545 -8.117)" fill="none" stroke="#263238" stroke-linecap="round" stroke-linejoin="round" stroke-width="1"/>
        <g id="Grupo_142076" data-name="Grupo 142076" transform="translate(106.794 341.724)" opacity="0.3">
          <g id="Grupo_142075" data-name="Grupo 142075">
            <g id="Grupo_142074" data-name="Grupo 142074" clip-path="url(#clip-path-7)">
              <path id="Trazado_145900" data-name="Trazado 145900" d="M113.4,352.465s-5.124,8.818-3.106,9.136,6.238-7.3,6.238-7.3l11.575-3.067-8.718-.9Z" transform="translate(-109.339 -349.842)"/>
              <path id="Trazado_145901" data-name="Trazado 145901" d="M113.4,352.465s-5.124,8.818-3.106,9.136,6.238-7.3,6.238-7.3l11.575-3.067-8.718-.9Z" transform="translate(-109.339 -349.842)" fill="none" stroke="#263238" stroke-linecap="round" stroke-linejoin="round" stroke-width="1"/>
            </g>
          </g>
        </g>
        <path id="Trazado_145902" data-name="Trazado 145902" d="M117.117,346.352s-7.166-1.707-9.144,1.66-7.78,13.328-5.605,14.469,4.069-2.543,4.069-2.543Z" transform="translate(-2.361 -8.015)" fill="#fff"/>
        <path id="Trazado_145903" data-name="Trazado 145903" d="M117.117,346.352s-7.166-1.707-9.144,1.66-7.78,13.328-5.605,14.469,4.069-2.543,4.069-2.543Z" transform="translate(-2.361 -8.015)" fill="none" stroke="#263238" stroke-linecap="round" stroke-linejoin="round" stroke-width="1"/>
        <path id="Trazado_145904" data-name="Trazado 145904" d="M146.471,356.537a32.594,32.594,0,0,1-14.693,1.543l-8.158,2.711s-7.17,3.531-10.5,1.751,8.5-5.707,8.5-5.707,7.96-3.444,5.583-4.272-11.357-.671-13.123.683-6.391,10.122-9.729,9.623,1.411-5.275,2.61-7.113,3.889-9.168,9.342-9.473,23.8.635,23.8.635l21.578-2.306,5.091,12.274Z" transform="translate(-2.391 -7.985)" fill="#fff"/>
        <path id="Trazado_145905" data-name="Trazado 145905" d="M146.471,356.537a32.594,32.594,0,0,1-14.693,1.543l-8.158,2.711s-7.17,3.531-10.5,1.751,8.5-5.707,8.5-5.707,7.96-3.444,5.583-4.272-11.357-.671-13.123.683-6.391,10.122-9.729,9.623,1.411-5.275,2.61-7.113,3.889-9.168,9.342-9.473,23.8.635,23.8.635l21.578-2.306,5.091,12.274Z" transform="translate(-2.391 -7.985)" fill="none" stroke="#263238" stroke-linecap="round" stroke-linejoin="round" stroke-width="1"/>
        <path id="Trazado_145906" data-name="Trazado 145906" d="M158.962,359.466a3.464,3.464,0,0,0,4.114-.063,3.588,3.588,0,0,0,3.913-.718c1.578-1.736,1.716-16.9-2.646-18.612-1.258-.492-4.4-.442-4.917,1.318a2.311,2.311,0,0,0-3.171,1.976c-.431,2.735,2.287,5.281,1.376,13.15a3.1,3.1,0,0,0,1.33,2.949" transform="translate(-3.619 -7.873)" fill="#92e3a9"/>
        <path id="Trazado_145907" data-name="Trazado 145907" d="M158.962,359.466a3.464,3.464,0,0,0,4.114-.063,3.588,3.588,0,0,0,3.913-.718c1.578-1.736,1.716-16.9-2.646-18.612-1.258-.492-4.4-.442-4.917,1.318a2.311,2.311,0,0,0-3.171,1.976c-.431,2.735,2.287,5.281,1.376,13.15A3.1,3.1,0,0,0,158.962,359.466Z" transform="translate(-3.619 -7.873)" fill="none" stroke="#263238" stroke-linecap="round" stroke-linejoin="round" stroke-width="1"/>
        <g id="Grupo_142079" data-name="Grupo 142079" transform="translate(152.101 331.442)" opacity="0.3">
          <g id="Grupo_142078" data-name="Grupo 142078">
            <g id="Grupo_142077" data-name="Grupo 142077" clip-path="url(#clip-path-8)">
              <path id="Trazado_145908" data-name="Trazado 145908" d="M158.962,359.466a3.464,3.464,0,0,0,4.114-.063,3.588,3.588,0,0,0,3.913-.718c1.578-1.736,1.716-16.9-2.646-18.612-1.258-.492-4.4-.442-4.917,1.318a2.311,2.311,0,0,0-3.171,1.976c-.431,2.735,2.287,5.281,1.376,13.15a3.1,3.1,0,0,0,1.33,2.949" transform="translate(-155.721 -339.316)"/>
              <path id="Trazado_145909" data-name="Trazado 145909" d="M158.962,359.466a3.464,3.464,0,0,0,4.114-.063,3.588,3.588,0,0,0,3.913-.718c1.578-1.736,1.716-16.9-2.646-18.612-1.258-.492-4.4-.442-4.917,1.318a2.311,2.311,0,0,0-3.171,1.976c-.431,2.735,2.287,5.281,1.376,13.15A3.1,3.1,0,0,0,158.962,359.466Z" transform="translate(-155.721 -339.316)" fill="none" stroke="#263238" stroke-linecap="round" stroke-linejoin="round" stroke-width="1"/>
            </g>
          </g>
        </g>
        <path id="Trazado_145910" data-name="Trazado 145910" d="M164.063,356.027a29.3,29.3,0,0,0-2.579-11.983" transform="translate(-3.742 -7.972)" fill="none" stroke="#263238" stroke-linecap="round" stroke-linejoin="round" stroke-width="1"/>
        <path id="Trazado_145911" data-name="Trazado 145911" d="M266.87,348.8c-.723,5.558-1.543,11.575-2.481,18.11H180.538l.4-10.8c-5.011,1.211-14.75.469-14.75.469V340.609c5.92-3.35,6.8-2.413,6.8-2.413s.3-38.975,3.849-48.7a19.622,19.622,0,0,1,6.935-9.124v-.01a23.742,23.742,0,0,1,2.647-1.709,1.447,1.447,0,0,0,.127-.078c.977-.518,2.159-1.065,3.507-1.631.117-.049.244-.1.371-.147,13.129-5.363,41.779-11.585,68.476-.176,1.866.8,17.1,8.078,18.4,18.6.742,6-3.341,35.83-10.433,53.589" transform="translate(-3.851 -6.261)" fill="#91adf7"/>
      </g>
    </g>
    <g id="Grupo_142092" data-name="Grupo 142092" transform="translate(162.337 263.939)">
      <g id="Grupo_142091" data-name="Grupo 142091" clip-path="url(#clip-path-9)">
        <g id="Grupo_142084" data-name="Grupo 142084" transform="translate(69.238 30.554)" opacity="0.2">
          <g id="Grupo_142083" data-name="Grupo 142083">
            <g id="Grupo_142082" data-name="Grupo 142082" clip-path="url(#clip-path-10)">
              <path id="Trazado_145912" data-name="Trazado 145912" d="M255.227,301.479l-8.362,38.809c-1.3-1.026-5.04-1.094-9.8-.645a15.294,15.294,0,0,0,2.53-3.79c12.64-27.351,15.4-33.828,15.629-34.375" transform="translate(-237.068 -301.479)"/>
            </g>
          </g>
        </g>
        <g id="Grupo_142087" data-name="Grupo 142087" transform="translate(13.83 73.038)" opacity="0.2">
          <g id="Grupo_142086" data-name="Grupo 142086">
            <g id="Grupo_142085" data-name="Grupo 142085" clip-path="url(#clip-path-11)">
              <path id="Trazado_145913" data-name="Trazado 145913" d="M269.2,345.129a171.868,171.868,0,0,0-4.474,23.522H180.878l.772-12.445c5.226-.742,14.4-1.5,23.923-3.194a21.258,21.258,0,0,1,.225,9.094s38.565,4.786,51.508,1.67c3.692-.889,7.033-6.047,9.9-13.148.694-1.729,1.358-3.575,2-5.5" transform="translate(-180.358 -344.974)" fill="#91adf7"/>
              <path id="Trazado_145914" data-name="Trazado 145914" d="M269.2,345.129a171.868,171.868,0,0,0-4.474,23.522H180.878l.772-12.445c5.226-.742,14.4-1.5,23.923-3.194a21.258,21.258,0,0,1,.225,9.094s38.565,4.786,51.508,1.67c3.692-.889,7.033-6.047,9.9-13.148C267.894,348.9,268.558,347.053,269.2,345.129Z" transform="translate(-180.358 -344.974)" fill="none" stroke="#000" stroke-miterlimit="10" stroke-width="1"/>
            </g>
          </g>
        </g>
        <g id="Grupo_142090" data-name="Grupo 142090" transform="translate(-0.005 28.484)" opacity="0.3">
          <g id="Grupo_142089" data-name="Grupo 142089">
            <g id="Grupo_142088" data-name="Grupo 142088" clip-path="url(#clip-path-12)">
              <path id="Trazado_145915" data-name="Trazado 145915" d="M173.99,339.608s-1.877-1.673-7.807,1.681v15.971s9.772-.35,13.605-2.426c3.3,2.041,2.712-35.338,3.3-55.474-4.785,1.316-5.169,10.425-5.91,18.993a172.332,172.332,0,0,1-3.186,21.255" transform="translate(-166.183 -299.36)"/>
            </g>
          </g>
        </g>
      </g>
    </g>
    <g id="Grupo_142094" data-name="Grupo 142094">
      <g id="Grupo_142093" data-name="Grupo 142093" clip-path="url(#clip-path)">
        <path id="Trazado_145917" data-name="Trazado 145917" d="M266.87,348.8c-.723,5.558-1.543,11.575-2.481,18.11H180.538l.4-10.8c-5.011,1.211-14.75.469-14.75.469V340.609c5.92-3.35,6.8-2.413,6.8-2.413s.3-38.975,3.849-48.7a19.622,19.622,0,0,1,6.935-9.124v-.01a23.742,23.742,0,0,1,2.647-1.709,1.447,1.447,0,0,0,.127-.078c.977-.518,2.159-1.065,3.507-1.631.117-.049.244-.1.371-.147,13.129-5.363,41.779-11.585,68.476-.176,1.866.8,17.1,8.078,18.4,18.6C278.045,301.213,273.962,331.046,266.87,348.8Z" transform="translate(-3.851 -6.261)" fill="none" stroke="#000" stroke-miterlimit="10" stroke-width="1"/>
        <path id="Trazado_145918" data-name="Trazado 145918" d="M278.165,295.809c.029.234.059.508.068.811.43,7.5-3.653,35.811-10.511,52.866-2.862,7.1-6.2,12.259-9.9,13.148-12.943,3.116-51.508-1.67-51.508-1.67a21.375,21.375,0,0,0-2.882-15.336s37.862-9.26,42.648-5.47l8.381-38.849" transform="translate(-4.714 -6.854)" fill="none" stroke="#263238" stroke-linecap="round" stroke-linejoin="round" stroke-width="1"/>
        <path id="Trazado_145919" data-name="Trazado 145919" d="M249.8,343.375a17.177,17.177,0,0,1,6.708,5.75" transform="translate(-5.788 -7.956)" fill="none" stroke="#263238" stroke-linecap="round" stroke-linejoin="round" stroke-width="1"/>
        <path id="Trazado_145920" data-name="Trazado 145920" d="M150.794,344.8s-3.527-.742-4.964.864c-1.5,1.677-7.589,10.855-5.51,12.618s6.308-7.906,6.308-7.906Z" transform="translate(-3.241 -7.985)" fill="#fff"/>
        <path id="Trazado_145921" data-name="Trazado 145921" d="M150.794,344.8s-3.527-.742-4.964.864c-1.5,1.677-7.589,10.855-5.51,12.618s6.308-7.906,6.308-7.906Z" transform="translate(-3.241 -7.985)" fill="none" stroke="#263238" stroke-linecap="round" stroke-linejoin="round" stroke-width="1"/>
        <path id="Trazado_145922" data-name="Trazado 145922" d="M157.91,344.617s-7.844-1.684-9.6.711S136.668,360.1,142.817,360.5l9.822-11.021Z" transform="translate(-3.263 -7.972)" fill="#fff"/>
        <path id="Trazado_145923" data-name="Trazado 145923" d="M157.91,344.617s-7.844-1.684-9.6.711S136.668,360.1,142.817,360.5l9.822-11.021Z" transform="translate(-3.263 -7.972)" fill="none" stroke="#263238" stroke-linecap="round" stroke-linejoin="round" stroke-width="1"/>
        <path id="Trazado_145924" data-name="Trazado 145924" d="M175.868,358.008s-8.059,1.757-11.333,2.4-9.343,4.87-12.937,3.194,11.74-7.906,11.74-7.906l5.271-2.122Z" transform="translate(-3.5 -8.192)" fill="#bfbfbf"/>
        <path id="Trazado_145925" data-name="Trazado 145925" d="M175.868,358.008s-8.059,1.757-11.333,2.4-9.343,4.87-12.937,3.194,11.74-7.906,11.74-7.906l5.271-2.122Z" transform="translate(-3.5 -8.192)" fill="none" stroke="#263238" stroke-linecap="round" stroke-linejoin="round" stroke-width="1"/>
        <path id="Trazado_145926" data-name="Trazado 145926" d="M183.136,308.528l.343-9.168" transform="translate(-4.243 -6.936)" fill="none" stroke="#263238" stroke-linecap="round" stroke-linejoin="round" stroke-width="1"/>
        <path id="Trazado_145927" data-name="Trazado 145927" d="M180.878,367.907c1.495-18.491,2.05-54.9,2.05-54.9" transform="translate(-4.191 -7.252)" fill="none" stroke="#263238" stroke-linecap="round" stroke-linejoin="round" stroke-width="1"/>
        <path id="Trazado_145928" data-name="Trazado 145928" d="M204.9,347.814H177.113s-21.562-6.469-25.155-1.437-11.26,12.7-9.1,14.135,11.26-8.984,11.26-8.984l7.906.074s-6.708,2.92-8.146,4.358-4.552,5.51-2.875,6.228,6.948-4.551,6.948-4.551,7.905-1.917,9.822-.958a27.24,27.24,0,0,0,19.884,1.917l21.206,2.635Z" transform="translate(-3.301 -7.981)" fill="#fff"/>
        <path id="Trazado_145929" data-name="Trazado 145929" d="M204.9,347.814H177.113s-21.562-6.469-25.155-1.437-11.26,12.7-9.1,14.135,11.26-8.984,11.26-8.984l7.906.074s-6.708,2.92-8.146,4.358-4.552,5.51-2.875,6.228,6.948-4.551,6.948-4.551,7.905-1.917,9.822-.958a27.24,27.24,0,0,0,19.884,1.917l21.206,2.635Z" transform="translate(-3.301 -7.981)" fill="none" stroke="#263238" stroke-linecap="round" stroke-linejoin="round" stroke-width="1"/>
        <path id="Trazado_145930" data-name="Trazado 145930" d="M252.694,314.89a41.165,41.165,0,0,1-.088-13.451" transform="translate(-5.841 -6.984)" fill="none" stroke="#263238" stroke-linecap="round" stroke-linejoin="round" stroke-width="1"/>
        <path id="Trazado_145931" data-name="Trazado 145931" d="M259.16,291.2s13.482-17.763,20.3,4.345" transform="translate(-6.005 -6.591)" fill="none" stroke="#263238" stroke-linecap="round" stroke-linejoin="round" stroke-width="1"/>
        <path id="Trazado_145932" data-name="Trazado 145932" d="M200.532,345.611a3.464,3.464,0,0,1,4-.961,3.589,3.589,0,0,1,3.97-.275c1.959,1.289,5.859,15.946,2.058,18.685-1.1.79-4.153,1.522-5.09-.055a2.31,2.31,0,0,1-3.562-1.126c-1.1-2.543.9-5.683-1.934-13.081a3.1,3.1,0,0,1,.557-3.186" transform="translate(-4.629 -7.967)" fill="#6680af"/>
      </g>
    </g>
    <g id="Grupo_142099" data-name="Grupo 142099" transform="translate(195.135 335.897)">
      <g id="Grupo_142098" data-name="Grupo 142098" clip-path="url(#clip-path-14)">
        <g id="Grupo_142097" data-name="Grupo 142097" transform="translate(0.001 0)" opacity="0.3">
          <g id="Grupo_142096" data-name="Grupo 142096">
            <g id="Grupo_142095" data-name="Grupo 142095" clip-path="url(#clip-path-15)">
              <path id="Trazado_145933" data-name="Trazado 145933" d="M200.532,345.611a3.464,3.464,0,0,1,4-.961,3.589,3.589,0,0,1,3.97-.275c1.959,1.289,5.859,15.946,2.058,18.685-1.1.79-4.153,1.522-5.09-.055a2.31,2.31,0,0,1-3.562-1.126c-1.1-2.543.9-5.683-1.934-13.081a3.1,3.1,0,0,1,.557-3.186" transform="translate(-199.764 -343.865)"/>
            </g>
          </g>
        </g>
      </g>
    </g>
    <g id="Grupo_142101" data-name="Grupo 142101">
      <g id="Grupo_142100" data-name="Grupo 142100" clip-path="url(#clip-path)">
        <path id="Trazado_145935" data-name="Trazado 145935" d="M200.532,345.611a3.464,3.464,0,0,1,4-.961,3.589,3.589,0,0,1,3.97-.275c1.959,1.289,5.859,15.946,2.058,18.685-1.1.79-4.153,1.522-5.09-.055a2.31,2.31,0,0,1-3.562-1.126c-1.1-2.543.9-5.683-1.934-13.081A3.1,3.1,0,0,1,200.532,345.611Z" transform="translate(-4.629 -7.967)" fill="none" stroke="#000" stroke-miterlimit="10" stroke-width="1"/>
        <path id="Trazado_145936" data-name="Trazado 145936" d="M206.866,353.441a24.408,24.408,0,0,1,.079,6.874" transform="translate(-4.793 -8.189)" fill="none" stroke="#263238" stroke-linecap="round" stroke-linejoin="round" stroke-width="1"/>
        <path id="Trazado_145937" data-name="Trazado 145937" d="M219.285,308.486a1.9,1.9,0,1,1-1.791-2.009,1.9,1.9,0,0,1,1.791,2.009" transform="translate(-4.993 -7.101)" fill="#fff"/>
        <path id="Trazado_145938" data-name="Trazado 145938" d="M219.285,308.486a1.9,1.9,0,1,1-1.791-2.009A1.9,1.9,0,0,1,219.285,308.486Z" transform="translate(-4.993 -7.101)" fill="none" stroke="#263238" stroke-linecap="round" stroke-linejoin="round" stroke-width="1"/>
        <path id="Trazado_145939" data-name="Trazado 145939" d="M217.883,338.679a1.9,1.9,0,1,1-1.79-2.009,1.9,1.9,0,0,1,1.79,2.009" transform="translate(-4.96 -7.801)" fill="#fff"/>
        <path id="Trazado_145940" data-name="Trazado 145940" d="M217.883,338.679a1.9,1.9,0,1,1-1.79-2.009A1.9,1.9,0,0,1,217.883,338.679Z" transform="translate(-4.96 -7.801)" fill="none" stroke="#263238" stroke-linecap="round" stroke-linejoin="round" stroke-width="1"/>
        <path id="Trazado_145941" data-name="Trazado 145941" d="M235.2,271.078,233.8,251.4l-20.364,4.715-1.084,15.806c-1.285.16-2.508.339-3.7.524l4.979,11.941,9.737,1.278,15.572-14.35c-1.264-.095-2.514-.176-3.742-.234" transform="translate(-4.835 -5.825)" fill="#fff"/>
      </g>
    </g>
    <g id="Grupo_142103" data-name="Grupo 142103" transform="translate(203.817 245.574)">
      <g id="Grupo_142102" data-name="Grupo 142102" clip-path="url(#clip-path-17)">
        <path id="Trazado_145942" data-name="Trazado 145942" d="M213.242,263.086c.133,14,16.5,9.706,21.023-4.28l-.358-7.406-20.364,4.715Z" transform="translate(-208.758 -251.399)" fill="#263238"/>
      </g>
    </g>
    <g id="Grupo_142105" data-name="Grupo 142105">
      <g id="Grupo_142104" data-name="Grupo 142104" clip-path="url(#clip-path)">
        <path id="Trazado_145944" data-name="Trazado 145944" d="M235.2,271.078,233.8,251.4l-20.364,4.715-1.084,15.806c-1.285.16-2.508.339-3.7.524l4.979,11.941,9.737,1.278,15.572-14.35C237.676,271.218,236.425,271.137,235.2,271.078Z" transform="translate(-4.835 -5.825)" fill="none" stroke="#263238" stroke-linecap="round" stroke-linejoin="round" stroke-width="1"/>
        <path id="Trazado_145945" data-name="Trazado 145945" d="M200.253,233.4s-7.439-12.877-8.541-19.667c-3.4-20.973,11.741-13.9,11.741-13.9s10.705-9.584,24.04-7.906,16.846,7.351,25.82,10.838c0,0-6.737,34.2-15.361,41.869s-37.7-11.237-37.7-11.237" transform="translate(-4.43 -4.443)" fill="#263238"/>
        <path id="Trazado_145946" data-name="Trazado 145946" d="M200.253,233.4s-7.439-12.877-8.541-19.667c-3.4-20.973,11.741-13.9,11.741-13.9s10.705-9.584,24.04-7.906,16.846,7.351,25.82,10.838c0,0-6.737,34.2-15.361,41.869S200.253,233.4,200.253,233.4Z" transform="translate(-4.43 -4.443)" fill="none" stroke="#263238" stroke-linecap="round" stroke-linejoin="round" stroke-width="1"/>
        <path id="Trazado_145947" data-name="Trazado 145947" d="M204.462,202.881s-3.354-8.146,5.151-14.374" transform="translate(-4.722 -4.368)" fill="none" stroke="#263238" stroke-linecap="round" stroke-linejoin="round" stroke-width="1"/>
        <path id="Trazado_145948" data-name="Trazado 145948" d="M219.46,198.179c9.955-4.4,14.392,2.959,25.5,4.894" transform="translate(-5.085 -4.56)" fill="none" stroke="#bfbfbf" stroke-miterlimit="10" stroke-width="1"/>
        <path id="Trazado_145949" data-name="Trazado 145949" d="M211.589,203.154a12.546,12.546,0,0,1,3.228-2.887" transform="translate(-4.903 -4.64)" fill="none" stroke="#bfbfbf" stroke-miterlimit="10" stroke-width="1"/>
        <path id="Trazado_145950" data-name="Trazado 145950" d="M222.048,206.454s4.306-4.138,12.852,1.238a22.289,22.289,0,0,0,8.533,3.364" transform="translate(-5.145 -4.748)" fill="none" stroke="#bfbfbf" stroke-miterlimit="10" stroke-width="1"/>
        <path id="Trazado_145951" data-name="Trazado 145951" d="M234.7,215.523c-12.392.319-25.182-5.271-25.182-5.271-11.543,6.962-9.83,18.286-9.83,18.286,2.638,27.056,6.2,34.261,18.847,34.261,12.561,0,22.917-13.637,23.74-33.158-4.783.226-7.575-14.118-7.575-14.118" transform="translate(-4.625 -4.872)" fill="#fff"/>
        <path id="Trazado_145952" data-name="Trazado 145952" d="M234.7,215.523c-12.392.319-25.182-5.271-25.182-5.271-11.543,6.962-9.83,18.286-9.83,18.286,2.638,27.056,6.2,34.261,18.847,34.261,12.561,0,22.917-13.637,23.74-33.158C237.489,229.867,234.7,215.523,234.7,215.523Z" transform="translate(-4.625 -4.872)" fill="none" stroke="#263238" stroke-linecap="round" stroke-linejoin="round" stroke-width="1"/>
        <path id="Trazado_145953" data-name="Trazado 145953" d="M242.181,228.938a3.272,3.272,0,0,1,2.538-1.436c2.25,0,3.913,2.955,3.115,6.589-.781,3.554-1.824,6.589-4.073,6.589a2.541,2.541,0,0,1-2.307-1.718" transform="translate(-5.595 -5.271)" fill="#fff"/>
        <path id="Trazado_145954" data-name="Trazado 145954" d="M242.181,228.938a3.272,3.272,0,0,1,2.538-1.436c2.25,0,3.913,2.955,3.115,6.589-.781,3.554-1.824,6.589-4.073,6.589a2.541,2.541,0,0,1-2.307-1.718" transform="translate(-5.595 -5.271)" fill="none" stroke="#263238" stroke-linecap="round" stroke-linejoin="round" stroke-width="1"/>
        <path id="Trazado_145955" data-name="Trazado 145955" d="M216.813,242.255s1.512,2.073-1.386,3.628-5.214,1.523-5.955-.254,2.486-16.585,2.486-16.585" transform="translate(-4.851 -5.307)" fill="none" stroke="#263238" stroke-linecap="round" stroke-linejoin="round" stroke-width="1"/>
        <path id="Trazado_145956" data-name="Trazado 145956" d="M211.192,231.408c-1.563-.791-7.824-3.526-13.754.205l.381,5.744s2.188,1.2,7.209,1.2a20.174,20.174,0,0,0,4.894-.508" transform="translate(-4.575 -5.322)" fill="none" stroke="#263238" stroke-linecap="round" stroke-linejoin="round" stroke-width="1"/>
        <path id="Trazado_145957" data-name="Trazado 145957" d="M216.829,231.617l1.817,5.988s.742.977,5.773.977,6.682-1.2,6.682-1.2l-.147-5.744S223.657,227.309,216.829,231.617Z" transform="translate(-5.024 -5.322)" fill="none" stroke="#263238" stroke-linecap="round" stroke-linejoin="round" stroke-width="1"/>
        <line id="Línea_185" data-name="Línea 185" x2="4.786" transform="translate(207.018 226.294)" fill="none" stroke="#263238" stroke-linecap="round" stroke-linejoin="round" stroke-width="1"/>
        <path id="Trazado_145958" data-name="Trazado 145958" d="M212.971,251.746a13.16,13.16,0,0,0,7.962-.241,11.1,11.1,0,0,0,4.953-3.734" transform="translate(-4.935 -5.741)" fill="none" stroke="#263238" stroke-linecap="round" stroke-linejoin="round" stroke-width="1"/>
        <path id="Trazado_145959" data-name="Trazado 145959" d="M221.116,225.836c6.283-2.592,9.054.519,9.054.519" transform="translate(-5.123 -5.209)" fill="none" stroke="#263238" stroke-linecap="round" stroke-linejoin="round" stroke-width="1"/>
        <path id="Trazado_145960" data-name="Trazado 145960" d="M204.148,225.586a6.346,6.346,0,0,1,6.717.773" transform="translate(-4.73 -5.212)" fill="none" stroke="#263238" stroke-linecap="round" stroke-linejoin="round" stroke-width="1"/>
        <path id="Trazado_145961" data-name="Trazado 145961" d="M223.653,230.332c.582,0,.994.931.994,2.116s-.486,2.115-1.058,2.115-.984-.973-.984-2.115c.021-1.154.465-2.116,1.047-2.116" transform="translate(-5.158 -5.337)" fill="#263238"/>
        <path id="Trazado_145962" data-name="Trazado 145962" d="M207.686,230.062c.571,0,.984.931.984,2.116s-.486,2.115-1.058,2.115-.984-.973-.984-2.115c.032-1.143.486-2.116,1.058-2.116" transform="translate(-4.788 -5.331)" fill="#263238"/>
        <path id="Trazado_145963" data-name="Trazado 145963" d="M197.045,219.021a16.207,16.207,0,0,0,.975,3.362" transform="translate(-4.566 -5.075)" fill="none" stroke="#bfbfbf" stroke-miterlimit="10" stroke-width="1"/>
        <path id="Trazado_145964" data-name="Trazado 145964" d="M204.527,205.8c-6.174-1.662-8.618,2.049-8.16,7.905" transform="translate(-4.549 -4.759)" fill="none" stroke="#bfbfbf" stroke-miterlimit="10" stroke-width="1"/>
        <path id="Trazado_145965" data-name="Trazado 145965" d="M211.292,271.456l7.525,13.537,18.063-14.256,5.55.781L230.743,292.18a1.592,1.592,0,0,1-2.228.553l-9.991-6.3-7.791,4.762a1.591,1.591,0,0,1-2.412-1.184l-1.935-17.633Z" transform="translate(-4.782 -6.273)" fill="#92e3a9"/>
      </g>
    </g>
    <g id="Grupo_142107" data-name="Grupo 142107" transform="translate(201.603 264.464)">
      <g id="Grupo_142106" data-name="Grupo 142106" clip-path="url(#clip-path-19)">
        <path id="Trazado_145966" data-name="Trazado 145966" d="M210.63,271.357l8.186,13.629,18.377-14.5,5.535.874-11.985,20.817a1.593,1.593,0,0,1-2.229.553l-9.99-6.3-7.791,4.762A1.592,1.592,0,0,1,208.32,290l-1.934-17.633Z" transform="translate(-206.385 -270.731)" fill="#6680af"/>
        <path id="Trazado_145967" data-name="Trazado 145967" d="M210.63,271.357l8.186,13.629,18.377-14.5,5.535.874-11.985,20.817a1.593,1.593,0,0,1-2.229.553l-9.99-6.3-7.791,4.762A1.592,1.592,0,0,1,208.32,290l-1.934-17.633Z" transform="translate(-206.385 -270.731)" fill="none" stroke="#000" stroke-miterlimit="10" stroke-width="1"/>
      </g>
    </g>
    <g id="Grupo_142109" data-name="Grupo 142109">
      <g id="Grupo_142108" data-name="Grupo 142108" clip-path="url(#clip-path)">
        <path id="Trazado_145969" data-name="Trazado 145969" d="M211.292,271.456l7.525,13.537,18.063-14.256,5.55.781L230.743,292.18a1.592,1.592,0,0,1-2.228.553l-9.991-6.3-7.791,4.762a1.591,1.591,0,0,1-2.412-1.184l-1.935-17.633Z" transform="translate(-4.782 -6.273)" fill="none" stroke="#263238" stroke-linecap="round" stroke-linejoin="round" stroke-width="1"/>
        <path id="Trazado_145970" data-name="Trazado 145970" d="M145.822,369.054H96.71a1.924,1.924,0,0,1-1.924-1.924v-2.7a1.924,1.924,0,0,1,1.924-1.924h49.112Z" transform="translate(-2.196 -8.399)" fill="#263238"/>
        <path id="Trazado_145971" data-name="Trazado 145971" d="M145.822,369.054H96.71a1.924,1.924,0,0,1-1.924-1.924v-2.7a1.924,1.924,0,0,1,1.924-1.924h49.112Z" transform="translate(-2.196 -8.399)" fill="none" stroke="#263238" stroke-linecap="round" stroke-linejoin="round" stroke-width="1"/>
        <path id="Trazado_145972" data-name="Trazado 145972" d="M189.3,369.054H147.033v-6.549l42.352,2.793a1.338,1.338,0,0,1,1.25,1.335v1.082a1.338,1.338,0,0,1-1.338,1.338" transform="translate(-3.407 -8.399)" fill="#6680af"/>
        <path id="Trazado_145973" data-name="Trazado 145973" d="M189.3,369.054H147.033v-6.549l42.352,2.793a1.338,1.338,0,0,1,1.25,1.335v1.082A1.338,1.338,0,0,1,189.3,369.054Z" transform="translate(-3.407 -8.399)" fill="none" stroke="#000" stroke-miterlimit="10" stroke-width="1"/>
        <path id="Trazado_145974" data-name="Trazado 145974" d="M231.313,232.559l10.633-3.587-1.262,1.591" transform="translate(-5.36 -5.305)" fill="none" stroke="#263238" stroke-linecap="round" stroke-linejoin="round" stroke-width="1"/>
        <path id="Trazado_145975" data-name="Trazado 145975" d="M300.948,244.211s-12.237-37.367,18.539-39.988,34.409,26.062,37.23,40.444c2.206,11.24,23.228,31.807,6.959,47.154-16.985,16.024-58.343,10.679-60.72-12.107s-.213-27.448-2.008-35.5" transform="translate(-6.917 -4.728)" fill="#263238"/>
        <path id="Trazado_145976" data-name="Trazado 145976" d="M300.948,244.211s-12.237-37.367,18.539-39.988,34.409,26.062,37.23,40.444c2.206,11.24,23.228,31.807,6.959,47.154-16.985,16.024-58.343,10.679-60.72-12.107S302.743,252.265,300.948,244.211Z" transform="translate(-6.917 -4.728)" fill="none" stroke="#263238" stroke-linecap="round" stroke-linejoin="round" stroke-width="1"/>
        <path id="Trazado_145977" data-name="Trazado 145977" d="M337.358,251.254s-1.347,16.573,7.205,30.828c0,0-11.521,3.754-23.535.186a39.354,39.354,0,0,0-.723-13.174l-.409-1.805,8.734-7.555Z" transform="translate(-7.412 -5.822)" fill="#fff"/>
      </g>
    </g>
    <g id="Grupo_142111" data-name="Grupo 142111" transform="translate(312.483 245.433)">
      <g id="Grupo_142110" data-name="Grupo 142110" clip-path="url(#clip-path-21)">
        <path id="Trazado_145978" data-name="Trazado 145978" d="M316.129,263.7c1.587,8.919,3.052,10.862,10.6,9.272,5.6-1.18,10.378-9.583,10.647-15.686a82.52,82.52,0,0,1-.4-8.34l-8.44,10.737Z" transform="translate(-319.808 -251.201)" fill="#263238"/>
      </g>
    </g>
    <g id="Grupo_142113" data-name="Grupo 142113">
      <g id="Grupo_142112" data-name="Grupo 142112" clip-path="url(#clip-path)">
        <path id="Trazado_145980" data-name="Trazado 145980" d="M337.358,251.254s-1.347,16.573,7.205,30.828c0,0-11.521,3.754-23.535.186a39.354,39.354,0,0,0-.723-13.174l-.409-1.805,8.734-7.555Z" transform="translate(-7.412 -5.822)" fill="none" stroke="#263238" stroke-linecap="round" stroke-linejoin="round" stroke-width="1"/>
        <path id="Trazado_145981" data-name="Trazado 145981" d="M249.605,348.254s-17.046-7.836-18-1.343,3.209,16.444,18.818,11.535l32.747,4.317s5.608-11.167-.387-17.253c0,0-28.855,4.489-33.183,2.744" transform="translate(-5.364 -7.978)" fill="#fff"/>
        <path id="Trazado_145982" data-name="Trazado 145982" d="M249.605,348.254s-17.046-7.836-18-1.343,3.209,16.444,18.818,11.535l32.747,4.317s5.608-11.167-.387-17.253C282.788,345.51,253.933,350,249.605,348.254Z" transform="translate(-5.364 -7.978)" fill="none" stroke="#263238" stroke-linecap="round" stroke-linejoin="round" stroke-width="1"/>
        <path id="Trazado_145983" data-name="Trazado 145983" d="M223.058,355.512s-2.7.865-3.1,2.65-1.274,4.321-.235,4.328,2.294-3.555,2.294-3.555l2.627-.683Z" transform="translate(-5.08 -8.237)" fill="#fff"/>
        <path id="Trazado_145984" data-name="Trazado 145984" d="M223.058,355.512s-2.7.865-3.1,2.65-1.274,4.321-.235,4.328,2.294-3.555,2.294-3.555l2.627-.683Z" transform="translate(-5.08 -8.237)" fill="none" stroke="#263238" stroke-linecap="round" stroke-linejoin="round" stroke-width="1"/>
        <rect id="Rectángulo_37332" data-name="Rectángulo 37332" width="17.814" height="25.378" transform="translate(218.11 332.16) rotate(-5.98)" fill="#fff"/>
        <rect id="Rectángulo_37333" data-name="Rectángulo 37333" width="17.814" height="25.378" transform="translate(218.11 332.16) rotate(-5.98)" fill="none" stroke="#263238" stroke-linecap="round" stroke-linejoin="round" stroke-width="1"/>
        <rect id="Rectángulo_37334" data-name="Rectángulo 37334" width="2.661" height="25.378" transform="translate(215.463 332.437) rotate(-5.981)" fill="#92e3a9"/>
        <rect id="Rectángulo_37335" data-name="Rectángulo 37335" width="2.661" height="25.378" transform="translate(215.463 332.437) rotate(-5.981)" fill="none" stroke="#263238" stroke-linecap="round" stroke-linejoin="round" stroke-width="1"/>
        <path id="Trazado_145985" data-name="Trazado 145985" d="M236.464,334.4a3.862,3.862,0,0,0-3.435,4.239c.01.092.037.177.053.267l.9-.094.948-.1a1.989,1.989,0,0,1-.056-.267,2.007,2.007,0,1,1,3.17,1.408A1.736,1.736,0,0,0,239.53,341a3.842,3.842,0,0,0-3.066-6.6" transform="translate(-5.399 -7.748)" fill="#fff"/>
        <path id="Trazado_145986" data-name="Trazado 145986" d="M236.464,334.4a3.862,3.862,0,0,0-3.435,4.239c.01.092.037.177.053.267l.9-.094.948-.1a1.989,1.989,0,0,1-.056-.267,2.007,2.007,0,1,1,3.17,1.408A1.736,1.736,0,0,0,239.53,341a3.842,3.842,0,0,0-3.066-6.6Z" transform="translate(-5.399 -7.748)" fill="none" stroke="#263238" stroke-linecap="round" stroke-linejoin="round" stroke-width="1"/>
        <line id="Línea_186" data-name="Línea 186" y1="0.639" x2="6.097" transform="translate(221.449 336.754)" fill="none" stroke="#263238" stroke-linecap="round" stroke-linejoin="round" stroke-width="1"/>
        <line id="Línea_187" data-name="Línea 187" y1="1.242" x2="11.85" transform="translate(221.741 338.933)" fill="none" stroke="#263238" stroke-linecap="round" stroke-linejoin="round" stroke-width="1"/>
        <line id="Línea_188" data-name="Línea 188" y1="0.62" x2="5.925" transform="translate(222.032 342.335)" fill="none" stroke="#263238" stroke-linecap="round" stroke-linejoin="round" stroke-width="1"/>
        <line id="Línea_189" data-name="Línea 189" y1="1.036" x2="9.894" transform="translate(222.323 344.701)" fill="none" stroke="#263238" stroke-linecap="round" stroke-linejoin="round" stroke-width="1"/>
        <line id="Línea_190" data-name="Línea 190" y1="0.62" x2="5.924" transform="translate(222.615 347.898)" fill="none" stroke="#263238" stroke-linecap="round" stroke-linejoin="round" stroke-width="1"/>
        <line id="Línea_191" data-name="Línea 191" y1="1.362" x2="13.001" transform="translate(222.906 349.938)" fill="none" stroke="#263238" stroke-linecap="round" stroke-linejoin="round" stroke-width="1"/>
        <line id="Línea_192" data-name="Línea 192" y1="0.639" x2="6.097" transform="translate(223.197 353.443)" fill="none" stroke="#263238" stroke-linecap="round" stroke-linejoin="round" stroke-width="1"/>
        <path id="Trazado_145987" data-name="Trazado 145987" d="M233.107,334.751a3.861,3.861,0,0,0-3.435,4.238c.01.094.037.18.054.271l.895-.094v0l.948-.1a1.981,1.981,0,0,1-.056-.267,2.007,2.007,0,1,1,3.17,1.408,1.736,1.736,0,0,0,1.491,1.148,3.842,3.842,0,0,0-3.066-6.6" transform="translate(-5.321 -7.756)" fill="#fff"/>
        <path id="Trazado_145988" data-name="Trazado 145988" d="M233.107,334.751a3.861,3.861,0,0,0-3.435,4.238c.01.094.037.18.054.271l.895-.094v0l.948-.1a1.981,1.981,0,0,1-.056-.267,2.007,2.007,0,1,1,3.17,1.408,1.736,1.736,0,0,0,1.491,1.148,3.842,3.842,0,0,0-3.066-6.6Z" transform="translate(-5.321 -7.756)" fill="none" stroke="#263238" stroke-linecap="round" stroke-linejoin="round" stroke-width="1"/>
        <path id="Trazado_145989" data-name="Trazado 145989" d="M229.751,335.1a3.863,3.863,0,0,0-3.435,4.239c.01.092.037.177.053.267l.9-.094.948-.1a1.983,1.983,0,0,1-.056-.267,2.007,2.007,0,1,1,3.17,1.408,1.736,1.736,0,0,0,1.491,1.148,3.842,3.842,0,0,0-3.066-6.6" transform="translate(-5.243 -7.764)" fill="#fff"/>
        <path id="Trazado_145990" data-name="Trazado 145990" d="M229.751,335.1a3.863,3.863,0,0,0-3.435,4.239c.01.092.037.177.053.267l.9-.094.948-.1a1.983,1.983,0,0,1-.056-.267,2.007,2.007,0,1,1,3.17,1.408,1.736,1.736,0,0,0,1.491,1.148,3.842,3.842,0,0,0-3.066-6.6Z" transform="translate(-5.243 -7.764)" fill="none" stroke="#263238" stroke-linecap="round" stroke-linejoin="round" stroke-width="1"/>
        <path id="Trazado_145991" data-name="Trazado 145991" d="M226.394,335.453a3.862,3.862,0,0,0-3.435,4.238c.01.093.037.178.054.268l.895-.094.948-.1a1.986,1.986,0,0,1-.056-.267,2.007,2.007,0,1,1,3.17,1.408,1.738,1.738,0,0,0,1.491,1.148,3.842,3.842,0,0,0-3.066-6.6" transform="translate(-5.166 -7.772)" fill="#fff"/>
        <path id="Trazado_145992" data-name="Trazado 145992" d="M226.394,335.453a3.862,3.862,0,0,0-3.435,4.238c.01.093.037.178.054.268l.895-.094.948-.1a1.986,1.986,0,0,1-.056-.267,2.007,2.007,0,1,1,3.17,1.408,1.738,1.738,0,0,0,1.491,1.148,3.842,3.842,0,0,0-3.066-6.6Z" transform="translate(-5.166 -7.772)" fill="none" stroke="#263238" stroke-linecap="round" stroke-linejoin="round" stroke-width="1"/>
        <path id="Trazado_145993" data-name="Trazado 145993" d="M221.444,339.851a2.007,2.007,0,1,1,3.17,1.407,1.734,1.734,0,0,0,1.491,1.149,3.863,3.863,0,1,0-5.323,0l-.23-2.193.948-.1a2.016,2.016,0,0,1-.056-.267" transform="translate(-5.088 -7.78)" fill="#fff"/>
        <path id="Trazado_145994" data-name="Trazado 145994" d="M221.444,339.851a2.007,2.007,0,1,1,3.17,1.407,1.734,1.734,0,0,0,1.491,1.149,3.863,3.863,0,1,0-5.323,0l-.23-2.193.948-.1A2.016,2.016,0,0,1,221.444,339.851Z" transform="translate(-5.088 -7.78)" fill="none" stroke="#263238" stroke-linecap="round" stroke-linejoin="round" stroke-width="1"/>
        <path id="Trazado_145995" data-name="Trazado 145995" d="M218.468,347.179a8.746,8.746,0,0,0,.58,1.067,4.678,4.678,0,0,0,.7,3.979s.082,2.783,1.069,3.223,2.557.973,2.529.2-.491-3.122-2.262-3.64c0,0,2.042.406,1.811-.733s-.611-2.768-1.861-3.237l-.675-.3s1.616.3,1.487-.931-.275-2.651-1.2-3a6.3,6.3,0,0,0-.716-.21c-1.371-.323-2.251,1.832-1.459,3.577" transform="translate(-5.055 -7.961)" fill="#fff"/>
        <path id="Trazado_145996" data-name="Trazado 145996" d="M218.468,347.179a8.746,8.746,0,0,0,.58,1.067,4.678,4.678,0,0,0,.7,3.979s.082,2.783,1.069,3.223,2.557.973,2.529.2-.491-3.122-2.262-3.64c0,0,2.042.406,1.811-.733s-.611-2.768-1.861-3.237l-.675-.3s1.616.3,1.487-.931-.275-2.651-1.2-3a6.3,6.3,0,0,0-.716-.21C218.556,343.279,217.677,345.434,218.468,347.179Z" transform="translate(-5.055 -7.961)" fill="none" stroke="#263238" stroke-linecap="round" stroke-linejoin="round" stroke-width="1"/>
        <path id="Trazado_145997" data-name="Trazado 145997" d="M247.813,347.839a18.029,18.029,0,0,0-5.024-6.414c-3.124-2.2-4.281-6.477-5.553-5.437s-.116,5.571,1.852,7.123-.232,5.024,4.627,9.3" transform="translate(-5.484 -7.781)" fill="#fff"/>
        <path id="Trazado_145998" data-name="Trazado 145998" d="M247.813,347.839a18.029,18.029,0,0,0-5.024-6.414c-3.124-2.2-4.281-6.477-5.553-5.437s-.116,5.571,1.852,7.123-.232,5.024,4.627,9.3" transform="translate(-5.484 -7.781)" fill="none" stroke="#263238" stroke-linecap="round" stroke-linejoin="round" stroke-width="1"/>
        <path id="Trazado_145999" data-name="Trazado 145999" d="M363.467,358.923q-.645,3.985-1.377,8.274H295.1c-.107-.9.527-2.706,1.133-5.851-7.463,2.53-20.484-1.4-20.484-1.4,1.622-4.269.5-15.112.5-15.112l7.6-1.612s3.155-33.036,5.558-42.5c2.55-10.042,16.5-21.006,63.416-17.769,0,0,21.648-.41,25.009,13.939,3.136,13.383-13.463,61.413-14.361,62.029" transform="translate(-6.389 -6.543)" fill="#99adf8"/>
      </g>
    </g>
    <g id="Grupo_142121" data-name="Grupo 142121" transform="translate(269.358 275.834)">
      <g id="Grupo_142120" data-name="Grupo 142120" clip-path="url(#clip-path-23)">
        <g id="Grupo_142116" data-name="Grupo 142116" transform="translate(1.996 26.715)" opacity="0.2">
          <g id="Grupo_142115" data-name="Grupo 142115">
            <g id="Grupo_142114" data-name="Grupo 142114" clip-path="url(#clip-path-24)">
              <path id="Trazado_146000" data-name="Trazado 146000" d="M296.306,362.052c-5.187,1.758-13.05.4-17.368-.6,1.123-.86,1.827-2.618,2.09-4.845,3.517-.547,7.033-6.134,9.348-31.532.547-5.959,1.719-9.7,3.224-12.22a35.392,35.392,0,0,0-.176,17.466c.84,3.409,3.478,11.615,3.712,15.014a63.173,63.173,0,0,1-.83,16.714" transform="translate(-277.817 -309.799)"/>
              <path id="Trazado_146001" data-name="Trazado 146001" d="M296.306,362.052c-5.187,1.758-13.05.4-17.368-.6,1.123-.86,1.827-2.618,2.09-4.845,3.517-.547,7.033-6.134,9.348-31.532.547-5.959,1.719-9.7,3.224-12.22a35.392,35.392,0,0,0-.176,17.466c.84,3.409,3.478,11.615,3.712,15.014A63.173,63.173,0,0,1,296.306,362.052Z" transform="translate(-277.817 -309.799)" fill="none" stroke="#000" stroke-miterlimit="10" stroke-width="1"/>
            </g>
          </g>
        </g>
        <g id="Grupo_142119" data-name="Grupo 142119" transform="translate(18.678 18.282)" opacity="0.2">
          <g id="Grupo_142118" data-name="Grupo 142118">
            <g id="Grupo_142117" data-name="Grupo 142117" clip-path="url(#clip-path-25)">
              <path id="Trazado_146002" data-name="Trazado 146002" d="M363.916,359.389q-.63,3.985-1.368,8.264H295.558c1.2-3.673,4.152-21.158-.01-31.786-.166-.43,14.389-6.545,24.137-4.044,41.32,10.6,27.087-23.551,38.888-29.764l-10.179,39.923-5.558,1.768c12.035.742,8.557,18.784,8.557,18.784a17.461,17.461,0,0,0,12.523-3.145" transform="translate(-294.884 -301.115)"/>
              <path id="Trazado_146003" data-name="Trazado 146003" d="M363.916,359.389q-.63,3.985-1.368,8.264H295.558c1.2-3.673,4.152-21.158-.01-31.786-.166-.43,14.389-6.545,24.137-4.044,41.32,10.6,27.087-23.551,38.888-29.764l-10.179,39.923-5.558,1.768c12.035.742,8.557,18.784,8.557,18.784A17.461,17.461,0,0,0,363.916,359.389Z" transform="translate(-294.884 -301.115)" fill="none" stroke="#000" stroke-miterlimit="10" stroke-width="1"/>
            </g>
          </g>
        </g>
      </g>
    </g>
    <g id="Grupo_142123" data-name="Grupo 142123">
      <g id="Grupo_142122" data-name="Grupo 142122" clip-path="url(#clip-path)">
        <path id="Trazado_146005" data-name="Trazado 146005" d="M363.467,358.923q-.645,3.985-1.377,8.274H295.1c-.107-.9.527-2.706,1.133-5.851-7.463,2.53-20.484-1.4-20.484-1.4,1.622-4.269.5-15.112.5-15.112l7.6-1.612s3.155-33.036,5.558-42.5c2.55-10.042,16.5-21.006,63.416-17.769,0,0,21.648-.41,25.009,13.939C380.964,310.277,364.366,358.308,363.467,358.923Z" transform="translate(-6.389 -6.543)" fill="none" stroke="#000" stroke-miterlimit="10" stroke-width="1"/>
        <path id="Trazado_146006" data-name="Trazado 146006" d="M277.346,344.4s2.537,1.357,3.365,7.327-.445,11.108-3.761,11.025-3.89-1.381-3.221-2.608,2.129-2.884,1.024-7.987c-1.386-6.4-4.237-5.818-4.237-5.818s3.806-3.641,6.829-1.94" transform="translate(-6.268 -7.969)" fill="#92e3a9"/>
        <path id="Trazado_146007" data-name="Trazado 146007" d="M277.346,344.4s2.537,1.357,3.365,7.327-.445,11.108-3.761,11.025-3.89-1.381-3.221-2.608,2.129-2.884,1.024-7.987c-1.386-6.4-4.237-5.818-4.237-5.818S274.323,342.7,277.346,344.4Z" transform="translate(-6.268 -7.969)" fill="none" stroke="#263238" stroke-linecap="round" stroke-linejoin="round" stroke-width="1"/>
        <path id="Trazado_146008" data-name="Trazado 146008" d="M280.833,357.332c-.264,2.227-.967,3.985-2.09,4.845a2.729,2.729,0,0,1-1.788.576c-3.321-.078-3.9-1.377-3.224-2.608s2.129-2.882,1.026-7.99c-1.387-6.4-4.24-5.813-4.24-5.813s3.811-3.643,6.829-1.943c0,0,2.54,1.358,3.37,7.326a22.761,22.761,0,0,1,.117,5.607" transform="translate(-6.268 -7.969)" fill="#6680af"/>
        <path id="Trazado_146009" data-name="Trazado 146009" d="M280.833,357.332c-.264,2.227-.967,3.985-2.09,4.845a2.729,2.729,0,0,1-1.788.576c-3.321-.078-3.9-1.377-3.224-2.608s2.129-2.882,1.026-7.99c-1.387-6.4-4.24-5.813-4.24-5.813s3.811-3.643,6.829-1.943c0,0,2.54,1.358,3.37,7.326A22.761,22.761,0,0,1,280.833,357.332Z" transform="translate(-6.268 -7.969)" fill="none" stroke="#000" stroke-miterlimit="10" stroke-width="1"/>
        <path id="Trazado_146010" data-name="Trazado 146010" d="M342.221,270.737s-16.845,5.109-24.5,2.383l-1.588,10.225s7.448,6.492,31.328-1.489Z" transform="translate(-7.325 -6.273)" fill="#6680af"/>
        <path id="Trazado_146011" data-name="Trazado 146011" d="M342.221,270.737s-16.845,5.109-24.5,2.383l-1.588,10.225s7.448,6.492,31.328-1.489Z" transform="translate(-7.325 -6.273)" fill="none" stroke="#000" stroke-miterlimit="10" stroke-width="1"/>
        <path id="Trazado_146012" data-name="Trazado 146012" d="M281.436,341.088c2,6.52,3.793,11.754,2.023,12.3s-3.225-4.793-5.227-11.314-3.792-11.754-2.023-12.3,3.225,4.794,5.227,11.315" transform="translate(-6.383 -7.64)" fill="#92e3a9"/>
        <path id="Trazado_146013" data-name="Trazado 146013" d="M281.436,341.088c2,6.52,3.793,11.754,2.023,12.3s-3.225-4.793-5.227-11.314-3.792-11.754-2.023-12.3S279.434,334.567,281.436,341.088Z" transform="translate(-6.383 -7.64)" fill="none" stroke="#263238" stroke-linecap="round" stroke-linejoin="round" stroke-width="1"/>
        <path id="Trazado_146014" data-name="Trazado 146014" d="M278,341.392l3.206-.985c-.47-1.539-.911-2.995-1.334-4.31l-3.186.979c.388,1.326.84,2.778,1.315,4.316" transform="translate(-6.411 -7.788)" fill="#263238"/>
        <path id="Trazado_146015" data-name="Trazado 146015" d="M277.737,332.9s1.5-3,2.875-.883,1.661,8.56,2.631,8.568" transform="translate(-6.435 -7.675)" fill="none" stroke="#263238" stroke-linecap="round" stroke-linejoin="round" stroke-width="1"/>
        <path id="Trazado_146016" data-name="Trazado 146016" d="M297.954,300.269c-1.221,3.741-2.911,7.776-4.034,12.3a35.392,35.392,0,0,0-.176,17.466c.84,3.409,3.478,11.615,3.712,15.014a63.173,63.173,0,0,1-.83,16.714c-.606,3.145-1.241,4.953-1.133,5.851" transform="translate(-6.783 -6.957)" fill="none" stroke="#263238" stroke-linecap="round" stroke-linejoin="round" stroke-width="1"/>
        <path id="Trazado_146017" data-name="Trazado 146017" d="M339.077,345.844s-27.251,3.723-36.439,3.933c-1.412.032-5.629-.489-5.629-.489l-6.532-4.368s-5.036-.746-7.5-.181l-2.813,3.676s-3.511,1.132-1.505,3.792a3.4,3.4,0,0,0,.925,3.586s.154,2.314,1.7,3.239a3.675,3.675,0,0,0,2.005,2.776c1.7.617,12.339-1.079,15.578-2s34.7,4.01,47.042,3.7c0,0,10.565-12.339-6.825-17.66" transform="translate(-6.442 -7.983)" fill="#fff"/>
        <path id="Trazado_146018" data-name="Trazado 146018" d="M339.077,345.844s-27.251,3.723-36.439,3.933c-1.412.032-5.629-.489-5.629-.489l-6.532-4.368s-5.036-.746-7.5-.181l-2.813,3.676s-3.511,1.132-1.505,3.792a3.4,3.4,0,0,0,.925,3.586s.154,2.314,1.7,3.239a3.675,3.675,0,0,0,2.005,2.776c1.7.617,12.339-1.079,15.578-2s34.7,4.01,47.042,3.7C345.9,363.5,356.468,351.165,339.077,345.844Z" transform="translate(-6.442 -7.983)" fill="none" stroke="#263238" stroke-linecap="round" stroke-linejoin="round" stroke-width="1"/>
        <path id="Trazado_146019" data-name="Trazado 146019" d="M340.061,239.791s-7.194,2.807-11.451-4.948c-1.845-3.361-5.58-10.372-5.58-10.372-1.063,2.748.241,6.933.241,6.933-2.434-1.069-7.147-1.321-7.147-1.321-1.672-2.8-2.159-9.142-2.159-9.142-2.315,3.867-1.646,9.414-1.646,9.414a18.593,18.593,0,0,0-10.253,4.342c.613,2.492.835,6.377.63,14.449-.268,10.548,4.8,13.435,9.737,17.378s18.475,5.985,23.143-14.63c0,0,9.789-3.64,5-11.289-.161-.259-.335-.531-.515-.814" transform="translate(-6.999 -5.119)" fill="#fff"/>
        <path id="Trazado_146020" data-name="Trazado 146020" d="M340.061,239.791s-7.194,2.807-11.451-4.948c-1.845-3.361-5.58-10.372-5.58-10.372-1.063,2.748.241,6.933.241,6.933-2.434-1.069-7.147-1.321-7.147-1.321-1.672-2.8-2.159-9.142-2.159-9.142-2.315,3.867-1.646,9.414-1.646,9.414a18.593,18.593,0,0,0-10.253,4.342c.613,2.492.835,6.377.63,14.449-.268,10.548,4.8,13.435,9.737,17.378s18.475,5.985,23.143-14.63c0,0,9.789-3.64,5-11.289C340.414,240.346,340.241,240.073,340.061,239.791Z" transform="translate(-6.999 -5.119)" fill="none" stroke="#263238" stroke-linecap="round" stroke-linejoin="round" stroke-width="1"/>
        <path id="Trazado_146021" data-name="Trazado 146021" d="M332.762,227.287a23.822,23.822,0,0,0,15.3,12.953" transform="translate(-7.71 -5.266)" fill="none" stroke="#bfbfbf" stroke-miterlimit="10" stroke-width="1"/>
        <path id="Trazado_146022" data-name="Trazado 146022" d="M330.131,219.291a25.362,25.362,0,0,0,.942,3.775" transform="translate(-7.649 -5.081)" fill="none" stroke="#bfbfbf" stroke-miterlimit="10" stroke-width="1"/>
        <path id="Trazado_146023" data-name="Trazado 146023" d="M335.126,219.772s5.546,10.589,14.221,10.841" transform="translate(-7.765 -5.092)" fill="none" stroke="#bfbfbf" stroke-miterlimit="10" stroke-width="1"/>
        <path id="Trazado_146024" data-name="Trazado 146024" d="M352.541,247.342s14.111,22.853,14.111,36.153" transform="translate(-8.169 -5.731)" fill="none" stroke="#bfbfbf" stroke-miterlimit="10" stroke-width="1"/>
        <path id="Trazado_146025" data-name="Trazado 146025" d="M348.716,253.579s3.493,12.749,9.1,19.144" transform="translate(-8.08 -5.876)" fill="none" stroke="#bfbfbf" stroke-miterlimit="10" stroke-width="1"/>
        <path id="Trazado_146026" data-name="Trazado 146026" d="M303.287,219.651a38.526,38.526,0,0,0-.833,5.715" transform="translate(-7.008 -5.089)" fill="none" stroke="#bfbfbf" stroke-miterlimit="10" stroke-width="1"/>
        <path id="Trazado_146027" data-name="Trazado 146027" d="M314.876,207.391s-6.567,1.234-10.86,8.977" transform="translate(-7.044 -4.805)" fill="none" stroke="#bfbfbf" stroke-miterlimit="10" stroke-width="1"/>
        <path id="Trazado_146028" data-name="Trazado 146028" d="M306.621,267.984s-.216,10.253,5.015,16.011" transform="translate(-7.105 -6.209)" fill="none" stroke="#bfbfbf" stroke-miterlimit="10" stroke-width="1"/>
        <path id="Trazado_146029" data-name="Trazado 146029" d="M316.129,235.839c7.116-1.395,10.241,2.231,10.241,2.231" transform="translate(-7.325 -5.457)" fill="none" stroke="#263238" stroke-linecap="round" stroke-linejoin="round" stroke-width="1"/>
        <path id="Trazado_146030" data-name="Trazado 146030" d="M303.984,238.865a8.09,8.09,0,0,1,6.029-2.4" transform="translate(-7.043 -5.479)" fill="none" stroke="#263238" stroke-linecap="round" stroke-linejoin="round" stroke-width="1"/>
        <path id="Trazado_146031" data-name="Trazado 146031" d="M320.734,260.186c2.194-1.256,3.418-4.513,3.418-4.513l-.458.246a26.5,26.5,0,0,1-9.211,2.945A5.288,5.288,0,0,0,320.734,260.186Z" transform="translate(-7.287 -5.924)" fill="none" stroke="#263238" stroke-linecap="round" stroke-linejoin="round" stroke-width="1"/>
        <path id="Trazado_146032" data-name="Trazado 146032" d="M311.865,253.05c-.927-.114-3.577-1.37-3.8-3.162-.066-.537.323-1.029.9-1.454a8.217,8.217,0,0,0,3.469-7.171c-.014-.2-.022-.318-.022-.318" transform="translate(-7.138 -5.583)" fill="none" stroke="#263238" stroke-linecap="round" stroke-linejoin="round" stroke-width="1"/>
        <path id="Trazado_146033" data-name="Trazado 146033" d="M321.256,238.774c.675-.083,1.368,1.038,1.546,2.493s-.223,2.7-.9,2.785-1.367-1.031-1.545-2.485.221-2.71.9-2.793" transform="translate(-7.422 -5.532)" fill="#263238"/>
        <path id="Trazado_146034" data-name="Trazado 146034" d="M309.2,243.027c.176,1.428-.218,2.653-.879,2.734s-1.339-1.011-1.515-2.44.218-2.652.879-2.733,1.339,1.011,1.515,2.439" transform="translate(-7.108 -5.574)" fill="#263238"/>
        <path id="Trazado_146035" data-name="Trazado 146035" d="M331.632,239.939s-.914-2.582.126-3.946" transform="translate(-7.675 -5.468)" fill="none" stroke="#263238" stroke-linecap="round" stroke-linejoin="round" stroke-width="1"/>
        <path id="Trazado_146036" data-name="Trazado 146036" d="M365.041,359.394a17.453,17.453,0,0,1-12.522,3.141s3.471-18.04-8.56-18.782l5.553-1.771,10.18-39.922" transform="translate(-7.97 -6.999)" fill="none" stroke="#263238" stroke-linecap="round" stroke-linejoin="round" stroke-width="1"/>
        <path id="Trazado_146037" data-name="Trazado 146037" d="M352.722,342.929s6.442,1.7,8.254,7.246" transform="translate(-8.173 -7.946)" fill="none" stroke="#263238" stroke-linecap="round" stroke-linejoin="round" stroke-width="1"/>
        <path id="Trazado_146038" data-name="Trazado 146038" d="M325.792,277.063a43.608,43.608,0,0,0,17.775-3.886" transform="translate(-7.549 -6.33)" fill="none" stroke="#263238" stroke-linecap="round" stroke-linejoin="round" stroke-width="1"/>
        <path id="Trazado_146039" data-name="Trazado 146039" d="M317.288,276.179a26.952,26.952,0,0,0,4.2.741" transform="translate(-7.352 -6.399)" fill="none" stroke="#263238" stroke-linecap="round" stroke-linejoin="round" stroke-width="1"/>
        <path id="Trazado_146040" data-name="Trazado 146040" d="M345.4,287.847q2.607-.927,5.474-2.155" transform="translate(-8.003 -6.62)" fill="none" stroke="#263238" stroke-linecap="round" stroke-linejoin="round" stroke-width="1"/>
        <path id="Trazado_146041" data-name="Trazado 146041" d="M314.522,288.05s6.551,6.219,23.889,1.78" transform="translate(-7.288 -6.674)" fill="none" stroke="#263238" stroke-linecap="round" stroke-linejoin="round" stroke-width="1"/>
        <path id="Trazado_146042" data-name="Trazado 146042" d="M320.317,319.7s1.03,15.02,12.157,20.612" transform="translate(-7.422 -7.408)" fill="none" stroke="#263238" stroke-linecap="round" stroke-linejoin="round" stroke-width="1"/>
        <path id="Trazado_146043" data-name="Trazado 146043" d="M340.244,346.049s2.2-4.828,8.733-2.445c0,0,6.188,2.129,8.038,8.491s-.462,12.031-4.974,12.262-5.335-.116-4.576-1.5a11.343,11.343,0,0,0,.354-9.878c-2.807-6.715-7.574-6.926-7.574-6.926" transform="translate(-7.884 -7.946)" fill="#6680af"/>
      </g>
    </g>
    <g id="Grupo_142128" data-name="Grupo 142128" transform="translate(332.36 334.997)">
      <g id="Grupo_142127" data-name="Grupo 142127" clip-path="url(#clip-path-27)">
        <g id="Grupo_142126" data-name="Grupo 142126" transform="translate(0 0.001)" opacity="0.2">
          <g id="Grupo_142125" data-name="Grupo 142125">
            <g id="Grupo_142124" data-name="Grupo 142124" clip-path="url(#clip-path-28)">
              <path id="Trazado_146044" data-name="Trazado 146044" d="M340.244,346.049s2.2-4.828,8.733-2.445c0,0,6.188,2.129,8.038,8.491s-.462,12.031-4.974,12.262-5.335-.116-4.576-1.5a11.343,11.343,0,0,0,.354-9.878c-2.807-6.715-7.574-6.926-7.574-6.926" transform="translate(-340.244 -342.944)"/>
            </g>
          </g>
        </g>
      </g>
    </g>
    <g id="Grupo_142136" data-name="Grupo 142136">
      <g id="Grupo_142135" data-name="Grupo 142135" clip-path="url(#clip-path)">
        <path id="Trazado_146046" data-name="Trazado 146046" d="M340.244,346.049s2.2-4.828,8.733-2.445c0,0,6.188,2.129,8.038,8.491s-.462,12.031-4.974,12.262-5.335-.116-4.576-1.5a11.343,11.343,0,0,0,.354-9.878C345.011,346.26,340.244,346.049,340.244,346.049Z" transform="translate(-7.884 -7.946)" fill="none" stroke="#000" stroke-miterlimit="10" stroke-width="1"/>
        <path id="Trazado_146047" data-name="Trazado 146047" d="M33.069,325.317S29.709,296.585,0,308.163c0,0,25.276-.188,29.552,21.459l3.932-.42Z" transform="translate(0 -7.077)" fill="#92e3a9"/>
        <g id="Grupo_142131" data-name="Grupo 142131" transform="translate(0 298.336)" opacity="0.1">
          <g id="Grupo_142130" data-name="Grupo 142130">
            <g id="Grupo_142129" data-name="Grupo 142129" clip-path="url(#clip-path-30)">
              <path id="Trazado_146048" data-name="Trazado 146048" d="M33.069,325.317S29.709,296.585,0,308.163c0,0,25.276-.188,29.552,21.459l3.932-.42Z" transform="translate(0 -305.413)"/>
            </g>
          </g>
        </g>
        <path id="Trazado_146049" data-name="Trazado 146049" d="M34.071,324s-2.57-30.636-8.164-54.446c0,0,17.095,18.083,13.187,52.13Z" transform="translate(-0.6 -6.246)" fill="#92e3a9"/>
        <g id="Grupo_142134" data-name="Grupo 142134" transform="translate(25.307 263.31)" opacity="0.1">
          <g id="Grupo_142133" data-name="Grupo 142133">
            <g id="Grupo_142132" data-name="Grupo 142132" clip-path="url(#clip-path-31)">
              <path id="Trazado_146050" data-name="Trazado 146050" d="M34.071,324s-2.57-30.636-8.164-54.446c0,0,17.095,18.083,13.187,52.13Z" transform="translate(-25.908 -269.556)"/>
            </g>
          </g>
        </g>
        <path id="Trazado_146051" data-name="Trazado 146051" d="M32.063,344.71s-4.927-42.2-21.328-56.689c0,0,29.331,7.295,24.986,52.113Z" transform="translate(-0.249 -6.674)" fill="#92e3a9"/>
        <path id="Trazado_146052" data-name="Trazado 146052" d="M37.763,342.929s7.185-41.874,24.339-55.463c0,0-29.68,5.711-27.746,50.7Z" transform="translate(-0.794 -6.661)" fill="#92e3a9"/>
        <path id="Trazado_146053" data-name="Trazado 146053" d="M52.433,330.223H17.756v6.024h1.155v21.262a10.8,10.8,0,0,0,10.8,10.8H40.483a10.8,10.8,0,0,0,10.8-10.8V336.247h1.155Z" transform="translate(-0.411 -7.651)" fill="#fff"/>
        <path id="Trazado_146054" data-name="Trazado 146054" d="M52.433,330.223H17.756v6.024h1.155v21.262a10.8,10.8,0,0,0,10.8,10.8H40.483a10.8,10.8,0,0,0,10.8-10.8V336.247h1.155Z" transform="translate(-0.411 -7.651)" fill="none" stroke="#263238" stroke-miterlimit="10" stroke-width="1"/>
        <line id="Línea_193" data-name="Línea 193" x2="4.618" transform="translate(41.274 328.31)" fill="#fff"/>
        <line id="Línea_194" data-name="Línea 194" x2="4.618" transform="translate(41.274 328.31)" fill="none" stroke="#263238" stroke-miterlimit="10" stroke-width="1"/>
        <line id="Línea_195" data-name="Línea 195" x2="13.381" transform="translate(23.199 328.31)" fill="#fff"/>
        <line id="Línea_196" data-name="Línea 196" x2="13.381" transform="translate(23.199 328.31)" fill="none" stroke="#263238" stroke-miterlimit="10" stroke-width="1"/>
        <path id="Trazado_146055" data-name="Trazado 146055" d="M172.861,340.233l-8.888-72.386a4.843,4.843,0,0,0-4.674-4.163H149.1L160.875,344.4h8.335a3.605,3.605,0,0,0,3.651-4.163" transform="translate(-3.455 -6.11)" fill="#6680af"/>
        <path id="Trazado_146056" data-name="Trazado 146056" d="M172.861,340.233l-8.888-72.386a4.843,4.843,0,0,0-4.674-4.163H149.1L160.875,344.4h8.335A3.605,3.605,0,0,0,172.861,340.233Z" transform="translate(-3.455 -6.11)" fill="none" stroke="#000" stroke-miterlimit="10" stroke-width="1"/>
        <path id="Trazado_146057" data-name="Trazado 146057" d="M164.678,344.4H62.248a4.843,4.843,0,0,1-4.673-4.163l-8.888-72.386a3.6,3.6,0,0,1,3.651-4.162h102.43a4.842,4.842,0,0,1,4.673,4.162l8.888,72.386a3.6,3.6,0,0,1-3.651,4.163" transform="translate(-1.127 -6.11)" fill="#263238"/>
      </g>
    </g>
    <g id="Grupo_142141" data-name="Grupo 142141" transform="translate(47.526 257.574)">
      <g id="Grupo_142140" data-name="Grupo 142140" clip-path="url(#clip-path-32)">
        <g id="Grupo_142139" data-name="Grupo 142139" transform="translate(0.001 0)" opacity="0.1">
          <g id="Grupo_142138" data-name="Grupo 142138">
            <g id="Grupo_142137" data-name="Grupo 142137" clip-path="url(#clip-path-33)">
              <path id="Trazado_146058" data-name="Trazado 146058" d="M164.678,344.4H62.248a4.843,4.843,0,0,1-4.673-4.163l-8.888-72.386a3.6,3.6,0,0,1,3.651-4.162h102.43a4.842,4.842,0,0,1,4.673,4.162l8.888,72.386a3.6,3.6,0,0,1-3.651,4.163" transform="translate(-48.654 -263.684)" fill="#fff"/>
            </g>
          </g>
        </g>
      </g>
    </g>
    <g id="Grupo_142143" data-name="Grupo 142143">
      <g id="Grupo_142142" data-name="Grupo 142142" clip-path="url(#clip-path)">
        <path id="Trazado_146060" data-name="Trazado 146060" d="M164.678,344.4H62.248a4.843,4.843,0,0,1-4.673-4.163l-8.888-72.386a3.6,3.6,0,0,1,3.651-4.162h102.43a4.842,4.842,0,0,1,4.673,4.162l8.888,72.386A3.6,3.6,0,0,1,164.678,344.4Z" transform="translate(-1.127 -6.11)" fill="none" stroke="#263238" stroke-linecap="round" stroke-linejoin="round" stroke-width="1"/>
        <path id="Trazado_146061" data-name="Trazado 146061" d="M117.823,362l4.09-46.622A1.917,1.917,0,0,0,120,313.29H94.144a1.916,1.916,0,0,0-1.909,1.749L87.78,365.829a1.916,1.916,0,0,0,1.909,2.085h51.224a1.917,1.917,0,0,0,0-3.834h-21.18a1.916,1.916,0,0,1-1.91-2.084" transform="translate(-2.034 -7.259)" fill="#263238"/>
        <path id="Trazado_146062" data-name="Trazado 146062" d="M117.823,362l4.09-46.622A1.917,1.917,0,0,0,120,313.29H94.144a1.916,1.916,0,0,0-1.909,1.749L87.78,365.829a1.916,1.916,0,0,0,1.909,2.085h51.224a1.917,1.917,0,0,0,0-3.834h-21.18A1.916,1.916,0,0,1,117.823,362Z" transform="translate(-2.034 -7.259)" fill="none" stroke="#263238" stroke-linecap="round" stroke-linejoin="round" stroke-width="1"/>
        <path id="Trazado_146063" data-name="Trazado 146063" d="M143.444,366a1.916,1.916,0,0,0-1.917-1.917H120.347A1.916,1.916,0,0,1,118.438,362l4.089-46.621a1.909,1.909,0,1,0-3.8-.335l-4.455,50.789a1.918,1.918,0,0,0,1.91,2.085h25.35A1.916,1.916,0,0,0,143.444,366" transform="translate(-2.647 -7.259)" fill="#6680af"/>
        <path id="Trazado_146064" data-name="Trazado 146064" d="M143.444,366a1.916,1.916,0,0,0-1.917-1.917H120.347A1.916,1.916,0,0,1,118.438,362l4.089-46.621a1.909,1.909,0,1,0-3.8-.335l-4.455,50.789a1.918,1.918,0,0,0,1.91,2.085h25.35A1.916,1.916,0,0,0,143.444,366Z" transform="translate(-2.647 -7.259)" fill="none" stroke="#000" stroke-miterlimit="10" stroke-width="1"/>
        <line id="Línea_197" data-name="Línea 197" x2="366.311" transform="translate(23.354 360.654)" fill="none" stroke="#263238" stroke-linecap="round" stroke-linejoin="round" stroke-width="1"/>
      </g>
    </g>
  </g>
</svg>
