<svg id="Grupo_141375" data-name="Grupo 141375" xmlns="http://www.w3.org/2000/svg" xmlns:xlink="http://www.w3.org/1999/xlink" width="510.184" height="348.308" viewBox="0 0 510.184 348.308">
  <defs>
    <clipPath id="clip-path">
      <rect id="Rectángulo_36487" data-name="Rectángulo 36487" width="510.184" height="348.308" fill="none"/>
    </clipPath>
  </defs>
  <g id="Grupo_141224" data-name="Grupo 141224" clip-path="url(#clip-path)">
    <path id="Trazado_117917" data-name="Trazado 117917" d="M136.35,487.368l4.367,1.562a4.321,4.321,0,0,0,4.989-1.566,44.741,44.741,0,0,1,7.436-8.2,4.322,4.322,0,0,0,1.066-5.123l-1.977-4.2a4.357,4.357,0,0,1,2.065-5.8l8.033-3.8a4.36,4.36,0,0,1,5.8,2.079l1.986,4.194a4.323,4.323,0,0,0,4.639,2.423,44.566,44.566,0,0,1,11.057-.548,4.306,4.306,0,0,0,4.369-2.871l1.565-4.365a4.357,4.357,0,0,1,5.569-2.636l8.367,2.993a4.356,4.356,0,0,1,2.637,5.568l-1.561,4.367a4.322,4.322,0,0,0,1.561,4.992,44.75,44.75,0,0,1,8.2,7.429,4.319,4.319,0,0,0,5.128,1.071l4.193-1.985a4.347,4.347,0,0,1,5.8,2.076l3.805,8.03a4.358,4.358,0,0,1-2.078,5.8l-4.193,1.985a4.313,4.313,0,0,0-2.418,4.64,45.171,45.171,0,0,1,.548,11.058,4.311,4.311,0,0,0,2.864,4.373l4.368,1.559a4.356,4.356,0,0,1,2.636,5.569l-2.991,8.366a4.36,4.36,0,0,1-5.57,2.637l-4.365-1.561a4.328,4.328,0,0,0-5,1.564,44.458,44.458,0,0,1-7.426,8.2,4.324,4.324,0,0,0-1.076,5.128l1.989,4.193a4.356,4.356,0,0,1-2.076,5.8l-8.025,3.8a4.365,4.365,0,0,1-5.808-2.078l-1.979-4.192a4.32,4.32,0,0,0-4.647-2.42,44.622,44.622,0,0,1-11.05.545,4.32,4.32,0,0,0-4.379,2.869l-1.561,4.365a4.351,4.351,0,0,1-5.568,2.637l-8.369-2.987a4.372,4.372,0,0,1-2.635-5.576l1.566-4.364a4.328,4.328,0,0,0-1.569-5,44.77,44.77,0,0,1-8.2-7.425,4.32,4.32,0,0,0-5.124-1.071l-4.192,1.986a4.363,4.363,0,0,1-5.808-2.074l-3.8-8.034a4.353,4.353,0,0,1,2.076-5.8l4.2-1.985a4.324,4.324,0,0,0,2.423-4.639,44.094,44.094,0,0,1-.549-11.055A4.311,4.311,0,0,0,134.8,505.5l-4.371-1.566a4.352,4.352,0,0,1-2.636-5.568L130.782,490a4.348,4.348,0,0,1,5.567-2.631m22.366,21.674a24.126,24.126,0,1,0,35.615-16.851,24.1,24.1,0,0,0-35.615,16.851" transform="translate(-78.99 -283.83)" fill="#6ecbff" fill-rule="evenodd"/>
    <path id="Trazado_117918" data-name="Trazado 117918" d="M245.655,533.185a30.288,30.288,0,1,1-19.047-13.217,30.192,30.192,0,0,1,19.047,13.217m-18.629-15.138a32.254,32.254,0,1,0,20.282,14.072,32.16,32.16,0,0,0-20.282-14.072" transform="translate(-116.391 -320.403)" fill="#fff" fill-rule="evenodd"/>
    <path id="Trazado_117919" data-name="Trazado 117919" d="M212.48,578.55a35.984,35.984,0,0,0,19.242,1.7c.262-.048.522-.1.781-.154l.016,1.185-.584.113a37.144,37.144,0,0,1-19.645-1.669Zm1.421-68.206a36.008,36.008,0,0,0-17.241,12.125l-.85-.8a37.168,37.168,0,0,1,17.748-12.436Zm39.638,11.937a36.263,36.263,0,0,0-7.867-7.359q-.968-.666-1.979-1.269l.6-1q1.04.622,2.038,1.308a37.462,37.462,0,0,1,8.046,7.5Z" transform="translate(-121.279 -315.401)" fill="#fff"/>
    <path id="Trazado_117920" data-name="Trazado 117920" d="M2.849,379.728l3.179-.15a2.964,2.964,0,0,0,2.757-2.3,30.67,30.67,0,0,1,2.575-7.147,2.966,2.966,0,0,0-.662-3.529L8.347,364.46a2.99,2.99,0,0,1-.206-4.222l4.1-4.509a2.993,2.993,0,0,1,4.225-.2l2.355,2.142A2.965,2.965,0,0,0,22.4,358a30.639,30.639,0,0,1,6.873-3.236A2.955,2.955,0,0,0,31.3,351.8l-.148-3.178a2.99,2.99,0,0,1,2.844-3.128l6.091-.287a2.988,2.988,0,0,1,3.127,2.844l.15,3.179a2.966,2.966,0,0,0,2.294,2.76,30.687,30.687,0,0,1,7.144,2.57,2.964,2.964,0,0,0,3.533-.66l2.142-2.355a2.983,2.983,0,0,1,4.221-.2l4.512,4.1a2.991,2.991,0,0,1,.2,4.224l-2.142,2.355a2.961,2.961,0,0,0-.322,3.576,31,31,0,0,1,3.236,6.873,2.959,2.959,0,0,0,2.959,2.027l3.179-.152a2.989,2.989,0,0,1,3.127,2.845l.287,6.089a2.992,2.992,0,0,1-2.846,3.128l-3.177.15a2.967,2.967,0,0,0-2.76,2.3A30.552,30.552,0,0,1,66.378,398a2.967,2.967,0,0,0,.656,3.534l2.358,2.141a2.989,2.989,0,0,1,.2,4.223l-4.1,4.508a3,3,0,0,1-4.228.2l-2.35-2.143a2.965,2.965,0,0,0-3.58-.322,30.608,30.608,0,0,1-6.869,3.232,2.963,2.963,0,0,0-2.029,2.964l.15,3.178a2.986,2.986,0,0,1-2.844,3.128l-6.09.29a3,3,0,0,1-3.128-2.848l-.147-3.178a2.969,2.969,0,0,0-2.3-2.76,30.724,30.724,0,0,1-7.14-2.57,2.966,2.966,0,0,0-3.532.659l-2.141,2.354a2.994,2.994,0,0,1-4.227.2l-4.508-4.106a2.986,2.986,0,0,1-.2-4.223l2.143-2.356a2.968,2.968,0,0,0,.325-3.577,30.24,30.24,0,0,1-3.237-6.87,2.958,2.958,0,0,0-2.96-2.024l-3.182.148a2.987,2.987,0,0,1-3.127-2.844L0,382.853a2.984,2.984,0,0,1,2.844-3.124m19.853,7.91a16.554,16.554,0,1,0,18.2-20,16.534,16.534,0,0,0-18.2,20" transform="translate(0 -213.807)" fill="#6ecbff" fill-rule="evenodd"/>
    <path id="Trazado_117921" data-name="Trazado 117921" d="M84.232,399.155a21.1,21.1,0,1,1-13.271-9.209,21.038,21.038,0,0,1,13.271,9.209m-12.98-10.547a22.472,22.472,0,1,0,14.131,9.8,22.41,22.41,0,0,0-14.131-9.8" transform="translate(-27.255 -240.372)" fill="#fff" fill-rule="evenodd"/>
    <path id="Trazado_117922" data-name="Trazado 117922" d="M61.118,430.761a25.067,25.067,0,0,0,13.406,1.182c.182-.033.363-.07.544-.107l.011.826-.407.078a25.878,25.878,0,0,1-13.687-1.163Zm.99-47.522a25.091,25.091,0,0,0-12.012,8.449l-.592-.559a25.9,25.9,0,0,1,12.365-8.665Zm27.618,8.318a25.247,25.247,0,0,0-5.481-5.127q-.674-.465-1.379-.885l.419-.694q.725.433,1.42.911a26.073,26.073,0,0,1,5.606,5.228Z" transform="translate(-30.661 -236.886)" fill="#fff"/>
    <path id="Trazado_117923" data-name="Trazado 117923" d="M202.121,905.166h430.2a1.886,1.886,0,1,1,0,3.772h-430.2a1.886,1.886,0,1,1,0-3.772" transform="translate(-124.019 -560.63)" fill="#092978" fill-rule="evenodd"/>
    <path id="Trazado_117924" data-name="Trazado 117924" d="M409.649,274.016h267.9a17.511,17.511,0,0,1,17.46,17.46V447.624H392.189V291.476a17.511,17.511,0,0,1,17.46-17.46" transform="translate(-242.909 -169.716)" fill="#003398" fill-rule="evenodd"/>
    <path id="Trazado_117925" data-name="Trazado 117925" d="M425.135,307.825H702.493a.306.306,0,0,1,.306.3v176.2a.306.306,0,0,1-.306.305H425.135a.306.306,0,0,1-.305-.305V308.13a.305.305,0,0,1,.305-.3" transform="translate(-263.126 -190.657)" fill="#e8f5fc" fill-rule="evenodd"/>
    <path id="Trazado_117926" data-name="Trazado 117926" d="M683.671,795.749c-1.23,22.235-4.484,27.858-27.031,40.529h99.953c-22.548-12.67-25.8-18.294-27.031-40.529l-22.945-1.807Z" transform="translate(-406.701 -491.741)" fill="#98c0e6" fill-rule="evenodd"/>
    <path id="Trazado_117927" data-name="Trazado 117927" d="M695.005,730.12v11.475a17.512,17.512,0,0,1-17.46,17.46h-267.9a17.512,17.512,0,0,1-17.46-17.46V730.12Z" transform="translate(-242.909 -452.212)" fill="#e6f2f9" fill-rule="evenodd"/>
    <rect id="Rectángulo_36482" data-name="Rectángulo 36482" width="302.816" height="18.343" transform="translate(149.28 266.595)" fill="#003398"/>
    <path id="Trazado_117928" data-name="Trazado 117928" d="M750.968,761.11a3.109,3.109,0,1,1-3.109,3.11,3.11,3.11,0,0,1,3.109-3.11" transform="translate(-463.199 -471.406)" fill="#e50013" fill-rule="evenodd"/>
    <path id="Trazado_117929" data-name="Trazado 117929" d="M781.212,761.11a3.109,3.109,0,1,1-3.109,3.11,3.11,3.11,0,0,1,3.109-3.11" transform="translate(-481.931 -471.406)" fill="#3dabf9" fill-rule="evenodd"/>
    <path id="Trazado_117930" data-name="Trazado 117930" d="M811.455,761.11a3.109,3.109,0,1,1-3.11,3.11,3.109,3.109,0,0,1,3.11-3.11" transform="translate(-500.662 -471.406)" fill="#3dabf9" fill-rule="evenodd"/>
    <rect id="Rectángulo_36483" data-name="Rectángulo 36483" width="79.673" height="123.146" transform="translate(170.324 135.192)" fill="#1a47b6"/>
    <path id="Trazado_117931" data-name="Trazado 117931" d="M459.518,616.421h50.631a2.061,2.061,0,1,1,0,4.121H459.518a2.061,2.061,0,1,1,0-4.121" transform="translate(-283.334 -381.791)" fill="#0094ff" fill-rule="evenodd"/>
    <path id="Trazado_117932" data-name="Trazado 117932" d="M459.519,371.5h18.838a2.061,2.061,0,1,1,0,4.122H459.519a2.061,2.061,0,0,1,0-4.122" transform="translate(-283.334 -230.098)" fill="#0094ff" fill-rule="evenodd"/>
    <path id="Trazado_117933" data-name="Trazado 117933" d="M459.519,402.094h62.925a2.061,2.061,0,0,1,0,4.122H459.519a2.061,2.061,0,0,1,0-4.122" transform="translate(-283.334 -249.044)" fill="#0094ff" fill-rule="evenodd"/>
    <path id="Trazado_117934" data-name="Trazado 117934" d="M459.519,431.307h62.925a2.061,2.061,0,1,1,0,4.121H459.519a2.061,2.061,0,1,1,0-4.121" transform="translate(-283.334 -267.137)" fill="#0094ff" fill-rule="evenodd"/>
    <path id="Trazado_117935" data-name="Trazado 117935" d="M459.519,460.52h17.137a2.061,2.061,0,1,1,0,4.121H459.519a2.061,2.061,0,0,1,0-4.121" transform="translate(-283.334 -285.231)" fill="#0094ff" fill-rule="evenodd"/>
    <path id="Trazado_117936" data-name="Trazado 117936" d="M523.446,460.52h17.138a2.061,2.061,0,0,1,0,4.121H523.446a2.061,2.061,0,0,1,0-4.121" transform="translate(-322.929 -285.231)" fill="#0094ff" fill-rule="evenodd"/>
    <path id="Trazado_117937" data-name="Trazado 117937" d="M459.519,495.849h23.055a2.061,2.061,0,0,1,0,4.122H459.519a2.061,2.061,0,0,1,0-4.122" transform="translate(-283.334 -307.112)" fill="#0094ff" fill-rule="evenodd"/>
    <path id="Trazado_117938" data-name="Trazado 117938" d="M541.24,495.849H564.3a2.061,2.061,0,0,1,0,4.122H541.24a2.061,2.061,0,0,1,0-4.122" transform="translate(-333.95 -307.112)" fill="#0094ff" fill-rule="evenodd"/>
    <path id="Trazado_117939" data-name="Trazado 117939" d="M459.519,522.315h27.874a2.061,2.061,0,1,1,0,4.122H459.519a2.061,2.061,0,0,1,0-4.122" transform="translate(-283.334 -323.505)" fill="#0094ff" fill-rule="evenodd"/>
    <path id="Trazado_117940" data-name="Trazado 117940" d="M555.731,522.315H583.6a2.061,2.061,0,1,1,0,4.122H555.731a2.061,2.061,0,0,1,0-4.122" transform="translate(-342.925 -323.505)" fill="#0094ff" fill-rule="evenodd"/>
    <path id="Trazado_117941" data-name="Trazado 117941" d="M459.519,552.259h18.838a2.061,2.061,0,1,1,0,4.122H459.519a2.061,2.061,0,0,1,0-4.122" transform="translate(-283.334 -342.051)" fill="#0094ff" fill-rule="evenodd"/>
    <path id="Trazado_117942" data-name="Trazado 117942" d="M459.519,586.862h27.874a2.061,2.061,0,1,1,0,4.121H459.519a2.061,2.061,0,1,1,0-4.121" transform="translate(-283.334 -363.483)" fill="#0094ff" fill-rule="evenodd"/>
    <path id="Trazado_117943" data-name="Trazado 117943" d="M555.731,586.862H583.6a2.061,2.061,0,1,1,0,4.121H555.731a2.061,2.061,0,1,1,0-4.121" transform="translate(-342.925 -363.483)" fill="#0094ff" fill-rule="evenodd"/>
    <path id="Trazado_117944" data-name="Trazado 117944" d="M728.486,329H505.964a2.041,2.041,0,0,0-1.43.583,1.939,1.939,0,0,0,0,2.8,2.04,2.04,0,0,0,1.43.583H728.486a2.042,2.042,0,0,0,1.43-.583,1.941,1.941,0,0,0,0-2.8,2.044,2.044,0,0,0-1.43-.583m-222.522-.742H728.486a2.812,2.812,0,0,1,1.967.8,2.673,2.673,0,0,1,0,3.848,2.811,2.811,0,0,1-1.967.8H505.964a2.811,2.811,0,0,1-1.967-.8,2.674,2.674,0,0,1,0-3.848,2.813,2.813,0,0,1,1.967-.8" transform="translate(-311.653 -203.312)" fill="#0094ff"/>
    <rect id="Rectángulo_36484" data-name="Rectángulo 36484" width="6.157" height="5.83" transform="translate(179.801 124.755)" fill="#0094ff"/>
    <rect id="Rectángulo_36485" data-name="Rectángulo 36485" width="5.985" height="5.83" transform="translate(170.324 124.755)" fill="#0094ff"/>
    <rect id="Rectángulo_36486" data-name="Rectángulo 36486" width="47.494" height="6.324" transform="translate(275.977 306.842)" fill="#5997d1"/>
    <path id="Trazado_117945" data-name="Trazado 117945" d="M605.667,142.239c-9.849,0-17.833,7.812-17.833,16.031s5.86,13.939,13.731,15.6H623.5v-15.6c0-8.854-7.984-16.031-17.833-16.031" transform="translate(-364.085 -88.098)" fill="#000446" fill-rule="evenodd"/>
    <path id="Trazado_117946" data-name="Trazado 117946" d="M634.206,142.24h0Zm18.015,40.02h-.062V354.693H822.936V158.27c0-8.854-7.984-16.031-17.833-16.031H634.388c9.849,0,17.833,7.177,17.833,16.031Z" transform="translate(-392.806 -88.098)" fill="#1142be" fill-rule="evenodd"/>
    <path id="Trazado_117947" data-name="Trazado 117947" d="M213.711,253.078c5.121,6.4,10.433,15.055,12.362,21.3a1.994,1.994,0,0,0,1.081,1.193l16.722-.447a2.345,2.345,0,0,0,1.452-1.534c1.518-6.042,13.221-24.887,13.069-24.831a26.618,26.618,0,0,0,3.375-13.729,27.216,27.216,0,0,0-54.41,1.454,26.6,26.6,0,0,0,4.067,13.473c.808,1.052,1.39,2.069,2.281,3.117" transform="translate(-128.427 -129.336)" fill="#fca700" fill-rule="evenodd"/>
    <path id="Trazado_117948" data-name="Trazado 117948" d="M256.927,307.993c-.489-4.085-3.369-4.093-3.661-1.154a4.612,4.612,0,0,0,.267,1.935c.24.7,1.589,1.175,3.453,1.451Zm10.66-.285c.27-4.107,3.145-4.266,3.594-1.349a4.624,4.624,0,0,1-.164,1.948c-.2.707-1.524,1.257-3.371,1.634Zm-4.869,4.954-.332.007-.332.01v-.006a30.264,30.264,0,0,1-3.147-.14l.018.669.537,20.113-1.857.05-.537-20.114-.026-.973c-2.661-.483-4.711-1.4-5.19-2.8a6.824,6.824,0,0,1-.378-2.874,5.119,5.119,0,0,1,.838-2.38,4.332,4.332,0,0,1,1.645-1.453c2.87-.769,4.93,2.243,4.826,5.135l.067,2.516c1.1.08,2.285.106,3.478.084,1.193-.041,2.376-.132,3.469-.27l-.067-2.516c-.258-2.881,1.637-6,4.545-5.386a4.34,4.34,0,0,1,1.72,1.363,5.121,5.121,0,0,1,.964,2.332,6.827,6.827,0,0,1-.223,2.889c-.4,1.417-2.4,2.446-5.034,3.069l.026.974.537,20.113-1.857.049-.537-20.113-.018-.67a30.145,30.145,0,0,1-3.135.309Z" transform="translate(-155.738 -187.21)" fill="#fff" fill-rule="evenodd"/>
    <path id="Trazado_117949" data-name="Trazado 117949" d="M258.354,383.416l13.075-.349a3.356,3.356,0,0,1,3.435,3.256h0a3.382,3.382,0,0,1-3.256,3.435l-.486.013a.392.392,0,0,0,.02.759c1.137-.03,1.751.885,1.757,2.021h0a2.089,2.089,0,0,1-2.011,2.122l-1.131.03a.392.392,0,0,0,.019.759,2.3,2.3,0,0,1,1.29,1.922h0a1.984,1.984,0,0,1-1.925,2.031l-7.63.2a1.984,1.984,0,0,1-2.031-1.925h0a1.985,1.985,0,0,1,1.658-2.006.4.4,0,0,0-.033-.754l-1.586.042a2.073,2.073,0,0,1-2.122-2.011h0a2.072,2.072,0,0,1,2.012-2.121.4.4,0,0,0-.021-.76l-.856.022a3.356,3.356,0,0,1-3.436-3.256h0a3.356,3.356,0,0,1,3.257-3.435" transform="translate(-157.998 -237.258)" fill="#3882c8" fill-rule="evenodd"/>
    <path id="Trazado_117950" data-name="Trazado 117950" d="M292.142,224.722a2.657,2.657,0,0,0-2.076,4.891,20.477,20.477,0,0,1,8.445,7.126,22.033,22.033,0,0,1,4.05,10.661,2.66,2.66,0,0,0,5.3-.415,27.445,27.445,0,0,0-5.007-13.31,25.827,25.827,0,0,0-10.715-8.953" transform="translate(-178.654 -139.054)" fill="#ffcf74"/>
    <path id="Trazado_117951" data-name="Trazado 117951" d="M227.646,168.889h0a1.531,1.531,0,0,1,.558,2.085l-3.334,5.774a1.53,1.53,0,0,1-2.085.558h0a1.53,1.53,0,0,1-.558-2.084l3.334-5.775a1.532,1.532,0,0,1,2.085-.558m-45.426,0h0a1.531,1.531,0,0,1,2.084.558l3.334,5.775a1.526,1.526,0,0,1-2.644,1.526l-3.334-5.774a1.531,1.531,0,0,1,.559-2.085m-16.627,16.627h0a1.531,1.531,0,0,1,2.085-.558l5.774,3.333a1.527,1.527,0,0,1-1.526,2.644l-5.775-3.334a1.531,1.531,0,0,1-.558-2.085m78.68,0h0a1.53,1.53,0,0,1-.558,2.084l-5.775,3.334a1.53,1.53,0,0,1-2.084-.559h0a1.532,1.532,0,0,1,.559-2.085l5.775-3.333a1.531,1.531,0,0,1,2.084.558m6.086,22.714h0a1.531,1.531,0,0,1-1.526,1.526h-6.668a1.527,1.527,0,0,1,0-3.053h6.668a1.532,1.532,0,0,1,1.526,1.527m-81.133,0h0a1.531,1.531,0,0,1-1.526,1.526h-6.668a1.527,1.527,0,0,1,0-3.053H167.7a1.531,1.531,0,0,1,1.526,1.527M204.933,162.8h0a1.53,1.53,0,0,1,1.526,1.526V171a1.526,1.526,0,0,1-3.052,0V164.33a1.53,1.53,0,0,1,1.526-1.526" transform="translate(-98.793 -100.835)" fill="#fca700" fill-rule="evenodd"/>
    <path id="Trazado_117952" data-name="Trazado 117952" d="M1107.769,405.831h39.539a16.218,16.218,0,0,1,16.218,16.216v10.8a16.217,16.217,0,0,1-16.218,16.215h-30.893l-8.646,7.954v-7.954a16.216,16.216,0,0,1-16.217-16.215v-10.8a16.217,16.217,0,0,1,16.217-16.216" transform="translate(-676.071 -251.358)" fill="#fca700" fill-rule="evenodd"/>
    <path id="Trazado_117953" data-name="Trazado 117953" d="M413.029,883.5h-16.1a1.49,1.49,0,0,1-1.477-1.292,1.456,1.456,0,0,1-.009-.313l.654-8.456a9.454,9.454,0,0,1,1.608-.531,1.63,1.63,0,0,0,1.194-1.084c.012-.04.022-.081.033-.122.37-1.628,2.716-2.145,3.149-.555.057.205.105.406.147.6.01.046.021.1.029.141.07.343.12.657.155.932l0,.018a9.08,9.08,0,0,1,.08,1.15c.214.27.419.537.618.8.1.131.2.261.3.388.211.274.417.543.619.8.094.121.186.238.28.353.223.28.444.545.664.791.1.112.2.222.3.327a4.626,4.626,0,0,0,2.657,1.606c1.746.24,4.6.432,5.975,2.994a.912.912,0,0,1,.069.163.993.993,0,0,1-.947,1.292" transform="translate(-244.921 -538.965)" fill="#630"/>
    <path id="Trazado_117954" data-name="Trazado 117954" d="M413.052,903.063h-16.1a1.49,1.49,0,0,1-1.477-1.292H414a.994.994,0,0,1-.947,1.292" transform="translate(-244.944 -558.527)" fill="#000446"/>
    <path id="Trazado_117955" data-name="Trazado 117955" d="M409.723,627.514c2.266,5.03,5.081,9.729,11.569,10.707,5.262.792,24.086-8.236,24.79-12.972s-2.518-5.5-2.518-5.5-18.557,8.544-19.962,8.075c-1.06-.352-6.213-5.223-9.379-8.115-.673-.615-5.475,5.64-4.5,7.8" transform="translate(-253.688 -383.801)" fill="#000446" fill-rule="evenodd"/>
    <path id="Trazado_117956" data-name="Trazado 117956" d="M367.619,613.467h-12.3c-2.976,0-7.265,1.492-9.067,3.6-2.581,3.024-1.575,36.849-.787,41.562l.9.64c0,18.841-2.72,38.788-1.771,56.807l7.441.092,9.483-46.8,4.528-9.916,7.737-.621,2.1-.281L373.84,615.87a9.636,9.636,0,0,0-6.22-2.4" transform="translate(-213.305 -379.961)" fill="#000446" fill-rule="evenodd"/>
    <path id="Trazado_117957" data-name="Trazado 117957" d="M341.6,627.771c1.218-2.535.281-7.5-2.3-8.613a4.414,4.414,0,0,0-3.426-.258c-8.014,3.479-12.213,34.618-10.881,36.79,1.157,1.888,1.056,6.579,5.577,5,2.766-.964,5.941-22.335,11.03-32.921" transform="translate(-201.141 -383.169)" fill="#000446" fill-rule="evenodd"/>
    <path id="Trazado_117958" data-name="Trazado 117958" d="M387.06,613.357c.814,6.11-2.114,17.058-2.82,23.738-.214-.525-5.941-19.028-6.5-23.738H383.3a30.925,30.925,0,0,1,3.759,0" transform="translate(-233.962 -379.851)" fill="#b6e0fc" fill-rule="evenodd"/>
    <path id="Trazado_117959" data-name="Trazado 117959" d="M390.633,584.516c.432,2.869-2.862,5.056-5.1,4.865v1.312l.115.163c.781,2.03-1.418,3.334-2.148,4.032-.666-.511-4.231-1.481-4.311-4.292h.144v-4.931a2.161,2.161,0,0,1-.493-.217,1.723,1.723,0,0,1-.553-1.79c.132-.756,1.183-.245,1.183-.245h0c-.912-2.244-2.079-4.179.271-5.426s7.089-1.154,7.089-1.154l2.842-.293c-.769,1.221.672,6.075.958,7.976" transform="translate(-234.276 -357.09)" fill="#f7cccf" fill-rule="evenodd"/>
    <path id="Trazado_117960" data-name="Trazado 117960" d="M386.357,604.519c1,2.676,1.947,3.67,4.2,3.977v-1.822a7.858,7.858,0,0,1-4.2-2.155" transform="translate(-239.297 -374.419)" fill="#ed8082" fill-rule="evenodd"/>
    <path id="Trazado_117961" data-name="Trazado 117961" d="M400.315,732.194l-14.779-.055,2.7,57.63,9.351.3Z" transform="translate(-238.788 -453.463)" fill="#000446" fill-rule="evenodd"/>
    <path id="Trazado_117962" data-name="Trazado 117962" d="M353.945,886.468c-.136,2.408-8.672,1.578-10.037.856a1.646,1.646,0,0,1-.789-1.469,10.238,10.238,0,0,1,.656-3.411c.547-1.7.471-1.665.851-2.824,0,0-.1-1.886,2.7-2.606s3.823,3.974,4.3,4.877c.438.828,2.137,1.959,2.313,4a4,4,0,0,1,.008.58" transform="translate(-212.512 -543.148)" fill="#630"/>
    <path id="Trazado_117963" data-name="Trazado 117963" d="M353.849,902.081c-.167,1.563-8.562,1.406-9.928.683-.527-.278-.748-1.318-.789-1.969a11.1,11.1,0,0,0,4.838,1.051,13.123,13.123,0,0,0,5.98-1.019c.016.185-.091,1.053-.1,1.253" transform="translate(-212.525 -557.923)" fill="#000446"/>
    <path id="Trazado_117964" data-name="Trazado 117964" d="M385.351,557.553c.6,3.057-.627,5.79-3.634,6.29-2.239.374-6.143-.08-7.889,1.56-.865.812-.858,1.856-.23,3.954.184.617.472,1.089-.472.516-.433-.263-1.153-.644-1.433-.466a1.191,1.191,0,0,0-.025,1.767c.188.163.55.414.55.414a2.8,2.8,0,0,1-2.3-.578c-1.1-.889-4.318-3.579-3.684-7.443.923-5.63,3.252-5.453,8.211-7.141,2.863-.975,3.1-1.734,4.931-2.574,2.354-1.077,5.5,1.284,5.979,3.7" transform="translate(-226.78 -342.873)" fill="#000446" fill-rule="evenodd"/>
    <path id="Trazado_117965" data-name="Trazado 117965" d="M297.413,561.114a4.386,4.386,0,1,1-5.973-1.673,4.385,4.385,0,0,1,5.973,1.673m123.026-54.738c2.77,3.241-2.164,14.447-9.692,19.284-4.5,2.894-9.523,5.438-13.287,5.782-6.712.615-15.3-1.511-19.142-2.6l-67.968,38.227-8.907,5.01-2.168,1.219c-5.649,3.177-12.454.9-16.049-4.495h0c-3.6-5.393-1.154-12.871,4.495-16.049l2.168-1.22,8.907-5.009,67.648-38.047c.9-3.672,3.429-12.87,7.485-18.458,1.77-2.438,5.2-4.791,8.949-6.829,9.9-5.386,23.436-3.9,24.886.022l-7.947,4.471-7.407,4.165-5.532,3.111-.467,7.837-.467,7.837,6.94,3.671,6.939,3.67,5.532-3.111,7.408-4.165Z" transform="translate(-174.373 -297.1)" fill="#f18e00" fill-rule="evenodd"/>
    <path id="Trazado_117966" data-name="Trazado 117966" d="M324.413,718.111a.99.99,0,0,1,.6-.477c.094,0,1.429.066,1.429.066l-.206-3.062a.772.772,0,0,1,.944.488,17.49,17.49,0,0,0,1.056,2.016l-.352-2.734a.554.554,0,0,1,.722.206c.257.432.984,1.991.984,1.991l.067-2.55a5,5,0,0,1,.726,1.5,6.188,6.188,0,0,0,.325,1.073l.437-2.146s.481,2.084.482,2.157c.024,2.278-1.1,3.6-3.1,3.622-.618.006-4.265-1.818-4.11-2.147" transform="translate(-200.928 -442.262)" fill="#f7cccf" fill-rule="evenodd"/>
    <path id="Trazado_117967" data-name="Trazado 117967" d="M494.039,616a1.173,1.173,0,0,0-.8.437c-.045.1-.585,1.591-.585,1.591l-3.248-1.632a.916.916,0,0,0,.1,1.255,20.556,20.556,0,0,1,1.716,2.078l-2.822-1.641a.656.656,0,0,0-.107.882c.353.479,1.722,1.988,1.722,1.988l-2.814-1.1a5.932,5.932,0,0,0,1.3,1.48,7.359,7.359,0,0,1,1.022.847l-2.543-.508s2.054,1.483,2.133,1.518c2.476,1.073,4.438.449,5.379-1.725.291-.671-.025-5.49-.456-5.472" transform="translate(-301.621 -381.533)" fill="#f7cccf" fill-rule="evenodd"/>
    <path id="Trazado_117968" data-name="Trazado 117968" d="M1139.551,456.743,1125,450.416v-3.5l14.55-6.3v4.126l-10.149,3.88,10.149,4.024Z" transform="translate(-696.789 -272.903)" fill="#fff"/>
    <path id="Trazado_117969" data-name="Trazado 117969" d="M1175.448,454.575l5.255-21.948h3.055l-5.313,21.948Z" transform="translate(-728.034 -267.955)" fill="#fff"/>
    <path id="Trazado_117970" data-name="Trazado 117970" d="M1209.5,456.8v-4.1l10.163-4L1209.5,444.76v-4.067l14.564,6.3v3.474Z" transform="translate(-749.123 -272.95)" fill="#fff"/>
    <path id="Trazado_117971" data-name="Trazado 117971" d="M749.981,191.9v-3.152l7.824-3.088-7.824-3.057v-3.129l11.216,4.858v2.68Zm-9.989,2.125,4.066-16.905h2.352l-4.088,16.905Zm-3.574-2.148L725.2,187v-2.7l11.217-4.854v3.175l-7.824,2.992,7.824,3.107Z" transform="translate(-449.166 -109.7)" fill="#77c6fb" fill-rule="evenodd"/>
    <path id="Trazado_117972" data-name="Trazado 117972" d="M746.2,253.107h25.521a1.512,1.512,0,0,1,0,3.024H746.2a1.512,1.512,0,0,1,0-3.024" transform="translate(-461.236 -156.766)" fill="#f18e00" fill-rule="evenodd"/>
    <path id="Trazado_117973" data-name="Trazado 117973" d="M832.609,253.107h14.039a1.512,1.512,0,0,1,0,3.024H832.609a1.512,1.512,0,0,1,0-3.024" transform="translate(-514.754 -156.766)" fill="#77c6fb" fill-rule="evenodd"/>
    <path id="Trazado_117974" data-name="Trazado 117974" d="M768.357,279.7h28.857a1.512,1.512,0,0,1,0,3.024H768.357a1.512,1.512,0,0,1,0-3.024" transform="translate(-474.958 -173.235)" fill="#f18e00" fill-rule="evenodd"/>
    <path id="Trazado_117975" data-name="Trazado 117975" d="M864.865,279.7H880.9a1.512,1.512,0,1,1,0,3.024H864.865a1.512,1.512,0,0,1,0-3.024" transform="translate(-534.732 -173.235)" fill="#77c6fb" fill-rule="evenodd"/>
    <path id="Trazado_117976" data-name="Trazado 117976" d="M928.265,279.7h19.923a1.512,1.512,0,0,1,0,3.024H928.265a1.512,1.512,0,0,1,0-3.024" transform="translate(-574 -173.235)" fill="#77c6fb" fill-rule="evenodd"/>
    <path id="Trazado_117977" data-name="Trazado 117977" d="M768.357,307.658h38.364a1.512,1.512,0,0,1,0,3.024H768.357a1.512,1.512,0,1,1,0-3.024" transform="translate(-474.958 -190.553)" fill="#77c6fb" fill-rule="evenodd"/>
    <path id="Trazado_117978" data-name="Trazado 117978" d="M889.7,307.658h18.384a1.512,1.512,0,0,1,0,3.024H889.7a1.512,1.512,0,0,1,0-3.024" transform="translate(-550.117 -190.553)" fill="#f28d9a" fill-rule="evenodd"/>
    <path id="Trazado_117979" data-name="Trazado 117979" d="M957.2,307.658h30.19a1.512,1.512,0,1,1,0,3.024H957.2a1.512,1.512,0,1,1,0-3.024" transform="translate(-591.919 -190.553)" fill="#77c6fb" fill-rule="evenodd"/>
    <path id="Trazado_117980" data-name="Trazado 117980" d="M768.357,335.012h14.362a1.512,1.512,0,1,1,0,3.024H768.357a1.512,1.512,0,1,1,0-3.024" transform="translate(-474.958 -207.495)" fill="#f28d9a" fill-rule="evenodd"/>
    <path id="Trazado_117981" data-name="Trazado 117981" d="M824.6,335.012h51.079a1.512,1.512,0,0,1,0,3.024H824.6a1.512,1.512,0,1,1,0-3.024" transform="translate(-509.792 -207.495)" fill="#77c6fb" fill-rule="evenodd"/>
    <path id="Trazado_117982" data-name="Trazado 117982" d="M768.357,361.444h38.364a1.512,1.512,0,0,1,0,3.024H768.357a1.512,1.512,0,1,1,0-3.024" transform="translate(-474.958 -223.867)" fill="#f18e00" fill-rule="evenodd"/>
    <path id="Trazado_117983" data-name="Trazado 117983" d="M889.7,361.444h18.384a1.512,1.512,0,0,1,0,3.024H889.7a1.512,1.512,0,0,1,0-3.024" transform="translate(-550.117 -223.867)" fill="#77c6fb" fill-rule="evenodd"/>
    <path id="Trazado_117984" data-name="Trazado 117984" d="M957.2,361.444h30.19a1.512,1.512,0,1,1,0,3.024H957.2a1.512,1.512,0,1,1,0-3.024" transform="translate(-591.919 -223.867)" fill="#77c6fb" fill-rule="evenodd"/>
    <path id="Trazado_117985" data-name="Trazado 117985" d="M768.357,389.254h38.364a1.512,1.512,0,0,1,0,3.024H768.357a1.512,1.512,0,1,1,0-3.024" transform="translate(-474.958 -241.091)" fill="#77c6fb" fill-rule="evenodd"/>
    <path id="Trazado_117986" data-name="Trazado 117986" d="M889.7,389.254h18.384a1.512,1.512,0,1,1,0,3.024H889.7a1.512,1.512,0,0,1,0-3.024" transform="translate(-550.117 -241.091)" fill="#77c6fb" fill-rule="evenodd"/>
    <path id="Trazado_117987" data-name="Trazado 117987" d="M746.2,415.533h30.821a1.512,1.512,0,1,1,0,3.024H746.2a1.512,1.512,0,0,1,0-3.024" transform="translate(-461.236 -257.367)" fill="#77c6fb" fill-rule="evenodd"/>
    <path id="Trazado_117988" data-name="Trazado 117988" d="M848.655,415.533h17.206a1.512,1.512,0,1,1,0,3.024H848.655a1.512,1.512,0,0,1,0-3.024" transform="translate(-524.692 -257.367)" fill="#77c6fb" fill-rule="evenodd"/>
    <path id="Trazado_117989" data-name="Trazado 117989" d="M768.357,448.075h42.218a1.512,1.512,0,1,1,0,3.024H768.357a1.512,1.512,0,1,1,0-3.024" transform="translate(-474.958 -277.523)" fill="#77c6fb" fill-rule="evenodd"/>
    <path id="Trazado_117990" data-name="Trazado 117990" d="M901,448.075h20.376a1.512,1.512,0,1,1,0,3.024H901a1.512,1.512,0,1,1,0-3.024" transform="translate(-557.114 -277.523)" fill="#f18e00" fill-rule="evenodd"/>
    <path id="Trazado_117991" data-name="Trazado 117991" d="M768.357,476.192H807a1.512,1.512,0,0,1,0,3.024H768.357a1.512,1.512,0,1,1,0-3.024" transform="translate(-474.958 -294.938)" fill="#77c6fb" fill-rule="evenodd"/>
    <path id="Trazado_117992" data-name="Trazado 117992" d="M890.52,476.192h18.529a1.512,1.512,0,0,1,0,3.024H890.52a1.512,1.512,0,0,1,0-3.024" transform="translate(-550.623 -294.938)" fill="#77c6fb" fill-rule="evenodd"/>
    <path id="Trazado_117993" data-name="Trazado 117993" d="M768.357,503.085h13.262a1.512,1.512,0,0,1,0,3.024H768.357a1.512,1.512,0,0,1,0-3.024" transform="translate(-474.958 -311.594)" fill="#f28d9a" fill-rule="evenodd"/>
    <path id="Trazado_117994" data-name="Trazado 117994" d="M822.032,503.085h52.123a1.512,1.512,0,1,1,0,3.024H822.032a1.512,1.512,0,1,1,0-3.024" transform="translate(-508.203 -311.594)" fill="#77c6fb" fill-rule="evenodd"/>
    <path id="Trazado_117995" data-name="Trazado 117995" d="M768.358,530.591h33a1.512,1.512,0,1,1,0,3.024h-33a1.512,1.512,0,1,1,0-3.024" transform="translate(-474.958 -328.631)" fill="#f18e00" fill-rule="evenodd"/>
    <path id="Trazado_117996" data-name="Trazado 117996" d="M873.986,530.591H889.6a1.512,1.512,0,1,1,0,3.024H873.986a1.512,1.512,0,1,1,0-3.024" transform="translate(-540.382 -328.631)" fill="#77c6fb" fill-rule="evenodd"/>
    <path id="Trazado_117997" data-name="Trazado 117997" d="M935.342,530.591h38.575a1.512,1.512,0,1,1,0,3.024H935.342a1.512,1.512,0,1,1,0-3.024" transform="translate(-578.384 -328.631)" fill="#77c6fb" fill-rule="evenodd"/>
    <path id="Trazado_117998" data-name="Trazado 117998" d="M768.357,556.565h13.262a1.512,1.512,0,0,1,0,3.024H768.357a1.512,1.512,0,0,1,0-3.024" transform="translate(-474.958 -344.718)" fill="#77c6fb" fill-rule="evenodd"/>
    <path id="Trazado_117999" data-name="Trazado 117999" d="M822.032,556.565h52.123a1.512,1.512,0,1,1,0,3.024H822.032a1.512,1.512,0,1,1,0-3.024" transform="translate(-508.203 -344.718)" fill="#77c6fb" fill-rule="evenodd"/>
    <path id="Trazado_118000" data-name="Trazado 118000" d="M746.2,584.945h30.821a1.512,1.512,0,1,1,0,3.024H746.2a1.512,1.512,0,1,1,0-3.024" transform="translate(-461.236 -362.296)" fill="#77c6fb" fill-rule="evenodd"/>
    <path id="Trazado_118001" data-name="Trazado 118001" d="M848.655,584.945h17.206a1.512,1.512,0,1,1,0,3.024H848.655a1.512,1.512,0,0,1,0-3.024" transform="translate(-524.692 -362.296)" fill="#f18e00" fill-rule="evenodd"/>
    <path id="Trazado_118002" data-name="Trazado 118002" d="M749.981,638.2v-3.152l7.824-3.087-7.824-3.058V625.77l11.216,4.859v2.68Zm-9.989,2.125,4.066-16.9h2.352l-4.088,16.9Zm-3.574-2.148L725.2,633.3v-2.7l11.217-4.854v3.174l-7.824,2.994,7.824,3.107Z" transform="translate(-449.166 -386.124)" fill="#77c6fb" fill-rule="evenodd"/>
    <path id="Trazado_118003" data-name="Trazado 118003" d="M1062.164,584.79h15.827c1.976,0,6.839,3.74,7.693,8.617h0c1.609,7.845.894,25.111-4.664,31.267l-6.3-.082-19.3-4.785V587.23a10.512,10.512,0,0,1,6.742-2.44" transform="translate(-653.694 -362.2)" fill="#f29900" fill-rule="evenodd"/>
    <path id="Trazado_118004" data-name="Trazado 118004" d="M1114.714,584.926c7.815.768,8.542,10.587,8.44,16.717h-8.436Z" transform="translate(-690.417 -362.284)" fill="#f29900" fill-rule="evenodd"/>
    <path id="Trazado_118005" data-name="Trazado 118005" d="M1084.185,628.9l7.674-.06c-3.029,8.289-8.82,15.338-16.5,15.338h-11.174s2.375-3.045,5.506-3.3,3.254.177,3.254.177c2.618-1.379,8.672-6.042,11.24-12.155" transform="translate(-659.122 -389.485)" fill="#f7cccf" fill-rule="evenodd"/>
    <path id="Trazado_118006" data-name="Trazado 118006" d="M1131.648,794.042l.766,5.5,1.967,1.819s1.532-.073,1.711.461a4.925,4.925,0,0,1,0,1.67h-10.066a45.646,45.646,0,0,1-1.162-9.14Z" transform="translate(-696.704 -491.803)" fill="#630"/>
    <path id="Trazado_118007" data-name="Trazado 118007" d="M1012.512,669.138h33.441a6,6,0,0,1,1.11.1h0c9.334-.048,10.494,6,11.15,12.583l3.766,37.843h-12.674l-4.18-38.517h-32.615a6.006,6.006,0,0,1,0-12.012" transform="translate(-623.397 -414.442)" fill="#092978" fill-rule="evenodd"/>
    <path id="Trazado_118008" data-name="Trazado 118008" d="M1046.28,758.026l4.592,10.28a8.285,8.285,0,0,1-1.072,2.921c-.769,1.059-.842,1.835-.361,2.473s.611.8.611.8l7.8-8.14-4.092-9.561Z" transform="translate(-648.031 -468.735)" fill="#630"/>
    <path id="Trazado_118009" data-name="Trazado 118009" d="M1015.875,672.3a8.241,8.241,0,0,1,3.318,2.969c2.748,4.174,15.24,32.325,15.24,32.325h-14.361l-10.459-22.936c-.435-.954-2.591-4.933-2.79-6.743-.641-5.828,4.2-7.84,9.052-5.614" transform="translate(-623.558 -415.852)" fill="#092978" fill-rule="evenodd"/>
    <path id="Trazado_118010" data-name="Trazado 118010" d="M1067.952,555.828c-1.655,2.953,1.187,7.071,4.683,6.772l-.006.938-1.906,2.717,1.879,2.794,1.955.711,4.723-1.215v-8.507c.172-.054.178.256.53.042a3.935,3.935,0,0,0,.988-2.611c-.142-.815-1.187-1.282-1.187-1.282.982-2.417,1.759-2.8-.771-4.142s-7.636-1.244-7.636-1.244l-2.317.777c-.1,2.248.212,2.2-.935,4.251" transform="translate(-661.155 -341.146)" fill="#f7cccf" fill-rule="evenodd"/>
    <path id="Trazado_118011" data-name="Trazado 118011" d="M1078.832,580.4a4.223,4.223,0,0,0,.513-.013,12,12,0,0,0,4.236-.872,4.465,4.465,0,0,1-2.316,2.479,7.667,7.667,0,0,1-2.963.809l1.038-1.478.005-.937Z" transform="translate(-667.865 -358.932)" fill="#dd7577" fill-rule="evenodd"/>
    <path id="Trazado_118012" data-name="Trazado 118012" d="M1067.32,539.547c1.953.325,3.53.045,4.725.19a3.418,3.418,0,0,1,1.721.819,8.7,8.7,0,0,1,2.239,4.622s1.31-.548,1.736-.276.158.925.094,1.2-.669.562-.863.73c-.581.5.79.716,2.406-.587,4.922-3.972,2.383-11.2-3.7-13.269-2.956-1.006-2.608-2.2-4.643-2.627-7.388-1.44-9.5,7.375-3.715,9.2" transform="translate(-659.007 -328.38)" fill="#363653" fill-rule="evenodd"/>
    <path id="Trazado_118013" data-name="Trazado 118013" d="M1042.312,590.845c-4.3,3.834-6.8,9.129-8.326,14.684,2.817-.183,5.763-.171,8.554-.261Z" transform="translate(-640.417 -365.95)" fill="#f29900" fill-rule="evenodd"/>
    <path id="Trazado_118014" data-name="Trazado 118014" d="M1078.815,595.244a.517.517,0,1,1-.518.518.517.517,0,0,1,.518-.518m0-3a.517.517,0,1,1-.518.517.517.517,0,0,1,.518-.517m-2-7.981c-1.794,3.064.163,5.241,1.927,6.225,2.488-1.615,4.724-3.188,4.724-6.225,0,0,.858-.016,1.414,1.346.919,2.206-.621,7.159-.621,7.159s-1.727-2.235-3.164-2.356a5.06,5.06,0,0,0-2.369.314c-1.838-1.348-3.09.4-4.319,1.68-.387-3.267-.338-5.615,2.106-8.142Z" transform="translate(-665.342 -361.871)" fill="#fff" fill-rule="evenodd"/>
    <path id="Trazado_118015" data-name="Trazado 118015" d="M1034.016,618.586h-24.2c-.933,0-1.9.786-1.7,1.7l3.617,15.994c.206.91.764,1.7,1.7,1.7h24.2c.933,0,1.9-.787,1.7-1.7l-3.615-15.994c-.206-.911-.764-1.7-1.7-1.7" transform="translate(-624.379 -383.132)" fill="#4895d1" fill-rule="evenodd"/>
    <path id="Trazado_118016" data-name="Trazado 118016" d="M1031.166,618.586h-24.2c-.934,0-1.9.786-1.7,1.7l3.617,15.994c.206.91.764,1.7,1.7,1.7h24.2c.933,0,1.9-.787,1.7-1.7l-3.616-15.994c-.206-.911-.764-1.7-1.7-1.7" transform="translate(-622.614 -383.132)" fill="#a3c5e8" fill-rule="evenodd"/>
    <path id="Trazado_118017" data-name="Trazado 118017" d="M1043.492,639.788a1.7,1.7,0,1,0,1.835,1.163,1.548,1.548,0,0,0-1.835-1.163" transform="translate(-645.742 -396.229)" fill="#fff" fill-rule="evenodd"/>
    <path id="Trazado_118018" data-name="Trazado 118018" d="M1100.33,665.359h-12.288v1.585h13.081v-.793a.8.8,0,0,0-.793-.792" transform="translate(-673.897 -412.101)" fill="#4895d1" fill-rule="evenodd"/>
    <path id="Trazado_118019" data-name="Trazado 118019" d="M230.175,79.337a4.141,4.141,0,0,1,5.846,0l0,0a4.14,4.14,0,0,1,0,5.847v0a4.137,4.137,0,0,1-5.851-5.852Zm2.923-3.516a6.42,6.42,0,0,0-4.553,1.886l0,0a6.436,6.436,0,1,0,9.1,9.1l0,0a6.431,6.431,0,0,0,0-9.1l0,0,0,0a6.424,6.424,0,0,0-4.549-1.886" transform="translate(-140.385 -46.961)" fill="#f18e00"/>
    <path id="Trazado_118020" data-name="Trazado 118020" d="M412.953,81.1h0a1.039,1.039,0,0,0-1.036,1.036V91.2a1.039,1.039,0,0,0,1.036,1.036h0a1.039,1.039,0,0,0,1.036-1.036V82.141a1.039,1.039,0,0,0-1.036-1.036" transform="translate(-255.128 -50.234)" fill="#219ef8" fill-rule="evenodd"/>
    <path id="Trazado_118021" data-name="Trazado 118021" d="M400.016,94.041h0a1.039,1.039,0,0,0,1.036,1.036h9.06a1.036,1.036,0,0,0,0-2.073h-9.06a1.039,1.039,0,0,0-1.036,1.036" transform="translate(-247.757 -57.604)" fill="#219ef8" fill-rule="evenodd"/>
    <path id="Trazado_118022" data-name="Trazado 118022" d="M653.7,82.512a2.927,2.927,0,0,1,4.134,0l0,0a2.926,2.926,0,0,1,0,4.133v0a2.925,2.925,0,0,1-4.136-4.136Zm2.067-2.486a4.54,4.54,0,0,0-3.219,1.334l0,0a4.55,4.55,0,1,0,6.435,6.435v0a4.548,4.548,0,0,0,0-6.435v0l0,0a4.539,4.539,0,0,0-3.216-1.334" transform="translate(-403.34 -49.565)" fill="#f18e00"/>
    <path id="Trazado_118023" data-name="Trazado 118023" d="M976.65,22.385h0a1.367,1.367,0,0,0-1.362,1.362V28.34h-4.592a1.362,1.362,0,0,0,0,2.724h4.592v4.593a1.366,1.366,0,0,0,1.362,1.362h0a1.366,1.366,0,0,0,1.362-1.362V31.064H982.6a1.362,1.362,0,0,0,0-2.724h-4.592V23.747a1.366,1.366,0,0,0-1.362-1.362" transform="translate(-600.373 -13.865)" fill="#219ef8" fill-rule="evenodd"/>
    <path id="Trazado_118024" data-name="Trazado 118024" d="M769.984,12.666h0a1.193,1.193,0,0,0-1.189,1.189V24.249a1.189,1.189,0,1,0,2.378,0V13.855a1.193,1.193,0,0,0-1.189-1.189" transform="translate(-476.166 -7.845)" fill="#219ef8" fill-rule="evenodd"/>
    <path id="Trazado_118025" data-name="Trazado 118025" d="M755.141,27.51h0A1.191,1.191,0,0,0,756.33,28.7h10.394a1.191,1.191,0,0,0,1.189-1.188h0a1.191,1.191,0,0,0-1.189-1.188H756.33a1.191,1.191,0,0,0-1.189,1.188" transform="translate(-467.709 -16.303)" fill="#219ef8" fill-rule="evenodd"/>
    <path id="Trazado_118026" data-name="Trazado 118026" d="M541.362,3.516a4.14,4.14,0,0,1,5.846,0l0,0a4.141,4.141,0,0,1,0,5.847v0a4.137,4.137,0,0,1-5.851-5.851ZM544.286,0a6.418,6.418,0,0,0-4.553,1.886l0,0a6.436,6.436,0,1,0,9.1,9.1l0,0a6.432,6.432,0,0,0,0-9.1l0,0,0,0A6.419,6.419,0,0,0,544.286,0" transform="translate(-333.124)" fill="#f18e00"/>
    <path id="Trazado_118027" data-name="Trazado 118027" d="M1152.732,73.6a2.926,2.926,0,0,1,4.134,0l0,0a2.927,2.927,0,0,1,0,4.133v0a2.925,2.925,0,0,1-4.136-4.136Zm2.067-2.486a4.536,4.536,0,0,0-3.219,1.333v0a4.55,4.55,0,1,0,6.435,6.435l0,0a4.549,4.549,0,0,0,0-6.435l0,0,0,0a4.537,4.537,0,0,0-3.216-1.333" transform="translate(-712.424 -44.044)" fill="#f18e00"/>
  </g>
</svg>
