<svg xmlns="http://www.w3.org/2000/svg" xmlns:xlink="http://www.w3.org/1999/xlink" width="400" height="395.897" viewBox="0 0 400 395.897">
  <defs>
    <linearGradient id="linear-gradient" x1="-4.313" y1="0.5" x2="-3.313" y2="0.5" gradientUnits="objectBoundingBox">
      <stop offset="0" stop-color="#79bdfb"/>
      <stop offset="1" stop-color="#138cfa"/>
    </linearGradient>
    <linearGradient id="linear-gradient-2" x1="-4.313" y1="0.5" x2="-3.314" y2="0.5" xlink:href="#linear-gradient"/>
    <linearGradient id="linear-gradient-4" x1="-3.526" y1="0.5" x2="-2.526" y2="0.5" xlink:href="#linear-gradient"/>
    <linearGradient id="linear-gradient-8" x1="-3.527" y1="0.5" x2="-2.526" y2="0.5" xlink:href="#linear-gradient"/>
    <linearGradient id="linear-gradient-9" x1="-3.526" y1="0.5" x2="-2.527" y2="0.5" xlink:href="#linear-gradient"/>
    <linearGradient id="linear-gradient-10" x1="-3.527" y1="0.5" x2="-2.527" y2="0.5" xlink:href="#linear-gradient"/>
    <linearGradient id="linear-gradient-13" x1="-3.527" y1="0.499" x2="-2.527" y2="0.499" xlink:href="#linear-gradient"/>
    <linearGradient id="linear-gradient-14" x1="-3.524" y1="0.5" x2="-2.524" y2="0.5" xlink:href="#linear-gradient"/>
    <linearGradient id="linear-gradient-16" x1="-2.117" y1="0.5" x2="-1.117" y2="0.5" xlink:href="#linear-gradient"/>
    <linearGradient id="linear-gradient-17" x1="-2.661" y1="0.5" x2="-1.661" y2="0.5" xlink:href="#linear-gradient"/>
    <linearGradient id="linear-gradient-18" x1="-3.546" y1="0.496" x2="-2.546" y2="0.496" xlink:href="#linear-gradient"/>
    <linearGradient id="linear-gradient-19" x1="-2.398" y1="0.5" x2="-1.397" y2="0.5" xlink:href="#linear-gradient"/>
    <linearGradient id="linear-gradient-27" x1="-3.527" y1="0.501" x2="-2.527" y2="0.501" xlink:href="#linear-gradient"/>
    <linearGradient id="linear-gradient-30" x1="-2.458" y1="0.5" x2="-1.458" y2="0.5" xlink:href="#linear-gradient"/>
    <linearGradient id="linear-gradient-31" x1="-2.117" y1="0.5" x2="-1.117" y2="0.5" xlink:href="#linear-gradient"/>
    <linearGradient id="linear-gradient-42" x1="-2.18" y1="0.5" x2="-1.18" y2="0.5" xlink:href="#linear-gradient"/>
    <linearGradient id="linear-gradient-43" x1="-3.527" y1="0.502" x2="-2.526" y2="0.502" xlink:href="#linear-gradient"/>
    <linearGradient id="linear-gradient-44" x1="-3.526" y1="0.502" x2="-2.526" y2="0.502" xlink:href="#linear-gradient"/>
    <linearGradient id="linear-gradient-45" x1="-3.526" y1="0.504" x2="-2.526" y2="0.504" xlink:href="#linear-gradient"/>
    <linearGradient id="linear-gradient-46" x1="-3.524" y1="0.502" x2="-2.524" y2="0.502" xlink:href="#linear-gradient"/>
    <linearGradient id="linear-gradient-47" x1="-0.706" y1="0.5" x2="0.294" y2="0.5" xlink:href="#linear-gradient"/>
    <linearGradient id="linear-gradient-48" x1="-4.509" y1="0.499" x2="-3.509" y2="0.499" xlink:href="#linear-gradient"/>
    <linearGradient id="linear-gradient-50" x1="-4.508" y1="0.501" x2="-3.509" y2="0.501" xlink:href="#linear-gradient"/>
    <linearGradient id="linear-gradient-51" x1="-3.544" y1="0.501" x2="-2.544" y2="0.501" xlink:href="#linear-gradient"/>
    <linearGradient id="linear-gradient-52" x1="-3.543" y1="0.497" x2="-2.543" y2="0.497" xlink:href="#linear-gradient"/>
    <linearGradient id="linear-gradient-53" x1="-3.544" y1="0.497" x2="-2.544" y2="0.497" xlink:href="#linear-gradient"/>
    <linearGradient id="linear-gradient-54" x1="-3.543" y1="0.496" x2="-2.543" y2="0.496" xlink:href="#linear-gradient"/>
    <linearGradient id="linear-gradient-58" x1="-3.543" y1="0.496" x2="-2.544" y2="0.496" xlink:href="#linear-gradient"/>
    <linearGradient id="linear-gradient-60" x1="-3.543" y1="0.498" x2="-2.544" y2="0.498" xlink:href="#linear-gradient"/>
    <linearGradient id="linear-gradient-62" x1="-4.313" y1="0.499" x2="-3.313" y2="0.499" xlink:href="#linear-gradient"/>
    <linearGradient id="linear-gradient-65" x1="-4.317" y1="0.5" x2="-3.317" y2="0.5" xlink:href="#linear-gradient"/>
    <linearGradient id="linear-gradient-66" x1="-4.314" y1="0.5" x2="-3.314" y2="0.5" xlink:href="#linear-gradient"/>
    <linearGradient id="linear-gradient-68" x1="-4.314" y1="0.5" x2="-3.314" y2="0.5" xlink:href="#linear-gradient"/>
    <linearGradient id="linear-gradient-70" x1="-4.317" y1="0.499" x2="-3.317" y2="0.499" xlink:href="#linear-gradient"/>
    <clipPath id="clip-path">
      <path id="Trazado_117672" data-name="Trazado 117672" d="M267.023,466.843,175.554,413.4l52.47-65.973L113.948,258.053l-41.1-3.933L0,528.414l153.774,76.814Z" transform="translate(0 -254.12)" fill="none"/>
    </clipPath>
  </defs>
  <g id="Grupo_141565" data-name="Grupo 141565" transform="translate(4248.847 4918.718)">
    <ellipse id="Elipse_4797" data-name="Elipse 4797" cx="50.114" cy="86.801" rx="50.114" ry="86.801" transform="matrix(0.005, -1, 1, 0.005, -4203.783, -4544.8)" fill="#b6d5ef"/>
    <path id="Trazado_117402" data-name="Trazado 117402" d="M334.691,754.871,111.25,624.059,239.533,545.81l221.78,132.942Z" transform="translate(-4310.829 -5290.562)" fill="#b6d5ef"/>
    <path id="Trazado_117403" data-name="Trazado 117403" d="M602.964,853.376,591.1,846.263V725.5l11.864,7.112Z" transform="translate(-4578.172 -5390.674)" fill="#2358f9"/>
    <path id="Trazado_117404" data-name="Trazado 117404" d="M136.794,577.29l-11.864-7.112V445.11l11.864,7.112Z" transform="translate(-4318.45 -5234.458)" fill="#2358f9"/>
    <path id="Trazado_117405" data-name="Trazado 117405" d="M151.72,537.3l133.544-74.037L221.993,373.33l-70.273,38.9Z" transform="translate(-4333.376 -5194.466)" fill="#215de8"/>
    <path id="Trazado_117406" data-name="Trazado 117406" d="M740.332,695.4,617.89,769.326V648.562L740.332,574.64Z" transform="translate(-4593.098 -5306.625)" fill="#215de8"/>
    <path id="Trazado_117407" data-name="Trazado 117407" d="M336.2,569,112.75,438.191V430.8l350.068,54.689v7.4Z" transform="translate(-4311.664 -5226.485)" fill="#2075fb"/>
    <path id="Trazado_117408" data-name="Trazado 117408" d="M336.2,463.161,112.75,332.353,241.038,254.1l221.78,132.942Z" transform="translate(-4311.664 -5128.039)" fill="#2075fb"/>
    <path id="Trazado_117409" data-name="Trazado 117409" d="M336.2,463.161,112.75,332.353,241.038,254.1l221.78,132.942Z" transform="translate(-4311.664 -5128.039)" fill="#6198ff"/>
    <path id="Trazado_117410" data-name="Trazado 117410" d="M320.024,451.473l65.437,38.055a3.709,3.709,0,0,0,3.361.142L415.1,477.1c.886-.5,1.74-11.483.593-7.923l-71.11-29.672a3.7,3.7,0,0,0-3.357-.142L319.78,447.7C318.921,448.209,319.027,450.892,320.024,451.473Z" transform="translate(-4426.686 -5231.069)" fill="#2358f9"/>
    <path id="Trazado_117411" data-name="Trazado 117411" d="M320.024,439.616,385.461,477.7a3.722,3.722,0,0,0,3.361.137s29.782-17.714,27.271-19.38l-65.844-37.377c-1-.576-8.166,3.627-9.026,4.127L319.78,437.68C318.921,438.181,319.027,439.053,320.024,439.616Z" transform="translate(-4426.686 -5221.041)" fill="#138cfa"/>
    <path id="Trazado_117412" data-name="Trazado 117412" d="M372.225,435.811l-3.835-2.232,2.015-1.169,3.835,2.232Z" transform="translate(-4454.092 -5227.382)" fill="#215de8"/>
    <path id="Trazado_117413" data-name="Trazado 117413" d="M382.99,442.071l-3.84-2.232,2.015-1.169L385,440.9Z" transform="translate(-4460.086 -5230.87)" fill="#215de8"/>
    <path id="Trazado_117414" data-name="Trazado 117414" d="M363.135,440.143l-3.835-2.232,3.321-1.931,3.835,2.228Z" transform="translate(-4449.027 -5229.371)" fill="#215de8"/>
    <path id="Trazado_117415" data-name="Trazado 117415" d="M373.9,446.4l-3.835-2.228,3.321-1.931,3.835,2.228Z" transform="translate(-4455.022 -5232.859)" fill="#215de8"/>
    <path id="Trazado_117416" data-name="Trazado 117416" d="M500.352,517.489l-3.321,1.935-8.6-5v-.81l11.922,3.069Z" transform="translate(-4520.97 -5272.622)" fill="#215de8"/>
    <path id="Trazado_117417" data-name="Trazado 117417" d="M360.032,444.648l-3.321,1.935L350.55,443l3.321-1.931Z" transform="translate(-4444.152 -5232.207)" fill="#215de8"/>
    <path id="Trazado_117418" data-name="Trazado 117418" d="M349.005,452.28l-7.205-4.189,3.321-1.931,7.205,4.189Z" transform="translate(-4439.277 -5235.043)" fill="#215de8"/>
    <path id="Trazado_117419" data-name="Trazado 117419" d="M444.845,508.013l-3.835-2.228,3.321-1.935,3.835,2.232Z" transform="translate(-4494.551 -5267.185)" fill="#215de8"/>
    <path id="Trazado_117420" data-name="Trazado 117420" d="M484.935,527.469l-3.321,1.931-6.944-4.035L478,523.43Z" transform="translate(-4513.304 -5278.093)" fill="#215de8"/>
    <path id="Trazado_117421" data-name="Trazado 117421" d="M341.65,458.181l-8.6-5,3.321-1.931,8.6,5Z" transform="translate(-4434.402 -5237.878)" fill="#215de8"/>
    <path id="Trazado_117422" data-name="Trazado 117422" d="M358.405,467.923,354.57,465.7l3.321-1.935,3.835,2.232Z" transform="translate(-4446.392 -5244.848)" fill="#215de8"/>
    <path id="Trazado_117423" data-name="Trazado 117423" d="M444.5,517.993l-3.835-2.232,3.321-1.931,3.835,2.232Z" transform="translate(-4494.356 -5272.745)" fill="#215de8"/>
    <path id="Trazado_117424" data-name="Trazado 117424" d="M471.215,534.947l-8.255-4.8v-.81l11.576,2.865v.81Z" transform="translate(-4506.78 -5281.385)" fill="#215de8"/>
    <path id="Trazado_117425" data-name="Trazado 117425" d="M360.415,479.273l-3.835-2.232,3.321-1.931,3.835,2.232Z" transform="translate(-4447.512 -5251.172)" fill="#215de8"/>
    <path id="Trazado_117426" data-name="Trazado 117426" d="M403.092,501.641l-3.321,1.931L367.34,484.71v-.81l35.752,16.931Z" transform="translate(-4453.506 -5256.069)" fill="#215de8"/>
    <path id="Trazado_117427" data-name="Trazado 117427" d="M446.505,530.752l-3.835-2.232v-.81l5.6,1.209v.806Z" transform="translate(-4495.476 -5280.478)" fill="#215de8"/>
    <path id="Trazado_117428" data-name="Trazado 117428" d="M457.265,537.008l-3.835-2.228v-.81l7.157.3v.81Z" transform="translate(-4501.471 -5283.965)" fill="#215de8"/>
    <path id="Trazado_117429" data-name="Trazado 117429" d="M468.025,543.268l-3.835-2.232v-.806l5.6,1.2v.81Z" transform="translate(-4507.465 -5287.453)" fill="#215de8"/>
    <rect id="Rectángulo_36463" data-name="Rectángulo 36463" width="2.36" height="0.886" transform="translate(-4085.701 -4794.689)" fill="#215de8"/>
    <rect id="Rectángulo_36464" data-name="Rectángulo 36464" width="1.532" height="0.673" transform="translate(-4081.383 -4793.55)" fill="#215de8"/>
    <rect id="Rectángulo_36465" data-name="Rectángulo 36465" width="2.56" height="0.74" transform="translate(-4077.646 -4790.778)" fill="#215de8"/>
    <rect id="Rectángulo_36466" data-name="Rectángulo 36466" width="2.617" height="0.81" transform="translate(-4080.936 -4791.841)" fill="#215de8"/>
    <rect id="Rectángulo_36467" data-name="Rectángulo 36467" width="3.339" height="0.837" transform="translate(-4084.962 -4789.498)" fill="#215de8"/>
    <rect id="Rectángulo_36468" data-name="Rectángulo 36468" width="2.391" height="0.841" transform="translate(-4080.197 -4789.228)" fill="#215de8"/>
    <rect id="Rectángulo_36469" data-name="Rectángulo 36469" width="2.728" height="0.81" transform="translate(-4089.647 -4792.381)" fill="#215de8"/>
    <rect id="Rectángulo_36470" data-name="Rectángulo 36470" width="3.596" height="0.846" transform="translate(-4086.167 -4792.01)" fill="#215de8"/>
    <rect id="Rectángulo_36471" data-name="Rectángulo 36471" width="3.003" height="0.81" transform="translate(-4093.602 -4790.039)" fill="#215de8"/>
    <rect id="Rectángulo_36472" data-name="Rectángulo 36472" width="6.404" height="0.824" transform="translate(-4090.524 -4788.382)" fill="#215de8"/>
    <rect id="Rectángulo_36473" data-name="Rectángulo 36473" width="2.405" height="0.775" transform="translate(-4097.478 -4787.762)" fill="#215de8"/>
    <rect id="Rectángulo_36474" data-name="Rectángulo 36474" width="5.266" height="0.833" transform="translate(-4092.212 -4785.526)" fill="#215de8"/>
    <rect id="Rectángulo_36475" data-name="Rectángulo 36475" width="7.134" height="0.784" transform="translate(-4096.565 -4782.413)" fill="#215de8"/>
    <rect id="Rectángulo_36476" data-name="Rectángulo 36476" width="2.037" height="0.828" transform="translate(-4101.352 -4785.526)" fill="#215de8"/>
    <rect id="Rectángulo_36477" data-name="Rectángulo 36477" width="4.198" height="0.788" transform="translate(-4088.859 -4779.645)" fill="#215de8"/>
    <rect id="Rectángulo_36478" data-name="Rectángulo 36478" width="2.595" height="0.833" transform="translate(-4091.822 -4779.99)" fill="#215de8"/>
    <path id="Trazado_117430" data-name="Trazado 117430" d="M372.225,433.981l-3.835-2.228,2.015-1.174,3.835,2.232Z" transform="translate(-4454.092 -5226.362)" fill="url(#linear-gradient)"/>
    <path id="Trazado_117431" data-name="Trazado 117431" d="M382.99,440.241l-3.84-2.232,2.015-1.169L385,439.072Z" transform="translate(-4460.086 -5229.851)" fill="url(#linear-gradient-2)"/>
    <path id="Trazado_117432" data-name="Trazado 117432" d="M512.115,517.622l-3.835-2.232v-.81l5.85,1.063v.806Z" transform="translate(-4532.03 -5273.162)" fill="#215de8"/>
    <path id="Trazado_117433" data-name="Trazado 117433" d="M512.115,515.341l-3.835-2.232,2.015-1.169,3.835,2.232Z" transform="translate(-4532.03 -5271.691)" fill="url(#linear-gradient)"/>
    <path id="Trazado_117434" data-name="Trazado 117434" d="M363.135,438.313l-3.835-2.232,3.321-1.931,3.835,2.232Z" transform="translate(-4449.027 -5228.352)" fill="url(#linear-gradient-4)"/>
    <path id="Trazado_117435" data-name="Trazado 117435" d="M373.9,444.573l-3.835-2.232,3.321-1.931,3.835,2.232Z" transform="translate(-4455.022 -5231.839)" fill="url(#linear-gradient-4)"/>
    <path id="Trazado_117436" data-name="Trazado 117436" d="M481.505,510.392l-3.835-2.232v-.81l7.157.3v.81Z" transform="translate(-4514.976 -5269.134)" fill="#215de8"/>
    <path id="Trazado_117437" data-name="Trazado 117437" d="M481.505,507.153l-3.835-2.232,3.321-1.931,3.835,2.232Z" transform="translate(-4514.976 -5266.705)" fill="url(#linear-gradient-4)"/>
    <path id="Trazado_117438" data-name="Trazado 117438" d="M470.745,504.138l-3.835-2.232V501.1l7.157.3v.81Z" transform="translate(-4508.981 -5265.652)" fill="#215de8"/>
    <path id="Trazado_117439" data-name="Trazado 117439" d="M470.745,500.893l-3.835-2.228,3.322-1.935,3.835,2.232Z" transform="translate(-4508.981 -5263.217)" fill="url(#linear-gradient-4)"/>
    <path id="Trazado_117440" data-name="Trazado 117440" d="M459.985,497.878l-3.835-2.232v-.806l7.157.3v.81Z" transform="translate(-4502.986 -5262.165)" fill="#215de8"/>
    <path id="Trazado_117441" data-name="Trazado 117441" d="M459.985,494.643l-3.835-2.232,3.321-1.931,3.835,2.228Z" transform="translate(-4502.986 -5259.735)" fill="url(#linear-gradient-8)"/>
    <path id="Trazado_117442" data-name="Trazado 117442" d="M449.225,491.618l-3.835-2.228v-.81l7.157.3v.81Z" transform="translate(-4496.991 -5258.677)" fill="#215de8"/>
    <path id="Trazado_117443" data-name="Trazado 117443" d="M449.225,488.383l-3.835-2.232,3.321-1.931,3.835,2.228Z" transform="translate(-4496.991 -5256.248)" fill="url(#linear-gradient-9)"/>
    <path id="Trazado_117444" data-name="Trazado 117444" d="M438.465,485.362l-3.835-2.232v-.81l7.157.3v.81Z" transform="translate(-4490.996 -5255.189)" fill="#215de8"/>
    <path id="Trazado_117445" data-name="Trazado 117445" d="M438.465,482.123l-3.835-2.232,3.321-1.931,3.835,2.228Z" transform="translate(-4490.996 -5252.76)" fill="url(#linear-gradient-10)"/>
    <path id="Trazado_117446" data-name="Trazado 117446" d="M427.705,479.1l-3.835-2.232v-.81l7.157.3v.806Z" transform="translate(-4485.001 -5251.701)" fill="#215de8"/>
    <path id="Trazado_117447" data-name="Trazado 117447" d="M427.705,475.863l-3.835-2.232,3.321-1.931,3.835,2.232Z" transform="translate(-4485.001 -5249.272)" fill="url(#linear-gradient-10)"/>
    <path id="Trazado_117448" data-name="Trazado 117448" d="M416.945,472.842l-3.835-2.232v-.81l7.157.3v.81Z" transform="translate(-4479.007 -5248.214)" fill="#215de8"/>
    <path id="Trazado_117449" data-name="Trazado 117449" d="M416.945,469.6l-3.835-2.232,3.321-1.931,3.835,2.232Z" transform="translate(-4479.007 -5245.784)" fill="url(#linear-gradient-10)"/>
    <path id="Trazado_117450" data-name="Trazado 117450" d="M406.181,466.588l-3.831-2.232v-.806l7.157.3v.81Z" transform="translate(-4473.012 -5244.731)" fill="#215de8"/>
    <path id="Trazado_117451" data-name="Trazado 117451" d="M406.181,463.348l-3.831-2.228,3.321-1.931,3.835,2.228Z" transform="translate(-4473.012 -5242.302)" fill="url(#linear-gradient-13)"/>
    <path id="Trazado_117452" data-name="Trazado 117452" d="M395.415,460.328,391.58,458.1v-.81l7.161.3v.81Z" transform="translate(-4467.012 -5241.244)" fill="#215de8"/>
    <path id="Trazado_117453" data-name="Trazado 117453" d="M395.415,457.093l-3.835-2.232,3.321-1.931,3.84,2.228Z" transform="translate(-4467.012 -5238.814)" fill="url(#linear-gradient-14)"/>
    <path id="Trazado_117454" data-name="Trazado 117454" d="M384.655,454.068l-3.835-2.228v-.81l7.157.3v.81Z" transform="translate(-4461.017 -5237.756)" fill="#215de8"/>
    <path id="Trazado_117455" data-name="Trazado 117455" d="M384.655,450.833,380.82,448.6l3.321-1.931,3.835,2.228Z" transform="translate(-4461.017 -5235.327)" fill="url(#linear-gradient-4)"/>
    <path id="Trazado_117456" data-name="Trazado 117456" d="M500.352,514.25l-3.321,1.935-8.6-5,3.321-1.931Z" transform="translate(-4520.97 -5270.193)" fill="url(#linear-gradient-16)"/>
    <path id="Trazado_117457" data-name="Trazado 117457" d="M360.032,442.823l-3.321,1.931-6.16-3.583,3.321-1.931Z" transform="translate(-4444.152 -5231.188)" fill="url(#linear-gradient-17)"/>
    <path id="Trazado_117458" data-name="Trazado 117458" d="M494.275,527.192l-3.835-2.232v.81L494.275,528l3.321-1.931v-.806Z" transform="translate(-4522.09 -5278.945)" fill="#215de8"/>
    <path id="Trazado_117459" data-name="Trazado 117459" d="M497.646,522.854l-3.835-2.214-3.282,1.909c-.04.022,3.8,2.254,3.8,2.254Z" transform="translate(-4522.14 -5276.539)" fill="url(#linear-gradient-18)"/>
    <path id="Trazado_117460" data-name="Trazado 117460" d="M349.005,450.455l-7.205-4.194,3.321-1.931,7.205,4.194Z" transform="translate(-4439.277 -5234.023)" fill="url(#linear-gradient-19)"/>
    <path id="Trazado_117461" data-name="Trazado 117461" d="M456.4,515.338l-3.835-2.228v.806l3.835,2.232,3.321-1.931v-.81Z" transform="translate(-4500.986 -5272.343)" fill="#215de8"/>
    <path id="Trazado_117462" data-name="Trazado 117462" d="M459.717,510.972l-3.835-2.232-3.321,1.935L456.4,512.9Z" transform="translate(-4500.986 -5269.908)" fill="url(#linear-gradient-10)"/>
    <path id="Trazado_117463" data-name="Trazado 117463" d="M444.735,508.672,440.9,506.44v.81l3.835,2.228,3.322-1.931v-.806Z" transform="translate(-4494.49 -5268.627)" fill="#215de8"/>
    <path id="Trazado_117464" data-name="Trazado 117464" d="M448.057,504.312l-3.831-2.232-3.326,1.931,3.835,2.232Z" transform="translate(-4494.49 -5266.198)" fill="url(#linear-gradient-4)"/>
    <path id="Trazado_117465" data-name="Trazado 117465" d="M433.09,502.008l-3.84-2.228v.806l3.84,2.232,3.321-1.931v-.81Z" transform="translate(-4487.999 -5264.917)" fill="#215de8"/>
    <path id="Trazado_117466" data-name="Trazado 117466" d="M436.411,497.642l-3.84-2.232-3.321,1.935,3.84,2.228Z" transform="translate(-4487.999 -5262.481)" fill="url(#linear-gradient-14)"/>
    <path id="Trazado_117467" data-name="Trazado 117467" d="M421.435,495.342,417.6,493.11v.81l3.835,2.228,3.321-1.931v-.806Z" transform="translate(-4481.508 -5261.2)" fill="#215de8"/>
    <path id="Trazado_117468" data-name="Trazado 117468" d="M424.757,490.982l-3.835-2.232-3.321,1.931,3.835,2.232Z" transform="translate(-4481.508 -5258.771)" fill="url(#linear-gradient-4)"/>
    <path id="Trazado_117469" data-name="Trazado 117469" d="M409.785,488.672l-3.835-2.232v.81l3.835,2.232,3.321-1.931v-.81Z" transform="translate(-4475.018 -5257.484)" fill="#215de8"/>
    <path id="Trazado_117470" data-name="Trazado 117470" d="M413.107,484.312l-3.835-2.232-3.321,1.931,3.835,2.232Z" transform="translate(-4475.018 -5255.056)" fill="url(#linear-gradient-8)"/>
    <path id="Trazado_117471" data-name="Trazado 117471" d="M398.135,482.012,394.3,479.78v.81l3.835,2.228,3.321-1.931v-.81Z" transform="translate(-4468.527 -5253.773)" fill="#215de8"/>
    <path id="Trazado_117472" data-name="Trazado 117472" d="M401.457,477.648l-3.835-2.228-3.321,1.931,3.835,2.232Z" transform="translate(-4468.527 -5251.345)" fill="url(#linear-gradient-8)"/>
    <path id="Trazado_117473" data-name="Trazado 117473" d="M386.485,475.348l-3.835-2.228v.806l3.835,2.232,3.321-1.931v-.81Z" transform="translate(-4462.036 -5250.063)" fill="#215de8"/>
    <path id="Trazado_117474" data-name="Trazado 117474" d="M389.807,470.982l-3.835-2.232-3.321,1.935,3.835,2.228Z" transform="translate(-4462.036 -5247.629)" fill="url(#linear-gradient-8)"/>
    <path id="Trazado_117475" data-name="Trazado 117475" d="M374.835,468.682,371,466.45v.81l3.835,2.228,3.321-1.931v-.81Z" transform="translate(-4455.545 -5246.347)" fill="#215de8"/>
    <path id="Trazado_117476" data-name="Trazado 117476" d="M378.157,464.312l-3.835-2.232L371,464.015l3.835,2.232Z" transform="translate(-4455.545 -5243.912)" fill="url(#linear-gradient-27)"/>
    <path id="Trazado_117477" data-name="Trazado 117477" d="M363.175,462.012l-3.835-2.232v.81l3.835,2.232,3.326-1.931v-.81Z" transform="translate(-4449.049 -5242.631)" fill="#215de8"/>
    <path id="Trazado_117478" data-name="Trazado 117478" d="M366.5,457.652l-3.84-2.232-3.321,1.931,3.835,2.232Z" transform="translate(-4449.049 -5240.202)" fill="url(#linear-gradient-14)"/>
    <path id="Trazado_117479" data-name="Trazado 117479" d="M467.945,522.052l-3.835-2.232v.81l3.835,2.232,3.321-1.935v-.806Z" transform="translate(-4507.421 -5276.082)" fill="#215de8"/>
    <path id="Trazado_117480" data-name="Trazado 117480" d="M471.267,517.692l-3.835-2.232-3.321,1.931,3.835,2.232Z" transform="translate(-4507.421 -5273.652)" fill="url(#linear-gradient-10)"/>
    <path id="Trazado_117481" data-name="Trazado 117481" d="M484.935,525.644l-3.321,1.935-6.944-4.039L478,521.61Z" transform="translate(-4513.304 -5277.079)" fill="url(#linear-gradient-30)"/>
    <path id="Trazado_117482" data-name="Trazado 117482" d="M341.65,456.355l-8.6-5,3.321-1.931,8.6,5Z" transform="translate(-4434.402 -5236.859)" fill="url(#linear-gradient-31)"/>
    <path id="Trazado_117483" data-name="Trazado 117483" d="M358.405,466.1l-3.835-2.232,3.321-1.931,3.835,2.228Z" transform="translate(-4446.392 -5243.834)" fill="url(#linear-gradient-4)"/>
    <path id="Trazado_117484" data-name="Trazado 117484" d="M455.255,524.852l-3.835-2.232v.81l3.835,2.232,3.321-1.935v-.806Z" transform="translate(-4500.351 -5277.642)" fill="#215de8"/>
    <path id="Trazado_117485" data-name="Trazado 117485" d="M458.577,520.492l-3.835-2.232-3.321,1.931,3.835,2.232Z" transform="translate(-4500.351 -5275.212)" fill="url(#linear-gradient-10)"/>
    <path id="Trazado_117486" data-name="Trazado 117486" d="M444.5,518.582l-3.835-2.232v.81l3.835,2.232,3.321-1.931v-.81Z" transform="translate(-4494.356 -5274.148)" fill="#215de8"/>
    <path id="Trazado_117487" data-name="Trazado 117487" d="M447.817,514.222l-3.835-2.232-3.321,1.931,3.835,2.232Z" transform="translate(-4494.356 -5271.719)" fill="url(#linear-gradient-10)"/>
    <path id="Trazado_117488" data-name="Trazado 117488" d="M433.735,512.322,429.9,510.09v.81l3.835,2.228,3.321-1.931v-.81Z" transform="translate(-4488.361 -5270.661)" fill="#215de8"/>
    <path id="Trazado_117489" data-name="Trazado 117489" d="M437.057,507.958l-3.835-2.228-3.322,1.931,3.835,2.232Z" transform="translate(-4488.361 -5268.231)" fill="url(#linear-gradient-10)"/>
    <path id="Trazado_117490" data-name="Trazado 117490" d="M422.97,506.052l-3.84-2.232v.81l3.84,2.232,3.321-1.935v-.806Z" transform="translate(-4482.361 -5267.167)" fill="#215de8"/>
    <path id="Trazado_117491" data-name="Trazado 117491" d="M426.291,501.692l-3.84-2.232-3.321,1.931,3.84,2.232Z" transform="translate(-4482.361 -5264.738)" fill="url(#linear-gradient-14)"/>
    <path id="Trazado_117492" data-name="Trazado 117492" d="M412.21,499.788l-3.84-2.228v.806l3.84,2.232,3.321-1.931v-.81Z" transform="translate(-4476.366 -5263.68)" fill="#215de8"/>
    <path id="Trazado_117493" data-name="Trazado 117493" d="M415.531,495.422,411.7,493.19l-3.326,1.935,3.84,2.228Z" transform="translate(-4476.366 -5261.245)" fill="url(#linear-gradient-14)"/>
    <path id="Trazado_117494" data-name="Trazado 117494" d="M401.445,493.522l-3.835-2.232v.81l3.835,2.228,3.326-1.931v-.806Z" transform="translate(-4470.371 -5260.187)" fill="#215de8"/>
    <path id="Trazado_117495" data-name="Trazado 117495" d="M404.771,489.162l-3.84-2.232-3.321,1.931,3.835,2.232Z" transform="translate(-4470.371 -5257.757)" fill="url(#linear-gradient-14)"/>
    <path id="Trazado_117496" data-name="Trazado 117496" d="M390.685,487.252l-3.835-2.232v.81l3.835,2.232,3.321-1.931v-.81Z" transform="translate(-4464.376 -5256.693)" fill="#215de8"/>
    <path id="Trazado_117497" data-name="Trazado 117497" d="M394.007,482.892l-3.835-2.232-3.321,1.931,3.835,2.232Z" transform="translate(-4464.376 -5254.264)" fill="url(#linear-gradient-4)"/>
    <path id="Trazado_117498" data-name="Trazado 117498" d="M379.925,480.992l-3.835-2.232v.806l3.835,2.232,3.321-1.931v-.81Z" transform="translate(-4458.381 -5253.206)" fill="#215de8"/>
    <path id="Trazado_117499" data-name="Trazado 117499" d="M383.247,476.628l-3.835-2.228-3.322,1.931,3.835,2.232Z" transform="translate(-4458.381 -5250.776)" fill="url(#linear-gradient-4)"/>
    <path id="Trazado_117500" data-name="Trazado 117500" d="M369.165,474.722l-3.835-2.232v.81l3.835,2.232,3.321-1.935v-.806Z" transform="translate(-4452.387 -5249.712)" fill="#215de8"/>
    <path id="Trazado_117501" data-name="Trazado 117501" d="M372.487,470.362l-3.835-2.232-3.321,1.931,3.835,2.232Z" transform="translate(-4452.387 -5247.283)" fill="url(#linear-gradient-4)"/>
    <path id="Trazado_117502" data-name="Trazado 117502" d="M471.215,531.707l-8.255-4.8,3.326-1.931,8.25,4.8Z" transform="translate(-4506.78 -5278.957)" fill="url(#linear-gradient-42)"/>
    <path id="Trazado_117503" data-name="Trazado 117503" d="M328.175,461.124l-3.835-2.214v.841c.053,0,3.835,2.214,3.835,2.214l3.321-1.935v-.806Z" transform="translate(-4429.549 -5242.146)" fill="#215de8"/>
    <path id="Trazado_117504" data-name="Trazado 117504" d="M327.621,454.51l-3.321,1.931,3.835,2.214,3.321-1.931Z" transform="translate(-4429.527 -5239.695)" fill="url(#linear-gradient-43)"/>
    <path id="Trazado_117505" data-name="Trazado 117505" d="M338.9,467.384l-3.835-2.214v.784c0,.027,3.835,2.254,3.835,2.254l3.321-1.931v-.828Z" transform="translate(-4435.521 -5245.634)" fill="#215de8"/>
    <path id="Trazado_117506" data-name="Trazado 117506" d="M338.381,460.77,335.06,462.7l3.835,2.214,3.321-1.935Z" transform="translate(-4435.521 -5243.183)" fill="url(#linear-gradient-44)"/>
    <path id="Trazado_117507" data-name="Trazado 117507" d="M349.655,473.634l-3.835-2.214v.784l3.835,2.254,3.321-1.931v-.81Z" transform="translate(-4441.517 -5249.116)" fill="#215de8"/>
    <path id="Trazado_117508" data-name="Trazado 117508" d="M349.141,467l-3.321,1.935,3.835,2.214,3.321-1.931Z" transform="translate(-4441.517 -5246.654)" fill="url(#linear-gradient-45)"/>
    <path id="Trazado_117509" data-name="Trazado 117509" d="M360.17,479.874l-3.84-2.214v.788c0,.022,3.84,2.254,3.84,2.254l3.321-1.935v-.824Z" transform="translate(-4447.373 -5252.593)" fill="#215de8"/>
    <path id="Trazado_117510" data-name="Trazado 117510" d="M359.7,473.26l-3.326,1.931,3.84,2.214,3.321-1.931Z" transform="translate(-4447.395 -5250.141)" fill="url(#linear-gradient-46)"/>
    <path id="Trazado_117511" data-name="Trazado 117511" d="M403.092,498.4l-3.321,1.931L367.34,481.471l3.321-1.931Z" transform="translate(-4453.506 -5253.641)" fill="url(#linear-gradient-47)"/>
    <path id="Trazado_117512" data-name="Trazado 117512" d="M446.505,528.655l-3.835-2.232,1.758-1.023,3.84,2.232Z" transform="translate(-4495.476 -5279.191)" fill="url(#linear-gradient-48)"/>
    <path id="Trazado_117513" data-name="Trazado 117513" d="M457.265,533.773l-3.835-2.232,3.321-1.931,3.835,2.228Z" transform="translate(-4501.471 -5281.536)" fill="url(#linear-gradient-8)"/>
    <path id="Trazado_117514" data-name="Trazado 117514" d="M468.025,541.165l-3.835-2.228,1.763-1.027,3.835,2.232Z" transform="translate(-4507.465 -5286.16)" fill="url(#linear-gradient-50)"/>
    <path id="Trazado_117515" data-name="Trazado 117515" d="M482.935,520.6,479.1,518.37v.81l3.835,2.228,3.321-1.931v-.81Z" transform="translate(-4515.772 -5275.274)" fill="#215de8"/>
    <path id="Trazado_117516" data-name="Trazado 117516" d="M486.3,516.214,482.466,514l-3.286,1.909c-.035,0,3.8,2.254,3.8,2.254Z" transform="translate(-4515.816 -5272.839)" fill="url(#linear-gradient-51)"/>
    <path id="Trazado_117517" data-name="Trazado 117517" d="M471.585,514.012l-3.835-2.232v.81l3.835,2.228,3.321-1.931v-.806Z" transform="translate(-4509.449 -5271.602)" fill="#215de8"/>
    <path id="Trazado_117518" data-name="Trazado 117518" d="M474.951,509.664l-3.835-2.214-3.286,1.909c-.035,0,3.8,2.254,3.8,2.254Z" transform="translate(-4509.493 -5269.19)" fill="url(#linear-gradient-52)"/>
    <path id="Trazado_117519" data-name="Trazado 117519" d="M460.24,507.422l-3.84-2.232V506l3.84,2.228,3.321-1.931v-.81Z" transform="translate(-4503.125 -5267.931)" fill="#215de8"/>
    <path id="Trazado_117520" data-name="Trazado 117520" d="M463.611,503.074l-3.835-2.214-3.286,1.909c-.04.022,3.8,2.254,3.8,2.254Z" transform="translate(-4503.175 -5265.518)" fill="url(#linear-gradient-53)"/>
    <path id="Trazado_117521" data-name="Trazado 117521" d="M448.9,500.827,445.06,498.6v.81l3.835,2.228,3.322-1.931v-.81Z" transform="translate(-4496.808 -5264.259)" fill="#215de8"/>
    <path id="Trazado_117522" data-name="Trazado 117522" d="M452.261,496.484l-3.835-2.214-3.286,1.913c-.035.022,3.8,2.25,3.8,2.25Z" transform="translate(-4496.852 -5261.847)" fill="url(#linear-gradient-54)"/>
    <path id="Trazado_117523" data-name="Trazado 117523" d="M437.55,494.242l-3.84-2.232v.806l3.84,2.232,3.317-1.931v-.81Z" transform="translate(-4490.484 -5260.587)" fill="#215de8"/>
    <path id="Trazado_117524" data-name="Trazado 117524" d="M440.916,489.894l-3.831-2.214-3.286,1.913c-.04.022,3.8,2.25,3.8,2.25Z" transform="translate(-4490.534 -5258.175)" fill="url(#linear-gradient-18)"/>
    <path id="Trazado_117525" data-name="Trazado 117525" d="M426.205,487.647l-3.835-2.228v.81l3.835,2.228,3.321-1.931v-.811Z" transform="translate(-4484.166 -5256.916)" fill="#215de8"/>
    <path id="Trazado_117526" data-name="Trazado 117526" d="M429.571,483.3l-3.835-2.214L422.45,483c-.035.022,3.8,2.25,3.8,2.25Z" transform="translate(-4484.21 -5254.503)" fill="url(#linear-gradient-54)"/>
    <path id="Trazado_117527" data-name="Trazado 117527" d="M414.86,481.058l-3.84-2.228v.806l3.84,2.232,3.321-1.931v-.81Z" transform="translate(-4477.842 -5253.244)" fill="#215de8"/>
    <path id="Trazado_117528" data-name="Trazado 117528" d="M418.226,476.714,414.4,474.5l-3.286,1.913c-.04.022,3.8,2.25,3.8,2.25Z" transform="translate(-4477.892 -5250.833)" fill="url(#linear-gradient-18)"/>
    <path id="Trazado_117529" data-name="Trazado 117529" d="M403.515,474.467l-3.835-2.228v.806l3.835,2.232,3.321-1.931v-.81Z" transform="translate(-4471.524 -5249.573)" fill="#215de8"/>
    <path id="Trazado_117530" data-name="Trazado 117530" d="M406.881,470.124l-3.835-2.214-3.286,1.913c-.035,0,3.8,2.25,3.8,2.25Z" transform="translate(-4471.569 -5247.161)" fill="url(#linear-gradient-58)"/>
    <path id="Trazado_117531" data-name="Trazado 117531" d="M392.165,467.878l-3.835-2.228v.806l3.835,2.232,3.322-1.931v-.81Z" transform="translate(-4465.201 -5245.901)" fill="#215de8"/>
    <path id="Trazado_117532" data-name="Trazado 117532" d="M395.536,463.534,391.7,461.32l-3.282,1.913c-.04,0,3.8,2.25,3.8,2.25Z" transform="translate(-4465.25 -5243.489)" fill="url(#linear-gradient-18)"/>
    <path id="Trazado_117533" data-name="Trazado 117533" d="M380.825,461.288l-3.835-2.228v.806l3.835,2.232,3.321-1.931v-.81Z" transform="translate(-4458.883 -5242.23)" fill="#215de8"/>
    <path id="Trazado_117534" data-name="Trazado 117534" d="M384.191,456.944l-3.835-2.214-3.286,1.891c-.035,0,3.8,2.25,3.8,2.25Z" transform="translate(-4458.927 -5239.817)" fill="url(#linear-gradient-60)"/>
    <path id="Trazado_117535" data-name="Trazado 117535" d="M369.475,454.692l-3.835-2.232v.81l3.835,2.232,3.321-1.931v-.81Z" transform="translate(-4452.559 -5238.553)" fill="#215de8"/>
    <path id="Trazado_117536" data-name="Trazado 117536" d="M372.846,450.354l-3.835-2.214-3.282,1.909c-.04.027,3.8,2.254,3.8,2.254Z" transform="translate(-4452.609 -5236.146)" fill="url(#linear-gradient-18)"/>
    <path id="Trazado_117537" data-name="Trazado 117537" d="M501.355,511.358l-3.835-2.232v-.806l5.85,1.058v.81Z" transform="translate(-4526.035 -5269.675)" fill="#215de8"/>
    <path id="Trazado_117538" data-name="Trazado 117538" d="M501.355,509.077l-3.835-2.228,2.015-1.169,3.835,2.228Z" transform="translate(-4526.035 -5268.204)" fill="url(#linear-gradient-62)"/>
    <path id="Trazado_117539" data-name="Trazado 117539" d="M490.6,505.088l-3.835-2.228v-.81l5.85,1.058v.81Z" transform="translate(-4520.04 -5266.181)" fill="#215de8"/>
    <path id="Trazado_117540" data-name="Trazado 117540" d="M490.6,502.811l-3.835-2.232,2.015-1.169,3.835,2.228Z" transform="translate(-4520.04 -5264.71)" fill="url(#linear-gradient-2)"/>
    <path id="Trazado_117541" data-name="Trazado 117541" d="M479.835,498.822,476,496.59v-.81l5.85,1.063v.806Z" transform="translate(-4514.045 -5262.688)" fill="#215de8"/>
    <path id="Trazado_117542" data-name="Trazado 117542" d="M479.835,496.541,476,494.309l2.015-1.169,3.835,2.232Z" transform="translate(-4514.045 -5261.217)" fill="url(#linear-gradient-2)"/>
    <path id="Trazado_117543" data-name="Trazado 117543" d="M469.075,492.558l-3.835-2.232v-.806l5.846,1.058v.81Z" transform="translate(-4508.05 -5259.2)" fill="#215de8"/>
    <path id="Trazado_117544" data-name="Trazado 117544" d="M469.075,490.281l-3.835-2.232,2.015-1.169,3.831,2.228Z" transform="translate(-4508.05 -5257.729)" fill="url(#linear-gradient-65)"/>
    <path id="Trazado_117545" data-name="Trazado 117545" d="M458.315,486.292l-3.835-2.232v-.81l5.85,1.058v.81Z" transform="translate(-4502.056 -5255.707)" fill="#215de8"/>
    <path id="Trazado_117546" data-name="Trazado 117546" d="M458.315,484.011l-3.835-2.232,2.015-1.169,3.835,2.228Z" transform="translate(-4502.056 -5254.236)" fill="url(#linear-gradient-66)"/>
    <path id="Trazado_117547" data-name="Trazado 117547" d="M447.555,480.028,443.72,477.8v-.806l5.85,1.058v.806Z" transform="translate(-4496.061 -5252.219)" fill="#215de8"/>
    <path id="Trazado_117548" data-name="Trazado 117548" d="M447.555,477.741l-3.835-2.228,2.015-1.174,3.835,2.232Z" transform="translate(-4496.061 -5250.743)" fill="url(#linear-gradient-66)"/>
    <path id="Trazado_117549" data-name="Trazado 117549" d="M436.8,473.758l-3.835-2.232v-.806l5.85,1.058v.81Z" transform="translate(-4490.066 -5248.726)" fill="#215de8"/>
    <path id="Trazado_117550" data-name="Trazado 117550" d="M436.8,471.481l-3.835-2.232,2.011-1.169,3.84,2.228Z" transform="translate(-4490.066 -5247.255)" fill="url(#linear-gradient-68)"/>
    <path id="Trazado_117551" data-name="Trazado 117551" d="M426.035,467.492,422.2,465.26v-.81l5.846,1.063v.806Z" transform="translate(-4484.071 -5245.233)" fill="#215de8"/>
    <path id="Trazado_117552" data-name="Trazado 117552" d="M426.035,465.211l-3.835-2.232,2.011-1.169,3.835,2.232Z" transform="translate(-4484.071 -5243.762)" fill="url(#linear-gradient-65)"/>
    <path id="Trazado_117553" data-name="Trazado 117553" d="M415.275,461.228,411.44,459v-.806l5.846,1.058v.81Z" transform="translate(-4478.076 -5241.745)" fill="#215de8"/>
    <path id="Trazado_117554" data-name="Trazado 117554" d="M415.275,458.946l-3.835-2.232,2.011-1.174,3.835,2.232Z" transform="translate(-4478.076 -5240.269)" fill="url(#linear-gradient-70)"/>
    <path id="Trazado_117555" data-name="Trazado 117555" d="M404.515,454.962l-3.835-2.232v-.81l5.846,1.058v.81Z" transform="translate(-4472.082 -5238.252)" fill="#215de8"/>
    <path id="Trazado_117556" data-name="Trazado 117556" d="M404.515,452.681l-3.835-2.232,2.011-1.169,3.835,2.228Z" transform="translate(-4472.082 -5236.781)" fill="url(#linear-gradient-65)"/>
    <path id="Trazado_117557" data-name="Trazado 117557" d="M393.755,448.692l-3.835-2.232v-.81l5.846,1.063v.81Z" transform="translate(-4466.087 -5234.759)" fill="#215de8"/>
    <path id="Trazado_117558" data-name="Trazado 117558" d="M393.755,446.411l-3.835-2.232,2.011-1.169,3.835,2.232Z" transform="translate(-4466.087 -5233.288)" fill="url(#linear-gradient-65)"/>
    <path id="Trazado_117559" data-name="Trazado 117559" d="M291.9,395.08,336.731,369.2l-27.05-15.62L264.85,379.461Z" transform="translate(-4396.405 -5183.463)" fill="#fdfefe"/>
    <path id="Trazado_117560" data-name="Trazado 117560" d="M450.746,370.35,500.4,399.225s11.2-8.556,17.9-10.469L465.533,358.07a76.191,76.191,0,0,0-17.856,10.354A35.3,35.3,0,0,0,450.746,370.35Z" transform="translate(-4498.264 -5185.964)" fill="#138cfa"/>
    <g id="Grupo_87867" data-name="Grupo 87867" transform="translate(-4047.54 -4815.649)" opacity="0.31">
      <path id="Trazado_117561" data-name="Trazado 117561" d="M454.6,385.72c4.229,2.25,8.476,4.464,12.648,6.811l6.28,3.5,6.231,3.543q6.253,3.543,12.4,7.214l6.2,3.654c2.064,1.209,4.092,2.484,6.138,3.725l-.784.443a9.047,9.047,0,0,1,.886-.886c.159-.137.332-.266.487-.376l.39-.266,1.563-1.063c1.027-.726,2.112-1.368,3.189-2.019l1.616-.974c.531-.332,1.1-.6,1.656-.886l3.326-1.771c.036.075-3.211,1.966-3.211,1.966-.536.323-1.089.611-1.608.965l-1.572,1.036c-1.041.7-2.1,1.364-3.1,2.108L504.3,414.63c-.089.053-49.742-28.839-49.742-28.839Z" transform="translate(-454.56 -385.72)" fill="#2075fb"/>
    </g>
    <path id="Trazado_117562" data-name="Trazado 117562" d="M584.64,427.315a76.373,76.373,0,0,0-17.9,10.412v3.689l17.98-10.447V427.28Z" transform="translate(-4564.6 -5224.524)" fill="#2358f9"/>
    <path id="Trazado_117563" data-name="Trazado 117563" d="M450.615,383.477l-3.175-1.847v3.68l52.847,30.73v-3.689Z" transform="translate(-4498.133 -5199.091)" fill="#215de8"/>
    <path id="Trazado_117564" data-name="Trazado 117564" d="M519.18,352.18V374a1.816,1.816,0,0,0,1.063,1.492,5.637,5.637,0,0,0,5.133,0A1.816,1.816,0,0,0,526.438,374V352.18Z" transform="translate(-4538.103 -5182.683)" fill="#2075fb"/>
    <path id="Trazado_117565" data-name="Trazado 117565" d="M562,398.923l-3.366-1.957v-.846L562,398.077Z" transform="translate(-4560.082 -5207.164)" fill="#138cfa"/>
    <path id="Trazado_117566" data-name="Trazado 117566" d="M571.69,404.558l-3.37-1.962v-.846l3.37,1.962Z" transform="translate(-4565.48 -5210.3)" fill="#138cfa"/>
    <path id="Trazado_117567" data-name="Trazado 117567" d="M581.38,410.193l-3.37-1.957v-.846l3.37,1.962Z" transform="translate(-4570.879 -5213.442)" fill="#138cfa"/>
    <path id="Trazado_117568" data-name="Trazado 117568" d="M493.872,206.317l-91.114-52.993a2.077,2.077,0,0,0-1.386-.323,18.17,18.17,0,0,0-2.622,1.444l1.484,2.786v60.012a5.624,5.624,0,0,0,2.524,4.4l89.989,52.342.474,2.183,1.971-1.209c.717-.1,1.2-.74,1.2-1.794V210.723A5.625,5.625,0,0,0,493.872,206.317Z" transform="translate(-4471.006 -5071.704)" fill="#138cfa"/>
    <path id="Trazado_117569" data-name="Trazado 117569" d="M490.942,277.4l-91.127-52.988a5.629,5.629,0,0,1-2.524-4.406V157.566a1.882,1.882,0,0,1,.629-1.577,1.7,1.7,0,0,1,1.9.106l91.127,52.988a5.624,5.624,0,0,1,2.524,4.4v62.443C493.467,277.559,492.337,278.214,490.942,277.4Z" transform="translate(-4470.189 -5073.244)" fill="#138cfa"/>
    <path id="Trazado_117570" data-name="Trazado 117570" d="M493.734,214.61v60.065c-.036.886-.673,1.244-1.466.775l-91.123-52.988a3.255,3.255,0,0,1-1.466-2.555V159.912a.943.943,0,0,1,.536-.983,1.054,1.054,0,0,1,.943.133l91.11,53.01A3.255,3.255,0,0,1,493.734,214.61Z" transform="translate(-4471.519 -5074.984)" fill="#138cfa"/>
    <path id="Trazado_117571" data-name="Trazado 117571" d="M494.409,214.6v60.07a1.1,1.1,0,0,1-.939-.159l-91.114-52.988a3.268,3.268,0,0,1-1.466-2.555V158.931a1.054,1.054,0,0,1,.943.137l91.114,52.979A3.255,3.255,0,0,1,494.409,214.6Z" transform="translate(-4472.198 -5074.985)" fill="#0b255f"/>
    <path id="Trazado_117577" data-name="Trazado 117577" d="M425.175,229.218,407.23,218.859V215.6l17.945,10.363Z" transform="translate(-4475.731 -5106.589)" fill="#138cfa"/>
    <g id="Grupo_141563" data-name="Grupo 141563" transform="translate(-4068.501 -4911.01)">
      <path id="Trazado_117572" data-name="Trazado 117572" d="M439.758,192.427,407.23,173.645V170.39l32.528,18.782Z" transform="translate(-407.23 -170.39)" fill="#138cfa"/>
      <path id="Trazado_117573" data-name="Trazado 117573" d="M520.071,238.8l-15.451-8.924V226.62l15.451,8.919Z" transform="translate(-461.49 -201.719)" fill="#138cfa"/>
      <path id="Trazado_117574" data-name="Trazado 117574" d="M422.394,211.425l-15.164-8.755V199.41l15.164,8.755Z" transform="translate(-407.23 -186.559)" fill="#138cfa"/>
      <path id="Trazado_117575" data-name="Trazado 117575" d="M454.3,229.847l-6.55-3.782V222.81l6.55,3.782Z" transform="translate(-429.805 -199.595)" fill="#138cfa"/>
      <path id="Trazado_117576" data-name="Trazado 117576" d="M473.395,240.871l-6.085-3.516V234.1l6.085,3.516Z" transform="translate(-440.703 -205.886)" fill="#138cfa"/>
      <path id="Trazado_117578" data-name="Trazado 117578" d="M459.142,248.834l-6.182-3.569V242.01l6.182,3.569Z" transform="translate(-432.708 -210.293)" fill="#fc9a06"/>
      <path id="Trazado_117579" data-name="Trazado 117579" d="M433.536,250.235,407.23,235.049V231.79l26.306,15.19Z" transform="translate(-407.23 -204.599)" fill="#fc9a06"/>
      <path id="Trazado_117580" data-name="Trazado 117580" d="M473.046,273.054l-8.746-5.049V264.75l8.746,5.049Z" transform="translate(-439.026 -222.962)" fill="#138cfa"/>
      <path id="Trazado_117581" data-name="Trazado 117581" d="M496.269,286.458l-7.139-4.119V279.08l7.139,4.123Z" transform="translate(-452.859 -230.946)" fill="#138cfa"/>
      <path id="Trazado_117582" data-name="Trazado 117582" d="M424.621,261.279l-17.391-10.04V247.98l17.391,10.044Z" transform="translate(-407.23 -213.619)" fill="#138cfa"/>
      <path id="Trazado_117583" data-name="Trazado 117583" d="M457.936,280.515l-6.036-3.485V273.77l6.036,3.49Z" transform="translate(-432.117 -227.988)" fill="#138cfa"/>
      <path id="Trazado_117584" data-name="Trazado 117584" d="M425.941,278.236l-18.711-10.8V264.18l18.711,10.8Z" transform="translate(-407.23 -222.645)" fill="#138cfa"/>
      <path id="Trazado_117585" data-name="Trazado 117585" d="M458.057,296.776l-5.1-2.941V290.58l5.1,2.941Z" transform="translate(-432.708 -237.353)" fill="#138cfa"/>
      <path id="Trazado_117586" data-name="Trazado 117586" d="M477.978,308.277l-8.7-5.022V300l8.7,5.022Z" transform="translate(-441.8 -242.601)" fill="#fc9a06"/>
      <path id="Trazado_117587" data-name="Trazado 117587" d="M425.042,293.908,407.23,283.625V280.37l17.812,10.283Z" transform="translate(-407.23 -231.665)" fill="#138cfa"/>
      <path id="Trazado_117588" data-name="Trazado 117588" d="M457.673,312.752l-8.033-4.637V304.86l8.033,4.637Z" transform="translate(-430.858 -245.309)" fill="#fc9a06"/>
      <path id="Trazado_117589" data-name="Trazado 117589" d="M451.228,210.917l-44-25.4V182.26l44,25.4Z" transform="translate(-407.23 -177.004)" fill="#138cfa"/>
      <path id="Trazado_117590" data-name="Trazado 117590" d="M539.616,261.947,515.75,248.165V244.91l23.866,13.782Z" transform="translate(-467.691 -211.908)" fill="#138cfa"/>
    </g>
    <path id="Trazado_117591" data-name="Trazado 117591" d="M591.08,415.833l-3.37-1.957v-.846l3.37,1.957Z" transform="translate(-4576.283 -5216.585)" fill="#138cfa"/>
    <path id="Trazado_117592" data-name="Trazado 117592" d="M582.356,410.633l-3.366-1.957v-.846l3.366,1.957Z" transform="translate(-4571.425 -5213.688)" fill="#138cfa"/>
    <path id="Trazado_117593" data-name="Trazado 117593" d="M602.217,421.515c0,.828-.576,1.165-1.289.748a2.874,2.874,0,0,1-1.289-2.25c0-.828.576-1.165,1.289-.748A2.87,2.87,0,0,1,602.217,421.515Z" transform="translate(-4582.93 -5219.959)" fill="#2075fb"/>
    <path id="Trazado_117594" data-name="Trazado 117594" d="M600.439,422.228a1.993,1.993,0,0,1-1-.288,3.7,3.7,0,0,1-1.709-2.985,1.634,1.634,0,0,1,2.551-1.484,3.711,3.711,0,0,1,1.709,2.985A1.6,1.6,0,0,1,600.439,422.228Zm-1.023-3.3a2.024,2.024,0,0,0,.886,1.546,1.931,1.931,0,0,0-.841-1.532Z" transform="translate(-4581.864 -5218.9)" fill="#138cfa"/>
    <path id="Trazado_117595" data-name="Trazado 117595" d="M688.044,507.86,737.7,536.735s11.2-8.556,17.9-10.469L702.831,495.58A76.067,76.067,0,0,0,685,505.952a35.272,35.272,0,0,0,3.069,1.922Z" transform="translate(-4630.484 -5262.576)" fill="#138cfa"/>
    <g id="Grupo_87868" data-name="Grupo 87868" transform="translate(-3942.445 -4754.751)" opacity="0.31">
      <path id="Trazado_117596" data-name="Trazado 117596" d="M691.9,523.23c4.225,2.25,8.472,4.464,12.648,6.811l6.275,3.485,6.236,3.543q6.244,3.543,12.4,7.214l6.2,3.654c2.064,1.209,4.092,2.489,6.138,3.724l-.784.443a9.047,9.047,0,0,1,.886-.886c.159-.133.328-.266.487-.376l.39-.266,1.563-1.058c1.027-.731,2.112-1.368,3.189-2.019l1.612-.979c.536-.332,1.107-.6,1.656-.886l3.326-1.771c.04.075-3.206,1.966-3.206,1.966-.536.328-1.094.616-1.612.965l-1.572,1.076c-1.041.7-2.1,1.364-3.1,2.108l-3.016,2.161c-.089.053-49.742-28.835-49.742-28.835Z" transform="translate(-691.87 -523.23)" fill="#2075fb"/>
    </g>
    <path id="Trazado_117597" data-name="Trazado 117597" d="M821.9,564.825A76.3,76.3,0,0,0,804,575.241v3.685l17.976-10.447V564.79Z" transform="translate(-4696.787 -5301.136)" fill="#2358f9"/>
    <path id="Trazado_117598" data-name="Trazado 117598" d="M687.885,520.992l-3.175-1.842v3.676l52.829,30.73v-3.689Z" transform="translate(-4630.326 -5275.708)" fill="#215de8"/>
    <path id="Trazado_117599" data-name="Trazado 117599" d="M756.45,489.7v21.833a1.816,1.816,0,0,0,1.063,1.492,5.637,5.637,0,0,0,5.133,0,1.825,1.825,0,0,0,1.063-1.492V489.7Z" transform="translate(-4670.295 -5259.301)" fill="#2075fb"/>
    <path id="Trazado_117600" data-name="Trazado 117600" d="M799.266,536.433l-3.366-1.957v-.846l3.366,1.957Z" transform="translate(-4692.274 -5283.776)" fill="#138cfa"/>
    <path id="Trazado_117601" data-name="Trazado 117601" d="M808.96,542.073l-3.37-1.957v-.846l3.37,1.957Z" transform="translate(-4697.673 -5286.918)" fill="#138cfa"/>
    <path id="Trazado_117602" data-name="Trazado 117602" d="M818.65,547.708l-3.37-1.962V544.9l3.37,1.962Z" transform="translate(-4703.071 -5290.055)" fill="#138cfa"/>
    <path id="Trazado_117603" data-name="Trazado 117603" d="M731.142,343.83l-91.114-52.993a2.046,2.046,0,0,0-1.386-.319,17.517,17.517,0,0,0-2.622,1.439l1.484,2.786v60.012a5.624,5.624,0,0,0,2.524,4.4L730.021,411.5l.474,2.183,1.971-1.209c.717-.1,1.2-.735,1.2-1.771V348.259A5.625,5.625,0,0,0,731.142,343.83Z" transform="translate(-4603.199 -5148.319)" fill="#138cfa"/>
    <path id="Trazado_117604" data-name="Trazado 117604" d="M728.206,414.94l-91.1-53.006a5.633,5.633,0,0,1-2.524-4.4V295.088a1.873,1.873,0,0,1,.633-1.577,1.7,1.7,0,0,1,1.891.111l91.1,52.979a5.637,5.637,0,0,1,2.52,4.4v62.443C730.743,415.077,729.614,415.737,728.206,414.94Z" transform="translate(-4602.393 -5149.864)" fill="#138cfa"/>
    <path id="Trazado_117605" data-name="Trazado 117605" d="M731.026,352.12v60.07c-.035.886-.673,1.24-1.466.775l-91.114-52.979a3.273,3.273,0,0,1-1.457-2.569V297.422a.952.952,0,0,1,.527-.983,1.045,1.045,0,0,1,.939.133l91.092,52.993A3.242,3.242,0,0,1,731.026,352.12Z" transform="translate(-4603.734 -5151.596)" fill="#138cfa"/>
    <path id="Trazado_117606" data-name="Trazado 117606" d="M731.679,352.106v60.065a1.085,1.085,0,0,1-.939-.159l-91.114-52.988a3.255,3.255,0,0,1-1.466-2.555V296.421a1.045,1.045,0,0,1,.939.137L730.2,349.546A3.255,3.255,0,0,1,731.679,352.106Z" transform="translate(-4604.192 -5151.579)" fill="#0b255f"/>
    <path id="Trazado_117615" data-name="Trazado 117615" d="M828.346,553.343l-3.366-1.958v-.846l3.366,1.962Z" transform="translate(-4708.476 -5293.197)" fill="#138cfa"/>
    <path id="Trazado_117616" data-name="Trazado 117616" d="M819.62,548.143l-3.37-1.957v-.846l3.37,1.957Z" transform="translate(-4703.612 -5290.3)" fill="#138cfa"/>
    <path id="Trazado_117617" data-name="Trazado 117617" d="M839.487,559.028c0,.828-.58,1.165-1.289.748a2.87,2.87,0,0,1-1.289-2.25c0-.828.576-1.16,1.289-.748A2.887,2.887,0,0,1,839.487,559.028Z" transform="translate(-4715.123 -5296.574)" fill="#2075fb"/>
    <path id="Trazado_117618" data-name="Trazado 117618" d="M837.7,559.742a2,2,0,0,1-.992-.292A3.7,3.7,0,0,1,835,556.465a1.634,1.634,0,0,1,2.551-1.484,3.715,3.715,0,0,1,1.71,2.985A1.606,1.606,0,0,1,837.7,559.742Zm-1.023-3.308a2.042,2.042,0,0,0,.886,1.55,1.944,1.944,0,0,0-.841-1.532Z" transform="translate(-4714.057 -5295.513)" fill="#138cfa"/>
    <path id="Trazado_117619" data-name="Trazado 117619" d="M174.071,553.549l-8.822,36.142s-3.1,2.848-3.986,2.75c-.266-.1-.3-.346-.159-.815.8-2.631,2.949-4.026,3.481-7.427.394-2.48,5.053-20.42,7.555-29.96.766-2.932-.8-4.65-3.1-3.392l-3.472,1.918c-11.3,6.253-30.628,17.13-32.887,19.521-3.22,3.406-10.186,12.068-10.186,12.068s-1.231.855-1.4.319c-.08-.252.08-.819.731-1.94a105.706,105.706,0,0,1,8.888-10.655l.279-.27c.23-.217.443-.443.673-.624l.328-.283.314-.261c.288-.23.421-.328.549-.443.319-.221.474-.319.624-.407L166.024,551l3.543-2.046a5.707,5.707,0,0,1,.979-.443,4.1,4.1,0,0,1,1.249-.195C174.35,548.275,175.869,550.241,174.071,553.549Z" transform="translate(-4316.304 -5291.959)" fill="#138cfa"/>
    <path id="Trazado_117620" data-name="Trazado 117620" d="M214.821,556.9c-2.5,9.539-7.161,27.457-7.555,29.959-.531,3.4-2.679,4.8-3.481,7.427-.142.469-.106.713.062.788-.841-.213-6.842-1.82-6.089-4.269.8-2.631,2.945-4.026,3.481-7.427.363-2.316,4.451-18.1,7.028-27.953l3.472-1.918C214.024,552.248,215.588,553.966,214.821,556.9Z" transform="translate(-4358.989 -5294.617)" fill="#215de8"/>
    <path id="Trazado_117621" data-name="Trazado 117621" d="M164.226,544.409a3.327,3.327,0,0,0-1.249.195,5.7,5.7,0,0,0-.979.443l-3.543,2.046-32.541,18.786c-.151.089-.306.186-.465.3-.288.2-.421.3-.554.407l-.469.385-.332.31c-.221.195-.443.407-.673.624l-.279.27a103.139,103.139,0,0,0-8.888,10.655c-.651,1.12-.81,1.687-.731,1.94,0,.022-5.62-3.317-5.62-3.317-.487.093-.757-.239.319-2.108,0,0,7.772-10.673,11.656-12.918l36.1-20.832a3.227,3.227,0,0,1,2.719-.053l2.019,1.054Z" transform="translate(-4308.726 -5288.032)" fill="#138cfa"/>
    <path id="Trazado_117622" data-name="Trazado 117622" d="M278.785,706.91l-.443,26.306L275.88,730.6Z" transform="translate(-4402.55 -5380.317)" fill="#2075fb"/>
    <g id="Grupo_87869" data-name="Grupo 87869" transform="translate(-4248.847 -4873.93)" clip-path="url(#clip-path)">
      <path id="Trazado_117623" data-name="Trazado 117623" d="M388.611,940.84a1.772,1.772,0,0,1-.531.306Z" transform="translate(-216.215 -636.719)" fill="#1e73be"/>
      <path id="Trazado_117624" data-name="Trazado 117624" d="M370.491,937.147a2.867,2.867,0,0,1-.846,2.25,2.472,2.472,0,0,1-2.905-.084,8.293,8.293,0,0,1-3.751-6.492,3.544,3.544,0,0,1,.31-1.541,1.913,1.913,0,0,1,1.116-1.032,2.865,2.865,0,0,1,2.325.407,6.194,6.194,0,0,1,1.1.828,8.857,8.857,0,0,1,2.48,4.3,6.13,6.13,0,0,1,.159,1.107C370.486,936.974,370.491,937.063,370.491,937.147Z" transform="translate(-202.235 -630.767)" fill="#2075fb"/>
      <path id="Trazado_117625" data-name="Trazado 117625" d="M371.183,933.074a3.544,3.544,0,0,1-.31,1.541,6.124,6.124,0,0,0-.159-1.107,8.857,8.857,0,0,0-2.48-4.3,6.2,6.2,0,0,0-1.1-.828,2.878,2.878,0,0,0-2.321-.412,1.931,1.931,0,0,0-1.12,1.036v-.266a2.45,2.45,0,0,1,1.426-2.568,2.8,2.8,0,0,1,2.214.345,6.15,6.15,0,0,1,1.209.886,8.857,8.857,0,0,1,2.48,4.3,5.928,5.928,0,0,1,.164,1.373Z" transform="translate(-202.626 -628.497)" fill="#138cfa"/>
      <path id="Trazado_117626" data-name="Trazado 117626" d="M377.663,926.949a3.57,3.57,0,0,1-.31,1.546,2.01,2.01,0,0,1-.536.7l-.531.306-3.614,2.086V931.2a3.542,3.542,0,0,0,.31-1.541,5.93,5.93,0,0,0-.168-1.368,8.857,8.857,0,0,0-2.48-4.3,5.836,5.836,0,0,0-1.1-.828,2.921,2.921,0,0,0-2.321-.412l4.07-2.347a2.45,2.45,0,0,1,2.936.053A8.288,8.288,0,0,1,377.663,926.949Z" transform="translate(-204.42 -625.077)" fill="#138cfa"/>
      <path id="Trazado_117627" data-name="Trazado 117627" d="M383.54,939.5a2.83,2.83,0,0,1-.846,2.25l-.531.31L378,944.442a2.741,2.741,0,0,0,.841-2.117l3.614-2.086.531-.306a2.01,2.01,0,0,0,.536-.7A1.873,1.873,0,0,1,383.54,939.5Z" transform="translate(-210.599 -635.822)" fill="#215de8"/>
      <path id="Trazado_117628" data-name="Trazado 117628" d="M186.2,824a1.774,1.774,0,0,1-.531.306Z" transform="translate(-103.444 -571.623)" fill="#1e73be"/>
      <path id="Trazado_117629" data-name="Trazado 117629" d="M168.081,820.287a2.889,2.889,0,0,1-.846,2.25,2.472,2.472,0,0,1-2.905-.084,8.294,8.294,0,0,1-3.751-6.5,3.544,3.544,0,0,1,.31-1.537A1.9,1.9,0,0,1,162,813.387a2.865,2.865,0,0,1,2.325.407,6.2,6.2,0,0,1,1.1.828,8.857,8.857,0,0,1,2.48,4.3,6.123,6.123,0,0,1,.159,1.107C168.076,820.114,168.081,820.2,168.081,820.287Z" transform="translate(-89.464 -565.66)" fill="#2075fb"/>
      <path id="Trazado_117630" data-name="Trazado 117630" d="M168.773,816.2a3.544,3.544,0,0,1-.31,1.541,6.126,6.126,0,0,0-.159-1.107,8.857,8.857,0,0,0-2.48-4.3,6.193,6.193,0,0,0-1.1-.828,2.878,2.878,0,0,0-2.321-.412,1.913,1.913,0,0,0-1.12,1.036q0-.133,0-.266a2.457,2.457,0,0,1,1.426-2.573,2.808,2.808,0,0,1,2.214.35,6.3,6.3,0,0,1,1.209.886,8.858,8.858,0,0,1,2.48,4.3,5.929,5.929,0,0,1,.164,1.373Z" transform="translate(-89.855 -563.381)" fill="#138cfa"/>
      <path id="Trazado_117631" data-name="Trazado 117631" d="M175.253,810.088a3.57,3.57,0,0,1-.31,1.546,2.011,2.011,0,0,1-.536.7l-.531.306-3.614,2.086v-.394a3.543,3.543,0,0,0,.31-1.541,5.93,5.93,0,0,0-.168-1.368,8.857,8.857,0,0,0-2.48-4.3,5.989,5.989,0,0,0-1.1-.828,2.9,2.9,0,0,0-2.321-.412l4.07-2.352a2.456,2.456,0,0,1,2.936.058A8.276,8.276,0,0,1,175.253,810.088Z" transform="translate(-91.649 -559.969)" fill="#138cfa"/>
      <path id="Trazado_117632" data-name="Trazado 117632" d="M181.141,822.677a2.834,2.834,0,0,1-.846,2.25l-.531.306-4.154,2.4a2.763,2.763,0,0,0,.841-2.117l3.614-2.086.531-.306a2.013,2.013,0,0,0,.536-.7C181.137,822.491,181.141,822.579,181.141,822.677Z" transform="translate(-97.839 -570.742)" fill="#215de8"/>
      <path id="Trazado_117633" data-name="Trazado 117633" d="M186.2,940.84a1.771,1.771,0,0,1-.531.306Z" transform="translate(-103.444 -636.719)" fill="#1e73be"/>
      <path id="Trazado_117634" data-name="Trazado 117634" d="M168.081,937.147a2.882,2.882,0,0,1-.846,2.25,2.472,2.472,0,0,1-2.905-.084,8.293,8.293,0,0,1-3.751-6.492,3.543,3.543,0,0,1,.31-1.541A1.913,1.913,0,0,1,162,930.247a2.866,2.866,0,0,1,2.325.407,6.2,6.2,0,0,1,1.1.828,8.858,8.858,0,0,1,2.48,4.3,6.126,6.126,0,0,1,.159,1.107C168.076,936.974,168.081,937.063,168.081,937.147Z" transform="translate(-89.464 -630.767)" fill="#2075fb"/>
      <path id="Trazado_117635" data-name="Trazado 117635" d="M168.773,933.074a3.544,3.544,0,0,1-.31,1.541,6.128,6.128,0,0,0-.159-1.107,8.857,8.857,0,0,0-2.48-4.3,6.2,6.2,0,0,0-1.1-.828,2.879,2.879,0,0,0-2.321-.412,1.931,1.931,0,0,0-1.12,1.036q0-.133,0-.266a2.45,2.45,0,0,1,1.426-2.568,2.8,2.8,0,0,1,2.214.345,6.288,6.288,0,0,1,1.209.886,8.858,8.858,0,0,1,2.48,4.3,5.931,5.931,0,0,1,.164,1.373Z" transform="translate(-89.855 -628.497)" fill="#138cfa"/>
      <path id="Trazado_117636" data-name="Trazado 117636" d="M175.253,926.949a3.57,3.57,0,0,1-.31,1.546,2.01,2.01,0,0,1-.536.7l-.531.306-3.614,2.086V931.2a3.542,3.542,0,0,0,.31-1.541,5.929,5.929,0,0,0-.168-1.368,8.857,8.857,0,0,0-2.48-4.3,5.985,5.985,0,0,0-1.1-.828,2.921,2.921,0,0,0-2.321-.412l4.07-2.347a2.448,2.448,0,0,1,2.936.053A8.276,8.276,0,0,1,175.253,926.949Z" transform="translate(-91.649 -625.077)" fill="#138cfa"/>
      <path id="Trazado_117637" data-name="Trazado 117637" d="M181.141,939.5a2.83,2.83,0,0,1-.846,2.25l-.531.31-4.154,2.387a2.759,2.759,0,0,0,.841-2.117l3.614-2.086.531-.306a2.01,2.01,0,0,0,.536-.7C181.137,939.323,181.141,939.411,181.141,939.5Z" transform="translate(-97.839 -635.822)" fill="#215de8"/>
      <path id="Trazado_117638" data-name="Trazado 117638" d="M388.611,824a1.774,1.774,0,0,1-.531.306Z" transform="translate(-216.215 -571.623)" fill="#1e73be"/>
      <path id="Trazado_117639" data-name="Trazado 117639" d="M370.491,820.287a2.874,2.874,0,0,1-.846,2.25,2.472,2.472,0,0,1-2.905-.084,8.293,8.293,0,0,1-3.751-6.5,3.543,3.543,0,0,1,.31-1.537,1.9,1.9,0,0,1,1.116-1.032,2.865,2.865,0,0,1,2.325.407,6.2,6.2,0,0,1,1.1.828,8.858,8.858,0,0,1,2.48,4.3,6.122,6.122,0,0,1,.159,1.107C370.486,820.114,370.491,820.2,370.491,820.287Z" transform="translate(-202.235 -565.66)" fill="#2075fb"/>
      <path id="Trazado_117640" data-name="Trazado 117640" d="M371.183,816.2a3.544,3.544,0,0,1-.31,1.541,6.122,6.122,0,0,0-.159-1.107,8.858,8.858,0,0,0-2.48-4.3,6.2,6.2,0,0,0-1.1-.828,2.878,2.878,0,0,0-2.321-.412,1.913,1.913,0,0,0-1.12,1.036v-.266a2.457,2.457,0,0,1,1.426-2.573,2.808,2.808,0,0,1,2.214.35,6.155,6.155,0,0,1,1.209.886,8.858,8.858,0,0,1,2.48,4.3,5.925,5.925,0,0,1,.164,1.373Z" transform="translate(-202.626 -563.381)" fill="#138cfa"/>
      <path id="Trazado_117641" data-name="Trazado 117641" d="M377.663,810.088a3.569,3.569,0,0,1-.31,1.545,2.01,2.01,0,0,1-.536.7l-.531.306-3.614,2.086v-.394a3.543,3.543,0,0,0,.31-1.541,5.93,5.93,0,0,0-.168-1.368,8.857,8.857,0,0,0-2.48-4.3,5.837,5.837,0,0,0-1.1-.828,2.9,2.9,0,0,0-2.321-.412l4.07-2.352a2.458,2.458,0,0,1,2.936.058A8.288,8.288,0,0,1,377.663,810.088Z" transform="translate(-204.42 -559.969)" fill="#138cfa"/>
      <path id="Trazado_117642" data-name="Trazado 117642" d="M383.54,822.66a2.834,2.834,0,0,1-.846,2.25l-.531.306L378,827.6a2.75,2.75,0,0,0,.841-2.117l3.614-2.086.531-.305a2.011,2.011,0,0,0,.536-.7A1.737,1.737,0,0,1,383.54,822.66Z" transform="translate(-210.599 -570.726)" fill="#215de8"/>
      <path id="Trazado_117643" data-name="Trazado 117643" d="M264.482,797.581c-.443-.093-1.842-1.271-2.414-1.391-13.879-2.914-29.955.886-46.031,10.155s-32.285,24.092-46.217,43.1c-1.134,1.541-1.47,3.383-.775,4.07.5.5,2.077,1.058,2.414,1.395.717.713,2.126.071,3.184-1.373,13.206-18.02,28.5-32.041,43.8-40.849s30.469-12.4,43.622-9.623c1.063.221,2.467-.762,3.162-2.254S265.62,797.82,264.482,797.581Z" transform="translate(-93.981 -555.593)" fill="#2075fb"/>
      <path id="Trazado_117644" data-name="Trazado 117644" d="M264.482,852.6c-13.884-18.941-29.955-33.7-46.035-43s-32.285-13.188-46.217-10.265c-.567.12-1.966,1.3-2.409,1.4-1.134.235-1.47,1.687-.775,3.175s2.126,2.529,3.189,2.307c13.2-2.768,28.5.886,43.8,9.743s30.469,22.8,43.622,40.743c1.058,1.448,2.467,2.09,3.158,1.4.363-.359,1.94-.921,2.414-1.4C265.953,855.98,265.62,854.142,264.482,852.6Z" transform="translate(-93.981 -557.351)" fill="#2075fb"/>
      <path id="Trazado_117645" data-name="Trazado 117645" d="M272.742,759.25a4.991,4.991,0,0,1-4.508,0c-.926-.531-1.165-1.329-.713-1.975V702.75l6.027,3.481v51.2C273.863,758.054,273.593,758.758,272.742,759.25Z" transform="translate(-148.923 -504.07)" fill="#215de8"/>
      <path id="Trazado_117646" data-name="Trazado 117646" d="M240.79,460.955s7.041,1.253,9.366.624a69.246,69.246,0,0,1,10.925-1.723,6.67,6.67,0,0,0,2.688-.306l13.06-6.147,10.137-3.893s5.252.589,7.157,0,3.454-.97,2.679.562a5.892,5.892,0,0,1-4.641,2.679,6.643,6.643,0,0,0-2.657.647l7.653.4s.655,3.038-1.546,3.038-7.971.443-7.971.443a18.128,18.128,0,0,0-5.155,3.844A22.7,22.7,0,0,0,279,466.132s1.236,2.272,4.752,1.541,5.013,1.479,5.013,2.626-2.564,2.768-4.079,2.5-2.883-1.125-3.29-1.1-1.639.531-5.872-.2-8.8-2.679-10.629-2.715a53.705,53.705,0,0,0-5.757.5s-24.76,3.255-29.649,2.985-11.714-.416-10.08-9.694S240.79,460.955,240.79,460.955Z" transform="translate(-122.104 -362.693)" fill="#ffc69c"/>
      <path id="Trazado_117647" data-name="Trazado 117647" d="M305.36,615.622,308.54,677a1.156,1.156,0,0,0,.593,1.209c2.055,1.2,8.857-.8,15.2-4.464,2.626-1.51,4.96-46,6.417-47.386.757-.5,1.032-18.742,1.032-18.742Z" transform="translate(-170.128 -451.069)" fill="#0c53fc" fill-rule="evenodd"/>
      <path id="Trazado_117648" data-name="Trazado 117648" d="M242.963,396l4.734-11.355s-7.281-10.553-4.734-19.2,8.193-13.016,21.479-13.1,16.218,8.733,16.749,10.553,2.183,7.285,1.089,9.925-2.91,3.1-2.821,4.73,1.639,1,.093,4.1-2.183,9.375-6.373,10.832-6.55.053-7.086,3.392-2.214,11.271-1.82,11.674C299.5,443.639,223.973,411.749,242.963,396Z" transform="translate(-133.629 -308.841)" fill="#ffc69c"/>
      <path id="Trazado_117649" data-name="Trazado 117649" d="M239.97,596.31h-4.681v1.329a1.125,1.125,0,0,0,.686,1.085,3.658,3.658,0,0,0,3.308,0,1.1,1.1,0,0,0,.673-1.085Z" transform="translate(-131.088 -444.768)" fill="#215de8"/>
      <path id="Trazado_117650" data-name="Trazado 117650" d="M239.287,595.571a3.658,3.658,0,0,1-3.308,0,1.008,1.008,0,0,1,0-1.909,3.658,3.658,0,0,1,3.308,0A1.008,1.008,0,0,1,239.287,595.571Z" transform="translate(-131.092 -443.072)" fill="#2075fb"/>
      <path id="Trazado_117651" data-name="Trazado 117651" d="M276.055,657.23h-4.677v1.329a1.116,1.116,0,0,0,.682,1.081,3.658,3.658,0,0,0,3.308,0,1.1,1.1,0,0,0,.678-1.081Z" transform="translate(-151.195 -478.708)" fill="#215de8"/>
      <path id="Trazado_117652" data-name="Trazado 117652" d="M275.367,656.487a3.658,3.658,0,0,1-3.308,0,1.008,1.008,0,0,1,0-1.909,3.632,3.632,0,0,1,3.308,0A1.008,1.008,0,0,1,275.367,656.487Z" transform="translate(-151.194 -477.009)" fill="#2075fb"/>
      <path id="Trazado_117653" data-name="Trazado 117653" d="M327.2,593.058c-10.9-3.747-29.561,6.032-43.817,13.011.886,12.05,3.543,23.87,5.642,35.77,10.629-3.685,19.3-15.057,32.01-24.127l12.055-6.16C333.9,599.067,332.976,595.042,327.2,593.058Z" transform="translate(-157.882 -442.494)" fill="#0c53fc" fill-rule="evenodd"/>
      <path id="Trazado_117654" data-name="Trazado 117654" d="M314.294,729.325,305.57,736c.1,8.029.084,11.984,3.2,14.074,3.782,2.542,10.186.492,14.039-1.28l1.036-3.1c3.711-.514,2.883.593,6.9-1.639,6.727-3.729,16.616-9.495,17.936-16.169.337-1.709-.979-4.787-2.7-4.491l-15.837,5.492Z" transform="translate(-170.245 -515.56)" fill="#0b255f" fill-rule="evenodd"/>
      <path id="Trazado_117655" data-name="Trazado 117655" d="M398.741,793.563l-9,6.3c-.235,8.029-.421,11.957,2.6,14.194,3.676,2.7,10.146.926,14.083-.682l1.169-3.065c5.292-.509,3.84.3,9.22-2.493,6.51-3.37,14.428-8.127,15.859-14.025.407-1.692-.775-4.809-2.5-4.6l-11.2,4.969Z" transform="translate(-217.075 -552.222)" fill="#1e73be" fill-rule="evenodd"/>
      <path id="Trazado_117656" data-name="Trazado 117656" d="M412.878,621.172c-1.089,5.438-14.4,16.647-15.717,22.037,0,0-6.275,62.527-5.983,62.82,1.661,1.7,17.852,4.641,20.141-8.414,6.794-1.771,15.9-63.834,15.9-63.834C431.15,620.7,416.336,609.577,412.878,621.172Z" transform="translate(-217.935 -455.909)" fill="#0c53fc" fill-rule="evenodd"/>
      <path id="Trazado_117657" data-name="Trazado 117657" d="M344.379,658.048l-29.428,9.079-18.011,13.8L277.9,687.334l-4.154-4.429-2.462-2.617,2.905-23.689.926-7.529L270.24,630.79l-2.6-14.079c2.546-.2,4.712-.027,5.81.713C273.61,617.38,344.379,658.048,344.379,658.048Z" transform="translate(-149.113 -456.09)" fill="#2075fb"/>
      <path id="Trazado_117658" data-name="Trazado 117658" d="M222.251,614.192l-22.586-.886c-2.715,12.3-1.191,26.837,4.473,32.772,8.171,8.543,23.963,20.128,39.76,16.514,11.727-2.688,31.921-14.712,45.566-24.433l29.813-13.073c5.62-11.227,8.556-18.246-7.13-21.612-11.271-2.418-41.089,9.712-55.358,16.691Z" transform="translate(-110.513 -448.585)" fill="#0c53fc" fill-rule="evenodd"/>
      <path id="Trazado_117659" data-name="Trazado 117659" d="M243.789,554.625c-2.1.886-4.9.824-8.025.248-11.957-2.143-43.759-12.706-43.174-33.214.244-8.609,6.311-9.938-1.922-32.081-15.894-42.749,6.767-54.388,11.072-54.388,4.4,0,12.125,3.543,12.125,3.543s-5.376,8.034,2.529,12.932c12.887,7.945,13.264,3.986,17.75,3.445,5.195-.638,12.985,7.148,17.4,11.652,8.463,8.622-3.817,35.008-.319,41.97s6.3,23.423,6.3,23.423S261.038,547.628,243.789,554.625Z" transform="translate(-103.119 -355.001)" fill="#4da8f7"/>
      <path id="Trazado_117660" data-name="Trazado 117660" d="M295.684,597.823c-2.1.886-4.9.824-8.025.248-4.079-7.453-3.047-23.1-7.041-36.354-5.93-19.6,0-46.274,8.932-48.714a7.084,7.084,0,0,1,2.6-.248c2.657,2.1,4.9,3.871,5.558,4.526,1.36,1.36,1.975,4.2,2.1,7.825.04,1.236.04,2.591-.04,4.034-.168,3.986-.124,15.806,3.375,22.767s6.3,23.423,6.3,23.423S312.934,590.826,295.684,597.823Z" transform="translate(-155.014 -398.199)" fill="#2699fd"/>
      <path id="Trazado_117661" data-name="Trazado 117661" d="M354.952,526.327s9.349-12.241,10.465-14.575,9.433-14.7,9.433-14.7l-3.175-2.484s-.571-2.414-1.492-2.989-3.937-2.369-2.431-3.454a4.089,4.089,0,0,1,5.354,1.138c1.337,1.736,2.139,2.626,2.139,2.626l3.228-7.741.053-7.626s-.177-3.45,1.218-3.631,3.011-.124,2.135,1.962.226,2.923.226,2.923l.841,6.829,1.816-6.572a25.856,25.856,0,0,0,2.095-3.893c.27-1.019,2.325-.917,2.391.531s-.208,5.314-.208,5.314l-1.749,5.545,3.592-5.979,3.941-3.49s2.657-.2,1.709,1.634a27.413,27.413,0,0,1-2.772,4.03l-2.879,6.391,4.743-1.2,4.787.137s.1,2.6-1.47,2.728a19.281,19.281,0,0,0-2.666.4l-3.432,1.714s-1.041,5.722-3.166,7.529a31.762,31.762,0,0,1-4.229,3.034s-18.4,42.28-24.534,45.818S351.546,533.129,354.952,526.327Z" transform="translate(-196.988 -375.967)" fill="#ffc69c"/>
      <path id="Trazado_117662" data-name="Trazado 117662" d="M347.075,575.431s3.543-5.487,9.628-3.8,12.09,10.336,11.231,15.753-7.44,16.643-14.3,16.2S339.723,583.6,347.075,575.431Z" transform="translate(-191.631 -430.837)" fill="#2699fd"/>
      <path id="Trazado_117663" data-name="Trazado 117663" d="M293.569,518.533c.075,11.607,15.017,56.518,30.889,48.533s2.285-25.6,0-31.74-3.817-31.315-14.858-32.107S293.489,506.93,293.569,518.533Z" transform="translate(-163.558 -392.854)" fill="#4da8f7"/>
      <path id="Trazado_117664" data-name="Trazado 117664" d="M304.245,417.213c-.275,0,.855-2.657-1.329-1.656s-3.481,2.263-3.481,4.181-.443,6.377.819,5.465a13.342,13.342,0,0,0,2.657-3.543h-1.568c-.819,0-.208-3.459.487-3.822a10.808,10.808,0,0,1,2.414-.624Z" transform="translate(-166.785 -343.937)" fill="#ffc69c"/>
      <path id="Trazado_117665" data-name="Trazado 117665" d="M264.1,389.134s2.192-5.142,12.311-9.672c4.951-2.214,16.629-13.866,6.457-22.364-1.771-1.466-4.238-3.72-10.917-4.721s-22.116,3.321-22.98,16.793C247.784,387.708,260.277,397.052,264.1,389.134Z" transform="translate(-138.667 -308.785)" fill="#0b255f" opacity="0.25"/>
      <path id="Trazado_117666" data-name="Trazado 117666" d="M182.836,602.046l-2.905,23.689,2.462,2.617-.075,4.429-67.824-38.834-.155-.443a5.642,5.642,0,0,1-1-.443c-10.788-6.227-2.143-20.522-2.143-32s-7.232-31.124-7.5-35.3,1.138-7.387,1.74-7.037l70.344,40.615.514,2.794,2.6,14.078,4.012,21.762Z" transform="translate(-57.755 -401.523)" fill="#138cfa"/>
      <path id="Trazado_117667" data-name="Trazado 117667" d="M264.294,610.447s11.793,31.408,11.39,38.29-7.971,27.116-.536,31.408,41.133-19.415,46.629-22.586,19.964-5.806,19.964-1.625-7.236-.31-12.843,2.941S283,691.017,272.212,684.786s-2.143-20.522-2.143-32-7.232-31.124-7.5-35.3S263.692,610.1,264.294,610.447Z" transform="translate(-146.267 -452.629)" fill="#138cfa"/>
      <path id="Trazado_117668" data-name="Trazado 117668" d="M346.526,653.14,337.7,689.286s-3.1,2.843-3.986,2.746c-.261-.1-.3-.341-.155-.81.8-2.631,2.945-4.026,3.481-7.427.39-2.48,5.053-20.42,7.555-29.959.766-2.932-.8-4.65-3.1-3.392l-3.476,1.918c-11.3,6.253-30.633,17.13-32.891,19.521-3.215,3.4-10.186,12.068-10.186,12.068s-1.231.855-1.4.319c-.08-.252.08-.824.731-1.944a106.237,106.237,0,0,1,8.888-10.655l.279-.266a8.72,8.72,0,0,1,.673-.624l.323-.283.319-.261c.288-.23.421-.328.549-.421.319-.221.474-.323.624-.407l32.555-18.786,3.543-2.046a5.556,5.556,0,0,1,.979-.443,3.241,3.241,0,0,1,1.249-.195C346.193,648.007,347.274,650.076,346.526,653.14Z" transform="translate(-163.536 -473.529)" fill="#2075fb"/>
      <path id="Trazado_117669" data-name="Trazado 117669" d="M387.277,656.468c-2.5,9.539-7.165,27.457-7.555,29.96-.536,3.4-2.657,4.8-3.481,7.427-.146.469-.106.708.058.788-.837-.213-6.838-1.825-6.089-4.269.806-2.631,2.949-4.026,3.485-7.427.363-2.316,4.429-18.1,7.028-27.953l3.472-1.918C386.466,651.818,388.043,653.536,387.277,656.468Z" transform="translate(-206.222 -476.161)" fill="#138cfa"/>
      <path id="Trazado_117670" data-name="Trazado 117670" d="M336.7,643.968a3.241,3.241,0,0,0-1.249.195,5.554,5.554,0,0,0-.979.443l-3.543,2.046-32.537,18.786c-.151.084-.306.186-.465.3-.288.2-.421.3-.554.407l-.474.385-.323.283c-.221.195-.443.4-.673.624l-.279.266a103.633,103.633,0,0,0-8.888,10.655c-.651,1.12-.81,1.692-.731,1.944l-5.62-3.321c-.487.1-.757-.235.319-2.1,0,0,7.772-10.673,11.656-12.918l36.084-20.814a3.227,3.227,0,0,1,2.719-.053l2.019,1.054Z" transform="translate(-155.975 -469.565)" fill="#138cfa"/>
      <path id="Trazado_117671" data-name="Trazado 117671" d="M257.275,382.139s-.292-18.755,9.8-23.281c4.951-2.214,20.606-2.737,15.907-18.839-.638-2.192-5.314-10.846-25.057-3.472-5.673,2.117-14.915,6.1-15.779,19.566C240.964,374.646,243.015,381.019,257.275,382.139Z" transform="translate(-134.753 -298.416)" fill="#0b255f"/>
    </g>
    <path id="Trazado_117673" data-name="Trazado 117673" d="M575.441,617.632l48.4-25.783V586.14l-83.315,7.684v5.708Z" transform="translate(-4549.998 -5313.031)" fill="#6c98bc"/>
    <path id="Trazado_117674" data-name="Trazado 117674" d="M575.441,589.153l48.4-25.783-34.911-18.1-48.4,25.783Z" transform="translate(-4549.998 -5290.261)" fill="#b6d5ef"/>
    <path id="Trazado_117675" data-name="Trazado 117675" d="M650.4,578.909l10.832-5.615L641.262,562.94l-10.832,5.615Z" transform="translate(-4600.084 -5300.105)" fill="#7cc0fb"/>
    <path id="Trazado_117676" data-name="Trazado 117676" d="M577.643,625.418v3.034l-34.153-17.3V607.77Z" transform="translate(-4551.646 -5325.082)" fill="#fff"/>
    <path id="Trazado_117677" data-name="Trazado 117677" d="M620.61,615.785l47.851-25.305v2.679L620.61,618.819Z" transform="translate(-4594.613 -5315.449)" fill="#79bdfb"/>
    <path id="Trazado_117853" data-name="Trazado 117853" d="M508.3,347.449l.261-.075-.146-.124C508.174,347.356,508.1,347.423,508.3,347.449Z" transform="translate(-4531.978 -5179.937)" fill="#a4d6b7"/>
    <path id="Trazado_117854" data-name="Trazado 117854" d="M295.3,248.237a32.758,32.758,0,0,1,2.36-3.162l.133-.155a4.566,4.566,0,0,0-2.569-.722,3.361,3.361,0,0,0-1.7.527C292.068,245.881,295.3,248.237,295.3,248.237Z" transform="translate(-4412.17 -5122.521)" fill="#b3d7bd"/>
    <path id="Trazado_117855" data-name="Trazado 117855" d="M333.632,308.778v4.832a3.061,3.061,0,0,1,0,.886,4.6,4.6,0,0,1-2.52,3.1,13.632,13.632,0,0,1-12.347,0,4.632,4.632,0,0,1-2.52-3.1c-.035,0-.035-5.735-.035-5.735Z" transform="translate(-4425.02 -5158.492)" fill="#f3a22b"/>
    <path id="Trazado_117856" data-name="Trazado 117856" d="M311.446,286.071l8.707-.283,8.707.283,3.888-14.234-1.869-2.285a11.709,11.709,0,0,0-8.5-4.287l-2.471-.115-3.073.3a11.55,11.55,0,0,0-9.211,6.333C307.593,271.837,311.446,286.071,311.446,286.071Z" transform="translate(-4420.234 -5134.195)" fill="#fdb344"/>
    <path id="Trazado_117857" data-name="Trazado 117857" d="M318.78,308.976a13.659,13.659,0,0,0,12.347,0c3.41-1.966,3.406-5.155,0-7.121a13.659,13.659,0,0,0-12.347,0C315.37,303.821,315.366,307.01,318.78,308.976Z" transform="translate(-4425.026 -5153.823)" fill="#fdb344"/>
    <path id="Trazado_117858" data-name="Trazado 117858" d="M314.569,279.4a16.99,16.99,0,0,0,15.367,0c4.243-2.449,4.247-5.8,0-8.246a16.99,16.99,0,0,0-15.367,0C310.326,273.6,310.331,276.946,314.569,279.4Z" transform="translate(-4422.334 -5136.514)" fill="#be7103"/>
    <path id="Trazado_117859" data-name="Trazado 117859" d="M329.034,266.036a15.405,15.405,0,0,0-4.429-1.625,1.008,1.008,0,0,0-.341-.062c-.177-.058-.359-.08-.54-.12-.62-.1-1.12-.159-1.621-.2a6.86,6.86,0,0,0-.886-.058,3.943,3.943,0,0,0-.722-.022,15.657,15.657,0,0,0-1.7.04,16.041,16.041,0,0,0-2.564.319.65.65,0,0,0-.283.062c-.221.04-.421.08-.642.142a2.189,2.189,0,0,0-.4.1,14.818,14.818,0,0,0-3.609,1.444,10.984,10.984,0,0,0-1.329.886,9.463,9.463,0,0,0-.921.841c-.1.1-.159.2-.239.283a4.871,4.871,0,0,0-1.2,3.1,4.517,4.517,0,0,0,.523,2.064,7.923,7.923,0,0,0,3.166,3.065c4.871,2.781,12.648,2.821,17.564.1a.6.6,0,0,0,.2-.1,7.91,7.91,0,0,0,1.24-.864,6.456,6.456,0,0,0,1.842-2.161,4.513,4.513,0,0,0,.562-2.024C332.715,269.282,331.47,267.436,329.034,266.036Zm1.966,6.01a4.118,4.118,0,0,1-.943,1.82,6.8,6.8,0,0,1-1.909,1.616,2.038,2.038,0,0,1-.261.159,17.049,17.049,0,0,1-15.5,0,5.961,5.961,0,0,1-3.1-3.583,1.176,1.176,0,0,0-.058-.2,3.95,3.95,0,0,1,.943-3.308,3.125,3.125,0,0,1,.359-.443,1.081,1.081,0,0,1,.159-.159,5.266,5.266,0,0,1,.5-.443,7.264,7.264,0,0,1,.886-.62l.3-.182a12.9,12.9,0,0,1,3.144-1.262,1.179,1.179,0,0,0,.2-.058c.2-.062.443-.1.642-.164h.2a17.4,17.4,0,0,1,2.524-.341h2.1l.682.062c.421.04.841.1,1.262.159a4.722,4.722,0,0,1,.682.137,13.4,13.4,0,0,1,4.07,1.484c2.555,1.435,3.578,3.445,3.1,5.323Z" transform="translate(-4420.223 -5133.522)" fill="#fc9a06"/>
    <path id="Trazado_117860" data-name="Trazado 117860" d="M362.273,251.643s-7.476-4.938-12.294-3.432c-9.783,3.056-10.859,11.072-10.859,11.072s1.329-12.427,12.976-15.261c7.923-1.935,9.947,8.622,10.283,7.972Z" transform="translate(-4437.784 -5122.291)" fill="#85be95"/>
    <path id="Trazado_117861" data-name="Trazado 117861" d="M346.25,248.648c7.006-3.326,10.412-.239,10.784.12-.359-.341-3.406-2.905-10.425.168-4.7,2.064-6.807,7.028-7.723,10.447a22.585,22.585,0,0,0-.673,3.521c-.292.886-1.3.407-1.3.407S338.867,252.146,346.25,248.648Z" transform="translate(-4436.553 -5124.15)" fill="#b3d7bd"/>
    <path id="Trazado_117862" data-name="Trazado 117862" d="M328.028,229.992s2.254-7.666,2.09-12.4-2.533-12.67-5.164-16.5-2.657-3.1-3.189-4.845-1.727,3.64-1.736,8.175,4.646,19.8,6.258,23.029S327.753,233.681,328.028,229.992Z" transform="translate(-4427.148 -5095.618)" fill="#85be95"/>
    <path id="Trazado_117863" data-name="Trazado 117863" d="M324.74,207.78s4.127,10.017,5.429,17.4c.837,4.747.589,15.9.589,15.9s-1.072.682-1.227.186a65.9,65.9,0,0,0-.106-16.581C328.872,220.57,324.74,207.78,324.74,207.78Z" transform="translate(-4429.772 -5102.232)" fill="#b3d7bd"/>
    <path id="Trazado_117864" data-name="Trazado 117864" d="M294,242.246a3.362,3.362,0,0,1,1.7-.527,4.566,4.566,0,0,1,2.569.722c5.2,3,12.139,12.737,12.139,12.737s-5.841-14.876-8.144-15.394a1.245,1.245,0,0,0-.6,0S294.394,241.4,294,242.246Z" transform="translate(-4412.646 -5120.042)" fill="#85be95"/>
    <path id="Trazado_117865" data-name="Trazado 117865" d="M303.579,241.3c.691-.1,3.587.261,6.43,4.77,2.985,4.73,6.824,12.772,6.824,12.772a1.087,1.087,0,0,1-.093.345.514.514,0,0,1-.589.027c-.235-.128-1.6-3.906-4.964-10.017-3.162-5.757-5.447-7.48-8.051-7.529C302.436,241.645,302.879,241.4,303.579,241.3Z" transform="translate(-4417.54 -5120.902)" fill="#b3d7bd"/>
    <path id="Trazado_117866" data-name="Trazado 117866" d="M317.571,275.744c-3.459-.23-6.24-3.414-8.658-3.414-.8,0,4.8-.957,6.594-.509a7.186,7.186,0,0,1,4.034,2.077C320.339,274.92,318.651,275.819,317.571,275.744Z" transform="translate(-4420.912 -5137.845)" fill="#85be95"/>
    <path id="Trazado_117867" data-name="Trazado 117867" d="M322.621,278.149a4.168,4.168,0,0,1-1.386-1c-.567-.66-4.606-3.689-6.643-3.906s-1.329-.323-.195-.279,2.254-.279,5.589,1.966C322.271,276.475,323.095,277.879,322.621,278.149Z" transform="translate(-4423.397 -5138.545)" fill="#b3d7bd"/>
    <path id="Trazado_117868" data-name="Trazado 117868" d="M316.661,273.227a4.871,4.871,0,0,0-5.314-1.3c-3.273,1.209-7.564,7.972-7.564,7.972s-.638-6.271,1.165-8.224S314.2,270.181,316.661,273.227Z" transform="translate(-4418.035 -5137.175)" fill="#b3d7bd"/>
    <path id="Trazado_117869" data-name="Trazado 117869" d="M340.415,275.149a6.335,6.335,0,0,1-3.29,2.657c-1.94.443-3.543-.886-3.02-2s2.422-1.271,2.9-1.329A26.774,26.774,0,0,1,340.415,275.149Z" transform="translate(-4434.934 -5139.389)" fill="#85be95"/>
    <path id="Trazado_117870" data-name="Trazado 117870" d="M340.945,276.517a1.8,1.8,0,0,0-1.4.886c-.54.886-.416,2.657-.886,2.737s-.5-2.657.753-3.671S340.945,276.517,340.945,276.517Z" transform="translate(-4437.359 -5140.256)" fill="#b3d7bd"/>
    <path id="Trazado_117871" data-name="Trazado 117871" d="M342.507,272.929c-.731-.589-.886-1.089-4.632-.731s-3.645,2.241-3.645,2.241,3.029-3.131,9.889,7.161C346.058,284.523,345.066,275,342.507,272.929Z" transform="translate(-4435.059 -5138.055)" fill="#b3d7bd"/>
    <g id="Grupo_87882" data-name="Grupo 87882" transform="translate(-3916.328 -4714.223)" style="isolation: isolate">
      <path id="Trazado_117872" data-name="Trazado 117872" d="M753.423,615.354a.146.146,0,0,1-.168,0,.479.479,0,0,1-.217-.372.146.146,0,0,1,.08-.151.905.905,0,0,1,.443-.084.2.2,0,0,1,.173.2c-.027-.075-.049-.111-.075-.124C753.716,615.058,753.627,615.182,753.423,615.354Z" transform="translate(-752.065 -614.746)" fill="#ffa15c"/>
      <path id="Trazado_117873" data-name="Trazado 117873" d="M754.2,615.2c0,.044,0,.164-.292.407a.169.169,0,0,0,.049-.133C754.149,615.328,754.207,615.244,754.2,615.2Z" transform="translate(-752.552 -614.999)" fill="#2358f9"/>
      <path id="Trazado_117874" data-name="Trazado 117874" d="M753.22,614.833a.971.971,0,0,1,.443-.084.2.2,0,0,1,.173.2c0,.044-.053.128-.244.275a.487.487,0,0,0-.221-.372.177.177,0,0,0-.128-.022Z" transform="translate(-752.167 -614.747)" fill="#215de8"/>
      <path id="Trazado_117875" data-name="Trazado 117875" d="M751.453,616.106a.226.226,0,0,1-.261,0,.739.739,0,0,1-.345-.585.226.226,0,0,1,.124-.239s.368-.12.926-.332a.146.146,0,0,0-.08.151.478.478,0,0,0,.217.372.146.146,0,0,0,.168,0C751.741,615.858,751.466,616.093,751.453,616.106Z" transform="translate(-750.843 -614.86)" fill="#ffa15c"/>
      <path id="Trazado_117876" data-name="Trazado 117876" d="M752.974,616.12l-.363.3-.177.155-.2.177S752.518,616.5,752.974,616.12Z" transform="translate(-751.616 -615.511)" fill="#ffa15c"/>
      <path id="Trazado_117877" data-name="Trazado 117877" d="M752.23,616.753s.283-.252.744-.633l-.31.257-.23.2Z" transform="translate(-751.616 -615.511)" fill="#ffa15c"/>
      <path id="Trazado_117878" data-name="Trazado 117878" d="M752.055,614.94c-.558.213-.908.328-.926.332l.261-.089.288-.106Z" transform="translate(-751.003 -614.854)" fill="#ffa15c"/>
      <path id="Trazado_117879" data-name="Trazado 117879" d="M751.14,615.272l.257-.089.354-.128.31-.115C751.521,615.148,751.158,615.263,751.14,615.272Z" transform="translate(-751.009 -614.854)" fill="#ffa15c"/>
      <path id="Trazado_117880" data-name="Trazado 117880" d="M752.974,615.953c-.443.376-.731.62-.744.633a.271.271,0,0,0,.071-.2s.275-.226.722-.562A.168.168,0,0,1,752.974,615.953Z" transform="translate(-751.616 -615.344)" fill="#2358f9"/>
      <path id="Trazado_117881" data-name="Trazado 117881" d="M751.532,616.3c0,.217-.146.31-.337.2a.74.74,0,0,1-.346-.585c0-.221.146-.31.337-.208A.762.762,0,0,1,751.532,616.3Zm0,0a.7.7,0,0,0-.328-.558c-.182-.1-.323,0-.323.195a.718.718,0,0,0,.332.558C751.395,616.593,751.536,616.491,751.532,616.3Z" transform="translate(-750.847 -615.258)" fill="#ffa15c"/>
      <path id="Trazado_117882" data-name="Trazado 117882" d="M751.531,616.315c0,.208-.137.3-.319.195a.717.717,0,0,1-.332-.558c0-.208.142-.3.323-.195a.7.7,0,0,1,.328.558Z" transform="translate(-750.864 -615.285)" fill="#ffa15c"/>
      <path id="Trazado_117883" data-name="Trazado 117883" d="M751.14,615.262s.368-.124.926-.337a.178.178,0,0,1,.128.022.487.487,0,0,1,.221.372c-.443.337-.709.549-.722.562a.762.762,0,0,0-.346-.589A.261.261,0,0,0,751.14,615.262Z" transform="translate(-751.009 -614.844)" fill="#215de8"/>
    </g>
    <g id="Grupo_87883" data-name="Grupo 87883" transform="translate(-3922.868 -4713.96)" style="isolation: isolate">
      <path id="Trazado_117884" data-name="Trazado 117884" d="M751.531,616.315c0,.208-.137.3-.319.195a.717.717,0,0,1-.332-.558c0-.208.142-.3.323-.195a.7.7,0,0,1,.328.558Z" transform="translate(-744.324 -615.548)" fill="#ffc69c"/>
      <path id="Trazado_117885" data-name="Trazado 117885" d="M738.7,620.825a.966.966,0,0,1-1.121,0,3.22,3.22,0,0,1-1.492-2.529.987.987,0,0,1,.536-1.027l2.44-.886c1.6-.593,1.6-.593,1.829-.669a5.954,5.954,0,0,1,1.116-.266,1.373,1.373,0,0,1,.926.12.886.886,0,0,1,.266.283c.031.058.031.062.058.115a1,1,0,0,1,.067.31.886.886,0,0,0-.377-.646c-.182-.1-.323,0-.323.195a.717.717,0,0,0,.332.558c.182.1.323,0,.319-.195a.926.926,0,0,1-.164.709,5.193,5.193,0,0,1-.62.748c-.274.27-.407.385-.7.629Z" transform="translate(-736.076 -615.382)" fill="#ffc69c"/>
      <path id="Trazado_117886" data-name="Trazado 117886" d="M745.1,619.289c-.664.562-1.692,1.422-1.891,1.585L742,621.88a1.121,1.121,0,0,0,.332-.886c.1-.08,2-1.532,2.985-2.29s1.329-1.218,1.329-1.4a1.359,1.359,0,0,1-.368.841,7.683,7.683,0,0,1-1.178,1.138Z" transform="translate(-739.377 -616.437)" fill="#f5b24f"/>
      <path id="Trazado_117887" data-name="Trazado 117887" d="M737.33,617.208l.323-.12.314-.115.607-.226.443-.173c.075-.026.168-.066.244-.089l1.838-.686a7.488,7.488,0,0,1,1.568-.443,2.419,2.419,0,0,1,.593,0,.85.85,0,0,1,.359.128.886.886,0,0,1,.394.709c0,.177-.275.6-1.329,1.395s-2.887,2.214-2.985,2.29a3.246,3.246,0,0,0-1.493-2.529,1.12,1.12,0,0,0-.877-.142Z" transform="translate(-736.775 -615.339)" fill="#ffa15c"/>
      <path id="Trazado_117888" data-name="Trazado 117888" d="M741.275,619.646c-.164-.337-.146-.217-.385-.5l2.538-1.249a6.76,6.76,0,0,1,1.329-.381c-.151.137-.354.314-.642.536C743.631,618.445,741.9,619.172,741.275,619.646Z" transform="translate(-738.758 -616.554)" fill="#ffc69c"/>
      <path id="Trazado_117889" data-name="Trazado 117889" d="M739.065,622.178c0,.943-.638,1.329-1.453.886a3.219,3.219,0,0,1-1.493-2.529c0-.943.638-1.329,1.453-.886A3.246,3.246,0,0,1,739.065,622.178Z" transform="translate(-736.1 -617.638)" fill="#ffc69c"/>
    </g>
    <g id="Grupo_87884" data-name="Grupo 87884" transform="translate(-3956.242 -4712.133)" style="isolation: isolate">
      <path id="Trazado_117890" data-name="Trazado 117890" d="M739.065,622.178c0,.943-.638,1.329-1.453.886a3.219,3.219,0,0,1-1.493-2.529c0-.943.638-1.329,1.453-.886A3.246,3.246,0,0,1,739.065,622.178Z" transform="translate(-702.726 -619.466)" fill="#2358f9"/>
      <path id="Trazado_117891" data-name="Trazado 117891" d="M708.278,631.289a1.165,1.165,0,0,1-1.174-.1,3.7,3.7,0,0,1-1.7-2.883,1.191,1.191,0,0,1,.5-1.116c1.581-.886,3.614-2.024,6.036-3.375l2.542-1.413,3.41-1.887,1.555-.859a1.032,1.032,0,0,0-.443.983,3.22,3.22,0,0,0,1.492,2.529,1.023,1.023,0,0,0,1.036.08l-1.519.926-3.326,2.028c-1.4.85-2.808,1.709-4.216,2.56Z" transform="translate(-685.606 -619.574)" fill="#2358f9"/>
      <path id="Trazado_117892" data-name="Trazado 117892" d="M708.771,639.524c0,1.076-.731,1.528-1.656,1.01a3.7,3.7,0,0,1-1.7-2.883c0-1.072.731-1.528,1.656-1.01a3.685,3.685,0,0,1,1.705,2.883Z" transform="translate(-685.617 -628.915)" fill="#ffa15c"/>
      <path id="Trazado_117893" data-name="Trazado 117893" d="M708.771,639.524c0,1.076-.731,1.528-1.656,1.01a3.7,3.7,0,0,1-1.7-2.883c0-1.072.731-1.528,1.656-1.01a3.685,3.685,0,0,1,1.705,2.883Z" transform="translate(-685.617 -628.915)" fill="#2358f9"/>
      <path id="Trazado_117894" data-name="Trazado 117894" d="M704.619,641.851a1.16,1.16,0,0,1-1.182-.1,3.716,3.716,0,0,1-1.718-2.905,1.191,1.191,0,0,1,.5-1.125l.779-.443.5-.283.173-.1a1.284,1.284,0,0,0-.328,1.014,3.7,3.7,0,0,0,1.705,2.883,1.165,1.165,0,0,0,1.174.1Z" transform="translate(-683.555 -629.179)" fill="#ffa15c"/>
      <path id="Trazado_117895" data-name="Trazado 117895" d="M725.16,626.578l-2.068,1.262-1.289.784-1.488.908-5.084,3.1c-.673.407-2,1.209-3.321,2a1.2,1.2,0,0,0,.483-1.107c5.133-3.047,12.781-7.657,13.184-7.9A1.058,1.058,0,0,1,725.16,626.578Z" transform="translate(-689.238 -622.9)" fill="#2358f9"/>
      <path id="Trazado_117896" data-name="Trazado 117896" d="M706.54,627.085c1.05-.589,2.352-1.329,5.155-2.883l3.423-1.9,3.9-2.157,1.067-.589a1.05,1.05,0,0,1,1.01.1,3.246,3.246,0,0,1,1.492,2.529c-.4.239-8.051,4.849-13.184,7.9a3.684,3.684,0,0,0-1.7-2.883,1.169,1.169,0,0,0-1.156-.106Z" transform="translate(-686.246 -619.465)" fill="#215de8"/>
      <path id="Trazado_117897" data-name="Trazado 117897" d="M711.1,629.379a5.027,5.027,0,0,0-.443-.682c.7-.394,3.034-1.5,4.1-2.1l3.423-1.9,3.9-2.157,1.869-1.231a1.835,1.835,0,0,1,.27.328C722.192,622.851,714.951,627.085,711.1,629.379Z" transform="translate(-688.541 -620.493)" fill="#138cfa"/>
      <path id="Trazado_117898" data-name="Trazado 117898" d="M709.887,644.527l-1.608.957a1.209,1.209,0,0,0,.487-1.116l1.6-.948A1.2,1.2,0,0,1,709.887,644.527Z" transform="translate(-687.215 -632.811)" fill="#ffa15c"/>
      <path id="Trazado_117899" data-name="Trazado 117899" d="M705.118,641.631c0,1.085-.735,1.541-1.67,1.018a3.715,3.715,0,0,1-1.718-2.905c0-1.085.735-1.541,1.67-1.023A3.729,3.729,0,0,1,705.118,641.631Z" transform="translate(-683.566 -630.074)" fill="#2358f9"/>
      <path id="Trazado_117900" data-name="Trazado 117900" d="M705.118,641.631c0,1.085-.735,1.541-1.67,1.018a3.715,3.715,0,0,1-1.718-2.905c0-1.085.735-1.541,1.67-1.023A3.729,3.729,0,0,1,705.118,641.631Z" transform="translate(-683.566 -630.074)" fill="#ffa15c"/>
      <path id="Trazado_117901" data-name="Trazado 117901" d="M702.86,637.463l1.63-.926a1.169,1.169,0,0,1,1.156.106,3.685,3.685,0,0,1,1.7,2.883l-1.6.948a3.729,3.729,0,0,0-1.718-2.905A1.183,1.183,0,0,0,702.86,637.463Z" transform="translate(-684.196 -628.918)" fill="#ffa15c"/>
      <path id="Trazado_117902" data-name="Trazado 117902" d="M672.3,650.974a1.036,1.036,0,0,1-1.01-.1,3.22,3.22,0,0,1-1.492-2.524,1.045,1.045,0,0,1,.416-.965l4.429-2.732,2.272-1.391,1.577-.965,3.786-2.3.385-.23.492-.283.585-.341.673-.381a1.192,1.192,0,0,0-.5,1.125,3.716,3.716,0,0,0,1.718,2.905,1.16,1.16,0,0,0,1.182.1c-.222.133-.443.266-.669.394l-.58.341-.492.288-.394.221-3.875,2.148-3.95,2.179-3.14,1.727Z" transform="translate(-665.773 -630.215)" fill="#2358f9"/>
      <path id="Trazado_117903" data-name="Trazado 117903" d="M687.86,647.92l-4.685,2.6-3.14,1.732-4.575,2.515a1.036,1.036,0,0,0,.443-.983c.385-.217,7.732-4.318,12.462-6.988.443-.248,1.182-.682,2.117-1.231a1.209,1.209,0,0,1-.487,1.116l-1.249.735-.58.336Z" transform="translate(-668.93 -634.004)" fill="#2358f9"/>
      <path id="Trazado_117904" data-name="Trazado 117904" d="M670.75,647.25l1.882-1.169,2.551-1.563,4.641-2.834,2.994-1.825.474-.283.4-.23.713-.412.545-.31a1.182,1.182,0,0,1,1.169.1,3.729,3.729,0,0,1,1.718,2.91c-.934.549-1.674.983-2.117,1.231-4.73,2.657-12.077,6.771-12.462,6.988a3.251,3.251,0,0,0-1.492-2.529A1.01,1.01,0,0,0,670.75,647.25Z" transform="translate(-666.306 -630.078)" fill="#215de8"/>
      <path id="Trazado_117905" data-name="Trazado 117905" d="M675.42,649.436c-.084-.137-.173-.27-.27-.4.784-.478,2.511-1.559,3.321-2.055l4.637-2.834,2.989-1.816c.177-.111.328-.195.443-.275l.39-.23.709-.407,1.714-.886a2.083,2.083,0,0,1,.594.722c-.443.27-2.285,1.245-2.542,1.391C684,644.556,677.962,648.014,675.42,649.436Z" transform="translate(-668.758 -631.201)" fill="#2075fb"/>
      <path id="Trazado_117906" data-name="Trazado 117906" d="M672.755,660.714c0,.943-.638,1.329-1.453.886a3.22,3.22,0,0,1-1.492-2.524c0-.943.638-1.329,1.453-.886A3.251,3.251,0,0,1,672.755,660.714Z" transform="translate(-665.782 -640.938)" fill="#2358f9"/>
      <path id="Trazado_117907" data-name="Trazado 117907" d="M672.755,660.714c0,.943-.638,1.329-1.453.886a3.22,3.22,0,0,1-1.492-2.524c0-.943.638-1.329,1.453-.886A3.251,3.251,0,0,1,672.755,660.714Z" transform="translate(-665.782 -640.938)" fill="#f4b082"/>
      <path id="Trazado_117908" data-name="Trazado 117908" d="M663.237,664.145a1.027,1.027,0,0,1-1.019-.089,3.246,3.246,0,0,1-1.5-2.529,1.045,1.045,0,0,1,.443-.974l4.021-2.334a1.041,1.041,0,0,0-.443.974,3.22,3.22,0,0,0,1.492,2.524,1.014,1.014,0,0,0,1.023.089Z" transform="translate(-660.715 -641.057)" fill="#f4b082"/>
      <path id="Trazado_117909" data-name="Trazado 117909" d="M663.294,667.511c0,.252-.168.359-.385.239a.885.885,0,0,1-.4-.673c0-.252.168-.359.385-.239A.886.886,0,0,1,663.294,667.511Z" transform="translate(-661.715 -645.831)" fill="#f4b082"/>
      <path id="Trazado_117910" data-name="Trazado 117910" d="M670.431,665.094l-4.021,2.338a1.045,1.045,0,0,0,.443-.974l4.017-2.338a1.045,1.045,0,0,1-.438.974Z" transform="translate(-663.888 -644.344)" fill="#ffa15c"/>
      <path id="Trazado_117911" data-name="Trazado 117911" d="M662.3,665.565a3.938,3.938,0,0,0,1.377.443c0,.939-.642,1.328-1.452.886a3.246,3.246,0,0,1-1.5-2.529c0-.943.642-1.329,1.453-.886a3.237,3.237,0,0,1,1.5,2.529,3.936,3.936,0,0,1-1.377-.443.886.886,0,0,0-.4-.673c-.217-.119-.39,0-.385.239a.885.885,0,0,0,.4.673C662.134,665.924,662.307,665.822,662.3,665.565Z" transform="translate(-660.723 -643.885)" fill="#ffa15c"/>
      <path id="Trazado_117912" data-name="Trazado 117912" d="M661.7,660.429l4.021-2.334a1.023,1.023,0,0,1,1.023.084,3.251,3.251,0,0,1,1.492,2.529l-4.017,2.338a3.237,3.237,0,0,0-1.5-2.529,1.023,1.023,0,0,0-1.023-.089Z" transform="translate(-661.264 -640.933)" fill="#f4b082"/>
    </g>
    <path id="Trazado_117913" data-name="Trazado 117913" d="M752.39,615.531s.651-.47.669-.354-.585.536-.585.536Z" transform="translate(-4668.033 -5329.199)" fill="#fff"/>
    <path id="Trazado_117914" data-name="Trazado 117914" d="M667.39,659.741v-.921l3.738-.952s6.847-3.423,7.918-4.043,1.085-.917,1.085-.917a.753.753,0,0,1,.022-1.258l.146.638a11.827,11.827,0,0,1,2.3-.536v.939s-4.22,2.48-6.59,3.8c-1.745.979-4.8,2.569-6.284,3.339a2.511,2.511,0,0,1-1.851.093Z" transform="translate(-4620.676 -5349.529)" fill="#ffa15c"/>
    <path id="Trazado_117915" data-name="Trazado 117915" d="M667.39,658.23l3.073-1.771.753.443s6.758-3.543,7.83-4.185l1.479-.855-.221-.133a.5.5,0,0,1,0-.943,1.815,1.815,0,0,1,1.634,0l.669.385s-4.221,2.48-6.59,3.809c-1.745.974-4.8,2.564-6.284,3.335a2.512,2.512,0,0,1-1.851.1Z" transform="translate(-4620.676 -5348.939)" fill="#ffc69c"/>
    <path id="Trazado_117916" data-name="Trazado 117916" d="M676.625,660.48q-.97.567-1.962,1.107c-.655.363-1.329.717-1.98,1.072s-1.329.7-2,1.041a3.916,3.916,0,0,1-.514.244,2.215,2.215,0,0,1-.562.12,2.524,2.524,0,0,1-1.116-.151,2.684,2.684,0,0,0,1.107.075,2.377,2.377,0,0,0,.536-.133c.168-.071.328-.173.5-.261.655-.363,1.329-.713,1.98-1.072s1.329-.7,2-1.041S675.948,660.8,676.625,660.48Z" transform="translate(-4621.289 -5354.449)" fill="#fff"/>
    <g id="Grupo_141564" data-name="Grupo 141564" transform="translate(-3963.301 -4850.394)">
      <path id="Trazado_117572-2" data-name="Trazado 117572" d="M439.758,192.427,407.23,173.645V170.39l32.528,18.782Z" transform="translate(-407.23 -170.39)" fill="#138cfa"/>
      <path id="Trazado_117574-2" data-name="Trazado 117574" d="M422.394,211.425l-15.164-8.755V199.41l15.164,8.755Z" transform="translate(-407.23 -186.559)" fill="#138cfa"/>
      <path id="Trazado_117575-2" data-name="Trazado 117575" d="M454.3,229.847l-6.55-3.782V222.81l6.55,3.782Z" transform="translate(-429.805 -199.595)" fill="#138cfa"/>
      <path id="Trazado_117576-2" data-name="Trazado 117576" d="M473.395,240.871l-6.085-3.516V234.1l6.085,3.516Z" transform="translate(-440.703 -205.886)" fill="#138cfa"/>
      <path id="Trazado_117578-2" data-name="Trazado 117578" d="M459.142,248.834l-6.182-3.569V242.01l6.182,3.569Z" transform="translate(-432.708 -210.293)" fill="#fc9a06"/>
      <path id="Trazado_117579-2" data-name="Trazado 117579" d="M433.536,250.235,407.23,235.049V231.79l26.306,15.19Z" transform="translate(-407.23 -204.599)" fill="#fc9a06"/>
      <path id="Trazado_117580-2" data-name="Trazado 117580" d="M473.046,273.054l-8.746-5.049V264.75l8.746,5.049Z" transform="translate(-439.026 -222.962)" fill="#138cfa"/>
      <path id="Trazado_117581-2" data-name="Trazado 117581" d="M496.269,286.458l-7.139-4.119V279.08l7.139,4.123Z" transform="translate(-452.859 -230.946)" fill="#138cfa"/>
      <path id="Trazado_117582-2" data-name="Trazado 117582" d="M424.621,261.279l-17.391-10.04V247.98l17.391,10.044Z" transform="translate(-407.23 -213.619)" fill="#138cfa"/>
      <path id="Trazado_117583-2" data-name="Trazado 117583" d="M457.936,280.515l-6.036-3.485V273.77l6.036,3.49Z" transform="translate(-432.117 -227.988)" fill="#138cfa"/>
      <path id="Trazado_117584-2" data-name="Trazado 117584" d="M425.941,278.236l-18.711-10.8V264.18l18.711,10.8Z" transform="translate(-407.23 -222.645)" fill="#138cfa"/>
      <path id="Trazado_117585-2" data-name="Trazado 117585" d="M458.057,296.776l-5.1-2.941V290.58l5.1,2.941Z" transform="translate(-432.708 -237.353)" fill="#138cfa"/>
      <path id="Trazado_117586-2" data-name="Trazado 117586" d="M477.978,308.277l-8.7-5.022V300l8.7,5.022Z" transform="translate(-441.8 -242.601)" fill="#fc9a06"/>
      <path id="Trazado_117587-2" data-name="Trazado 117587" d="M425.042,293.908,407.23,283.625V280.37l17.812,10.283Z" transform="translate(-407.23 -231.665)" fill="#138cfa"/>
      <path id="Trazado_117588-2" data-name="Trazado 117588" d="M457.673,312.752l-8.033-4.637V304.86l8.033,4.637Z" transform="translate(-430.858 -245.309)" fill="#fc9a06"/>
      <path id="Trazado_117589-2" data-name="Trazado 117589" d="M451.228,210.917l-44-25.4V182.26l44,25.4Z" transform="translate(-407.23 -177.004)" fill="#138cfa"/>
    </g>
  </g>
</svg>
