<svg xmlns="http://www.w3.org/2000/svg" xmlns:xlink="http://www.w3.org/1999/xlink" width="242.141" height="215.232" viewBox="0 0 242.141 215.232">
  <defs>
    <clipPath id="clip-path">
      <rect id="Rectángulo_37100" data-name="Rectángulo 37100" width="91.448" height="91.448" fill="none"/>
    </clipPath>
    <clipPath id="clip-path-2">
      <rect id="Rectángulo_37101" data-name="Rectángulo 37101" width="55.664" height="55.663" fill="none"/>
    </clipPath>
    <clipPath id="clip-path-3">
      <rect id="Rectángulo_37102" data-name="Rectángulo 37102" width="48.529" height="48.478" fill="none"/>
    </clipPath>
    <clipPath id="clip-path-4">
      <rect id="Rectángulo_37103" data-name="Rectángulo 37103" width="8.923" height="8.923" fill="none"/>
    </clipPath>
    <clipPath id="clip-path-5">
      <rect id="Rectángulo_37105" data-name="Rectángulo 37105" width="46.781" height="6.202" fill="none"/>
    </clipPath>
    <clipPath id="clip-path-6">
      <rect id="Rectángulo_37107" data-name="Rectángulo 37107" width="44.339" height="62.769" fill="none"/>
    </clipPath>
    <clipPath id="clip-path-7">
      <rect id="Rectángulo_37108" data-name="Rectángulo 37108" width="5.512" height="2.889" fill="none"/>
    </clipPath>
    <clipPath id="clip-path-8">
      <rect id="Rectángulo_37109" data-name="Rectángulo 37109" width="5.297" height="3.905" fill="none"/>
    </clipPath>
    <clipPath id="clip-path-9">
      <rect id="Rectángulo_37110" data-name="Rectángulo 37110" width="1.883" height="3.25" fill="none"/>
    </clipPath>
    <clipPath id="clip-path-10">
      <rect id="Rectángulo_37111" data-name="Rectángulo 37111" width="1.406" height="3.479" fill="none"/>
    </clipPath>
    <clipPath id="clip-path-11">
      <rect id="Rectángulo_37112" data-name="Rectángulo 37112" width="1.375" height="6.813" fill="none"/>
    </clipPath>
    <clipPath id="clip-path-12">
      <rect id="Rectángulo_37113" data-name="Rectángulo 37113" width="6.378" height="29.518" fill="none"/>
    </clipPath>
    <clipPath id="clip-path-13">
      <rect id="Rectángulo_37114" data-name="Rectángulo 37114" width="20.92" height="2.367" fill="none"/>
    </clipPath>
    <clipPath id="clip-path-14">
      <rect id="Rectángulo_37115" data-name="Rectángulo 37115" width="8.085" height="11.232" fill="none"/>
    </clipPath>
    <clipPath id="clip-path-15">
      <rect id="Rectángulo_37116" data-name="Rectángulo 37116" width="63.328" height="2.367" fill="none"/>
    </clipPath>
  </defs>
  <g id="Grupo_141558" data-name="Grupo 141558" transform="translate(-303.573 -6123.196)">
    <rect id="Rectángulo_37083" data-name="Rectángulo 37083" width="12.739" height="0.137" transform="translate(365.03 6306.628)" fill="#ebebeb"/>
    <rect id="Rectángulo_37084" data-name="Rectángulo 37084" width="31.143" height="0.137" transform="translate(503.552 6309.574)" fill="#ebebeb"/>
    <rect id="Rectángulo_37085" data-name="Rectángulo 37085" width="31.143" height="0.137" transform="translate(306.052 6309.574)" fill="#ebebeb"/>
    <path id="Trazado_145042" data-name="Trazado 145042" d="M147.457,155.415H41.342a3.138,3.138,0,0,1-3.132-3.138V3.11A3.138,3.138,0,0,1,41.342,0H147.457a3.138,3.138,0,0,1,3.138,3.138V152.277a3.138,3.138,0,0,1-3.138,3.138M41.342.11a3,3,0,0,0-3,3V152.277a3,3,0,0,0,3,3H147.457a3.007,3.007,0,0,0,3-3V3.11a3.006,3.006,0,0,0-3-3Z" transform="translate(265.363 6123.196)" fill="#ebebeb"/>
    <path id="Trazado_145043" data-name="Trazado 145043" d="M363.758,155.415H257.638a3.144,3.144,0,0,1-3.138-3.138V3.11A3.143,3.143,0,0,1,257.638,0h106.12a3.138,3.138,0,0,1,3.127,3.11V152.277a3.138,3.138,0,0,1-3.127,3.138M257.638.11a3.006,3.006,0,0,0-3,3V152.277a3.007,3.007,0,0,0,3,3h106.12a3.006,3.006,0,0,0,3-3V3.11a3.006,3.006,0,0,0-3-3Z" transform="translate(167.937 6123.196)" fill="#ebebeb"/>
    <rect id="Rectángulo_37086" data-name="Rectángulo 37086" width="11.87" height="0.137" transform="translate(518.355 6320.109)" fill="#ebebeb"/>
    <path id="Trazado_145044" data-name="Trazado 145044" d="M437.832,181.719c-1.149-3.294-10.214,1.188-13.865,6.643a28.3,28.3,0,0,0-4.634,12.729c.081-5.958.179-12.342.268-18.368.745-1.5,2.439-4.971,3.66-7.716,4.069-9.167,13.742-12.576,17.083-18.364,4.379-7.584,4.354-18.955.625-23.058-3.239-3.567-13.968,20.547-15.176,23.241a71.739,71.739,0,0,0-6.141,22.807c.085-5.664.17-10.86.243-14.9.225-13.087.511-17.3.638-18.589.451-.634.979-1.37,1.277-1.766,2.6-3.341,8.358-7.32,11.235-12.18,4.2-7.094,3.524-15.585.574-18.726-3.081-3.307-8.533,4.507-11.423,12.249s-1.66,15.15-2.468,21.581c-.17,1.277-.345,6.052-.511,12.695-.877-7.15-2.626-11.938-5.865-16.4-3.988-5.49-7.426-12.172-10.712-11.308s-1.515,9.707,1.085,15.916c2.311,5.533,13.725,11.044,15.406,15.487-.2,9.005-.375,20.428-.5,31.037-.9-5.486-.281-5.958-3.967-14.346-2.192-5-11.18-11.154-12.248-7.72-1.056,3.367.557,9.916,3.949,14.47,2.737,3.664,8.81,3.66,10.214,5.932.328.532,1.409,2.554,2.03,3.733-.149,12.967-.213,24.415-.141,28.318l.587.038c-.025-1,.047-7.6.162-16.334,1.472-4.643,11.4-7.354,14.469-12.184,3.213-5.069,5.52-10.968,4.145-14.921" transform="translate(102.014 6072.432)" fill="#e6e6e6"/>
    <path id="Trazado_145045" data-name="Trazado 145045" d="M432.684,321.034H413.635a2.183,2.183,0,0,1-2.128-1.754l-1.354-6.668H436.2l-1.354,6.668a2.183,2.183,0,0,1-2.162,1.754" transform="translate(97.824 5982.382)" fill="#e6e6e6"/>
    <path id="Trazado_145046" data-name="Trazado 145046" d="M434.757,311.18H407.622a1.276,1.276,0,0,1-1.277-1.132l-.558-4.928a1.277,1.277,0,0,1,1.124-1.413,1.192,1.192,0,0,1,.153-.008h28.25a1.277,1.277,0,0,1,1.285,1.268,1.433,1.433,0,0,1-.008.153l-.562,4.92a1.276,1.276,0,0,1-1.272,1.14" transform="translate(99.795 5986.398)" fill="#f0f0f0"/>
    <rect id="Rectángulo_37087" data-name="Rectángulo 37087" width="38.36" height="42.116" transform="translate(311.651 6141.886)" fill="#e6e6e6"/>
    <rect id="Rectángulo_37088" data-name="Rectángulo 37088" width="41.132" height="42.116" transform="translate(312.162 6141.886)" fill="#f5f5f5"/>
    <rect id="Rectángulo_37089" data-name="Rectángulo 37089" width="35.886" height="36.87" transform="translate(314.785 6144.508)" fill="#fff"/>
    <path id="Trazado_145047" data-name="Trazado 145047" d="M78.855,74.69h0a10.941,10.941,0,0,1-.007-15.473l.007-.007L89.6,48.465a10.951,10.951,0,0,1,0,15.481Z" transform="translate(248.5 6101.366)" fill="#f5f5f5"/>
    <rect id="Rectángulo_37090" data-name="Rectángulo 37090" width="26.11" height="29.467" transform="translate(312.217 6206.212)" fill="#e6e6e6"/>
    <rect id="Rectángulo_37091" data-name="Rectángulo 37091" width="29.247" height="29.467" transform="translate(312.854 6206.212)" fill="#f5f5f5"/>
    <rect id="Rectángulo_37092" data-name="Rectángulo 37092" width="23.213" height="23.439" transform="translate(315.877 6209.229)" fill="#fff"/>
    <path id="Trazado_145048" data-name="Trazado 145048" d="M81.85,175.359l-2.662,2.662a2.968,2.968,0,0,1-4.2,0l-2.662-2.662a2.968,2.968,0,0,1,0-4.2l2.662-2.662a2.968,2.968,0,0,1,4.2,0l2.662,2.662a2.968,2.968,0,0,1,0,4.2" transform="translate(250.386 6047.688)" fill="#f5f5f5"/>
    <rect id="Rectángulo_37093" data-name="Rectángulo 37093" width="11.897" height="60.019" transform="translate(383.807 6243.023)" fill="#e6e6e6"/>
    <rect id="Rectángulo_37094" data-name="Rectángulo 37094" width="51.336" height="60.018" transform="translate(332.472 6243.028)" fill="#f0f0f0"/>
    <rect id="Rectángulo_37095" data-name="Rectángulo 37095" width="41.982" height="13.835" transform="translate(337.148 6266.116)" fill="#e6e6e6"/>
    <rect id="Rectángulo_37096" data-name="Rectángulo 37096" width="41.982" height="13.835" transform="translate(337.148 6283.038)" fill="#e6e6e6"/>
    <path id="Trazado_145049" data-name="Trazado 145049" d="M127.974,261.536H137.4a1.16,1.16,0,0,0,0-2.321h-9.428a1.16,1.16,0,0,0,0,2.321" transform="translate(225.451 6006.435)" fill="#f0f0f0"/>
    <rect id="Rectángulo_37097" data-name="Rectángulo 37097" width="41.982" height="13.835" transform="translate(337.148 6249.199)" fill="#e6e6e6"/>
    <path id="Trazado_145050" data-name="Trazado 145050" d="M127.974,230.752H137.4a1.16,1.16,0,0,0,0-2.32h-9.428a1.16,1.16,0,0,0,0,2.32" transform="translate(225.451 6020.301)" fill="#f0f0f0"/>
    <path id="Trazado_145051" data-name="Trazado 145051" d="M127.974,292.328H137.4a1.16,1.16,0,0,0,0-2.321h-9.428a1.16,1.16,0,0,0,0,2.321" transform="translate(225.451 5992.564)" fill="#f0f0f0"/>
    <rect id="Rectángulo_37098" data-name="Rectángulo 37098" width="52.921" height="3.157" transform="translate(330.887 6239.867)" fill="#e6e6e6"/>
    <rect id="Rectángulo_37099" data-name="Rectángulo 37099" width="13.56" height="3.157" transform="translate(383.807 6239.872)" fill="#e0e0e0"/>
    <path id="Trazado_145052" data-name="Trazado 145052" d="M273.367,371.594c0,4.2-43.1,7.6-96.266,7.6s-96.266-3.4-96.266-7.6,43.1-7.6,96.266-7.6,96.266,3.4,96.266,7.6" transform="translate(246.163 5959.237)" fill="#f5f5f5"/>
    <path id="Trazado_145053" data-name="Trazado 145053" d="M327.521,46.247a41.748,41.748,0,0,0-3.133-7.578l1.952-6.389L313.731,19.671l-6.4,1.959a39.677,39.677,0,0,0-7.571-3.141l-3.133-5.9H278.78l-3.14,5.9a40.044,40.044,0,0,0-7.571,3.141l-6.39-1.959L249.057,32.293l1.953,6.39a40.818,40.818,0,0,0-3.134,7.577l-5.9,3.134V67.245l5.9,3.14A40.557,40.557,0,0,0,251,77.956l-1.952,6.383,12.622,12.622,6.39-1.953a39.97,39.97,0,0,0,7.577,3.126l3.14,5.905h17.851l3.133-5.9A40.573,40.573,0,0,0,307.335,95l6.4,1.952,12.622-12.622-1.952-6.39a41.513,41.513,0,0,0,3.119-7.571l5.9-3.14V49.38ZM287.7,90.667A32.364,32.364,0,1,1,320.066,58.3,32.365,32.365,0,0,1,287.7,90.667" transform="translate(173.581 6117.524)" fill="#407bff"/>
    <path id="Trazado_145054" data-name="Trazado 145054" d="M302.379,45.137a27.832,27.832,0,1,0,27.838,27.831,27.831,27.831,0,0,0-27.838-27.831m0,51.956A24.125,24.125,0,1,1,326.5,72.962v.007a24.152,24.152,0,0,1-24.118,24.125" transform="translate(158.904 6102.865)" fill="#407bff"/>
    <g id="Grupo_141515" data-name="Grupo 141515" transform="translate(415.552 6130.116)" opacity="0.4">
      <g id="Grupo_141514" data-name="Grupo 141514">
        <g id="Grupo_141513" data-name="Grupo 141513" clip-path="url(#clip-path)">
          <path id="Trazado_145055" data-name="Trazado 145055" d="M327.521,46.247a41.748,41.748,0,0,0-3.133-7.578l1.952-6.389L313.731,19.671l-6.4,1.959a39.677,39.677,0,0,0-7.571-3.141l-3.133-5.9H278.78l-3.14,5.9a40.044,40.044,0,0,0-7.571,3.141l-6.39-1.959L249.057,32.293l1.953,6.39a40.818,40.818,0,0,0-3.134,7.577l-5.9,3.134V67.245l5.9,3.14A40.557,40.557,0,0,0,251,77.956l-1.952,6.383,12.622,12.622,6.39-1.953a39.97,39.97,0,0,0,7.577,3.126l3.14,5.905h17.851l3.133-5.9A40.573,40.573,0,0,0,307.335,95l6.4,1.952,12.622-12.622-1.952-6.39a41.513,41.513,0,0,0,3.119-7.571l5.9-3.14V49.38ZM287.7,90.667A32.364,32.364,0,1,1,320.066,58.3,32.365,32.365,0,0,1,287.7,90.667" transform="translate(-241.971 -12.592)" fill="#fff"/>
        </g>
      </g>
    </g>
    <g id="Grupo_141518" data-name="Grupo 141518" transform="translate(433.457 6148.002)" opacity="0.4">
      <g id="Grupo_141517" data-name="Grupo 141517">
        <g id="Grupo_141516" data-name="Grupo 141516" clip-path="url(#clip-path-2)">
          <path id="Trazado_145056" data-name="Trazado 145056" d="M302.379,45.137a27.832,27.832,0,1,0,27.838,27.831,27.831,27.831,0,0,0-27.838-27.831m0,51.956A24.125,24.125,0,1,1,326.5,72.962v.007a24.152,24.152,0,0,1-24.118,24.125" transform="translate(-274.553 -45.137)" fill="#fff"/>
        </g>
      </g>
    </g>
    <path id="Trazado_145057" data-name="Trazado 145057" d="M156.111,123.5a21.882,21.882,0,0,0-1.667-4.016l1.035-3.39-6.693-6.7-3.39,1.035a21.888,21.888,0,0,0-4.017-1.667l-1.666-3.106h-9.472l-1.661,3.106a21.72,21.72,0,0,0-4.017,1.667l-3.39-1.035-6.7,6.7,1.035,3.39a22.239,22.239,0,0,0-1.662,4.016l-3.131,1.667v9.472l3.131,1.662a22.049,22.049,0,0,0,1.662,4.016l-1.035,3.39,6.7,6.7,3.39-1.035a22.071,22.071,0,0,0,4.017,1.661l1.661,3.106h9.472l1.666-3.106a22.221,22.221,0,0,0,4.017-1.661l3.39,1.035,6.7-6.7-1.035-3.39a21.749,21.749,0,0,0,1.666-4.016l3.131-1.662v-9.472ZM134.978,143.35a13.457,13.457,0,1,1,13.458-13.458,13.458,13.458,0,0,1-13.458,13.458" transform="translate(232.703 6075.605)" fill="#263238"/>
    <path id="Trazado_145058" data-name="Trazado 145058" d="M156.111,123.5a21.882,21.882,0,0,0-1.667-4.016l1.035-3.39-6.693-6.7-3.39,1.035a21.888,21.888,0,0,0-4.017-1.667l-1.666-3.106h-9.472l-1.661,3.106a21.72,21.72,0,0,0-4.017,1.667l-3.39-1.035-6.7,6.7,1.035,3.39a22.239,22.239,0,0,0-1.662,4.016l-3.131,1.667v9.472l3.131,1.662a22.049,22.049,0,0,0,1.662,4.016l-1.035,3.39,6.7,6.7,3.39-1.035a22.071,22.071,0,0,0,4.017,1.661l1.661,3.106h9.472l1.666-3.106a22.221,22.221,0,0,0,4.017-1.661l3.39,1.035,6.7-6.7-1.035-3.39a21.749,21.749,0,0,0,1.666-4.016l3.131-1.662v-9.472ZM134.978,143.35a13.457,13.457,0,1,1,13.458-13.458,13.458,13.458,0,0,1-13.458,13.458" transform="translate(232.703 6075.605)" fill="#407bff"/>
    <path id="Trazado_145059" data-name="Trazado 145059" d="M151.2,141.651a4.462,4.462,0,1,0,4.462,4.462,4.462,4.462,0,0,0-4.462-4.462" transform="translate(216.475 6059.391)" fill="#263238"/>
    <g id="Grupo_141521" data-name="Grupo 141521" transform="translate(343.421 6181.259)" opacity="0.4">
      <g id="Grupo_141520" data-name="Grupo 141520">
        <g id="Grupo_141519" data-name="Grupo 141519" clip-path="url(#clip-path-3)">
          <path id="Trazado_145060" data-name="Trazado 145060" d="M156.111,123.5a21.882,21.882,0,0,0-1.667-4.016l1.035-3.39-6.693-6.7-3.39,1.035a21.888,21.888,0,0,0-4.017-1.667l-1.666-3.106h-9.472l-1.661,3.106a21.72,21.72,0,0,0-4.017,1.667l-3.39-1.035-6.7,6.7,1.035,3.39a22.239,22.239,0,0,0-1.662,4.016l-3.131,1.667v9.472l3.131,1.662a22.049,22.049,0,0,0,1.662,4.016l-1.035,3.39,6.7,6.7,3.39-1.035a22.071,22.071,0,0,0,4.017,1.661l1.661,3.106h9.472l1.666-3.106a22.221,22.221,0,0,0,4.017-1.661l3.39,1.035,6.7-6.7-1.035-3.39a21.749,21.749,0,0,0,1.666-4.016l3.131-1.662v-9.472ZM134.978,143.35a13.457,13.457,0,1,1,13.458-13.458,13.458,13.458,0,0,1-13.458,13.458" transform="translate(-110.718 -105.654)" fill="#fff"/>
        </g>
      </g>
    </g>
    <g id="Grupo_141524" data-name="Grupo 141524" transform="translate(363.219 6201.042)" opacity="0.2">
      <g id="Grupo_141523" data-name="Grupo 141523">
        <g id="Grupo_141522" data-name="Grupo 141522" clip-path="url(#clip-path-4)">
          <path id="Trazado_145061" data-name="Trazado 145061" d="M151.2,141.651a4.462,4.462,0,1,0,4.462,4.462,4.462,4.462,0,0,0-4.462-4.462" transform="translate(-146.743 -141.651)" fill="#fff"/>
        </g>
      </g>
    </g>
    <path id="Trazado_145062" data-name="Trazado 145062" d="M202.845,107.323l-3.623-1.5-.135-1.361a8.422,8.422,0,0,1-.942-.936l-1.356-.135-1.5-3.623.869-1.035a8.208,8.208,0,0,1,0-1.335l-.869-1.035,1.5-3.623,1.356-.13a8.968,8.968,0,0,1,.942-.942l.135-1.356,3.623-1.5,1.035.869a8.207,8.207,0,0,1,1.335,0l1.035-.869,3.623,1.5L210,91.671a8.969,8.969,0,0,1,.942.942l1.356.13,1.5,3.623-.87,1.035a8.2,8.2,0,0,1,0,1.335l.87,1.035-1.5,3.623-1.356.135a8.11,8.11,0,0,1-.942.942l-.129,1.356-3.623,1.5-1.035-.869a8.139,8.139,0,0,1-1.33,0Zm2.63-1.672.942.777,2.748-1.139.114-1.211.13-.1a7.94,7.94,0,0,0,1.061-1.035l.1-.13,1.216-.114,1.139-2.748-.777-.942v-.16a7.286,7.286,0,0,0,0-1.5v-.16l.777-.942-1.139-2.749-1.211-.114-.1-.129a7.906,7.906,0,0,0-1.061-1.035l-.13-.1-.114-1.211-2.748-1.139-.942.777h-.16a7.211,7.211,0,0,0-1.5,0h-.16l-.942-.777L199.962,90.9l-.114,1.211-.124.1a7.625,7.625,0,0,0-1.066,1.035l-.1.129-1.211.114-1.149,2.728.777.942v.16a7.29,7.29,0,0,0,0,1.5v.16l-.777.942,1.139,2.749,1.211.114.1.124a7.366,7.366,0,0,0,1.061,1.061l.129.1.114,1.216,2.748,1.139.942-.777h.16a7.21,7.21,0,0,0,1.5,0Z" transform="translate(194.606 6083.188)" fill="#263238"/>
    <path id="Trazado_145063" data-name="Trazado 145063" d="M210.322,106.086a4.208,4.208,0,1,1,2.277-5.5v0a4.2,4.2,0,0,1-2.269,5.493l-.008,0" transform="translate(190.458 6079.058)" fill="#263238"/>
    <path id="Trazado_145064" data-name="Trazado 145064" d="M159.83,105.378a.259.259,0,0,1-.259-.258v-1.294a.259.259,0,1,1,.518,0v1.294a.259.259,0,0,1-.259.258" transform="translate(210.697 6076.546)" fill="#407bff"/>
    <path id="Trazado_145065" data-name="Trazado 145065" d="M159.83,80.316a.259.259,0,0,1-.259-.259V77.464a.259.259,0,0,1,.518,0v2.593a.259.259,0,0,1-.259.259m0-5.186a.259.259,0,0,1-.259-.259V72.278a.259.259,0,1,1,.518,0v2.593a.259.259,0,0,1-.259.259m0-5.187a.258.258,0,0,1-.259-.259V67.091a.259.259,0,0,1,.518,0v2.593a.259.259,0,0,1-.259.259m0-5.2a.244.244,0,0,1-.259-.241v-.036a7.874,7.874,0,0,1,.436-2.594.259.259,0,0,1,.489.17,7.375,7.375,0,0,0-.407,2.425.275.275,0,0,1-.259.277m1.669-4.787a.259.259,0,0,1-.2-.42,7.913,7.913,0,0,1,1.991-1.775.259.259,0,0,1,.275.439,7.394,7.394,0,0,0-1.861,1.659.259.259,0,0,1-.2.1m4.313-2.7a.259.259,0,0,1-.056-.512,7.97,7.97,0,0,1,1.719-.187h.916a.259.259,0,1,1,0,.518h-.916a7.421,7.421,0,0,0-1.607.175.247.247,0,0,1-.057.006m44.071-.181H207.29a.259.259,0,1,1,0-.518h2.593a.259.259,0,1,1,0,.518m-5.186,0H202.1a.259.259,0,0,1,0-.518H204.7a.259.259,0,0,1,0,.518m-5.187,0h-2.593a.259.259,0,0,1,0-.518h2.593a.259.259,0,0,1,0,.518m-5.186,0h-2.593a.259.259,0,0,1,0-.518h2.593a.259.259,0,1,1,0,.518m-5.187,0h-2.593a.259.259,0,1,1,0-.518h2.593a.259.259,0,0,1,0,.518m-5.186,0h-2.593a.259.259,0,0,1,0-.518h2.593a.259.259,0,1,1,0,.518m-5.187,0h-2.593a.259.259,0,0,1,0-.518h2.593a.259.259,0,0,1,0,.518m-5.186,0h-2.593a.259.259,0,0,1,0-.518h2.593a.259.259,0,0,1,0,.518" transform="translate(210.697 6097.72)" fill="#407bff"/>
    <path id="Trazado_145066" data-name="Trazado 145066" d="M256.936,57.076h-1.294a.259.259,0,1,1,0-.518h1.294a.259.259,0,1,1,0,.518" transform="translate(167.54 6097.72)" fill="#407bff"/>
    <rect id="Rectángulo_37104" data-name="Rectángulo 37104" width="2.711" height="84.67" transform="translate(370.367 6245.579)" fill="#263238"/>
    <path id="Trazado_145067" data-name="Trazado 145067" d="M281.458,286.721H326.2a2.038,2.038,0,0,0,2.037-2.038v-2.127a2.037,2.037,0,0,0-2.037-2.037H281.458Z" transform="translate(155.794 5996.838)" fill="#407bff"/>
    <line id="Línea_164" data-name="Línea 164" x1="3.242" y1="51.248" transform="translate(477.029 6279.473)" fill="none" stroke="#407bff" stroke-linecap="round" stroke-linejoin="round" stroke-width="2.826"/>
    <line id="Línea_165" data-name="Línea 165" x1="3.242" y1="51.248" transform="translate(464.613 6282.014)" fill="none" stroke="#407bff" stroke-linecap="round" stroke-linejoin="round" stroke-width="2.826"/>
    <line id="Línea_166" data-name="Línea 166" y1="51.248" x2="3.242" transform="translate(435.319 6279.473)" fill="none" stroke="#407bff" stroke-linecap="round" stroke-linejoin="round" stroke-width="2.826"/>
    <line id="Línea_167" data-name="Línea 167" y1="51.248" x2="3.242" transform="translate(447.735 6282.014)" fill="none" stroke="#407bff" stroke-linecap="round" stroke-linejoin="round" stroke-width="2.826"/>
    <path id="Trazado_145068" data-name="Trazado 145068" d="M288.683,279.282h44.743a2.038,2.038,0,0,0,2.038-2.038v-2.127a2.038,2.038,0,0,0-2.038-2.037H288.683Z" transform="translate(152.54 6000.189)" fill="#407bff"/>
    <g id="Grupo_141527" data-name="Grupo 141527" transform="translate(441.223 6273.27)" opacity="0.2">
      <g id="Grupo_141526" data-name="Grupo 141526">
        <g id="Grupo_141525" data-name="Grupo 141525" clip-path="url(#clip-path-5)">
          <path id="Trazado_145069" data-name="Trazado 145069" d="M288.683,279.282h44.743a2.038,2.038,0,0,0,2.038-2.038v-2.127a2.038,2.038,0,0,0-2.038-2.037H288.683Z" transform="translate(-288.683 -273.08)"/>
        </g>
      </g>
    </g>
    <rect id="Rectángulo_37106" data-name="Rectángulo 37106" width="2.711" height="84.67" transform="translate(440.9 6247.602)" fill="#263238"/>
    <path id="Trazado_145070" data-name="Trazado 145070" d="M275.3,238.1s-30.968,1.163-36.114,13.6c0,0,.714,37.02,4.86,49.17l8.862-1-1.417-36L283.526,238.1Z" transform="translate(174.835 6015.946)" fill="#263238"/>
    <g id="Grupo_141530" data-name="Grupo 141530" transform="translate(414.022 6254.045)" opacity="0.2">
      <g id="Grupo_141529" data-name="Grupo 141529">
        <g id="Grupo_141528" data-name="Grupo 141528" clip-path="url(#clip-path-6)">
          <path id="Trazado_145071" data-name="Trazado 145071" d="M275.3,238.1s-30.968,1.163-36.114,13.6c0,0,.714,37.02,4.86,49.17l8.862-1-1.417-36L283.526,238.1Z" transform="translate(-239.187 -238.099)"/>
        </g>
      </g>
    </g>
    <path id="Trazado_145072" data-name="Trazado 145072" d="M256.844,361.96h-5.53l-.075-3.685-.056-2.89,5.4.328.108,2.561Z" transform="translate(169.432 5963.116)" fill="#b55b52"/>
    <g id="Grupo_141533" data-name="Grupo 141533" transform="translate(420.614 6318.501)" opacity="0.2">
      <g id="Grupo_141532" data-name="Grupo 141532">
        <g id="Grupo_141531" data-name="Grupo 141531" clip-path="url(#clip-path-7)">
          <path id="Trazado_145073" data-name="Trazado 145073" d="M256.695,358.275h-5.455l-.056-2.889,5.4.328Z" transform="translate(-251.183 -355.385)"/>
        </g>
      </g>
    </g>
    <path id="Trazado_145074" data-name="Trazado 145074" d="M254.506,354.106l-11.845.358-2.163-4.4,13.682-.126Z" transform="translate(174.244 5965.568)" fill="#407bff"/>
    <path id="Trazado_145075" data-name="Trazado 145075" d="M247.777,366.54s.282-3.246-.845-2.8S247.062,365.857,247.777,366.54Z" transform="translate(171.551 5959.369)" fill="none" stroke="#407bff" stroke-miterlimit="10" stroke-width="0.942"/>
    <path id="Trazado_145076" data-name="Trazado 145076" d="M246.281,367.981s-2.437-1.7-3.055-.834S246.281,367.981,246.281,367.981Z" transform="translate(173.047 5957.929)" fill="none" stroke="#407bff" stroke-miterlimit="10" stroke-width="0.942"/>
    <path id="Trazado_145077" data-name="Trazado 145077" d="M243.67,365.989l4.373.046a1.246,1.246,0,0,1,1.219,1.15l.308,3.889a1.2,1.2,0,0,1-1.225,1.3c-2.38-.069-7.278-.2-9.012-.147-2.327.068-5.627.1-6.1-.778a1.15,1.15,0,0,1,.279-1.462s6.334-.587,9.251-3.6a1.244,1.244,0,0,1,.905-.4" transform="translate(177.586 5958.339)" fill="#263238"/>
    <path id="Trazado_145078" data-name="Trazado 145078" d="M303.087,238.1s.584,7.218.365,12.8c-.253,6.429-14.1,12.1-34.249,8.808a68.611,68.611,0,0,1-7.146,20.869c-5.575,10.005-14.294,24.871-14.294,24.871l-8.576-5.575s11.292-31.3,13.436-40.022,3-12.864,9.148-15.58,19.582-6.166,19.582-6.166Z" transform="translate(174.835 6015.946)" fill="#263238"/>
    <path id="Trazado_145079" data-name="Trazado 145079" d="M242.654,355.738l-1.016,1.564-2.238,3.446-4.294-2.5,2.253-3.494.871-1.353Z" transform="translate(176.673 5964.011)" fill="#b55b52"/>
    <g id="Grupo_141536" data-name="Grupo 141536" transform="translate(414.031 6317.408)" opacity="0.2">
      <g id="Grupo_141535" data-name="Grupo 141535">
        <g id="Grupo_141534" data-name="Grupo 141534" clip-path="url(#clip-path-8)">
          <path id="Trazado_145080" data-name="Trazado 145080" d="M244.5,355.738l-1.016,1.564-4.28-2.552.871-1.353Z" transform="translate(-239.204 -353.397)"/>
        </g>
      </g>
    </g>
    <path id="Trazado_145081" data-name="Trazado 145081" d="M248.166,349.868l-11.237-6.731-1.822,4.491,10.671,6.159Z" transform="translate(176.673 5968.633)" fill="#407bff"/>
    <path id="Trazado_145082" data-name="Trazado 145082" d="M229.366,360.167s.819-2.815-.1-2.866S229.366,360.167,229.366,360.167Z" transform="translate(179.478 5962.253)" fill="none" stroke="#407bff" stroke-miterlimit="10" stroke-width="0.942"/>
    <path id="Trazado_145083" data-name="Trazado 145083" d="M227.33,360.3s-1.266-3.056-2.289-2.372S227.33,360.3,227.33,360.3Z" transform="translate(181.295 5962.014)" fill="none" stroke="#407bff" stroke-miterlimit="10" stroke-width="0.942"/>
    <path id="Trazado_145084" data-name="Trazado 145084" d="M226.476,360.3l3.749,2.212a1.21,1.21,0,0,1,.469,1.578l-1.7,3.445a1.209,1.209,0,0,1-1.717.5c-2.017-1.241-6.176-3.783-7.7-4.6-2.041-1.1-4.9-2.707-4.866-3.689a1.139,1.139,0,0,1,.981-1.1s5.76,2.649,9.8,1.549a1.268,1.268,0,0,1,.984.11" transform="translate(185.86 5961.649)" fill="#263238"/>
    <path id="Trazado_145085" data-name="Trazado 145085" d="M269.182,179.5s-1.151,12.6-.688,15.849c0,0-12.049,1.761-18.166.927l-4.078-1.02-5.1,1.244,1.39,4.039h4.078s2.966.834,4.263,0c0,0,10.195,2.039,16.219,1.39s7.89-2.94,8.157-7.507c.255-4.389,3.153-14.188.836-16.413Z" transform="translate(173.949 6043.013)" fill="#b55b52"/>
    <path id="Trazado_145086" data-name="Trazado 145086" d="M331.479,170.875s-4.62-11.737-9.117-14.389-25.309,2.421-25.309,2.421-8.933,2.875-9.444,16.828l8.205,3.479,1.3,21.777H324.9l-.15-28.211Z" transform="translate(153.024 6053.054)" fill="#407bff"/>
    <path id="Trazado_145087" data-name="Trazado 145087" d="M302.516,110.708s-2.752-.343-3.5-2.407,2.12-1.021,1.879-4.746,4.039-4.619,7.151-2.98,8.03-.149,9.893,2.086a4.478,4.478,0,0,1,1.043,4.321s5.34,6.037-1.428,10.171-15.042-6.446-15.042-6.446" transform="translate(147.94 6078.247)" fill="#263238"/>
    <path id="Trazado_145088" data-name="Trazado 145088" d="M320.314,137.773c-2.969,4.523-5.638,4.992-9.221,4.987-4.013-.014-2.669-2.857-2.669-2.857,1.681-.838,2.908-1.742,3.1-3.812a8.814,8.814,0,0,0,.028-1.208,10.676,10.676,0,0,0-.478-2.735c-5.69.515-7.694-2.261-8.406-7.5a16.128,16.128,0,0,1,1.681-9.37c3.3,3.877,9.5.838,9.5.838-1.742,5.043,2.524,6.851,2.524,6.851,1.676-1.035,2.969-.131,2.842,1.873a2.809,2.809,0,0,1-1.873,2.524c-.323,8.916,2.969,10.405,2.969,10.405" transform="translate(146.299 6071.269)" fill="#b55b52"/>
    <path id="Trazado_145089" data-name="Trazado 145089" d="M308.547,134.84a.176.176,0,0,1-.009-.351,3.842,3.842,0,0,0,2.77-1.07.176.176,0,0,1,.277.216,4.092,4.092,0,0,1-3.029,1.205h-.009" transform="translate(143.672 6063.128)" fill="#263238"/>
    <path id="Trazado_145090" data-name="Trazado 145090" d="M307.246,129.385l-.322-3.335-1.44,3.032a1.8,1.8,0,0,0,1.762.3" transform="translate(144.972 6066.418)" fill="#a02724"/>
    <path id="Trazado_145091" data-name="Trazado 145091" d="M312.726,125.428c0,.419.2.758.436.758s.436-.339.436-.758-.2-.758-.436-.758-.436.339-.436.758" transform="translate(141.71 6067.04)" fill="#263238"/>
    <path id="Trazado_145092" data-name="Trazado 145092" d="M303.9,125.428c0,.419.2.758.436.758s.436-.339.436-.758-.2-.758-.436-.758-.436.339-.436.758" transform="translate(145.686 6067.04)" fill="#263238"/>
    <path id="Trazado_145093" data-name="Trazado 145093" d="M315.6,121.869a.233.233,0,0,1-.191-.1,2.364,2.364,0,0,0-2.42-.7.234.234,0,1,1-.084-.461,2.812,2.812,0,0,1,2.887.892.234.234,0,0,1-.192.368" transform="translate(141.715 6068.9)" fill="#263238"/>
    <path id="Trazado_145094" data-name="Trazado 145094" d="M303.154,121.441a.234.234,0,0,1-.208-.34,1.834,1.834,0,0,1,1.831-.864.234.234,0,0,1-.062.464,1.371,1.371,0,0,0-1.353.613.233.233,0,0,1-.208.127" transform="translate(146.127 6069.042)" fill="#263238"/>
    <path id="Trazado_145095" data-name="Trazado 145095" d="M300.54,126.518a2.6,2.6,0,1,1,2.6-2.6,2.6,2.6,0,0,1-2.6,2.6m0-4.852a2.25,2.25,0,1,0,2.251,2.25,2.253,2.253,0,0,0-2.251-2.25" transform="translate(148.371 6068.551)" fill="#fff"/>
    <path id="Trazado_145096" data-name="Trazado 145096" d="M311.835,126.518a2.6,2.6,0,1,1,2.6-2.6,2.6,2.6,0,0,1-2.6,2.6m0-4.852a2.25,2.25,0,1,0,2.251,2.25,2.253,2.253,0,0,0-2.251-2.25" transform="translate(143.283 6068.551)" fill="#fff"/>
    <line id="Línea_168" data-name="Línea 168" x2="1.003" transform="translate(451.513 6192.468)" fill="none" stroke="#fff" stroke-miterlimit="10" stroke-width="0.942"/>
    <line id="Línea_169" data-name="Línea 169" x2="4.871" y2="1.171" transform="translate(457.551 6192.944)" fill="none" stroke="#fff" stroke-linecap="round" stroke-linejoin="round" stroke-width="0.942"/>
    <g id="Grupo_141539" data-name="Grupo 141539" transform="translate(457.374 6202.903)" opacity="0.2">
      <g id="Grupo_141538" data-name="Grupo 141538">
        <g id="Grupo_141537" data-name="Grupo 141537" clip-path="url(#clip-path-9)">
          <path id="Trazado_145097" data-name="Trazado 145097" d="M319.955,145.037a12.476,12.476,0,0,1-1.4,3.25,10.7,10.7,0,0,0-.478-2.735Z" transform="translate(-318.072 -145.037)"/>
        </g>
      </g>
    </g>
    <g id="Grupo_141542" data-name="Grupo 141542" transform="translate(447.432 6228.79)" opacity="0.2">
      <g id="Grupo_141541" data-name="Grupo 141541">
        <g id="Grupo_141540" data-name="Grupo 141540" clip-path="url(#clip-path-10)">
          <path id="Trazado_145098" data-name="Trazado 145098" d="M301.387,195.621v-3.479l-1.406,2.882Z" transform="translate(-299.982 -192.142)"/>
        </g>
      </g>
    </g>
    <g id="Grupo_141545" data-name="Grupo 141545" transform="translate(470.397 6221.362)" opacity="0.2">
      <g id="Grupo_141544" data-name="Grupo 141544">
        <g id="Grupo_141543" data-name="Grupo 141543" clip-path="url(#clip-path-11)">
          <path id="Trazado_145099" data-name="Trazado 145099" d="M343.145,184.889l-1.072-6.263-.3,6.813Z" transform="translate(-341.77 -178.626)"/>
        </g>
      </g>
    </g>
    <path id="Trazado_145100" data-name="Trazado 145100" d="M330.27,201.413c-.07,4.575-2.131,6.86-8.158,7.506s-16.216-1.391-16.216-1.391c-1.3.839-4.266,0-4.266,0h-4.079l-1.386-4.036,5.1-1.245,4.078,1.021c6.116.834,18.165-.927,18.165-.927-.346-2.43-.736-10.356-.9-14.06l7.187-2.126c.707,4.832.541,11.312.48,15.259" transform="translate(149.17 6039.345)" fill="#b55b52"/>
    <path id="Trazado_145101" data-name="Trazado 145101" d="M164.729,168.1,169.6,192.9a2.365,2.365,0,0,0,2.32,1.909H213.1a2.364,2.364,0,0,0,2.327-2.779l-4.418-24.791a2.365,2.365,0,0,0-2.327-1.949H167.049a2.364,2.364,0,0,0-2.32,2.82" transform="translate(208.394 6048.745)" fill="#407bff"/>
    <g id="Grupo_141548" data-name="Grupo 141548" transform="translate(417.697 6214.03)" opacity="0.2">
      <g id="Grupo_141547" data-name="Grupo 141547">
        <g id="Grupo_141546" data-name="Grupo 141546" clip-path="url(#clip-path-12)">
          <path id="Trazado_145102" data-name="Trazado 145102" d="M245.874,165.285l5.144,29.519a1.233,1.233,0,0,0,1.213-1.45L247.411,166.3a1.234,1.234,0,0,0-1.214-1.017Z" transform="translate(-245.874 -165.285)"/>
        </g>
      </g>
    </g>
    <path id="Trazado_145103" data-name="Trazado 145103" d="M174.505,221.366h63.328A2.37,2.37,0,0,0,235.466,219H176.88a2.372,2.372,0,0,0-2.375,2.367" transform="translate(203.97 6024.55)" fill="#407bff"/>
    <g id="Grupo_141551" data-name="Grupo 141551" transform="translate(420.884 6243.548)" opacity="0.2">
      <g id="Grupo_141550" data-name="Grupo 141550">
        <g id="Grupo_141549" data-name="Grupo 141549" clip-path="url(#clip-path-13)">
          <path id="Trazado_145104" data-name="Trazado 145104" d="M251.673,221.366h20.92A2.371,2.371,0,0,0,270.226,219H254.049a2.372,2.372,0,0,0-2.376,2.367" transform="translate(-251.673 -218.998)"/>
        </g>
      </g>
    </g>
    <g id="Grupo_141554" data-name="Grupo 141554" transform="translate(393.356 6223.526)" opacity="0.4">
      <g id="Grupo_141553" data-name="Grupo 141553">
        <g id="Grupo_141552" data-name="Grupo 141552" clip-path="url(#clip-path-14)">
          <path id="Trazado_145105" data-name="Trazado 145105" d="M201.664,188.75c.443,3.086,2.576,5.332,4.764,5.018s3.6-3.07,3.159-6.156-2.575-5.332-4.763-5.018-3.6,3.07-3.159,6.156" transform="translate(-201.583 -182.565)" fill="#fff"/>
        </g>
      </g>
    </g>
    <g id="Grupo_141557" data-name="Grupo 141557" transform="translate(378.475 6243.548)" opacity="0.2">
      <g id="Grupo_141556" data-name="Grupo 141556">
        <g id="Grupo_141555" data-name="Grupo 141555" clip-path="url(#clip-path-15)">
          <path id="Trazado_145106" data-name="Trazado 145106" d="M174.505,221.366h63.328A2.37,2.37,0,0,0,235.466,219H176.88a2.372,2.372,0,0,0-2.375,2.367" transform="translate(-174.505 -218.998)"/>
        </g>
      </g>
    </g>
    <path id="Trazado_145107" data-name="Trazado 145107" d="M127.3,225.684H236.664a3.914,3.914,0,0,0-3.915-3.915H131.218a3.914,3.914,0,0,0-3.915,3.915" transform="translate(225.232 6023.302)" fill="#263238"/>
  </g>
</svg>
