<svg xmlns="http://www.w3.org/2000/svg" xmlns:xlink="http://www.w3.org/1999/xlink" width="273.75" height="132" viewBox="0 0 273.75 132">
  <defs>
    <clipPath id="clip-path">
      <rect id="Rectángulo_37561" data-name="Rectángulo 37561" width="65" height="65" fill="none"/>
    </clipPath>
  </defs>
  <g id="Grupo_142248" data-name="Grupo 142248" transform="translate(5136 -1747.666)">
    <path id="Trazado_146864" data-name="Trazado 146864" d="M10,0H226a10,10,0,0,1,10,10V122a10,10,0,0,1-10,10H10A10,10,0,0,1,0,122V10A10,10,0,0,1,10,0Z" transform="translate(-5098.25 1747.666)" fill="#fff"/>
    <g id="Grupo_142225" data-name="Grupo 142225" transform="translate(-5609 -10443)">
      <path id="Trazado_145519" data-name="Trazado 145519" d="M42,0A42,42,0,1,1,0,42,42,42,0,0,1,42,0Z" transform="translate(473 12214)" fill="#19bdc9"/>
    </g>
    <path id="Trazado_146865" data-name="Trazado 146865" d="M9.893,12.965H4.5v3.4h6.367V19H1.074V4.781h9.814V7.428H4.5v3H9.893Zm6.5-1.621,1.533-2.91h3.418L18.564,13.58,21.484,19H18.047l-1.66-3.125L14.756,19H11.3l2.93-5.42L11.455,8.434h3.457ZM28.359,19a3.716,3.716,0,0,1-.312-.947A3.06,3.06,0,0,1,25.508,19.2a3.749,3.749,0,0,1-2.539-.9,2.875,2.875,0,0,1-1.045-2.271,2.955,2.955,0,0,1,1.27-2.6,6.468,6.468,0,0,1,3.691-.879H27.9v-.559q0-1.462-1.26-1.462a1.03,1.03,0,0,0-1.172,1.158H22.178a2.95,2.95,0,0,1,1.3-2.487,5.479,5.479,0,0,1,3.325-.956A4.8,4.8,0,0,1,30,9.225a3.429,3.429,0,0,1,1.2,2.705v4.678a4.79,4.79,0,0,0,.449,2.227V19ZM26.3,16.852a1.836,1.836,0,0,0,1.021-.264,1.653,1.653,0,0,0,.581-.6V14.3h-.957q-1.719,0-1.719,1.543a.942.942,0,0,0,.3.728A1.1,1.1,0,0,0,26.3,16.852Zm11.191-.2a1.464,1.464,0,0,0,1.074-.376,1.379,1.379,0,0,0,.371-1.05h3.086a3.653,3.653,0,0,1-1.245,2.852A4.631,4.631,0,0,1,37.568,19.2a4.689,4.689,0,0,1-3.633-1.445,5.7,5.7,0,0,1-1.328-4v-.137a6.436,6.436,0,0,1,.591-2.827A4.3,4.3,0,0,1,34.9,8.9a5.081,5.081,0,0,1,2.637-.659,4.573,4.573,0,0,1,3.271,1.143,4.053,4.053,0,0,1,1.211,3.1H38.936a1.807,1.807,0,0,0-.4-1.26,1.382,1.382,0,0,0-1.074-.439q-1.279,0-1.494,1.631a11.507,11.507,0,0,0-.068,1.426,4.52,4.52,0,0,0,.381,2.207A1.319,1.319,0,0,0,37.49,16.656Zm9.756-10.85V8.434h1.738v2.285H47.246v4.834a1.234,1.234,0,0,0,.215.83,1.152,1.152,0,0,0,.85.234,4.828,4.828,0,0,0,.82-.059v2.354a6.074,6.074,0,0,1-1.855.283,3.448,3.448,0,0,1-2.51-.8,3.282,3.282,0,0,1-.811-2.432V10.719H42.607V8.434h1.348V5.807ZM53.75,19h-3.3V8.434h3.3Zm-3.5-13.3a1.482,1.482,0,0,1,.508-1.159,2.149,2.149,0,0,1,2.637,0A1.482,1.482,0,0,1,53.906,5.7,1.482,1.482,0,0,1,53.4,6.859a2.149,2.149,0,0,1-2.637,0A1.482,1.482,0,0,1,50.254,5.7Zm9.355.107V8.434h1.738v2.285H59.609v4.834a1.234,1.234,0,0,0,.215.83,1.152,1.152,0,0,0,.85.234,4.828,4.828,0,0,0,.82-.059v2.354a6.074,6.074,0,0,1-1.855.283,3.448,3.448,0,0,1-2.51-.8,3.282,3.282,0,0,1-.811-2.432V10.719H54.971V8.434h1.348V5.807Zm9.326,12.051A3.393,3.393,0,0,1,66.113,19.2a3.328,3.328,0,0,1-2.632-1.011,4.251,4.251,0,0,1-.894-2.905V8.434h3.291V15.3A1.183,1.183,0,0,0,67.2,16.656a1.72,1.72,0,0,0,1.611-.811V8.434h3.311V19H69.033Zm4.57-4.219A6.455,6.455,0,0,1,74.59,9.684a3.568,3.568,0,0,1,3.027-1.445A3.035,3.035,0,0,1,80,9.352V4h3.3V19H80.342l-.166-1.133A3.116,3.116,0,0,1,77.6,19.2a3.562,3.562,0,0,1-2.988-1.445A6.659,6.659,0,0,1,73.506,13.639Zm3.291.205q0,2.813,1.641,2.813A1.62,1.62,0,0,0,80,15.738V11.715a1.576,1.576,0,0,0-1.543-.937q-1.523,0-1.65,2.461Zm12.939-.205A6.455,6.455,0,0,1,90.82,9.684a3.568,3.568,0,0,1,3.027-1.445A3.035,3.035,0,0,1,96.23,9.352V4h3.3V19H96.572l-.166-1.133A3.116,3.116,0,0,1,93.828,19.2,3.562,3.562,0,0,1,90.84,17.75,6.659,6.659,0,0,1,89.736,13.639Zm3.291.205q0,2.813,1.641,2.813a1.62,1.62,0,0,0,1.563-.918V11.715a1.576,1.576,0,0,0-1.543-.937q-1.523,0-1.65,2.461ZM106.514,19.2a5.432,5.432,0,0,1-3.936-1.45,5.008,5.008,0,0,1-1.5-3.774V13.7a6.489,6.489,0,0,1,.6-2.861,4.395,4.395,0,0,1,1.753-1.919,5.292,5.292,0,0,1,2.734-.679,4.574,4.574,0,0,1,3.516,1.382,5.43,5.43,0,0,1,1.289,3.853v1.279h-6.543a2.372,2.372,0,0,0,.771,1.4,2.3,2.3,0,0,0,1.543.508,2.958,2.958,0,0,0,2.441-1.094l1.5,1.777a4.2,4.2,0,0,1-1.743,1.353A5.891,5.891,0,0,1,106.514,19.2Zm-.371-8.418q-1.445,0-1.719,1.914h3.32v-.254a1.63,1.63,0,0,0-.4-1.226A1.593,1.593,0,0,0,106.143,10.777ZM4.395,46h-3.3V31h3.3Zm7.979,0a3.716,3.716,0,0,1-.312-.947A3.06,3.06,0,0,1,9.521,46.2a3.749,3.749,0,0,1-2.539-.9,2.875,2.875,0,0,1-1.045-2.271,2.955,2.955,0,0,1,1.27-2.6,6.468,6.468,0,0,1,3.691-.879h1.016v-.559q0-1.462-1.26-1.462a1.03,1.03,0,0,0-1.172,1.158H6.191a2.95,2.95,0,0,1,1.3-2.487,5.479,5.479,0,0,1,3.325-.956,4.8,4.8,0,0,1,3.193.986,3.429,3.429,0,0,1,1.2,2.705v4.678a4.79,4.79,0,0,0,.449,2.227V46Zm-2.061-2.148a1.836,1.836,0,0,0,1.021-.264,1.653,1.653,0,0,0,.581-.6V41.3h-.957q-1.719,0-1.719,1.543a.942.942,0,0,0,.3.728A1.1,1.1,0,0,0,10.313,43.852Zm12.256-.82a.76.76,0,0,0-.439-.674,6.685,6.685,0,0,0-1.67-.527,7.615,7.615,0,0,1-2.031-.718,3.4,3.4,0,0,1-1.221-1.079,2.577,2.577,0,0,1-.42-1.455,2.92,2.92,0,0,1,1.2-2.4,4.948,4.948,0,0,1,3.145-.942,5.482,5.482,0,0,1,3.359.947,2.962,2.962,0,0,1,1.27,2.49h-3.3q0-1.27-1.338-1.27a1.326,1.326,0,0,0-.869.288.892.892,0,0,0-.352.718.819.819,0,0,0,.43.713,4.06,4.06,0,0,0,1.372.449,11.857,11.857,0,0,1,1.655.42,3.007,3.007,0,0,1,2.383,2.939,2.767,2.767,0,0,1-1.284,2.354,5.631,5.631,0,0,1-3.325.908,5.747,5.747,0,0,1-2.422-.488,4.05,4.05,0,0,1-1.66-1.328,3.007,3.007,0,0,1-.6-1.768h3.076a1.272,1.272,0,0,0,.488,1.069,2.009,2.009,0,0,0,1.2.337,1.58,1.58,0,0,0,1.011-.273A.875.875,0,0,0,22.568,43.031Zm19.5-2.236a6.372,6.372,0,0,1-1.108,3.931,3.554,3.554,0,0,1-2.993,1.47,3.046,3.046,0,0,1-2.393-1.064v4.932H32.285V35.434h3.076l.1.977a3.046,3.046,0,0,1,2.49-1.172,3.582,3.582,0,0,1,3.037,1.44,6.45,6.45,0,0,1,1.084,3.96Zm-3.291-.205q0-2.812-1.641-2.812a1.549,1.549,0,0,0-1.562.84v4.16a1.6,1.6,0,0,0,1.582.879q1.572,0,1.621-2.715Zm11.133-2.178-1.084-.078a1.947,1.947,0,0,0-1.992.977V46H43.545V35.434h3.086l.107,1.357a2.548,2.548,0,0,1,2.314-1.553,3.209,3.209,0,0,1,.918.117Zm7.48,6.445A3.393,3.393,0,0,1,54.57,46.2a3.328,3.328,0,0,1-2.632-1.011,4.251,4.251,0,0,1-.894-2.905V35.434h3.291V42.3a1.183,1.183,0,0,0,1.318,1.357,1.72,1.72,0,0,0,1.611-.811V35.434h3.311V46H57.49ZM67.49,46.2a5.432,5.432,0,0,1-3.936-1.45,5.008,5.008,0,0,1-1.5-3.774V40.7a6.489,6.489,0,0,1,.6-2.861A4.395,4.395,0,0,1,64.4,35.917a5.292,5.292,0,0,1,2.734-.679,4.574,4.574,0,0,1,3.516,1.382,5.43,5.43,0,0,1,1.289,3.853v1.279H65.4a2.372,2.372,0,0,0,.771,1.4,2.3,2.3,0,0,0,1.543.508,2.958,2.958,0,0,0,2.441-1.094l1.5,1.777a4.2,4.2,0,0,1-1.743,1.353A5.891,5.891,0,0,1,67.49,46.2Zm-.371-8.418q-1.445,0-1.719,1.914h3.32v-.254a1.63,1.63,0,0,0-.4-1.226A1.593,1.593,0,0,0,67.119,37.777ZM83.076,40.8A6.44,6.44,0,0,1,82,44.8a3.6,3.6,0,0,1-3.027,1.4,3.122,3.122,0,0,1-2.6-1.279L76.24,46H73.291V31h3.291v5.283a3.013,3.013,0,0,1,2.373-1.045A3.6,3.6,0,0,1,82,36.654a6.473,6.473,0,0,1,1.074,3.984Zm-3.3-.21a4.3,4.3,0,0,0-.405-2.169,1.366,1.366,0,0,0-1.245-.648,1.576,1.576,0,0,0-1.543.848v4.192a1.585,1.585,0,0,0,1.563.838,1.4,1.4,0,0,0,1.475-1.131A8.121,8.121,0,0,0,79.775,40.595ZM90.479,46a3.716,3.716,0,0,1-.312-.947A3.06,3.06,0,0,1,87.627,46.2a3.749,3.749,0,0,1-2.539-.9,2.875,2.875,0,0,1-1.045-2.271,2.955,2.955,0,0,1,1.27-2.6A6.468,6.468,0,0,1,89,39.545H90.02v-.559q0-1.462-1.26-1.462a1.03,1.03,0,0,0-1.172,1.158H84.3a2.95,2.95,0,0,1,1.3-2.487,5.479,5.479,0,0,1,3.325-.956,4.8,4.8,0,0,1,3.193.986,3.429,3.429,0,0,1,1.2,2.705v4.678a4.79,4.79,0,0,0,.449,2.227V46Zm-2.061-2.148a1.836,1.836,0,0,0,1.021-.264,1.653,1.653,0,0,0,.581-.6V41.3h-.957q-1.719,0-1.719,1.543a.942.942,0,0,0,.3.728A1.1,1.1,0,0,0,88.418,43.852Zm12.256-.82a.76.76,0,0,0-.439-.674,6.685,6.685,0,0,0-1.67-.527,7.615,7.615,0,0,1-2.031-.718,3.4,3.4,0,0,1-1.221-1.079,2.577,2.577,0,0,1-.42-1.455,2.92,2.92,0,0,1,1.2-2.4,4.948,4.948,0,0,1,3.145-.942,5.482,5.482,0,0,1,3.359.947,2.962,2.962,0,0,1,1.27,2.49h-3.3q0-1.27-1.338-1.27a1.326,1.326,0,0,0-.869.288.892.892,0,0,0-.352.718.819.819,0,0,0,.43.713,4.06,4.06,0,0,0,1.372.449,11.856,11.856,0,0,1,1.655.42,3.007,3.007,0,0,1,2.383,2.939,2.767,2.767,0,0,1-1.284,2.354,5.631,5.631,0,0,1-3.325.908,5.747,5.747,0,0,1-2.422-.488,4.05,4.05,0,0,1-1.66-1.328,3.007,3.007,0,0,1-.6-1.768h3.076a1.272,1.272,0,0,0,.488,1.069,2.009,2.009,0,0,0,1.2.337,1.58,1.58,0,0,0,1.011-.273A.875.875,0,0,0,100.674,43.031Z" transform="translate(-5029.334 1787.166)" fill="#12263f"/>
    <g id="Grupo_142241" data-name="Grupo 142241" transform="translate(2 2)">
      <g id="Grupo_142240" data-name="Grupo 142240" transform="translate(-5128 1779)">
        <g id="Grupo_142239" data-name="Grupo 142239" clip-path="url(#clip-path)">
          <path id="Trazado_146824" data-name="Trazado 146824" d="M0,33.77V31.231c.118-.14.041-.308.064-.461-.009-.1.028-.215-.064-.3v-.635c.141-.893.125-1.8.211-2.7a23.479,23.479,0,0,1,1.5-5.937A32.005,32.005,0,0,1,6.971,11.93a32.747,32.747,0,0,1,10.187-8.4A31.643,31.643,0,0,1,26.2.327,29.788,29.788,0,0,1,29.472.062c.164-.011.339.055.489-.062h.508c.085.091.2.055.3.064.154-.023.321.054.461-.064h2.539c.14.118.308.041.461.064.1-.009.215.028.3-.064h.508c.934.132,1.879.123,2.817.21a23.334,23.334,0,0,1,5.808,1.451A33.063,33.063,0,0,1,50.7,5.219a2.239,2.239,0,0,1,.961.884.833.833,0,0,1-.326.778q-3.837,3.864-7.7,7.7a.924.924,0,0,1-.782.341,40.845,40.845,0,0,1-4.485.094c-.927.02-1.855,0-2.783.009-.439.006-.742.161-.738.658s.322.639.754.643c1.455.014,2.91,0,4.364.009a2.551,2.551,0,0,1,1.06.109.335.335,0,0,1,.134.487,4.675,4.675,0,0,1-1.991,1.8,32.915,32.915,0,0,1-3.541.1c-.61.016-.788.171-.789.656s.173.621.788.657a4.548,4.548,0,0,1,1.626.131.4.4,0,0,1,.029.612,7.043,7.043,0,0,1-1.771,1.648c-.753.017-.753.017-.778.713a1.275,1.275,0,0,1-.483.721Q28.865,29.343,23.5,34.734c-.165.165-.352.3-.523.46-.312.317-.533.76-1.064.775a12.237,12.237,0,0,0-4.9-.047,8.9,8.9,0,0,0,.7,17.415A8.876,8.876,0,0,0,27.387,48a12.107,12.107,0,0,0,.729-4.023c0-.411.313-.624.558-.874a14.777,14.777,0,0,1,1.138-1.088c.163-.194.326-.387.506-.567q8.38-8.353,16.74-16.726c.305-.3.562-.716,1.092-.669,1.536-.2,3.079-.053,4.617-.1a1.774,1.774,0,0,0,.687-.074c.309-.137.329-.412.309-.7a.535.535,0,0,0-.589-.531c-.7-.03-1.393,0-2.09-.016a3.15,3.15,0,0,1-1.065-.091c-.286-.185-.228-.422-.085-.659a2.338,2.338,0,0,1,.38-.425q3.832-3.839,7.672-7.67c.284-.283.559-.608,1.038-.411a11.982,11.982,0,0,1,2.015,2.968,31.486,31.486,0,0,1,3.637,9.86,30.637,30.637,0,0,1,.262,3.266c.011.163-.054.338.062.488v.508c-.091.085-.055.2-.063.3.022.154-.055.321.063.461V33.77c-.118.14-.041.308-.063.461.008.1-.028.215.063.3v.635c-.141.893-.125,1.8-.211,2.7a23.474,23.474,0,0,1-1.5,5.937,32,32,0,0,1-5.257,9.271,32.746,32.746,0,0,1-10.187,8.4,31.643,31.643,0,0,1-9.042,3.2,29.757,29.757,0,0,1-3.273.265c-.164.011-.339-.054-.489.062h-.508c-.085-.091-.2-.055-.3-.063-.154.022-.321-.055-.461.063H31.23c-.14-.118-.308-.041-.461-.063-.1.009-.215-.028-.3.063h-.635c-.893-.141-1.8-.126-2.7-.211a23.219,23.219,0,0,1-5.878-1.48,32.1,32.1,0,0,1-9.33-5.28,32.78,32.78,0,0,1-8.461-10.3A31.688,31.688,0,0,1,.327,38.8a30.763,30.763,0,0,1-.264-3.209c-.011-.143.046-.3-.063-.426v-.635c.091-.085.055-.2.064-.3C.041,34.077.118,33.91,0,33.77" fill="#017295"/>
          <path id="Trazado_146825" data-name="Trazado 146825" d="M241.934,0c-.146.16-.333.125-.516.111q-.127-.065.009-.111Z" transform="translate(-210.703)" fill="#4e9cb5"/>
          <path id="Trazado_146826" data-name="Trazado 146826" d="M266.414.109c-.183.014-.37.049-.516-.109h.508q.136.045.008.109" transform="translate(-232.129)" fill="#519eb7"/>
          <path id="Trazado_146827" data-name="Trazado 146827" d="M.109,241.419c.014.183.049.37-.109.516v-.508q.045-.136.109-.008" transform="translate(0 -210.704)" fill="#519eb7"/>
          <path id="Trazado_146828" data-name="Trazado 146828" d="M510.959,241.934c-.158-.146-.124-.333-.109-.516q.065-.128.109.008Z" transform="translate(-445.959 -210.704)" fill="#519eb7"/>
          <path id="Trazado_146829" data-name="Trazado 146829" d="M0,265.9c.16.146.125.333.111.516q-.066.127-.111-.009Z" transform="translate(0 -232.129)" fill="#4e9cb5"/>
          <path id="Trazado_146830" data-name="Trazado 146830" d="M510.838,266.416c-.015-.183-.049-.371.111-.516v.508q-.045.136-.111.008" transform="translate(-445.949 -232.13)" fill="#4e9cb5"/>
          <path id="Trazado_146831" data-name="Trazado 146831" d="M241.417,510.852c.183-.014.37-.049.516.109h-.508q-.136-.045-.008-.109" transform="translate(-210.703 -445.961)" fill="#519eb7"/>
          <path id="Trazado_146832" data-name="Trazado 146832" d="M265.9,510.951c.146-.16.333-.125.516-.111q.127.065-.008.111Z" transform="translate(-232.129 -445.951)" fill="#4e9cb5"/>
          <path id="Trazado_146833" data-name="Trazado 146833" d="M510.908,269.907l.111-.009v.254c-.127-.041-.118-.144-.111-.245" transform="translate(-446.019 -235.621)" fill="#7bb5c8"/>
          <path id="Trazado_146834" data-name="Trazado 146834" d="M240.162,0a.812.812,0,0,1-.008.111c-.1.007-.2.016-.245-.111Z" transform="translate(-209.439)" fill="#7bb5c8"/>
          <path id="Trazado_146835" data-name="Trazado 146835" d="M269.905.109A1.092,1.092,0,0,1,269.9,0h.254c-.042.127-.144.118-.246.109" transform="translate(-235.62)" fill="#7bb5c8"/>
          <path id="Trazado_146836" data-name="Trazado 146836" d="M.109,240.156q-.055,0-.109.008v-.254c.127.042.118.144.109.245" transform="translate(0 -209.441)" fill="#7bb5c8"/>
          <path id="Trazado_146837" data-name="Trazado 146837" d="M240.154,510.914a1.088,1.088,0,0,1,.008.109h-.254c.042-.127.144-.118.246-.109" transform="translate(-209.439 -446.024)" fill="#7bb5c8"/>
          <path id="Trazado_146838" data-name="Trazado 146838" d="M511.022,240.164c-.036,0-.073-.007-.109-.008-.008-.1-.018-.2.109-.245Z" transform="translate(-446.022 -209.441)" fill="#7bb5c8"/>
          <path id="Trazado_146839" data-name="Trazado 146839" d="M0,269.9l.111.009c.007.1.016.2-.111.245Z" transform="translate(0 -235.621)" fill="#7bb5c8"/>
          <path id="Trazado_146840" data-name="Trazado 146840" d="M269.9,511.019a.819.819,0,0,1,.008-.111c.1-.007.2-.016.246.111Z" transform="translate(-235.619 -446.019)" fill="#7bb5c8"/>
          <path id="Trazado_146841" data-name="Trazado 146841" d="M231.933,52.173c-.661.87-1.539,1.533-2.246,2.359-.5.483-1.008.958-1.5,1.449q-3.522,3.513-7.035,7.033c-.132.132-.248.282-.371.424a3.487,3.487,0,0,1-1.559,1.723c-.1.074-.233.1-.339.168-.186.171-.379.334-.557.513q-8.47,8.466-16.938,16.934c-.178.178-.371.34-.558.51a.721.721,0,0,1-.724-.288q-2.018-2.013-4.029-4.032a1,1,0,0,1-.361-.648c.026-.424.339-.665.605-.931q4.309-4.307,8.614-8.618,10.467-10.49,20.957-20.957a2.21,2.21,0,0,1,.941-.728.891.891,0,0,1,.709.355c1.377,1.34,2.713,2.723,4.082,4.072a.813.813,0,0,1,.308.663" transform="translate(-170.861 -41.101)" fill="#fcbe43"/>
          <path id="Trazado_146842" data-name="Trazado 146842" d="M212.746,33.149c-.2.215-.4.436-.608.645q-14.889,14.893-29.781,29.784c-.209.209-.413.424-.619.636-.218.174-.4.049-.555-.09-.509-.464-.989-.958-1.465-1.456a.552.552,0,0,1-.145-.576c.513-.528,1.019-1.063,1.539-1.584q4.849-4.856,9.7-9.707c.163-.163.311-.34.466-.51a1.2,1.2,0,0,1,.876-.875,22.152,22.152,0,0,0,1.9-1.9c.195-.843.905-1.239,1.51-1.721a2.808,2.808,0,0,1,.394-.184,21.607,21.607,0,0,0,1.9-1.9c.195-.843.9-1.239,1.51-1.721a2.788,2.788,0,0,1,.395-.184q3.031-3.008,6.062-6.017c.836-.833,1.655-1.684,2.481-2.526L210.657,31a.627.627,0,0,1,.524.16c.48.469.971.928,1.423,1.424a.483.483,0,0,1,.142.569" transform="translate(-156.741 -27.056)" fill="#fb9202"/>
          <path id="Trazado_146843" data-name="Trazado 146843" d="M96,94.237a9.086,9.086,0,0,1-5.042,11.955A9.175,9.175,0,1,1,86.2,88.608a8.86,8.86,0,0,1,7.872,2.637c.15.148.3.292.456.438.131-.045.132.05.118.125a2.462,2.462,0,0,1-1.605,1.405,7.424,7.424,0,0,1-1.106-.93,6.99,6.99,0,0,0-9.387,10.333,7.011,7.011,0,0,0,11.881-6.043,4.124,4.124,0,0,0-.082-.751A2.379,2.379,0,0,1,96,94.237" transform="translate(-68.338 -77.253)" fill="#87b8d2"/>
          <path id="Trazado_146844" data-name="Trazado 146844" d="M96.882,286.983a9.122,9.122,0,0,1-9.4,9.815,9.184,9.184,0,0,1-1.021-18.278,8.634,8.634,0,0,1,4.073.347.357.357,0,0,1-.044.458,4.785,4.785,0,0,1-1.353,1.244,10.157,10.157,0,0,1-1.386.1,6.962,6.962,0,0,0-1.126,13.839,6.941,6.941,0,0,0,8.056-5.869,2.59,2.59,0,0,1,.164-.674,5.387,5.387,0,0,1,2.042-.987" transform="translate(-68.571 -243.063)" fill="#87b8d2"/>
          <path id="Trazado_146845" data-name="Trazado 146845" d="M118.031,85.34a14.985,14.985,0,0,0-1.511,1.5,1.231,1.231,0,0,1-.43.82c-1.77,1.76-3.529,3.532-5.3,5.292-.74.735-1.262.728-2.006-.008-1.594-1.577-3.173-3.17-4.759-4.755-.686-.685-.679-1.008-.009-1.7.264-.274.529-.548.809-.806.538-.5.9-.5,1.424.008.97.944,1.922,1.908,2.88,2.865.617.616.715.619,1.329,0,1.293-1.31,2.612-2.593,3.9-3.908a1.213,1.213,0,0,1,.8-.471l1.4-1.388c1.407-1.4,2.824-2.792,4.216-4.208.345-.351.594-.388.928-.007a11.762,11.762,0,0,0,1.075,1.075c.382.336.331.587-.013.928-1.588,1.576-3.154,3.175-4.729,4.765" transform="translate(-90.367 -68.356)" fill="#fcec32"/>
          <path id="Trazado_146846" data-name="Trazado 146846" d="M158.536,284.761a3.737,3.737,0,0,1-1.886,1.027c-.476.453-.99.2-1.4-.038-.5-.292-.78-.151-1.14.2-.378.371-.652.909-1.279.959a1.085,1.085,0,0,1-.536-.307c-.947-.946-1.9-1.89-2.839-2.842a.922.922,0,0,1-.287-.545c.13-.559.634-.816.989-1.186a.8.8,0,0,0,.181-1.147,2.433,2.433,0,0,1-.246-1.886,1.031,1.031,0,0,1,.685-.822l1.4-1.533.872-.768L155.221,278l4.973,5.025-1.659,1.737" transform="translate(-130.224 -240.84)" fill="#024c67"/>
          <path id="Trazado_146847" data-name="Trazado 146847" d="M281.611,307.6q-4.469,0-8.938,0c-.847,0-.851-.006-.855-.842,0-1.062,0-1.062,1.079-1.062q8.78,0,17.559.006c.3,0,.725-.159.85.216a2.329,2.329,0,0,1-.01,1.491c-.1.286-.44.187-.683.188q-4.5.007-9,0" transform="translate(-237.296 -266.848)" fill="#6ca9c8"/>
          <path id="Trazado_146848" data-name="Trazado 146848" d="M281.425,367.587c-2.979,0-5.959-.015-8.938.012-.62.006-.854-.207-.78-.806a2.66,2.66,0,0,0,0-.507c-.03-.426.143-.627.587-.607s.887,0,1.331,0q8.368,0,16.735.006c.3,0,.726-.159.842.229a2.322,2.322,0,0,1-.023,1.491c-.106.275-.447.175-.691.175q-4.533.007-9.065,0" transform="translate(-237.189 -319.217)" fill="#6ca9c8"/>
          <path id="Trazado_146849" data-name="Trazado 146849" d="M279.4,335.769q3.517,0,7.034,0c.844,0,.852.011.855.845,0,1.058,0,1.059-1.022,1.059q-6.939,0-13.879-.006c-.29,0-.727.157-.806-.274a2.328,2.328,0,0,1,.07-1.486c.114-.225.423-.135.649-.135q3.549-.006,7.1,0" transform="translate(-237.014 -293.112)" fill="#6ca9c8"/>
          <path id="Trazado_146850" data-name="Trazado 146850" d="M280.219,115.944a21.7,21.7,0,0,1-1.9,1.9c-1.943-.006-3.886-.033-5.829,0-.623.009-.85-.213-.777-.809a2.665,2.665,0,0,0,0-.506c-.03-.427.148-.609.589-.606,2.64.016,5.28.016,7.92.021" transform="translate(-237.19 -101.2)" fill="#6ca9c8"/>
          <path id="Trazado_146851" data-name="Trazado 146851" d="M378.128,177.757a21.833,21.833,0,0,1,1.9-1.891c1.16,0,2.32.024,3.479,0,.531-.012.694.195.692.708-.006,1.2.014,1.208-1.2,1.2q-2.435-.006-4.87-.02" transform="translate(-330.105 -153.529)" fill="#6ca9c8"/>
          <path id="Trazado_146852" data-name="Trazado 146852" d="M276.449,145.965a21.686,21.686,0,0,1-1.9,1.9c-.7-.006-1.393-.035-2.087-.009-.5.018-.719-.137-.718-.678,0-1.233-.02-1.236,1.23-1.233,1.16,0,2.32.011,3.479.017" transform="translate(-237.228 -127.413)" fill="#6ca9c8"/>
          <path id="Trazado_146853" data-name="Trazado 146853" d="M272.776,176.01a4.554,4.554,0,0,1-.876.875c-.03-.9-.021-.905.876-.875" transform="translate(-237.361 -153.649)" fill="#6fa8c2"/>
          <path id="Trazado_146854" data-name="Trazado 146854" d="M426.619,24.41l-2.089-2.153c1.481-1.669,1.874-1.685,3.421-.138L432.2,26.37c.993.994.991,1.545-.01,2.545-.163.163-.336.316-.5.474q-2.278-2.262-4.557-4.523c-.162-.161-.341-.3-.511-.456" transform="translate(-370.614 -18.317)" fill="#024c67"/>
          <path id="Trazado_146855" data-name="Trazado 146855" d="M106.4,106.247c-1.654,1.663-3.313,3.322-4.957,4.994-.307.312-.53.315-.838,0-1.094-1.118-2.221-2.2-3.306-3.329-.363-.376-.623-.407-.973,0s-.734.76-1.117,1.124c-.263.249-.309.462-.028.741q2.677,2.658,5.338,5.333c.426.426.775.252,1.135-.11q2.794-2.81,5.6-5.607c.164-.163.34-.314.51-.471,1.009,2.716-.311,6.291-2.968,8.037a7.29,7.29,0,1,1-5.245-13.268,7.06,7.06,0,0,1,6.847,2.561" transform="translate(-81.617 -90.428)" fill="#017295"/>
          <path id="Trazado_146856" data-name="Trazado 146856" d="M102.307,293.646a2.373,2.373,0,0,0,.029,2.922.476.476,0,0,1-.077.747c-.5.448-.975.918-1.461,1.378a.811.811,0,0,1-.4.747c-1.317,1.037-1.129,2.482-1.077,3.891.011.282.2.4.466.412,1.443.067,2.895.172,3.919-1.173a.7.7,0,0,1,.656-.308c.5-.484,1.013-.958,1.5-1.457.218-.223.4-.264.646-.063a2.692,2.692,0,0,0,1.665.513,7.271,7.271,0,1,1-6.947-7.655l1.076.044" transform="translate(-81.753 -256.309)" fill="#017295"/>
          <path id="Trazado_146857" data-name="Trazado 146857" d="M141.16,337.306c-.307.317-.612.638-.923.95a2.725,2.725,0,0,1-2.1.852c-.631-.02-1.264-.012-1.9,0-.323.005-.457-.128-.451-.451.014-.779,0-1.56.024-2.338a2.391,2.391,0,0,1,.74-1.564c.333-.351.69-.678,1.036-1.016l3.569,3.569" transform="translate(-118.545 -291.352)" fill="#fcec32"/>
        </g>
      </g>
    </g>
  </g>
</svg>
