<svg xmlns="http://www.w3.org/2000/svg" xmlns:xlink="http://www.w3.org/1999/xlink" width="274" height="132" viewBox="0 0 274 132">
  <defs>
    <clipPath id="clip-path">
      <rect id="Rectángulo_37558" data-name="Rectángulo 37558" width="65" height="65" fill="none"/>
    </clipPath>
  </defs>
  <g id="Grupo_142245" data-name="Grupo 142245" transform="translate(5282.25 -1562)">
    <path id="Trazado_146862" data-name="Trazado 146862" d="M10,0H226a10,10,0,0,1,10,10V122a10,10,0,0,1-10,10H10A10,10,0,0,1,0,122V10A10,10,0,0,1,10,0Z" transform="translate(-5244.25 1562)" fill="#fff"/>
    <g id="Grupo_142227" data-name="Grupo 142227" transform="translate(-5755.25 -10629)">
      <path id="Trazado_145518" data-name="Trazado 145518" d="M42,0A42,42,0,1,1,0,42,42,42,0,0,1,42,0Z" transform="translate(473 12214)" fill="#19bdc9"/>
    </g>
    <path id="Trazado_146863" data-name="Trazado 146863" d="M12.578,14.186a5.193,5.193,0,0,1-.8,2.622A4.833,4.833,0,0,1,9.722,18.57,7,7,0,0,1,6.7,19.2a5.584,5.584,0,0,1-4.414-1.826A7.54,7.54,0,0,1,.674,12.213v-.7A8.607,8.607,0,0,1,1.4,7.853,5.513,5.513,0,0,1,3.5,5.431,5.844,5.844,0,0,1,6.66,4.576a6.129,6.129,0,0,1,4.16,1.362,5.383,5.383,0,0,1,1.787,3.755H9.189a2.547,2.547,0,0,0-.654-1.865A2.691,2.691,0,0,0,6.66,7.262a2.048,2.048,0,0,0-1.875.957,6.151,6.151,0,0,0-.625,3.057v1.006a6.806,6.806,0,0,0,.571,3.252A2.091,2.091,0,0,0,6.7,16.51a2.632,2.632,0,0,0,1.807-.557,2.363,2.363,0,0,0,.664-1.768Zm1.055-.566a6.236,6.236,0,0,1,.615-2.817,4.4,4.4,0,0,1,1.768-1.9,5.323,5.323,0,0,1,2.705-.664,4.858,4.858,0,0,1,3.74,1.47,5.64,5.64,0,0,1,1.367,4v.117a5.472,5.472,0,0,1-1.372,3.921A4.871,4.871,0,0,1,18.74,19.2a4.927,4.927,0,0,1-3.623-1.353,5.29,5.29,0,0,1-1.475-3.667Zm3.291.205a3.932,3.932,0,0,0,.459,2.148,1.529,1.529,0,0,0,1.357.684q1.758,0,1.8-2.705v-.332q0-2.842-1.816-2.842-1.65,0-1.787,2.451Zm13.887,2.207a.76.76,0,0,0-.439-.674,6.685,6.685,0,0,0-1.67-.527,7.615,7.615,0,0,1-2.031-.718,3.4,3.4,0,0,1-1.221-1.079,2.577,2.577,0,0,1-.42-1.455,2.92,2.92,0,0,1,1.2-2.4,4.948,4.948,0,0,1,3.145-.942,5.482,5.482,0,0,1,3.359.947A2.962,2.962,0,0,1,34,11.676H30.7q0-1.27-1.338-1.27a1.326,1.326,0,0,0-.869.288.892.892,0,0,0-.352.718.819.819,0,0,0,.43.713,4.06,4.06,0,0,0,1.372.449,11.857,11.857,0,0,1,1.655.42,3.007,3.007,0,0,1,2.383,2.939A2.767,2.767,0,0,1,32.7,18.287a5.631,5.631,0,0,1-3.325.908,5.747,5.747,0,0,1-2.422-.488,4.05,4.05,0,0,1-1.66-1.328,3.007,3.007,0,0,1-.6-1.768h3.076a1.272,1.272,0,0,0,.488,1.069,2.009,2.009,0,0,0,1.2.337,1.58,1.58,0,0,0,1.011-.273A.875.875,0,0,0,30.811,16.031ZM39.355,5.807V8.434h1.738v2.285H39.355v4.834a1.234,1.234,0,0,0,.215.83,1.152,1.152,0,0,0,.85.234,4.828,4.828,0,0,0,.82-.059v2.354a6.074,6.074,0,0,1-1.855.283,3.448,3.448,0,0,1-2.51-.8,3.282,3.282,0,0,1-.811-2.432V10.719H34.717V8.434h1.348V5.807Zm2.324,7.813a6.236,6.236,0,0,1,.615-2.817,4.4,4.4,0,0,1,1.768-1.9,5.323,5.323,0,0,1,2.705-.664,4.858,4.858,0,0,1,3.74,1.47,5.64,5.64,0,0,1,1.367,4v.117A5.472,5.472,0,0,1,50.5,17.745a4.871,4.871,0,0,1-3.716,1.45,4.927,4.927,0,0,1-3.623-1.353,5.29,5.29,0,0,1-1.475-3.667Zm3.291.205a3.932,3.932,0,0,0,.459,2.148,1.529,1.529,0,0,0,1.357.684q1.758,0,1.8-2.705v-.332q0-2.842-1.816-2.842-1.65,0-1.787,2.451Z" transform="translate(-5175.334 1616)" fill="#12263f"/>
    <g id="Grupo_142233" data-name="Grupo 142233" transform="translate(-5273 1595)">
      <g id="Grupo_142232" data-name="Grupo 142232" clip-path="url(#clip-path)">
        <path id="Trazado_146788" data-name="Trazado 146788" d="M0,32.424A32.5,32.5,0,1,1,32.448,65,32.528,32.528,0,0,1,0,32.424" transform="translate(0 0)" fill="#3b4651"/>
        <path id="Trazado_146789" data-name="Trazado 146789" d="M79.127,53.16A26.015,26.015,0,1,1,53.154,27.1,26.07,26.07,0,0,1,79.127,53.16" transform="translate(-20.61 -20.614)" fill="#fefefe"/>
        <path id="Trazado_146790" data-name="Trazado 146790" d="M61.455,84.867a23.389,23.389,0,1,1,23.4-23.355,23.367,23.367,0,0,1-23.4,23.355" transform="translate(-28.966 -28.97)" fill="#2b79c1"/>
        <path id="Trazado_146791" data-name="Trazado 146791" d="M102.405,90.216c1.795,0,3.589.011,5.384,0a4.023,4.023,0,1,0,.1-8.043c-2.093-.05-4.188.01-6.281-.021a6.6,6.6,0,0,1-1.45-13.035,8.558,8.558,0,0,1,2.586-.191c.648.042.818-.21.792-.82-.044-1.015-.023-2.034-.008-3.051.014-.957.5-1.476,1.315-1.457.785.019,1.228.512,1.244,1.438.017,1.047.038,2.1-.008,3.14-.027.612.2.757.776.749,2-.029,4.008-.011,6.012-.011a1.57,1.57,0,0,1,1.437.565,1.245,1.245,0,0,1,.085,1.357,1.367,1.367,0,0,1-1.351.7c-2.543-.01-5.085,0-7.628,0-1.226,0-2.453-.013-3.679.006a4.021,4.021,0,1,0-.093,8.041c2.122.055,4.247,0,6.371.023a6.608,6.608,0,0,1,1.447,13.041,8.334,8.334,0,0,1-2.586.192c-.65-.05-.817.208-.791.818.044,1.015.024,2.034.007,3.05-.016.958-.5,1.476-1.316,1.456-.781-.019-1.228-.519-1.243-1.438-.017-1.047-.038-2.1.008-3.14.027-.609-.2-.756-.771-.747-2,.03-4.008.011-6.012.012a1.6,1.6,0,0,1-1.44-.563A1.23,1.23,0,0,1,95.181,91a1.316,1.316,0,0,1,1.3-.785q2.962,0,5.923,0" transform="translate(-72.302 -48.37)" fill="#fefefe"/>
      </g>
    </g>
  </g>
</svg>
