<svg id="Grupo_142185" data-name="Grupo 142185" xmlns="http://www.w3.org/2000/svg" xmlns:xlink="http://www.w3.org/1999/xlink" width="292.231" height="391.106" viewBox="0 0 292.231 391.106">
  <defs>
    <clipPath id="clip-path">
      <rect id="Rectángulo_37492" data-name="Rectángulo 37492" width="292.231" height="391.106" fill="none"/>
    </clipPath>
    <clipPath id="clip-path-3">
      <rect id="Rectángulo_37449" data-name="Rectángulo 37449" width="214.05" height="179.945" fill="none"/>
    </clipPath>
    <clipPath id="clip-path-4">
      <rect id="Rectángulo_37446" data-name="Rectángulo 37446" width="214.05" height="21.009" fill="none"/>
    </clipPath>
    <clipPath id="clip-path-5">
      <rect id="Rectángulo_37448" data-name="Rectángulo 37448" width="214.05" height="141.575" fill="none"/>
    </clipPath>
    <clipPath id="clip-path-6">
      <rect id="Rectángulo_37455" data-name="Rectángulo 37455" width="35.73" height="179.945" fill="none"/>
    </clipPath>
    <clipPath id="clip-path-7">
      <rect id="Rectángulo_37451" data-name="Rectángulo 37451" width="35.73" height="21.009" fill="none"/>
    </clipPath>
    <clipPath id="clip-path-8">
      <rect id="Rectángulo_37454" data-name="Rectángulo 37454" width="35.73" height="141.575" fill="none"/>
    </clipPath>
  </defs>
  <g id="Grupo_142184" data-name="Grupo 142184" clip-path="url(#clip-path)">
    <g id="Grupo_142183" data-name="Grupo 142183">
      <g id="Grupo_142182" data-name="Grupo 142182" clip-path="url(#clip-path)">
        <path id="Trazado_146406" data-name="Trazado 146406" d="M191.539,327.146a50.238,50.238,0,0,0,4.846-13.163l9.6-2.329-.423-10.726-.424-10.726-9.756-1.565a50.287,50.287,0,0,0-5.869-12.74l5.137-8.43-7.883-7.284-7.884-7.285-8,5.787a50.283,50.283,0,0,0-13.163-4.846l-2.33-9.6-10.726.424-10.725.424-1.565,9.756a50.23,50.23,0,0,0-12.741,5.869l-8.43-5.137-7.284,7.883-7.284,7.884,5.786,8A50.272,50.272,0,0,0,97.579,292.5l-9.6,2.33.423,10.726.424,10.725,9.756,1.566a50.212,50.212,0,0,0,5.869,12.74l-5.137,8.43,7.883,7.285,7.884,7.285,8-5.787a50.273,50.273,0,0,0,13.163,4.847l2.33,9.6,10.726-.424,10.725-.424,1.565-9.756a50.29,50.29,0,0,0,12.74-5.868l8.43,5.136,7.285-7.884,7.284-7.883Zm-70.081,3.72a37.611,37.611,0,1,1,53.148-2.1,37.611,37.611,0,0,1-53.148,2.1" transform="translate(-41.159 -114.264)" fill="#eaeaeb"/>
        <path id="Trazado_146407" data-name="Trazado 146407" d="M80.609,496.969a23.034,23.034,0,0,0,2.221-6.035l4.4-1.068-.194-4.917-.194-4.917-4.472-.718a23.067,23.067,0,0,0-2.691-5.84l2.355-3.865-3.614-3.34-3.614-3.34-3.668,2.653a23.026,23.026,0,0,0-6.034-2.221l-1.069-4.4-4.917.194-4.917.195-.717,4.472a23.029,23.029,0,0,0-5.841,2.691l-3.865-2.355-3.339,3.614-3.34,3.614,2.653,3.667a23.012,23.012,0,0,0-2.221,6.034l-4.4,1.069.195,4.917.194,4.917,4.472.717a23.008,23.008,0,0,0,2.69,5.84l-2.355,3.865,3.615,3.34,3.614,3.339,3.667-2.652a23.061,23.061,0,0,0,6.035,2.221l1.069,4.4,4.917-.195,4.917-.194.718-4.473a23.045,23.045,0,0,0,5.84-2.69l3.865,2.355,3.339-3.615,3.339-3.614Zm-32.129,1.706a17.243,17.243,0,1,1,24.366-.963,17.243,17.243,0,0,1-24.366.963" transform="translate(-15.5 -214.721)" fill="#eaeaeb"/>
        <g id="Grupo_142169" data-name="Grupo 142169">
          <g id="Grupo_142168" data-name="Grupo 142168">
            <g id="Grupo_142167" data-name="Grupo 142167" clip-path="url(#clip-path-3)">
              <g id="Grupo_142163" data-name="Grupo 142163">
                <g id="Grupo_142162" data-name="Grupo 142162">
                  <g id="Grupo_142161" data-name="Grupo 142161" clip-path="url(#clip-path-4)">
                    <rect id="Rectángulo_37445" data-name="Rectángulo 37445" width="214.05" height="21.009" transform="translate(0 0)" fill="#4aafff"/>
                  </g>
                </g>
              </g>
              <g id="Grupo_142166" data-name="Grupo 142166" transform="translate(0 38.37)" style="mix-blend-mode: hard-light;isolation: isolate">
                <g id="Grupo_142165" data-name="Grupo 142165">
                  <g id="Grupo_142164" data-name="Grupo 142164" clip-path="url(#clip-path-5)">
                    <rect id="Rectángulo_37447" data-name="Rectángulo 37447" width="214.05" height="141.575" fill="#ebebeb"/>
                  </g>
                </g>
              </g>
            </g>
          </g>
        </g>
        <g id="Grupo_142181" data-name="Grupo 142181" transform="translate(231.035)">
          <g id="Grupo_142180" data-name="Grupo 142180">
            <g id="Grupo_142179" data-name="Grupo 142179" clip-path="url(#clip-path-6)">
              <g id="Grupo_142172" data-name="Grupo 142172">
                <g id="Grupo_142171" data-name="Grupo 142171">
                  <g id="Grupo_142170" data-name="Grupo 142170" clip-path="url(#clip-path-7)">
                    <rect id="Rectángulo_37450" data-name="Rectángulo 37450" width="35.73" height="21.009" transform="translate(0 0)" fill="#4aafff"/>
                  </g>
                </g>
              </g>
              <g id="Grupo_142178" data-name="Grupo 142178" transform="translate(0 38.37)">
                <g id="Grupo_142177" data-name="Grupo 142177">
                  <g id="Grupo_142176" data-name="Grupo 142176" clip-path="url(#clip-path-8)">
                    <g id="Grupo_142175" data-name="Grupo 142175" style="mix-blend-mode: hard-light;isolation: isolate">
                      <g id="Grupo_142174" data-name="Grupo 142174">
                        <g id="Grupo_142173" data-name="Grupo 142173" clip-path="url(#clip-path-8)">
                          <rect id="Rectángulo_37452" data-name="Rectángulo 37452" width="35.73" height="141.575" fill="#ebebeb"/>
                        </g>
                      </g>
                    </g>
                  </g>
                </g>
              </g>
            </g>
          </g>
        </g>
        <rect id="Rectángulo_37456" data-name="Rectángulo 37456" width="43.031" height="4.406" transform="translate(41.075 59.819)" fill="#e0e0e0"/>
        <rect id="Rectángulo_37457" data-name="Rectángulo 37457" width="31.068" height="4.406" transform="translate(96.149 92.995)" fill="#e0e0e0"/>
        <rect id="Rectángulo_37458" data-name="Rectángulo 37458" width="20.617" height="4.406" transform="translate(132.058 92.995)" fill="#1487e3"/>
        <rect id="Rectángulo_37459" data-name="Rectángulo 37459" width="49.778" height="4.406" transform="translate(156.748 92.995)" fill="#e0e0e0"/>
        <rect id="Rectángulo_37460" data-name="Rectángulo 37460" width="31.985" height="4.406" transform="translate(41.564 159.715)" fill="#e0e0e0"/>
        <rect id="Rectángulo_37461" data-name="Rectángulo 37461" width="30.548" height="4.406" transform="translate(92.477 59.819)" fill="#78c2ff"/>
        <rect id="Rectángulo_37462" data-name="Rectángulo 37462" width="30.548" height="4.406" transform="translate(92.477 109.584)" fill="#1487e3"/>
        <rect id="Rectángulo_37463" data-name="Rectángulo 37463" width="13.051" height="4.406" transform="translate(77.204 126.172)" fill="#e0e0e0"/>
        <rect id="Rectángulo_37464" data-name="Rectángulo 37464" width="29.318" height="4.406" transform="translate(64.151 143.005)" fill="#78c2ff"/>
        <rect id="Rectángulo_37465" data-name="Rectángulo 37465" width="40.472" height="4.406" transform="translate(97.901 143.005)" fill="#1487e3"/>
        <rect id="Rectángulo_37466" data-name="Rectángulo 37466" width="30.547" height="4.405" transform="translate(41.564 126.295)" fill="#1487e3"/>
        <rect id="Rectángulo_37467" data-name="Rectángulo 37467" width="18.126" height="4.406" transform="translate(41.563 143.005)" fill="#1487e3"/>
        <rect id="Rectángulo_37468" data-name="Rectángulo 37468" width="17.101" height="4.405" transform="translate(96.409 126.295)" fill="#ff8761"/>
        <rect id="Rectángulo_37469" data-name="Rectángulo 37469" width="30.547" height="4.406" transform="translate(41.441 92.995)" fill="#78c2ff"/>
        <rect id="Rectángulo_37470" data-name="Rectángulo 37470" width="43.546" height="4.406" transform="translate(41.441 109.584)" fill="#78c2ff"/>
        <rect id="Rectángulo_37471" data-name="Rectángulo 37471" width="38.919" height="4.406" transform="translate(131.249 59.819)" fill="#1487e3"/>
        <rect id="Rectángulo_37472" data-name="Rectángulo 37472" width="38.919" height="4.406" transform="translate(235.157 92.995)" fill="#1487e3"/>
        <rect id="Rectángulo_37473" data-name="Rectángulo 37473" width="38.919" height="4.406" transform="translate(184.487 109.584)" fill="#1487e3"/>
        <rect id="Rectángulo_37474" data-name="Rectángulo 37474" width="38.919" height="4.406" transform="translate(198.953 59.819)" fill="#ff8761"/>
        <rect id="Rectángulo_37475" data-name="Rectángulo 37475" width="22.821" height="4.406" transform="translate(154.544 109.584)" fill="#ff8761"/>
        <rect id="Rectángulo_37476" data-name="Rectángulo 37476" width="14.246" height="4.406" transform="translate(177.364 59.819)" fill="#e0e0e0"/>
        <rect id="Rectángulo_37477" data-name="Rectángulo 37477" width="14.246" height="4.406" transform="translate(131.249 109.584)" fill="#e0e0e0"/>
        <rect id="Rectángulo_37478" data-name="Rectángulo 37478" width="22.286" height="4.406" transform="translate(41.075 76.407)" fill="#1487e3"/>
        <rect id="Rectángulo_37479" data-name="Rectángulo 37479" width="17.596" height="4.406" transform="translate(100.54 159.838)" fill="#1487e3"/>
        <rect id="Rectángulo_37480" data-name="Rectángulo 37480" width="7.195" height="4.406" transform="translate(68.832 76.407)" fill="#1487e3"/>
        <rect id="Rectángulo_37481" data-name="Rectángulo 37481" width="59.479" height="4.406" transform="translate(216.565 76.407)" fill="#e0e0e0"/>
        <rect id="Rectángulo_37482" data-name="Rectángulo 37482" width="19.459" height="4.406" transform="translate(191.61 76.407)" fill="#1487e3"/>
        <rect id="Rectángulo_37483" data-name="Rectángulo 37483" width="19.46" height="4.406" transform="translate(211.069 92.995)" fill="#ff8761"/>
        <rect id="Rectángulo_37484" data-name="Rectángulo 37484" width="41.405" height="4.406" transform="translate(145.055 76.407)" fill="#1487e3"/>
        <rect id="Rectángulo_37485" data-name="Rectángulo 37485" width="14.246" height="4.406" transform="translate(124.934 76.407)" fill="#78c2ff"/>
        <rect id="Rectángulo_37486" data-name="Rectángulo 37486" width="14.246" height="4.406" transform="translate(76.983 92.995)" fill="#ff8761"/>
        <rect id="Rectángulo_37487" data-name="Rectángulo 37487" width="14.246" height="4.406" transform="translate(79.823 159.838)" fill="#ff8761"/>
        <rect id="Rectángulo_37488" data-name="Rectángulo 37488" width="24.819" height="4.406" transform="translate(94.68 76.407)" fill="#1487e3"/>
        <path id="Trazado_146408" data-name="Trazado 146408" d="M538.064,306.451h-12.6V304.7H536.6V291.424h1.469Z" transform="translate(-245.833 -136.34)" fill="#6aafe8"/>
        <path id="Trazado_146409" data-name="Trazado 146409" d="M42.964,306.451h-12.6V291.424H31.83V304.7H42.964Z" transform="translate(-14.204 -136.34)" fill="#6aafe8"/>
        <path id="Trazado_146410" data-name="Trazado 146410" d="M31.84,116.423H30.371v-15.04H42.963v1.753H31.84Z" transform="translate(-14.209 -47.431)" fill="#6aafe8"/>
        <path id="Trazado_146411" data-name="Trazado 146411" d="M538.064,116.423H536.6V103.149H525.46V101.4h12.6Z" transform="translate(-245.833 -47.438)" fill="#6aafe8"/>
        <rect id="Rectángulo_37489" data-name="Rectángulo 37489" width="1.469" height="41.187" transform="translate(290.763 91.441)" fill="#6aafe8"/>
        <rect id="Rectángulo_37490" data-name="Rectángulo 37490" width="1.469" height="41.187" transform="translate(16.157 91.441)" fill="#6aafe8"/>
        <path id="Trazado_146412" data-name="Trazado 146412" d="M316.326,695.339s-7.4,10.394-6.383,12.041,8.795,1.883,13.531,0,4.848-14.063,6.991-19.3c.9-2.191-1.022-8.658-3.721-9.128a10.963,10.963,0,0,0-5.634.909s2.8,7.372-4.784,15.475" transform="translate(-144.96 -317.598)" fill="#363a5e"/>
        <path id="Trazado_146413" data-name="Trazado 146413" d="M324.606,679.647a50.711,50.711,0,0,0-2.125,8.652c-.472,3.5-5.271,10.946-5.045,11.888s6.315,1.794,8.8-.633,4.077-9.484,4.623-13.706a35.19,35.19,0,0,1,1.15-5.873s-5.03-2.917-7.4-.328" transform="translate(-148.506 -317.467)" fill="#eea886"/>
        <path id="Trazado_146414" data-name="Trazado 146414" d="M437.569,695.515s-7.132,10.222-6.118,11.868,8.795,1.883,13.531,0,4.849-14.063,6.991-19.3c.9-2.191-1.023-8.659-3.721-9.128a11.687,11.687,0,0,0-5.863,1.009s2.762,7.445-4.82,15.548" transform="translate(-201.805 -317.602)" fill="#363a5e"/>
        <path id="Trazado_146415" data-name="Trazado 146415" d="M445.939,679.629a72.52,72.52,0,0,1-1.466,8.237c-.9,3.413-5.75,11.178-5.525,12.119s6.316,1.794,8.8-.633,4.4-9.452,4.622-13.705a23.582,23.582,0,0,0-.563-7.027s-3.5-1.58-5.864,1.009" transform="translate(-205.354 -317.264)" fill="#eea886"/>
        <path id="Trazado_146416" data-name="Trazado 146416" d="M359.372,343.214s-6.349,30.819-7.807,38.579-5.54,45.341-5.977,51.731-6.625,30.468-6.334,32.751-9.173,48.128-9.173,48.128a5.508,5.508,0,0,0,6.64.245c1.753-1.27,20.766-42.921,20.766-54.332,0-15.774,11.179-36.365,12.62-39.893,13.4-32.784,10.761-42.807,12.511-44.936s1.9,1.315,2.922,6.033,3.206,45.493,4.518,50.666.293,22.67,1.023,31.5,3.929,48.742,3.929,48.742,2.479,4.053,5.957.105c.748-.85,6-44.466,6.15-54.964s.3-24.977.583-29.517c2.7-43.5,9.341-49.718-1.116-80.508-19.579-57.649-47.212-4.325-47.212-4.325" transform="translate(-154.426 -150.059)" fill="#eea886"/>
        <path id="Trazado_146417" data-name="Trazado 146417" d="M416.375,346.78s18.086,26.415,10.3,82.606c0,0-42.9,6.089-65.882-7.043,0,0,9.5-57.934,12.947-66.95s42.636-8.613,42.636-8.613" transform="translate(-168.794 -162.237)" fill="#494f80"/>
        <path id="Trazado_146418" data-name="Trazado 146418" d="M347.773,694.474v10.881H346.42v-8.41Z" transform="translate(-162.07 -324.904)" fill="#363a5e"/>
        <path id="Trazado_146419" data-name="Trazado 146419" d="M469.286,694.474v10.881h-1.353v-8.41Z" transform="translate(-218.919 -324.904)" fill="#363a5e"/>
        <path id="Trazado_146420" data-name="Trazado 146420" d="M417.171,123.705s-12.113,12.2-7.988,27.913,10.754,15.8,18.06,9.04,11.607-13.868,12.573-21.768-11.586-26.069-22.645-15.185" transform="translate(-191.032 -56.291)" fill="#eea886"/>
        <path id="Trazado_146421" data-name="Trazado 146421" d="M420.493,205.769a71.875,71.875,0,0,0,3.055-8.737c.221-.816.427-1.648.6-2.477.617-2.91.87-5.778.2-7.746-1.93-5.705,12.114-1.756,12.114-1.756s-2.721,15.1,0,20.188-15.975.527-15.975.527" transform="translate(-196.724 -85.953)" fill="#eea886"/>
        <path id="Trazado_146422" data-name="Trazado 146422" d="M429.772,228.829c-2.21-4.412-3.863-5.832-8.136-7.181-2.391-.755-13.072-3.536-13.072-3.536l-12.83-.471a114.433,114.433,0,0,0-15.669,3.84c-6.847,2.37-15.817,15.341-15.817,15.341s12.376,29.054,14.747,37.393.79,21.241.79,21.241c14.835,8.075,38.621-.79,38.621-.79a47.609,47.609,0,0,1-.931-19.518c.111-.636.237-1.243.376-1.811.128-.52.3-1.263.508-2.094.01-.037.019-.074.026-.112,9.435.966,18.282,1.359,18.514-.534,1.04-8.524-4.084-35.7-7.126-41.767m-6.536,33.128c-.381-.057-1.189-.062-2.043-.138,1.047-2.924,2.215-5.512,2.215-5.512.669,1.865,3.212,6.157-.171,5.65" transform="translate(-170.41 -101.821)" fill="#eddad3"/>
        <path id="Trazado_146423" data-name="Trazado 146423" d="M421.174,131.923s5.794,10.533,9.392,14.308S433.742,153,433.742,153s14.028-17.3,4.022-27.749-22.909-6.232-26.684,2.9-2.392,20.279-2.392,20.279.11-10.712,12.486-16.505" transform="translate(-191.086 -55.732)" fill="#d88a51"/>
        <path id="Trazado_146424" data-name="Trazado 146424" d="M439.508,112.594s-1.4-7.711,10.691-10.778,17.525,10.865,16.034,19.365-11.828,30.054-6.221,32.858,7.8-3.242,7.8-3.242-1.752,10.6-9.551,8.149-6.747-19.682-5.571-26.549-13.182-19.8-13.182-19.8" transform="translate(-205.597 -47.431)" fill="#d88a51"/>
        <path id="Trazado_146425" data-name="Trazado 146425" d="M437.215,193.249c-.047.11-3.1,7.147-10.982,8.239.221-.816.427-1.648.6-2.476,0,0,4.317.871,10.379-5.763" transform="translate(-199.41 -90.41)" fill="#a77860"/>
        <path id="Trazado_146426" data-name="Trazado 146426" d="M472.326,277.774s-.578,1.217-2.16,6.012c-1.612-13.468-.77-20.478-.77-20.478a50.625,50.625,0,0,0,2.93,14.467" transform="translate(-219.501 -123.186)" fill="#cfbeb8"/>
        <path id="Trazado_146427" data-name="Trazado 146427" d="M443.091,118.995s8.582,1.649,12.863,8.639c0,0-.868-6.33-5.14-8.155a10.95,10.95,0,0,0-7.724-.484" transform="translate(-207.297 -55.449)" fill="#eddad3"/>
        <path id="Trazado_146428" data-name="Trazado 146428" d="M457.123,317.272c-.2.831-.38,1.574-.508,2.094-.139.569-.265,1.175-.376,1.811-5.315-2.891-9.132-5.15-9.132-5.15,1.43.32,10.016,1.245,10.016,1.245" transform="translate(-209.175 -147.851)" fill="#cfbeb8"/>
        <path id="Trazado_146429" data-name="Trazado 146429" d="M435.6,217.7l-15.1,12.311,1.555-12.97s8.807-1.9,13.548.658" transform="translate(-196.724 -101.224)" fill="#eea886"/>
        <path id="Trazado_146430" data-name="Trazado 146430" d="M424.858,227l-4.364,2.09,14.833-14.7Z" transform="translate(-196.725 -100.296)" fill="#d6c5be"/>
        <path id="Trazado_146431" data-name="Trazado 146431" d="M448.219,270.59c-2.079,8.614,5.613,28,5.613,28l-15.245,4.765a3.907,3.907,0,0,1-4.985-2.906c-2.042-9.487-6.826-32.838-7.4-45.821-.729-16.564,11.331-36.106,11.331-36.106,21.436,3.678,15.559,36.106,15.559,36.106s-.777,2.044-1.818,5.236v0c-.263.8-.54,1.676-.827,2.61-.733,2.4-1.523,5.181-2.23,8.111" transform="translate(-199.381 -102.235)" fill="#faa146"/>
        <path id="Trazado_146432" data-name="Trazado 146432" d="M391.944,218.349l.264-.709s-10.977,1.67-16.556,4.456-16.26,17.182-16.26,17.182l13.969,18.443c.016,14.173-2.282,39.373-2.282,39.373l6.387,3.681a2.6,2.6,0,0,0,3.9-2.206c.18-9.583.61-32.339.835-43.359.29-14.176,10.4-37.1,10.4-37.1-.225.076-.445.157-.665.238" transform="translate(-168.139 -101.821)" fill="#faa146"/>
        <path id="Trazado_146433" data-name="Trazado 146433" d="M383.161,334.012s10.533.41,12.171,0,12.568-5.149,13.225-9.831-25.4,4.2-25.4,4.2Z" transform="translate(-179.259 -151.028)" fill="#eea886"/>
        <path id="Trazado_146434" data-name="Trazado 146434" d="M406.994,311.965l-42.746-5,19.31,15.712Z" transform="translate(-170.41 -143.61)" fill="#b5a6a1"/>
        <path id="Trazado_146435" data-name="Trazado 146435" d="M399.84,327.072l23.436-7.988v-2.721l-24.225,7.771Z" transform="translate(-186.693 -148.008)" fill="#eddad3"/>
        <path id="Trazado_146436" data-name="Trazado 146436" d="M406.6,301.17a36.691,36.691,0,0,1-5.516-.4c-1.532-.312-5.341.118-6.311.978s-4.056,6.851-4.639,7.217.3,1.211,1.324.787c0,0,.941,2.621,3.263,1.64s3.9-3.124,5.116-3.5,8.3-2.282,8.3-2.282.29-5.074-1.534-4.436" transform="translate(-182.433 -140.664)" fill="#eea886"/>
        <path id="Trazado_146437" data-name="Trazado 146437" d="M414.324,213.143l-8.135,12.886-3.928,2.477,9.154-12.831Z" transform="translate(-188.195 -99.717)" fill="#fae6de"/>
        <path id="Trazado_146438" data-name="Trazado 146438" d="M409.642,226.029l5.775,2.477,1.554-12.97.806-2.393Z" transform="translate(-191.648 -99.717)" fill="#d6c5be"/>
        <path id="Trazado_146439" data-name="Trazado 146439" d="M358.159,325.583s-.439,5.442,0,6.583c0,0-26.362-2.634-28.819-6.32a15.894,15.894,0,0,1-2.37-8.163Z" transform="translate(-152.97 -148.625)" fill="#faa146"/>
        <path id="Trazado_146440" data-name="Trazado 146440" d="M347.907,291.344,335.443,245l-47.4-5,12.991,42.659Z" transform="translate(-134.759 -112.28)" fill="#eddad3"/>
        <path id="Trazado_146441" data-name="Trazado 146441" d="M439.163,214.38,428.694,227l5.728,5.108L440.6,217Z" transform="translate(-200.561 -100.296)" fill="#fae6de"/>
        <path id="Trazado_146442" data-name="Trazado 146442" d="M455.8,294.18s-.351,1.065-.351,1.068c-.263.8-.54,1.676-.828,2.61-2.022.636-19.532-.648-19.532-.648s14.655-3.44,20.711-3.03" transform="translate(-203.553 -137.614)" fill="#875726"/>
        <path id="Trazado_146443" data-name="Trazado 146443" d="M448.225,262.869c-2.821-.213-7.441-.514-11.222-.53-5.883-.026-15.945.631-15.945.631l1.2,6.285s17.822,2.9,27.556,3.576h0s12.846,1.475,13.8-.441-.316-14.222-2.405-25.31-4.237-17.473-6.792-20.9-16.048-6.093-16.048-6.093l11.446,37.464s1.641,3.341,1.557,4.783c-.025.439-.329.648-.74.725-.288-.025-.921-.079-1.795-.147Z" transform="translate(-196.989 -102.968)" fill="#faa146"/>
      </g>
    </g>
  </g>
</svg>
