<svg xmlns="http://www.w3.org/2000/svg" xmlns:xlink="http://www.w3.org/1999/xlink" width="274" height="132" viewBox="0 0 274 132">
  <defs>
    <clipPath id="clip-path">
      <rect id="Rectángulo_37559" data-name="Rectángulo 37559" width="65" height="65.003" fill="#19bdc9"/>
    </clipPath>
  </defs>
  <g id="Grupo_142244" data-name="Grupo 142244" transform="translate(4967.25 -1562)">
    <path id="Trazado_146866" data-name="Trazado 146866" d="M10,0H226a10,10,0,0,1,10,10V122a10,10,0,0,1-10,10H10A10,10,0,0,1,0,122V10A10,10,0,0,1,10,0Z" transform="translate(-4929.25 1562)" fill="#fff"/>
    <g id="Grupo_142226" data-name="Grupo 142226" transform="translate(-5440.25 -10629)">
      <circle id="Elipse_4842" data-name="Elipse 4842" cx="42" cy="42" r="42" transform="translate(473 12214)" fill="#19bdc9"/>
    </g>
    <path id="Trazado_146867" data-name="Trazado 146867" d="M9.893,12.965H4.5v3.4h6.367V19H1.074V4.781h9.814V7.428H4.5v3H9.893Zm7.754,3.066a.76.76,0,0,0-.439-.674,6.685,6.685,0,0,0-1.67-.527,7.615,7.615,0,0,1-2.031-.718,3.4,3.4,0,0,1-1.221-1.079,2.577,2.577,0,0,1-.42-1.455,2.92,2.92,0,0,1,1.2-2.4,4.948,4.948,0,0,1,3.145-.942,5.482,5.482,0,0,1,3.359.947,2.962,2.962,0,0,1,1.27,2.49h-3.3q0-1.27-1.338-1.27a1.326,1.326,0,0,0-.869.288.892.892,0,0,0-.352.718.819.819,0,0,0,.43.713,4.06,4.06,0,0,0,1.372.449,11.857,11.857,0,0,1,1.655.42,3.007,3.007,0,0,1,2.383,2.939,2.767,2.767,0,0,1-1.284,2.354,5.631,5.631,0,0,1-3.325.908,5.747,5.747,0,0,1-2.422-.488,4.05,4.05,0,0,1-1.66-1.328,3.007,3.007,0,0,1-.6-1.768h3.076a1.272,1.272,0,0,0,.488,1.069,2.009,2.009,0,0,0,1.2.337,1.58,1.58,0,0,0,1.011-.273A.875.875,0,0,0,17.646,16.031ZM23.086,19V10.719H21.553V8.434h1.533v-.84a3.651,3.651,0,0,1,1.064-2.8,4.206,4.206,0,0,1,2.988-1A6.544,6.544,0,0,1,28.682,4l.01,2.422a3.007,3.007,0,0,0-.811-.088q-1.494,0-1.494,1.289v.811h2.061v2.285H26.387V19ZM35.9,17.857A3.393,3.393,0,0,1,33.076,19.2a3.328,3.328,0,0,1-2.632-1.011,4.251,4.251,0,0,1-.894-2.905V8.434h3.291V15.3a1.183,1.183,0,0,0,1.318,1.357,1.72,1.72,0,0,0,1.611-.811V8.434h3.311V19H36ZM46,19.2a5.432,5.432,0,0,1-3.936-1.45,5.008,5.008,0,0,1-1.5-3.774V13.7a6.489,6.489,0,0,1,.6-2.861A4.395,4.395,0,0,1,42.91,8.917a5.292,5.292,0,0,1,2.734-.679A4.574,4.574,0,0,1,49.16,9.62a5.43,5.43,0,0,1,1.289,3.853v1.279H43.906a2.372,2.372,0,0,0,.771,1.4,2.3,2.3,0,0,0,1.543.508,2.958,2.958,0,0,0,2.441-1.094l1.5,1.777a4.2,4.2,0,0,1-1.743,1.353A5.891,5.891,0,0,1,46,19.2Zm-.371-8.418q-1.445,0-1.719,1.914h3.32v-.254a1.63,1.63,0,0,0-.4-1.226A1.593,1.593,0,0,0,45.625,10.777Zm12.539.635-1.084-.078a1.947,1.947,0,0,0-1.992.977V19H51.8V8.434h3.086l.107,1.357A2.548,2.548,0,0,1,57.3,8.238a3.209,3.209,0,0,1,.918.117Zm5.068,5.049h4.814V19H59.072V17.164l4.688-6.191H59.277V8.434h8.662v1.777Zm5.84-2.842a6.236,6.236,0,0,1,.615-2.817,4.4,4.4,0,0,1,1.768-1.9,5.323,5.323,0,0,1,2.705-.664,4.858,4.858,0,0,1,3.74,1.47,5.64,5.64,0,0,1,1.367,4v.117A5.472,5.472,0,0,1,77.9,17.745,4.871,4.871,0,0,1,74.18,19.2a4.927,4.927,0,0,1-3.623-1.353,5.29,5.29,0,0,1-1.475-3.667Zm3.291.205a3.932,3.932,0,0,0,.459,2.148,1.529,1.529,0,0,0,1.357.684q1.758,0,1.8-2.705v-.332q0-2.842-1.816-2.842-1.65,0-1.787,2.451Z" transform="translate(-4862.25 1616)" fill="#12263f"/>
    <g id="Grupo_142235" data-name="Grupo 142235" transform="translate(-4957.75 1594.498)">
      <g id="Grupo_142234" data-name="Grupo 142234" clip-path="url(#clip-path)">
        <path id="Trazado_146792" data-name="Trazado 146792" d="M32.5,64.991c-1.286,0-2.572-.014-3.857.009-.384.007-.493-.108-.487-.489.021-1.376.012-2.752.007-4.128,0-.86-.252-1.18-1.092-1.357a27.352,27.352,0,0,1-9.431-3.89,1.19,1.19,0,0,0-1.843.2c-.959.955-1.922,1.906-2.862,2.88-.266.276-.417.276-.689,0Q9.54,55.467,6.792,52.761c-.332-.325-.229-.477.04-.738.971-.942,1.926-1.9,2.879-2.863a1.151,1.151,0,0,0,.19-1.737,27.316,27.316,0,0,1-3.937-9.557,1.1,1.1,0,0,0-1.272-1.031c-1.4-.008-2.8-.014-4.2.005-.371.005-.5-.085-.5-.479Q.026,32.5,0,28.646c0-.384.109-.492.49-.486,1.376.021,2.752.012,4.128.007.857,0,1.181-.255,1.356-1.094A27.33,27.33,0,0,1,9.9,17.581a1.151,1.151,0,0,0-.184-1.738c-.969-.977-1.937-1.955-2.928-2.909-.282-.272-.265-.422.005-.689q2.745-2.71,5.455-5.455c.267-.271.418-.288.689-.006.955.99,1.933,1.958,2.91,2.928a1.145,1.145,0,0,0,1.736.186,27.445,27.445,0,0,1,9.556-3.935,1.107,1.107,0,0,0,1.028-1.275c.008-1.4.015-2.8-.006-4.2-.006-.377.1-.495.484-.492Q32.5.025,36.358,0c.39,0,.488.119.482.494-.021,1.376-.012,2.752-.007,4.128,0,.854.255,1.177,1.1,1.353A27.3,27.3,0,0,1,47.421,9.9a1.151,1.151,0,0,0,1.737-.185c.977-.969,1.955-1.938,2.909-2.929.272-.282.423-.264.69.006q2.71,2.745,5.455,5.456c.269.266.286.419,0,.69-.991.955-1.958,1.933-2.928,2.91A1.145,1.145,0,0,0,55.1,17.58a27.343,27.343,0,0,1,3.935,9.558,1.1,1.1,0,0,0,1.275,1.028c1.4.008,2.8.015,4.2-.006.376-.005.5.094.493.483q-.025,3.857,0,7.714c0,.389-.116.489-.493.483-1.376-.021-2.752-.012-4.128-.007-.859,0-1.177.251-1.354,1.094A27.448,27.448,0,0,1,55.1,47.419a1.145,1.145,0,0,0,.185,1.735c.97.976,1.938,1.955,2.928,2.91.28.27.267.422,0,.69q-2.744,2.711-5.455,5.455c-.265.269-.416.29-.689.007-.954-.991-1.933-1.959-2.909-2.928a1.149,1.149,0,0,0-1.736-.186,27.357,27.357,0,0,1-9.491,3.923c-.843.176-1.1.5-1.1,1.351-.005,1.354-.018,2.707.008,4.06.008.428-.089.579-.548.567-1.262-.033-2.526-.012-3.79-.012" transform="translate(0 0)" fill="#dff1ff"/>
        <path id="Trazado_146793" data-name="Trazado 146793" d="M86.63,66A20.58,20.58,0,1,1,66.024,86.454,20.579,20.579,0,0,1,86.63,66" transform="translate(-54.102 -54.079)" fill="#0f8ea3"/>
        <path id="Trazado_146794" data-name="Trazado 146794" d="M43.157,66.925c-1.122,0-1.122,0-1.079-1.148a25.017,25.017,0,0,1,18.086-22.81,27,27,0,0,1,6.263-.954c.453-.017.586.118.551.556-.038.471.129,1.009-.049,1.4-.226.5-.834.189-1.266.225A22.613,22.613,0,0,0,47.674,54.924a22.025,22.025,0,0,0-3.429,10.963c-.056,1.038-.04,1.038-1.088,1.038" transform="translate(-34.469 -34.425)" fill="#96bfdc"/>
        <path id="Trazado_146795" data-name="Trazado 146795" d="M179.834,203.721c0-1.037,0-1.037,1.048-1.077a22.826,22.826,0,0,0,21.309-18.616,22.421,22.421,0,0,0,.371-3.626c0-.373.1-.543.489-.488a3.444,3.444,0,0,0,.473,0c1.273,0,1.273,0,1.194,1.3a24.951,24.951,0,0,1-20.061,23.135,29.456,29.456,0,0,1-4.09.479c-.562.035-.863-.068-.737-.7a2.106,2.106,0,0,0,0-.405" transform="translate(-147.334 -147.419)" fill="#96bfdc"/>
        <path id="Trazado_146796" data-name="Trazado 146796" d="M101.687,113.024q-.011-6.9-.03-13.805a.9.9,0,0,1,.332-.691c1.152-1.145,2.289-2.305,3.453-3.438a1.765,1.765,0,0,0,.563-1.38q-.029-3.993,0-7.986a1.693,1.693,0,0,0-.549-1.317q-1.433-1.39-2.824-2.823a1.59,1.59,0,0,0-1.263-.515c-.879.025-1.759,0-2.639.008-1.025,0-1.395.363-1.4,1.372,0,2.233-.014,4.467.01,6.7,0,.454-.08.612-.576.6-1.6-.022-1.6,0-1.6-1.6,0-1.918,0-3.835,0-5.753,0-.931-.387-1.319-1.308-1.325-.947-.007-1.9.007-2.842-.006a1.347,1.347,0,0,0-1.034.406q-1.527,1.536-3.063,3.062a1.363,1.363,0,0,0-.419,1.028q.011,4.162,0,8.325a1.5,1.5,0,0,0,.5,1.132c1.171,1.158,2.33,2.327,3.5,3.49a.9.9,0,0,1,.349.684q-.025,7.241-.023,14.482a.647.647,0,0,1-.031.112,16.4,16.4,0,0,1-5.886-3.05c-6.067-5.027-8.378-11.491-6.431-19.084,1.933-7.537,7.058-12.041,14.712-13.57a14.86,14.86,0,0,1,6.044.012,16.864,16.864,0,0,1,7.417,5.112,18.885,18.885,0,0,1,4.727,10.148,19.252,19.252,0,0,1-3.849,14.823,18.943,18.943,0,0,1-4.991,4.6c-.25.159-.486.44-.845.237" transform="translate(-63.75 -63.739)" fill="#dbe0ea"/>
        <path id="Trazado_146797" data-name="Trazado 146797" d="M153.1,120.85c.008,1.961.009,3.922.032,5.882a.819.819,0,0,1-.335.622c-1.147,1.148-2.286,2.306-3.449,3.437a1.771,1.771,0,0,0-.564,1.378c.014,4.96,0,9.92.022,14.88,0,.533-.122.721-.669.792a19.842,19.842,0,0,1-5.255-.01c-.507-.069-.6-.243-.6-.713.018-4.892,0-9.784.025-14.677a2.3,2.3,0,0,0-.756-1.846c-1.116-1.05-2.178-2.157-3.262-3.242a.819.819,0,0,1-.336-.621c.023-1.961.024-3.922.032-5.882a5.216,5.216,0,0,1,1.967-2.042,2.707,2.707,0,0,1,2.318.007q.011,2.582.023,5.164c.005.85.226,1.121,1.08,1.353.321.393.194.862.2,1.3.008.457.195.647.651.642q1.315-.017,2.631,0c.456.006.642-.185.651-.642.008-.438-.119-.908.2-1.3.853-.233,1.075-.5,1.08-1.354q.016-2.582.023-5.163a2.7,2.7,0,0,1,2.941.481,5.282,5.282,0,0,1,1.344,1.554" transform="translate(-113.044 -97.143)" fill="#fed945"/>
        <path id="Trazado_146798" data-name="Trazado 146798" d="M198.934,114.46a8.341,8.341,0,0,0,2.312-1.481,19.417,19.417,0,0,0,7.3-13.346,19.074,19.074,0,0,0-4.011-13.948,18.348,18.348,0,0,0-7.723-5.927,1.978,1.978,0,0,1-.331-.22,15.646,15.646,0,0,1,6.595,2.416c6.219,4.009,9.329,9.77,8.725,17.127-.641,7.815-4.932,13.136-12.265,15.966-.184.071-.378.118-.6.186Z" transform="translate(-160.997 -65.175)" fill="#ccd1e0"/>
        <path id="Trazado_146799" data-name="Trazado 146799" d="M172.28,156.107c0,.54-.024,1.081,0,1.619.022.426-.155.54-.553.532q-1.619-.03-3.239,0c-.4.007-.576-.106-.553-.532.028-.538.005-1.079,0-1.619h4.337" transform="translate(-137.611 -127.918)" fill="#fea326"/>
        <path id="Trazado_146800" data-name="Trazado 146800" d="M142.129,110.087a3.509,3.509,0,0,0-3.749,1.534,3.492,3.492,0,0,1-.536.5,2.394,2.394,0,0,1,.957-2.591,11.771,11.771,0,0,0,1.347-1.328.856.856,0,0,1,.642-.293c1.362-.039,1.363-.049,1.36,1.3,0,.293-.014.585-.021.878" transform="translate(-112.9 -88.415)" fill="#fea326"/>
        <path id="Trazado_146801" data-name="Trazado 146801" d="M202.093,111.867c-.512-.5-1.055-.968-1.527-1.5a1.483,1.483,0,0,0-1.351-.545c-.466.042-.938.01-1.407.011a6.723,6.723,0,0,1-.015-.877c.046-.427-.218-.947.153-1.261.344-.29,1.649.063,2.033.447a10.661,10.661,0,0,0,1.156,1.137,2.378,2.378,0,0,1,.959,2.589" transform="translate(-162.037 -88.159)" fill="#fea326"/>
      </g>
    </g>
  </g>
</svg>
