<svg xmlns="http://www.w3.org/2000/svg" xmlns:xlink="http://www.w3.org/1999/xlink" width="274" height="132" viewBox="0 0 274 132">
  <defs>
    <clipPath id="clip-path">
      <rect id="Rectángulo_37557" data-name="Rectángulo 37557" width="65" height="65.006" fill="none"/>
    </clipPath>
  </defs>
  <g id="Grupo_142246" data-name="Grupo 142246" transform="translate(5596.75 -1562)">
    <path id="Trazado_146858" data-name="Trazado 146858" d="M10,0H226a10,10,0,0,1,10,10V122a10,10,0,0,1-10,10H10A10,10,0,0,1,0,122V10A10,10,0,0,1,10,0Z" transform="translate(-5558.75 1562)" fill="#fff"/>
    <g id="Grupo_142229" data-name="Grupo 142229" transform="translate(-6069.75 -10629)">
      <circle id="Elipse_4842" data-name="Elipse 4842" cx="42" cy="42" r="42" transform="translate(473 12214)" fill="#19bdc9"/>
    </g>
    <path id="Trazado_146860" data-name="Trazado 146860" d="M12.236,7.428H7.969V19H4.541V7.428H.352V4.781H12.236ZM17,19H13.7V8.434H17Zm-3.5-13.3a1.482,1.482,0,0,1,.508-1.159,1.909,1.909,0,0,1,1.318-.452,1.909,1.909,0,0,1,1.318.452A1.482,1.482,0,0,1,17.158,5.7a1.482,1.482,0,0,1-.508,1.159,1.909,1.909,0,0,1-1.318.452,1.909,1.909,0,0,1-1.318-.452A1.482,1.482,0,0,1,13.506,5.7ZM24.141,19.2a5.432,5.432,0,0,1-3.936-1.45,5.008,5.008,0,0,1-1.5-3.774V13.7a6.489,6.489,0,0,1,.6-2.861,4.395,4.395,0,0,1,1.753-1.919,5.292,5.292,0,0,1,2.734-.679A4.574,4.574,0,0,1,27.3,9.62a5.43,5.43,0,0,1,1.289,3.853v1.279H22.051a2.372,2.372,0,0,0,.771,1.4,2.3,2.3,0,0,0,1.543.508,2.958,2.958,0,0,0,2.441-1.094l1.5,1.777a4.2,4.2,0,0,1-1.743,1.353A5.891,5.891,0,0,1,24.141,19.2Zm-.371-8.418q-1.445,0-1.719,1.914h3.32v-.254a1.63,1.63,0,0,0-.4-1.226A1.593,1.593,0,0,0,23.77,10.777Zm9.258-2.344.107,1.24a3.633,3.633,0,0,1,3.018-1.436A2.675,2.675,0,0,1,38.857,9.83a3.516,3.516,0,0,1,3.105-1.592q3.213,0,3.3,3.887V19h-3.3V12.33a2.014,2.014,0,0,0-.273-1.182,1.164,1.164,0,0,0-1-.371,1.559,1.559,0,0,0-1.455.869l.01.137V19h-3.3V12.35a2.117,2.117,0,0,0-.264-1.2,1.161,1.161,0,0,0-1.006-.371,1.578,1.578,0,0,0-1.445.869V19H29.941V8.434Zm23.926,5.361a6.372,6.372,0,0,1-1.108,3.931,3.554,3.554,0,0,1-2.993,1.47,3.046,3.046,0,0,1-2.393-1.064v4.932H47.168V8.434h3.076l.1.977a3.046,3.046,0,0,1,2.49-1.172,3.582,3.582,0,0,1,3.037,1.44,6.45,6.45,0,0,1,1.084,3.96Zm-3.291-.205q0-2.812-1.641-2.812a1.549,1.549,0,0,0-1.562.84v4.16a1.6,1.6,0,0,0,1.582.879q1.572,0,1.621-2.715Zm4.326.029A6.236,6.236,0,0,1,58.6,10.8a4.4,4.4,0,0,1,1.768-1.9,5.323,5.323,0,0,1,2.705-.664,4.858,4.858,0,0,1,3.74,1.47,5.64,5.64,0,0,1,1.367,4v.117a5.472,5.472,0,0,1-1.372,3.921A4.871,4.871,0,0,1,63.1,19.2a4.927,4.927,0,0,1-3.623-1.353A5.29,5.29,0,0,1,58,14.176Zm3.291.205a3.932,3.932,0,0,0,.459,2.148,1.529,1.529,0,0,0,1.357.684q1.758,0,1.8-2.705v-.332q0-2.842-1.816-2.842-1.65,0-1.787,2.451Z" transform="translate(-5481.25 1616)" fill="#12263f"/>
    <g id="Grupo_142231" data-name="Grupo 142231" transform="translate(-5586.926 1594.821)">
      <g id="Grupo_142230" data-name="Grupo 142230" clip-path="url(#clip-path)">
        <path id="Trazado_146770" data-name="Trazado 146770" d="M7.215,52.452A7.439,7.439,0,0,1,8.071,49.8a11.481,11.481,0,0,1,.67-1.565.829.829,0,0,0-.085-.95,23.806,23.806,0,0,1-3.216-7.5,2.4,2.4,0,0,0-1.9-2.038c-.649-.182-1.258-.5-1.894-.731A2.116,2.116,0,0,1,.021,34.829c-.026-1.533-.029-3.068,0-4.6A2.093,2.093,0,0,1,1.5,28.07c1.052-.364,2.072-.82,3.111-1.223a.8.8,0,0,0,.561-.638,27.442,27.442,0,0,1,3.538-8.564.708.708,0,0,0,.067-.771c-.375-.813-.644-1.68-1.069-2.464A2.679,2.679,0,0,1,8.2,10.854c1.1-1.068,2.114-2.222,3.315-3.181a1.934,1.934,0,0,1,2.04-.269q1.672.674,3.32,1.407a.659.659,0,0,0,.713-.056,27.746,27.746,0,0,1,8.622-3.563.794.794,0,0,0,.618-.582c.406-1.038.85-2.061,1.231-3.108A1.849,1.849,0,0,1,29.708.119,29.828,29.828,0,0,1,35.4.152a1.727,1.727,0,0,1,1.462,1.241c.4,1.062.859,2.1,1.266,3.165a.886.886,0,0,0,.712.65,26.978,26.978,0,0,1,8.5,3.52.757.757,0,0,0,.832.052c.792-.368,1.641-.625,2.4-1.041a2.7,2.7,0,0,1,3.606.519c1.045,1.09,2.187,2.086,3.134,3.269a1.938,1.938,0,0,1,.282,2.039q-.655,1.644-1.379,3.26a.766.766,0,0,0,.048.832,27.444,27.444,0,0,1,3.536,8.563.8.8,0,0,0,.571.628c1.058.414,2.1.866,3.168,1.257a1.81,1.81,0,0,1,1.331,1.617,29.728,29.728,0,0,1-.026,5.695A1.732,1.732,0,0,1,63.62,36.89c-1.12.436-2.219.925-3.338,1.363a.66.66,0,0,0-.469.545,27.591,27.591,0,0,1-3.565,8.621.656.656,0,0,0-.057.713c.37.816.647,1.678,1.066,2.466a2.663,2.663,0,0,1-.452,3.553c-1.11,1.056-2.1,2.23-3.311,3.185a1.979,1.979,0,0,1-2.1.279c-1.113-.453-2.219-.925-3.319-1.408a.608.608,0,0,0-.655.05A27.535,27.535,0,0,1,38.74,59.85a.6.6,0,0,0-.5.428c-.407,1.061-.881,2.1-1.262,3.167a2.159,2.159,0,0,1-2.193,1.537c-1.533.028-3.068.031-4.6,0a2.094,2.094,0,0,1-2.148-1.49c-.362-1.053-.814-2.074-1.224-3.111a.748.748,0,0,0-.582-.536,27.769,27.769,0,0,1-8.681-3.591.6.6,0,0,0-.655-.042c-.838.373-1.721.66-2.525,1.095a2.679,2.679,0,0,1-3.553-.51c-1.068-1.1-2.22-2.115-3.179-3.316a1.566,1.566,0,0,1-.421-1.028" transform="translate(0 0.001)" fill="#dff1ff"/>
        <path id="Trazado_146771" data-name="Trazado 146771" d="M69.205,44.523A24.693,24.693,0,1,1,44.524,69.175,24.646,24.646,0,0,1,69.205,44.523" transform="translate(-36.715 -36.714)" fill="#4294a7"/>
        <path id="Trazado_146772" data-name="Trazado 146772" d="M80.422,57.406A22.443,22.443,0,1,1,57.308,79.167,22.433,22.433,0,0,1,80.422,57.406" transform="translate(-47.246 -47.329)" fill="#fefefe"/>
        <path id="Trazado_146773" data-name="Trazado 146773" d="M171.022,171.947c-.364-.177-.672.092-1,.144a3.353,3.353,0,0,1-2.232-6.215c.186-.108.407-.169.521-.377a2.834,2.834,0,0,1,2.3,0c.431.459,1.1.6,1.47,1.156a3.405,3.405,0,0,1,.553,3.191.523.523,0,0,0-.013.5,3.516,3.516,0,0,1-1.6,1.6" transform="translate(-136.973 -136.27)" fill="#bedaef"/>
        <path id="Trazado_146774" data-name="Trazado 146774" d="M180.96,113.542a16.081,16.081,0,0,0-2.3,0q0-4.786,0-9.573a2.812,2.812,0,0,1,.107-.972,1.1,1.1,0,0,1,2.083,0,2.8,2.8,0,0,1,.108.972q0,4.787,0,9.574" transform="translate(-147.321 -84.313)" fill="#e2c74d"/>
        <path id="Trazado_146775" data-name="Trazado 146775" d="M194.134,195.88l1.6-1.6c1.062,1.066,2.128,2.128,3.185,3.2a1.1,1.1,0,0,1,.209,1.432,1.06,1.06,0,0,1-1.18.507,1.433,1.433,0,0,1-.758-.485l-3.055-3.051" transform="translate(-160.085 -160.203)" fill="#4295a8"/>
        <path id="Trazado_146776" data-name="Trazado 146776" d="M181.015,71.768c0,.223,0,.266,0,.31-.012.987-.423,1.526-1.155,1.516s-1.118-.54-1.122-1.546a5.344,5.344,0,0,1,.039-.785,1.1,1.1,0,0,1,1.08-1.031,1.114,1.114,0,0,1,1.123,1.06,4.491,4.491,0,0,1,.035.475" transform="translate(-147.389 -57.915)" fill="#4395a8"/>
        <path id="Trazado_146777" data-name="Trazado 146777" d="M71.761,181.172c-1.12,0-1.67-.37-1.683-1.123-.013-.777.549-1.156,1.715-1.156,1.1,0,1.657.392,1.646,1.155s-.558,1.127-1.677,1.124" transform="translate(-57.787 -147.517)" fill="#4395a8"/>
        <path id="Trazado_146778" data-name="Trazado 146778" d="M282.85,181.162c-.131,0-.263.008-.394,0-.787-.057-1.261-.494-1.252-1.151a1.142,1.142,0,0,1,1.218-1.112,5.952,5.952,0,0,1,1.112.033,1.087,1.087,0,0,1,1.03,1.079,1.1,1.1,0,0,1-1,1.111c-.236.039-.478.042-.717.062,0-.006,0-.013,0-.019" transform="translate(-231.883 -147.51)" fill="#4395a8"/>
        <path id="Trazado_146779" data-name="Trazado 146779" d="M178.658,283.012c0-.087,0-.175,0-.263.033-.881.464-1.39,1.163-1.374.674.016,1.085.508,1.11,1.358a5.856,5.856,0,0,1-.04.981,1.1,1.1,0,0,1-2.19.015c-.038-.236-.04-.478-.059-.718h.016" transform="translate(-147.31 -232.025)" fill="#4395a8"/>
        <path id="Trazado_146780" data-name="Trazado 146780" d="M232.823,85.992a3.505,3.505,0,0,1-1.129,1.831.989.989,0,0,1-1.276-.1,1.036,1.036,0,0,1-.285-1.307,7.538,7.538,0,0,1,.695-1.187,1.017,1.017,0,0,1,1.227-.377,1.106,1.106,0,0,1,.768,1.141" transform="translate(-189.674 -69.914)" fill="#4295a8"/>
        <path id="Trazado_146781" data-name="Trazado 146781" d="M85.805,233a1.1,1.1,0,0,1-1.09-.772A1.02,1.02,0,0,1,85.1,231a7.843,7.843,0,0,1,1.187-.7,1.1,1.1,0,0,1,1.1,1.9,3.871,3.871,0,0,1-1.582.789" transform="translate(-69.802 -189.824)" fill="#4295a8"/>
        <path id="Trazado_146782" data-name="Trazado 146782" d="M270.7,231.949a1.075,1.075,0,0,1-1.49,1.035,6.744,6.744,0,0,1-1.25-.706,1.023,1.023,0,0,1-.365-1.283.954.954,0,0,1,1.073-.685,3.114,3.114,0,0,1,1.878,1.083.767.767,0,0,1,.155.557" transform="translate(-220.591 -189.903)" fill="#4295a8"/>
        <path id="Trazado_146783" data-name="Trazado 146783" d="M231.22,267.725a.778.778,0,0,1,.561.19,3.424,3.424,0,0,1,1.029,1.786.974.974,0,0,1-.689,1.135,1.025,1.025,0,0,1-1.284-.367,6.272,6.272,0,0,1-.694-1.187,1.1,1.1,0,0,1,1.077-1.557" transform="translate(-189.694 -220.768)" fill="#4295a8"/>
        <path id="Trazado_146784" data-name="Trazado 146784" d="M127.2,268.957a3.467,3.467,0,0,1-1.08,1.745,1.1,1.1,0,0,1-1.621-1.293,7.053,7.053,0,0,1,.744-1.3,1.01,1.01,0,0,1,1.234-.343,1.1,1.1,0,0,1,.724,1.193" transform="translate(-102.592 -220.736)" fill="#4295a8"/>
        <path id="Trazado_146785" data-name="Trazado 146785" d="M127.2,86.678a1.114,1.114,0,0,1-.694,1.2,1.011,1.011,0,0,1-1.244-.308,6.425,6.425,0,0,1-.775-1.358A.984.984,0,0,1,124.876,85a.964.964,0,0,1,1.218-.064,3.484,3.484,0,0,1,1.105,1.744" transform="translate(-102.587 -69.882)" fill="#4295a8"/>
        <path id="Trazado_146786" data-name="Trazado 146786" d="M87.831,126.291a1.085,1.085,0,0,1-1.5,1.068,5.9,5.9,0,0,1-1.294-.758,1.1,1.1,0,0,1,.838-1.923,3.474,3.474,0,0,1,1.736.985.808.808,0,0,1,.22.627" transform="translate(-69.79 -102.793)" fill="#4295a8"/>
        <path id="Trazado_146787" data-name="Trazado 146787" d="M269.426,124.6a1.161,1.161,0,0,1,1.117.716,1,1,0,0,1-.307,1.239,6.325,6.325,0,0,1-1.294.757A1.016,1.016,0,0,1,267.7,127a.991.991,0,0,1-.132-1.218,3.4,3.4,0,0,1,1.859-1.186" transform="translate(-220.512 -102.745)" fill="#4295a8"/>
      </g>
    </g>
  </g>
</svg>
