<svg xmlns="http://www.w3.org/2000/svg" xmlns:xlink="http://www.w3.org/1999/xlink" width="274" height="132" viewBox="0 0 274 132">
  <defs>
    <clipPath id="clip-path">
      <rect id="Rectángulo_37560" data-name="Rectángulo 37560" width="49.725" height="48.184" fill="none"/>
    </clipPath>
  </defs>
  <g id="Grupo_142247" data-name="Grupo 142247" transform="translate(5450.75 -1747.666)">
    <path id="Trazado_146859" data-name="Trazado 146859" d="M10,0H226a10,10,0,0,1,10,10V122a10,10,0,0,1-10,10H10A10,10,0,0,1,0,122V10A10,10,0,0,1,10,0Z" transform="translate(-5412.75 1747.666)" fill="#fff"/>
    <g id="Grupo_142228" data-name="Grupo 142228" transform="translate(-5923.75 -10443.334)">
      <circle id="Elipse_4842" data-name="Elipse 4842" cx="42" cy="42" r="42" transform="translate(473 12214)" fill="#19bdc9"/>
    </g>
    <path id="Trazado_146861" data-name="Trazado 146861" d="M6.357,13.971H4.5V19H1.074V4.781h5.6A6.246,6.246,0,0,1,10.625,5.9a3.8,3.8,0,0,1,1.426,3.17,4.616,4.616,0,0,1-.6,2.458,4.263,4.263,0,0,1-1.88,1.58l2.969,5.741V19H8.867ZM4.5,11.334H6.67a1.946,1.946,0,0,0,1.47-.514,1.987,1.987,0,0,0,.493-1.434,2.01,2.01,0,0,0-.5-1.444A1.928,1.928,0,0,0,6.67,7.418H4.5ZM19.082,19.2a5.432,5.432,0,0,1-3.936-1.45,5.008,5.008,0,0,1-1.5-3.774V13.7a6.489,6.489,0,0,1,.6-2.861A4.395,4.395,0,0,1,16,8.917a5.292,5.292,0,0,1,2.734-.679A4.574,4.574,0,0,1,22.246,9.62a5.43,5.43,0,0,1,1.289,3.853v1.279H16.992a2.372,2.372,0,0,0,.771,1.4,2.3,2.3,0,0,0,1.543.508,2.958,2.958,0,0,0,2.441-1.094l1.5,1.777a4.2,4.2,0,0,1-1.743,1.353A5.891,5.891,0,0,1,19.082,19.2Zm-.371-8.418q-1.445,0-1.719,1.914h3.32v-.254a1.63,1.63,0,0,0-.4-1.226A1.593,1.593,0,0,0,18.711,10.777Zm10.615,5.879A1.464,1.464,0,0,0,30.4,16.28a1.379,1.379,0,0,0,.371-1.05h3.086a3.653,3.653,0,0,1-1.245,2.852A4.631,4.631,0,0,1,29.4,19.2a4.689,4.689,0,0,1-3.633-1.445,5.7,5.7,0,0,1-1.328-4v-.137a6.436,6.436,0,0,1,.591-2.827,4.3,4.3,0,0,1,1.7-1.885,5.081,5.081,0,0,1,2.637-.659,4.573,4.573,0,0,1,3.271,1.143,4.053,4.053,0,0,1,1.211,3.1H30.771a1.807,1.807,0,0,0-.4-1.26,1.382,1.382,0,0,0-1.074-.439q-1.279,0-1.494,1.631a11.508,11.508,0,0,0-.068,1.426,4.52,4.52,0,0,0,.381,2.207A1.319,1.319,0,0,0,29.326,16.656Zm12.217,1.2A3.393,3.393,0,0,1,38.721,19.2a3.328,3.328,0,0,1-2.632-1.011,4.251,4.251,0,0,1-.894-2.905V8.434h3.291V15.3A1.183,1.183,0,0,0,39.8,16.656a1.72,1.72,0,0,0,1.611-.811V8.434h3.311V19H41.641ZM52.92,11.412l-1.084-.078a1.947,1.947,0,0,0-1.992.977V19H46.553V8.434h3.086l.107,1.357a2.548,2.548,0,0,1,2.314-1.553,3.209,3.209,0,0,1,.918.117Zm6.719,4.619a.76.76,0,0,0-.439-.674,6.685,6.685,0,0,0-1.67-.527,7.615,7.615,0,0,1-2.031-.718,3.4,3.4,0,0,1-1.221-1.079,2.577,2.577,0,0,1-.42-1.455,2.92,2.92,0,0,1,1.2-2.4A4.948,4.948,0,0,1,58.2,8.238a5.482,5.482,0,0,1,3.359.947,2.962,2.962,0,0,1,1.27,2.49h-3.3q0-1.27-1.338-1.27a1.326,1.326,0,0,0-.869.288.892.892,0,0,0-.352.718.819.819,0,0,0,.43.713,4.06,4.06,0,0,0,1.372.449,11.857,11.857,0,0,1,1.655.42,3.007,3.007,0,0,1,2.383,2.939,2.767,2.767,0,0,1-1.284,2.354A5.632,5.632,0,0,1,58.2,19.2a5.747,5.747,0,0,1-2.422-.488,4.05,4.05,0,0,1-1.66-1.328,3.007,3.007,0,0,1-.6-1.768H56.6a1.272,1.272,0,0,0,.488,1.069,2.009,2.009,0,0,0,1.2.337,1.58,1.58,0,0,0,1.011-.273A.875.875,0,0,0,59.639,16.031Zm4.3-2.412a6.236,6.236,0,0,1,.615-2.817,4.4,4.4,0,0,1,1.768-1.9,5.323,5.323,0,0,1,2.705-.664,4.858,4.858,0,0,1,3.74,1.47,5.64,5.64,0,0,1,1.367,4v.117a5.472,5.472,0,0,1-1.372,3.921,4.871,4.871,0,0,1-3.716,1.45,4.927,4.927,0,0,1-3.623-1.353,5.29,5.29,0,0,1-1.475-3.667Zm3.291.205a3.932,3.932,0,0,0,.459,2.148,1.529,1.529,0,0,0,1.357.684q1.758,0,1.8-2.705v-.332q0-2.842-1.816-2.842-1.65,0-1.787,2.451Zm13.887,2.207a.76.76,0,0,0-.439-.674A6.685,6.685,0,0,0,79,14.83a7.615,7.615,0,0,1-2.031-.718,3.4,3.4,0,0,1-1.221-1.079,2.577,2.577,0,0,1-.42-1.455,2.92,2.92,0,0,1,1.2-2.4,4.948,4.948,0,0,1,3.145-.942,5.482,5.482,0,0,1,3.359.947,2.962,2.962,0,0,1,1.27,2.49h-3.3q0-1.27-1.338-1.27a1.326,1.326,0,0,0-.869.288.892.892,0,0,0-.352.718.819.819,0,0,0,.43.713,4.06,4.06,0,0,0,1.372.449,11.857,11.857,0,0,1,1.655.42,3.007,3.007,0,0,1,2.383,2.939A2.767,2.767,0,0,1,83,18.287a5.631,5.631,0,0,1-3.325.908,5.747,5.747,0,0,1-2.422-.488,4.05,4.05,0,0,1-1.66-1.328,3.007,3.007,0,0,1-.6-1.768h3.076a1.272,1.272,0,0,0,.488,1.069,2.009,2.009,0,0,0,1.2.337,1.58,1.58,0,0,0,1.011-.273A.875.875,0,0,0,81.113,16.031ZM4.141,36.566a3.294,3.294,0,0,1,2.7-1.328,3.284,3.284,0,0,1,2.637,1.035,4.651,4.651,0,0,1,.908,3.057V46H7.08V39.408a1.86,1.86,0,0,0-.342-1.235,1.469,1.469,0,0,0-1.162-.4,1.582,1.582,0,0,0-1.436.645V46H.85V31H4.141Zm14.365,8.291A3.393,3.393,0,0,1,15.684,46.2a3.328,3.328,0,0,1-2.632-1.011,4.251,4.251,0,0,1-.894-2.905V35.434h3.291V42.3a1.183,1.183,0,0,0,1.318,1.357,1.72,1.72,0,0,0,1.611-.811V35.434h3.311V46H18.6Zm8.1-9.424.107,1.24a3.633,3.633,0,0,1,3.018-1.436,2.675,2.675,0,0,1,2.705,1.592,3.516,3.516,0,0,1,3.105-1.592q3.213,0,3.3,3.887V46h-3.3V39.33a2.014,2.014,0,0,0-.273-1.182,1.164,1.164,0,0,0-1-.371,1.559,1.559,0,0,0-1.455.869l.01.137V46h-3.3V39.35a2.117,2.117,0,0,0-.264-1.2,1.161,1.161,0,0,0-1.006-.371,1.578,1.578,0,0,0-1.445.869V46H23.516V35.434ZM46.67,46a3.716,3.716,0,0,1-.312-.947A3.06,3.06,0,0,1,43.818,46.2a3.749,3.749,0,0,1-2.539-.9,2.875,2.875,0,0,1-1.045-2.271,2.955,2.955,0,0,1,1.27-2.6,6.468,6.468,0,0,1,3.691-.879h1.016v-.559q0-1.462-1.26-1.462a1.03,1.03,0,0,0-1.172,1.158H40.488a2.95,2.95,0,0,1,1.3-2.487,5.479,5.479,0,0,1,3.325-.956,4.8,4.8,0,0,1,3.193.986,3.429,3.429,0,0,1,1.2,2.705v4.678a4.79,4.79,0,0,0,.449,2.227V46Zm-2.061-2.148a1.836,1.836,0,0,0,1.021-.264,1.653,1.653,0,0,0,.581-.6V41.3h-.957q-1.719,0-1.719,1.543a.942.942,0,0,0,.3.728A1.1,1.1,0,0,0,44.609,43.852Zm9.746-8.418.107,1.24a3.583,3.583,0,0,1,3.018-1.436,3.015,3.015,0,0,1,2.466.986,4.7,4.7,0,0,1,.845,2.969V46h-3.3V39.33a1.783,1.783,0,0,0-.322-1.177A1.491,1.491,0,0,0,56,37.777a1.569,1.569,0,0,0-1.436.762V46H51.27V35.434ZM62.2,40.619a6.236,6.236,0,0,1,.615-2.817,4.4,4.4,0,0,1,1.768-1.9,5.323,5.323,0,0,1,2.705-.664,4.858,4.858,0,0,1,3.74,1.47,5.64,5.64,0,0,1,1.367,4v.117a5.472,5.472,0,0,1-1.372,3.921A4.871,4.871,0,0,1,67.3,46.2a4.927,4.927,0,0,1-3.623-1.353,5.29,5.29,0,0,1-1.475-3.667Zm3.291.205a3.932,3.932,0,0,0,.459,2.148,1.529,1.529,0,0,0,1.357.684q1.758,0,1.8-2.705v-.332q0-2.842-1.816-2.842-1.65,0-1.787,2.451Zm13.887,2.207a.76.76,0,0,0-.439-.674,6.685,6.685,0,0,0-1.67-.527,7.615,7.615,0,0,1-2.031-.718,3.4,3.4,0,0,1-1.221-1.079,2.577,2.577,0,0,1-.42-1.455,2.92,2.92,0,0,1,1.2-2.4,4.948,4.948,0,0,1,3.145-.942,5.482,5.482,0,0,1,3.359.947,2.962,2.962,0,0,1,1.27,2.49h-3.3q0-1.27-1.338-1.27a1.326,1.326,0,0,0-.869.288.892.892,0,0,0-.352.718.819.819,0,0,0,.43.713,4.06,4.06,0,0,0,1.372.449,11.856,11.856,0,0,1,1.655.42,3.007,3.007,0,0,1,2.383,2.939,2.767,2.767,0,0,1-1.284,2.354,5.631,5.631,0,0,1-3.325.908,5.747,5.747,0,0,1-2.422-.488,4.05,4.05,0,0,1-1.66-1.328,3.007,3.007,0,0,1-.6-1.768h3.076a1.272,1.272,0,0,0,.488,1.069,2.009,2.009,0,0,0,1.2.337,1.58,1.58,0,0,0,1.011-.273A.875.875,0,0,0,79.375,43.031Z" transform="translate(-5335.25 1787.166)" fill="#12263f"/>
    <g id="Grupo_142238" data-name="Grupo 142238" transform="translate(-5436.003 1785.982)">
      <g id="Grupo_142237" data-name="Grupo 142237" clip-path="url(#clip-path)">
        <path id="Trazado_146802" data-name="Trazado 146802" d="M48.161,329.714a2,2,0,0,1,1.633,1.471v.874a1.861,1.861,0,0,1-2.073,1.61q-22.781,0-45.562,0a2.214,2.214,0,0,1-.859-.119,1.764,1.764,0,0,1-1.214-1.492v-.971a4.521,4.521,0,0,1,.648-.933,1.632,1.632,0,0,1,1.188-.432c1.08-.092,2.162-.022,3.243-.04,13.205-.211,26.411-.045,39.617-.07,1.122,0,2.254.021,3.379.1" transform="translate(-0.075 -286.896)" fill="#005085"/>
        <path id="Trazado_146804" data-name="Trazado 146804" d="M21.409,195.158a4.741,4.741,0,0,1-1.081-.79,3,3,0,0,1-.534-1.632c-.148-1.526-.275-3.054-.417-4.581-.179-1.928-.367-3.855-.548-5.783-.166-1.767-.35-3.533-.48-5.3a1.791,1.791,0,0,1,1.5-1.81,1.2,1.2,0,0,1,.526-.04c4.77,0,9.541.075,14.308-.027,3.556-.077,7.11.009,10.663-.087a1.753,1.753,0,0,1,1.654,1.1,2.82,2.82,0,0,1,.225,1.033.872.872,0,0,0,0,.552,1.25,1.25,0,0,1,.091.547.783.783,0,0,0,0,.521,1.24,1.24,0,0,1,.084.469.9.9,0,0,0,.022.589.852.852,0,0,1,.084.473.849.849,0,0,0,.012.591.855.855,0,0,1,.085.471.767.767,0,0,0,.009.523,1.2,1.2,0,0,1,.089.541.773.773,0,0,0,.008.524,1.211,1.211,0,0,1,.09.54.7.7,0,0,0,.013.517.827.827,0,0,1,.083.47.846.846,0,0,0,.013.589.852.852,0,0,1,.085.471.766.766,0,0,0,.009.523,1.2,1.2,0,0,1,.089.541.773.773,0,0,0,.008.524,1.21,1.21,0,0,1,.09.54.705.705,0,0,0,.013.517.826.826,0,0,1,.083.471.841.841,0,0,0,.017.6.876.876,0,0,1,.081.5.73.73,0,0,0,.072.585c.141.349.448.322.738.322q2.853,0,5.705,0a3.241,3.241,0,0,1,.531.017c.151.025.337.013.363.237a1.015,1.015,0,0,1-.742.144c-1.957.005-3.913,0-5.87,0-.625,0-.673.037-.618.665.076.869.151,1.738.24,2.606.027.269.1.549-.123.78a2.477,2.477,0,0,1-.484.017q-13.135,0-26.27,0a.906.906,0,0,1-.52-.051" transform="translate(-15.969 -152.43)" fill="#d5d5d5"/>
        <path id="Trazado_146805" data-name="Trazado 146805" d="M150.838,21.469a13.8,13.8,0,0,0-1.8-.5,10.475,10.475,0,0,1-7.284-8.436A10.639,10.639,0,0,1,150.283.216,10.5,10.5,0,0,1,160.257,3.4a10.125,10.125,0,0,1,2.817,5.983,10.5,10.5,0,0,1-3.278,9.172,10.446,10.446,0,0,1-5.786,2.819c-.094.015-.2,0-.261.093a.261.261,0,0,1-.156.107,12.412,12.412,0,0,1-2.6,0,.263.263,0,0,1-.157-.107" transform="translate(-123.252 -0.001)" fill="#e9bea1"/>
        <path id="Trazado_146806" data-name="Trazado 146806" d="M158.283,165.788h2.909c1.148.008,2.3,0,3.443.027a11.858,11.858,0,0,1,11.053,8.2,12.084,12.084,0,0,1,.571,3.815c-.009,3.072,0,6.144,0,9.216a.38.38,0,0,1-.277.054c-2.513,0-5.027.01-7.539-.006-.184-.221.048-.279.16-.333a2.807,2.807,0,0,0,1.573-2.387,3.744,3.744,0,0,1,.337-1.495c-.14-.167-.331-.093-.5-.093-2.1-.005-4.2-.022-6.293.01-.486.008-.68-.15-.693-.6a.686.686,0,0,1,0-.471c.04-.181-.072-.333-.1-.5a1,1,0,0,1,0-.565c.041-.181-.074-.333-.095-.5a.686.686,0,0,1,0-.471l-.1-.6a.688.688,0,0,1,0-.471l-.094-.6a.677.677,0,0,1,0-.473c.039-.181-.074-.332-.1-.5a1.006,1.006,0,0,1,0-.565c.041-.181-.075-.332-.095-.5a.687.687,0,0,1,0-.471l-.1-.6a.688.688,0,0,1,0-.471l-.095-.6a.7.7,0,0,1,0-.47c.042-.181-.073-.333-.095-.5a1,1,0,0,1,0-.566c.04-.18-.075-.332-.094-.5a1.007,1.007,0,0,1,0-.566l-.092-.5a.691.691,0,0,1,0-.471l-.094-.6a.7.7,0,0,1,0-.47c-.156-1.346-.556-1.865-1.645-2.134a1,1,0,0,1-.43.035q-4.6,0-9.2-.006c-.144,0-.356.126-.441-.124a12.315,12.315,0,0,1,5.434-1.168c.9,0,1.807-.01,2.71-.017" transform="translate(-130.697 -144.319)" fill="#318eb4"/>
        <path id="Trazado_146807" data-name="Trazado 146807" d="M50.1,328.912a1.786,1.786,0,0,0,.326.06q3.778,0,7.556,0c.671.005,1.342.008,2.012.018a.836.836,0,0,1,.511.072c-1.018,0-2.036.014-3.055.014l-42.506.007c-.226,0-.452-.008-.679-.013.164-.159.367-.075.55-.078,1.014-.014,2.029-.015,3.043-.02.355,0,.711.009,1.066.009H44.476c.226,0,.452-.01.678-.016a.7.7,0,0,1,.5-.137c1.341-.009,2.682,0,4.022,0a.655.655,0,0,1,.418.092" transform="translate(-12.416 -286.239)" fill="#4584a9"/>
        <path id="Trazado_146808" data-name="Trazado 146808" d="M45.554,174.942c.164.157.369.08.552.08q4.761.014,9.523.015c-.1.116-.237.085-.362.085l-25.271,0c.2-.149.437-.084.657-.085q7.119-.006,14.238,0a1.541,1.541,0,0,0,.663-.089" transform="translate(-26.112 -152.288)" fill="#92c7c9"/>
        <path id="Trazado_146809" data-name="Trazado 146809" d="M255.532,301.873a7.849,7.849,0,0,1-1.691.059c-1.083.009-2.167-.005-3.251-.01-.1-1.264-.177-2.53-.323-3.789-.046-.4.114-.374.379-.374q3.511.006,7.022,0a13.6,13.6,0,0,1-.383,2.326,2.554,2.554,0,0,1-1.752,1.786" transform="translate(-217.852 -259.2)" fill="#a49d98"/>
        <path id="Trazado_146810" data-name="Trazado 146810" d="M121.5,241.137a2.169,2.169,0,0,1-2.107-2.108,2.112,2.112,0,0,1,2.164-2.079,2.08,2.08,0,0,1,2.074,2.113,2.131,2.131,0,0,1-2.132,2.075" transform="translate(-103.93 -206.266)" fill="#a49d98"/>
        <path id="Trazado_146811" data-name="Trazado 146811" d="M241.483,207.9q0,.283.005.566a.455.455,0,0,1-.005-.566" transform="translate(-210.128 -180.976)" fill="#8ec4c9"/>
        <path id="Trazado_146812" data-name="Trazado 146812" d="M242.233,216.137q0,.283,0,.566a.454.454,0,0,1,0-.566" transform="translate(-210.78 -188.148)" fill="#8ec4c9"/>
        <path id="Trazado_146813" data-name="Trazado 146813" d="M245.233,248.374q0,.283,0,.566a.454.454,0,0,1,0-.566" transform="translate(-213.392 -216.211)" fill="#8fc5c8"/>
        <path id="Trazado_146814" data-name="Trazado 146814" d="M248.232,280.608q0,.283,0,.566a.454.454,0,0,1,0-.566" transform="translate(-216.002 -244.271)" fill="#90c6c8"/>
        <path id="Trazado_146815" data-name="Trazado 146815" d="M240.012,192.151q0,.235,0,.47a.336.336,0,0,1,0-.47" transform="translate(-208.85 -167.268)" fill="#91c6c9"/>
        <path id="Trazado_146816" data-name="Trazado 146816" d="M240.762,200.389l0,.471a.336.336,0,0,1,0-.471" transform="translate(-209.502 -174.44)" fill="#90c6ca"/>
        <path id="Trazado_146817" data-name="Trazado 146817" d="M243.011,224.386l0,.47a.336.336,0,0,1,0-.47" transform="translate(-211.461 -195.329)" fill="#90c6c9"/>
        <path id="Trazado_146818" data-name="Trazado 146818" d="M243.762,232.62l0,.471a.336.336,0,0,1,0-.471" transform="translate(-212.112 -202.497)" fill="#90c5c9"/>
        <path id="Trazado_146819" data-name="Trazado 146819" d="M244.512,240.861q0,.236,0,.471a.335.335,0,0,1,0-.471" transform="translate(-212.765 -209.671)" fill="#90c6c9"/>
        <path id="Trazado_146820" data-name="Trazado 146820" d="M246.01,256.6q0,.237,0,.473a.336.336,0,0,1,0-.473" transform="translate(-214.07 -223.374)" fill="#8cc3ca"/>
        <path id="Trazado_146821" data-name="Trazado 146821" d="M246.761,264.853q0,.236,0,.471a.336.336,0,0,1,0-.471" transform="translate(-214.723 -230.556)" fill="#8fc5c9"/>
        <path id="Trazado_146822" data-name="Trazado 146822" d="M247.511,273.094q0,.236,0,.471a.335.335,0,0,1,0-.471" transform="translate(-215.375 -237.73)" fill="#90c5c9"/>
        <path id="Trazado_146823" data-name="Trazado 146823" d="M249.009,288.845q0,.236,0,.471a.335.335,0,0,1,0-.471" transform="translate(-216.681 -251.441)" fill="#90c5c9"/>
      </g>
    </g>
  </g>
</svg>
