<svg xmlns="http://www.w3.org/2000/svg" xmlns:xlink="http://www.w3.org/1999/xlink" width="395" height="168.163" viewBox="0 0 395 168.163">
  <defs>
    <filter id="Rectángulo_37494" x="116" y="19" width="279" height="136" filterUnits="userSpaceOnUse">
      <feOffset dy="3" input="SourceAlpha"/>
      <feGaussianBlur stdDeviation="3" result="blur"/>
      <feFlood flood-opacity="0.161"/>
      <feComposite operator="in" in2="blur"/>
      <feComposite in="SourceGraphic"/>
    </filter>
    <clipPath id="clip-path">
      <rect id="Rectángulo_37496" data-name="Rectángulo 37496" width="168" height="168.163" fill="none"/>
    </clipPath>
  </defs>
  <g id="Grupo_142196" data-name="Grupo 142196" transform="translate(-285 -1828)">
    <g transform="matrix(1, 0, 0, 1, 285, 1828)" filter="url(#Rectángulo_37494)">
      <rect id="Rectángulo_37494-2" data-name="Rectángulo 37494" width="261" height="118" rx="28" transform="translate(125 25)" fill="#f9fbfc"/>
    </g>
    <path id="Trazado_146641" data-name="Trazado 146641" d="M4.052,12.658V17H.967V4.2H6.073a5.948,5.948,0,0,1,2.6.541,4.074,4.074,0,0,1,1.749,1.538,4.2,4.2,0,0,1,.62,2.263A3.7,3.7,0,0,1,9.7,11.538a5.561,5.561,0,0,1-3.678,1.121Zm0-2.382H6.073A1.906,1.906,0,0,0,7.44,9.828a1.665,1.665,0,0,0,.47-1.266A2.059,2.059,0,0,0,7.427,7.13a1.712,1.712,0,0,0-1.318-.545H4.052ZM17.807,17a3.344,3.344,0,0,1-.281-.853,2.754,2.754,0,0,1-2.285,1.028,3.374,3.374,0,0,1-2.285-.813,2.588,2.588,0,0,1-.94-2.043,2.66,2.66,0,0,1,1.143-2.338,5.821,5.821,0,0,1,3.322-.791h.914v-.5q0-1.316-1.134-1.316a.927.927,0,0,0-1.055,1.042H12.243a2.655,2.655,0,0,1,1.173-2.239,4.931,4.931,0,0,1,2.993-.86,4.323,4.323,0,0,1,2.874.888,3.086,3.086,0,0,1,1.081,2.435v4.21a4.311,4.311,0,0,0,.4,2V17Zm-1.854-1.934a1.652,1.652,0,0,0,.918-.237,1.487,1.487,0,0,0,.523-.536V12.772h-.861q-1.547,0-1.547,1.389a.848.848,0,0,0,.272.655A.986.986,0,0,0,15.952,15.066Zm11.8-4.9-.976-.07a1.752,1.752,0,0,0-1.793.879V17H22.025V7.49H24.8l.1,1.222a2.294,2.294,0,0,1,2.083-1.4,2.888,2.888,0,0,1,.826.105ZM33.917,17a3.344,3.344,0,0,1-.281-.853,2.754,2.754,0,0,1-2.285,1.028,3.374,3.374,0,0,1-2.285-.813,2.588,2.588,0,0,1-.94-2.043,2.66,2.66,0,0,1,1.143-2.338,5.821,5.821,0,0,1,3.322-.791H33.5v-.5q0-1.316-1.134-1.316a.927.927,0,0,0-1.055,1.042H28.354a2.655,2.655,0,0,1,1.173-2.239,4.931,4.931,0,0,1,2.993-.86,4.323,4.323,0,0,1,2.874.888,3.086,3.086,0,0,1,1.081,2.435v4.21a4.311,4.311,0,0,0,.4,2V17Zm-1.854-1.934a1.652,1.652,0,0,0,.918-.237,1.487,1.487,0,0,0,.523-.536V12.772h-.861q-1.547,0-1.547,1.389a.848.848,0,0,0,.272.655A.986.986,0,0,0,32.063,15.066ZM47.953,17a3.344,3.344,0,0,1-.281-.853,2.754,2.754,0,0,1-2.285,1.028,3.374,3.374,0,0,1-2.285-.813,2.588,2.588,0,0,1-.94-2.043A2.66,2.66,0,0,1,43.3,11.981a5.821,5.821,0,0,1,3.322-.791h.914v-.5q0-1.316-1.134-1.316a.927.927,0,0,0-1.055,1.042H42.39a2.655,2.655,0,0,1,1.173-2.239,4.931,4.931,0,0,1,2.993-.86A4.323,4.323,0,0,1,49.43,8.2a3.086,3.086,0,0,1,1.081,2.435v4.21a4.311,4.311,0,0,0,.4,2V17ZM46.1,15.066a1.652,1.652,0,0,0,.918-.237,1.487,1.487,0,0,0,.523-.536V12.772h-.861q-1.547,0-1.547,1.389a.848.848,0,0,0,.272.655A.986.986,0,0,0,46.1,15.066Zm5.7-2.892a6.421,6.421,0,0,1,.475-2.549A3.821,3.821,0,0,1,53.64,7.917a3.591,3.591,0,0,1,2.065-.6,2.855,2.855,0,0,1,2.32,1l.105-.826H60.82V16.64a4.009,4.009,0,0,1-.584,2.184,3.75,3.75,0,0,1-1.692,1.424,6.219,6.219,0,0,1-2.566.5,5.365,5.365,0,0,1-2.026-.4,3.657,3.657,0,0,1-1.5-1.028l1.239-1.74a2.716,2.716,0,0,0,2.18.976,1.764,1.764,0,0,0,1.969-2.021v-.3a2.781,2.781,0,0,1-2.153.94,3.437,3.437,0,0,1-2.812-1.332A5.517,5.517,0,0,1,51.8,12.28Zm2.971.185a3.383,3.383,0,0,0,.439,1.85,1.387,1.387,0,0,0,1.23.681,1.573,1.573,0,0,0,1.4-.642v-4a1.534,1.534,0,0,0-1.38-.65,1.4,1.4,0,0,0-1.239.708A3.858,3.858,0,0,0,54.773,12.359Zm13.482-2.188-.976-.07a1.752,1.752,0,0,0-1.793.879V17H62.525V7.49H65.3l.1,1.222a2.294,2.294,0,0,1,2.083-1.4,2.888,2.888,0,0,1,.826.105Zm5.5,7a4.889,4.889,0,0,1-3.542-1.305,4.507,4.507,0,0,1-1.354-3.4v-.246A5.84,5.84,0,0,1,69.4,9.652,3.955,3.955,0,0,1,70.98,7.925a4.763,4.763,0,0,1,2.461-.611,4.117,4.117,0,0,1,3.164,1.244,4.887,4.887,0,0,1,1.16,3.467v1.151H71.877a2.135,2.135,0,0,0,.694,1.257,2.066,2.066,0,0,0,1.389.457,2.662,2.662,0,0,0,2.2-.984l1.354,1.6a3.784,3.784,0,0,1-1.569,1.217A5.3,5.3,0,0,1,73.758,17.176ZM73.424,9.6q-1.3,0-1.547,1.723h2.988v-.229a1.467,1.467,0,0,0-.36-1.1A1.434,1.434,0,0,0,73.424,9.6Zm5.186,2.575a6.421,6.421,0,0,1,.475-2.549,3.821,3.821,0,0,1,1.362-1.709,3.591,3.591,0,0,1,2.065-.6,2.855,2.855,0,0,1,2.32,1l.105-.826h2.689V16.64a4.009,4.009,0,0,1-.584,2.184,3.75,3.75,0,0,1-1.692,1.424,6.219,6.219,0,0,1-2.566.5,5.365,5.365,0,0,1-2.026-.4,3.657,3.657,0,0,1-1.5-1.028L80.5,17.58a2.716,2.716,0,0,0,2.18.976,1.764,1.764,0,0,0,1.969-2.021v-.3a2.781,2.781,0,0,1-2.153.94,3.437,3.437,0,0,1-2.812-1.332,5.517,5.517,0,0,1-1.072-3.564Zm2.971.185a3.383,3.383,0,0,0,.439,1.85,1.387,1.387,0,0,0,1.23.681,1.573,1.573,0,0,0,1.4-.642v-4a1.534,1.534,0,0,0-1.38-.65,1.4,1.4,0,0,0-1.239.708A3.858,3.858,0,0,0,81.58,12.359ZM94.667,17a3.344,3.344,0,0,1-.281-.853A2.754,2.754,0,0,1,92.1,17.176a3.374,3.374,0,0,1-2.285-.813,2.588,2.588,0,0,1-.94-2.043,2.66,2.66,0,0,1,1.143-2.338,5.821,5.821,0,0,1,3.322-.791h.914v-.5q0-1.316-1.134-1.316a.927.927,0,0,0-1.055,1.042H89.1a2.655,2.655,0,0,1,1.173-2.239,4.931,4.931,0,0,1,2.993-.86,4.323,4.323,0,0,1,2.874.888,3.086,3.086,0,0,1,1.081,2.435v4.21a4.311,4.311,0,0,0,.4,2V17Zm-1.854-1.934a1.652,1.652,0,0,0,.918-.237,1.487,1.487,0,0,0,.523-.536V12.772h-.861q-1.547,0-1.547,1.389a.848.848,0,0,0,.272.655A.986.986,0,0,0,92.813,15.066Zm11.8-4.9-.976-.07a1.752,1.752,0,0,0-1.793.879V17H98.886V7.49h2.777l.1,1.222a2.294,2.294,0,0,1,2.083-1.4,2.888,2.888,0,0,1,.826.105ZM108.809,17h-2.971V3.5h2.971Zm1.45-4.843a5.613,5.613,0,0,1,.554-2.536A3.96,3.96,0,0,1,112.4,7.912a4.791,4.791,0,0,1,2.435-.6A4.373,4.373,0,0,1,118.2,8.637a5.076,5.076,0,0,1,1.23,3.6v.105a4.925,4.925,0,0,1-1.235,3.529,4.384,4.384,0,0,1-3.344,1.305,4.434,4.434,0,0,1-3.261-1.217,4.761,4.761,0,0,1-1.327-3.3Zm2.962.185a3.538,3.538,0,0,0,.413,1.934,1.376,1.376,0,0,0,1.222.615q1.582,0,1.617-2.435v-.3q0-2.558-1.635-2.558-1.485,0-1.608,2.206Zm16.022,2.549a1.317,1.317,0,0,0,.967-.338,1.241,1.241,0,0,0,.334-.945h2.777a3.288,3.288,0,0,1-1.121,2.566,4.168,4.168,0,0,1-2.887,1,4.22,4.22,0,0,1-3.27-1.3,5.125,5.125,0,0,1-1.2-3.6v-.123A5.792,5.792,0,0,1,125.38,9.6a3.872,3.872,0,0,1,1.534-1.7,4.573,4.573,0,0,1,2.373-.593,4.116,4.116,0,0,1,2.944,1.028,3.647,3.647,0,0,1,1.09,2.786h-2.777a1.626,1.626,0,0,0-.36-1.134,1.244,1.244,0,0,0-.967-.4q-1.151,0-1.345,1.468a10.357,10.357,0,0,0-.062,1.283,4.068,4.068,0,0,0,.343,1.986A1.187,1.187,0,0,0,129.243,14.891Zm4.957-2.733a5.613,5.613,0,0,1,.554-2.536,3.96,3.96,0,0,1,1.591-1.709,4.791,4.791,0,0,1,2.435-.6,4.373,4.373,0,0,1,3.366,1.323,5.076,5.076,0,0,1,1.23,3.6v.105a4.925,4.925,0,0,1-1.235,3.529,4.384,4.384,0,0,1-3.344,1.305,4.434,4.434,0,0,1-3.261-1.217,4.761,4.761,0,0,1-1.327-3.3Zm2.962.185a3.538,3.538,0,0,0,.413,1.934,1.376,1.376,0,0,0,1.222.615q1.582,0,1.617-2.435v-.3q0-2.558-1.635-2.558-1.485,0-1.608,2.206ZM147.48,7.49l.1,1.116a3.27,3.27,0,0,1,2.716-1.292,2.407,2.407,0,0,1,2.435,1.433,3.165,3.165,0,0,1,2.795-1.433q2.892,0,2.971,3.5V17h-2.971V11a1.813,1.813,0,0,0-.246-1.063,1.048,1.048,0,0,0-.9-.334,1.4,1.4,0,0,0-1.31.782l.009.123V17h-2.971V11.015a1.906,1.906,0,0,0-.237-1.081,1.045,1.045,0,0,0-.905-.334,1.42,1.42,0,0,0-1.3.782V17H144.7V7.49Zm12.331,4.667a5.613,5.613,0,0,1,.554-2.536,3.96,3.96,0,0,1,1.591-1.709,4.791,4.791,0,0,1,2.435-.6,4.373,4.373,0,0,1,3.366,1.323,5.076,5.076,0,0,1,1.23,3.6v.105a4.925,4.925,0,0,1-1.235,3.529,4.384,4.384,0,0,1-3.344,1.305,4.434,4.434,0,0,1-3.261-1.217,4.761,4.761,0,0,1-1.327-3.3Zm2.962.185a3.538,3.538,0,0,0,.413,1.934,1.376,1.376,0,0,0,1.222.615q1.582,0,1.617-2.435v-.3q0-2.558-1.635-2.558-1.485,0-1.608,2.206ZM6.5,40.972a3.054,3.054,0,0,1-2.54,1.2,3,3,0,0,1-2.369-.91,3.826,3.826,0,0,1-.8-2.615V32.49H3.744v6.179a1.065,1.065,0,0,0,1.187,1.222,1.548,1.548,0,0,0,1.45-.729V32.49H9.36V42H6.583ZM13.7,32.49l.1,1.116a3.225,3.225,0,0,1,2.716-1.292,2.713,2.713,0,0,1,2.219.888,4.226,4.226,0,0,1,.76,2.672V42H16.523V36a1.6,1.6,0,0,0-.29-1.059,1.342,1.342,0,0,0-1.055-.338,1.413,1.413,0,0,0-1.292.686V42H10.925V32.49ZM26.49,42a3.344,3.344,0,0,1-.281-.853,2.754,2.754,0,0,1-2.285,1.028,3.374,3.374,0,0,1-2.285-.813,2.588,2.588,0,0,1-.94-2.043,2.66,2.66,0,0,1,1.143-2.338,5.821,5.821,0,0,1,3.322-.791h.914v-.5q0-1.316-1.134-1.316a.927.927,0,0,0-1.055,1.042H20.927A2.655,2.655,0,0,1,22.1,33.175a4.931,4.931,0,0,1,2.993-.86,4.323,4.323,0,0,1,2.874.888,3.086,3.086,0,0,1,1.081,2.435v4.21a4.311,4.311,0,0,0,.4,2V42Zm-1.854-1.934a1.652,1.652,0,0,0,.918-.237,1.487,1.487,0,0,0,.523-.536V37.772h-.861q-1.547,0-1.547,1.389a.848.848,0,0,0,.272.655A.986.986,0,0,0,24.636,40.066Zm14.555-.176a1.317,1.317,0,0,0,.967-.338,1.241,1.241,0,0,0,.334-.945h2.777a3.288,3.288,0,0,1-1.121,2.566,4.168,4.168,0,0,1-2.887,1,4.22,4.22,0,0,1-3.27-1.3,5.125,5.125,0,0,1-1.2-3.6v-.123a5.792,5.792,0,0,1,.532-2.544,3.872,3.872,0,0,1,1.534-1.7,4.573,4.573,0,0,1,2.373-.593,4.116,4.116,0,0,1,2.944,1.028,3.647,3.647,0,0,1,1.09,2.786H40.491A1.626,1.626,0,0,0,40.131,35a1.244,1.244,0,0,0-.967-.4q-1.151,0-1.345,1.468a10.357,10.357,0,0,0-.062,1.283,4.068,4.068,0,0,0,.343,1.986A1.187,1.187,0,0,0,39.19,39.891Zm4.957-2.733a5.613,5.613,0,0,1,.554-2.536,3.96,3.96,0,0,1,1.591-1.709,4.791,4.791,0,0,1,2.435-.6,4.373,4.373,0,0,1,3.366,1.323,5.076,5.076,0,0,1,1.23,3.6v.105a4.925,4.925,0,0,1-1.235,3.529,4.384,4.384,0,0,1-3.344,1.305,4.434,4.434,0,0,1-3.261-1.217,4.761,4.761,0,0,1-1.327-3.3Zm2.962.185a3.538,3.538,0,0,0,.413,1.934,1.376,1.376,0,0,0,1.222.615q1.582,0,1.617-2.435v-.3q0-2.558-1.635-2.558-1.485,0-1.608,2.206ZM57.349,32.49l.1,1.116a3.225,3.225,0,0,1,2.716-1.292,2.713,2.713,0,0,1,2.219.888,4.226,4.226,0,0,1,.76,2.672V42H60.17V36a1.6,1.6,0,0,0-.29-1.059,1.342,1.342,0,0,0-1.055-.338,1.413,1.413,0,0,0-1.292.686V42H54.571V32.49ZM65.435,42V34.547h-1.38V32.49h1.38v-.756a3.286,3.286,0,0,1,.958-2.522,3.785,3.785,0,0,1,2.689-.9,5.89,5.89,0,0,1,1.389.185l.009,2.18a2.706,2.706,0,0,0-.729-.079q-1.345,0-1.345,1.16v.729H70.26v2.057H68.405V42Zm5.493-4.843a5.613,5.613,0,0,1,.554-2.536,3.96,3.96,0,0,1,1.591-1.709,4.791,4.791,0,0,1,2.435-.6,4.373,4.373,0,0,1,3.366,1.323,5.076,5.076,0,0,1,1.23,3.6v.105a4.925,4.925,0,0,1-1.235,3.529,4.384,4.384,0,0,1-3.344,1.305,4.434,4.434,0,0,1-3.261-1.217,4.761,4.761,0,0,1-1.327-3.3Zm2.962.185a3.538,3.538,0,0,0,.413,1.934,1.376,1.376,0,0,0,1.222.615q1.582,0,1.617-2.435v-.3q0-2.558-1.635-2.558-1.485,0-1.608,2.206Zm13.271-2.171-.976-.07a1.752,1.752,0,0,0-1.793.879V42H81.431V32.49h2.777l.1,1.222a2.294,2.294,0,0,1,2.083-1.4,2.888,2.888,0,0,1,.826.105Zm3.867-2.681.1,1.116a3.27,3.27,0,0,1,2.716-1.292,2.407,2.407,0,0,1,2.435,1.433,3.165,3.165,0,0,1,2.795-1.433q2.892,0,2.971,3.5V42H99.07V36a1.813,1.813,0,0,0-.246-1.063,1.048,1.048,0,0,0-.9-.334,1.4,1.4,0,0,0-1.31.782l.009.123V42H93.656V36.015a1.906,1.906,0,0,0-.237-1.081,1.045,1.045,0,0,0-.905-.334,1.42,1.42,0,0,0-1.3.782V42H88.251V32.49ZM106.857,42h-2.971V32.49h2.971Zm-3.146-11.971a1.334,1.334,0,0,1,.457-1.043,1.934,1.934,0,0,1,2.373,0,1.42,1.42,0,0,1,0,2.087,1.934,1.934,0,0,1-2.373,0A1.334,1.334,0,0,1,103.711,30.029Zm4.6,7.146a5.809,5.809,0,0,1,.976-3.56,3.211,3.211,0,0,1,2.725-1.3,2.731,2.731,0,0,1,2.145,1V28.5h2.971V42H114.46l-.149-1.02a2.8,2.8,0,0,1-2.32,1.2,3.205,3.205,0,0,1-2.689-1.3A5.993,5.993,0,0,1,108.308,37.175Zm2.962.185q0,2.531,1.477,2.531a1.458,1.458,0,0,0,1.406-.826V35.443a1.419,1.419,0,0,0-1.389-.844q-1.371,0-1.485,2.215ZM124.163,42a3.344,3.344,0,0,1-.281-.853,2.754,2.754,0,0,1-2.285,1.028,3.374,3.374,0,0,1-2.285-.813,2.588,2.588,0,0,1-.94-2.043,2.66,2.66,0,0,1,1.143-2.338,5.821,5.821,0,0,1,3.322-.791h.914v-.5q0-1.316-1.134-1.316a.927.927,0,0,0-1.055,1.042H118.6a2.655,2.655,0,0,1,1.173-2.239,4.931,4.931,0,0,1,2.993-.86,4.323,4.323,0,0,1,2.874.888,3.086,3.086,0,0,1,1.081,2.435v4.21a4.311,4.311,0,0,0,.4,2V42Zm-1.854-1.934a1.652,1.652,0,0,0,.918-.237,1.487,1.487,0,0,0,.523-.536V37.772h-.861q-1.547,0-1.547,1.389a.848.848,0,0,0,.272.655A.986.986,0,0,0,122.309,40.066Zm5.678-2.892a5.809,5.809,0,0,1,.976-3.56,3.211,3.211,0,0,1,2.725-1.3,2.731,2.731,0,0,1,2.145,1V28.5H136.8V42h-2.663l-.149-1.02a2.8,2.8,0,0,1-2.32,1.2,3.205,3.205,0,0,1-2.689-1.3A5.993,5.993,0,0,1,127.986,37.175Zm2.962.185q0,2.531,1.477,2.531a1.458,1.458,0,0,0,1.406-.826V35.443a1.419,1.419,0,0,0-1.389-.844q-1.371,0-1.485,2.215Z" transform="translate(475 1891)" fill="#12263f"/>
    <g id="Grupo_142194" data-name="Grupo 142194" transform="translate(285 1828)">
      <g id="Grupo_142190" data-name="Grupo 142190" clip-path="url(#clip-path)">
        <path id="Trazado_146464" data-name="Trazado 146464" d="M236.108.063h24.953a1.142,1.142,0,0,1,.2.581A21.3,21.3,0,0,1,261.4,3.42q-.008,14.912,0,29.824c0,3.967,1.588,5.544,5.572,5.548q14.83.014,29.659,0a20.8,20.8,0,0,1,3.264.192c.623.363.386.974.386,1.483q.016,57.022.025,114.045c0,6-3.1,9.923-8.044,12.72-1.412.8-3.087.55-4.61.938H236.108a2.65,2.65,0,0,1-.67-2.114q-.011-17.678,0-35.357a3.058,3.058,0,0,1,.449-1.877c.822-.861,1.9-.71,2.927-.712q15.918-.018,31.837-.009a12.261,12.261,0,0,0,2.129-.078,4.218,4.218,0,0,0-.063-8.37,13.561,13.561,0,0,0-2.13-.067q-15.918-.006-31.837-.008c-.973,0-1.991.122-2.8-.638a3.052,3.052,0,0,1-.512-2.011q-.019-7.824,0-15.647a3.252,3.252,0,0,1,.463-2.028c.829-.85,1.909-.695,2.933-.7q15.914-.018,31.829-.009a12.211,12.211,0,0,0,2.129-.079,4.218,4.218,0,0,0-.083-8.37,13.61,13.61,0,0,0-2.13-.066q-15.915-.005-31.83-.007c-.973,0-1.99.122-2.8-.639a3.053,3.053,0,0,1-.512-2.011q-.019-7.824,0-15.647a3.246,3.246,0,0,1,.464-2.027c.829-.85,1.91-.695,2.934-.7Q254.6,68.992,270.351,69c.656,0,1.315.029,1.968-.028a4.231,4.231,0,0,0,.05-8.457c-.654-.061-1.312-.031-1.968-.031q-15.756,0-31.512-.007c-1.023,0-2.1.16-2.954-.662a3.348,3.348,0,0,1-.5-2.194q-.014-27.639,0-55.277a2.817,2.817,0,0,1,.671-2.283" transform="translate(-132.33 -0.035)" fill="#bcdff0"/>
        <path id="Trazado_146465" data-name="Trazado 146465" d="M153.916,69.706V89.333c-.067.085-.134.169-.2.255a3.353,3.353,0,0,1-2.2.448q-12.947.016-25.894.011c-.715,0-1.411-.135-2.115-.183a3.457,3.457,0,0,1-2.365-.958,43.594,43.594,0,0,0-22.6-8.7c-1.3-.126-2.614-.044-3.921-.141-1.715-.1-3.464.783-5.15-.176a3.243,3.243,0,0,1-.229-1.763c.005-20.991-.031-41.982.018-62.972A15.33,15.33,0,0,1,96.905,1.493c1.808-1.14,3.86-1.012,5.809-1.431h51.219q-.009,29.861-.017,59.721c-.062.081-.124.162-.186.245a4.254,4.254,0,0,1-2.7.449q-16.152.018-32.3-.005a4.958,4.958,0,0,0-4.21,1.778,4.2,4.2,0,0,0,3.063,6.712,16.177,16.177,0,0,0,1.966.042q15.742,0,31.485.007a4.269,4.269,0,0,1,2.7.447c.062.081.123.165.184.247" transform="translate(-50.155 -0.035)" fill="#e3f1f8"/>
        <path id="Trazado_146466" data-name="Trazado 146466" d="M52.559.028c-1.918.716-3.967,1.006-5.75,2.173a14.722,14.722,0,0,0-7.048,13.055q-.027,31.142-.011,62.284a3.724,3.724,0,0,1-.333,2.23c-.467.757-1.281.771-2.017.908C23.32,83.293,12.713,90.9,6.02,103.47c-6.34,11.906-7,24.457-1.732,36.919,6.229,14.742,17.5,23.525,33.23,26.589.81.158,1.952-.1,2.236,1.157-12.859,0-25.719-.014-38.578.028-.98,0-1.177-.2-1.176-1.177q.045-82.9,0-165.81C0,.2.2,0,1.175,0Q26.868.057,52.559.028" transform="translate(0 -0.001)" fill="#fefefe"/>
        <path id="Trazado_146467" data-name="Trazado 146467" d="M101.174,181.611a43.069,43.069,0,0,1,27.039,9.147c.345.26.718.483,1.079.723,1.474.356,2.381,1.523,3.369,2.5a43.191,43.191,0,0,1,6.03,7.295,41.914,41.914,0,0,1,7.075,19.868,26.3,26.3,0,0,1,.015,9.422,43.335,43.335,0,0,1-11.818,25.889,44.438,44.438,0,0,1-21.789,13c-1.386.36-2.812.324-4.205.573-.736.113-1.5-.153-2.221.185h-1.642a1.813,1.813,0,0,0-1.641,0h-1.313a2.525,2.525,0,0,1-.666-1.954q-.02-12.945,0-25.889c0-.5.145-.971.175-1.456.008-.181.022-.367.038-.549a6.663,6.663,0,0,1,1.914-2.407q8.225-8.257,16.476-16.488c.425-.426.865-.838,1.259-1.293a4.42,4.42,0,1,0-6.233-6.269c-1.468,1.312-2.8,2.766-4.2,4.153-2.408,2.39-4.766,4.83-7.221,7.171-.581.553-1.326,1.457-2.035.042a6.432,6.432,0,0,1-.171-2.115q-.011-19.4,0-38.795c0-.964-.178-2,.69-2.752" transform="translate(-56.471 -102.077)" fill="#0096fe"/>
        <path id="Trazado_146468" data-name="Trazado 146468" d="M45.087,240.207q.022,14.968.044,29.936h-.656a2.573,2.573,0,0,0-1.97,0h-2.3c-1.7-.766-3.568-.811-5.35-1.219-17.992-4.118-31.932-20.193-33.818-38.455A44.558,44.558,0,0,1,39.87,181.777a36.417,36.417,0,0,1,5.284-.236q.014,22.15.027,44.3a.666.666,0,0,1,.067.462,48.834,48.834,0,0,1-5.889,6.128c-.91.892-1.793.488-2.587-.275-1.655-1.591-3.207-3.289-4.9-4.836-1.878-1.714-3.667-2-5.54-1a4.2,4.2,0,0,0-1.891,5.475,7.439,7.439,0,0,0,1.612,2.253c2.706,2.705,5.4,5.427,8.122,8.113,2.92,2.877,5.2,2.823,8.208-.046.793-.757,1.341-1.932,2.7-1.9" transform="translate(-0.452 -102.007)" fill="#49bafe"/>
        <path id="Trazado_146469" data-name="Trazado 146469" d="M117.574,332.129a52.252,52.252,0,0,0,11.218-3.434q22.586-10.818,26.086-35.623a2.061,2.061,0,0,1,1.627-.621c3.921-.026,7.843-.034,11.764,0a2.244,2.244,0,0,1,1.381.427c.067.085.132.171.2.257l.017,39.364H118.973c-.4-.389-1.02.079-1.4-.374" transform="translate(-66.085 -164.367)" fill="#e3f1f8"/>
        <path id="Trazado_146470" data-name="Trazado 146470" d="M114.734,383.081c.471.105,1.016-.066,1.4.374h-3.612c.651-.636,1.476-.242,2.213-.374" transform="translate(-63.245 -215.319)" fill="#f7fbfd"/>
        <path id="Trazado_146471" data-name="Trazado 146471" d="M96.027,383.471a1.517,1.517,0,0,1,1.97,0Z" transform="translate(-53.974 -215.335)" fill="#5cc1fe"/>
        <path id="Trazado_146472" data-name="Trazado 146472" d="M105.024,383.491a1.143,1.143,0,0,1,1.642,0Z" transform="translate(-59.031 -215.355)" fill="#15a1fe"/>
        <path id="Trazado_146473" data-name="Trazado 146473" d="M293.526.73l38.753,38.762c-.484.525-1.124.338-1.7.339q-16,.016-31.994,0c-3.372,0-5.4-2.034-5.4-5.408q-.011-16,0-31.995c0-.579-.184-1.218.341-1.7" transform="translate(-164.774 -0.41)" fill="#77bde1"/>
        <path id="Trazado_146474" data-name="Trazado 146474" d="M236.029,136.434q18.026.018,36.053.045a4.881,4.881,0,0,1,4.336,7.4,4.818,4.818,0,0,1-4.5,2.447q-17.207-.024-34.415-.006c-.491,0-.982.023-1.473.035l.039-.078c-1-1.528-1-8.239,0-9.767l-.039-.078" transform="translate(-132.268 -76.686)" fill="#3c3c55"/>
        <path id="Trazado_146475" data-name="Trazado 146475" d="M236.067,203.912q18.026.018,36.053.045a4.881,4.881,0,0,1,4.336,7.4,4.818,4.818,0,0,1-4.5,2.446q-17.208-.024-34.415-.006c-.491,0-.982.023-1.474.035q-.118-.108-.238-.215c-.681-1.156-.357-2.43-.4-3.654-.049-1.4-.025-2.811,0-4.218a2.208,2.208,0,0,1,.677-1.758Z" transform="translate(-132.306 -114.614)" fill="#3c3c55"/>
        <path id="Trazado_146476" data-name="Trazado 146476" d="M236.017,271.39q18.026.018,36.053.045a4.881,4.881,0,0,1,4.337,7.4,4.817,4.817,0,0,1-4.5,2.446q-17.208-.024-34.415-.006c-.491,0-.982.023-1.474.035l.039-.078c-.194-.19-.44-.383-.464-.65-.272-3-.566-6,.183-8.982.079-.072.16-.142.241-.213" transform="translate(-132.256 -152.541)" fill="#3c3c55"/>
        <path id="Trazado_146477" data-name="Trazado 146477" d="M193.667,245.347a47.15,47.15,0,0,0-7.082-19.686,1.925,1.925,0,0,1,1.748-.7c6.177-.033,12.354-.023,18.531-.009a2.53,2.53,0,0,1,1.811.624l-.039.078v19.627l.039.078a2.845,2.845,0,0,1-2.128.628q-5.384,0-10.767,0a2.559,2.559,0,0,1-2.112-.636" transform="translate(-104.875 -126.432)" fill="#e3f1f8"/>
        <path id="Trazado_146478" data-name="Trazado 146478" d="M184.331,136.572v9.767c-12.023.013-24.046.044-36.068.025a4.91,4.91,0,1,1,0-9.819c12.023-.017,24.046.013,36.068.026" transform="translate(-80.53 -76.746)" fill="#5f5f81"/>
        <path id="Trazado_146479" data-name="Trazado 146479" d="M197.264,213.857l-22.089.085a61.568,61.568,0,0,0-8.891-9.826l30.98-.027v9.767" transform="translate(-93.464 -114.714)" fill="#5f5f81"/>
        <path id="Trazado_146480" data-name="Trazado 146480" d="M74.163,296.266c-1.062,1.019-2.109,2.054-3.187,3.056a4.955,4.955,0,0,1-7.316-.007q-4.808-4.691-9.5-9.5a4.937,4.937,0,1,1,6.931-7.018c1.7,1.618,3.409,3.242,4.965,4.995,1.01,1.138,1.615.964,2.563-.051,1.786-1.913,3.712-3.7,5.58-5.533a2.356,2.356,0,0,1,.673,2.094c.02,3.057-.006,6.114.016,9.171a4.787,4.787,0,0,1-.652,2.5c-.022.1-.046.2-.072.3" transform="translate(-29.527 -158.067)" fill="#5f5f82"/>
        <path id="Trazado_146481" data-name="Trazado 146481" d="M102.04,279.079q-.018-6.882-.037-13.762.028-.153.06-.306c4.113-4.074,8.206-8.169,12.344-12.216,2.89-2.826,7.271-1.821,8.414,1.9a4.522,4.522,0,0,1-1.046,4.727c-6.546,6.583-13.15,13.108-19.735,19.654" transform="translate(-57.333 -141.177)" fill="#3c3c55"/>
        <path id="Trazado_146482" data-name="Trazado 146482" d="M202.756,271.542l15.008.011v9.767l-15.008.011a50.228,50.228,0,0,0,0-9.79" transform="translate(-113.964 -152.627)" fill="#5f5f81"/>
      </g>
    </g>
  </g>
</svg>
