<svg xmlns="http://www.w3.org/2000/svg" xmlns:xlink="http://www.w3.org/1999/xlink" width="395" height="167.838" viewBox="0 0 395 167.838">
  <defs>
    <filter id="Rectángulo_37495" x="116" y="19" width="279" height="136" filterUnits="userSpaceOnUse">
      <feOffset dy="3" input="SourceAlpha"/>
      <feGaussianBlur stdDeviation="3" result="blur"/>
      <feFlood flood-opacity="0.161"/>
      <feComposite operator="in" in2="blur"/>
      <feComposite in="SourceGraphic"/>
    </filter>
    <clipPath id="clip-path">
      <rect id="Rectángulo_37497" data-name="Rectángulo 37497" width="168" height="167.838" fill="none"/>
    </clipPath>
  </defs>
  <g id="Grupo_142197" data-name="Grupo 142197" transform="translate(-810 -1828)">
    <g transform="matrix(1, 0, 0, 1, 810, 1828)" filter="url(#Rectángulo_37495)">
      <rect id="Rectángulo_37495-2" data-name="Rectángulo 37495" width="261" height="118" rx="28" transform="translate(125 25)" fill="#f9fbfc"/>
    </g>
    <path id="Trazado_146642" data-name="Trazado 146642" d="M11.8,10.865a7.546,7.546,0,0,1-.694,3.313A5.132,5.132,0,0,1,9.136,16.4a5.494,5.494,0,0,1-2.914.778,5.572,5.572,0,0,1-2.9-.751,5.123,5.123,0,0,1-1.973-2.149,7.329,7.329,0,0,1-.743-3.208v-.721A7.58,7.58,0,0,1,1.3,7.029,5.119,5.119,0,0,1,3.274,4.81a5.533,5.533,0,0,1,2.931-.782,5.479,5.479,0,0,1,2.9.773A5.211,5.211,0,0,1,11.087,7a7.362,7.362,0,0,1,.716,3.274Zm-3.138-.536a5.381,5.381,0,0,0-.637-2.9,2.044,2.044,0,0,0-1.824-.989q-2.32,0-2.452,3.48l-.009.94a5.535,5.535,0,0,0,.624,2.892,2.041,2.041,0,0,0,1.854,1.011,2.016,2.016,0,0,0,1.8-.993,5.383,5.383,0,0,0,.642-2.856Zm13.676,6.847A4.889,4.889,0,0,1,18.8,15.871a4.507,4.507,0,0,1-1.354-3.4v-.246a5.84,5.84,0,0,1,.541-2.575,3.955,3.955,0,0,1,1.578-1.727,4.763,4.763,0,0,1,2.461-.611,4.117,4.117,0,0,1,3.164,1.244,4.887,4.887,0,0,1,1.16,3.467v1.151H20.461a2.135,2.135,0,0,0,.694,1.257,2.066,2.066,0,0,0,1.389.457,2.662,2.662,0,0,0,2.2-.984l1.354,1.6a3.784,3.784,0,0,1-1.569,1.217A5.3,5.3,0,0,1,22.342,17.176ZM22.008,9.6q-1.3,0-1.547,1.723h2.988v-.229a1.467,1.467,0,0,0-.36-1.1A1.434,1.434,0,0,0,22.008,9.6ZM30.261,7.49l.1,1.116a3.225,3.225,0,0,1,2.716-1.292,2.713,2.713,0,0,1,2.219.888,4.226,4.226,0,0,1,.76,2.672V17H33.082V11a1.6,1.6,0,0,0-.29-1.059A1.342,1.342,0,0,0,31.737,9.6a1.413,1.413,0,0,0-1.292.686V17H27.483V7.49Zm16.893,6.838a.684.684,0,0,0-.4-.606,6.016,6.016,0,0,0-1.5-.475,6.853,6.853,0,0,1-1.828-.646,3.062,3.062,0,0,1-1.1-.971,2.319,2.319,0,0,1-.378-1.31,2.628,2.628,0,0,1,1.081-2.158,4.453,4.453,0,0,1,2.83-.848,4.934,4.934,0,0,1,3.023.853,2.666,2.666,0,0,1,1.143,2.241H47.057q0-1.143-1.2-1.143a1.194,1.194,0,0,0-.782.259.8.8,0,0,0-.316.646.737.737,0,0,0,.387.642,3.654,3.654,0,0,0,1.235.4,10.671,10.671,0,0,1,1.49.378A2.706,2.706,0,0,1,50.01,14.24a2.491,2.491,0,0,1-1.156,2.118,5.068,5.068,0,0,1-2.993.817,5.172,5.172,0,0,1-2.18-.439,3.645,3.645,0,0,1-1.494-1.2,2.707,2.707,0,0,1-.536-1.591H44.42a1.145,1.145,0,0,0,.439.962,1.808,1.808,0,0,0,1.081.3,1.422,1.422,0,0,0,.91-.246A.787.787,0,0,0,47.153,14.328Zm9.905,1.644a3.054,3.054,0,0,1-2.54,1.2,3,3,0,0,1-2.369-.91,3.826,3.826,0,0,1-.8-2.615V7.49h2.962v6.179a1.065,1.065,0,0,0,1.187,1.222,1.548,1.548,0,0,0,1.45-.729V7.49h2.979V17H57.146Zm8.6-3.8a5.809,5.809,0,0,1,.976-3.56,3.211,3.211,0,0,1,2.725-1.3,2.731,2.731,0,0,1,2.145,1V3.5H74.47V17H71.807l-.149-1.02a2.8,2.8,0,0,1-2.32,1.2,3.205,3.205,0,0,1-2.689-1.3A5.993,5.993,0,0,1,65.654,12.175Zm2.962.185q0,2.531,1.477,2.531a1.458,1.458,0,0,0,1.406-.826V10.443A1.419,1.419,0,0,0,70.11,9.6q-1.371,0-1.485,2.215Zm12.138,4.816a4.889,4.889,0,0,1-3.542-1.305,4.507,4.507,0,0,1-1.354-3.4v-.246A5.84,5.84,0,0,1,76.4,9.652a3.955,3.955,0,0,1,1.578-1.727,4.763,4.763,0,0,1,2.461-.611A4.117,4.117,0,0,1,83.6,8.558a4.887,4.887,0,0,1,1.16,3.467v1.151H78.873a2.135,2.135,0,0,0,.694,1.257,2.066,2.066,0,0,0,1.389.457,2.662,2.662,0,0,0,2.2-.984l1.354,1.6a3.784,3.784,0,0,1-1.569,1.217A5.3,5.3,0,0,1,80.754,17.176ZM80.42,9.6q-1.3,0-1.547,1.723h2.988v-.229a1.467,1.467,0,0,0-.36-1.1A1.434,1.434,0,0,0,80.42,9.6ZM86.607,17V9.547h-1.38V7.49h1.38V6.734a3.286,3.286,0,0,1,.958-2.522,3.785,3.785,0,0,1,2.689-.9,5.89,5.89,0,0,1,1.389.185l.009,2.18a2.706,2.706,0,0,0-.729-.079q-1.345,0-1.345,1.16V7.49h1.854V9.547H89.578V17Zm10.257.176a4.889,4.889,0,0,1-3.542-1.305,4.507,4.507,0,0,1-1.354-3.4v-.246a5.84,5.84,0,0,1,.541-2.575,3.955,3.955,0,0,1,1.578-1.727,4.763,4.763,0,0,1,2.461-.611,4.117,4.117,0,0,1,3.164,1.244,4.887,4.887,0,0,1,1.16,3.467v1.151H94.983a2.135,2.135,0,0,0,.694,1.257,2.066,2.066,0,0,0,1.389.457,2.662,2.662,0,0,0,2.2-.984l1.354,1.6a3.784,3.784,0,0,1-1.569,1.217A5.3,5.3,0,0,1,96.864,17.176ZM96.53,9.6q-1.3,0-1.547,1.723h2.988v-.229a1.467,1.467,0,0,0-.36-1.1A1.434,1.434,0,0,0,96.53,9.6Zm9.554,5.291a1.317,1.317,0,0,0,.967-.338,1.241,1.241,0,0,0,.334-.945h2.777a3.288,3.288,0,0,1-1.121,2.566,4.168,4.168,0,0,1-2.887,1,4.22,4.22,0,0,1-3.27-1.3,5.125,5.125,0,0,1-1.2-3.6v-.123a5.792,5.792,0,0,1,.532-2.544,3.872,3.872,0,0,1,1.534-1.7,4.573,4.573,0,0,1,2.373-.593,4.116,4.116,0,0,1,2.944,1.028,3.647,3.647,0,0,1,1.09,2.786h-2.777a1.626,1.626,0,0,0-.36-1.134,1.244,1.244,0,0,0-.967-.4q-1.151,0-1.345,1.468a10.357,10.357,0,0,0-.062,1.283,4.068,4.068,0,0,0,.343,1.986A1.187,1.187,0,0,0,106.084,14.891Zm8.78-9.765V7.49h1.564V9.547h-1.564V13.9a1.111,1.111,0,0,0,.193.747,1.037,1.037,0,0,0,.765.211,4.345,4.345,0,0,0,.738-.053v2.118a5.466,5.466,0,0,1-1.67.255,3.1,3.1,0,0,1-2.259-.721,2.954,2.954,0,0,1-.729-2.188V9.547h-1.213V7.49H111.9V5.126Zm2.092,7.031a5.613,5.613,0,0,1,.554-2.536A3.96,3.96,0,0,1,119.1,7.912a4.791,4.791,0,0,1,2.435-.6A4.373,4.373,0,0,1,124.9,8.637a5.076,5.076,0,0,1,1.23,3.6v.105a4.925,4.925,0,0,1-1.235,3.529,4.384,4.384,0,0,1-3.344,1.305,4.434,4.434,0,0,1-3.261-1.217,4.761,4.761,0,0,1-1.327-3.3Zm2.962.185a3.538,3.538,0,0,0,.413,1.934,1.376,1.376,0,0,0,1.222.615q1.582,0,1.617-2.435v-.3q0-2.558-1.635-2.558-1.485,0-1.608,2.206ZM9.659,37.315a5.735,5.735,0,0,1-1,3.538,3.2,3.2,0,0,1-2.694,1.323,2.742,2.742,0,0,1-2.153-.958v4.438H.853V32.49H3.621l.088.879A2.742,2.742,0,0,1,5.95,32.314a3.224,3.224,0,0,1,2.733,1.3,5.805,5.805,0,0,1,.976,3.564ZM6.7,37.131Q6.7,34.6,5.221,34.6a1.394,1.394,0,0,0-1.406.756V39.1a1.439,1.439,0,0,0,1.424.791q1.415,0,1.459-2.443ZM16.321,42a3.344,3.344,0,0,1-.281-.853,2.754,2.754,0,0,1-2.285,1.028,3.374,3.374,0,0,1-2.285-.813,2.588,2.588,0,0,1-.94-2.043,2.66,2.66,0,0,1,1.143-2.338,5.821,5.821,0,0,1,3.322-.791h.914v-.5q0-1.316-1.134-1.316a.927.927,0,0,0-1.055,1.042H10.758a2.655,2.655,0,0,1,1.173-2.239,4.931,4.931,0,0,1,2.993-.86A4.323,4.323,0,0,1,17.8,33.2a3.086,3.086,0,0,1,1.081,2.435v4.21a4.311,4.311,0,0,0,.4,2V42Zm-1.854-1.934a1.652,1.652,0,0,0,.918-.237,1.487,1.487,0,0,0,.523-.536V37.772h-.861q-1.547,0-1.547,1.389a.848.848,0,0,0,.272.655A.986.986,0,0,0,14.467,40.066Zm11.03-.738a.684.684,0,0,0-.4-.606,6.016,6.016,0,0,0-1.5-.475,6.853,6.853,0,0,1-1.828-.646,3.062,3.062,0,0,1-1.1-.971,2.319,2.319,0,0,1-.378-1.31,2.628,2.628,0,0,1,1.081-2.158,4.453,4.453,0,0,1,2.83-.848,4.934,4.934,0,0,1,3.023.853,2.666,2.666,0,0,1,1.143,2.241H25.4q0-1.143-1.2-1.143a1.194,1.194,0,0,0-.782.259.8.8,0,0,0-.316.646.737.737,0,0,0,.387.642,3.654,3.654,0,0,0,1.235.4,10.671,10.671,0,0,1,1.49.378,2.706,2.706,0,0,1,2.145,2.646A2.491,2.491,0,0,1,27.2,41.358a5.068,5.068,0,0,1-2.993.817,5.172,5.172,0,0,1-2.18-.439,3.645,3.645,0,0,1-1.494-1.2A2.707,2.707,0,0,1,20,38.95h2.769a1.145,1.145,0,0,0,.439.962,1.808,1.808,0,0,0,1.081.3,1.422,1.422,0,0,0,.91-.246A.787.787,0,0,0,25.5,39.328ZM35.095,42a3.344,3.344,0,0,1-.281-.853,2.754,2.754,0,0,1-2.285,1.028,3.374,3.374,0,0,1-2.285-.813,2.588,2.588,0,0,1-.94-2.043,2.66,2.66,0,0,1,1.143-2.338,5.821,5.821,0,0,1,3.322-.791h.914v-.5q0-1.316-1.134-1.316a.927.927,0,0,0-1.055,1.042H29.531A2.655,2.655,0,0,1,30.7,33.175a4.931,4.931,0,0,1,2.993-.86,4.323,4.323,0,0,1,2.874.888,3.086,3.086,0,0,1,1.081,2.435v4.21a4.311,4.311,0,0,0,.4,2V42ZM33.24,40.066a1.652,1.652,0,0,0,.918-.237,1.487,1.487,0,0,0,.523-.536V37.772H33.82q-1.547,0-1.547,1.389a.848.848,0,0,0,.272.655A.986.986,0,0,0,33.24,40.066Zm11.8-4.9-.976-.07a1.752,1.752,0,0,0-1.793.879V42H39.313V32.49h2.777l.1,1.222a2.294,2.294,0,0,1,2.083-1.4,2.888,2.888,0,0,1,.826.105ZM49.342,42H46.362V32.49h2.979ZM48.234,28.676h3.129l-2.443,2.76-2.417,0ZM56.6,42a3.344,3.344,0,0,1-.281-.853,2.754,2.754,0,0,1-2.285,1.028,3.374,3.374,0,0,1-2.285-.813,2.588,2.588,0,0,1-.94-2.043,2.66,2.66,0,0,1,1.143-2.338,5.821,5.821,0,0,1,3.322-.791h.914v-.5q0-1.316-1.134-1.316A.927.927,0,0,0,54,35.413H51.038a2.655,2.655,0,0,1,1.173-2.239,4.931,4.931,0,0,1,2.993-.86,4.323,4.323,0,0,1,2.874.888,3.086,3.086,0,0,1,1.081,2.435v4.21a4.311,4.311,0,0,0,.4,2V42Zm-1.854-1.934a1.652,1.652,0,0,0,.918-.237,1.487,1.487,0,0,0,.523-.536V37.772h-.861q-1.547,0-1.547,1.389a.848.848,0,0,0,.272.655A.986.986,0,0,0,54.747,40.066ZM70.638,42a3.344,3.344,0,0,1-.281-.853,2.754,2.754,0,0,1-2.285,1.028,3.374,3.374,0,0,1-2.285-.813,2.588,2.588,0,0,1-.94-2.043,2.66,2.66,0,0,1,1.143-2.338,5.821,5.821,0,0,1,3.322-.791h.914v-.5q0-1.316-1.134-1.316a.927.927,0,0,0-1.055,1.042H65.074a2.655,2.655,0,0,1,1.173-2.239,4.931,4.931,0,0,1,2.993-.86,4.323,4.323,0,0,1,2.874.888A3.086,3.086,0,0,1,73.2,35.637v4.21a4.311,4.311,0,0,0,.4,2V42Zm-1.854-1.934a1.652,1.652,0,0,0,.918-.237,1.487,1.487,0,0,0,.523-.536V37.772h-.861q-1.547,0-1.547,1.389a.848.848,0,0,0,.272.655A.986.986,0,0,0,68.783,40.066ZM84.3,39.328a.684.684,0,0,0-.4-.606,6.016,6.016,0,0,0-1.5-.475,6.853,6.853,0,0,1-1.828-.646,3.062,3.062,0,0,1-1.1-.971,2.319,2.319,0,0,1-.378-1.31,2.628,2.628,0,0,1,1.081-2.158A4.453,4.453,0,0,1,83,32.314a4.934,4.934,0,0,1,3.023.853,2.666,2.666,0,0,1,1.143,2.241H84.2q0-1.143-1.2-1.143a1.194,1.194,0,0,0-.782.259.8.8,0,0,0-.316.646.737.737,0,0,0,.387.642,3.654,3.654,0,0,0,1.235.4,10.671,10.671,0,0,1,1.49.378,2.706,2.706,0,0,1,2.145,2.646A2.491,2.491,0,0,1,86,41.358,5.068,5.068,0,0,1,83,42.176a5.172,5.172,0,0,1-2.18-.439,3.645,3.645,0,0,1-1.494-1.2,2.707,2.707,0,0,1-.536-1.591h2.769a1.145,1.145,0,0,0,.439.962,1.808,1.808,0,0,0,1.081.3,1.422,1.422,0,0,0,.91-.246A.787.787,0,0,0,84.3,39.328Zm8.842,2.848A4.889,4.889,0,0,1,89.6,40.871a4.507,4.507,0,0,1-1.354-3.4v-.246a5.84,5.84,0,0,1,.541-2.575,3.955,3.955,0,0,1,1.578-1.727,4.763,4.763,0,0,1,2.461-.611,4.117,4.117,0,0,1,3.164,1.244,4.887,4.887,0,0,1,1.16,3.467v1.151H91.257a2.135,2.135,0,0,0,.694,1.257,2.066,2.066,0,0,0,1.389.457,2.662,2.662,0,0,0,2.2-.984l1.354,1.6a3.784,3.784,0,0,1-1.569,1.217A5.3,5.3,0,0,1,93.138,42.176ZM92.8,34.6q-1.3,0-1.547,1.723h2.988v-.229a1.467,1.467,0,0,0-.36-1.1A1.434,1.434,0,0,0,92.8,34.6Zm11.285.571-.976-.07a1.752,1.752,0,0,0-1.793.879V42H98.358V32.49h2.777l.1,1.222a2.294,2.294,0,0,1,2.083-1.4,2.888,2.888,0,0,1,.826.105Zm11.215,5.8a3.054,3.054,0,0,1-2.54,1.2,3,3,0,0,1-2.369-.91,3.826,3.826,0,0,1-.8-2.615V32.49h2.962v6.179a1.065,1.065,0,0,0,1.187,1.222,1.548,1.548,0,0,0,1.45-.729V32.49h2.979V42h-2.777Zm7.207-8.481.1,1.116a3.225,3.225,0,0,1,2.716-1.292,2.713,2.713,0,0,1,2.219.888,4.226,4.226,0,0,1,.76,2.672V42h-2.971V36a1.6,1.6,0,0,0-.29-1.059,1.342,1.342,0,0,0-1.055-.338,1.413,1.413,0,0,0-1.292.686V42h-2.962V32.49ZM135.3,42a3.344,3.344,0,0,1-.281-.853,2.754,2.754,0,0,1-2.285,1.028,3.374,3.374,0,0,1-2.285-.813,2.588,2.588,0,0,1-.94-2.043,2.66,2.66,0,0,1,1.143-2.338,5.821,5.821,0,0,1,3.322-.791h.914v-.5q0-1.316-1.134-1.316a.927.927,0,0,0-1.055,1.042h-2.962a2.655,2.655,0,0,1,1.173-2.239,4.931,4.931,0,0,1,2.993-.86,4.323,4.323,0,0,1,2.874.888,3.086,3.086,0,0,1,1.081,2.435v4.21a4.311,4.311,0,0,0,.4,2V42Zm-1.854-1.934a1.652,1.652,0,0,0,.918-.237,1.487,1.487,0,0,0,.523-.536V37.772h-.861q-1.547,0-1.547,1.389a.848.848,0,0,0,.272.655A.986.986,0,0,0,133.444,40.066ZM3.551,57.49l.1,1.116a3.225,3.225,0,0,1,2.716-1.292,2.713,2.713,0,0,1,2.219.888,4.226,4.226,0,0,1,.76,2.672V67H6.372V61a1.6,1.6,0,0,0-.29-1.059A1.342,1.342,0,0,0,5.027,59.6a1.413,1.413,0,0,0-1.292.686V67H.773V57.49Zm7.058,4.667a5.613,5.613,0,0,1,.554-2.536,3.96,3.96,0,0,1,1.591-1.709,4.791,4.791,0,0,1,2.435-.6,4.373,4.373,0,0,1,3.366,1.323,5.076,5.076,0,0,1,1.23,3.6v.105a4.925,4.925,0,0,1-1.235,3.529,4.384,4.384,0,0,1-3.344,1.305,4.434,4.434,0,0,1-3.261-1.217,4.761,4.761,0,0,1-1.327-3.3Zm2.962.185a3.538,3.538,0,0,0,.413,1.934,1.376,1.376,0,0,0,1.222.615q1.582,0,1.617-2.435v-.3q0-2.558-1.635-2.558-1.485,0-1.608,2.206Zm16.022,2.549a1.317,1.317,0,0,0,.967-.338,1.241,1.241,0,0,0,.334-.945h2.777a3.288,3.288,0,0,1-1.121,2.566,4.168,4.168,0,0,1-2.887,1,4.22,4.22,0,0,1-3.27-1.3,5.125,5.125,0,0,1-1.2-3.6v-.123A5.792,5.792,0,0,1,25.73,59.6a3.872,3.872,0,0,1,1.534-1.7,4.573,4.573,0,0,1,2.373-.593,4.116,4.116,0,0,1,2.944,1.028,3.647,3.647,0,0,1,1.09,2.786H30.894A1.626,1.626,0,0,0,30.533,60a1.244,1.244,0,0,0-.967-.4q-1.151,0-1.345,1.468a10.357,10.357,0,0,0-.062,1.283,4.068,4.068,0,0,0,.343,1.986A1.187,1.187,0,0,0,29.593,64.891Zm4.957-2.733a5.613,5.613,0,0,1,.554-2.536,3.96,3.96,0,0,1,1.591-1.709,4.791,4.791,0,0,1,2.435-.6A4.373,4.373,0,0,1,42.5,58.637a5.076,5.076,0,0,1,1.23,3.6v.105a4.925,4.925,0,0,1-1.235,3.529,4.384,4.384,0,0,1-3.344,1.305,4.434,4.434,0,0,1-3.261-1.217,4.761,4.761,0,0,1-1.327-3.3Zm2.962.185a3.538,3.538,0,0,0,.413,1.934,1.376,1.376,0,0,0,1.222.615q1.582,0,1.617-2.435v-.3q0-2.558-1.635-2.558-1.485,0-1.608,2.206ZM47.751,57.49l.1,1.116a3.225,3.225,0,0,1,2.716-1.292,2.713,2.713,0,0,1,2.219.888,4.226,4.226,0,0,1,.76,2.672V67H50.572V61a1.6,1.6,0,0,0-.29-1.059,1.342,1.342,0,0,0-1.055-.338,1.413,1.413,0,0,0-1.292.686V67H44.974V57.49ZM55.837,67V59.547h-1.38V57.49h1.38v-.756a3.286,3.286,0,0,1,.958-2.522,3.785,3.785,0,0,1,2.689-.9,5.889,5.889,0,0,1,1.389.185l.009,2.18a2.706,2.706,0,0,0-.729-.079q-1.345,0-1.345,1.16v.729h1.854v2.057H58.808V67Zm5.493-4.843a5.613,5.613,0,0,1,.554-2.536,3.96,3.96,0,0,1,1.591-1.709,4.791,4.791,0,0,1,2.435-.6,4.373,4.373,0,0,1,3.366,1.323,5.076,5.076,0,0,1,1.23,3.6v.105a4.925,4.925,0,0,1-1.235,3.529,4.384,4.384,0,0,1-3.344,1.305,4.434,4.434,0,0,1-3.261-1.217,4.761,4.761,0,0,1-1.327-3.3Zm2.962.185a3.538,3.538,0,0,0,.413,1.934,1.376,1.376,0,0,0,1.222.615q1.582,0,1.617-2.435v-.3q0-2.558-1.635-2.558-1.485,0-1.608,2.206Zm13.271-2.171-.976-.07a1.752,1.752,0,0,0-1.793.879V67H71.833V57.49H74.61l.1,1.222a2.294,2.294,0,0,1,2.083-1.4,2.888,2.888,0,0,1,.826.105Zm3.867-2.681.1,1.116a3.27,3.27,0,0,1,2.716-1.292,2.407,2.407,0,0,1,2.435,1.433,3.165,3.165,0,0,1,2.795-1.433q2.892,0,2.971,3.5V67H89.473V61a1.813,1.813,0,0,0-.246-1.063,1.048,1.048,0,0,0-.9-.334,1.4,1.4,0,0,0-1.31.782l.009.123V67H84.059V61.015a1.906,1.906,0,0,0-.237-1.081,1.045,1.045,0,0,0-.905-.334,1.42,1.42,0,0,0-1.3.782V67H78.653V57.49ZM97.26,67H94.289V57.49H97.26ZM94.113,55.029a1.334,1.334,0,0,1,.457-1.043,1.934,1.934,0,0,1,2.373,0,1.42,1.42,0,0,1,0,2.087,1.934,1.934,0,0,1-2.373,0A1.334,1.334,0,0,1,94.113,55.029Zm4.6,7.146a5.809,5.809,0,0,1,.976-3.56,3.211,3.211,0,0,1,2.725-1.3,2.731,2.731,0,0,1,2.145,1V53.5h2.971V67h-2.663l-.149-1.02a2.8,2.8,0,0,1-2.32,1.2,3.205,3.205,0,0,1-2.689-1.3A5.993,5.993,0,0,1,98.71,62.175Zm2.962.185q0,2.531,1.477,2.531a1.458,1.458,0,0,0,1.406-.826V60.443a1.419,1.419,0,0,0-1.389-.844q-1.371,0-1.485,2.215ZM114.565,67a3.344,3.344,0,0,1-.281-.853A2.754,2.754,0,0,1,112,67.176a3.374,3.374,0,0,1-2.285-.813,2.588,2.588,0,0,1-.94-2.043,2.66,2.66,0,0,1,1.143-2.338,5.821,5.821,0,0,1,3.322-.791h.914v-.5q0-1.316-1.134-1.316a.927.927,0,0,0-1.055,1.042H109a2.655,2.655,0,0,1,1.173-2.239,4.931,4.931,0,0,1,2.993-.86,4.323,4.323,0,0,1,2.874.888,3.086,3.086,0,0,1,1.081,2.435v4.21a4.311,4.311,0,0,0,.4,2V67Zm-1.854-1.934a1.652,1.652,0,0,0,.918-.237,1.487,1.487,0,0,0,.523-.536V62.772h-.861q-1.547,0-1.547,1.389a.848.848,0,0,0,.272.655A.986.986,0,0,0,112.711,65.066Zm5.678-2.892a5.809,5.809,0,0,1,.976-3.56,3.211,3.211,0,0,1,2.725-1.3,2.731,2.731,0,0,1,2.145,1V53.5H127.2V67h-2.663l-.149-1.02a2.8,2.8,0,0,1-2.32,1.2,3.205,3.205,0,0,1-2.689-1.3A5.993,5.993,0,0,1,118.389,62.175Zm2.962.185q0,2.531,1.477,2.531a1.458,1.458,0,0,0,1.406-.826V60.443a1.419,1.419,0,0,0-1.389-.844q-1.371,0-1.485,2.215Z" transform="translate(1000 1878)" fill="#12263f"/>
    <g id="Grupo_142195" data-name="Grupo 142195" transform="translate(810 1828)">
      <g id="Grupo_142192" data-name="Grupo 142192" clip-path="url(#clip-path)">
        <path id="Trazado_146483" data-name="Trazado 146483" d="M236.848.063h24.9a1.14,1.14,0,0,1,.2.58,21.248,21.248,0,0,1,.142,2.771q-.008,14.883,0,29.766c0,3.959,1.585,5.533,5.561,5.537q14.8.014,29.6,0a20.756,20.756,0,0,1,3.258.192c.622.362.385.972.385,1.48q.016,56.912.024,113.825c0,5.988-3.1,9.9-8.029,12.7-1.41.8-3.081.549-4.6.937H236.848a2.645,2.645,0,0,1-.668-2.11q-.011-17.643,0-35.288a3.052,3.052,0,0,1,.448-1.873c.82-.859,1.9-.709,2.921-.71q15.888-.018,31.776-.009a12.238,12.238,0,0,0,2.125-.077,4.21,4.21,0,0,0-.062-8.354,13.535,13.535,0,0,0-2.126-.066q-15.888-.006-31.776-.008c-.971,0-1.987.122-2.795-.637a3.046,3.046,0,0,1-.511-2.007q-.019-7.808,0-15.616a3.245,3.245,0,0,1,.462-2.024c.827-.849,1.905-.693,2.927-.694q15.884-.018,31.768-.009a12.189,12.189,0,0,0,2.125-.079,4.21,4.21,0,0,0-.083-8.353,13.584,13.584,0,0,0-2.126-.066q-15.884-.005-31.768-.007c-.971,0-1.987.122-2.794-.638a3.047,3.047,0,0,1-.511-2.007q-.019-7.808,0-15.616a3.243,3.243,0,0,1,.463-2.023c.827-.849,1.906-.693,2.928-.695q15.726-.018,31.451-.007c.655,0,1.312.029,1.965-.028a4.222,4.222,0,0,0,.05-8.441c-.653-.061-1.31-.031-1.965-.031q-15.726,0-31.451-.007c-1.021,0-2.1.16-2.949-.66a3.341,3.341,0,0,1-.5-2.19q-.014-27.585,0-55.17a2.811,2.811,0,0,1,.67-2.278" transform="translate(-132.946 -0.035)" fill="#bcdff0"/>
        <path id="Trazado_146484" data-name="Trazado 146484" d="M154.533,69.572V89.161c-.066.084-.133.169-.2.254a3.346,3.346,0,0,1-2.2.447q-12.922.016-25.844.011c-.714,0-1.408-.135-2.111-.183a3.45,3.45,0,0,1-2.36-.956,43.51,43.51,0,0,0-22.552-8.687c-1.3-.126-2.609-.044-3.913-.141-1.712-.1-3.457.781-5.14-.175a3.237,3.237,0,0,1-.229-1.76c.005-20.95-.031-41.9.018-62.851A15.3,15.3,0,0,1,97.631,1.49c1.8-1.138,3.852-1.01,5.8-1.428H154.55q-.009,29.8-.017,59.605c-.062.081-.124.162-.185.245a4.246,4.246,0,0,1-2.691.448q-16.121.018-32.243-.005a4.949,4.949,0,0,0-4.2,1.775,4.189,4.189,0,0,0,3.057,6.7,16.146,16.146,0,0,0,1.963.042q15.712,0,31.424.007a4.261,4.261,0,0,1,2.692.446c.062.081.123.164.184.247" transform="translate(-50.647 -0.035)" fill="#e3f1f8"/>
        <path id="Trazado_146485" data-name="Trazado 146485" d="M53.2.028c-1.914.715-3.96,1-5.739,2.168a14.694,14.694,0,0,0-7.034,13.029q-.027,31.082-.01,62.164a3.717,3.717,0,0,1-.332,2.226c-.466.755-1.278.77-2.013.906-14.054,2.61-24.641,10.2-31.321,22.749C.422,115.153-.235,127.68,5.02,140.118c6.217,14.713,17.47,23.479,33.166,26.537.809.158,1.948-.1,2.232,1.155-12.834,0-25.669-.014-38.5.028-.978,0-1.174-.2-1.174-1.174Q.786,83.92.741,1.175C.74.2.937,0,1.914,0Q27.557.057,53.2.028" transform="translate(-0.417 -0.001)" fill="#fefefe"/>
        <path id="Trazado_146486" data-name="Trazado 146486" d="M118.315,332.052a52.152,52.152,0,0,0,11.2-3.428q22.543-10.8,26.036-35.554a2.058,2.058,0,0,1,1.624-.62c3.914-.026,7.828-.034,11.741,0a2.24,2.24,0,0,1,1.379.426c.066.084.132.17.2.256l.017,39.288H119.711c-.4-.388-1.018.079-1.4-.373" transform="translate(-66.602 -164.614)" fill="#e3f1f8"/>
        <path id="Trazado_146487" data-name="Trazado 146487" d="M115.471,383.081c.47.1,1.014-.066,1.4.373h-3.6c.65-.635,1.473-.242,2.209-.373" transform="translate(-63.757 -215.643)" fill="#f7fbfd"/>
        <path id="Trazado_146488" data-name="Trazado 146488" d="M96.768,383.47a1.513,1.513,0,0,1,1.966,0Z" transform="translate(-54.472 -215.659)" fill="#5cc1fe"/>
        <path id="Trazado_146489" data-name="Trazado 146489" d="M105.764,383.49a1.141,1.141,0,0,1,1.639,0Z" transform="translate(-59.536 -215.679)" fill="#15a1fe"/>
        <path id="Trazado_146490" data-name="Trazado 146490" d="M294.265.73l38.679,38.687c-.483.524-1.122.337-1.7.338q-15.966.016-31.932,0c-3.366,0-5.391-2.03-5.393-5.4q-.011-15.966,0-31.933c0-.578-.184-1.216.34-1.7" transform="translate(-165.438 -0.411)" fill="#77bde1"/>
        <path id="Trazado_146491" data-name="Trazado 146491" d="M236.769,136.434q17.992.018,35.983.045a4.872,4.872,0,0,1,4.328,7.388,4.809,4.809,0,0,1-4.492,2.442q-17.174-.024-34.349-.006c-.49,0-.98.023-1.47.035l.039-.078c-.994-1.525-.994-8.223,0-9.749l-.038-.078" transform="translate(-132.883 -76.802)" fill="#3c3c55"/>
        <path id="Trazado_146492" data-name="Trazado 146492" d="M236.807,203.912q17.992.018,35.983.045a4.871,4.871,0,0,1,4.328,7.389,4.809,4.809,0,0,1-4.491,2.442q-17.175-.024-34.349-.006c-.49,0-.98.023-1.471.035q-.118-.108-.238-.215c-.68-1.154-.356-2.425-.4-3.647-.049-1.4-.024-2.806,0-4.21a2.2,2.2,0,0,1,.675-1.755Z" transform="translate(-132.921 -114.786)" fill="#3c3c55"/>
        <path id="Trazado_146493" data-name="Trazado 146493" d="M236.756,271.39q17.992.018,35.983.045a4.872,4.872,0,0,1,4.328,7.388,4.807,4.807,0,0,1-4.491,2.442q-17.175-.024-34.349-.006c-.49,0-.98.023-1.471.035l.039-.078c-.194-.19-.439-.382-.463-.649-.272-2.994-.565-5.991.183-8.965.079-.072.16-.142.241-.213" transform="translate(-132.871 -152.771)" fill="#3c3c55"/>
        <path id="Trazado_146494" data-name="Trazado 146494" d="M194.395,245.308a47.058,47.058,0,0,0-7.069-19.648,1.921,1.921,0,0,1,1.745-.7c6.165-.033,12.33-.023,18.5-.009a2.525,2.525,0,0,1,1.807.623l-.039.077v19.589l.039.078a2.84,2.84,0,0,1-2.124.627q-5.374,0-10.747,0a2.554,2.554,0,0,1-2.108-.635" transform="translate(-105.449 -126.622)" fill="#e3f1f8"/>
        <path id="Trazado_146495" data-name="Trazado 146495" d="M184.991,136.572v9.749c-12,.013-24,.044-36,.025a4.9,4.9,0,1,1,0-9.8c12-.017,24,.013,36,.026" transform="translate(-81.068 -76.861)" fill="#5f5f81"/>
        <path id="Trazado_146496" data-name="Trazado 146496" d="M197.945,213.839l-22.047.085a61.449,61.449,0,0,0-8.874-9.807l30.921-.027v9.749" transform="translate(-94.021 -114.887)" fill="#5f5f81"/>
        <path id="Trazado_146497" data-name="Trazado 146497" d="M203.5,271.542l14.979.011V281.3l-14.979.011a50.129,50.129,0,0,0,0-9.771" transform="translate(-114.552 -152.857)" fill="#5f5f81"/>
        <path id="Trazado_146498" data-name="Trazado 146498" d="M0,224.45a44.6,44.6,0,0,0,44.6,44.6v-89.2A44.6,44.6,0,0,0,0,224.45" transform="translate(0 -101.241)" fill="#ff5252"/>
        <path id="Trazado_146499" data-name="Trazado 146499" d="M146.645,224.45a44.6,44.6,0,0,0-44.6-44.6v89.2a44.6,44.6,0,0,0,44.6-44.6" transform="translate(-57.442 -101.241)" fill="red"/>
        <path id="Trazado_146500" data-name="Trazado 146500" d="M95.222,248.842,68.993,275.071a5.245,5.245,0,0,1-7.418-7.417L87.8,241.425a5.245,5.245,0,0,1,7.418,7.417" transform="translate(-33.797 -135.038)" fill="#3c3c55"/>
        <path id="Trazado_146501" data-name="Trazado 146501" d="M61.576,248.842,87.8,275.071a5.245,5.245,0,1,0,7.418-7.417L68.993,241.425a5.245,5.245,0,1,0-7.418,7.417" transform="translate(-33.797 -135.038)" fill="#3c3c55"/>
      </g>
    </g>
  </g>
</svg>
