<svg id="Grupo_142218" data-name="Grupo 142218" xmlns="http://www.w3.org/2000/svg" xmlns:xlink="http://www.w3.org/1999/xlink" width="353.473" height="450.559" viewBox="0 0 353.473 450.559">
  <defs>
    <clipPath id="clip-path">
      <rect id="Rectángulo_37535" data-name="Rectángulo 37535" width="353.473" height="450.559" fill="none"/>
    </clipPath>
    <clipPath id="clip-path-3">
      <rect id="Rectángulo_37513" data-name="Rectángulo 37513" width="310.288" height="450.559" transform="translate(41.102)" fill="none"/>
    </clipPath>
  </defs>
  <g id="Grupo_142217" data-name="Grupo 142217" clip-path="url(#clip-path)">
    <g id="Grupo_142216" data-name="Grupo 142216">
      <g id="Grupo_142215" data-name="Grupo 142215" clip-path="url(#clip-path)">
        <path id="Trazado_146644" data-name="Trazado 146644" d="M321.129,188.024c19.42,68.364,48.748,140.856,14.442,207.043a97.117,97.117,0,0,1-52.491,45.858C220.691,464.235,138.6,442.056,82.3,408.4a119.954,119.954,0,0,1-20.445-15.1c-29.719-27.775-23.576-61.5-6.169-91.351,14.731-25.264,28.982-47.368,26.986-77.471-1.106-16.674-4.1-33.277-5.431-49.944-1.82-22.691-1.328-45.534,3.327-67.641C92.889,48.413,141.727-10.306,215.971,1.535a132.534,132.534,0,0,1,14.283,3.108c28.889,7.948,56.1,23.319,65.706,50.611,9.66,27.438,9.081,57.191,13.928,85.265a462.281,462.281,0,0,0,11.241,47.505" fill="#dae1fd"/>
        <g id="Grupo_142214" data-name="Grupo 142214" opacity="0.7">
          <g id="Grupo_142213" data-name="Grupo 142213">
            <g id="Grupo_142212" data-name="Grupo 142212" clip-path="url(#clip-path-3)">
              <path id="Trazado_146645" data-name="Trazado 146645" d="M321.129,188.024c19.42,68.364,48.748,140.856,14.442,207.043a97.117,97.117,0,0,1-52.491,45.858C220.691,464.235,138.6,442.056,82.3,408.4a119.954,119.954,0,0,1-20.445-15.1c-29.719-27.775-23.576-61.5-6.169-91.351,14.731-25.264,28.982-47.368,26.986-77.471-1.106-16.674-4.1-33.277-5.431-49.944-1.82-22.691-1.328-45.534,3.327-67.641C92.889,48.413,141.727-10.306,215.971,1.535a132.534,132.534,0,0,1,14.283,3.108c28.889,7.948,56.1,23.319,65.706,50.611,9.66,27.438,9.081,57.191,13.928,85.265a462.281,462.281,0,0,0,11.241,47.505" fill="#dae1fd"/>
            </g>
          </g>
        </g>
        <path id="Trazado_146646" data-name="Trazado 146646" d="M352.973,356.348v2.5h-2.5" fill="none" stroke="#263238" stroke-miterlimit="10" stroke-width="1"/>
        <line id="Línea_259" data-name="Línea 259" x1="210.726" transform="translate(134.67 358.848)" fill="none" stroke="#263238" stroke-miterlimit="10" stroke-width="1" stroke-dasharray="5.078 5.078"/>
        <path id="Trazado_146647" data-name="Trazado 146647" d="M132.131,358.848h-2.5v-2.5" fill="none" stroke="#263238" stroke-miterlimit="10" stroke-width="1"/>
        <line id="Línea_260" data-name="Línea 260" y1="194.803" transform="translate(129.631 156.614)" fill="none" stroke="#263238" stroke-miterlimit="10" stroke-width="1" stroke-dasharray="4.932 4.932"/>
        <path id="Trazado_146648" data-name="Trazado 146648" d="M129.631,154.148v-2.5h2.5" fill="none" stroke="#263238" stroke-miterlimit="10" stroke-width="1"/>
        <line id="Línea_261" data-name="Línea 261" x2="210.725" transform="translate(137.209 151.648)" fill="none" stroke="#263238" stroke-miterlimit="10" stroke-width="1" stroke-dasharray="5.078 5.078"/>
        <path id="Trazado_146649" data-name="Trazado 146649" d="M350.473,151.648h2.5v2.5" fill="none" stroke="#263238" stroke-miterlimit="10" stroke-width="1"/>
        <line id="Línea_262" data-name="Línea 262" y2="194.803" transform="translate(352.973 159.08)" fill="none" stroke="#263238" stroke-miterlimit="10" stroke-width="1" stroke-dasharray="4.932 4.932"/>
        <path id="Trazado_146650" data-name="Trazado 146650" d="M18.778,262.733s-2.337,6.428-7.305,7.3S-2.259,261.272,3.292,256.3s13.149,2.922,15.486,6.428" fill="#92e3a9"/>
        <path id="Trazado_146651" data-name="Trazado 146651" d="M18.778,262.733s-2.337,6.428-7.305,7.3S-2.259,261.272,3.292,256.3,16.441,259.227,18.778,262.733Z" fill="none" stroke="#263238" stroke-linecap="round" stroke-linejoin="round" stroke-width="1"/>
        <path id="Trazado_146652" data-name="Trazado 146652" d="M26.375,231.177S19.07,249,21.992,257.766s21.038,15.193,26.3,3.8S41.861,234.1,37.478,230.592s-9.642-2.337-11.1.585" fill="#92e3a9"/>
        <path id="Trazado_146653" data-name="Trazado 146653" d="M26.375,231.177S19.07,249,21.992,257.766s21.038,15.193,26.3,3.8S41.861,234.1,37.478,230.592,27.836,228.255,26.375,231.177Z" fill="none" stroke="#263238" stroke-linecap="round" stroke-linejoin="round" stroke-width="1"/>
        <path id="Trazado_146654" data-name="Trazado 146654" d="M69.034,238.774s-12.564,11.4-14.025,22.79,7.012,15.486,15.778,14.025S83.935,251.922,81.306,241.7s-12.272-2.922-12.272-2.922" fill="#92e3a9"/>
        <path id="Trazado_146655" data-name="Trazado 146655" d="M69.034,238.774s-12.564,11.4-14.025,22.79,7.012,15.486,15.778,14.025S83.935,251.922,81.306,241.7,69.034,238.774,69.034,238.774Z" fill="none" stroke="#263238" stroke-linecap="round" stroke-linejoin="round" stroke-width="1"/>
        <path id="Trazado_146656" data-name="Trazado 146656" d="M71.371,301.886s-14.025.585-14.609,7.305,6.136,8.181,12.856,2.337,7.6-9.35,1.753-9.642" fill="#92e3a9"/>
        <path id="Trazado_146657" data-name="Trazado 146657" d="M71.371,301.886s-14.025.585-14.609,7.305,6.136,8.181,12.856,2.337S77.215,302.178,71.371,301.886Z" fill="none" stroke="#263238" stroke-linecap="round" stroke-linejoin="round" stroke-width="1"/>
        <path id="Trazado_146658" data-name="Trazado 146658" d="M56.994,310.792s11.053-5.057,16.031-5.935" fill="none" stroke="#263238" stroke-miterlimit="10" stroke-width="1"/>
        <path id="Trazado_146659" data-name="Trazado 146659" d="M74.5,345.858s-10.3-9.535-15.48-5.211-1.476,10.119,7.406,10.765,11.986-1.2,8.074-5.554" fill="#92e3a9"/>
        <path id="Trazado_146660" data-name="Trazado 146660" d="M74.5,345.858s-10.3-9.535-15.48-5.211-1.476,10.119,7.406,10.765S78.41,350.208,74.5,345.858Z" fill="none" stroke="#263238" stroke-linecap="round" stroke-linejoin="round" stroke-width="1"/>
        <path id="Trazado_146661" data-name="Trazado 146661" d="M58.046,341.941s11.379,4.274,15.511,7.185" fill="none" stroke="#263238" stroke-miterlimit="10" stroke-width="1"/>
        <path id="Trazado_146662" data-name="Trazado 146662" d="M20.157,343.051s14.2-13.143,21.339-7.184,2.035,13.95-10.209,14.84-16.523-1.659-11.13-7.656" fill="#92e3a9"/>
        <path id="Trazado_146663" data-name="Trazado 146663" d="M20.157,343.051s14.2-13.143,21.339-7.184,2.035,13.95-10.209,14.84S14.764,349.048,20.157,343.051Z" fill="none" stroke="#263238" stroke-linecap="round" stroke-linejoin="round" stroke-width="1"/>
        <path id="Trazado_146664" data-name="Trazado 146664" d="M42.836,337.65s-15.685,5.892-21.381,9.9" fill="none" stroke="#263238" stroke-miterlimit="10" stroke-width="1"/>
        <path id="Trazado_146665" data-name="Trazado 146665" d="M36.6,315.91s-1.462,7.012-6.72,9.642-14.609-2.922-9.642-11.394S33.972,312.4,36.6,315.91" fill="#92e3a9"/>
        <path id="Trazado_146666" data-name="Trazado 146666" d="M36.6,315.91s-1.462,7.012-6.72,9.642-14.609-2.922-9.642-11.394S33.972,312.4,36.6,315.91Z" fill="none" stroke="#263238" stroke-linecap="round" stroke-linejoin="round" stroke-width="1"/>
        <path id="Trazado_146667" data-name="Trazado 146667" d="M24.33,294s-2.63-5.844-12.856-2.045-14.317,9.642-7.889,11.687S24.33,294,24.33,294" fill="#92e3a9"/>
        <path id="Trazado_146668" data-name="Trazado 146668" d="M24.33,294s-2.63-5.844-12.856-2.045-14.317,9.642-7.889,11.687S24.33,294,24.33,294Z" fill="none" stroke="#263238" stroke-linecap="round" stroke-linejoin="round" stroke-width="1"/>
        <path id="Trazado_146669" data-name="Trazado 146669" d="M22.372,293.73S11.539,294.9,5.683,299.879" fill="none" stroke="#263238" stroke-miterlimit="10" stroke-width="1"/>
        <path id="Trazado_146670" data-name="Trazado 146670" d="M53.548,223.873s1.753,4.091,5.259,3.214,4.383-6.136,9.934-4.675,10.227,7.889,10.227,4.967-7.012-10.518-14.9-10.518-10.227,3.214-10.519,7.012" fill="#92e3a9"/>
        <path id="Trazado_146671" data-name="Trazado 146671" d="M53.548,223.873s1.753,4.091,5.259,3.214,4.383-6.136,9.934-4.675,10.227,7.889,10.227,4.967-7.012-10.518-14.9-10.518S53.84,220.075,53.548,223.873Z" fill="none" stroke="#263238" stroke-linecap="round" stroke-linejoin="round" stroke-width="1"/>
        <path id="Trazado_146672" data-name="Trazado 146672" d="M24.33,294s12.581-2.415,17.82,11.556a38.835,38.835,0,0,1,1.313,4.275" fill="none" stroke="#263238" stroke-miterlimit="10" stroke-width="1"/>
        <path id="Trazado_146673" data-name="Trazado 146673" d="M76.837,280.462s2.63-5.844,12.856-2.045,14.317,9.642,7.889,11.687-20.745-9.642-20.745-9.642" fill="#92e3a9"/>
        <path id="Trazado_146674" data-name="Trazado 146674" d="M76.837,280.462s2.63-5.844,12.856-2.045,14.317,9.642,7.889,11.687S76.837,280.462,76.837,280.462Z" fill="none" stroke="#263238" stroke-linecap="round" stroke-linejoin="round" stroke-width="1"/>
        <path id="Trazado_146675" data-name="Trazado 146675" d="M79.174,280.848s10.54-.586,15.518,5.563" fill="none" stroke="#263238" stroke-miterlimit="10" stroke-width="1"/>
        <path id="Trazado_146676" data-name="Trazado 146676" d="M76.837,280.462a16.194,16.194,0,0,0-8.709,1.187" fill="none" stroke="#263238" stroke-miterlimit="10" stroke-width="1"/>
        <path id="Trazado_146677" data-name="Trazado 146677" d="M31.037,269.981c-6.167-6.3-12.258-7.248-12.258-7.248s-9-2.381-12.51.84" fill="none" stroke="#263238" stroke-miterlimit="10" stroke-width="1"/>
        <line id="Línea_263" data-name="Línea 263" x1="0.547" y1="2.442" transform="translate(31.741 235.172)" fill="none" stroke="#263238" stroke-miterlimit="10" stroke-width="1"/>
        <path id="Trazado_146678" data-name="Trazado 146678" d="M46.516,366.785s1.31-50.318,0-65.6-7.422-33.182-7.422-33.182l-6.227-27.8" fill="none" stroke="#263238" stroke-miterlimit="10" stroke-width="1"/>
        <line id="Línea_264" data-name="Línea 264" y1="2.412" x2="1.126" transform="translate(72.485 246.005)" fill="none" stroke="#263238" stroke-miterlimit="10" stroke-width="1"/>
        <path id="Trazado_146679" data-name="Trazado 146679" d="M49.572,366.73s.437-45.9,2.183-58.994,8.732-33.618,8.732-33.618l10.72-22.964" fill="none" stroke="#263238" stroke-miterlimit="10" stroke-width="1"/>
        <path id="Trazado_146680" data-name="Trazado 146680" d="M56.994,310.792s-3.056,26.313-4.8,56" fill="none" stroke="#263238" stroke-miterlimit="10" stroke-width="1"/>
        <path id="Trazado_146681" data-name="Trazado 146681" d="M42.15,366.73s.873-41.967-.873-47.643-4.676-3.176-4.676-3.176-8.081.95-11.009,5.635" fill="none" stroke="#263238" stroke-miterlimit="10" stroke-width="1"/>
        <path id="Trazado_146682" data-name="Trazado 146682" d="M44.156,313.1c2.284,12.8.177,53.676.177,53.676" fill="none" stroke="#263238" stroke-miterlimit="10" stroke-width="1"/>
        <path id="Trazado_146683" data-name="Trazado 146683" d="M65.653,283.021a18.22,18.22,0,0,0-6.636,9c-5.239,13.971-4.642,74.775-4.642,74.775" fill="none" stroke="#263238" stroke-miterlimit="10" stroke-width="1"/>
        <path id="Trazado_146684" data-name="Trazado 146684" d="M32.557,271.646a41.3,41.3,0,0,1,7.41,13.386c6.986,20.084,9.6,72.092,8.3,81.7" fill="none" stroke="#263238" stroke-miterlimit="10" stroke-width="1"/>
        <path id="Trazado_146685" data-name="Trazado 146685" d="M50.3,290.441c-.425,25.347-.726,76.288-.726,76.288" fill="none" stroke="#263238" stroke-miterlimit="10" stroke-width="1"/>
        <path id="Trazado_146686" data-name="Trazado 146686" d="M50.352,287.287c.288-16.76.627-33.163.967-41.985.873-22.7,2.229-21.43,2.229-21.43s1.616-5.1,10.693-4.512" fill="none" stroke="#263238" stroke-miterlimit="10" stroke-width="1"/>
        <path id="Trazado_146687" data-name="Trazado 146687" d="M39.171,306.427s-7.305-6.514-4.383-9.717,21.038-5.553,26.3-1.389-6.428,10.038-10.811,11.32-9.642.854-11.1-.214" fill="#92e3a9"/>
        <path id="Trazado_146688" data-name="Trazado 146688" d="M39.171,306.427s-7.305-6.514-4.383-9.717,21.038-5.553,26.3-1.389-6.428,10.038-10.811,11.32S40.632,307.495,39.171,306.427Z" fill="none" stroke="#263238" stroke-linecap="round" stroke-linejoin="round" stroke-width="1"/>
        <path id="Trazado_146689" data-name="Trazado 146689" d="M45.917,301.094a12.811,12.811,0,0,0-.162,1.945" fill="none" stroke="#263238" stroke-miterlimit="10" stroke-width="1"/>
        <path id="Trazado_146690" data-name="Trazado 146690" d="M48.429,293.489a33.108,33.108,0,0,0-1.875,4.839" fill="none" stroke="#263238" stroke-miterlimit="10" stroke-width="1"/>
        <path id="Trazado_146691" data-name="Trazado 146691" d="M39.171,349.017s-7.305-6.514-4.383-9.718,21.038-5.552,26.3-1.388-6.428,10.038-10.811,11.32-9.642.854-11.1-.214" fill="#92e3a9"/>
        <path id="Trazado_146692" data-name="Trazado 146692" d="M39.171,349.017s-7.305-6.514-4.383-9.718,21.038-5.552,26.3-1.388-6.428,10.038-10.811,11.32S40.632,350.085,39.171,349.017Z" fill="none" stroke="#263238" stroke-linecap="round" stroke-linejoin="round" stroke-width="1"/>
        <path id="Trazado_146693" data-name="Trazado 146693" d="M48.429,336.079s-2.674,5.348-2.674,9.549" fill="none" stroke="#263238" stroke-miterlimit="10" stroke-width="1"/>
        <path id="Trazado_146694" data-name="Trazado 146694" d="M44.609,331.005s-4.96-4.423-2.976-6.6,14.284-3.77,17.854-.942-4.364,6.815-7.34,7.685-6.546.58-7.538-.145" fill="#92e3a9"/>
        <path id="Trazado_146695" data-name="Trazado 146695" d="M44.609,331.005s-4.96-4.423-2.976-6.6,14.284-3.77,17.854-.942-4.364,6.815-7.34,7.685S45.6,331.73,44.609,331.005Z" fill="none" stroke="#263238" stroke-linecap="round" stroke-linejoin="round" stroke-width="1"/>
        <path id="Trazado_146696" data-name="Trazado 146696" d="M50.9,322.221a17.976,17.976,0,0,0-1.816,6.484" fill="none" stroke="#263238" stroke-miterlimit="10" stroke-width="1"/>
        <rect id="Rectángulo_37514" data-name="Rectángulo 37514" width="19.773" height="43.845" transform="translate(37.749 359.485)" fill="#263238"/>
        <rect id="Rectángulo_37515" data-name="Rectángulo 37515" width="19.773" height="43.845" transform="translate(37.749 359.485)" fill="none" stroke="#263238" stroke-linecap="round" stroke-linejoin="round" stroke-width="1"/>
        <path id="Trazado_146697" data-name="Trazado 146697" d="M132.036,314.441v7.143l6.841.979a24.808,24.808,0,0,0,3.929,9.571l-4.16,5.548,5.051,5.051,5.529-4.145a24.785,24.785,0,0,0,9.546,3.988l.982,6.867H166.9l.979-6.841a24.8,24.8,0,0,0,9.571-3.929l5.549,4.16,5.051-5.051-4.146-5.529a24.785,24.785,0,0,0,3.988-9.546l6.867-.982v-7.144l-6.841-.978a24.786,24.786,0,0,0-3.929-9.571l4.16-5.549-5.051-5.051-5.529,4.145a24.783,24.783,0,0,0-9.546-3.987l-.982-6.867H159.9l-.979,6.841a24.771,24.771,0,0,0-9.571,3.929l-5.549-4.16-5.051,5.051,4.146,5.529a24.785,24.785,0,0,0-3.988,9.546Zm31.36-13.676a17.317,17.317,0,1,1-17.318,17.318A17.318,17.318,0,0,1,163.4,300.765Z" fill="none" stroke="#263238" stroke-miterlimit="10" stroke-width="1"/>
        <path id="Trazado_146698" data-name="Trazado 146698" d="M190.769,307.571v6.109l5.85.837a21.209,21.209,0,0,0,3.36,8.185l-3.557,4.745,4.319,4.319,4.728-3.545a21.2,21.2,0,0,0,8.164,3.41l.84,5.873h6.108l.837-5.851a21.188,21.188,0,0,0,8.185-3.36l4.745,3.558,4.32-4.32-3.545-4.728a21.2,21.2,0,0,0,3.41-8.163l5.872-.84v-6.109l-5.85-.836a21.212,21.212,0,0,0-3.36-8.185l3.558-4.745-4.32-4.32-4.728,3.545a21.205,21.205,0,0,0-8.164-3.41l-.84-5.872h-6.108l-.837,5.85a21.181,21.181,0,0,0-8.185,3.36l-4.745-3.558-4.319,4.32,3.545,4.728a21.187,21.187,0,0,0-3.411,8.163Zm26.818-11.7a14.809,14.809,0,1,1-14.81,14.81A14.81,14.81,0,0,1,217.587,295.876Z" fill="none" stroke="#263238" stroke-miterlimit="10" stroke-width="1"/>
        <path id="Trazado_146699" data-name="Trazado 146699" d="M262.233,38.491V44.6l5.85.837a21.21,21.21,0,0,0,3.36,8.185l-3.557,4.745,4.319,4.319,4.728-3.545a21.19,21.19,0,0,0,8.164,3.41l.84,5.873h6.108l.837-5.851a21.188,21.188,0,0,0,8.185-3.36l4.745,3.558,4.319-4.32-3.545-4.728A21.187,21.187,0,0,0,310,45.56l5.872-.84V38.611l-5.85-.837a21.214,21.214,0,0,0-3.36-8.184l3.557-4.745-4.319-4.32-4.728,3.545a21.205,21.205,0,0,0-8.164-3.41l-.84-5.872h-6.108l-.837,5.85A21.181,21.181,0,0,0,277.035,24L272.29,20.44l-4.32,4.32,3.545,4.728a21.2,21.2,0,0,0-3.41,8.163Zm26.818-11.7a14.81,14.81,0,1,1-14.81,14.81A14.81,14.81,0,0,1,289.051,26.8Z" fill="none" stroke="#263238" stroke-miterlimit="10" stroke-width="1"/>
        <path id="Trazado_146700" data-name="Trazado 146700" d="M278.876,262.606H54.614V47.621A8.521,8.521,0,0,1,63.135,39.1h207.22a8.521,8.521,0,0,1,8.521,8.521Z" fill="#263238"/>
        <path id="Trazado_146701" data-name="Trazado 146701" d="M278.876,262.606H54.614V47.621A8.521,8.521,0,0,1,63.135,39.1h207.22a8.521,8.521,0,0,1,8.521,8.521Z" fill="none" stroke="#263238" stroke-linecap="round" stroke-linejoin="round" stroke-width="1"/>
        <path id="Trazado_146702" data-name="Trazado 146702" d="M283.981,257.5H59.719V42.517A8.521,8.521,0,0,1,68.24,34H275.46a8.521,8.521,0,0,1,8.521,8.521Z" fill="#fff"/>
        <path id="Trazado_146703" data-name="Trazado 146703" d="M283.981,257.5H59.719V42.517A8.521,8.521,0,0,1,68.24,34H275.46a8.521,8.521,0,0,1,8.521,8.521Z" fill="none" stroke="#263238" stroke-linecap="round" stroke-linejoin="round" stroke-width="1"/>
        <path id="Trazado_146704" data-name="Trazado 146704" d="M283.981,55.359H59.719V42.517A8.521,8.521,0,0,1,68.24,34H275.46a8.521,8.521,0,0,1,8.521,8.521Z" fill="#6e7fab"/>
        <path id="Trazado_146705" data-name="Trazado 146705" d="M283.981,55.359H59.719V42.517A8.521,8.521,0,0,1,68.24,34H275.46a8.521,8.521,0,0,1,8.521,8.521Z" fill="none" stroke="#263238" stroke-linecap="round" stroke-linejoin="round" stroke-width="1"/>
        <path id="Trazado_146706" data-name="Trazado 146706" d="M247.911,45.356a3.481,3.481,0,1,0-3.482,3.482,3.482,3.482,0,0,0,3.482-3.482" fill="#fff"/>
        <path id="Trazado_146707" data-name="Trazado 146707" d="M247.911,45.356a3.481,3.481,0,1,0-3.482,3.482A3.482,3.482,0,0,0,247.911,45.356Z" fill="none" stroke="#263238" stroke-linecap="round" stroke-linejoin="round" stroke-width="1"/>
        <path id="Trazado_146708" data-name="Trazado 146708" d="M258.356,45.356a3.481,3.481,0,1,0-3.482,3.482,3.482,3.482,0,0,0,3.482-3.482" fill="#fff"/>
        <path id="Trazado_146709" data-name="Trazado 146709" d="M258.356,45.356a3.481,3.481,0,1,0-3.482,3.482A3.482,3.482,0,0,0,258.356,45.356Z" fill="none" stroke="#263238" stroke-linecap="round" stroke-linejoin="round" stroke-width="1"/>
        <path id="Trazado_146710" data-name="Trazado 146710" d="M268.8,45.356a3.481,3.481,0,1,0-3.482,3.482,3.482,3.482,0,0,0,3.482-3.482" fill="#263238"/>
        <path id="Trazado_146711" data-name="Trazado 146711" d="M268.8,45.356a3.481,3.481,0,1,0-3.482,3.482A3.482,3.482,0,0,0,268.8,45.356Z" fill="none" stroke="#263238" stroke-linecap="round" stroke-linejoin="round" stroke-width="1"/>
        <line id="Línea_265" data-name="Línea 265" x2="16.49" transform="translate(82.729 68.128)" fill="none" stroke="#263238" stroke-linecap="round" stroke-linejoin="round" stroke-width="3"/>
        <line id="Línea_266" data-name="Línea 266" x2="61.95" transform="translate(82.729 77.815)" fill="none" stroke="#c4c4c4" stroke-linecap="round" stroke-linejoin="round" stroke-width="3"/>
        <line id="Línea_267" data-name="Línea 267" x2="61.95" transform="translate(178.551 77.815)" fill="none" stroke="#c4c4c4" stroke-linecap="round" stroke-linejoin="round" stroke-width="3"/>
        <line id="Línea_268" data-name="Línea 268" x2="24.513" transform="translate(148.69 77.815)" fill="none" stroke="#263238" stroke-linecap="round" stroke-linejoin="round" stroke-width="3"/>
        <line id="Línea_269" data-name="Línea 269" x2="35.655" transform="translate(82.729 87.501)" fill="none" stroke="#263238" stroke-linecap="round" stroke-linejoin="round" stroke-width="3"/>
        <line id="Línea_270" data-name="Línea 270" x2="35.655" transform="translate(122.84 87.501)" fill="none" stroke="#263238" stroke-linecap="round" stroke-linejoin="round" stroke-width="3"/>
        <line id="Línea_271" data-name="Línea 271" x2="35.655" transform="translate(162.952 87.501)" fill="none" stroke="#263238" stroke-linecap="round" stroke-linejoin="round" stroke-width="3"/>
        <line id="Línea_272" data-name="Línea 272" x2="15.153" transform="translate(203.064 87.501)" fill="none" stroke="#263238" stroke-linecap="round" stroke-linejoin="round" stroke-width="3"/>
        <line id="Línea_273" data-name="Línea 273" x2="16.49" transform="translate(103.676 68.128)" fill="none" stroke="#263238" stroke-linecap="round" stroke-linejoin="round" stroke-width="3"/>
        <line id="Línea_274" data-name="Línea 274" x2="16.49" transform="translate(201.727 68.128)" fill="none" stroke="#263238" stroke-linecap="round" stroke-linejoin="round" stroke-width="3"/>
        <line id="Línea_275" data-name="Línea 275" x2="16.49" transform="translate(179.888 68.128)" fill="none" stroke="#c4c4c4" stroke-linecap="round" stroke-linejoin="round" stroke-width="3"/>
        <line id="Línea_276" data-name="Línea 276" x2="48.134" transform="translate(124.623 68.128)" fill="none" stroke="#263238" stroke-linecap="round" stroke-linejoin="round" stroke-width="3"/>
        <line id="Línea_277" data-name="Línea 277" x2="16.49" transform="translate(82.729 127.267)" fill="none" stroke="#263238" stroke-linecap="round" stroke-linejoin="round" stroke-width="3"/>
        <line id="Línea_278" data-name="Línea 278" x2="61.95" transform="translate(82.729 136.954)" fill="none" stroke="#c4c4c4" stroke-linecap="round" stroke-linejoin="round" stroke-width="3"/>
        <line id="Línea_279" data-name="Línea 279" x2="61.95" transform="translate(178.551 136.954)" fill="none" stroke="#263238" stroke-linecap="round" stroke-linejoin="round" stroke-width="3"/>
        <line id="Línea_280" data-name="Línea 280" x2="24.513" transform="translate(148.69 136.954)" fill="none" stroke="#263238" stroke-linecap="round" stroke-linejoin="round" stroke-width="3"/>
        <line id="Línea_281" data-name="Línea 281" x2="35.655" transform="translate(82.729 146.641)" fill="none" stroke="#263238" stroke-linecap="round" stroke-linejoin="round" stroke-width="3"/>
        <line id="Línea_282" data-name="Línea 282" x2="35.655" transform="translate(122.84 146.641)" fill="none" stroke="#263238" stroke-linecap="round" stroke-linejoin="round" stroke-width="3"/>
        <line id="Línea_283" data-name="Línea 283" x2="35.655" transform="translate(162.952 146.641)" fill="none" stroke="#c4c4c4" stroke-linecap="round" stroke-linejoin="round" stroke-width="3"/>
        <line id="Línea_284" data-name="Línea 284" x2="15.153" transform="translate(203.064 146.641)" fill="none" stroke="#263238" stroke-linecap="round" stroke-linejoin="round" stroke-width="3"/>
        <line id="Línea_285" data-name="Línea 285" x2="16.49" transform="translate(103.676 127.267)" fill="none" stroke="#263238" stroke-linecap="round" stroke-linejoin="round" stroke-width="3"/>
        <line id="Línea_286" data-name="Línea 286" x2="16.49" transform="translate(201.727 127.267)" fill="none" stroke="#263238" stroke-linecap="round" stroke-linejoin="round" stroke-width="3"/>
        <line id="Línea_287" data-name="Línea 287" x2="16.49" transform="translate(179.888 127.267)" fill="none" stroke="#c4c4c4" stroke-linecap="round" stroke-linejoin="round" stroke-width="3"/>
        <line id="Línea_288" data-name="Línea 288" x2="48.134" transform="translate(124.623 127.267)" fill="none" stroke="#263238" stroke-linecap="round" stroke-linejoin="round" stroke-width="3"/>
        <line id="Línea_289" data-name="Línea 289" x2="16.49" transform="translate(82.729 214.447)" fill="none" stroke="#263238" stroke-linecap="round" stroke-linejoin="round" stroke-width="3"/>
        <line id="Línea_290" data-name="Línea 290" x2="61.95" transform="translate(82.729 224.133)" fill="none" stroke="#c4c4c4" stroke-linecap="round" stroke-linejoin="round" stroke-width="3"/>
        <line id="Línea_291" data-name="Línea 291" x2="61.95" transform="translate(178.551 224.133)" fill="none" stroke="#263238" stroke-linecap="round" stroke-linejoin="round" stroke-width="3"/>
        <line id="Línea_292" data-name="Línea 292" x2="24.513" transform="translate(148.69 224.133)" fill="none" stroke="#263238" stroke-linecap="round" stroke-linejoin="round" stroke-width="3"/>
        <line id="Línea_293" data-name="Línea 293" x2="35.655" transform="translate(82.729 233.82)" fill="none" stroke="#263238" stroke-linecap="round" stroke-linejoin="round" stroke-width="3"/>
        <line id="Línea_294" data-name="Línea 294" x2="35.655" transform="translate(122.84 233.82)" fill="none" stroke="#263238" stroke-linecap="round" stroke-linejoin="round" stroke-width="3"/>
        <line id="Línea_295" data-name="Línea 295" x2="35.655" transform="translate(162.952 233.82)" fill="none" stroke="#c4c4c4" stroke-linecap="round" stroke-linejoin="round" stroke-width="3"/>
        <line id="Línea_296" data-name="Línea 296" x2="15.153" transform="translate(203.064 233.82)" fill="none" stroke="#263238" stroke-linecap="round" stroke-linejoin="round" stroke-width="3"/>
        <line id="Línea_297" data-name="Línea 297" x2="16.49" transform="translate(103.676 214.447)" fill="none" stroke="#263238" stroke-linecap="round" stroke-linejoin="round" stroke-width="3"/>
        <line id="Línea_298" data-name="Línea 298" x2="16.49" transform="translate(201.727 214.447)" fill="none" stroke="#263238" stroke-linecap="round" stroke-linejoin="round" stroke-width="3"/>
        <line id="Línea_299" data-name="Línea 299" x2="16.49" transform="translate(179.888 214.447)" fill="none" stroke="#c4c4c4" stroke-linecap="round" stroke-linejoin="round" stroke-width="3"/>
        <line id="Línea_300" data-name="Línea 300" x2="48.134" transform="translate(124.623 214.447)" fill="none" stroke="#263238" stroke-linecap="round" stroke-linejoin="round" stroke-width="3"/>
        <line id="Línea_301" data-name="Línea 301" x2="16.49" transform="translate(175.431 97.698)" fill="none" stroke="#263238" stroke-linecap="round" stroke-linejoin="round" stroke-width="3"/>
        <line id="Línea_302" data-name="Línea 302" x2="16.49" transform="translate(153.592 97.698)" fill="none" stroke="#263238" stroke-linecap="round" stroke-linejoin="round" stroke-width="3"/>
        <line id="Línea_303" data-name="Línea 303" x2="48.134" transform="translate(98.327 97.698)" fill="none" stroke="#263238" stroke-linecap="round" stroke-linejoin="round" stroke-width="3"/>
        <line id="Línea_304" data-name="Línea 304" x2="16.49" transform="translate(175.431 115.032)" fill="none" stroke="#263238" stroke-linecap="round" stroke-linejoin="round" stroke-width="3"/>
        <line id="Línea_305" data-name="Línea 305" x2="16.49" transform="translate(153.592 115.032)" fill="none" stroke="#263238" stroke-linecap="round" stroke-linejoin="round" stroke-width="3"/>
        <line id="Línea_306" data-name="Línea 306" x2="48.134" transform="translate(98.327 115.032)" fill="none" stroke="#c4c4c4" stroke-linecap="round" stroke-linejoin="round" stroke-width="3"/>
        <line id="Línea_307" data-name="Línea 307" x1="16.49" transform="translate(98.328 106.365)" fill="none" stroke="#263238" stroke-linecap="round" stroke-linejoin="round" stroke-width="3"/>
        <line id="Línea_308" data-name="Línea 308" x1="16.49" transform="translate(120.166 106.365)" fill="none" stroke="#263238" stroke-linecap="round" stroke-linejoin="round" stroke-width="3"/>
        <line id="Línea_309" data-name="Línea 309" x1="48.134" transform="translate(143.787 106.365)" fill="none" stroke="#c4c4c4" stroke-linecap="round" stroke-linejoin="round" stroke-width="3"/>
        <line id="Línea_310" data-name="Línea 310" x2="16.49" transform="translate(175.431 158.367)" fill="none" stroke="#263238" stroke-linecap="round" stroke-linejoin="round" stroke-width="3"/>
        <line id="Línea_311" data-name="Línea 311" x2="16.49" transform="translate(153.592 158.367)" fill="none" stroke="#263238" stroke-linecap="round" stroke-linejoin="round" stroke-width="3"/>
        <line id="Línea_312" data-name="Línea 312" x2="48.134" transform="translate(98.327 158.367)" fill="none" stroke="#263238" stroke-linecap="round" stroke-linejoin="round" stroke-width="3"/>
        <line id="Línea_313" data-name="Línea 313" x2="16.49" transform="translate(175.431 175.701)" fill="none" stroke="#263238" stroke-linecap="round" stroke-linejoin="round" stroke-width="3"/>
        <line id="Línea_314" data-name="Línea 314" x2="16.49" transform="translate(153.592 175.701)" fill="none" stroke="#263238" stroke-linecap="round" stroke-linejoin="round" stroke-width="3"/>
        <line id="Línea_315" data-name="Línea 315" x2="48.134" transform="translate(98.327 175.701)" fill="none" stroke="#c4c4c4" stroke-linecap="round" stroke-linejoin="round" stroke-width="3"/>
        <line id="Línea_316" data-name="Línea 316" x1="16.49" transform="translate(98.328 167.033)" fill="none" stroke="#263238" stroke-linecap="round" stroke-linejoin="round" stroke-width="3"/>
        <line id="Línea_317" data-name="Línea 317" x1="16.49" transform="translate(120.166 167.033)" fill="none" stroke="#263238" stroke-linecap="round" stroke-linejoin="round" stroke-width="3"/>
        <line id="Línea_318" data-name="Línea 318" x1="48.134" transform="translate(143.787 167.033)" fill="none" stroke="#c4c4c4" stroke-linecap="round" stroke-linejoin="round" stroke-width="3"/>
        <line id="Línea_319" data-name="Línea 319" x1="16.49" transform="translate(98.328 185.897)" fill="none" stroke="#263238" stroke-linecap="round" stroke-linejoin="round" stroke-width="3"/>
        <line id="Línea_320" data-name="Línea 320" x1="16.49" transform="translate(120.166 185.897)" fill="none" stroke="#263238" stroke-linecap="round" stroke-linejoin="round" stroke-width="3"/>
        <line id="Línea_321" data-name="Línea 321" x1="48.134" transform="translate(143.787 185.897)" fill="none" stroke="#c4c4c4" stroke-linecap="round" stroke-linejoin="round" stroke-width="3"/>
        <line id="Línea_322" data-name="Línea 322" x1="16.49" transform="translate(98.328 203.231)" fill="none" stroke="#263238" stroke-linecap="round" stroke-linejoin="round" stroke-width="3"/>
        <line id="Línea_323" data-name="Línea 323" x1="16.49" transform="translate(120.166 203.231)" fill="none" stroke="#263238" stroke-linecap="round" stroke-linejoin="round" stroke-width="3"/>
        <line id="Línea_324" data-name="Línea 324" x1="48.134" transform="translate(143.787 203.231)" fill="none" stroke="#c4c4c4" stroke-linecap="round" stroke-linejoin="round" stroke-width="3"/>
        <line id="Línea_325" data-name="Línea 325" x2="16.49" transform="translate(175.431 194.564)" fill="none" stroke="#263238" stroke-linecap="round" stroke-linejoin="round" stroke-width="3"/>
        <line id="Línea_326" data-name="Línea 326" x2="16.49" transform="translate(153.592 194.564)" fill="none" stroke="#263238" stroke-linecap="round" stroke-linejoin="round" stroke-width="3"/>
        <line id="Línea_327" data-name="Línea 327" x2="48.134" transform="translate(98.327 194.564)" fill="none" stroke="#c4c4c4" stroke-linecap="round" stroke-linejoin="round" stroke-width="3"/>
        <rect id="Rectángulo_37516" data-name="Rectángulo 37516" width="5.265" height="5.949" transform="translate(71.347 64.764)" fill="#263238"/>
        <rect id="Rectángulo_37517" data-name="Rectángulo 37517" width="5.265" height="5.949" transform="translate(71.347 74.536)" fill="#263238"/>
        <rect id="Rectángulo_37518" data-name="Rectángulo 37518" width="5.265" height="5.948" transform="translate(71.347 84.31)" fill="#263238"/>
        <rect id="Rectángulo_37519" data-name="Rectángulo 37519" width="5.265" height="5.948" transform="translate(71.347 94.083)" fill="#263238"/>
        <rect id="Rectángulo_37520" data-name="Rectángulo 37520" width="5.265" height="5.949" transform="translate(71.347 103.854)" fill="#263238"/>
        <rect id="Rectángulo_37521" data-name="Rectángulo 37521" width="5.265" height="5.949" transform="translate(71.347 113.627)" fill="#263238"/>
        <rect id="Rectángulo_37522" data-name="Rectángulo 37522" width="5.265" height="5.948" transform="translate(71.347 123.4)" fill="#263238"/>
        <rect id="Rectángulo_37523" data-name="Rectángulo 37523" width="5.265" height="5.949" transform="translate(71.347 133.172)" fill="#263238"/>
        <rect id="Rectángulo_37524" data-name="Rectángulo 37524" width="5.265" height="5.949" transform="translate(71.347 142.944)" fill="#263238"/>
        <rect id="Rectángulo_37525" data-name="Rectángulo 37525" width="5.265" height="5.948" transform="translate(71.347 152.718)" fill="#263238"/>
        <rect id="Rectángulo_37526" data-name="Rectángulo 37526" width="5.265" height="5.948" transform="translate(71.347 162.491)" fill="#263238"/>
        <rect id="Rectángulo_37527" data-name="Rectángulo 37527" width="5.265" height="5.949" transform="translate(71.347 172.262)" fill="#263238"/>
        <rect id="Rectángulo_37528" data-name="Rectángulo 37528" width="5.265" height="5.949" transform="translate(71.347 182.035)" fill="#263238"/>
        <rect id="Rectángulo_37529" data-name="Rectángulo 37529" width="5.265" height="5.949" transform="translate(71.347 191.807)" fill="#263238"/>
        <rect id="Rectángulo_37530" data-name="Rectángulo 37530" width="5.265" height="5.949" transform="translate(71.347 201.58)" fill="#263238"/>
        <rect id="Rectángulo_37531" data-name="Rectángulo 37531" width="5.265" height="5.949" transform="translate(71.347 211.352)" fill="#263238"/>
        <rect id="Rectángulo_37532" data-name="Rectángulo 37532" width="5.265" height="5.949" transform="translate(71.347 221.125)" fill="#263238"/>
        <rect id="Rectángulo_37533" data-name="Rectángulo 37533" width="5.265" height="5.949" transform="translate(71.347 230.897)" fill="#263238"/>
        <path id="Trazado_146712" data-name="Trazado 146712" d="M255.473,395.394s-3.583,1.743-8.65,4.639-8.143,3.8-7.6,5.248,4.343,1.81,10.857,1.991a46.056,46.056,0,0,0,11.763-1.448c.724,0,5.972.181,7.963-.543s.543-6.153.543-6.153-11.836-4.935-14.876-3.734" fill="#fff"/>
        <path id="Trazado_146713" data-name="Trazado 146713" d="M255.473,395.394s-3.583,1.743-8.65,4.639-8.143,3.8-7.6,5.248,4.343,1.81,10.857,1.991a46.056,46.056,0,0,0,11.763-1.448c.724,0,5.972.181,7.963-.543s.543-6.153.543-6.153S258.513,394.193,255.473,395.394Z" fill="none" stroke="#263238" stroke-linecap="round" stroke-linejoin="round" stroke-width="1"/>
        <path id="Trazado_146714" data-name="Trazado 146714" d="M295.192,402.639s-3.7,7.734-5.011,9.476.436,2.613,3.484,3.7,7.84-1.524,11.542-3.267,4.356-9.8,4.356-9.8Z" fill="#fff"/>
        <path id="Trazado_146715" data-name="Trazado 146715" d="M295.192,402.639s-3.7,7.734-5.011,9.476.436,2.613,3.484,3.7,7.84-1.524,11.542-3.267,4.356-9.8,4.356-9.8Z" fill="none" stroke="#263238" stroke-linecap="round" stroke-linejoin="round" stroke-width="1"/>
        <path id="Trazado_146716" data-name="Trazado 146716" d="M314.854,259.509s4.568,9.977,4.319,19.969-10.242,50.468-9.743,55.464,5,8.993,4.5,20.983-3.747,39.219-3.747,39.219.749,4.5.249,6.245a13.756,13.756,0,0,1-1.249,3h-5.245c-3,0-8.744-1-8.744-1.748a61.494,61.494,0,0,1,1.749-6l.25-5.745s-4.746-49.212-5.746-57.455-4.746-47.47-4.746-47.47-8.493,49.468-8.743,51.217,1.249,11.99-1.5,19.485-4.5,25.729-4.5,29.726-1,14.489-1,14.489-5,0-7.744-1.249-4.746-3.248-5.495-3.5l-2.248-.75a28.86,28.86,0,0,1,.749-3.747,35.5,35.5,0,0,1,2.5-5.246l.75-33.473s-.5-18.486,0-21.483a36.5,36.5,0,0,0,.249-6.995c0-1,0-38.227,1.249-46.221a182.887,182.887,0,0,0,1.6-18.327l48.864-5.654Z" fill="#263238"/>
        <path id="Trazado_146717" data-name="Trazado 146717" d="M314.854,259.509s4.568,9.977,4.319,19.969-10.242,50.468-9.743,55.464,5,8.993,4.5,20.983-3.747,39.219-3.747,39.219.749,4.5.249,6.245a13.756,13.756,0,0,1-1.249,3h-5.245c-3,0-8.744-1-8.744-1.748a61.494,61.494,0,0,1,1.749-6l.25-5.745s-4.746-49.212-5.746-57.455-4.746-47.47-4.746-47.47-8.493,49.468-8.743,51.217,1.249,11.99-1.5,19.485-4.5,25.729-4.5,29.726-1,14.489-1,14.489-5,0-7.744-1.249-4.746-3.248-5.495-3.5l-2.248-.75a28.86,28.86,0,0,1,.749-3.747,35.5,35.5,0,0,1,2.5-5.246l.75-33.473s-.5-18.486,0-21.483a36.5,36.5,0,0,0,.249-6.995c0-1,0-38.227,1.249-46.221a182.887,182.887,0,0,0,1.6-18.327l48.864-5.654Z" fill="none" stroke="#263238" stroke-linecap="round" stroke-linejoin="round" stroke-width="1"/>
        <path id="Trazado_146718" data-name="Trazado 146718" d="M312.495,251.843l2.359,7.667s-15.979,10.637-31.312,11.423-20.249-2.919-21.428-3.9.45-7.128.45-7.128,17.1,1.769,25.949-.393,23.982-7.667,23.982-7.667" fill="#6e7fab"/>
        <path id="Trazado_146719" data-name="Trazado 146719" d="M312.495,251.843l2.359,7.667s-15.979,10.637-31.312,11.423-20.249-2.919-21.428-3.9.45-7.128.45-7.128,17.1,1.769,25.949-.393S312.495,251.843,312.495,251.843Z" fill="none" stroke="#263238" stroke-linecap="round" stroke-linejoin="round" stroke-width="1"/>
        <path id="Trazado_146720" data-name="Trazado 146720" d="M262.146,236.826l-7.772,8.37-2.093,2.242,10.164,2.84,1.046-13.153Z" fill="#6e7fab"/>
        <path id="Trazado_146721" data-name="Trazado 146721" d="M262.146,236.826l-7.772,8.37-2.093,2.242,10.164,2.84,1.046-13.153Z" fill="none" stroke="#263238" stroke-linecap="round" stroke-linejoin="round" stroke-width="1"/>
        <path id="Trazado_146722" data-name="Trazado 146722" d="M292.31,179.433s16.654,4.477,17.728,6.267-4.166,41.132-4.92,44.148,1.508,12.441,3.016,14.514,5.843,4.335,5.843,7.917S289.661,264.72,280.99,264.72s-18.325-1.45-19.268-2.393-.147-4.2-.147-4.959.189-22.054.189-22.054-4.9-5.843-6.032-12.818.4-15.844.4-15.844-1.432-12.714-.179-17.549,10.745-8.237,10.745-8.237,9.311-3.94,25.607-1.433" fill="#97aaf3"/>
        <path id="Trazado_146723" data-name="Trazado 146723" d="M292.31,179.433s16.654,4.477,17.728,6.267-4.166,41.132-4.92,44.148,1.508,12.441,3.016,14.514,5.843,4.335,5.843,7.917S289.661,264.72,280.99,264.72s-18.325-1.45-19.268-2.393-.147-4.2-.147-4.959.189-22.054.189-22.054-4.9-5.843-6.032-12.818.4-15.844.4-15.844-1.432-12.714-.179-17.549,10.745-8.237,10.745-8.237S276.014,176.926,292.31,179.433Z" fill="none" stroke="#263238" stroke-linecap="round" stroke-linejoin="round" stroke-width="1"/>
        <path id="Trazado_146724" data-name="Trazado 146724" d="M278.518,232.777a28.169,28.169,0,0,1-6.035-4.2" fill="#97aaf3"/>
        <path id="Trazado_146725" data-name="Trazado 146725" d="M278.518,232.777a28.169,28.169,0,0,1-6.035-4.2" fill="none" stroke="#263238" stroke-linecap="round" stroke-linejoin="round" stroke-width="1"/>
        <path id="Trazado_146726" data-name="Trazado 146726" d="M282.907,234.212a8.626,8.626,0,0,1-2.151-.493" fill="#97aaf3"/>
        <path id="Trazado_146727" data-name="Trazado 146727" d="M282.907,234.212a8.626,8.626,0,0,1-2.151-.493" fill="none" stroke="#263238" stroke-linecap="round" stroke-linejoin="round" stroke-width="1"/>
        <path id="Trazado_146728" data-name="Trazado 146728" d="M263.522,179.465s-1.822,5.222-.486,7.65,6.436,2.793,6.436,2.793-.486-1.457.607-4.129,2.915-6.921,2.915-6.921Z" fill="#263238"/>
        <path id="Trazado_146729" data-name="Trazado 146729" d="M263.522,179.465s-1.822,5.222-.486,7.65,6.436,2.793,6.436,2.793-.486-1.457.607-4.129,2.915-6.921,2.915-6.921Z" fill="none" stroke="#263238" stroke-linecap="round" stroke-linejoin="round" stroke-width="1"/>
        <path id="Trazado_146730" data-name="Trazado 146730" d="M251.5,162.464s.243,4.13.971,5.1,2.793,0,3.158,2.672.485,7.164,1.457,7.528,3.643-.121,3.643-.121,4.493,4.129,5.828,4.736,1.7.728,2.672,0,3.522-2.672,3.522-2.672-1.943,5.586-1.215,7.286,3.4,4.493,6.436,1.7,4.857-9.107,4.857-9.107l-8.014-22.708-21.979-5.22s-2.429,9.106-1.336,10.806" fill="#fff"/>
        <path id="Trazado_146731" data-name="Trazado 146731" d="M251.5,162.464s.243,4.13.971,5.1,2.793,0,3.158,2.672.485,7.164,1.457,7.528,3.643-.121,3.643-.121,4.493,4.129,5.828,4.736,1.7.728,2.672,0,3.522-2.672,3.522-2.672-1.943,5.586-1.215,7.286,3.4,4.493,6.436,1.7,4.857-9.107,4.857-9.107l-8.014-22.708-21.979-5.22S250.407,160.764,251.5,162.464Z" fill="none" stroke="#263238" stroke-linecap="round" stroke-linejoin="round" stroke-width="1"/>
        <path id="Trazado_146732" data-name="Trazado 146732" d="M273.722,160.643s3.886,17.122,4.857,23.558-.728,8.986-.728,8.986,9.714-.608,13.114-6.558,6.315-9.228,4.372-14.936-7.286-23.8-12.386-29.993-16.393-7.651-20.643-6.922-9.108,6.314-11.294,10.443-3.643,12.386-5.1,13.236-2.793,2.915-.607,3.522a27.56,27.56,0,0,0,6.193.485,31.478,31.478,0,0,1,.85-5.707c.607-1.821,1.093-2.914,1.093-2.914s.729,2.064,8.865,4.493,11.171,1.214,11.171,1.214Z" fill="#263238"/>
        <path id="Trazado_146733" data-name="Trazado 146733" d="M273.722,160.643s3.886,17.122,4.857,23.558-.728,8.986-.728,8.986,9.714-.608,13.114-6.558,6.315-9.228,4.372-14.936-7.286-23.8-12.386-29.993-16.393-7.651-20.643-6.922-9.108,6.314-11.294,10.443-3.643,12.386-5.1,13.236-2.793,2.915-.607,3.522a27.56,27.56,0,0,0,6.193.485,31.478,31.478,0,0,1,.85-5.707c.607-1.821,1.093-2.914,1.093-2.914s.729,2.064,8.865,4.493,11.171,1.214,11.171,1.214Z" fill="none" stroke="#263238" stroke-linecap="round" stroke-linejoin="round" stroke-width="1"/>
        <path id="Trazado_146734" data-name="Trazado 146734" d="M253.443,153.843s7.65,10.443,20.886,8.136" fill="none" stroke="#263238" stroke-linecap="round" stroke-linejoin="round" stroke-width="1"/>
        <path id="Trazado_146735" data-name="Trazado 146735" d="M256.722,165.986s1.821-2.914,4.857-1.7" fill="none" stroke="#263238" stroke-linecap="round" stroke-linejoin="round" stroke-width="1"/>
        <path id="Trazado_146736" data-name="Trazado 146736" d="M266.194,173.393a3.321,3.321,0,0,1-1.215,2.914" fill="none" stroke="#263238" stroke-linecap="round" stroke-linejoin="round" stroke-width="1"/>
        <path id="Trazado_146737" data-name="Trazado 146737" d="M259.691,169.089c.3.82.921,1.345,1.394,1.174s.616-.975.319-1.794-.921-1.346-1.394-1.174-.616.974-.319,1.794" fill="#263238"/>
        <path id="Trazado_146738" data-name="Trazado 146738" d="M272.751,179.708l3.036-3.157-2.065,8.864Z" fill="#263238"/>
        <path id="Trazado_146739" data-name="Trazado 146739" d="M272.751,179.708l3.036-3.157-2.065,8.864Z" fill="none" stroke="#263238" stroke-linecap="round" stroke-linejoin="round" stroke-width="1"/>
        <path id="Trazado_146740" data-name="Trazado 146740" d="M259.394,263.183l29.236-13.6-44.146-5.847-22.658,9.5Z" fill="#d1d1d1"/>
        <path id="Trazado_146741" data-name="Trazado 146741" d="M259.394,263.183l29.236-13.6-44.146-5.847-22.658,9.5Z" fill="none" stroke="#263238" stroke-linecap="round" stroke-linejoin="round" stroke-width="1"/>
        <path id="Trazado_146742" data-name="Trazado 146742" d="M258.291,260.609l21.494-9.995-32.456-4.3L230.671,253.3Z" fill="#828282"/>
        <path id="Trazado_146743" data-name="Trazado 146743" d="M258.291,260.609l21.494-9.995-32.456-4.3L230.671,253.3Z" fill="none" stroke="#263238" stroke-linecap="round" stroke-linejoin="round" stroke-width="1"/>
        <path id="Trazado_146744" data-name="Trazado 146744" d="M259.394,263.183l-13.741-32.014-39.907-6.285,16.08,28.359Z" fill="#b2b2b2"/>
        <path id="Trazado_146745" data-name="Trazado 146745" d="M259.394,263.183l-13.741-32.014-39.907-6.285,16.08,28.359Z" fill="none" stroke="#263238" stroke-linecap="round" stroke-linejoin="round" stroke-width="1"/>
        <path id="Trazado_146746" data-name="Trazado 146746" d="M242.583,255.289l3.362,4.532s-1.169,1.315-2.193.877-3.216-6.286-1.169-5.409" fill="#fff"/>
        <path id="Trazado_146747" data-name="Trazado 146747" d="M242.583,255.289l3.362,4.532s-1.169,1.315-2.193.877S240.536,254.412,242.583,255.289Z" fill="none" stroke="#263238" stroke-linecap="round" stroke-linejoin="round" stroke-width="1"/>
        <path id="Trazado_146748" data-name="Trazado 146748" d="M242.437,259.236a3.282,3.282,0,0,1-2.339-.146c-.877-.585-2.485-5.555-1.754-5.7s2.777,3.216,2.777,3.216Z" fill="#fff"/>
        <path id="Trazado_146749" data-name="Trazado 146749" d="M242.437,259.236a3.282,3.282,0,0,1-2.339-.146c-.877-.585-2.485-5.555-1.754-5.7s2.777,3.216,2.777,3.216Z" fill="none" stroke="#263238" stroke-linecap="round" stroke-linejoin="round" stroke-width="1"/>
        <path id="Trazado_146750" data-name="Trazado 146750" d="M240.1,259.09s-3.654-1.023-4.239-1.608-1.754-6.14-.585-5.409,2.778,4.824,2.778,4.824Z" fill="#fff"/>
        <path id="Trazado_146751" data-name="Trazado 146751" d="M240.1,259.09s-3.654-1.023-4.239-1.608-1.754-6.14-.585-5.409,2.778,4.824,2.778,4.824Z" fill="none" stroke="#263238" stroke-linecap="round" stroke-linejoin="round" stroke-width="1"/>
        <path id="Trazado_146752" data-name="Trazado 146752" d="M235.859,257.482s-1.9.292-2.485-.731a4.344,4.344,0,0,1-.146-3.8c.585-1.023,1.462,1.17,1.462,1.17Z" fill="#fff"/>
        <path id="Trazado_146753" data-name="Trazado 146753" d="M235.859,257.482s-1.9.292-2.485-.731a4.344,4.344,0,0,1-.146-3.8c.585-1.023,1.462,1.17,1.462,1.17Z" fill="none" stroke="#263238" stroke-linecap="round" stroke-linejoin="round" stroke-width="1"/>
        <path id="Trazado_146754" data-name="Trazado 146754" d="M300.01,183.194s10.207.716,12.177,2.149,15.173,40.735,15.927,45.825-.942,5.655-1.884,5.655-23,7.163-25.636,7.728-3.2.189-4.147-.565-5.466-6.221-4.147-9.425,3.582-3.77,3.582-3.77l14.325-5.278L298.936,205.4" fill="#97aaf3"/>
        <path id="Trazado_146755" data-name="Trazado 146755" d="M300.01,183.194s10.207.716,12.177,2.149,15.173,40.735,15.927,45.825-.942,5.655-1.884,5.655-23,7.163-25.636,7.728-3.2.189-4.147-.565-5.466-6.221-4.147-9.425,3.582-3.77,3.582-3.77l14.325-5.278L298.936,205.4" fill="none" stroke="#263238" stroke-linecap="round" stroke-linejoin="round" stroke-width="1"/>
        <path id="Trazado_146756" data-name="Trazado 146756" d="M316.966,227.736a13.172,13.172,0,0,0-6.759-2.224" fill="none" stroke="#263238" stroke-linecap="round" stroke-linejoin="round" stroke-width="1"/>
        <path id="Trazado_146757" data-name="Trazado 146757" d="M314.913,224.657a16.291,16.291,0,0,1,6.159,3.7" fill="none" stroke="#263238" stroke-linecap="round" stroke-linejoin="round" stroke-width="1"/>
        <path id="Trazado_146758" data-name="Trazado 146758" d="M284.948,237.388s6.409-2.073,7.351-2.827,3.016-.189,4.147,2.45,0,6.974,0,6.974l-7.54,1.885s-1.885.377-3.769-2.827-2.263-5.467-.189-5.655" fill="#6e7fab"/>
        <path id="Trazado_146759" data-name="Trazado 146759" d="M284.948,237.388s6.409-2.073,7.351-2.827,3.016-.189,4.147,2.45,0,6.974,0,6.974l-7.54,1.885s-1.885.377-3.769-2.827S282.874,237.576,284.948,237.388Z" fill="none" stroke="#263238" stroke-linecap="round" stroke-linejoin="round" stroke-width="1"/>
        <path id="Trazado_146760" data-name="Trazado 146760" d="M268.631,242.432s-3.73,1.536-3.949,2.523-1.427,5.156-1.317,6.034,0,1.316.987,1.1,2.2-2.523,3.072-4.717,1.975-5.047,1.975-5.047Z" fill="#fff"/>
        <path id="Trazado_146761" data-name="Trazado 146761" d="M268.631,242.432s-3.73,1.536-3.949,2.523-1.427,5.156-1.317,6.034,0,1.316.987,1.1,2.2-2.523,3.072-4.717,1.975-5.047,1.975-5.047Z" fill="none" stroke="#263238" stroke-linecap="round" stroke-linejoin="round" stroke-width="1"/>
        <path id="Trazado_146762" data-name="Trazado 146762" d="M284.758,238.592s3.62,2.523,3.73,4.059-3.84,4.059-6.363,4.937a22.746,22.746,0,0,1-6.473.877c-.438,0-6.692,4.169-8.227,4.828s-1.975-.33-1.975-.33-1.207-.219-1.1-.877a7.9,7.9,0,0,1,.987-1.975s.549-2.194,1.207-4.717,4.059-4.279,5.266-4.5,9.873-3.4,12.945-2.3" fill="#fff"/>
        <path id="Trazado_146763" data-name="Trazado 146763" d="M284.758,238.592s3.62,2.523,3.73,4.059-3.84,4.059-6.363,4.937a22.746,22.746,0,0,1-6.473.877c-.438,0-6.692,4.169-8.227,4.828s-1.975-.33-1.975-.33-1.207-.219-1.1-.877a7.9,7.9,0,0,1,.987-1.975s.549-2.194,1.207-4.717,4.059-4.279,5.266-4.5S281.686,237.495,284.758,238.592Z" fill="none" stroke="#263238" stroke-linecap="round" stroke-linejoin="round" stroke-width="1"/>
        <path id="Trazado_146764" data-name="Trazado 146764" d="M274.116,246.052a23.477,23.477,0,0,0-3.511,1.646c-.438.438-5.156,5.265-5.156,5.265" fill="none" stroke="#263238" stroke-linecap="round" stroke-linejoin="round" stroke-width="1"/>
        <line id="Línea_328" data-name="Línea 328" x1="6.143" y2="6.582" transform="translate(265.34 243.529)" fill="none" stroke="#263238" stroke-linecap="round" stroke-linejoin="round" stroke-width="1"/>
      </g>
    </g>
  </g>
</svg>
