<svg id="Grupo_142245" data-name="Grupo 142245" xmlns="http://www.w3.org/2000/svg" xmlns:xlink="http://www.w3.org/1999/xlink" width="116.156" height="111.083" viewBox="0 0 116.156 111.083">
  <defs>
    <clipPath id="clip-path">
      <rect id="Rectángulo_37562" data-name="Rectángulo 37562" width="116.156" height="111.083" fill="none"/>
    </clipPath>
  </defs>
  <g id="Grupo_142244" data-name="Grupo 142244" clip-path="url(#clip-path)">
    <path id="Trazado_146858" data-name="Trazado 146858" d="M116.156,85.207a22.112,22.112,0,0,1-1.339,2.17,5.066,5.066,0,0,1-3.831,1.66.959.959,0,0,0-1.114.793,18.074,18.074,0,0,1-1.069,2.611.913.913,0,0,0,.143,1.255c2.261,2.447,2.174,5.252-.184,7.634-.824.833-1.644,1.671-2.486,2.486a5.052,5.052,0,0,1-7.389.1c-.46-.436-.806-.6-1.336-.208a1.847,1.847,0,0,1-.612.29c-1.776.468-2.95,1.2-3.126,3.418-.166,2.089-2.434,3.575-4.607,3.644-1.36.043-2.722.02-4.083.012a5.066,5.066,0,0,1-5.368-5.082c-.036-.725-.235-1.119-.937-1.25a1.48,1.48,0,0,1-.425-.149c-1.614-.867-2.99-1.362-4.728.211-1.458,1.319-4.022.822-5.549-.54a43.5,43.5,0,0,1-3.535-3.515,4.936,4.936,0,0,1,.106-6.79c.6-.633.732-1.12.227-1.818a4.523,4.523,0,0,1-.424-.923c-.9-2.157-.9-2.157-3.193-2.157q-8.279,0-16.559,0a2.273,2.273,0,0,1-2.57-2.25,2.222,2.222,0,0,1,2.493-2.3c3.97-.012,7.94-.041,11.908.022.979.015,1.206-.283,1.14-1.192-.081-1.128-.044-2.268-.013-3.4A5.065,5.065,0,0,1,62.8,74.7c.667-.028,1.062-.179,1.18-.863a2.42,2.42,0,0,1,.23-.636c.738-1.51,1.294-2.78-.212-4.428-1.427-1.561-.926-4.217.557-5.827,1.075-1.167,2.2-2.3,3.37-3.365A4.966,4.966,0,0,1,74.8,59.7c.569.532,1.008.7,1.636.221a1.327,1.327,0,0,1,.411-.185c1.713-.535,2.919-1.226,3.133-3.444.2-2.027,1.932-3.264,4.044-3.554a26.35,26.35,0,0,1,5.1-.061A4.946,4.946,0,0,1,94,57.521c.055.865.311,1.32,1.157,1.433a1.033,1.033,0,0,1,.311.133c1.616.829,3.17,1.495,4.711-.253a2.5,2.5,0,0,1,2.131-.586c.979.13.991-.347.988-1.084-.021-6.314-.012-12.628-.012-18.941,0-.718-.039-1.44.011-2.154.047-.665-.119-1.028-.86-.906a2.831,2.831,0,0,1-.453,0q-48.031,0-96.063-.031c-1.186,0-1.393.33-1.39,1.433q.06,19.792.021,39.584a9.475,9.475,0,0,0,1.608,5.675,5.874,5.874,0,0,0,5.084,2.679c4.158-.027,8.317-.011,12.476-.006,1.659,0,2.685.854,2.711,2.223.026,1.412-1.038,2.328-2.74,2.331-4.083.006-8.169-.092-12.248.023C4.551,89.271.637,83.325.193,78.67c-.2-.369.076-.819-.193-1.177V11.924c.241-.426.061-.89.117-1.334A11.035,11.035,0,0,1,10.9.015Q53.835-.008,96.769,0c4.994,0,8.683,3.192,10.413,7.414a18.84,18.84,0,0,1,1.141,7.234q.037,22.233,0,44.466a5.06,5.06,0,0,0,1.145,3.529,5.215,5.215,0,0,1,.276,6.887,2.018,2.018,0,0,0-.218,2.4,3.647,3.647,0,0,1,.383.944A2,2,0,0,0,112,74.5c2.288.175,3.646,1.7,4.16,4.351Z" transform="translate(0 0)"/>
    <path id="Trazado_146859" data-name="Trazado 146859" d="M0,35.509a.145.145,0,0,1,.191-.046A1.264,1.264,0,0,1,0,36.643Z" transform="translate(0 -24.719)" fill="#4c4c4c"/>
    <path id="Trazado_146860" data-name="Trazado 146860" d="M0,256.079a1.262,1.262,0,0,1,.193,1.177l-.1.009L0,257.214Z" transform="translate(0 -178.586)" fill="#4e4e4e"/>
    <path id="Trazado_146861" data-name="Trazado 146861" d="M151.19,164.476a2.208,2.208,0,0,1,1.712.9c2.062,2.312,4.138,4.611,6.176,6.943a3.081,3.081,0,0,1,0,4.4q-3.052,3.5-6.172,6.946a2.294,2.294,0,1,1-3.406-3.048c1.617-1.847,3.245-3.686,4.906-5.494.425-.462.425-.731,0-1.2-1.685-1.837-3.324-3.715-4.979-5.58a2.236,2.236,0,0,1-.447-2.523,2.211,2.211,0,0,1,2.21-1.348" transform="translate(-103.751 -114.701)"/>
    <path id="Trazado_146862" data-name="Trazado 146862" d="M42.756,174.539a3.24,3.24,0,0,1,.835-2.179c2.081-2.344,4.154-4.7,6.254-7.022a2.279,2.279,0,0,1,3.316-.352,2.305,2.305,0,0,1,.065,3.418c-1.591,1.819-3.182,3.64-4.832,5.405-.517.554-.445.87.022,1.378,1.661,1.807,3.291,3.643,4.907,5.491a2.215,2.215,0,0,1,.258,2.823,2.168,2.168,0,0,1-2.463.962,2.4,2.4,0,0,1-1.3-.844q-3.088-3.469-6.171-6.944a3.354,3.354,0,0,1-.887-2.136" transform="translate(-29.817 -114.666)"/>
    <path id="Trazado_146863" data-name="Trazado 146863" d="M108.34,161.294c-.557,2.371-1.147,4.9-1.749,7.432q-1.335,5.608-2.684,11.213a2.909,2.909,0,0,1-.985,1.853,2.149,2.149,0,0,1-2.544.148,2.112,2.112,0,0,1-1.056-2.415q1.051-4.572,2.141-9.135,1.134-4.785,2.288-9.565c.427-1.753,1.853-2.569,3.279-1.894a2.311,2.311,0,0,1,1.311,2.362" transform="translate(-69.218 -110.673)"/>
    <path id="Trazado_146864" data-name="Trazado 146864" d="M110.425,281.51a2.284,2.284,0,0,1-2.306,2.276,2.349,2.349,0,0,1-2.3-2.3,2.288,2.288,0,0,1,2.326-2.252,2.249,2.249,0,0,1,2.284,2.277" transform="translate(-73.794 -194.734)" fill="#010101"/>
    <path id="Trazado_146865" data-name="Trazado 146865" d="M64.237,41.878q-23.983,0-47.966.026c-1.066,0-1.291-.306-1.282-1.315.05-5.367.028-10.735.021-16.1a10.37,10.37,0,0,1,.675-3.88,6.316,6.316,0,0,1,6.436-4.388h84.252c4.17,0,7.14,2.562,7.268,6.734.186,6.08.076,12.17.1,18.255,0,.464-.121.717-.633.675-.3-.025-.6,0-.907,0H64.237" transform="translate(-10.453 -11.31)" fill="#89a7bc"/>
    <path id="Trazado_146866" data-name="Trazado 146866" d="M218.865,230.113a3.1,3.1,0,0,0-2.192,1.15c-1.752,1.768-1.761,1.76-3.468.053-1.951-1.951-1.951-1.951-.021-3.952a2.386,2.386,0,0,0,.391-3.448,19.957,19.957,0,0,1-2.238-5.413c-.391-1.574-1.094-2.073-2.766-2.084-2.722-.018-2.722-.018-2.722-2.794,0-2.422,0-2.422,2.473-2.437,1.924-.012,2.594-.516,3.054-2.335a20.04,20.04,0,0,1,2.111-5.1c.921-1.6.816-2.332-.441-3.624-1.861-1.914-1.87-1.922.023-3.791,2.073-2.046,1.5-2.032,3.569-.007,1.377,1.345,2.108,1.434,3.8.448a20.007,20.007,0,0,1,5.211-2.142c1.582-.4,2.1-1.1,2.115-2.747.033-2.724.033-2.724,2.773-2.724,2.456,0,2.456,0,2.471,2.439.012,1.929.5,2.584,2.347,3.039a19.748,19.748,0,0,1,5.208,2.146c1.568.912,2.351.819,3.622-.42,1.9-1.854,1.9-1.854,3.8.038,1.776,1.776,1.776,1.776.012,3.554-1.383,1.394-1.485,2.106-.488,3.8a20.924,20.924,0,0,1,2.15,5.211c.449,1.663,1.119,2.189,2.795,2.219,2.7.049,2.707.049,2.7,2.792-.008,2.7.314,2.432-2.408,2.439-2.118.005-2.652.391-3.185,2.419a19.937,19.937,0,0,1-2.089,4.991c-.929,1.594-.836,2.337.428,3.619,1.862,1.887,1.862,1.887-.048,3.8-1.774,1.778-1.774,1.778-3.558.012-1.414-1.4-2.087-1.5-3.791-.493a21.176,21.176,0,0,1-5.321,2.174,2.313,2.313,0,0,0-2.054,2.659c-.041,2.837-.041,2.845-2.922,2.834-2.589-.01-2.31.312-2.32-2.275-.009-2.259-.4-2.8-2.528-3.357a19.315,19.315,0,0,1-5.078-2.165,3.366,3.366,0,0,0-1.412-.524" transform="translate(-143.557 -131.921)" fill="#cbf4fb"/>
    <path id="Trazado_146867" data-name="Trazado 146867" d="M217.276,48.877c-3.44,0-6.881.054-10.32-.014a7.654,7.654,0,0,1-1.863-15.042,8.279,8.279,0,0,1,2.123-.3c6.691-.022,13.383-.053,20.074,0a7.68,7.68,0,0,1,6.024,12.542,7.371,7.371,0,0,1-5.944,2.809c-3.364.033-6.729.008-10.094.008Z" transform="translate(-139.075 -23.357)"/>
    <path id="Trazado_146868" data-name="Trazado 146868" d="M60.171,41.219a7.65,7.65,0,1,1-7.616-7.665,7.656,7.656,0,0,1,7.616,7.665" transform="translate(-31.292 -23.4)"/>
    <path id="Trazado_146869" data-name="Trazado 146869" d="M125.829,41.2a7.675,7.675,0,1,1-7.652-7.644,7.692,7.692,0,0,1,7.652,7.644" transform="translate(-77.046 -23.403)"/>
    <path id="Trazado_146870" data-name="Trazado 146870" d="M241.118,238.4a13.978,13.978,0,1,1,14.043,13.935A13.953,13.953,0,0,1,241.118,238.4" transform="translate(-168.152 -156.496)"/>
    <path id="Trazado_146871" data-name="Trazado 146871" d="M227.862,48.7c3.289,0,6.578-.033,9.867.01,2.5.032,4.021,2.158,3.1,4.283a3.027,3.027,0,0,1-2.96,1.907c-6.691.02-13.383.032-20.074-.006a3.095,3.095,0,1,1,.085-6.182c3.326-.04,6.653-.011,9.98-.012" transform="translate(-149.658 -33.956)" fill="#cbf4fb"/>
    <path id="Trazado_146872" data-name="Trazado 146872" d="M59.959,51.8a3.08,3.08,0,1,1,3.025,3.16,3.134,3.134,0,0,1-3.025-3.16" transform="translate(-41.815 -34.014)" fill="#cbf4fb"/>
    <path id="Trazado_146873" data-name="Trazado 146873" d="M128.772,48.781a3.109,3.109,0,0,1,3.139,3.042,3.165,3.165,0,0,1-3.057,3.145,3.106,3.106,0,0,1-3.113-3.063,3.055,3.055,0,0,1,3.031-3.124" transform="translate(-87.69 -34.019)" fill="#db71a8"/>
    <path id="Trazado_146874" data-name="Trazado 146874" d="M256.272,248.889a9.394,9.394,0,0,1,18.788.006,9.394,9.394,0,1,1-18.788-.006" transform="translate(-178.721 -167.034)" fill="#fefefe"/>
  </g>
</svg>
