<svg id="Grupo_142247" data-name="Grupo 142247" xmlns="http://www.w3.org/2000/svg" xmlns:xlink="http://www.w3.org/1999/xlink" width="117.547" height="117.549" viewBox="0 0 117.547 117.549">
  <defs>
    <clipPath id="clip-path">
      <rect id="Rectángulo_37563" data-name="Rectángulo 37563" width="117.547" height="117.549" fill="none"/>
    </clipPath>
  </defs>
  <g id="Grupo_142246" data-name="Grupo 142246" clip-path="url(#clip-path)">
    <path id="Trazado_146875" data-name="Trazado 146875" d="M55.789,0h5.74a3.17,3.17,0,0,1,3.08,2.868,3.822,3.822,0,0,0,3.3,3.362,14.217,14.217,0,0,1,3.664,1.608,1.583,1.583,0,0,0,1.621.023c.818-.414,1.64-.821,2.472-1.208A3.231,3.231,0,0,1,79.128,7a17.884,17.884,0,0,1,3.835,3.753,3.651,3.651,0,0,1,.364,4.093,2.841,2.841,0,0,1-.315.609c-1.3,1.524-1.049,3.008-.051,4.592a12.076,12.076,0,0,1,1.395,3.5,1.912,1.912,0,0,0,1.618,1.54,12.333,12.333,0,0,1,2.279.766,3.2,3.2,0,0,1,2.015,2.206,15.256,15.256,0,0,1,.017,6.582,3.2,3.2,0,0,1-2.242,2.271,26.736,26.736,0,0,0-2.926,1.092c1.624.67,3.063,1.127,4.476,1.636,8.266,2.975,16.545,5.913,24.812,8.885a9.06,9.06,0,0,1,1.848.9c1,.641,1.027,1.713,1.3,2.685v1.837c-.234,1.958-1.6,2.8-3.273,3.383-5.945,2.071-11.856,4.236-17.824,6.338,5.88,2.051,11.7,4.192,17.557,6.24.18.063.358.133.538.2a3.891,3.891,0,0,1,3,3.587v1.836c-.269,1.82-1.486,2.684-3.109,3.267-4.852,1.742-9.712,3.46-14.563,5.205a1.3,1.3,0,0,1-1.139.107c5.343,1.806,10.576,3.774,15.855,5.61,1.677.583,2.852,1.58,2.955,3.49v1.836c-.22,1.96-1.56,2.8-3.249,3.409-10.392,3.743-20.809,7.419-31.2,11.161-6.652,2.4-13.327,4.727-19.962,7.167a34.006,34.006,0,0,1-3.673.763H57.855c-4.809-.855-9.22-2.937-13.784-4.535-10.063-3.524-20.093-7.141-30.123-10.757C10.46,101,6.962,99.769,3.475,98.509a.529.529,0,0,0-.11-.034C1.617,97.948.207,97.09,0,95.049V92.983C.192,91.1,1.475,90.3,3.083,89.716c4.993-1.81,10.013-3.542,15.149-5.442a38.734,38.734,0,0,0-4.443-1.667C10.307,81.334,6.811,80.1,3.317,78.86c-.108-.038-.212-.087-.321-.122-1.589-.515-2.8-1.386-3-3.2V73.468a3.687,3.687,0,0,1,2.8-3.236c5.056-1.861,10.141-3.64,15.217-5.448a26.961,26.961,0,0,1,3.16-1.083c-5.9-2.09-11.769-4.253-17.679-6.292-.108-.037-.216-.079-.324-.115C1.514,56.751.235,55.848,0,53.953V51.887c.2-2.034,1.629-2.828,3.344-3.434,7.365-2.6,14.7-5.286,22.068-7.88.324-.114.65-.224.979-.317a2.458,2.458,0,0,1,3.28,1.453c.295,1.652-.228,2.569-1.984,3.219-2.33.863-4.675,1.692-7.018,2.52-4.831,1.709-9.645,3.461-14.484,5.146-.213.074-.416.17-.727.313,3.433,1.253,6.776,2.42,10.107,3.62,11.188,4.032,22.4,8,33.589,12.022,2.915,1.047,5.828,2.1,8.749,3.132a2.525,2.525,0,0,0,1.784-.072q15.224-5.463,30.466-10.875c7.271-2.6,14.54-5.208,21.989-7.831-2.629-.977-5.137-1.853-7.636-2.751q-9.986-3.588-19.984-7.14c-.536-.19-1.187-.728-1.641.006-.48.777-1.225,1.544-.724,2.616.389.832.921,1.589,1.283,2.436a3.556,3.556,0,0,1-.39,3.8,19.334,19.334,0,0,1-3.737,3.705,3.171,3.171,0,0,1-3.861.318,4.825,4.825,0,0,0-5.987-.055,8.852,8.852,0,0,1-2.781,1.054,1.965,1.965,0,0,0-1.653,1.654,13.527,13.527,0,0,1-.6,1.855,3.818,3.818,0,0,1-3.617,2.712,27.3,27.3,0,0,1-4.13,0c-1.754-.134-3.182-.952-3.544-2.745a4.665,4.665,0,0,0-4.036-4.105,11.249,11.249,0,0,1-3.127-1.416,1.6,1.6,0,0,0-1.625-.028c-.854.428-1.709.859-2.585,1.245a3.156,3.156,0,0,1-3.265-.33,16.752,16.752,0,0,1-4.065-4.01,3.506,3.506,0,0,1-.36-3.6,2.775,2.775,0,0,1,.353-.719c1.348-1.616,1.237-3.215.085-4.9a6.156,6.156,0,0,1-.9-2.222c-.339-1.819-1.475-2.654-3.25-3.122-2.616-.69-3.17-1.679-3.319-4.367-.066-1.188.019-2.361.031-3.54a3.632,3.632,0,0,1,2.368-3.468.736.736,0,0,1,.214-.08c2.51-.262,3.744-1.774,4.247-4.144A12.575,12.575,0,0,1,35.3,18.557a1.665,1.665,0,0,0-.082-1.827A13.678,13.678,0,0,1,34.11,14.6a3.513,3.513,0,0,1,.409-3.778,19.17,19.17,0,0,1,3.82-3.768,3,3,0,0,1,3.643-.314c2.2,1.543,4.247,1.344,6.406-.008A13.048,13.048,0,0,1,51.382,5.6,1.326,1.326,0,0,0,52.36,4.59c.151-.591.4-1.155.556-1.746A3.347,3.347,0,0,1,55.789,0" fill="#373737"/>
    <path id="Trazado_146876" data-name="Trazado 146876" d="M123.073,223.862c-6.431,2.292-12.8,4.562-19.167,6.834l-34.332,12.25a2.575,2.575,0,0,1-1.875.122q-26.541-9.523-53.1-19c-.179-.064-.351-.145-.532-.221.144-.417.548-.385.843-.491,7.409-2.658,14.827-5.291,22.228-7.97a2.874,2.874,0,0,1,2.1.09c9.062,3.252,18.134,6.48,27.186,9.761a5.914,5.914,0,0,0,4.233.007c8.985-3.242,17.987-6.437,26.967-9.69a3.889,3.889,0,0,1,2.857.011c7.183,2.607,14.388,5.157,21.581,7.737a1.681,1.681,0,0,1,1.013.558" transform="translate(-9.76 -149.318)" fill="#4e97eb"/>
    <path id="Trazado_146877" data-name="Trazado 146877" d="M123.116,289.9c-2.981,1.068-5.706,2.05-8.435,3.023q-22.625,8.066-45.246,16.146a3.154,3.154,0,0,1-2.3-.013Q41.074,299.708,15,290.391a2.241,2.241,0,0,1-1.173-.588l11.031-3.951c3.13-1.121,6.265-2.231,9.388-3.371A2.4,2.4,0,0,1,36,282.45c9.96,3.588,19.935,7.133,29.887,10.743a6.785,6.785,0,0,0,4.89.019c9.919-3.59,19.863-7.107,29.789-10.68a2.831,2.831,0,0,1,2.078,0c6.5,2.353,13.022,4.671,19.535,7,.214.077.423.169.932.374" transform="translate(-9.593 -195.849)" fill="#3685db"/>
    <path id="Trazado_146878" data-name="Trazado 146878" d="M38.51,132.73l4.619-1.651a33.582,33.582,0,0,0,2.081,4.332.921.921,0,0,1-.029,1.056c-.479.87-.942,1.75-1.406,2.628a2.985,2.985,0,0,0,.417,3.61,28.952,28.952,0,0,0,3.416,3.391,2.633,2.633,0,0,0,3.388.383,5.1,5.1,0,0,1,6.609-.088,9.26,9.26,0,0,0,3.108,1.128,1.548,1.548,0,0,1,1.3,1.352c.163.744.457,1.457.657,2.194a3.068,3.068,0,0,0,3.044,2.483c1.488.063,2.983.062,4.471,0a2.9,2.9,0,0,0,3.008-2.494c.387-2.349,1.491-3.764,3.956-4.2a11.189,11.189,0,0,0,3.73-1.72,1.194,1.194,0,0,1,1.376-.017c.824.481,1.679.91,2.526,1.353a2.955,2.955,0,0,0,3.518-.365,28.117,28.117,0,0,0,3.483-3.486,2.951,2.951,0,0,0,.405-3.421c-.165-.344-.358-.675-.537-1.013-1.257-2.367-1.245-2.36.032-4.707.241-.443.452-.618.975-.43q14.769,5.315,29.546,10.6a1.993,1.993,0,0,1,.355.248c-4.624,1.65-9.188,3.279-13.754,4.907q-19.639,7-39.272,14.024a4.477,4.477,0,0,1-3.281.016q-25.976-9.356-51.985-18.62c-.285-.1-.565-.221-1.04-.408,1.449-.524,2.73-.99,4.014-1.449q9.71-3.469,19.421-6.936c1.591-.569,1.931-1.081,1.849-2.707" transform="translate(-9.176 -90.938)" fill="#67abf5"/>
    <path id="Trazado_146879" data-name="Trazado 146879" d="M129.834,67.438c-1.367.4-1.825-.252-2.173-1.438-1.211-4.135-.64-3.532-4.454-4.539a18.362,18.362,0,0,1-5.581-2.609,2.259,2.259,0,0,0-2.671-.1,19.468,19.468,0,0,1-2.125,1.124c-.465.21-.931.828-1.426.51a7.519,7.519,0,0,1-2.024-2.006c-.182-.257.105-.5.221-.725.507-.985,1.031-1.96,1.558-2.934a2.164,2.164,0,0,0-.089-2.38,21.714,21.714,0,0,1-3.19-7.672,2.194,2.194,0,0,0-1.68-1.825c-1.03-.284-2.031-.672-3.066-.932-.6-.15-.757-.443-.786-1.027-.118-2.334-.17-2.472,2.11-2.987a4.359,4.359,0,0,0,3.847-3.959,15.245,15.245,0,0,1,2.646-5.925,2.407,2.407,0,0,0,.111-2.784c-.514-.893-.955-1.829-1.477-2.717a.852.852,0,0,1,.149-1.187c1.633-1.8,1.616-1.819,3.728-.7a8.858,8.858,0,0,1,.908.488,2.97,2.97,0,0,0,3.779-.089,17.153,17.153,0,0,1,6.523-2.687,2.755,2.755,0,0,0,2.474-2.322c.126-.634.434-1.234.532-1.869.183-1.193.777-1.548,2-1.557a1.869,1.869,0,0,1,2.182,1.635c1.1,3.815.6,3.576,4.381,4.468a17.086,17.086,0,0,1,5.589,2.588,2.352,2.352,0,0,0,2.773.1c.852-.507,1.771-.9,2.62-1.414a.97.97,0,0,1,1.383.189c1.676,1.6,1.7,1.575.605,3.633a8.236,8.236,0,0,1-.49.907,2.973,2.973,0,0,0,.094,3.784,18.026,18.026,0,0,1,2.743,6.749,2.529,2.529,0,0,0,2.04,2.184,18.24,18.24,0,0,0,2.306.66c1.33.142,1.275,1.024,1.279,1.965,0,.977-.013,1.691-1.3,2.071-4.381,1.295-3.719.515-4.829,4.73a17.909,17.909,0,0,1-2.531,5.367,2.338,2.338,0,0,0-.1,2.682c.359.63.724,1.261,1.019,1.922.238.533.937,1.074.6,1.611a10.692,10.692,0,0,1-1.9,1.967c-.282.259-.567-.046-.824-.179-.982-.512-1.964-1.024-2.935-1.556a2.045,2.045,0,0,0-2.27.053,22.66,22.66,0,0,1-7.992,3.31,2.019,2.019,0,0,0-1.568,1.513c-.258.839-.561,1.669-.744,2.525-.245,1.142-.726,1.844-1.967,1.376" transform="translate(-70.975 -8.738)" fill="#d8dce2"/>
    <path id="Trazado_146880" data-name="Trazado 146880" d="M120.818,259.206a1.993,1.993,0,0,1-2.809,2.013c-3.816-1.341-7.618-2.72-11.426-4.082q-4.9-1.755-9.809-3.508c-1.375-.494-1.961-1.467-1.59-2.6s1.472-1.577,2.824-1.1q10.57,3.762,21.132,7.542c.946.337,1.591.879,1.677,1.729" transform="translate(-65.96 -173.264)" fill="#373737"/>
    <path id="Trazado_146881" data-name="Trazado 146881" d="M120.833,323.246c-.013,1.6-1.325,2.395-2.9,1.851-2.632-.911-5.25-1.863-7.872-2.8-4.491-1.607-8.985-3.2-13.467-4.835a1.942,1.942,0,0,1-.763-3.415,2.137,2.137,0,0,1,2.267-.191q7.809,2.805,15.626,5.591,2.8,1,5.6,2a2.005,2.005,0,0,1,1.5,1.8" transform="translate(-65.967 -217.581)" fill="#373737"/>
    <path id="Trazado_146882" data-name="Trazado 146882" d="M151.963,44.856A17.6,17.6,0,1,1,134.309,62.4a17.654,17.654,0,0,1,17.654-17.541" transform="translate(-93.179 -31.119)" fill="#373737"/>
    <path id="Trazado_146883" data-name="Trazado 146883" d="M160.855,85.028a13.692,13.692,0,1,1,13.7-13.645,13.728,13.728,0,0,1-13.7,13.645" transform="translate(-102.048 -39.992)" fill="#bcc1cb"/>
    <path id="Trazado_146884" data-name="Trazado 146884" d="M169.635,89.981A9.775,9.775,0,1,1,179.5,80.3a9.81,9.81,0,0,1-9.869,9.683" transform="translate(-110.922 -48.862)" fill="#373737"/>
    <path id="Trazado_146885" data-name="Trazado 146885" d="M178.635,94.938a5.861,5.861,0,1,1,5.866-5.811,5.875,5.875,0,0,1-5.866,5.811" transform="translate(-119.847 -57.733)" fill="#d8dce2"/>
  </g>
</svg>
