<svg id="Grupo_142249" data-name="Grupo 142249" xmlns="http://www.w3.org/2000/svg" xmlns:xlink="http://www.w3.org/1999/xlink" width="124.497" height="124.497" viewBox="0 0 124.497 124.497">
  <defs>
    <clipPath id="clip-path">
      <rect id="Rectángulo_37564" data-name="Rectángulo 37564" width="124.497" height="124.497" fill="none"/>
    </clipPath>
  </defs>
  <g id="Grupo_142248" data-name="Grupo 142248" clip-path="url(#clip-path)">
    <path id="Trazado_146886" data-name="Trazado 146886" d="M54.71,0H69.786c4.142.774,6.39,3.511,6.4,7.789,0,.567,0,1.134,0,1.7,0,2.027,0,2.035,1.884,2.617a46.526,46.526,0,0,1,9.158,3.857,1.25,1.25,0,0,0,1.73-.2c.678-.7,1.364-1.384,2.063-2.059a7.593,7.593,0,0,1,10.549-.47,78.952,78.952,0,0,1,9.922,9.966,7.548,7.548,0,0,1-.606,10.183c-.725.763-1.487,1.49-2.224,2.241a1.135,1.135,0,0,0-.185,1.53,46.728,46.728,0,0,1,4.085,9.849,1.616,1.616,0,0,0,1.836,1.329,15.781,15.781,0,0,1,4.237.119c3.258.828,5.409,2.766,5.866,6.256V70.029c-.944,4.029-3.627,6.114-7.8,6.16-4.536.05-3.372-.692-4.848,3.494a44.8,44.8,0,0,1-3.266,7.437,1.366,1.366,0,0,0,.234,1.929c.762.725,1.518,1.46,2.226,2.239a7.584,7.584,0,0,1,.287,10.194,87.158,87.158,0,0,1-9.86,9.86,7.586,7.586,0,0,1-10.193-.3c-.806-.738-1.557-1.534-2.328-2.308a1.192,1.192,0,0,0-1.621-.256,44.914,44.914,0,0,1-9.732,4.046,1.722,1.722,0,0,0-1.442,2,14.127,14.127,0,0,1-.117,4.114c-.848,3.237-2.727,5.446-6.254,5.859H54.467c-4.028-.944-6.146-3.628-6.151-7.8,0-.567,0-1.134,0-1.7,0-2.03,0-2.032-1.887-2.614a46.14,46.14,0,0,1-9.157-3.856,1.255,1.255,0,0,0-1.731.2c-.709.722-1.417,1.446-2.151,2.142a7.735,7.735,0,0,1-10.206.642,7.33,7.33,0,0,1-.865-.667c-3.088-3.091-6.367-6-9.164-9.368A7.634,7.634,0,0,1,13.535,91.2c.718-.769,1.476-1.5,2.226-2.239a1.256,1.256,0,0,0,.2-1.731,47.825,47.825,0,0,1-3.971-9.5c-.474-1.54-.494-1.535-2.134-1.541-.769,0-1.538,0-2.307,0A7.6,7.6,0,0,1,.594,72.1,15.809,15.809,0,0,1,0,70.029V54.467c.944-4.026,3.628-6.146,7.79-6.152H9.611c1.906,0,1.915,0,2.459-1.769a46.671,46.671,0,0,1,3.894-9.273,1.258,1.258,0,0,0-.2-1.733c-.749-.739-1.508-1.47-2.225-2.24a7.709,7.709,0,0,1-.555-10.116,60.947,60.947,0,0,1,5.711-5.952A38.529,38.529,0,0,1,23.275,12.9a7.748,7.748,0,0,1,9.935.551c.807.738,1.557,1.534,2.329,2.308a1.192,1.192,0,0,0,1.619.267,44.935,44.935,0,0,1,9.731-4.048,1.721,1.721,0,0,0,1.45-2,14.374,14.374,0,0,1,.114-4.115C49.287,2.61,51.22.457,54.71,0"/>
    <path id="Trazado_146887" data-name="Trazado 146887" d="M72.327,129.746c-1.945,0-3.89.012-5.834,0s-2.888-.977-2.9-2.933c-.013-1.823.008-3.646-.006-5.47a2.492,2.492,0,0,0-2.238-2.834,49.544,49.544,0,0,1-13.829-5.751c-1.45-.882-2.356-.738-3.58.464-1.3,1.278-2.568,2.589-3.876,3.859-1.423,1.382-2.729,1.383-4.127,0q-4.185-4.151-8.335-8.339c-1.329-1.344-1.322-2.671,0-4.038,1.3-1.337,2.643-2.629,3.946-3.961a2.43,2.43,0,0,0,.438-3.487A49.293,49.293,0,0,1,26.2,83.309a2.463,2.463,0,0,0-2.763-2.171c-1.9-.016-3.809.014-5.713-.011a2.522,2.522,0,0,1-2.74-2.721q-.035-6.078,0-12.155A2.5,2.5,0,0,1,17.666,63.6c1.863-.029,3.727,0,5.591-.01,1.782-.008,2.532-.548,2.956-2.24A49.037,49.037,0,0,1,31.965,47.52c.881-1.437.736-2.366-.462-3.583-1.279-1.3-2.589-2.568-3.862-3.873-1.383-1.419-1.387-2.725,0-4.127Q31.8,31.751,35.984,27.6c1.342-1.328,2.67-1.322,4.039,0,1.339,1.3,2.633,2.639,3.963,3.944a2.418,2.418,0,0,0,3.482.442,49.645,49.645,0,0,1,14.061-5.82,2.4,2.4,0,0,0,2.051-2.614c.026-1.945-.01-3.89.013-5.834a2.519,2.519,0,0,1,2.721-2.738q6.017-.034,12.034,0a2.538,2.538,0,0,1,2.776,2.809c.019,1.823,0,3.646.006,5.47.008,1.783.546,2.532,2.24,2.954A48.7,48.7,0,0,1,97.2,31.965c1.433.881,2.369.735,3.584-.459,1.3-1.278,2.568-2.589,3.874-3.862,1.418-1.382,2.726-1.388,4.127,0q4.188,4.149,8.336,8.338c1.324,1.339,1.315,2.671-.009,4.043-1.294,1.34-2.637,2.634-3.943,3.964a2.418,2.418,0,0,0-.439,3.481,49.5,49.5,0,0,1,5.789,13.944,2.465,2.465,0,0,0,2.765,2.17c1.9.016,3.809-.014,5.713.011a2.521,2.521,0,0,1,2.739,2.72q.035,6.017,0,12.033a2.541,2.541,0,0,1-2.808,2.779c-1.863.02-3.728,0-5.591.008a2.486,2.486,0,0,0-2.834,2.234,49.2,49.2,0,0,1-5.75,13.829c-.885,1.446-.742,2.358.461,3.579,1.279,1.3,2.589,2.568,3.858,3.877,1.378,1.421,1.383,2.737,0,4.13q-4.149,4.187-8.338,8.336c-1.344,1.329-2.673,1.318-4.04-.007-1.338-1.3-2.63-2.642-3.962-3.946a2.427,2.427,0,0,0-3.485-.439,49.184,49.184,0,0,1-13.942,5.791,2.461,2.461,0,0,0-2.174,2.761c-.017,1.9.013,3.809-.01,5.713a2.535,2.535,0,0,1-2.719,2.744c-2.025.028-4.052.006-6.077.007" transform="translate(-10.11 -10.113)" fill="#89a7bc"/>
    <path id="Trazado_146888" data-name="Trazado 146888" d="M96.41,92.9a12.271,12.271,0,0,1,4.872-3.509c1.63.9,3.091.46,4.686-.3a32.2,32.2,0,0,1,15.806-3.147,34.54,34.54,0,0,1,32.495,29.245,33.182,33.182,0,0,1-2.777,19.425c-.743,1.6-1.206,3.056-.3,4.686a12.281,12.281,0,0,1-3.5,4.869.888.888,0,0,1-.7-.007c-2.073-.5-3.31.735-2.811,2.8a.9.9,0,0,1,.011.7,11.269,11.269,0,0,1-4.87,3.5c-1.629-.951-3.089-.453-4.675.3a32.364,32.364,0,0,1-15.808,3.149,34.549,34.549,0,0,1-32.5-29.244,33.321,33.321,0,0,1,2.716-19.321c.747-1.635,1.31-3.11.363-4.792A9.91,9.91,0,0,1,93,96.455c.22-.188.449-.075.678-.024,2.036.447,3.223-.781,2.739-2.835a.907.907,0,0,1-.008-.7" transform="translate(-58.051 -58.034)" fill="#b7ebbb"/>
    <path id="Trazado_146889" data-name="Trazado 146889" d="M79.892,132.529c1.286,1.383,1.335,1.979.332,4.029a34.031,34.031,0,0,0,45.214,45.684c1.521-.724,2.975-1.444,4.362.192.779,1.939.38,2.918-1.58,3.879a38.883,38.883,0,0,1-55.508-26.836,37.867,37.867,0,0,1,3.475-25.692c.838-1.654,1.883-1.994,3.706-1.256" transform="translate(-48.536 -89.295)"/>
    <path id="Trazado_146890" data-name="Trazado 146890" d="M182.43,129.927c-1.273-1.372-1.334-1.984-.394-3.924,7.12-14.683,3.4-31.845-9.521-41.8-11.114-8.561-23.306-9.6-36.065-3.784-1.937.883-2.55.871-3.929-.4-.767-1.887-.373-2.915,1.468-3.825a38.878,38.878,0,0,1,55.619,26.78,37.938,37.938,0,0,1-3.527,25.8c-.781,1.538-1.892,1.865-3.653,1.148" transform="translate(-89.291 -48.664)"/>
    <path id="Trazado_146891" data-name="Trazado 146891" d="M264.516,268.012c-.733-1.5-.677-2.426.2-3.3s1.8-.931,3.305-.2c1.293,1.785.922,3.6-.857,4.206a2.632,2.632,0,0,1-2.647-.7" transform="translate(-178.382 -178.378)" fill="#010101"/>
    <path id="Trazado_146892" data-name="Trazado 146892" d="M109.32,105.755c.731,1.478.687,2.444-.2,3.3a2.467,2.467,0,0,1-3.2.253c-1.4-1.7-1.117-3.529.656-4.223a2.583,2.583,0,0,1,2.752.668" transform="translate(-70.96 -70.889)" fill="#010101"/>
    <path id="Trazado_146893" data-name="Trazado 146893" d="M120.675,153.425a7.958,7.958,0,0,1,4.885-7.157,7.729,7.729,0,0,1,8.718,1.316c1.618,1.4,3.1,2.975,4.572,4.532.6.631.921.71,1.59.03,4.146-4.217,8.3-8.425,12.545-12.544a8.138,8.138,0,0,1,13.315,2.9c1.308,3.46.459,6.514-2.136,9.109L148.61,167.159c-1.031,1.031-2.042,2.084-3.1,3.089a8.132,8.132,0,0,1-11.75-.05c-3.55-3.5-7.05-7.042-10.576-10.561a8.457,8.457,0,0,1-2.511-6.211" transform="translate(-81.536 -92.745)"/>
    <path id="Trazado_146894" data-name="Trazado 146894" d="M172.161,155.543a3.573,3.573,0,0,1-1.085,2.625q-9.4,9.4-18.815,18.8a3.264,3.264,0,0,1-4.952-.017q-5.27-5.207-10.477-10.477a3.346,3.346,0,1,1,4.707-4.742c1.971,1.922,3.9,3.888,5.845,5.834,1.891,1.889,2.921,1.9,4.781.039q7-7,14-13.993c2.091-2.078,5.11-1.424,5.86,1.234a6.64,6.64,0,0,1,.133.7" transform="translate(-91.675 -102.961)" fill="#cbf4fb"/>
  </g>
</svg>
