<svg id="Grupo_142251" data-name="Grupo 142251" xmlns="http://www.w3.org/2000/svg" xmlns:xlink="http://www.w3.org/1999/xlink" width="126.864" height="126.864" viewBox="0 0 126.864 126.864">
  <defs>
    <clipPath id="clip-path">
      <rect id="Rectángulo_37565" data-name="Rectángulo 37565" width="126.864" height="126.864" fill="none"/>
    </clipPath>
  </defs>
  <g id="Grupo_142250" data-name="Grupo 142250" clip-path="url(#clip-path)">
    <path id="Trazado_146895" data-name="Trazado 146895" d="M0,63.927V62.688a4.091,4.091,0,0,1,1.134-1.719,37.232,37.232,0,0,0,3.573-3.761,3.3,3.3,0,0,0,.673-1.563A57.94,57.94,0,0,1,18.8,25.452a65.655,65.655,0,0,1,4.623-4.81c1.1-1.07,1.847-1.087,3.2-.259.984,1.263.938,2.178-.352,3.445a60.658,60.658,0,0,0-6.811,7.825,54.437,54.437,0,0,0-8.871,19.478c1.1-1.2,2.069-2.163,3.041-3.121,1.708-1.682,2.865-1.6,4.4.285a40.41,40.41,0,0,0,3.031,3.626,47.9,47.9,0,0,1,5.057-11.651,44.527,44.527,0,0,1,9.332-10.656A43.539,43.539,0,0,1,56.6,20.019,34.88,34.88,0,0,1,62.25,19.5c2.693.007,3.141.381,3.59,3.2,2-1.649,3.942-3.207,5.872-4.785.7-.511,1.352-1.082,2.045-1.6.583-.437.665-.829.085-1.39-2.635-2.548-5.129-5.243-8.039-7.648-.541.669-.943,1.507-1.889,1.77a10.741,10.741,0,0,1-2.7.191,52.222,52.222,0,0,0-19.416,4.4,55.369,55.369,0,0,0-9.063,5.05c-1.447.967-2.237.918-3.443-.106-.672-1.643-.5-2.408,1.01-3.49A55.081,55.081,0,0,1,43.77,8.146,56.122,56.122,0,0,1,60.193,4.869c.839-.04,1.2-.4,1.168-1.218-.017-.452.022-.908,0-1.359A1.97,1.97,0,0,1,62.937,0h1.239A4.069,4.069,0,0,1,65.9,1.131a37.881,37.881,0,0,0,3.591,3.4,3.938,3.938,0,0,0,1.914.8A56.985,56.985,0,0,1,101.6,18.855a57.781,57.781,0,0,1,20.066,37.016,21.443,21.443,0,0,1,.327,4.189c-.055.936.38,1.38,1.335,1.319.452-.029.909.016,1.362,0a1.9,1.9,0,0,1,2.178,1.562v1.239a3.8,3.8,0,0,1-1.411,1.969,12.358,12.358,0,0,0-4.422,8.187,55.793,55.793,0,0,1-13.172,27.439,37.128,37.128,0,0,1-3.788,4.074c-1.4,1.2-2.257,1.226-3.59.129a2.48,2.48,0,0,1,.515-3.339c1.65-1.727,3.392-3.36,4.876-5.251a55.113,55.113,0,0,0,6.922-11.237,47.557,47.557,0,0,0,3.437-10.206c-1.022.978-2.017,1.962-3.016,2.943-1.663,1.633-2.854,1.559-4.325-.249-.936-1.15-1.828-2.335-2.844-3.521a2.453,2.453,0,0,0-.533,1.232,43.962,43.962,0,0,1-36.5,30.682,28.7,28.7,0,0,1-4.311.339c-2.8-.046-3.166-.315-3.69-3.126-1.885,1.315-3.534,2.864-5.32,4.236-.851.653-1.654,1.37-2.522,2-.685.5-.824.9-.1,1.526.933.81,1.757,1.743,2.655,2.6,1.5,1.656,3.243,3.053,4.84,4.6.319.31.567.463.837-.061a2.988,2.988,0,0,1,3.024-1.519,48.9,48.9,0,0,0,12.843-1.678,52.851,52.851,0,0,0,15.774-6.984c.658-.426,1.288-.9,1.968-1.287A2.281,2.281,0,0,1,98.05,108c.7,1.628.5,2.464-.958,3.5a56.088,56.088,0,0,1-13.185,6.962,57.061,57.061,0,0,1-17.237,3.539c-.84.037-1.2.4-1.165,1.218.016.452-.022.908,0,1.359a1.969,1.969,0,0,1-1.578,2.292H62.689a3.311,3.311,0,0,1-1.714-1.141c-2.284-2.889-5.229-4.166-8.909-4.842a56.216,56.216,0,0,1-32.16-18.2,57.637,57.637,0,0,1-14.542-31.3,48.34,48.34,0,0,1-.481-4.92c-.024-.662-.291-.991-.973-.978-.577.011-1.157-.022-1.733,0A1.9,1.9,0,0,1,0,63.927" transform="translate(0 0.001)"/>
    <path id="Trazado_146896" data-name="Trazado 146896" d="M148.922,109.394c-.5,0-.991.016-1.487,0a1.714,1.714,0,0,0-1.692,1.019,1.756,1.756,0,0,0,.241,2.068c1.3,1.6,2.548,3.247,3.908,4.8a2.227,2.227,0,0,1,.549,2.229c-3.776,15.213-13.092,25.255-28.037,30.02a39.925,39.925,0,0,1-8.26,1.491c-.8.079-1.118-.1-1.048-.955.073-.9,0-1.816.02-2.723a1.885,1.885,0,0,0-3.148-1.466c-1.631,1.329-3.3,2.618-4.9,3.978a1.833,1.833,0,0,1-1.68.447c-15.371-2.848-28.453-16.1-31.2-31.616-.281-1.585-.452-3.182-.626-4.782-.089-.825.168-1,.916-.957.9.055,1.816,0,2.723.017a1.76,1.76,0,0,0,1.755-1.118,1.732,1.732,0,0,0-.273-1.958c-1.345-1.67-2.665-3.363-4.05-5a1.693,1.693,0,0,1-.4-1.574,39.985,39.985,0,0,1,33.092-31.558c1.143-.163,2.294-.262,3.438-.421.591-.082.819.1.79.721-.043.906.019,1.817-.019,2.724a1.9,1.9,0,0,0,1.1,2.019,1.956,1.956,0,0,0,2.255-.479c1.525-1.263,3.113-2.453,4.6-3.757a2.051,2.051,0,0,1,2.024-.478c14.594,3.489,24.52,12.249,29.678,26.35a38.141,38.141,0,0,1,1.976,9.412c.153,1.552.144,1.553-1.384,1.554h-.867" transform="translate(-47.899 -47.742)" fill="#fefefe"/>
    <path id="Trazado_146897" data-name="Trazado 146897" d="M229.542,39.662c.628-.53,1.253-1.064,1.884-1.59,1.374-1.143,1.4-2.136.187-3.427-1.259-1.343-2.449-2.75-3.486-3.923a11.506,11.506,0,0,1,3.148.778c21.73,7.072,34.751,21.812,38.923,44.312a51.888,51.888,0,0,1,.637,7.392c.085,2.1.24,2.313,2.327,2.912-2.918,3.03-5.81,6.022-8.684,9.032-.372.39-.591.429-.951-.021-2.391-2.992-4.8-5.966-7.221-8.957.336-.393.728-.215,1.061-.223,1.9-.047,2.47-.634,2.45-2.572A43.2,43.2,0,0,0,254.3,62.693c-.257-.467-.5-.943-.744-1.416a51.551,51.551,0,0,0-6.425-9.205,41.718,41.718,0,0,0-16.791-11.479c-.389-.149-1.08-.155-.794-.93" transform="translate(-152.731 -20.568)" fill="#feb957"/>
    <path id="Trazado_146898" data-name="Trazado 146898" d="M26.97,191.739a49.976,49.976,0,0,1-4.643-15.409,48.144,48.144,0,0,1-.522-6.9c0-1.977-.428-2.444-2.518-2.8,1.675-1.746,3.289-3.432,4.907-5.114,1.259-1.309,2.525-2.61,3.781-3.921.294-.308.512-.653.946-.11,2.415,3.019,4.853,6.02,7.268,9.008-.109.118-.155.213-.206.215-3.088.155-3.385.52-3.193,3.947a43.674,43.674,0,0,0,32.186,40.137c.116.033.232.068.6.177-1.477,1.194-2.832,2.294-4.193,3.388-1.747,1.405-1.824,2.156-.384,3.851-.235.69-.723.285-1.065.195a40.205,40.205,0,0,1-6.051-2.159,57.266,57.266,0,0,1-18.8-13.215,44.927,44.927,0,0,1-7.741-10.818.956.956,0,0,0-.379-.473" transform="translate(-12.913 -105.245)" fill="#8ac9fe"/>
    <path id="Trazado_146899" data-name="Trazado 146899" d="M47.247,33.587c1.139-.5,1.917-1.507,2.961-2.141a2.229,2.229,0,0,0,2.934-.039A53.678,53.678,0,0,1,83.4,21.754c1.946-.029,2.355-.4,2.743-2.458,1.236,1.184,2.414,2.307,3.587,3.436,1.784,1.717,3.536,3.467,5.361,5.139.622.569.531.855-.082,1.286-.84.59-1.634,1.245-2.448,1.872-1.368.423-2.689-.136-4.017-.262A41.835,41.835,0,0,0,69.371,33.28c-9.258,3.539-16.181,9.8-21.293,18.192a11.514,11.514,0,0,0-1.123,1.909,48.247,48.247,0,0,0-5.1,12.264c-1.248-1.537-2.381-2.928-3.508-4.324-1.384-1.714-2.263-1.735-3.829-.2-1.2,1.175-2.468,2.272-3.659,3.36a46.059,46.059,0,0,1,2.346-7.833A54.38,54.38,0,0,1,46.6,36.691c1.3-1.239,1.389-1.723.65-3.1" transform="translate(-20.662 -12.919)" fill="#fee17a"/>
    <path id="Trazado_146900" data-name="Trazado 146900" d="M160.7,265.233q-1.621-1.522-3.243-3.044c-.26-.243-.477-.442-.061-.776,3.042-2.444,6.072-4.9,9.172-7.411.525,3.65.525,3.65,4.219,3.521,18.423-.642,34.689-13.605,39.952-31.839.065-.227.137-.453.27-.893,1.22,1.5,2.324,2.861,3.424,4.222,1.324,1.637,2.27,1.683,3.745.167,1.123-1.154,2.237-2.316,3.36-3.469.048-.049.148-.048.225-.068.273,1.414-1.784,7.9-3.517,11.093a75.014,75.014,0,0,1-3.934,6.418c-9.246,12.12-21.294,19.644-36.353,22.251a63.886,63.886,0,0,1-15.909.388,3.211,3.211,0,0,1-1.351-.56" transform="translate(-105.223 -150.498)" fill="#97da7c"/>
    <path id="Trazado_146901" data-name="Trazado 146901" d="M167.868,289.429c1.422.161,2.841.413,4.267.467a58.83,58.83,0,0,0,19.031-1.956,60.071,60.071,0,0,0,13.982-6.09,57.313,57.313,0,0,0,12.995-10.9,45.851,45.851,0,0,0,6.519-9.091c.189-.353.284-.794.752-.925A50.356,50.356,0,0,1,216,275.161c-.749.821-1.519,1.63-2.345,2.371a2.264,2.264,0,0,0-.641,2.972,16.277,16.277,0,0,1-2.776,2.263,2.335,2.335,0,0,0-3.043.089,53.584,53.584,0,0,1-30.577,9.856c-2.022.027-2.413.367-2.887,2.471l-5.858-5.753" transform="translate(-112.388 -174.694)" fill="#81d261"/>
    <path id="Trazado_146902" data-name="Trazado 146902" d="M79.556,75.521a21.369,21.369,0,0,1,3.14-5.54,41.629,41.629,0,0,1,27.527-17.1,43.087,43.087,0,0,1,14.94.286L118.9,58.356c-.442-.329-.247-.726-.257-1.054-.056-1.84-.653-2.48-2.475-2.423-14.673.456-26.339,6.644-35.053,18.436-.535.724-1.04,1.47-1.559,2.206" transform="translate(-53.263 -35.058)" fill="#f8ce58"/>
    <path id="Trazado_146903" data-name="Trazado 146903" d="M42.533,261.706c.728.265.76,1.027,1.1,1.563a59.188,59.188,0,0,0,10.027,12.3,55.886,55.886,0,0,0,19.3,11.645,9.323,9.323,0,0,0,3.6.959l3.851,3.592a28.617,28.617,0,0,1-7.635-1.988A54.329,54.329,0,0,1,43,262.841c-.185-.363-.312-.756-.465-1.135" transform="translate(-28.476 -175.212)" fill="#6cc3fe"/>
    <path id="Trazado_146904" data-name="Trazado 146904" d="M227.456,57.772c.079.624.656.549,1.038.7a44.034,44.034,0,0,1,13.684,8.371,46.207,46.207,0,0,1,8.777,11.177,2.391,2.391,0,0,1,.511,1.368,50.152,50.152,0,0,0-7.874-9.468,44.1,44.1,0,0,0-18.58-10.077,11.612,11.612,0,0,1,2.445-2.07" transform="translate(-150.645 -38.678)" fill="#feab3e"/>
    <path id="Trazado_146905" data-name="Trazado 146905" d="M149.007,154.885c-1.456.056-2.433-.839-3.392-1.658a2.2,2.2,0,0,0-3.1-.267,12.729,12.729,0,0,1-4.225,1.682,1.1,1.1,0,0,0-1.012,1.148,17.116,17.116,0,0,1-.471,2.927,3.314,3.314,0,0,1-3.2,2.616c-1.237.05-2.478.045-3.715.011-1.8-.05-3.38-1.186-3.4-2.945-.037-2.733-1.183-4.173-3.857-4.582a4.832,4.832,0,0,1-2-.936,1.779,1.779,0,0,0-2.663.183,9.506,9.506,0,0,1-1.689,1.248,3.436,3.436,0,0,1-4.332-.349c-.916-.832-1.793-1.712-2.629-2.624a3.377,3.377,0,0,1-.351-4.422c.654-.995,1.835-1.911,1.923-2.936s-.913-2.127-1.4-3.209a5.478,5.478,0,0,1-.632-1.731c-.122-1.619-1.154-1.949-2.489-2.019a10.469,10.469,0,0,1-1.711-.261c-1.811-.4-2.812-1.792-2.774-3.975.043-2.478-.7-5.331,2.708-6.381a11.487,11.487,0,0,1,1.585-.269,11.454,11.454,0,0,1,1.468-.212c.561-.015.782-.293.911-.794a20.025,20.025,0,0,1,2.216-5.342.907.907,0,0,0-.073-1.205c-.6-.734-1.158-1.5-1.684-2.293a3.4,3.4,0,0,1,.344-4.52c.812-.878,1.662-1.726,2.544-2.535a3.413,3.413,0,0,1,4.425-.363c1,.651,1.91,1.843,2.936,1.932s2.111-.929,3.193-1.415a7.06,7.06,0,0,1,1.976-.685c1.362-.16,1.706-.984,1.746-2.167a11.477,11.477,0,0,1,.268-1.835,3.459,3.459,0,0,1,3.378-2.89c1.237-.04,2.478-.04,3.715,0a3.326,3.326,0,0,1,3.279,2.669c.284,1.235.1,2.814.816,3.645s2.3.941,3.5,1.374a2.516,2.516,0,0,1,.785.353c1.66,1.415,2.967.772,4.439-.47,2.076-1.751,3.737-1.543,5.655.366.644.641,1.3,1.27,1.916,1.937,1.28,1.386,1.609,3.261.348,4.6-1.877,1.986-2.072,3.824-.476,5.988a3.717,3.717,0,0,1,.633,1.726c.184,1.645,1.187,2.1,2.659,2.149a6.215,6.215,0,0,1,2.163.451c2.837,1.191,2.129,3.753,2.219,5.99.072,1.787-.417,3.331-2.265,3.968a13.959,13.959,0,0,1-3.264.635,1.191,1.191,0,0,0-1.234,1.056,18.68,18.68,0,0,1-2.072,5,1.076,1.076,0,0,0,.083,1.427,23.829,23.829,0,0,1,1.68,2.294,3.256,3.256,0,0,1,.013,3.833,17.7,17.7,0,0,1-3.47,3.509,2.7,2.7,0,0,1-1.939.569" transform="translate(-68.187 -68.144)"/>
    <path id="Trazado_146906" data-name="Trazado 146906" d="M156.41,158.525c-.375-.269-.778-.553-1.177-.843-3.636-2.638-2.983-2.867-6.731-.568a14.622,14.622,0,0,1-5.1,1.816,2.214,2.214,0,0,0-2,2.155c-.106.982-.371,1.952-.42,2.935-.045.9-.361,1.28-1.272,1.136a3.075,3.075,0,0,0-.988,0c-.955.166-1.194-.353-1.28-1.168-.111-1.065-.339-2.117-.464-3.18a1.949,1.949,0,0,0-1.728-1.824,19.873,19.873,0,0,1-7.263-3,2.037,2.037,0,0,0-2.618.095c-.913.706-1.874,1.354-2.771,2.08-.52.421-.832.374-1.311-.1-1.627-1.622-1.634-1.586-.263-3.479,2.09-2.887,2.429-2.564.383-5.8a15.67,15.67,0,0,1-2.044-5.54,2.122,2.122,0,0,0-2.045-1.947c-1.106-.12-2.2-.361-3.3-.468-.689-.067-.872-.352-.882-1.021-.033-2.253-.071-2.475,2.164-2.57,2.765-.117,4.162-1.239,4.56-4.02a12.783,12.783,0,0,1,2.4-5.246,2.127,2.127,0,0,0-.089-2.824c-.7-.868-1.311-1.8-2-2.674-.362-.456-.432-.764.02-1.25,1.632-1.757,1.61-1.778,3.541-.342a.756.756,0,0,1,.1.075c1.751,1.807,3.487,2.038,5.617.409a12.489,12.489,0,0,1,5.384-2.073c1.3-.241,2.091-.829,2.2-2.228.078-.984.321-1.953.417-2.937.077-.78.329-1.133,1.213-1.118,2.194.037,2.335-.019,2.443,2.193.126,2.565.992,4.1,3.8,4.456a12.6,12.6,0,0,1,5.369,2.426A2.185,2.185,0,0,0,153.2,122c.832-.676,1.749-1.245,2.575-1.926a.874.874,0,0,1,1.431.07c1.577,1.595,1.619,1.576.279,3.368-2.432,3.252-2.257,2.782-.433,5.908a16.226,16.226,0,0,1,1.964,5.307,2.323,2.323,0,0,0,2.393,2.186c.983.053,1.951.342,2.935.424.752.063.945.384.952,1.1.021,2.228.052,2.24-2.12,2.569-3.76.569-3.628.106-4.538,3.936a16,16,0,0,1-2.439,5.246,2.163,2.163,0,0,0,.071,2.834c.537.679,1.061,1.373,1.537,2.095.3.455,1.072.892.758,1.406a11.266,11.266,0,0,1-1.883,1.945c-.046.045-.15.031-.275.054" transform="translate(-75.734 -75.655)" fill="#fe4755"/>
    <path id="Trazado_146907" data-name="Trazado 146907" d="M154.744,171.178c-1.644-.743-1.713-2.351-1.92-3.772a13.025,13.025,0,0,1,25.579-4.847,12.508,12.508,0,0,1-2.171,10.555,2.7,2.7,0,0,0-.206.427,8.236,8.236,0,0,1-4.223,3.794,12.775,12.775,0,0,1-12.613-.25c-1.373-.78-1.654-1.849-.9-3.314.922-1.044,1.934-.988,3.118-.4a8.647,8.647,0,0,0,9.968-1,8.366,8.366,0,0,0,3.095-8.73,8.578,8.578,0,0,0-6.444-6.831,8.96,8.96,0,0,0-11,10.9c.3,1.342.585,2.635-.923,3.48a1.193,1.193,0,0,1-1.358-.013" transform="translate(-102.222 -102.033)"/>
    <path id="Trazado_146908" data-name="Trazado 146908" d="M162.618,211.527c-.625,1.611-.373,2.3,1.133,3.1a13.011,13.011,0,0,0,15.508-2.461c.312-.324.627-.644.941-.967a2.4,2.4,0,0,1-.48,1.62,11.153,11.153,0,0,1-20.746-2.751,7.642,7.642,0,0,1-.058-1.231l1.3-.185a9.7,9.7,0,0,1,2.4,2.876" transform="translate(-106.395 -139.692)" fill="#fb2b3a"/>
    <path id="Trazado_146909" data-name="Trazado 146909" d="M165.259,181.435a11.351,11.351,0,0,1-2.4-2.876,2.145,2.145,0,0,0,.79-2.706,9.307,9.307,0,1,1,18.118-3.8,8.739,8.739,0,0,1-3.887,8.568,8.865,8.865,0,0,1-9.587.686c-1.108-.553-2.06-.8-3.037.131" transform="translate(-109.037 -109.599)" fill="#fefefe"/>
  </g>
</svg>
