<?xml version="1.0" encoding="utf-8"?>
<!-- Generator: Adobe Illustrator 26.0.3, SVG Export Plug-In . SVG Version: 6.00 Build 0)  -->
<svg version="1.1" id="Layer_1" xmlns="http://www.w3.org/2000/svg" xmlns:xlink="http://www.w3.org/1999/xlink" x="0px" y="0px"
	 viewBox="0 0 543 184" style="enable-background:new 0 0 543 184;" xml:space="preserve">
<style type="text/css">
	.st0{fill:#F9FBFC;}
	.st1{fill:#12263F;}
	.st2{clip-path:url(#SVGID_00000121280908681601417630000008191856942536776092_);}
	.st3{fill:#52C6FE;}
	.st4{fill:#0060FE;}
	.st5{fill:#0043DF;}
	.st6{fill:#009EFE;}
	.st7{fill:#0144E0;}
	.st8{fill:#DCE9FA;}
	.st9{fill:#D9E9FA;}
	.st10{fill:#DAE9FA;}
	.st11{fill:#DBE9FA;}
	.st12{fill:#DDEAFA;}
	.st13{fill:#DCEAFA;}
	.st14{fill:#D6E8FA;}
	.st15{fill:#E2EBFA;}
	.st16{fill:#DFEAFA;}
	.st17{fill:#D7E8FA;}
	.st18{fill:#DEEAFA;}
	.st19{fill:#E0EBFA;}
	.st20{fill:#E0EAFA;}
	.st21{fill:#D5E1FA;}
	.st22{fill:#D0DEFA;}
	.st23{fill:#E6ECFA;}
	.st24{fill:#0082FE;}
</style>
<g id="Grupo_142206" transform="translate(-529 -2184)">
	<g id="Grupo_142205">
		<g id="Grupo_142204">
			<g transform="matrix(1, 0, 0, 1, 529, 2184)">
				<path id="Rectángulo_37499-2" class="st0" d="M37,6h469c15.5,0,28,12.5,28,28v110c0,15.5-12.5,28-28,28H37
					c-15.5,0-28-12.5-28-28V34C9,18.5,21.5,6,37,6z"/>
			</g>
			<path id="Trazado_146643" class="st1" d="M744.4,2258.7h-4.1l-0.8,2.3h-2.5l4.2-11.4h2.2l4.3,11.4h-2.5L744.4,2258.7z
				 M741,2256.8h2.8l-1.4-4.3L741,2256.8z M753.2,2258.7c0-0.3-0.2-0.5-0.4-0.7c-0.4-0.2-0.9-0.4-1.3-0.4c-2-0.4-3-1.3-3-2.6
				c0-0.7,0.3-1.4,0.9-1.9c0.7-0.5,1.6-0.8,2.4-0.8c0.9,0,1.8,0.2,2.6,0.8c0.6,0.5,1,1.2,1,2h-2.3c0-0.3-0.1-0.6-0.3-0.8
				c-0.3-0.2-0.6-0.3-1-0.3c-0.3,0-0.6,0.1-0.9,0.3c-0.2,0.2-0.3,0.4-0.3,0.7c0,0.3,0.1,0.5,0.4,0.6c0.4,0.2,0.8,0.3,1.2,0.4
				c0.5,0.1,1,0.2,1.4,0.4c1.1,0.3,1.8,1.2,1.8,2.3c0,0.8-0.4,1.5-1,1.9c-0.8,0.5-1.7,0.8-2.6,0.7c-0.6,0-1.3-0.1-1.9-0.4
				c-0.5-0.2-1-0.6-1.3-1c-0.3-0.4-0.5-0.9-0.5-1.4h2.1c0,0.4,0.2,0.7,0.4,0.9c0.3,0.2,0.7,0.3,1.1,0.3c0.3,0,0.7-0.1,1-0.2
				C753.1,2259.2,753.2,2258.9,753.2,2258.7L753.2,2258.7z M760.8,2261.2c-1.1,0-2.2-0.4-3-1.1c-0.8-0.8-1.2-1.9-1.2-3v-0.2
				c0-0.8,0.2-1.6,0.5-2.3c0.3-0.6,0.8-1.2,1.4-1.5c0.6-0.4,1.3-0.6,2.1-0.5c1-0.1,2,0.3,2.7,1.1c0.7,0.9,1.1,2,1,3.1v0.9h-5.4
				c0.1,0.5,0.3,1,0.7,1.3c0.4,0.3,0.9,0.5,1.4,0.5c0.8,0,1.6-0.3,2-0.9l1.1,1.2c-0.4,0.5-0.8,0.9-1.4,1.1
				C762.1,2261,761.4,2261.2,760.8,2261.2L760.8,2261.2z M760.5,2254.2c-0.4,0-0.8,0.2-1.1,0.5c-0.3,0.4-0.5,0.8-0.5,1.3h3.1v-0.2
				c0-0.4-0.1-0.8-0.4-1.2C761.3,2254.3,760.9,2254.2,760.5,2254.2L760.5,2254.2z M765.2,2256.7c-0.1-1.1,0.3-2.2,0.9-3.1
				c0.6-0.8,1.5-1.2,2.5-1.2c0.8,0,1.6,0.3,2.2,1l0.1-0.8h2v8.2c0,0.7-0.2,1.3-0.5,1.9c-0.3,0.5-0.8,1-1.4,1.2
				c-0.7,0.3-1.4,0.4-2.1,0.4c-0.6,0-1.2-0.1-1.8-0.4c-0.5-0.2-1-0.5-1.3-1l1-1.4c0.5,0.6,1.3,1,2,0.9c0.5,0,1-0.1,1.4-0.5
				c0.4-0.4,0.5-0.9,0.5-1.4v-0.5c-0.5,0.6-1.3,0.9-2.1,0.9c-1,0-1.9-0.4-2.5-1.2C765.5,2259.1,765.1,2257.9,765.2,2256.7
				L765.2,2256.7z M767.4,2256.9c0,0.6,0.1,1.3,0.5,1.8c0.3,0.4,0.8,0.7,1.3,0.7c0.6,0,1.2-0.3,1.5-0.8v-3.6
				c-0.3-0.5-0.9-0.8-1.5-0.8c-0.5,0-1,0.2-1.3,0.7C767.6,2255.5,767.4,2256.2,767.4,2256.9L767.4,2256.9z M779.7,2260.1
				c-0.6,0.7-1.4,1.1-2.3,1c-0.8,0.1-1.5-0.2-2.1-0.8c-0.5-0.6-0.8-1.5-0.7-2.3v-5.5h2.3v5.5c0,0.9,0.4,1.3,1.2,1.3
				c0.6,0.1,1.3-0.2,1.6-0.8v-6h2.3v8.5h-2.1L779.7,2260.1z M788.3,2254.7c-0.3,0-0.5-0.1-0.8-0.1c-0.7-0.1-1.4,0.3-1.7,0.9v5.5
				h-2.3v-8.5h2.1l0.1,1c0.4-0.7,1.1-1.2,1.9-1.2c0.2,0,0.5,0,0.7,0.1L788.3,2254.7z M794.1,2261c-0.1-0.2-0.2-0.5-0.2-0.8
				c-0.5,0.6-1.3,0.9-2.1,0.9c-0.8,0-1.5-0.2-2.1-0.7c-0.5-0.5-0.8-1.1-0.8-1.8c0-0.8,0.3-1.6,1-2.1c0.9-0.5,1.9-0.8,2.9-0.7h1v-0.5
				c0-0.3-0.1-0.7-0.3-0.9c-0.2-0.3-0.6-0.4-0.9-0.4c-0.3,0-0.6,0.1-0.9,0.3c-0.2,0.2-0.3,0.5-0.3,0.8H789c0-0.5,0.2-1,0.5-1.4
				c0.3-0.4,0.8-0.8,1.3-1c0.6-0.2,1.2-0.4,1.9-0.4c0.9,0,1.8,0.2,2.5,0.8c0.6,0.6,1,1.4,0.9,2.2v3.7c0,0.6,0.1,1.2,0.3,1.8v0.1
				H794.1z M792.2,2259.4c0.3,0,0.6-0.1,0.9-0.2c0.3-0.1,0.5-0.3,0.6-0.6v-1.5h-0.8c-1.1,0-1.7,0.4-1.8,1.2l0,0.1
				c0,0.3,0.1,0.5,0.3,0.7C791.6,2259.3,791.9,2259.4,792.2,2259.4z M799.9,2252.5l0.1,1c0.6-0.7,1.5-1.2,2.4-1.1
				c0.8-0.1,1.5,0.2,2,0.8c0.5,0.7,0.7,1.5,0.7,2.4v5.5h-2.3v-5.4c0-0.4-0.1-0.7-0.3-1c-0.3-0.2-0.7-0.4-1-0.3
				c-0.6,0-1.1,0.3-1.4,0.8v6h-2.3v-8.5H799.9z M806.4,2256.7c-0.1-1.1,0.3-2.2,0.9-3.1c0.6-0.8,1.5-1.2,2.4-1.2
				c0.8,0,1.5,0.3,2,0.9v-4.3h2.3v12h-2l-0.1-0.9c-0.5,0.7-1.3,1.1-2.2,1.1c-0.9,0-1.8-0.4-2.4-1.2
				C806.6,2259,806.3,2257.9,806.4,2256.7z M808.6,2256.9c0,0.6,0.1,1.3,0.4,1.8c0.3,0.4,0.7,0.7,1.2,0.6c0.6,0,1.2-0.3,1.5-0.9
				v-3.3c-0.3-0.6-0.8-0.9-1.5-0.9C809.2,2254.2,808.6,2255.1,808.6,2256.9z M815.4,2256.7c0-0.8,0.2-1.5,0.5-2.2
				c0.3-0.6,0.8-1.2,1.4-1.5c0.6-0.4,1.4-0.6,2.1-0.5c1,0,2,0.3,2.8,1c0.7,0.8,1.2,1.8,1.2,2.8l0,0.6c0.1,1.1-0.3,2.3-1.1,3.1
				c-1.6,1.6-4.2,1.6-5.8,0c-0.8-0.9-1.1-2-1.1-3.2V2256.7z M817.7,2256.9c0,0.6,0.1,1.3,0.5,1.8c0.5,0.7,1.6,0.8,2.3,0.3
				c0.1-0.1,0.2-0.2,0.3-0.3c0.4-0.6,0.5-1.3,0.5-2c0-0.6-0.1-1.3-0.5-1.8c-0.3-0.4-0.8-0.7-1.3-0.6c-0.5,0-1,0.2-1.3,0.6
				C817.8,2255.5,817.6,2256.2,817.7,2256.9L817.7,2256.9z M833.8,2260.1c-0.6,0.7-1.4,1.1-2.3,1c-0.8,0.1-1.5-0.2-2.1-0.8
				c-0.5-0.6-0.8-1.5-0.7-2.3v-5.5h2.3v5.5c0,0.9,0.4,1.3,1.2,1.3c0.6,0.1,1.3-0.2,1.6-0.8v-6h2.3v8.5h-2.1L833.8,2260.1z
				 M839.8,2252.6l0.1,1c0.6-0.7,1.5-1.2,2.4-1.1c0.8-0.1,1.5,0.2,2,0.8c0.5,0.7,0.7,1.5,0.7,2.4v5.5h-2.3v-5.4c0-0.4-0.1-0.7-0.3-1
				c-0.3-0.2-0.7-0.4-1-0.3c-0.6,0-1.1,0.3-1.4,0.8v6h-2.3v-8.5L839.8,2252.6z M851.6,2261c-0.1-0.2-0.2-0.5-0.2-0.8
				c-0.5,0.6-1.3,0.9-2.1,0.9c-0.8,0-1.5-0.2-2.1-0.7c-0.5-0.5-0.8-1.1-0.8-1.8c0-0.8,0.3-1.6,1-2.1c0.9-0.5,1.9-0.8,2.9-0.7h1v-0.5
				c0-0.3-0.1-0.7-0.3-0.9c-0.2-0.3-0.6-0.4-0.9-0.4c-0.3,0-0.6,0.1-0.9,0.3c-0.2,0.2-0.3,0.5-0.3,0.8h-2.3c0-0.5,0.2-1,0.4-1.4
				c0.3-0.4,0.8-0.8,1.3-1c0.6-0.2,1.2-0.4,1.9-0.4c0.9,0,1.8,0.2,2.5,0.8c0.6,0.6,1,1.4,0.9,2.2v3.7c0,0.6,0.1,1.2,0.3,1.8v0.1
				H851.6z M849.7,2259.4c0.3,0,0.6-0.1,0.9-0.2c0.3-0.1,0.5-0.3,0.6-0.6v-1.5h-0.8c-1.1,0-1.7,0.4-1.8,1.2l0,0.1
				c0,0.3,0.1,0.5,0.3,0.7C849.1,2259.3,849.4,2259.4,849.7,2259.4z M858.9,2256.7c0-0.8,0.2-1.5,0.5-2.2c0.3-0.6,0.8-1.2,1.4-1.5
				c0.6-0.4,1.4-0.6,2.1-0.5c1,0,2,0.3,2.8,1c0.7,0.8,1.2,1.8,1.2,2.8l0,0.6c0.1,1.1-0.3,2.3-1.1,3.1c-1.6,1.6-4.2,1.6-5.8,0
				C859.2,2259.1,858.8,2258,858.9,2256.7L858.9,2256.7z M861.2,2256.9c0,0.6,0.1,1.3,0.5,1.8c0.5,0.7,1.6,0.8,2.3,0.3
				c0.1-0.1,0.2-0.2,0.3-0.3c0.4-0.6,0.5-1.3,0.5-2c0-0.6-0.1-1.3-0.5-1.8c-0.3-0.4-0.8-0.7-1.3-0.6c-0.5,0-1,0.2-1.3,0.6
				C861.3,2255.5,861.1,2256.2,861.2,2256.9L861.2,2256.9z M875.9,2256.9c0.1,1.1-0.3,2.2-0.9,3.1c-0.6,0.8-1.5,1.2-2.4,1.2
				c-0.8,0-1.5-0.3-2.1-0.9v4h-2.3v-11.7h2.1l0.1,0.8c0.5-0.6,1.3-1,2.1-1c1,0,1.9,0.4,2.4,1.2c0.6,0.9,0.9,2.1,0.9,3.2
				L875.9,2256.9z M873.7,2256.7c0-0.6-0.1-1.3-0.4-1.8c-0.3-0.4-0.7-0.7-1.2-0.6c-0.6-0.1-1.2,0.3-1.5,0.8v3.5
				c0.3,0.6,0.9,0.9,1.5,0.8C873.1,2259.3,873.7,2258.5,873.7,2256.7L873.7,2256.7z M880,2250.5v2.1h1.4v1.7H880v4.2
				c0,0.2,0,0.5,0.2,0.7c0.2,0.2,0.4,0.2,0.7,0.2c0.2,0,0.4,0,0.7-0.1v1.7c-0.4,0.1-0.9,0.2-1.4,0.2c-1.2,0.2-2.3-0.7-2.4-1.9
				c0-0.2,0-0.4,0-0.5v-4.5h-1.2v-1.7h1.2v-2.1L880,2250.5z M885.1,2261h-2.3v-8.5h2.3V2261z M882.7,2250.4c0-0.3,0.1-0.6,0.3-0.8
				c0.5-0.4,1.3-0.4,1.8,0c0.2,0.2,0.4,0.5,0.3,0.8c0,0.3-0.1,0.6-0.3,0.8c-0.5,0.4-1.3,0.4-1.8,0
				C882.8,2251,882.7,2250.7,882.7,2250.4z M889.1,2252.5l0.1,0.9c0.6-0.7,1.5-1.1,2.4-1.1c0.9-0.1,1.8,0.4,2.2,1.3
				c0.6-0.8,1.5-1.3,2.5-1.3c0.8-0.1,1.5,0.2,2,0.8c0.5,0.7,0.7,1.6,0.7,2.4v5.4h-2.3v-5.4c0-0.4-0.1-0.7-0.3-1.1
				c-0.3-0.3-0.6-0.4-1-0.3c-0.6,0-1.2,0.4-1.4,1l0,5.8h-2.3v-5.4c0-0.4-0.1-0.8-0.3-1.1c-0.3-0.2-0.6-0.4-1-0.3
				c-0.6,0-1.1,0.3-1.4,0.8v6H887v-8.5H889.1z M905.7,2261c-0.1-0.2-0.2-0.5-0.2-0.8c-0.5,0.6-1.3,0.9-2.1,0.9
				c-0.8,0-1.5-0.2-2.1-0.7c-0.5-0.5-0.8-1.1-0.8-1.8c0-0.8,0.3-1.6,1-2.1c0.9-0.5,1.9-0.8,2.9-0.7h1v-0.5c0-0.3-0.1-0.7-0.3-0.9
				c-0.2-0.3-0.6-0.4-0.9-0.4c-0.3,0-0.6,0.1-0.9,0.3c-0.2,0.2-0.3,0.5-0.3,0.8h-2.3c0-0.5,0.2-1,0.5-1.4c0.3-0.4,0.8-0.8,1.3-1
				c0.6-0.2,1.2-0.4,1.9-0.4c0.9,0,1.8,0.2,2.5,0.8c0.6,0.6,1,1.4,0.9,2.2v3.7c0,0.6,0.1,1.2,0.3,1.8v0.1H905.7z M903.8,2259.4
				c0.3,0,0.6-0.1,0.9-0.2c0.3-0.1,0.5-0.3,0.6-0.6v-1.5h-0.8c-1.1,0-1.7,0.4-1.8,1.2l0,0.1c0,0.3,0.1,0.5,0.3,0.7
				C903.3,2259.3,903.6,2259.4,903.8,2259.4z M916.9,2259.3c0.4,0,0.7-0.1,1-0.3c0.3-0.2,0.4-0.6,0.4-0.9h2.1c0,0.6-0.2,1.1-0.5,1.6
				c-0.3,0.5-0.7,0.9-1.3,1.1c-0.6,0.3-1.2,0.4-1.8,0.4c-1.1,0.1-2.1-0.4-2.9-1.2c-0.7-0.9-1.1-2-1-3.2v-0.1c-0.1-1.1,0.3-2.2,1-3.1
				c0.7-0.8,1.8-1.2,2.9-1.2c0.9,0,1.8,0.3,2.5,0.9c0.6,0.6,1,1.5,1,2.4h-2.1c0-0.4-0.1-0.8-0.4-1.1c-0.6-0.6-1.6-0.5-2.1,0.1
				c0,0-0.1,0.1-0.1,0.1c-0.3,0.6-0.5,1.2-0.4,1.9v0.2c-0.1,0.7,0.1,1.3,0.4,1.9C916,2259.1,916.4,2259.4,916.9,2259.3L916.9,2259.3
				z M926.6,2261c-0.1-0.2-0.2-0.5-0.2-0.8c-0.5,0.6-1.3,0.9-2.1,0.9c-0.8,0-1.5-0.2-2.1-0.7c-0.5-0.5-0.8-1.1-0.8-1.8
				c0-0.8,0.3-1.6,1-2.1c0.9-0.5,1.9-0.8,2.9-0.7h1v-0.5c0-0.3-0.1-0.7-0.3-0.9c-0.2-0.3-0.6-0.4-0.9-0.4c-0.3,0-0.6,0.1-0.9,0.3
				c-0.2,0.2-0.3,0.5-0.3,0.8h-2.3c0-0.5,0.2-1,0.5-1.4c0.3-0.4,0.8-0.8,1.3-1c0.6-0.2,1.2-0.4,1.9-0.4c0.9,0,1.8,0.2,2.5,0.8
				c0.6,0.6,1,1.4,0.9,2.2v3.7c0,0.6,0.1,1.2,0.3,1.8v0.1H926.6z M924.8,2259.4c0.3,0,0.6-0.1,0.9-0.2c0.3-0.1,0.5-0.3,0.6-0.6v-1.5
				h-0.8c-1.1,0-1.7,0.4-1.8,1.2l0,0.1c0,0.3,0.1,0.5,0.3,0.7C924.2,2259.3,924.5,2259.4,924.8,2259.4z M932.7,2261h-2.3v-12h2.3
				V2261z M936.9,2261h-2.3v-8.5h2.3V2261z M934.5,2250.4c0-0.3,0.1-0.6,0.3-0.8c0.5-0.4,1.3-0.4,1.8,0c0.2,0.2,0.4,0.5,0.3,0.8
				c0,0.3-0.1,0.6-0.3,0.8c-0.5,0.4-1.3,0.4-1.8,0C934.6,2251,934.5,2250.7,934.5,2250.4L934.5,2250.4z M938.4,2256.7
				c-0.1-1.1,0.3-2.2,0.9-3.1c0.6-0.8,1.5-1.2,2.4-1.2c0.8,0,1.5,0.3,2,0.9v-4.3h2.3v12h-2l-0.1-0.9c-0.5,0.7-1.3,1.1-2.2,1.1
				c-0.9,0-1.8-0.4-2.4-1.2C938.7,2259,938.4,2257.9,938.4,2256.7L938.4,2256.7z M940.7,2256.9c0,0.6,0.1,1.3,0.4,1.8
				c0.3,0.4,0.7,0.7,1.2,0.6c0.6,0,1.2-0.3,1.5-0.9v-3.3c-0.3-0.6-0.8-0.9-1.5-0.9C941.2,2254.2,940.7,2255.1,940.7,2256.9
				L940.7,2256.9z M952.7,2261c-0.1-0.2-0.2-0.5-0.2-0.8c-0.5,0.6-1.3,0.9-2.1,0.9c-0.8,0-1.5-0.2-2.1-0.7c-0.5-0.5-0.8-1.1-0.8-1.8
				c0-0.8,0.3-1.6,1-2.1c0.9-0.5,1.9-0.8,2.9-0.7h1v-0.5c0-0.3-0.1-0.7-0.3-0.9c-0.2-0.3-0.6-0.4-0.9-0.4c-0.3,0-0.6,0.1-0.9,0.3
				c-0.2,0.2-0.3,0.5-0.3,0.8h-2.3c0-0.5,0.2-1,0.5-1.4c0.3-0.4,0.8-0.8,1.3-1c0.6-0.2,1.2-0.4,1.9-0.4c0.9,0,1.8,0.2,2.5,0.8
				c0.6,0.6,1,1.4,0.9,2.2v3.7c0,0.6,0.1,1.2,0.3,1.8v0.1H952.7z M950.8,2259.4c0.3,0,0.6-0.1,0.9-0.2c0.3-0.1,0.5-0.3,0.6-0.6v-1.5
				h-0.8c-1.1,0-1.7,0.4-1.8,1.2l0,0.1c0,0.3,0.1,0.5,0.3,0.7C950.3,2259.3,950.5,2259.4,950.8,2259.4L950.8,2259.4z M956,2256.7
				c-0.1-1.1,0.3-2.2,0.9-3.1c0.6-0.8,1.5-1.2,2.4-1.2c0.8,0,1.5,0.3,2,0.9v-4.3h2.3v12h-2.1l-0.1-0.9c-0.5,0.7-1.3,1.1-2.2,1.1
				c-0.9,0-1.8-0.4-2.4-1.2C956.3,2259,956,2257.9,956,2256.7L956,2256.7z M958.3,2256.9c0,0.6,0.1,1.3,0.4,1.8
				c0.3,0.4,0.7,0.7,1.2,0.6c0.6,0,1.2-0.3,1.5-0.9v-3.3c-0.3-0.6-0.8-0.9-1.5-0.9C958.8,2254.2,958.3,2255.1,958.3,2256.9
				L958.3,2256.9z M737.5,2280.7c-0.1-1.1,0.3-2.2,0.9-3.1c0.6-0.8,1.5-1.2,2.4-1.2c0.8,0,1.5,0.3,2,0.9v-4.3h2.3v12h-2l-0.1-0.9
				c-0.5,0.7-1.3,1.1-2.2,1.1c-0.9,0-1.8-0.4-2.4-1.2C737.8,2283,737.4,2281.9,737.5,2280.7z M739.8,2280.9c0,0.6,0.1,1.3,0.4,1.8
				c0.3,0.4,0.7,0.7,1.2,0.6c0.6,0,1.2-0.3,1.5-0.9v-3.3c-0.3-0.6-0.8-0.9-1.5-0.9C740.3,2278.2,739.8,2279.1,739.8,2280.9
				L739.8,2280.9z M750.8,2285.2c-1.1,0-2.2-0.4-3-1.1c-0.8-0.8-1.2-1.9-1.2-3v-0.2c0-0.8,0.2-1.6,0.5-2.3c0.3-0.6,0.8-1.2,1.4-1.5
				c0.6-0.4,1.3-0.6,2.1-0.5c1-0.1,2,0.3,2.7,1.1c0.7,0.9,1.1,2,1,3.1v0.9h-5.4c0.1,0.5,0.3,1,0.7,1.3c0.4,0.3,0.9,0.5,1.4,0.5
				c0.8,0,1.6-0.3,2-0.9l1.1,1.2c-0.3,0.5-0.8,0.9-1.4,1.1C752.1,2285,751.4,2285.2,750.8,2285.2L750.8,2285.2z M750.5,2278.2
				c-0.4,0-0.8,0.2-1.1,0.5c-0.3,0.4-0.5,0.8-0.5,1.3h3.1v-0.2c0-0.4-0.1-0.8-0.4-1.2C751.3,2278.3,750.9,2278.2,750.5,2278.2
				L750.5,2278.2z M757.9,2285h-2.3v-12h2.3V2285z M771.4,2280.9c0.1,1.1-0.3,2.2-0.9,3.1c-0.6,0.8-1.5,1.2-2.4,1.2
				c-0.8,0-1.5-0.3-2.1-0.9v4h-2.3v-11.7h2.1l0.1,0.8c0.5-0.6,1.3-1,2.1-1c1,0,1.9,0.4,2.4,1.2c0.6,0.9,0.9,2.1,0.9,3.2
				L771.4,2280.9z M769.1,2280.7c0-0.6-0.1-1.3-0.4-1.8c-0.3-0.4-0.7-0.7-1.2-0.6c-0.6-0.1-1.2,0.3-1.5,0.8v3.5
				c0.3,0.6,0.9,0.9,1.5,0.8C768.6,2283.3,769.1,2282.5,769.1,2280.7L769.1,2280.7z M777.5,2278.7c-0.3,0-0.5-0.1-0.8-0.1
				c-0.7-0.1-1.4,0.3-1.7,0.9v5.5h-2.3v-8.5h2.1l0.1,1c0.4-0.7,1.1-1.2,1.9-1.2c0.2,0,0.5,0,0.7,0.1L777.5,2278.7z M778,2280.7
				c0-0.8,0.2-1.5,0.5-2.2c0.3-0.6,0.8-1.2,1.4-1.5c0.6-0.4,1.4-0.6,2.1-0.5c1,0,2,0.3,2.8,1c0.7,0.8,1.2,1.8,1.2,2.8l0,0.6
				c0.1,1.1-0.3,2.3-1.1,3.1c-1.6,1.6-4.2,1.6-5.8,0C778.3,2283.1,777.9,2282,778,2280.7L778,2280.7z M780.2,2280.9
				c0,0.6,0.1,1.3,0.5,1.8c0.5,0.7,1.6,0.8,2.3,0.3c0.1-0.1,0.2-0.2,0.3-0.3c0.4-0.6,0.5-1.3,0.5-2c0-0.6-0.1-1.3-0.5-1.8
				c-0.3-0.4-0.8-0.7-1.3-0.6c-0.5,0-1,0.2-1.3,0.6C780.3,2279.5,780.2,2280.2,780.2,2280.9L780.2,2280.9z M787,2280.7
				c-0.1-1.1,0.3-2.2,0.9-3.1c0.6-0.8,1.5-1.2,2.4-1.2c0.8,0,1.5,0.3,2,0.9v-4.3h2.3v12h-2l-0.1-0.9c-0.5,0.7-1.3,1.1-2.2,1.1
				c-0.9,0-1.8-0.4-2.4-1.2C787.3,2283,786.9,2281.9,787,2280.7L787,2280.7z M789.3,2280.9c0,0.6,0.1,1.3,0.4,1.8
				c0.3,0.4,0.7,0.7,1.2,0.6c0.6,0,1.2-0.3,1.5-0.9v-3.3c-0.3-0.6-0.8-0.9-1.5-0.9C789.8,2278.2,789.3,2279.1,789.3,2280.9z
				 M801.4,2284.1c-0.6,0.7-1.4,1.1-2.3,1c-0.8,0.1-1.5-0.2-2.1-0.8c-0.5-0.6-0.8-1.5-0.7-2.3v-5.5h2.3v5.5c0,0.9,0.4,1.3,1.2,1.3
				c0.6,0.1,1.3-0.2,1.6-0.8v-6h2.3v8.5h-2.1L801.4,2284.1z M808.9,2283.3c0.4,0,0.7-0.1,1-0.3c0.3-0.2,0.4-0.6,0.4-0.9h2.1
				c0,0.6-0.2,1.1-0.5,1.6c-0.3,0.5-0.7,0.9-1.3,1.1c-0.6,0.3-1.2,0.4-1.8,0.4c-1.1,0.1-2.1-0.4-2.9-1.2c-0.7-0.9-1.1-2-1-3.2v-0.1
				c-0.1-1.1,0.3-2.2,1-3.1c0.7-0.8,1.8-1.2,2.9-1.2c0.9,0,1.8,0.3,2.5,0.9c0.6,0.6,1,1.5,1,2.4h-2.1c0-0.4-0.1-0.8-0.4-1.1
				c-0.6-0.6-1.6-0.5-2.1,0.1c0,0-0.1,0.1-0.1,0.1c-0.3,0.6-0.5,1.2-0.4,1.9v0.2c-0.1,0.7,0.1,1.3,0.4,1.9
				C807.9,2283.1,808.4,2283.4,808.9,2283.3L808.9,2283.3z M816.4,2274.5v2.1h1.4v1.6h-1.4v4.2c0,0.2,0,0.5,0.2,0.7
				c0.2,0.2,0.4,0.2,0.7,0.2c0.2,0,0.4,0,0.7-0.1v1.7c-0.4,0.1-0.9,0.2-1.4,0.2c-1.2,0.2-2.3-0.7-2.4-1.9c0-0.2,0-0.4,0-0.5v-4.5
				h-1.2v-1.7h1.2v-2.1L816.4,2274.5z M818.5,2280.7c0-0.8,0.2-1.5,0.5-2.2c0.3-0.6,0.8-1.2,1.4-1.5c0.6-0.4,1.4-0.6,2.1-0.5
				c1,0,2,0.3,2.8,1c0.7,0.8,1.2,1.8,1.2,2.8l0,0.6c0.1,1.1-0.3,2.3-1.1,3.1c-1.6,1.6-4.2,1.6-5.8,0c-0.8-0.9-1.2-2-1.1-3.2V2280.7z
				 M820.8,2280.9c0,0.6,0.1,1.3,0.5,1.8c0.5,0.7,1.6,0.8,2.3,0.3c0.1-0.1,0.2-0.2,0.3-0.3c0.4-0.6,0.5-1.3,0.5-2
				c0-0.6-0.1-1.3-0.5-1.8c-0.3-0.4-0.8-0.7-1.3-0.6c-0.5,0-1,0.2-1.3,0.6C820.9,2279.5,820.7,2280.2,820.8,2280.9L820.8,2280.9z
				 M832.4,2285v-6.8h-1.3v-1.7h1.3v-0.4c0-0.9,0.3-1.8,1-2.5c0.8-0.6,1.7-0.9,2.7-0.9c0.9,0,1.7,0.2,2.6,0.5l-0.3,1.9
				c-0.4-0.1-0.8-0.2-1.2-0.3c-0.3,0-0.6-0.1-0.9-0.1c-1.1,0-1.6,0.5-1.6,1.4v0.3h1.7v1.7h-1.7v6.8H832.4z M839.8,2285h-2.3v-8.5
				h2.3V2285z M843.7,2276.5l0.1,1c0.6-0.7,1.5-1.2,2.4-1.1c0.8-0.1,1.5,0.2,2,0.8c0.5,0.7,0.7,1.5,0.7,2.4v5.5h-2.3v-5.4
				c0-0.4-0.1-0.7-0.3-1c-0.3-0.2-0.7-0.4-1-0.3c-0.6,0-1.1,0.3-1.4,0.8v6h-2.3v-8.5H843.7z M855.5,2285c-0.1-0.2-0.2-0.5-0.2-0.8
				c-0.5,0.6-1.3,0.9-2.1,0.9c-0.8,0-1.5-0.2-2.1-0.7c-0.5-0.5-0.8-1.1-0.8-1.8c0-0.8,0.3-1.6,1-2.1c0.9-0.5,1.9-0.8,2.9-0.7h1v-0.5
				c0-0.3-0.1-0.7-0.3-0.9c-0.2-0.3-0.6-0.4-0.9-0.4c-0.3,0-0.6,0.1-0.9,0.3c-0.2,0.2-0.3,0.5-0.3,0.8h-2.3c0-0.5,0.2-1,0.5-1.4
				c0.3-0.4,0.8-0.8,1.3-1c0.6-0.2,1.2-0.4,1.9-0.4c0.9,0,1.8,0.2,2.5,0.8c0.6,0.6,1,1.4,0.9,2.2v3.7c0,0.6,0.1,1.2,0.3,1.8v0.1
				H855.5z M853.6,2283.4c0.3,0,0.6-0.1,0.9-0.2c0.3-0.1,0.5-0.3,0.6-0.6v-1.5h-0.8c-1.1,0-1.7,0.4-1.8,1.2l0,0.1
				c0,0.3,0.1,0.5,0.3,0.7C853,2283.3,853.3,2283.4,853.6,2283.4L853.6,2283.4z M861.5,2285h-2.3v-12h2.3V2285z M863.5,2283.9
				c0-0.3,0.1-0.7,0.4-0.9c0.5-0.4,1.3-0.4,1.8,0c0.2,0.2,0.4,0.5,0.4,0.9c0,0.3-0.1,0.6-0.4,0.9c-0.5,0.4-1.3,0.4-1.8,0
				C863.6,2284.5,863.5,2284.2,863.5,2283.9L863.5,2283.9z"/>
			<g id="Grupo_142199" transform="translate(586.046 2211.795)">
				<g>
					<defs>
						<rect id="SVGID_1_" x="0" y="0" width="99" height="111.2"/>
					</defs>
					<clipPath id="SVGID_00000097472612939859047030000002682477736115686550_">
						<use xlink:href="#SVGID_1_"  style="overflow:visible;"/>
					</clipPath>
					
						<g id="Grupo_142198" transform="translate(0 0)" style="clip-path:url(#SVGID_00000097472612939859047030000002682477736115686550_);">
						<path id="Trazado_146502" class="st3" d="M10.4,67.3c-0.6-0.5-1.2-0.9-2-1.2c-4.4-2.5-5.2-4.7-3.1-9.3c0.9-2,1.9-3.9,2.9-5.9
							c1.1-2.1,1.1-4.5,0-6.6c-1.1-2.3-2.2-4.5-3.3-6.8c-0.2-0.4-0.3-0.8-0.4-1.1c-0.9-2.8-0.3-4.5,2-6.2c1.3-0.9,2.8-1.7,4.2-2.4
							c1.4-0.7,2.7-1.4,4-2.2c1.5-1,2.6-2.5,3-4.2c0.6-2.3,0.8-4.7,1.3-7.1c0.1-0.6,0.3-1.2,0.4-1.8c0.9-3.3,2.6-4.4,6.4-4.2
							c2.2,0.2,4.4,0.5,6.6,0.9c2.8,0.6,5.7-0.3,7.6-2.3c1.6-1.6,3.2-3.2,4.9-4.8c3-2.7,5.1-2.8,8.2-0.3c1.9,1.5,3.6,3.4,5.4,5.1
							c2.3,2.2,4.9,2.6,7.8,2.1c2.1-0.4,4.2-0.8,6.3-1c4.1-0.3,5.7,1,6.7,5c0.6,2.4,0.9,4.9,1.4,7.3c0.4,2.2,1.7,4.1,3.7,5.2
							c1.9,1.1,3.9,2,5.8,3c0.9,0.5,1.8,1.1,2.7,1.8c1.6,1.2,2.2,3.3,1.6,5.2c-0.5,1.5-1.1,3-1.9,4.4c-0.7,1.4-1.3,2.7-2,4.1
							c-1,1.9-1,4.2-0.1,6.2c1.1,2.3,2.2,4.6,3.3,6.9c0.2,0.4,0.3,0.7,0.4,1.1c1,3,0.4,4.9-2.3,6.6c-1.1,0.7-2.4,1.4-3.6,2
							c-0.2,0.4-0.6,0.7-1,0.8c-0.9,0.4-1.8,1-2.7,1.5c-1.8,1-3,2.7-3.4,4.7c-0.5,2.2-0.7,4.5-1.2,6.8c-0.1,0.7-0.3,1.3-0.5,1.9
							c-0.9,3.1-2.8,4.5-6.7,4.3c-2.3-0.2-4.5-0.6-6.8-1c-2.7-0.5-5.4,0.4-7.3,2.4c-1.5,1.6-3,3.1-4.7,4.6c-0.3-0.2-0.5,0.1-0.7,0.2
							c-3,2.4-4.8,2.4-7.8,0c-0.3-0.2-0.6-0.4-0.9-0.6c-1.1-0.5-1.7-1.5-2.5-2.2c-0.7-0.7-1.5-1.4-2.2-2.1c-2.2-2.1-4.8-2.5-7.7-2
							c-2.3,0.4-4.6,0.8-7,1c-3.4-0.1-5.1-1.3-6-4.6c-0.5-1.9-0.8-3.7-1.1-5.6c-0.2-1.6-0.7-3.2-1.2-4.7c-0.7-1.2-1.7-2.2-3-2.9
							c-1.1-0.7-2.3-1.3-3.5-1.9C10.6,67.4,10.5,67.4,10.4,67.3"/>
						<path id="Trazado_146503" class="st4" d="M10.4,67.3c0.1,0,0.1,0,0.2,0c1.4,1.6,3.1,2.9,5,3.7c0.6,0.3,1.1,0.6,1.6,0.9
							c1,1.9,1.2,3.9,1.6,5.9c0.3,1.4,0.4,2.8,0.8,4.2c0.9,3.5,2.3,4.5,5.9,4.7c0.4,0.4,0.7,0.9,0.8,1.4c0.7,1.7,2.4,2.8,4.3,2.7
							c2.9,0.1,5.8-0.7,8.7-1c1.1-0.2,2.3-0.2,3.4,0.2c0.8,0.7,1.6,1.4,2.3,2.3c-1.4,4.6-2.7,9.3-4.1,13.9c-1,3.2-3.3,5-6.1,4.9
							c-1.6-0.1-3.1-0.6-4.5-1.4c-2.5-1.4-5.1-2.7-7.6-4.1c-0.7-0.4-1.5-0.5-2.3-0.1c-4.2,1.7-8.5,3.3-12.7,4.9
							c-1.2,0.5-2.6,0.7-3.9,0.8c-2.7,0-4-1.6-3.7-4.2c0.4-2.4,1-4.8,1.7-7.1C4.6,89.3,7.4,78.7,10.3,68
							C10.3,67.8,10.4,67.5,10.4,67.3"/>
						<path id="Trazado_146504" class="st4" d="M90.3,73.7c2.4,8.9,4.7,17.8,7.1,26.7c0.6,2.1,1.2,4.2,1.6,6.3
							c0.4,2.8-1,4.3-3.8,4.3c-1.7-0.1-3.4-0.5-5-1.2c-3.9-1.5-7.8-3-11.7-4.6c-0.6-0.3-1.2-0.2-1.8,0.1c-2.5,1.4-5.1,2.8-7.7,4.2
							c-0.5,0.3-1,0.5-1.5,0.7c-4.3,1.8-7.7,0.3-9.2-4.1c-0.8-2.3-1.4-4.7-2.1-7.1c1.7-0.5,3.2-1.5,4.4-2.8c1.2-1.1,2.3-2.2,3.4-3.4
							c2.4-2.9,5.6-3.4,9.1-2.9c2.5,0.5,5,0.7,7.5,0.8c1.9,0.1,3.6-1.1,4.2-2.8C85.4,86,85.9,84,86,82c0.2-1.6,0.5-3.2,1-4.8
							c0.4-1.2,1.2-2.3,2.2-3.1C89.5,73.8,89.9,73.7,90.3,73.7"/>
						<path id="Trazado_146505" class="st5" d="M90.3,73.7c-2.2,1.3-3,3.3-3.5,5.6c-0.5,2.4-0.6,4.9-1.3,7.4c-0.7,2.7-2,4.5-5.6,4.4
							c-2.3-0.1-4.5-0.4-6.8-0.8c-3.3-0.5-6.3-0.1-8.8,2.6c-1.5,1.8-3.2,3.4-5.1,4.9c-0.9,0.7-1.7,1.7-3.1,1.3l-1.9-6.2
							c0-0.2,0-0.4,0.1-0.5c1.9-1.7,3.5-3.6,5.4-5.2c1.9-1.6,4.1-1.8,6.4-1.5c2,0.3,4.1,0.6,6.1,0.8c4.7,0.6,6.8-1,7.5-5.8
							c0.3-2.2,0.7-4.4,1.1-6.6c0.4-2.3,1.8-4.2,3.9-5.2c1.2-0.7,2.4-1.3,3.6-1.9C89.1,69.2,89.9,71.4,90.3,73.7"/>
						<path id="Trazado_146506" class="st6" d="M77.3,47.4C77.6,62.2,65,75.3,49.4,75.3C34,75.2,21.6,62.6,21.7,47.2
							c0.1-15.3,12.5-27.6,27.8-27.7C65.1,19.6,77.6,32.6,77.3,47.4"/>
						<path id="Trazado_146507" class="st5" d="M42.6,90.2c-3.8-0.3-7.5,1.1-11.3,1.1c-3.4,0.1-4.8-1.1-5.8-4.5
							c2.7-0.4,5.4-0.7,8.1-1.1c2.4-0.4,4.9,0.4,6.7,2.1C41.1,88.6,41.9,89.3,42.6,90.2"/>
						<path id="Trazado_146508" class="st7" d="M17.3,72c-2.6-1-5.2-2-6.7-4.6C13.1,68.4,15.7,69.4,17.3,72"/>
						<path id="Trazado_146509" class="st8" d="M83,47.7c0.1-0.3-0.2-1,0.5-0.9s0.4,0.7,0.4,1s0.2,1.1-0.5,1
							C82.7,48.7,83.1,48,83,47.7"/>
						<path id="Trazado_146510" class="st9" d="M25.5,24c-0.3,0-0.6-0.2-0.6-0.5c0.2-0.5,0.6-0.9,1.1-1.2c0.2-0.1,0.5,0.3,0.5,0.5
							C26.4,23.4,25.9,23.7,25.5,24"/>
						<path id="Trazado_146511" class="st10" d="M69.5,75.4c-0.2,0-0.4-0.1-0.5-0.4c0,0,0-0.1,0-0.1c0.1-0.5,0.6-0.8,1.1-1
							c0.2-0.1,0.5,0,0.5,0.3c0,0.1,0,0.1,0,0.2C70.5,74.9,69.9,75.1,69.5,75.4"/>
						<path id="Trazado_146512" class="st10" d="M28.2,73.3c0.4,0.3,0.9,0.5,1.2,1c0.1,0.2-0.2,0.6-0.4,0.6c-0.6-0.1-1-0.5-1.3-1
							C27.6,73.7,27.9,73.4,28.2,73.3"/>
						<path id="Trazado_146513" class="st9" d="M45.2,14.2c-0.4,0-0.8,0-0.8-0.4c0.1-0.8,0.8-0.3,1.2-0.5c0.3-0.1,0.5,0,0.5,0.3
							C46.1,14.3,45.5,14.1,45.2,14.2"/>
						<path id="Trazado_146514" class="st10" d="M54.1,13.3c0.4,0.1,0.9-0.1,0.9,0.6c0,0.5-0.4,0.4-0.6,0.3
							c-0.4-0.1-1.1,0.3-1.1-0.5C53.3,13.2,53.8,13.3,54.1,13.3"/>
						<path id="Trazado_146515" class="st9" d="M82.6,52.3c0.1-0.2-0.1-0.8,0.5-0.9c0.2-0.1,0.5,0.1,0.5,0.3c0,0.1,0,0.2,0,0.3
							c-0.2,0.4,0.2,1.1-0.5,1.1C82.6,53.2,82.5,52.9,82.6,52.3"/>
						<path id="Trazado_146516" class="st10" d="M58.1,14.1c0.4,0.2,1.1,0,1.3,0.6c0.1,0.2,0,0.4-0.2,0.5c-0.1,0-0.2,0-0.3,0
							c-0.4-0.2-1.1,0-1.2-0.7C57.7,14.2,57.8,14,58.1,14.1"/>
						<path id="Trazado_146517" class="st11" d="M62.5,15.6c0.3,0.3,1,0.1,1.1,0.8c0,0.2-0.2,0.6-0.5,0.4c-0.4-0.3-1.2-0.1-1.2-0.8
							C61.8,15.7,62.1,15.5,62.5,15.6"/>
						<path id="Trazado_146518" class="st8" d="M81.7,56.6c0.1-0.2-0.1-0.8,0.6-0.8c0.4,0,0.5,0.3,0.4,0.6c-0.2,0.4,0.1,1.2-0.7,1.1
							C81.6,57.5,81.5,57.2,81.7,56.6"/>
						<path id="Trazado_146519" class="st8" d="M70.7,21.5c-0.4-0.4-1-0.5-1.1-1.1c-0.1-0.2,0.3-0.6,0.5-0.5c0.5,0.2,1,0.4,1.2,1
							C71.2,21.2,70.9,21.3,70.7,21.5"/>
						<path id="Trazado_146520" class="st12" d="M73.3,22.7c0.5,0.3,0.9,0.7,1.1,1.1c0.1,0.2-0.2,0.5-0.4,0.5
							c-0.5-0.1-1-0.5-1.1-1.1C72.8,23.1,73.1,22.9,73.3,22.7"/>
						<path id="Trazado_146521" class="st8" d="M76.9,27.8c-0.6-0.2-0.8-0.7-1-1.2c-0.1-0.3,0.3-0.5,0.4-0.5c0.6,0.1,0.8,0.7,1,1.2
							C77.5,27.6,77.1,27.7,76.9,27.8"/>
						<path id="Trazado_146522" class="st8" d="M32.4,18.6c-0.4,0-0.5-0.3-0.5-0.5c0.1-0.6,0.7-0.7,1.2-0.9c0.3-0.2,0.5,0.3,0.5,0.4
							C33.5,18.3,32.8,18.2,32.4,18.6"/>
						<path id="Trazado_146523" class="st8" d="M18.8,33.9c-0.2,0.3-0.1,1-0.7,1.1c-0.2,0-0.6-0.1-0.5-0.4c0.2-0.5,0.1-1.2,0.8-1.3
							C18.6,33.2,18.9,33.4,18.8,33.9"/>
						<path id="Trazado_146524" class="st12" d="M72.9,72.5c-0.3-0.1-0.6-0.3-0.5-0.5c0.2-0.5,0.6-0.9,1.1-1.1
							c0.2-0.1,0.6,0.3,0.5,0.5C73.7,71.9,73.4,72.3,72.9,72.5"/>
						<path id="Trazado_146525" class="st9" d="M16.8,37.4c0.2,0.2,0.7,0.1,0.6,0.4c-0.1,0.5,0,1.1-0.6,1.4
							c-0.2,0.1-0.7-0.1-0.5-0.5C16.4,38.3,16.2,37.7,16.8,37.4"/>
						<path id="Trazado_146526" class="st8" d="M25,70.3c0.3,0.4,0.9,0.6,1,1.2c0,0.2-0.3,0.5-0.6,0.4c-0.5-0.2-0.8-0.6-1-1.1
							C24.4,70.6,24.7,70.4,25,70.3"/>
						<path id="Trazado_146527" class="st13" d="M16.4,42.5c-0.2,0.3,0.1,1-0.7,1c-0.4,0-0.5-0.3-0.4-0.6c0.2-0.4-0.1-1.1,0.6-1.1
							C16.4,41.7,16.4,42.1,16.4,42.5"/>
						<path id="Trazado_146528" class="st14" d="M83.7,43.3c0,0.5,0,0.9-0.5,0.8c-0.7-0.1-0.3-0.8-0.5-1.3s0.2-0.5,0.5-0.5
							C83.8,42.5,83.6,43,83.7,43.3"/>
						<path id="Trazado_146529" class="st8" d="M19.8,63.2c0.4,0.3,0.7,0.8,0.8,1.3c0.1,0.3-0.3,0.5-0.5,0.5
							c-0.5-0.2-0.7-0.8-0.9-1.3C19.1,63.4,19.5,63.3,19.8,63.2"/>
						<path id="Trazado_146530" class="st12" d="M36.4,16.6c-0.2,0-0.4-0.1-0.5-0.4c0,0,0-0.1,0-0.1c0.2-0.7,0.8-0.6,1.3-0.7
							c0.3-0.1,0.5,0.3,0.4,0.5C37.4,16.4,36.8,16.3,36.4,16.6"/>
						<path id="Trazado_146531" class="st12" d="M28.2,20.5c0.3-0.4,0.7-0.9,1.3-0.9c0.2,0,0.4,0.1,0.4,0.4c0,0.1,0,0.1,0,0.2
							c-0.2,0.5-0.7,0.8-1.2,0.9C28.4,21.1,28.3,20.8,28.2,20.5"/>
						<path id="Trazado_146532" class="st15" d="M15.1,47c0-0.4-0.1-0.9,0.5-0.8c0.6,0.1,0.4,0.6,0.4,1c0,0.3,0.1,0.8-0.5,0.8
							C14.8,47.9,15.2,47.3,15.1,47"/>
						<path id="Trazado_146533" class="st10" d="M16.2,51.7c0.1,0.4,0.1,0.7-0.4,0.7c-0.7,0-0.5-0.6-0.6-1c0-0.3-0.1-0.8,0.4-0.7
							C16.5,50.7,16,51.4,16.2,51.7"/>
						<path id="Trazado_146534" class="st11" d="M18.6,60.4c0,0.4-0.3,0.6-0.5,0.5c-0.6-0.1-0.6-0.8-0.7-1.2
							c-0.2-0.4,0.3-0.6,0.5-0.5C18.4,59.4,18.3,60.1,18.6,60.4"/>
						<path id="Trazado_146535" class="st12" d="M80.6,61.7c-0.3-0.1-0.7-0.1-0.6-0.5c0.1-0.5,0.2-1.1,0.8-1.3
							c0.2-0.1,0.5,0.1,0.5,0.3C81.2,60.9,81,61.3,80.6,61.7"/>
						<path id="Trazado_146536" class="st12" d="M75.9,69.3c-0.3-0.1-0.6-0.3-0.5-0.5c0.3-0.5,0.5-1,1.1-1.1c0.2,0,0.5,0.3,0.4,0.4
							C76.7,68.6,76.4,69,75.9,69.3"/>
						<path id="Trazado_146537" class="st12" d="M36.5,79.3c-0.4-0.3-1-0.2-1.2-0.8c-0.1-0.2,0.1-0.6,0.4-0.5
							c0.5,0.2,1.1,0.2,1.3,0.8C37,79,36.8,79.3,36.5,79.3"/>
						<path id="Trazado_146538" class="st12" d="M63,78.8c-0.3,0.6-0.9,0.6-1.4,0.8c-0.3,0.1-0.4-0.2-0.4-0.4
							c0.1-0.7,0.8-0.7,1.2-0.9C62.9,78.2,62.8,78.6,63,78.8"/>
						<path id="Trazado_146539" class="st12" d="M41.2,80.2c-0.1,0.2-0.1,0.6-0.5,0.5c-0.5-0.1-1.2,0-1.3-0.7
							c-0.1-0.3,0.2-0.5,0.5-0.4C40.4,79.8,41,79.6,41.2,80.2"/>
						<path id="Trazado_146540" class="st16" d="M57.7,80.8c-0.4,0.1-0.7,0-0.7-0.4c0.1-0.7,0.8-0.4,1.1-0.6c0.2-0.1,0.4,0,0.5,0.2
							c0,0.1,0.1,0.2,0,0.3C58.7,80.9,58,80.6,57.7,80.8"/>
						<path id="Trazado_146541" class="st9" d="M44.6,80.6c0.3,0.1,0.9-0.2,0.9,0.5c0,0.6-0.5,0.4-0.9,0.4c-0.4,0-0.9,0.1-0.9-0.6
							C43.8,80.4,44.2,80.5,44.6,80.6"/>
						<path id="Trazado_146542" class="st11" d="M53.6,80.6c0.4,0,0.8-0.1,0.8,0.4c-0.1,0.8-0.8,0.4-1.1,0.5
							c-0.2,0.1-0.4,0.1-0.5-0.1c-0.1-0.1-0.1-0.2-0.1-0.3C52.7,80.6,53.3,80.7,53.6,80.6"/>
						<path id="Trazado_146543" class="st17" d="M49.1,81.8c-0.4-0.1-0.9,0.1-0.9-0.5c0-0.6,0.6-0.4,0.9-0.4c0.3,0,0.8-0.1,0.8,0.5
							C49.9,82,49.3,81.6,49.1,81.8"/>
						<path id="Trazado_146544" class="st12" d="M41.9,14.5c-0.2,0.5-0.8,0.4-1.2,0.5c-0.3,0.1-0.6,0-0.6-0.4
							c0.1-0.6,0.7-0.5,1.1-0.6C41.6,13.9,41.8,14.1,41.9,14.5"/>
						<path id="Trazado_146545" class="st18" d="M67.6,18.3c-0.1,0.3-0.3,0.6-0.6,0.5c-0.4-0.2-1-0.3-1.2-0.8
							c-0.1-0.2,0.1-0.6,0.4-0.5C66.8,17.6,67.2,17.9,67.6,18.3"/>
						<path id="Trazado_146546" class="st17" d="M49.8,14c-0.4-0.1-0.9,0.1-0.9-0.5s0.5-0.4,0.8-0.4c0.3,0,0.9-0.2,0.9,0.4
							C50.6,14.1,50.1,13.9,49.8,14"/>
						<path id="Trazado_146547" class="st16" d="M67,76.9c-0.3,0.4-0.7,0.7-1.2,0.8c-0.3,0.1-0.5-0.2-0.5-0.5
							c0.1-0.6,0.7-0.7,1.2-0.8C66.7,76.3,66.9,76.6,67,76.9"/>
						<path id="Trazado_146548" class="st18" d="M17.1,56.1c0.2,0.5-0.1,0.6-0.3,0.6c-0.8-0.1-0.5-0.9-0.7-1.3
							c-0.2-0.4,0.3-0.5,0.5-0.4C17.2,55.1,16.9,55.8,17.1,56.1"/>
						<path id="Trazado_146549" class="st18" d="M82.4,39.8c-0.6-0.2-0.5-0.8-0.7-1.3c-0.1-0.2,0-0.4,0.2-0.5c0.1,0,0.1,0,0.2,0
							c0.7,0.1,0.5,0.8,0.7,1.2C83,39.6,82.7,39.7,82.4,39.8"/>
						<path id="Trazado_146550" class="st16" d="M79.7,30.9c0,0.4-0.2,0.6-0.5,0.6c-0.6-0.1-0.7-0.7-0.9-1.2
							c-0.1-0.2,0.1-0.4,0.3-0.5c0.1,0,0.1,0,0.2,0C79.4,30,79.3,30.6,79.7,30.9"/>
						<path id="Trazado_146551" class="st16" d="M21,29.8c-0.4,0.4-0.3,1.1-1,1.2c-0.2,0-0.6-0.2-0.4-0.5c0.2-0.4,0.3-1,0.9-1.1
							C20.7,29.3,20.9,29.5,21,29.8"/>
						<path id="Trazado_146552" class="st16" d="M22.9,25.6c0.3,0.2,0.6,0.3,0.5,0.6c-0.2,0.5-0.4,1-1,1.1c-0.2,0-0.5-0.2-0.4-0.4
							C22.2,26.4,22.5,25.9,22.9,25.6"/>
						<path id="Trazado_146553" class="st16" d="M31.9,75.9c0.4,0.3,1,0.3,1.1,1c0,0.2-0.1,0.5-0.4,0.4c-0.5-0.1-1-0.4-1.3-0.9
							C31.2,76.2,31.5,76,31.9,75.9"/>
						<path id="Trazado_146554" class="st19" d="M23,68.2c0,0.3-0.2,0.5-0.4,0.4c-0.5-0.2-0.9-0.6-1-1.2c0-0.2,0.2-0.4,0.4-0.4
							c0,0,0.1,0,0.1,0C22.6,67.3,22.9,67.7,23,68.2"/>
						<path id="Trazado_146555" class="st20" d="M78.5,65.6c-0.3-0.1-0.6-0.3-0.5-0.5c0.2-0.4,0.3-1,0.9-1.2c0.2,0,0.5,0.1,0.5,0.4
							C79.2,64.9,78.9,65.3,78.5,65.6"/>
						<path id="Trazado_146556" class="st20" d="M81.6,35.1c0,0.4-0.3,0.5-0.5,0.4c-0.5-0.2-0.6-0.8-0.7-1.3c0-0.2,0.1-0.4,0.3-0.4
							c0.1,0,0.1,0,0.2,0C81.4,34,81.3,34.7,81.6,35.1"/>
						<path id="Trazado_146557" class="st21" d="M4.2,100.7c-0.3-0.1-0.9,0.2-0.9-0.5c0-0.7,0.6-0.4,0.9-0.4c0.3,0,0.8-0.2,0.8,0.4
							C5.1,100.9,4.5,100.6,4.2,100.7"/>
						<path id="Trazado_146558" class="st21" d="M8.7,100.7c-0.3-0.1-0.9,0.2-0.9-0.5s0.5-0.5,0.9-0.5s0.9-0.2,0.9,0.5
							C9.5,100.9,9,100.6,8.7,100.7"/>
						<path id="Trazado_146559" class="st21" d="M13,100.7c-0.3-0.1-0.8,0.1-0.8-0.5c0-0.7,0.6-0.4,0.9-0.4c0.3,0,0.8-0.2,0.8,0.4
							C14,101,13.3,100.5,13,100.7"/>
						<path id="Trazado_146560" class="st21" d="M17.6,100.7c-0.4-0.1-1,0.2-0.9-0.5c0-0.7,0.6-0.4,0.9-0.4c0.3,0,0.8-0.2,0.8,0.4
							C18.4,100.9,17.8,100.5,17.6,100.7"/>
						<path id="Trazado_146561" class="st21" d="M21.9,100.7c-0.3-0.1-0.9,0.2-0.9-0.5c0-0.7,0.6-0.4,0.9-0.4c0.3,0,0.8-0.2,0.8,0.4
							C22.8,100.9,22.3,100.6,21.9,100.7"/>
						<path id="Trazado_146562" class="st21" d="M26.4,100.7c-0.3-0.1-0.9,0.2-0.9-0.5s0.5-0.5,0.9-0.5s0.9-0.2,0.9,0.5
							C27.2,100.9,26.7,100.6,26.4,100.7"/>
						<path id="Trazado_146563" class="st21" d="M30.9,99.7c0.3,0.1,0.8-0.2,0.8,0.4c0,0.7-0.5,0.5-0.9,0.5s-0.9,0.2-0.9-0.5
							C30,99.5,30.6,99.8,30.9,99.7"/>
						<path id="Trazado_146564" class="st21" d="M35.3,100.7c-0.3-0.1-0.9,0.2-0.9-0.5c0-0.7,0.6-0.4,0.9-0.4c0.3,0,0.8-0.2,0.8,0.4
							C36.2,100.9,35.6,100.6,35.3,100.7"/>
						<path id="Trazado_146565" class="st21" d="M39.7,100.7c-0.3-0.1-0.8,0.2-0.9-0.4c0-0.8,0.6-0.5,1-0.5c0.3,0,0.8-0.2,0.8,0.5
							C40.6,100.9,40,100.6,39.7,100.7"/>
						<path id="Trazado_146566" class="st22" d="M63.6,99.7c0.4,0.1,0.9-0.2,0.9,0.5c0,0.7-0.6,0.4-0.9,0.4c-0.3,0-0.8,0.2-0.8-0.4
							C62.7,99.6,63.2,99.8,63.6,99.7"/>
						<path id="Trazado_146567" class="st22" d="M68.1,100.7c-0.3-0.1-0.9,0.2-0.9-0.5c0-0.6,0.5-0.5,0.8-0.4c0.4,0,0.9-0.2,0.9,0.4
							C69,100.9,68.4,100.6,68.1,100.7"/>
						<path id="Trazado_146568" class="st22" d="M72.5,100.7c-0.3-0.1-0.8,0.2-0.8-0.4c0-0.7,0.5-0.5,0.9-0.5s0.9-0.2,0.9,0.5
							C73.4,100.9,72.8,100.6,72.5,100.7"/>
						<path id="Trazado_146569" class="st22" d="M76.9,100.7c-0.3-0.1-0.8,0.2-0.9-0.4c0-0.7,0.5-0.5,0.9-0.5s0.9-0.2,0.9,0.5
							C77.8,100.9,77.2,100.6,76.9,100.7"/>
						<path id="Trazado_146570" class="st22" d="M81.4,100.7c-0.3-0.1-0.8,0.2-0.9-0.4c0-0.7,0.5-0.5,0.9-0.5s0.9-0.2,0.9,0.5
							C82.3,100.9,81.7,100.6,81.4,100.7"/>
						<path id="Trazado_146571" class="st22" d="M85.8,100.7c-0.3-0.1-0.9,0.2-0.9-0.5c0-0.6,0.5-0.4,0.8-0.4c0.4,0,0.9-0.2,0.9,0.4
							C86.7,100.9,86.2,100.6,85.8,100.7"/>
						<path id="Trazado_146572" class="st22" d="M90.3,100.7c-0.4-0.1-0.9,0.2-0.9-0.4c0-0.7,0.5-0.5,0.9-0.5s0.9-0.2,0.9,0.5
							C91.2,100.9,90.6,100.5,90.3,100.7"/>
						<path id="Trazado_146573" class="st22" d="M94.8,100.7c-0.4-0.1-0.9,0.2-0.9-0.5c0-0.6,0.5-0.4,0.8-0.4c0.4,0,0.9-0.2,0.9,0.4
							C95.6,100.9,95,100.5,94.8,100.7"/>
						<path id="Trazado_146574" class="st22" d="M59.2,100.7c-0.3-0.1-0.9,0.2-0.9-0.5c0-0.6,0.5-0.5,0.8-0.4c0.4,0,0.9-0.2,0.9,0.4
							C60.1,100.9,59.5,100.6,59.2,100.7"/>
						<path id="Trazado_146575" class="st23" d="M41.5,62.4c-0.2,0-0.4,0-0.7,0c-2,0.1-3-0.8-3.1-2.8c-0.1-1.3-0.1-2.7,0.1-4
							c0.5-3.1,0-5.8-2.4-8c-0.9-0.9-1.7-1.8-2.4-2.9c-1.8-2.5-1.2-4.3,1.7-5.3c1.4-0.5,2.8-0.8,4.3-1.1c2.3-0.4,4.3-1.8,5.3-3.9
							c0.7-1.5,1.6-2.9,2.7-4.2c1.7-2,3.3-2,5,0c1,1.3,2,2.8,2.8,4.3c1,1.9,2.9,3.3,5,3.6c1.6,0.3,3.1,0.7,4.6,1.2
							c2.5,0.8,3.1,2,2.2,4.5c-0.2,1.4-1.3,2.2-2.1,3.2c-0.8,0.9-1.5,1.8-2.1,2.7c-0.7,1.1-1,2.5-0.8,3.8c0.2,1.8,0.4,3.5,0.4,5.3
							c-0.1,3-1.8,4.3-4.7,3.5c-1.5-0.4-2.9-1-4.2-1.7c-2.1-1.1-4.5-1-6.6,0.1c-1.1,0.6-2.3,1.1-3.5,1.4
							C42.4,62.5,41.9,62.5,41.5,62.4"/>
						<path id="Trazado_146576" class="st24" d="M41.5,62.4c1.8-0.7,3.6-1.4,5.3-2.2c1.8-0.8,3.9-0.8,5.7,0c1.7,0.8,3.5,1.5,5.3,2
							c2.3,0.5,3.6-0.5,3.7-2.8c0.1-1.8,0-3.6-0.3-5.4c-0.3-2,0.3-4,1.7-5.5c1.3-1.4,2.6-3,3.7-4.6c0.9,0.2,1.8,0.5,2.6,0.8
							c2,1,2.4,2.3,1.2,4.2c-1,1.5-2.1,2.9-3.3,4.1c-1.6,1.7-2.3,4.1-1.9,6.4c0.4,1.7,0.4,3.5,0.2,5.3c-0.4,2.4-1.7,2.8-3.9,2.4
							c-1.8-0.5-3.6-1.2-5.4-2c-1.8-0.8-3.9-0.7-5.7,0.2c-1.7,0.9-3.5,1.5-5.4,2c-1.3,0.5-2.8-0.3-3.2-1.6c-0.1-0.2-0.1-0.3-0.1-0.5
							C41.5,64.3,41.4,63.4,41.5,62.4"/>
					</g>
				</g>
			</g>
		</g>
	</g>
</g>
<g>
	<path class="st1" d="M334.4,65.1h2.8l-2.2,2.4l-2.1,0L334.4,65.1z"/>
</g>
</svg>
