<svg id="Grupo_142202" data-name="Grupo 142202" xmlns="http://www.w3.org/2000/svg" xmlns:xlink="http://www.w3.org/1999/xlink" width="231.56" height="221.943" viewBox="0 0 231.56 221.943">
  <defs>
    <clipPath id="clip-path">
      <rect id="Rectángulo_37504" data-name="Rectángulo 37504" width="231.56" height="221.943" fill="none"/>
    </clipPath>
  </defs>
  <g id="Grupo_142201" data-name="Grupo 142201" transform="translate(0 0)" clip-path="url(#clip-path)">
    <path id="Trazado_146577" data-name="Trazado 146577" d="M136.983,59.51a25.727,25.727,0,0,0-9.764-11.7c-12.691-8.057-32.026-8.634-45.1-1.35-7.132,3.638-11.814,10.834-13.274,18.238-2.644,12.171-1.964,26.653,7.409,35.773,10.938,9.587,26.847,11.7,41,7.768a18.27,18.27,0,0,0,4.273-1.443l.417-.178a28.914,28.914,0,0,0,11.713-8.832c7.225-10.555,7.717-26.38,3.322-38.269M113.944,86.841a7.5,7.5,0,0,1-4.5,5.567,15.344,15.344,0,0,1-12.784-.765c-3.026-2.117-3.415-5.66-3.806-9.017-.3-6.614-.775-13.616,1.079-19.667,1.453-3.747,5.456-4.709,9.077-4.99,3.8,0,7.506.579,9.857,3.648,1.462,2.2,1.368,5.081,1.658,7.674-.1,5.464.389,11.982-.585,17.549" transform="translate(69.153 42.363)" fill="#004497"/>
    <path id="Trazado_146578" data-name="Trazado 146578" d="M55.161,92.451c-3.221-.2-6.832.085-9.952-.3L45.3,58.48l.2-.281,9.662-.093c.1-5.464.2-11.328-.1-16.31l-36.793-.1-6.059.1c-.1,5.083-.1,11.025,0,16.209,3.322.1,6.442,0,9.662.3V90.913l-.093,1.342-9.664.2c-.2,5.361-.2,10.547,0,15.825H55.161Z" transform="translate(12.253 42.71)" fill="#004497"/>
    <path id="Trazado_146579" data-name="Trazado 146579" d="M150.7,78.241a75.063,75.063,0,0,1-14.924,15.918c-.2.3-.792.186-.978-.093-2.45-1.53-5.083-2.779-7.429-4.31a79.641,79.641,0,0,0,8.5-11.618h-3.033A67.909,67.909,0,0,1,124.639,88.6a105.1,105.1,0,0,0-12.6-4.419l-.484-.364c.68-1.937,1.945-3.757,2.336-5.678H111.26l-2.634,5.182a125.388,125.388,0,0,0-17.958-2.3c-.3-.858.093-2.107-.3-2.883H87.836c-.2,1.156.289,2.024-.3,2.984a112.982,112.982,0,0,0-17.568,2.115l-2.644-5.1a8.288,8.288,0,0,0-2.729.1L67.04,83.9l-.289.279a124.013,124.013,0,0,0-12.883,4.514l-.391-.2a76.475,76.475,0,0,1-7.523-9.486c-.484-1.638-2.439-.678-3.51-.875a83.153,83.153,0,0,0,8.585,11.806c-2.636,1.539-5.261,3.253-8.006,4.51A70.329,70.329,0,0,1,27.6,78.241a11.319,11.319,0,0,0-3.128,0,76.546,76.546,0,0,0,29.39,26.185.09.09,0,0,1,.1-.087c.085,0,.281.178.085.281a80.7,80.7,0,0,0,24.6,7.581c29.969,3.927,58.575-8.822,75.165-33.961a15.8,15.8,0,0,0-3.126,0m-40.7,8.634.289-.194A54.425,54.425,0,0,1,122.2,90.8a61.2,61.2,0,0,1-10.834,9.2c-2.243,1.342-4.5,2.794-6.842,3.933l-4.188-1.818.287-.664a114.963,114.963,0,0,0,9.375-14.584M90.761,83.992a76.422,76.422,0,0,1,16.3,1.923l.1.287a98.209,98.209,0,0,1-9.859,14.867c-1.666.194-3.221-.468-4.879-.569l-1.666-.2c-.2-5.66-.3-10.648,0-16.31M71.926,85.719a84.8,84.8,0,0,1,15.808-1.727l.1,16.227c-2.055.468-4.3.468-6.255.96A85.818,85.818,0,0,1,71.434,86.1ZM56.2,90.905A64.038,64.038,0,0,1,68.11,86.68l.4.1a149.014,149.014,0,0,0,9.853,15.25c-1.36.771-3.026,1.239-4.387,2.014A65.82,65.82,0,0,1,56.2,91.185Zm12.6,16.4A69.312,69.312,0,0,1,45.954,96.561v-.3a55.851,55.851,0,0,1,7.225-4.029,99.37,99.37,0,0,0,17.576,13.529,7.672,7.672,0,0,1-1.956,1.541m36.216,1.239a74.339,74.339,0,0,1-32.212-.184c-.2-.478.484-.579.781-.858,9.077-5.857,23.228-5.857,32.119.466.289.577-.494.393-.688.577m9.373-2.676-4.589,1.437a10.862,10.862,0,0,1-2.15-1.541l.2-.287a86.985,86.985,0,0,0,17.278-13.335,38.516,38.516,0,0,1,7.523,4.122c-5.466,4.336-11.814,7.2-18.258,9.6" transform="translate(25.074 79.936)" fill="#004497"/>
    <path id="Trazado_146580" data-name="Trazado 146580" d="M27.508,55.506a89.486,89.486,0,0,1,7.905-9.492,51.93,51.93,0,0,1,7.616-6.433c2.541,1.632,5.371,2.99,7.81,4.52a84.454,84.454,0,0,0-8.4,11.5,5.813,5.813,0,0,0,2.931,0,74.209,74.209,0,0,1,8.2-10.26c4.19,1.539,8.294,3.162,12.594,4.318l.383.383L64.114,55.6a8.849,8.849,0,0,0,2.83,0c.875-1.626,1.555-3.443,2.533-5.083a95.482,95.482,0,0,0,17.679,2.107c.779.68.194,2.115.484,2.976h2.634c.289-.945-.093-2.014.289-2.864a93.71,93.71,0,0,0,17.1-2.219l.476.1,2.636,4.982c.885,0,2.049.2,2.737-.2l-2.447-5.551.2-.194a106.954,106.954,0,0,0,12.978-4.6A89.727,89.727,0,0,1,132.652,55.6a9.071,9.071,0,0,0,2.923-.2,39.092,39.092,0,0,0-4.2-6.043,41.782,41.782,0,0,0-4.3-5.168V43.7l6.834-3.927.986-.383A71.159,71.159,0,0,1,150.31,55.4c1.172,0,2.152.4,3.128-.085A77.276,77.276,0,0,0,95.46,21.367l-.1.186-.2-.186a44.683,44.683,0,0,0-8.695-.111,22.9,22.9,0,0,0-3.611.111A76.522,76.522,0,0,0,24.38,55.6c.978-.1,2.15.3,3.128-.1m40.516-8.43-.391.085a78.224,78.224,0,0,1-11.618-3.927l.186-.579A76.705,76.705,0,0,1,73.479,30.094c1.47.579,2.931,1.055,4.395,1.735l-.289.747a122.754,122.754,0,0,0-9.561,14.5m19.42,2.583c-2.727.383-5.166-.085-7.913-.3a52.412,52.412,0,0,1-8.583-1.539A85.621,85.621,0,0,1,81.1,32.789l6.247.85c.289,4.98.093,10.743.093,16.021m3.026.1c-.2-5.1-.1-10.751,0-16.029,1.954-.279,4.1-.577,6.051-.858,3.808,4.786,7.523,9.7,10.063,14.95A69.355,69.355,0,0,1,90.47,49.761m31.149-6.723A63.9,63.9,0,0,1,109.7,47.077,162.038,162.038,0,0,0,99.64,32c1.368-.749,3.035-1.326,4.5-2.091A68.914,68.914,0,0,1,121.805,42.74Zm-12.5-16.4a69.623,69.623,0,0,1,22.94,10.741l-.2.383L125.129,41.5h-.492a85.155,85.155,0,0,0-17.373-13.231c.194-.672,1.172-1.158,1.852-1.632m-3.9-.962v.2c-8.5,6.128-22.26,6.7-31.234,1.045-.5-.383-1.47-.569-1.573-1.241,10.353-2.389,22.55-2.583,32.807,0m-59.553,11.9A70.127,70.127,0,0,1,65.874,27.41c.3-.3.484-.579.875-.579v.194c.781.188,1.368-.678,2.049-.109.587.494,1.275.875,1.759,1.352A98.934,98.934,0,0,0,53.082,41.781a32.123,32.123,0,0,1-7.419-4.02Z" transform="translate(24.974 21.606)" fill="#004497"/>
    <path id="Trazado_146581" data-name="Trazado 146581" d="M76.665,93.521c-9.179,2.5-19.141.6-25.776-6.322-.775-.962-1.267-2.1-2.051-3.061l-13.173.1c-.2,7.766-.3,16.689,0,24.365l14.636-.093L50.5,103.9c1.666.763,3.324,1.725,4.982,2.581,10.154,4.225,23.228,5.186,33.283,0A19.711,19.711,0,0,0,98.915,86.33c-1.069-8.142-8.881-15.535-16.784-17.541L58.5,61.973l-1.751-.866a2.679,2.679,0,0,1-1.079-2.585c1.852-3.162,6.154-2.2,9.375-2.115,6.832.962,13.861,3.263,17.865,9.5,4.292,0,9.272.085,13.956-.1.194-7.863-.085-14.764-.2-22.728-4.393-.1-9.764-.1-14.15.1-.2,1.14.186,2.763-.3,3.919l-4.488-2.4c-10.743-4.5-25.778-4.98-35.534,2.022-6.35,4.6-8.3,12.859-6.638,20.143,1.265,6.9,7.9,11.984,14.252,14.381,8.687,3.067,17.764,5.286,26.56,8.251.877.391,2.041,1.259,1.852,2.312,0,.85-.883,1.344-1.563,1.709" transform="translate(35.854 42.388)" fill="#004497"/>
    <path id="Trazado_146582" data-name="Trazado 146582" d="M17.526,78.166l.476,1.1a.421.421,0,0,1-.247.538L3.69,85.875a.4.4,0,0,1-.536-.2l-.474-1.1a.4.4,0,0,1,.219-.528L16.974,77.98a.411.411,0,0,1,.553.186" transform="translate(2.711 79.84)" fill="#004497"/>
    <path id="Trazado_146583" data-name="Trazado 146583" d="M13.351,72.589l.332.984a.435.435,0,0,1-.271.555l-6.8,2.3c-2.081.7-2.482,1.622-1.956,3.2A6.935,6.935,0,0,0,6.4,82.134l8.721-2.941a.444.444,0,0,1,.551.271l.34,1.012a.427.427,0,0,1-.279.526L5.2,84.565a.42.42,0,0,1-.545-.257l-.348-1.028a.419.419,0,0,1,.281-.532l.391-.14A6.464,6.464,0,0,1,2.924,79.65C2.081,77.17,3.256,75.538,6,74.6l6.8-2.288a.438.438,0,0,1,.551.273" transform="translate(2.72 74.055)" fill="#004497"/>
    <path id="Trazado_146584" data-name="Trazado 146584" d="M13.932,68.577a10.666,10.666,0,0,1,.433,1.352c.458,1.954.178,3-2.15,3.559l-7.4,1.759.255,2.107a.392.392,0,0,1-.289.494l-.567.136a.382.382,0,0,1-.478-.306l-.492-2.057-2.075.494a.438.438,0,0,1-.51-.281L.231,74.773c-.008-.018-.008-.045-.016-.061A.35.35,0,0,1,.5,74.306l2.3-.545-.545-2.294a.439.439,0,0,1,.324-.52l.723-.17a.436.436,0,0,1,.526.322l.545,2.288,7.385-1.767c1.164-.271,1.267-.611,1.063-1.462l-.281-1.182c-.067-.3-.016-.466.2-.518l.739-.176c.188-.045.34.03.451.3" transform="translate(0.211 69.933)" fill="#004497"/>
    <path id="Trazado_146585" data-name="Trazado 146585" d="M6.659,63.946l1,7.227.306-.045c2.567-.354,3.373-1.494,3.1-3.482a30.508,30.508,0,0,0-.765-3.808.548.548,0,0,1-.016-.111.3.3,0,0,1,.255-.383l.731-.1c.281-.043.441.026.553.358a20.18,20.18,0,0,1,.909,3.814c.34,2.482-.492,5.057-4.5,5.62L6.277,73.3c-3.083.435-5.278-1-5.711-4.089-.433-3.15,1.326-5.02,4.395-5.448l1.164-.16a.429.429,0,0,1,.534.346M5.224,65.681c-2.439.34-3.255,1.393-2.992,3.3.255,1.854,1.454,2.745,3.784,2.423l.194-.026-.79-5.719Z" transform="translate(0.513 64.772)" fill="#004497"/>
    <path id="Trazado_146586" data-name="Trazado 146586" d="M1.658,60.091a5.546,5.546,0,0,0,1.063,2.95l9.1-.474a.454.454,0,0,1,.451.415l.059,1.063a.43.43,0,0,1-.417.433L.842,65.057a.416.416,0,0,1-.451-.391L.34,63.646a.412.412,0,0,1,.409-.435l.458-.024A5.225,5.225,0,0,1,0,60.178c-.008-.306.111-.46.375-.476l.885-.043c.237-.018.383.128.4.431" transform="translate(0 61.113)" fill="#004497"/>
    <path id="Trazado_146587" data-name="Trazado 146587" d="M12.315,54.646l-.043,1.047a.434.434,0,0,1-.451.415L4.675,55.82c-2.192-.085-2.9.628-2.958,2.277a6.7,6.7,0,0,0,.731,2.966l9.16.366a.453.453,0,0,1,.417.449l-.043,1.063a.421.421,0,0,1-.449.391L.46,62.9a.421.421,0,0,1-.417-.433l.043-1.089a.415.415,0,0,1,.449-.391L.944,61a6.6,6.6,0,0,1-.858-3.494c.1-2.609,1.775-3.713,4.666-3.6l7.138.281a.437.437,0,0,1,.425.449" transform="translate(0.044 55.221)" fill="#004497"/>
    <path id="Trazado_146588" data-name="Trazado 146588" d="M13.266,49.863l-.154,1a.433.433,0,0,1-.494.364l-.476-.067a6.6,6.6,0,0,1,.571,3.466C12.44,56.45,11.4,58,8.71,57.614l-.263-.043c-2.32-.34-3.279-1.869-2.721-5.7l.239-1.589-.858-.128c-1.81-.263-2.524.263-2.769,1.939a30.634,30.634,0,0,0-.316,3.322c-.008.043-.008.059-.016.1-.034.2-.128.383-.4.34l-.755-.109c-.239-.034-.34-.2-.34-.51a17.658,17.658,0,0,1,.213-3.383c.441-2.984,2.126-3.97,4.664-3.6l7.506,1.113a.441.441,0,0,1,.375.492m-5.942.621-.239,1.589c-.383,2.6.1,3.375,1.624,3.6l.255.034c1.547.229,2.067-.433,2.253-1.682a6.023,6.023,0,0,0-.433-3.037Z" transform="translate(0.512 49.356)" fill="#004497"/>
    <path id="Trazado_146589" data-name="Trazado 146589" d="M15.4,46.573a10.808,10.808,0,0,1-.221,1.4c-.468,1.947-1.2,2.755-3.528,2.2L4.256,48.417l-.723,2a.4.4,0,0,1-.476.314l-.571-.136A.388.388,0,0,1,2.2,50.1l.492-2.057L.619,47.548a.443.443,0,0,1-.332-.484l.085-1.138a.213.213,0,0,0,.016-.069.348.348,0,0,1,.435-.229l2.31.543.545-2.286a.45.45,0,0,1,.528-.322l.723.178a.437.437,0,0,1,.322.518l-.545,2.286,7.387,1.767c1.164.273,1.409.018,1.605-.832l.289-1.182c.067-.3.186-.423.4-.372l.739.178c.2.043.3.178.273.468" transform="translate(0.292 44.615)" fill="#004497"/>
    <path id="Trazado_146590" data-name="Trazado 146590" d="M3.163,41.8l-.324,1.063a.441.441,0,0,1-.543.289L.63,42.647A.439.439,0,0,1,.341,42.1l.324-1.063a.443.443,0,0,1,.545-.289l1.664.51a.44.44,0,0,1,.289.545M16.4,45.918l-.306.994a.44.44,0,0,1-.545.289l-10.6-3.247a.437.437,0,0,1-.289-.543l.308-1a.438.438,0,0,1,.543-.287l10.6,3.253a.431.431,0,0,1,.289.545" transform="translate(0.331 41.725)" fill="#004497"/>
    <path id="Trazado_146591" data-name="Trazado 146591" d="M15.565,43.645c-1.182,2.966-3.741,3.7-6.707,2.514l-1.53-.6C4.354,44.376,3,42.08,4.184,39.114s3.747-3.723,6.715-2.541l1.537.611c2.968,1.18,4.31,3.492,3.13,6.46m-5.373-5.3c-2.057-.824-3.7-.518-4.454,1.377-.747,1.879.213,3.221,2.3,4.055l1.528.6c2.059.824,3.7.536,4.456-1.36.739-1.879-.213-3.237-2.3-4.063Z" transform="translate(3.849 36.919)" fill="#004497"/>
    <path id="Trazado_146592" data-name="Trazado 146592" d="M20.232,35.27l-.494.919a.435.435,0,0,1-.585.178l-6.314-3.383c-1.939-1.047-2.883-.707-3.664.747a6.941,6.941,0,0,0-.646,2.992l8.1,4.342a.466.466,0,0,1,.178.6l-.51.935a.434.434,0,0,1-.579.162L5.936,37.505a.409.409,0,0,1-.186-.569l.51-.96a.418.418,0,0,1,.577-.154l.366.2a6.627,6.627,0,0,1,.757-3.528c1.231-2.3,3.229-2.567,5.778-1.2l6.316,3.383a.445.445,0,0,1,.178.6" transform="translate(5.836 31.202)" fill="#004497"/>
    <path id="Trazado_146593" data-name="Trazado 146593" d="M22.808,31.4l-.569.824a.435.435,0,0,1-.6.111l-.391-.263a6.564,6.564,0,0,1-1.012,3.356c-1.045,1.53-2.668,2.474-4.911.935l-.213-.144c-1.937-1.326-2.134-3.12.061-6.316l.909-1.326-.723-.494c-1.5-1.026-2.381-.866-3.34.536a30.972,30.972,0,0,0-1.735,2.838l-.059.085c-.111.162-.279.289-.51.128l-.63-.425c-.194-.136-.221-.34-.085-.611A19.472,19.472,0,0,1,10.672,27.7c1.709-2.49,3.648-2.636,5.763-1.182L22.7,30.8a.433.433,0,0,1,.109.6M17.2,29.356l-.909,1.326c-1.48,2.168-1.395,3.077-.119,3.952l.213.146c1.292.883,2.047.51,2.761-.536a5.834,5.834,0,0,0,.943-2.907Z" transform="translate(9.13 26.211)" fill="#004497"/>
    <path id="Trazado_146594" data-name="Trazado 146594" d="M24.08,31.915l-.715.885a.4.4,0,0,1-.577.032l-12.12-9.7a.4.4,0,0,1-.085-.561l.715-.885a.393.393,0,0,1,.561-.051l12.12,9.7a.42.42,0,0,1,.1.579" transform="translate(10.758 22.063)" fill="#004497"/>
    <path id="Trazado_146595" data-name="Trazado 146595" d="M28.6,28.7c-2.492,2.328-5.668,2.567-8.968-.951L17.714,25.7c-3.3-3.526-2.862-6.68-.372-9.017s5.66-2.559,8.958.968L28.22,19.7c3.3,3.518,2.873,6.662.383,9m-3.765-9.681c-2.5-2.668-4.531-2.668-6.274-1.036s-1.887,3.68.613,6.348l1.911,2.049c2.5,2.66,4.549,2.652,6.3,1.01,1.725-1.613,1.871-3.662-.628-6.322Z" transform="translate(15.729 15.321)" fill="#004497"/>
    <path id="Trazado_146596" data-name="Trazado 146596" d="M26.013,14.195a5.544,5.544,0,0,0-1.828,2.549l5.535,7.233a.455.455,0,0,1-.077.611l-.85.648a.439.439,0,0,1-.6-.1l-6.731-8.8a.412.412,0,0,1,.059-.6l.808-.619a.415.415,0,0,1,.6.093l.279.356a5.177,5.177,0,0,1,1.8-2.684c.239-.188.443-.18.6.032l.545.707c.146.186.1.383-.136.569" transform="translate(21.887 13.063)" fill="#004497"/>
    <path id="Trazado_146597" data-name="Trazado 146597" d="M32.354,10.86l-.577.543A3.084,3.084,0,0,1,33.6,12.9l.1.144c1.281,2.014.747,3.927-2.075,5.729a6.2,6.2,0,0,1-2.362.986.817.817,0,0,0-.061.919c.2.314.451.381.945.221l3.178-1.036c2.081-.688,4.138-1.275,5.235.449l.093.144c1.122,1.761.638,3.587-2.371,5.5-2.891,1.852-4.929,1.573-6.069-.223l-.109-.168a3.5,3.5,0,0,1-.324-3.061l-.17.026a1.787,1.787,0,0,1-1.751-.893l-.008-.016a1.786,1.786,0,0,1-.093-1.8,3.157,3.157,0,0,1-2.2-1.581l-.1-.154c-1.036-1.632-1.148-3.824,2.006-5.838L31.48,9.686a.509.509,0,0,1,.68.136l.3.476c.154.239.077.393-.1.563m-.348,3.051c-.7-1.1-1.743-1.642-3.723-.383-2.057,1.308-1.879,2.516-1.223,3.545l.093.144c.51.808,1.555,1.632,3.662.287,1.98-1.257,1.99-2.344,1.283-3.441Zm4.937,7.427c-.46-.723-1.231-.638-3.144-.008l-2.415.79a2.586,2.586,0,0,0,.3,2.439l.1.17c.654,1.02,1.664,1.275,3.7-.016,2.091-1.334,2.192-2.227,1.547-3.231Z" transform="translate(25.413 9.845)" fill="#004497"/>
    <path id="Trazado_146598" data-name="Trazado 146598" d="M41.752,17.385l-.9.441a.433.433,0,0,1-.579-.2L40.06,17.2a6.724,6.724,0,0,1-2.539,2.441c-1.658.814-3.537.84-4.735-1.6l-.119-.229c-1.036-2.107-.332-3.775,3.144-5.482l1.445-.715-.383-.781C36.057,9.19,35.215,8.9,33.695,9.658a31.286,31.286,0,0,0-2.907,1.626.787.787,0,0,1-.1.051c-.178.083-.383.119-.5-.136l-.34-.69c-.109-.213-.024-.4.231-.569a18.313,18.313,0,0,1,2.9-1.751c2.711-1.334,4.48-.51,5.618,1.794L41.948,16.8a.442.442,0,0,1-.2.587m-3.893-4.539-1.443.7c-2.364,1.164-2.721,2.006-2.041,3.391l.119.231c.688,1.409,1.539,1.454,2.668.893a5.979,5.979,0,0,0,2.251-2.083Z" transform="translate(30.524 7.732)" fill="#004497"/>
    <path id="Trazado_146599" data-name="Trazado 146599" d="M47.2,15.7l-.986.356a.431.431,0,0,1-.553-.263L43.212,9.068C42.465,7,41.538,6.618,39.983,7.179a7.026,7.026,0,0,0-2.474,1.8l3.136,8.634a.442.442,0,0,1-.255.553l-1,.364a.429.429,0,0,1-.536-.263l-3.8-10.436a.417.417,0,0,1,.237-.545l1.028-.375a.419.419,0,0,1,.536.263L37,7.57a6.55,6.55,0,0,1,2.907-2.124c2.456-.893,4.114.247,5.108,2.966l2.447,6.723a.449.449,0,0,1-.263.561" transform="translate(35.881 5.273)" fill="#004497"/>
    <path id="Trazado_146600" data-name="Trazado 146600" d="M42.532,4.425l-1.071.289a.441.441,0,0,1-.534-.306l-.46-1.684a.432.432,0,0,1,.306-.526l1.071-.3a.444.444,0,0,1,.536.308l.458,1.682a.445.445,0,0,1-.306.534m3.6,13.4-1.012.271a.437.437,0,0,1-.534-.306l-2.907-10.7a.432.432,0,0,1,.306-.534l1-.273a.448.448,0,0,1,.536.308l2.9,10.7a.43.43,0,0,1-.3.536" transform="translate(41.439 1.933)" fill="#004497"/>
    <path id="Trazado_146601" data-name="Trazado 146601" d="M53.32,14.531,46.86,15.8a1.187,1.187,0,0,1-1.539-.925l-.075-.409a1.947,1.947,0,0,1,.221-1.478L49.64,5.037a.468.468,0,0,0,.051-.2c-.016-.091-.077-.144-.247-.109L44.251,5.735a.439.439,0,0,1-.518-.34L43.6,4.662a.44.44,0,0,1,.34-.51l6.29-1.223c.875-.178,1.275.17,1.4.808l.1.518a1.72,1.72,0,0,1-.263,1.267l-4.251,8.132a.342.342,0,0,0-.059.265c.016.1.051.16.2.136l5.644-1.105a.431.431,0,0,1,.51.34l.144.731a.443.443,0,0,1-.34.51" transform="translate(44.65 2.953)" fill="#004497"/>
    <path id="Trazado_146602" data-name="Trazado 146602" d="M57.8,14.05l-1,.1a.437.437,0,0,1-.468-.4l-.043-.476a6.56,6.56,0,0,1-3.239,1.368c-1.844.17-3.6-.476-3.85-3.178l-.026-.263c-.213-2.338,1.039-3.63,4.9-3.986l1.6-.144L55.591,6.2c-.17-1.818-.85-2.387-2.541-2.235a32.871,32.871,0,0,0-3.3.476c-.043.01-.069.01-.111.018-.194.016-.389-.034-.415-.316l-.069-.755c-.026-.239.111-.383.417-.451a18.167,18.167,0,0,1,3.322-.6c3.01-.271,4.361,1.132,4.6,3.68l.7,7.555a.443.443,0,0,1-.391.476M55.8,8.424l-1.6.154c-2.628.237-3.263.883-3.12,2.423l.026.261c.144,1.557.917,1.9,2.166,1.786a5.98,5.98,0,0,0,2.848-1.138Z" transform="translate(50.349 2.362)" fill="#004497"/>
    <path id="Trazado_146603" data-name="Trazado 146603" d="M61.129,15.509a10.2,10.2,0,0,1-1.419.128c-2.006.034-2.966-.476-3.008-2.873l-.111-7.6-2.115-.2c-.239-.026-.417-.154-.425-.391l-.008-.587a.389.389,0,0,1,.407-.4l2.118-.034-.034-2.134a.45.45,0,0,1,.383-.441L58.044.79h.069a.333.333,0,0,1,.33.364l.034,2.371,2.354-.032a.429.429,0,0,1,.443.423l.016.741a.443.443,0,0,1-.433.441L58.5,5.141l.119,7.6c.016,1.2.322,1.368,1.2,1.352l1.215-.018c.306-.008.46.077.468.3l.008.763c0,.2-.1.324-.383.375" transform="translate(55.359 0.809)" fill="#004497"/>
    <path id="Trazado_146604" data-name="Trazado 146604" d="M60.151,16.523l-1.045-.067A.437.437,0,0,1,58.7,16l.648-11.073a.442.442,0,0,1,.458-.409l1.047.059a.445.445,0,0,1,.407.468l-.644,11.067a.444.444,0,0,1-.462.415M61,2.67,59.887,2.6a.434.434,0,0,1-.407-.458l.1-1.735A.435.435,0,0,1,60.039,0L61.155.06a.443.443,0,0,1,.407.46l-.1,1.741A.436.436,0,0,1,61,2.67" transform="translate(60.128 0)" fill="#004497"/>
    <path id="Trazado_146605" data-name="Trazado 146605" d="M65.224,14.789c-3.18-.433-4.514-2.745-4.079-5.915l.219-1.64c.425-3.17,2.33-5.049,5.5-4.616s4.529,2.745,4.1,5.915l-.219,1.64c-.435,3.17-2.354,5.049-5.525,4.616m3.84-6.51c.3-2.2-.389-3.723-2.421-4-2-.261-3.077,1-3.383,3.215l-.223,1.64c-.3,2.2.375,3.723,2.407,4,2.006.263,3.1-.994,3.4-3.211Z" transform="translate(62.553 2.619)" fill="#004497"/>
    <path id="Trazado_146606" data-name="Trazado 146606" d="M74.9,17.036l-1.01-.255a.432.432,0,0,1-.314-.534L75.338,9.3c.543-2.134-.008-2.968-1.615-3.383a6.946,6.946,0,0,0-3.061.1l-2.267,8.907a.446.446,0,0,1-.528.314l-1.034-.263a.434.434,0,0,1-.3-.518L69.279,3.694a.419.419,0,0,1,.51-.324l1.053.273a.409.409,0,0,1,.3.518l-.1.4a6.53,6.53,0,0,1,3.6-.111c2.535.648,3.273,2.516,2.559,5.33l-1.775,6.944a.439.439,0,0,1-.528.314" transform="translate(68.143 3.438)" fill="#004497"/>
    <path id="Trazado_146607" data-name="Trazado 146607" d="M84.607,6.748l-.968-.4c-.943-.391-1.344-.231-1.794.875l-.6,1.454,2.115.866a.4.4,0,0,1,.231.528l-.324.781a.376.376,0,0,1-.518.186l-2.118-.875-3.782,9.179a.451.451,0,0,1-.551.239l-.988-.409a.449.449,0,0,1-.237-.561l3.79-9.179L77,8.406a.417.417,0,0,1-.239-.518l.229-.545a.4.4,0,0,1,.528-.2l1.956.808.6-1.445c.891-2.158,2.2-2.371,3.968-1.64a5.207,5.207,0,0,1,1.079.587c.2.154.324.3.255.484l-.281.664c-.085.221-.263.237-.484.152" transform="translate(76.875 4.591)" fill="#004497"/>
    <path id="Trazado_146608" data-name="Trazado 146608" d="M80.84,19.668c-2.83-1.488-3.3-4.114-1.81-6.944l.765-1.462c1.486-2.83,3.907-3.943,6.739-2.456s3.314,4.114,1.826,6.944l-.765,1.47c-1.486,2.83-3.925,3.927-6.755,2.447m5.83-4.8c1.028-1.964.891-3.628-.919-4.581-1.783-.935-3.221-.119-4.267,1.862l-.763,1.47c-1.028,1.964-.911,3.62.9,4.563,1.786.945,3.237.128,4.284-1.852Z" transform="translate(80.108 8.345)" fill="#004497"/>
    <path id="Trazado_146609" data-name="Trazado 146609" d="M92.211,14.314a5.542,5.542,0,0,0-3.008-.85l-4.929,7.65a.442.442,0,0,1-.6.128l-.9-.569a.448.448,0,0,1-.111-.6l5.992-9.308a.424.424,0,0,1,.587-.144l.858.553a.415.415,0,0,1,.111.587l-.247.383a5.177,5.177,0,0,1,3.136.781c.255.162.316.356.178.577l-.484.749c-.128.2-.332.229-.587.059" transform="translate(84.612 10.818)" fill="#004497"/>
    <path id="Trazado_146610" data-name="Trazado 146610" d="M90.178,27.094A22.67,22.67,0,0,1,87.646,24.5c-.237-.289-.211-.383-.059-.569l.569-.656a.342.342,0,0,1,.51-.024.434.434,0,0,0,.051.043c.7.721,1.871,1.792,2.626,2.447,1.982,1.707,3.188,1.366,4.184.213.713-.816.628-1.692-.071-3.911L94.691,19.7c-.713-2.237-.747-3.723.393-5.041,1.715-2,3.943-1.682,6.45.476a30.658,30.658,0,0,1,2.694,2.668.383.383,0,0,1,.034.526l-.613.707a.336.336,0,0,1-.5.026l-.032-.034c-.69-.672-1.794-1.717-2.747-2.541-1.7-1.462-2.735-1.727-3.773-.526-.67.781-.526,1.707.077,3.543l.731,2.219c.925,2.779.826,4.265-.314,5.583-1.36,1.581-3.664,2.583-6.911-.213" transform="translate(89.603 13.65)" fill="#004497"/>
    <path id="Trazado_146611" data-name="Trazado 146611" d="M94.459,31.036A10.353,10.353,0,0,1,93.4,30.1c-1.4-1.427-1.69-2.474.016-4.148l5.423-5.312-1.308-1.674a.392.392,0,0,1-.008-.569l.423-.409a.373.373,0,0,1,.561.026l1.48,1.5,1.52-1.488a.441.441,0,0,1,.587-.024l.919.688.041.043a.352.352,0,0,1-.034.494l-1.7,1.656,1.648,1.674a.45.45,0,0,1-.008.621l-.526.518a.448.448,0,0,1-.619-.008L100.17,22.01l-5.421,5.312c-.85.834-.765,1.174-.154,1.794l.85.866c.213.221.255.391.1.545L95,31.061c-.144.138-.314.146-.543-.024" transform="translate(94.484 18.31)" fill="#004497"/>
    <path id="Trazado_146612" data-name="Trazado 146612" d="M98.54,34.775l-.63-.781a.435.435,0,0,1,.061-.613l.372-.3A6.592,6.592,0,0,1,95.4,31.154c-1.174-1.427-1.624-3.253.484-4.972l.2-.17c1.826-1.478,3.6-1.164,6.043,1.844l1.02,1.251.678-.553c1.413-1.156,1.5-2.041.435-3.356a31.3,31.3,0,0,0-2.243-2.474.636.636,0,0,0-.069-.085c-.119-.154-.2-.34.024-.52l.587-.484c.186-.152.383-.117.611.1a19.35,19.35,0,0,1,2.354,2.429c1.9,2.346,1.5,4.259-.492,5.873l-5.889,4.8a.442.442,0,0,1-.613-.059m3.553-4.81-1.02-1.241c-1.656-2.049-2.559-2.211-3.749-1.241l-.2.17c-1.217.986-1.071,1.818-.271,2.8a5.932,5.932,0,0,0,2.533,1.727Z" transform="translate(96.717 22.067)" fill="#004497"/>
    <path id="Trazado_146613" data-name="Trazado 146613" d="M101.909,39.674l-.561-.877a.428.428,0,0,1,.128-.6l6.008-3.885c1.844-1.2,2.006-2.184,1.105-3.571a6.875,6.875,0,0,0-2.3-2l-7.709,4.988a.45.45,0,0,1-.6-.128l-.579-.893a.432.432,0,0,1,.146-.585l9.306-6.027a.423.423,0,0,1,.6.111l.585.909a.415.415,0,0,1-.136.585l-.348.221a6.558,6.558,0,0,1,2.721,2.364c1.419,2.192.688,4.063-1.741,5.634l-6.01,3.893a.441.441,0,0,1-.6-.136" transform="translate(99.707 26.652)" fill="#004497"/>
    <path id="Trazado_146614" data-name="Trazado 146614" d="M103.609,43.477a20.96,20.96,0,0,1-2.115-3.417c-1.447-2.9-.221-5.174,2.694-6.636l1.4-.7c3.053-1.52,5.468-.97,6.875,1.871a14.883,14.883,0,0,1,.947,2.371l3.618-1.8a.418.418,0,0,1,.553.186l.5.994a.392.392,0,0,1-.2.528l-13.618,6.792c-.255.126-.415.136-.654-.188m8.365-5.788a16.684,16.684,0,0,0-1-2.346c-.953-1.913-2.447-1.937-4.531-.9l-1.4.7c-2.124,1.053-3.008,2.251-2.049,4.172.326.662.86,1.589,1.253,2.217Z" transform="translate(103.344 32.676)" fill="#004497"/>
    <path id="Trazado_146615" data-name="Trazado 146615" d="M105.145,48.276l-.35-.935a.439.439,0,0,1,.255-.561l.451-.17a6.615,6.615,0,0,1-2.166-2.763c-.638-1.733-.478-3.6,2.073-4.555l.247-.085c2.2-.826,3.771.051,5.124,3.68l.563,1.512.814-.306c1.711-.638,2.083-1.445,1.488-3.035A32.592,32.592,0,0,0,112.325,38l-.04-.1a.33.33,0,0,1,.194-.484l.715-.263c.221-.085.4.008.543.279a18.489,18.489,0,0,1,1.437,3.061c1.055,2.838.051,4.5-2.354,5.4l-7.114,2.644a.441.441,0,0,1-.561-.255m4.913-3.4-.561-1.512c-.917-2.466-1.709-2.907-3.162-2.371l-.239.085c-1.472.551-1.6,1.385-1.164,2.567a5.969,5.969,0,0,0,1.836,2.447Z" transform="translate(105.53 38.025)" fill="#004497"/>
    <path id="Trazado_146616" data-name="Trazado 146616" d="M115.805,47.474a5.647,5.647,0,0,0-1.682-2.65l-8.788,2.421a.449.449,0,0,1-.534-.306l-.289-1.028a.435.435,0,0,1,.314-.51l10.7-2.95a.411.411,0,0,1,.528.279l.273.988a.419.419,0,0,1-.308.516l-.441.121a5.179,5.179,0,0,1,1.818,2.676c.085.3,0,.476-.255.553l-.858.229c-.229.069-.4-.043-.476-.34" transform="translate(107.048 43.467)" fill="#004497"/>
    <path id="Trazado_146617" data-name="Trazado 146617" d="M106.763,56.062a21.137,21.137,0,0,1-1.1-3.867c-.593-3.186,1.209-5.049,4.413-5.642l1.547-.289c3.356-.621,5.525.569,6.1,3.688a15.583,15.583,0,0,1,.255,2.541l3.978-.739a.4.4,0,0,1,.476.332l.2,1.087a.389.389,0,0,1-.332.46L107.34,56.42c-.279.051-.439.016-.577-.358M116.4,52.79a17.7,17.7,0,0,0-.322-2.533c-.393-2.1-1.82-2.541-4.107-2.107l-1.537.279c-2.338.435-3.51,1.344-3.12,3.46.136.731.391,1.767.6,2.482Z" transform="translate(108.127 47.228)" fill="#004497"/>
    <path id="Trazado_146618" data-name="Trazado 146618" d="M106.331,54.889l-.1-1.045a.432.432,0,0,1,.385-.476l11.039-1.148a.432.432,0,0,1,.476.385l.111,1.045a.44.44,0,0,1-.393.476l-11.031,1.146a.437.437,0,0,1-.484-.383m13.818-1.4-.119-1.105a.441.441,0,0,1,.393-.476l1.733-.178a.432.432,0,0,1,.478.383l.109,1.105a.441.441,0,0,1-.383.484l-1.735.178a.437.437,0,0,1-.476-.391" transform="translate(108.815 52.988)" fill="#004497"/>
    <path id="Trazado_146619" data-name="Trazado 146619" d="M106.655,62.6l-.2-6.569a1.175,1.175,0,0,1,1.158-1.368l.415-.008a1.986,1.986,0,0,1,1.427.449l7.166,5.405a.385.385,0,0,0,.192.085c.085,0,.156-.051.148-.221l-.162-5.294a.441.441,0,0,1,.425-.451l.739-.016a.437.437,0,0,1,.451.415l.194,6.409c.024.893-.375,1.233-1.03,1.249l-.524.016a1.669,1.669,0,0,1-1.209-.466l-7.342-5.508a.347.347,0,0,0-.247-.1c-.1,0-.17.024-.17.178l.18,5.753a.44.44,0,0,1-.425.451l-.739.016a.436.436,0,0,1-.451-.425" transform="translate(109.053 55.944)" fill="#004497"/>
    <path id="Trazado_146620" data-name="Trazado 146620" d="M106.275,67.782l.075-1a.428.428,0,0,1,.46-.4l.476.034A6.722,6.722,0,0,1,106.459,63c.13-1.854,1.055-3.484,3.767-3.3l.263.016c2.346.17,3.415,1.617,3.144,5.484l-.109,1.605.864.059c1.83.128,2.5-.449,2.618-2.15a31.639,31.639,0,0,0,.063-3.332.507.507,0,0,0,.008-.111c.014-.194.091-.381.372-.364l.765.051c.237.016.358.178.375.494a18.511,18.511,0,0,1,.051,3.381c-.213,3.016-1.818,4.124-4.385,3.946l-7.573-.526a.446.446,0,0,1-.407-.47m5.881-1.071.111-1.605c.184-2.626-.35-3.365-1.889-3.476l-.263-.018c-1.563-.107-2.032.6-2.117,1.86a6,6,0,0,0,.664,2.994Z" transform="translate(108.864 61.141)" fill="#004497"/>
    <path id="Trazado_146621" data-name="Trazado 146621" d="M105.648,70.324a10.7,10.7,0,0,1,.119-1.419c.306-1.98.978-2.846,3.34-2.474l7.5,1.182.569-2.049a.4.4,0,0,1,.451-.348l.577.091a.378.378,0,0,1,.324.47l-.324,2.089,2.107.332a.439.439,0,0,1,.366.451V69.8a.212.212,0,0,0-.008.069.35.35,0,0,1-.417.263l-2.344-.362-.366,2.318a.447.447,0,0,1-.5.366l-.729-.119a.439.439,0,0,1-.366-.5l.366-2.32-7.506-1.182c-1.18-.186-1.4.087-1.539.951l-.186,1.2c-.051.308-.162.443-.375.407l-.757-.117c-.186-.032-.306-.16-.306-.441" transform="translate(108.223 66.801)" fill="#004497"/>
    <path id="Trazado_146622" data-name="Trazado 146622" d="M105.28,70.242l.219-1.02a.437.437,0,0,1,.52-.33L116.854,71.3a.432.432,0,0,1,.332.518l-.221,1.018a.445.445,0,0,1-.518.334L105.61,70.761a.431.431,0,0,1-.33-.518M118.826,73.3l.239-1.087a.437.437,0,0,1,.518-.332l1.7.383a.438.438,0,0,1,.33.518l-.237,1.079a.436.436,0,0,1-.518.332l-1.7-.375a.438.438,0,0,1-.332-.518" transform="translate(107.836 70.561)" fill="#004497"/>
    <path id="Trazado_146623" data-name="Trazado 146623" d="M104.391,74.833c.933-3.059,3.423-3.992,6.484-3.059l1.579.484c3.053.935,4.591,3.109,3.656,6.17s-3.443,4.012-6.494,3.075l-1.581-.482c-3.051-.937-4.589-3.138-3.644-6.189m5.786,4.844c2.118.646,3.733.213,4.336-1.741.585-1.937-.478-3.2-2.618-3.85l-1.583-.486c-2.124-.652-3.729-.229-4.324,1.719s.466,3.213,2.609,3.877Z" transform="translate(106.652 73.169)" fill="#004497"/>
    <path id="Trazado_146624" data-name="Trazado 146624" d="M101.564,84.235l.417-.953a.433.433,0,0,1,.577-.221l6.555,2.854c2.012.887,2.921.478,3.585-1.036a6.965,6.965,0,0,0,.4-3.033l-8.413-3.672a.448.448,0,0,1-.221-.569l.425-.978a.443.443,0,0,1,.569-.2l10.154,4.437a.405.405,0,0,1,.231.551l-.433,1a.406.406,0,0,1-.561.2l-.383-.162A6.506,6.506,0,0,1,114,86.019c-1.039,2.389-3.01,2.814-5.652,1.656l-6.555-2.862a.443.443,0,0,1-.229-.577" transform="translate(104.004 78.251)" fill="#004497"/>
    <path id="Trazado_146625" data-name="Trazado 146625" d="M3.818,101.072h8.814v1.773h-6.7v5.439h6.193v1.747H5.929v7.405H3.818Z" transform="translate(3.911 103.535)" fill="#004497"/>
    <path id="Trazado_146626" data-name="Trazado 146626" d="M16.059,115.238l-.17-1.482h-.073a4.37,4.37,0,0,1-3.593,1.749A3.348,3.348,0,0,1,8.63,112.13c0-2.842,2.524-4.395,7.065-4.371v-.243a2.422,2.422,0,0,0-2.67-2.719,5.868,5.868,0,0,0-3.059.873l-.486-1.407a7.29,7.29,0,0,1,3.86-1.045c3.593,0,4.468,2.452,4.468,4.806v4.395A16.35,16.35,0,0,0,18,115.238Zm-.316-6c-2.33-.049-4.976.364-4.976,2.646a1.891,1.891,0,0,0,2.014,2.039,2.923,2.923,0,0,0,2.84-1.966,2.231,2.231,0,0,0,.121-.68Z" transform="translate(8.84 105.735)" fill="#004497"/>
    <path id="Trazado_146627" data-name="Trazado 146627" d="M14.919,106.667c0-1.215-.024-2.211-.1-3.18h1.868l.1,1.893h.073a4.055,4.055,0,0,1,3.692-2.16,3.473,3.473,0,0,1,3.326,2.354h.049a4.836,4.836,0,0,1,1.31-1.53,4.01,4.01,0,0,1,2.6-.824c1.555,0,3.863,1.02,3.863,5.1v6.919H29.608v-6.652c0-2.257-.826-3.618-2.549-3.618a2.763,2.763,0,0,0-2.524,1.943,3.507,3.507,0,0,0-.17,1.067v7.259H22.276v-7.041c0-1.869-.826-3.229-2.452-3.229a2.921,2.921,0,0,0-2.648,2.138,2.981,2.981,0,0,0-.17,1.043v7.089H14.919Z" transform="translate(15.183 105.735)" fill="#004497"/>
    <path id="Trazado_146628" data-name="Trazado 146628" d="M27.392,102.4a1.323,1.323,0,0,1-2.646,0,1.3,1.3,0,0,1,1.334-1.336,1.269,1.269,0,0,1,1.312,1.336m-2.379,3.3h2.138v11.752H25.013Z" transform="translate(25.349 103.524)" fill="#004497"/>
    <rect id="Rectángulo_37501" data-name="Rectángulo 37501" width="2.138" height="17.24" transform="translate(56.047 203.733)" fill="#004497"/>
    <path id="Trazado_146629" data-name="Trazado 146629" d="M33.032,102.4a1.323,1.323,0,0,1-2.646,0,1.3,1.3,0,0,1,1.336-1.336,1.268,1.268,0,0,1,1.31,1.336m-2.379,3.3h2.138v11.752H30.653Z" transform="translate(31.127 103.524)" fill="#004497"/>
    <path id="Trazado_146630" data-name="Trazado 146630" d="M40.3,115.238l-.17-1.482h-.073a4.37,4.37,0,0,1-3.593,1.749,3.348,3.348,0,0,1-3.593-3.375c0-2.842,2.524-4.395,7.065-4.371v-.243a2.422,2.422,0,0,0-2.67-2.719,5.868,5.868,0,0,0-3.059.873l-.486-1.407a7.29,7.29,0,0,1,3.86-1.045c3.593,0,4.468,2.452,4.468,4.806v4.395a16.35,16.35,0,0,0,.194,2.818Zm-.316-6c-2.33-.049-4.976.364-4.976,2.646a1.891,1.891,0,0,0,2.014,2.039,2.923,2.923,0,0,0,2.84-1.966,2.231,2.231,0,0,0,.121-.68Z" transform="translate(33.671 105.735)" fill="#004497"/>
    <rect id="Rectángulo_37502" data-name="Rectángulo 37502" width="2.111" height="16.365" transform="translate(84.398 204.608)" fill="#004497"/>
    <path id="Trazado_146631" data-name="Trazado 146631" d="M44.684,115a7.482,7.482,0,0,0,3.788,1.069c2.16,0,3.423-1.142,3.423-2.794,0-1.528-.875-2.4-3.083-3.251-2.67-.947-4.322-2.33-4.322-4.638,0-2.551,2.111-4.444,5.294-4.444a7.437,7.437,0,0,1,3.618.8l-.583,1.725a6.5,6.5,0,0,0-3.109-.777c-2.233,0-3.083,1.334-3.083,2.452,0,1.53,1,2.281,3.253,3.156,2.769,1.069,4.176,2.4,4.176,4.806,0,2.526-1.869,4.713-5.729,4.713a8.481,8.481,0,0,1-4.176-1.045Z" transform="translate(45.226 103.401)" fill="#004497"/>
    <path id="Trazado_146632" data-name="Trazado 146632" d="M64.95,109.219c0,5.632-3.423,8.62-7.6,8.62-4.322,0-7.359-3.35-7.359-8.3,0-5.195,3.229-8.6,7.6-8.6,4.468,0,7.357,3.425,7.357,8.28m-12.7.267c0,3.5,1.893,6.628,5.221,6.628,3.348,0,5.243-3.083,5.243-6.8,0-3.251-1.7-6.652-5.221-6.652-3.5,0-5.243,3.231-5.243,6.822" transform="translate(51.213 103.4)" fill="#004497"/>
    <path id="Trazado_146633" data-name="Trazado 146633" d="M57.818,118.542l6.776-17.6h1.65l-6.8,17.6Z" transform="translate(59.228 103.401)" fill="#004497"/>
    <rect id="Rectángulo_37503" data-name="Rectángulo 37503" width="2.113" height="16.365" transform="translate(127.246 204.608)" fill="#004497"/>
    <path id="Trazado_146634" data-name="Trazado 146634" d="M74.2,109.764H67.839v5.9h7.089v1.773h-9.2V101.072h8.84v1.773H67.839v5.172H74.2Z" transform="translate(67.327 103.535)" fill="#004497"/>
    <path id="Trazado_146635" data-name="Trazado 146635" d="M83.557,117.038a10.514,10.514,0,0,1-4.322.777c-4.614,0-8.085-2.915-8.085-8.28,0-5.122,3.472-8.6,8.547-8.6a8.765,8.765,0,0,1,3.885.729l-.51,1.725a7.658,7.658,0,0,0-3.3-.68c-3.836,0-6.385,2.452-6.385,6.749,0,4,2.306,6.579,6.288,6.579a8.45,8.45,0,0,0,3.448-.68Z" transform="translate(72.884 103.401)" fill="#004497"/>
    <path id="Trazado_146636" data-name="Trazado 146636" d="M80.763,117.277v-1.31l1.674-1.628c4.031-3.836,5.852-5.877,5.875-8.255A2.814,2.814,0,0,0,85.182,103a5.388,5.388,0,0,0-3.352,1.334l-.68-1.5a6.927,6.927,0,0,1,4.468-1.6,4.442,4.442,0,0,1,4.832,4.589c0,2.913-2.113,5.267-5.437,8.472l-1.263,1.168v.047h7.089v1.773Z" transform="translate(82.732 103.696)" fill="#004497"/>
    <path id="Trazado_146637" data-name="Trazado 146637" d="M96.375,103.157H90.353l-.605,4.055a8.391,8.391,0,0,1,1.285-.1,6.661,6.661,0,0,1,3.4.85,4.5,4.5,0,0,1,2.257,4.055c0,3.081-2.452,5.389-5.875,5.389a7.735,7.735,0,0,1-3.931-.97l.532-1.628a7.064,7.064,0,0,0,3.375.873,3.482,3.482,0,0,0,3.739-3.423c-.024-2.039-1.385-3.494-4.539-3.494a16.355,16.355,0,0,0-2.186.168l1.02-7.575h7.551Z" transform="translate(89.001 103.83)" fill="#004497"/>
    <path id="Trazado_146638" data-name="Trazado 146638" d="M103.674,109.216c0,5.365-1.99,8.326-5.486,8.326-3.083,0-5.17-2.889-5.221-8.11,0-5.292,2.283-8.2,5.488-8.2,3.326,0,5.219,2.96,5.219,7.988m-8.569.241c0,4.1,1.263,6.436,3.2,6.436,2.184,0,3.229-2.551,3.229-6.579,0-3.885-.994-6.435-3.2-6.435-1.868,0-3.229,2.283-3.229,6.579" transform="translate(95.233 103.696)" fill="#004497"/>
    <path id="Trazado_146639" data-name="Trazado 146639" d="M109.83,109.216c0,5.365-1.99,8.326-5.486,8.326-3.083,0-5.17-2.889-5.221-8.11,0-5.292,2.283-8.2,5.488-8.2,3.326,0,5.219,2.96,5.219,7.988m-8.569.241c0,4.1,1.263,6.436,3.2,6.436,2.184,0,3.229-2.551,3.229-6.579,0-3.885-.994-6.435-3.2-6.435-1.869,0-3.229,2.283-3.229,6.579" transform="translate(101.539 103.696)" fill="#004497"/>
    <path id="Trazado_146640" data-name="Trazado 146640" d="M115.986,109.216c0,5.365-1.99,8.326-5.486,8.326-3.083,0-5.17-2.889-5.221-8.11,0-5.292,2.283-8.2,5.488-8.2,3.326,0,5.219,2.96,5.219,7.988m-8.569.241c0,4.1,1.263,6.436,3.2,6.436,2.184,0,3.229-2.551,3.229-6.579,0-3.885-.994-6.435-3.2-6.435-1.868,0-3.229,2.283-3.229,6.579" transform="translate(107.845 103.696)" fill="#004497"/>
  </g>
</svg>
